<?xml version="1.0" standalone="no"?>
<!DOCTYPE svg PUBLIC "-//W3C//DTD SVG 1.1//EN" "http://www.w3.org/Graphics/SVG/1.1/DTD/svg11.dtd" >
<svg xmlns="http://www.w3.org/2000/svg" xmlns:xlink="http://www.w3.org/1999/xlink" version="1.1">
<metadata>
Created by FontForge 20170731 at Sun Jul 19 08:52:43 2015
 By Aleksey,,,
Copyright (c) 2007 by Process Type Foundry. All rights reserved.
</metadata>
<defs>
<font id="Seravek-Bold" horiz-adv-x="552" >
  <font-face 
    font-family="Seravek"
    font-weight="700"
    font-stretch="normal"
    units-per-em="1000"
    panose-1="2 11 8 3 5 0 0 2 0 4"
    ascent="800"
    descent="-200"
    x-height="490"
    cap-height="666"
    bbox="-891 -436 1476 1133"
    underline-thickness="112"
    underline-position="-418"
    unicode-range="U+0020-FE48"
  />
<missing-glyph horiz-adv-x="646" 
d="M90 666h466v-666h-466v666zM167 616l340 -527v527h-340zM139 49h339l-339 527v-527z" />
    <glyph glyph-name="f_f" unicode="ff" horiz-adv-x="702" 
d="M421 0v370h-170v-370h-160v368h-76v122h76v14q0 112 54.5 162t146.5 50q24 0 47.5 -3.5t40.5 -9.5l-11 -116q-8 2 -20 4t-25 2q-38 0 -55.5 -19t-17.5 -62v-22h170v14q0 109 57 160.5t151 51.5q24 0 49.5 -3.5t47.5 -12.5l-12 -114q-24 7 -52 7q-38 0 -59.5 -18
t-21.5 -64v-21h112v-122h-112v-368h-160z" />
    <glyph glyph-name="fi" unicode="fi" horiz-adv-x="621" 
d="M403 0v373h-152v-373h-160v368h-76v122h76v10q0 58 15.5 99t45 67t71 38t93.5 12q43 0 77.5 -7.5t65.5 -20.5l-19 -113q-21 8 -46.5 14t-55.5 6q-45 0 -66 -19.5t-21 -61.5v-24h310v-490h-158z" />
    <glyph glyph-name="fl" unicode="fl" horiz-adv-x="659" 
d="M353 368h-102v-368h-160v368h-76v122h76v13q0 100 52 156.5t163 56.5q29 0 55.5 -2.5t49.5 -7.5h160v-556q0 -19 8 -29.5t31 -10.5q14 0 34 3l5 -110q-20 -6 -45.5 -9.5t-52.5 -3.5q-40 0 -67 12t-43 32t-23 45.5t-7 52.5v457q-29 8 -68 8q-48 0 -70 -20.5t-22 -72.5v-14
h102v-122z" />
    <glyph glyph-name="f_f_i" unicode="ffi" horiz-adv-x="951" 
d="M733 0v373h-152v-373h-160v370h-170v-370h-160v368h-76v122h76v14q0 112 54.5 162t146.5 50q24 0 47.5 -3.5t40.5 -9.5l-11 -116q-8 2 -20 4t-25 2q-38 0 -55.5 -19t-17.5 -62v-22h170v10q0 58 15.5 99t45 67t71 38t93.5 12q43 0 77.5 -7.5t65.5 -20.5l-19 -113
q-21 8 -46.5 14t-55.5 6q-45 0 -66 -19.5t-21 -61.5v-24h310v-490h-158z" />
    <glyph glyph-name="f_f_l" unicode="ffl" horiz-adv-x="989" 
d="M421 503q0 100 52 156.5t163 56.5q29 0 55.5 -2.5t49.5 -7.5h160v-556q0 -19 8 -29.5t31 -10.5q14 0 34 3l5 -110q-20 -6 -45.5 -9.5t-52.5 -3.5q-40 0 -67 12t-43 32t-23 45.5t-7 52.5v457q-29 8 -68 8q-48 0 -70 -20.5t-22 -72.5v-14h102v-122h-102v-368h-160v370h-170
v-370h-160v368h-76v122h76v14q0 112 54.5 162t146.5 50q24 0 47.5 -3.5t40.5 -9.5l-11 -116q-8 2 -20 4t-25 2q-38 0 -55.5 -19t-17.5 -62v-22h170v13z" />
    <glyph glyph-name="f_b" unicode="fb" horiz-adv-x="933" 
d="M411 589q-29 8 -68 8q-48 0 -70 -20.5t-22 -72.5v-14h102v-122h-102v-368h-160v368h-76v122h76v13q0 100 52 156.5t163 56.5q29 0 55.5 -2.5t49.5 -7.5h160v-254q21 21 50.5 34.5t74.5 13.5q48 0 87 -18.5t66.5 -52t42.5 -79.5t15 -101q0 -53 -17.5 -100.5t-52.5 -82.5
t-88 -55.5t-124 -20.5q-60 0 -114.5 13t-99.5 36v550zM650 378q-45 0 -79 -27v-232q11 -5 26 -8t31 -3q31 0 54 11t37 30t21 44t7 54q0 60 -23.5 95.5t-73.5 35.5z" />
    <glyph glyph-name="f_f_b" unicode="ffb" horiz-adv-x="1263" 
d="M901 452q21 21 50.5 34.5t74.5 13.5q48 0 87 -18.5t66.5 -52t42.5 -79.5t15 -101q0 -53 -17.5 -100.5t-52.5 -82.5t-88 -55.5t-124 -20.5q-60 0 -114.5 13t-99.5 36v550q-29 8 -68 8q-48 0 -70 -20.5t-22 -72.5v-14h102v-122h-102v-368h-160v370h-170v-370h-160v368h-76
v122h76v14q0 112 54.5 162t146.5 50q24 0 47.5 -3.5t40.5 -9.5l-11 -116q-8 2 -20 4t-25 2q-38 0 -55.5 -19t-17.5 -62v-22h170v13q0 100 52 156.5t163 56.5q29 0 55.5 -2.5t49.5 -7.5h160v-254zM980 378q-45 0 -79 -27v-232q11 -5 26 -8t31 -3q31 0 54 11t37 30t21 44t7 54
q0 60 -23.5 95.5t-73.5 35.5z" />
    <glyph glyph-name="f_h" unicode="fh" horiz-adv-x="934" 
d="M411 0v589q-29 8 -68 8q-48 0 -70 -20.5t-22 -72.5v-14h102v-122h-102v-368h-160v368h-76v122h76v13q0 100 52 156.5t163 56.5q29 0 55.5 -2.5t49.5 -7.5h160v-274q22 35 57 51.5t74 16.5q49 0 83 -20.5t55.5 -54.5t31 -78.5t9.5 -93.5v-253h-160v256q0 61 -19 89.5
t-58 28.5q-25 0 -43.5 -11t-29.5 -27v-336h-160z" />
    <glyph glyph-name="f_f_h" unicode="ffh" horiz-adv-x="1264" 
d="M741 0v589q-29 8 -68 8q-48 0 -70 -20.5t-22 -72.5v-14h102v-122h-102v-368h-160v370h-170v-370h-160v368h-76v122h76v14q0 112 54.5 162t146.5 50q24 0 47.5 -3.5t40.5 -9.5l-11 -116q-8 2 -20 4t-25 2q-38 0 -55.5 -19t-17.5 -62v-22h170v13q0 100 52 156.5t163 56.5
q29 0 55.5 -2.5t49.5 -7.5h160v-274q22 35 57 51.5t74 16.5q49 0 83 -20.5t55.5 -54.5t31 -78.5t9.5 -93.5v-253h-160v256q0 61 -19 89.5t-58 28.5q-25 0 -43.5 -11t-29.5 -27v-336h-160z" />
    <glyph glyph-name="f_j" unicode="fj" horiz-adv-x="620" 
d="M561 126q0 -50 -6 -95t-22.5 -87.5t-44.5 -82t-73 -77.5l-105 88q22 25 39.5 50.5t29.5 52.5t18 58t6 67v273h-152v-373h-160v368h-76v122h76v10q0 58 15.5 99t45 67t71 38t93.5 12q43 0 77.5 -7.5t65.5 -20.5l-19 -113q-21 8 -46.5 14t-55.5 6q-45 0 -66 -19.5
t-21 -61.5v-24h310v-364v0z" />
    <glyph glyph-name="f_f_j" unicode="ffj" horiz-adv-x="950" 
d="M891 126q0 -50 -6 -95t-22.5 -87.5t-44.5 -82t-73 -77.5l-105 88q22 25 39.5 50.5t29.5 52.5t18 58t6 67v273h-152v-373h-160v370h-170v-370h-160v368h-76v122h76v14q0 112 54.5 162t146.5 50q24 0 47.5 -3.5t40.5 -9.5l-11 -116q-8 2 -20 4t-25 2q-38 0 -55.5 -19
t-17.5 -62v-22h170v10q0 58 15.5 99t45 67t71 38t93.5 12q43 0 77.5 -7.5t65.5 -20.5l-19 -113q-21 8 -46.5 14t-55.5 6q-45 0 -66 -19.5t-21 -61.5v-24h310v-364v0z" />
    <glyph glyph-name="f_k" unicode="fk" horiz-adv-x="914" 
d="M411 0v589q-29 8 -68 8q-48 0 -70 -20.5t-22 -72.5v-14h102v-122h-102v-368h-160v368h-76v122h76v13q0 100 52 156.5t163 56.5q29 0 55.5 -2.5t49.5 -7.5h160v-445l147 229h173l-158 -241l179 -249h-183l-158 237v-237h-160z" />
    <glyph glyph-name="f_f_k" unicode="ffk" horiz-adv-x="1244" 
d="M741 0v589q-29 8 -68 8q-48 0 -70 -20.5t-22 -72.5v-14h102v-122h-102v-368h-160v370h-170v-370h-160v368h-76v122h76v14q0 112 54.5 162t146.5 50q24 0 47.5 -3.5t40.5 -9.5l-11 -116q-8 2 -20 4t-25 2q-38 0 -55.5 -19t-17.5 -62v-22h170v13q0 100 52 156.5t163 56.5
q29 0 55.5 -2.5t49.5 -7.5h160v-445l147 229h173l-158 -241l179 -249h-183l-158 237v-237h-160z" />
    <glyph glyph-name=".notdef" horiz-adv-x="646" 
d="M90 666h466v-666h-466v666zM167 616l340 -527v527h-340zM139 49h339l-339 527v-527z" />
    <glyph glyph-name=".null" horiz-adv-x="0" 
 />
    <glyph glyph-name="nonmarkingreturn" horiz-adv-x="333" 
 />
    <glyph glyph-name="space" unicode=" " horiz-adv-x="215" 
 />
    <glyph glyph-name="exclam" unicode="!" horiz-adv-x="340" 
d="M216 225h-91l-37 234v207h164v-207zM80 82q0 36 23 63t67 27t67 -27t23 -63t-23 -63t-67 -27t-67 27t-23 63z" />
    <glyph glyph-name="quotedbl" unicode="&#x22;" horiz-adv-x="512" 
d="M81 411l-16 255h160l-16 -255h-128zM303 411l-16 255h160l-16 -255h-128z" />
    <glyph glyph-name="numbersign" unicode="#" horiz-adv-x="699" 
d="M410 153h-153l-16 -153h-124l16 153h-93v104h104l17 160h-101v104h112l16 145h124l-16 -145h153l16 145h124l-16 -145h91v-104h-102l-17 -160h93v-104h-104l-16 -153h-124zM268 257h153l17 160h-153z" />
    <glyph glyph-name="dollar" unicode="$" horiz-adv-x="511" 
d="M177 -120v123q-37 5 -70.5 14t-61.5 22l28 119q39 -17 76.5 -24.5t78.5 -7.5q33 0 60 14.5t27 48.5q0 29 -21 47t-73 42q-46 21 -78 41.5t-52.5 44t-29.5 52t-9 65.5q0 36 10.5 64.5t28.5 50t42 36t52 22.5v132h143v-124q35 -5 64 -14t53 -21l-30 -120q-26 13 -60 23
t-70 10q-35 0 -56 -13t-21 -40q0 -14 5 -23.5t16.5 -18.5t29 -18t41.5 -21q26 -13 56 -29.5t55.5 -39.5t42.5 -54.5t17 -73.5q0 -73 -41 -125.5t-110 -72.5v-131h-143z" />
    <glyph glyph-name="percent" unicode="%" horiz-adv-x="1010" 
d="M424 479q0 -36 -11.5 -71.5t-35 -64t-59.5 -46t-86 -17.5t-86 17.5t-59.5 46t-35 64t-11.5 71.5t11.5 71.5t35 64t59.5 46t86 17.5t86 -17.5t59.5 -46t35 -64t11.5 -71.5zM297 479q0 45 -15.5 71.5t-49.5 26.5t-49.5 -26.5t-15.5 -71.5t15.5 -71.5t49.5 -26.5t49.5 26.5
t15.5 71.5zM599 678l114 -55l-302 -635l-112 57zM970 187q0 -36 -11.5 -71.5t-35 -64t-59.5 -46t-86 -17.5t-86 17.5t-59.5 46t-35 64t-11.5 71.5t11.5 71.5t35 64t59.5 46t86 17.5t86 -17.5t59.5 -46t35 -64t11.5 -71.5zM843 187q0 45 -15.5 71.5t-49.5 26.5t-49.5 -26.5
t-15.5 -71.5t15.5 -71.5t49.5 -26.5t49.5 26.5t15.5 71.5z" />
    <glyph glyph-name="ampersand" unicode="&#x26;" horiz-adv-x="745" 
d="M659 -12q-85 50 -152 94q-60 -54 -120 -74t-123 -20q-51 0 -92 11.5t-70.5 33t-45.5 53.5t-16 74q0 29 10 53t27.5 45t40.5 40t49 38q-43 38 -69.5 77.5t-26.5 90.5q0 37 14 69t41 55.5t66.5 36.5t90.5 13q43 0 79 -11t61.5 -31t40 -48.5t14.5 -63.5q0 -29 -9.5 -54
t-25.5 -47t-36.5 -41.5t-41.5 -38.5q30 -23 61.5 -46t60.5 -43q20 29 40 65t42 78l116 -60q-23 -46 -45 -84.5t-45 -70.5l132 -83zM280 107q66 0 122 47q-33 23 -70.5 51t-69.5 54q-27 -21 -44.5 -41t-17.5 -46q0 -29 19 -47t61 -18zM217 506q0 -25 14 -47t39 -44
q33 26 53.5 48t20.5 51q0 24 -17.5 38t-44.5 14q-29 0 -47 -15.5t-18 -44.5z" />
    <glyph glyph-name="quotesingle" unicode="'" horiz-adv-x="290" 
d="M81 411l-16 255h160l-16 -255h-128z" />
    <glyph glyph-name="parenleft" unicode="(" horiz-adv-x="374" 
d="M70 280q0 129 40 244.5t120 221.5l109 -62q-33 -62 -53.5 -118.5t-32 -107t-15.5 -95.5t-4 -83t4 -83t15.5 -95.5t32 -107t53.5 -118.5l-109 -62q-80 106 -120 221.5t-40 244.5z" />
    <glyph glyph-name="parenright" unicode=")" horiz-adv-x="374" 
d="M304 280q0 -129 -40 -244.5t-120 -221.5l-109 62q33 62 53.5 118.5t32 107t15.5 95.5t4 83t-4 83t-15.5 95.5t-32 107t-53.5 118.5l109 62q80 -106 120 -221.5t40 -244.5z" />
    <glyph glyph-name="asterisk" unicode="*" horiz-adv-x="412" 
d="M171 595v111h70v-111l96 56l35 -61l-96 -55l96 -55l-35 -61l-96 55v-110h-70v110l-96 -55l-35 61l95 55l-95 55l35 61z" />
    <glyph glyph-name="plus" unicode="+" horiz-adv-x="596" 
d="M366 264v-190h-136v190h-170v118h170v190h136v-190h170v-118h-170z" />
    <glyph glyph-name="comma" unicode="," horiz-adv-x="301" 
d="M32 -105q13 32 22 60.5t15 57.5t9.5 61t5.5 71l157 -12q-2 -41 -9 -78t-19.5 -72t-32.5 -70t-47 -71z" />
    <glyph glyph-name="hyphen" unicode="-" horiz-adv-x="374" 
d="M50 195v128h274v-128h-274z" />
    <glyph glyph-name="period" unicode="." horiz-adv-x="286" 
d="M53 82q0 36 23 63t67 27t67 -27t23 -63t-23 -63t-67 -27t-67 27t-23 63z" />
    <glyph glyph-name="slash" unicode="/" horiz-adv-x="457" 
d="M286 714l141 -48l-252 -766l-140 53z" />
    <glyph glyph-name="zero" unicode="0" horiz-adv-x="622" 
d="M582 333q0 -77 -17 -140.5t-51 -109t-85 -70.5t-118 -25q-68 0 -118.5 25t-84.5 70.5t-51 109t-17 140.5t17 140.5t51 109t84.5 70.5t118.5 25q67 0 118 -25t85 -70.5t51 -109t17 -140.5zM420 333q0 106 -24.5 161.5t-84.5 55.5t-84.5 -55.5t-24.5 -161.5t24.5 -161.5
t84.5 -55.5t84.5 55.5t24.5 161.5z" />
    <glyph glyph-name="one" unicode="1" horiz-adv-x="394" 
d="M162 0v493l-121 -42l-36 126l226 89h93v-666h-162z" />
    <glyph glyph-name="two" unicode="2" horiz-adv-x="511" 
d="M55 625q87 53 188 53q46 0 86 -13.5t69.5 -39t46.5 -63.5t17 -86q0 -39 -10 -73t-27.5 -64.5t-40.5 -58t-48 -53.5q-27 -28 -55.5 -53.5t-51.5 -45.5h237v-128h-424l-24 92q27 28 48 49.5t39.5 40.5t35.5 37t36 39q21 23 43 47.5t39.5 50.5t29 52t11.5 52q0 40 -24 64
t-67 24q-31 0 -58 -9t-56 -26z" />
    <glyph glyph-name="three" unicode="3" horiz-adv-x="493" 
d="M451 184q0 -46 -19 -82t-51.5 -61.5t-76.5 -39t-94 -13.5t-97.5 10.5t-84.5 26.5l26 117q29 -13 62.5 -21.5t72.5 -8.5q51 0 76 21.5t25 58.5q0 44 -37 62.5t-95 18.5h-65v126h38q72 0 108.5 23.5t36.5 63.5q0 31 -21.5 49.5t-63.5 18.5q-26 0 -58.5 -7.5t-58.5 -21.5
l-27 112q42 21 85.5 31t95.5 10q46 0 85 -11.5t66.5 -33t43 -52t15.5 -67.5q0 -54 -31.5 -98t-88.5 -70q27 -9 51 -23t42 -34t29 -46t11 -59z" />
    <glyph glyph-name="four" unicode="4" horiz-adv-x="572" 
d="M462 159v-159h-156v159h-260l-22 117l247 390h191v-385h88v-122h-88zM306 528l-139 -247h139v247z" />
    <glyph glyph-name="five" unicode="5" horiz-adv-x="515" 
d="M475 207q0 -52 -20.5 -92.5t-55.5 -68.5t-83 -43t-103 -15q-46 0 -92.5 9t-77.5 22l21 120q32 -12 67.5 -19.5t70.5 -7.5q55 0 86 22t31 64q0 24 -11 40.5t-29.5 26.5t-43 14t-51.5 4h-104v383h359v-128h-208v-131h16q47 0 88.5 -13t72.5 -38.5t49 -62.5t18 -86z" />
    <glyph glyph-name="six" unicode="6" horiz-adv-x="551" 
d="M439 557q-33 -15 -69.5 -32t-69.5 -41t-59 -56t-39 -75q22 22 55 34t68 12q40 0 75 -13t61.5 -38t41.5 -61.5t15 -82.5q0 -45 -17.5 -84.5t-48 -69t-72 -46t-89.5 -16.5q-65 0 -112.5 23.5t-78.5 61.5t-45.5 86t-14.5 97q0 153 92.5 259.5t257.5 162.5zM369 197
q0 37 -21.5 59t-59.5 22q-28 0 -51.5 -11t-37.5 -25q0 -25 4.5 -49t14 -42.5t26.5 -30t43 -11.5q36 0 59 24.5t23 63.5z" />
    <glyph glyph-name="seven" unicode="7" horiz-adv-x="477" 
d="M452 540l-250 -540h-160l256 538h-268v128h400z" />
    <glyph glyph-name="eight" unicode="8" horiz-adv-x="550" 
d="M275 678q47 0 86.5 -11.5t67.5 -32.5t43.5 -51.5t15.5 -69.5q0 -26 -9.5 -49t-24.5 -42.5t-34.5 -36.5t-40.5 -32q24 -16 47 -34.5t41 -40.5t28.5 -48.5t10.5 -59.5q0 -38 -18 -71.5t-49 -58t-73 -38.5t-91 -14q-109 0 -170 49t-61 131q0 30 11 55t28.5 46.5t40 39.5
t46.5 35q-24 17 -43.5 34.5t-34 36.5t-22.5 41t-8 48q0 38 15 70t42.5 55t67 36t88.5 13zM356 171q0 15 -4.5 27t-15 23.5t-27 24t-40.5 29.5q-35 -26 -55 -48t-20 -56q0 -33 21.5 -51t59.5 -18q36 0 58.5 20t22.5 49zM209 507q0 -11 2.5 -20.5t10 -19.5t20.5 -21t34 -26
q29 21 47 41.5t18 45.5q0 29 -19 43.5t-47 14.5q-29 0 -47.5 -16t-18.5 -42z" />
    <glyph glyph-name="nine" unicode="9" horiz-adv-x="555" 
d="M114 109q33 15 69.5 32t69.5 41t59 55.5t39 75.5q-25 -23 -58 -34.5t-65 -11.5q-40 0 -75 13t-61.5 38t-41.5 61.5t-15 82.5q0 53 18.5 93.5t50 67.5t73.5 41t89 14q65 0 112 -23.5t77 -61.5t44 -86t14 -97q0 -153 -92.5 -259.5t-257.5 -162.5zM184 469q0 -37 21.5 -59
t59.5 -22q28 0 51.5 11t37.5 25q0 25 -4.5 49t-14 42.5t-26.5 30t-43 11.5q-36 0 -59 -24.5t-23 -63.5z" />
    <glyph glyph-name="colon" unicode=":" horiz-adv-x="286" 
d="M53 82q0 36 23 63t67 27t67 -27t23 -63t-23 -63t-67 -27t-67 27t-23 63zM53 362q0 36 23 63t67 27t67 -27t23 -63t-23 -63t-67 -27t-67 27t-23 63z" />
    <glyph glyph-name="semicolon" unicode=";" horiz-adv-x="299" 
d="M28 -105q13 32 22 60.5t15 57.5t9.5 61t5.5 71l157 -12q-2 -41 -9 -78t-19.5 -72t-32.5 -70t-47 -71zM66 362q0 36 23 63t67 27t67 -27t23 -63t-23 -63t-67 -27t-67 27t-23 63z" />
    <glyph glyph-name="less" unicode="&#x3c;" horiz-adv-x="581" 
d="M482 582l49 -111l-337 -148l337 -148l-49 -111l-427 195v128z" />
    <glyph glyph-name="equal" unicode="=" horiz-adv-x="606" 
d="M70 380v118h466v-118h-466zM70 148v118h466v-118h-466z" />
    <glyph glyph-name="greater" unicode="&#x3e;" horiz-adv-x="581" 
d="M526 387v-128l-427 -195l-49 111l337 148l-337 148l49 111z" />
    <glyph glyph-name="question" unicode="?" horiz-adv-x="485" 
d="M116 82q0 36 23 63t67 27t67 -27t23 -63t-23 -63t-67 -27t-67 27t-23 63zM445 498q0 -45 -17.5 -81.5t-49.5 -68.5t-77.5 -63t-102.5 -66l-73 114q34 23 63 42.5t50.5 37.5t34 36.5t12.5 39.5q0 30 -19.5 44t-50.5 14q-36 0 -67 -11.5t-62 -28.5l-46 114q45 29 91 43
t107 14q43 0 81 -11.5t66 -34t44 -56t16 -78.5z" />
    <glyph glyph-name="at" unicode="@" horiz-adv-x="853" 
d="M457 403q42 0 79 -13t65 -32l-26 -148q-1 -5 -1.5 -10t-0.5 -9q0 -41 39 -41q19 0 35.5 11.5t29 32t19.5 48.5t7 61q0 50 -18.5 88.5t-51 64.5t-77.5 39t-99 13q-72 0 -127.5 -24t-94 -64.5t-58 -94.5t-19.5 -115q0 -58 15.5 -105t48.5 -80t83.5 -51t119.5 -18
q72 0 135 14.5t120 40.5l25 -77q-69 -33 -141.5 -48t-141.5 -15q-89 0 -157 26t-115 71t-71 106t-24 130q0 82 29.5 153t83.5 123.5t129.5 82.5t167.5 30q77 0 139.5 -22t106.5 -60t68 -90.5t24 -112.5q0 -48 -14 -91t-40.5 -75.5t-64.5 -51.5t-87 -19q-55 0 -85.5 25.5
t-38.5 59.5q-20 -34 -48.5 -52.5t-59.5 -18.5q-51 0 -77 33.5t-26 81.5q0 42 13 78.5t37.5 64.5t61 44t83.5 16zM454 317q-20 0 -34.5 -8.5t-25 -23t-15.5 -33t-5 -37.5q0 -17 6.5 -29t22.5 -12t31 12.5t27 29.5l17 97q-11 4 -24 4z" />
    <glyph glyph-name="A" unicode="A" horiz-adv-x="700" 
d="M477 129h-255l-41 -129h-169l248 666h180l248 -666h-169zM264 259h171l-85 281z" />
    <glyph glyph-name="B" unicode="B" horiz-adv-x="589" 
d="M556 188q0 -45 -20 -80t-57.5 -59t-90 -36.5t-116.5 -12.5h-207v666h239q54 0 96.5 -12t71.5 -33t44.5 -49t15.5 -61q0 -62 -34.5 -102t-100.5 -60q34 -6 63 -19t50.5 -33t33.5 -47t12 -62zM394 201q0 38 -30.5 57.5t-84.5 19.5h-54v-155h58q60 0 85.5 23t25.5 55z
M273 401q43 0 70 19.5t27 55.5q0 32 -23.5 49.5t-65.5 17.5h-56v-142h48z" />
    <glyph glyph-name="C" unicode="C" horiz-adv-x="627" 
d="M392 678q52 0 104.5 -10t90.5 -29l-24 -121q-30 12 -68.5 20.5t-76.5 8.5q-102 0 -161 -53t-59 -161t59 -161t161 -53q38 0 76.5 8.5t68.5 20.5l24 -121q-38 -19 -90.5 -29t-104.5 -10q-88 0 -155 26t-112 72t-68 109t-23 138t23 138t68 109t112 72t155 26z" />
    <glyph glyph-name="D" unicode="D" horiz-adv-x="693" 
d="M65 666h203q88 0 161.5 -25t125.5 -69t81 -105.5t29 -133.5t-29 -133.5t-81 -105.5t-125.5 -69t-161.5 -25h-203v666zM278 130q50 0 91 14t70.5 40t45.5 63.5t16 85.5t-16 85.5t-45.5 63.5t-70.5 40t-91 14h-49v-406h49z" />
    <glyph glyph-name="E" unicode="E" horiz-adv-x="531" 
d="M65 666h415v-130h-251v-134h239v-130h-239v-142h254v-130h-418v666z" />
    <glyph glyph-name="F" unicode="F" horiz-adv-x="514" 
d="M65 0v666h419v-130h-255v-151h243v-130h-243v-255h-164z" />
    <glyph glyph-name="G" unicode="G" horiz-adv-x="694" 
d="M400 678q130 0 218 -41l-22 -124q-86 34 -180 34q-50 0 -90 -13t-68.5 -40.5t-44 -70t-15.5 -101.5q0 -104 54.5 -157t160.5 -53q23 0 44 3.5t35 8.5v186h147v-274q-43 -21 -109.5 -34.5t-138.5 -13.5q-84 0 -150 24.5t-112 68.5t-70.5 105.5t-24.5 136.5
q0 80 24.5 145.5t71.5 112t115 72t155 25.5z" />
    <glyph glyph-name="H" unicode="H" horiz-adv-x="702" 
d="M473 0v271h-244v-271h-164v666h164v-261h244v261h164v-666h-164z" />
    <glyph glyph-name="I" unicode="I" horiz-adv-x="304" 
d="M234 0h-164v666h164v-666z" />
    <glyph glyph-name="J" unicode="J" horiz-adv-x="299" 
d="M234 159q0 -45 -6 -87.5t-21.5 -84t-42.5 -82t-69 -81.5l-113 89q42 50 65 102t23 117v534h164v-507v0z" />
    <glyph glyph-name="K" unicode="K" horiz-adv-x="640" 
d="M65 0v666h164v-319l210 319h185l-225 -329l241 -337h-197l-214 326v-326h-164z" />
    <glyph glyph-name="L" unicode="L" horiz-adv-x="492" 
d="M229 666v-536h245v-130h-409v666h164z" />
    <glyph glyph-name="M" unicode="M" horiz-adv-x="864" 
d="M511 106h-158l-130 267l-20 -373h-161l50 666h148l192 -407l192 407h148l50 -666h-161l-20 373z" />
    <glyph glyph-name="N" unicode="N" horiz-adv-x="721" 
d="M498 0l-275 397v-397h-158v666h158l275 -397v397h158v-666h-158z" />
    <glyph glyph-name="O" unicode="O" horiz-adv-x="748" 
d="M714 333q0 -71 -23 -133.5t-66.5 -109.5t-106.5 -74.5t-144 -27.5t-144.5 27.5t-107 74.5t-66 109.5t-22.5 133.5t22.5 133.5t66 109.5t107 74.5t144.5 27.5t144 -27.5t106.5 -74.5t66.5 -109.5t23 -133.5zM374 118q43 0 76 16t55.5 44.5t33.5 68t11 86.5t-11 86.5
t-33.5 68t-55.5 44.5t-76 16q-44 0 -76.5 -16t-55 -44.5t-33.5 -68t-11 -86.5t11 -86.5t33.5 -68t55 -44.5t76.5 -16z" />
    <glyph glyph-name="P" unicode="P" horiz-adv-x="559" 
d="M547 449q0 -53 -23 -95t-63.5 -70.5t-95.5 -43.5t-119 -15h-17v-225h-164v666h192q63 0 116.5 -13t92 -39.5t60 -67.5t21.5 -97zM389 448q0 92 -131 92h-29v-189h27q65 0 99 26t34 71z" />
    <glyph glyph-name="Q" unicode="Q" horiz-adv-x="748" 
d="M393 -10q-4 -1 -8 -1.5t-11 -0.5q-81 0 -144.5 27.5t-107 74.5t-66 109.5t-22.5 133.5t22.5 133.5t66 109.5t107 74.5t144.5 27.5t144 -27.5t106.5 -74.5t66.5 -109.5t23 -133.5q0 -92 -37.5 -168.5t-108.5 -122.5l160 -106l-77 -117zM374 118q43 0 76 16t55.5 44.5
t33.5 68t11 86.5t-11 86.5t-33.5 68t-55.5 44.5t-76 16q-44 0 -76.5 -16t-55 -44.5t-33.5 -68t-11 -86.5t11 -86.5t33.5 -68t55 -44.5t76.5 -16z" />
    <glyph glyph-name="R" unicode="R" horiz-adv-x="639" 
d="M567 455q0 -67 -37.5 -117t-104.5 -76l219 -262h-202l-183 231h-30v-231h-164v666h212q62 0 115 -13t92 -39t61 -65.5t22 -93.5zM409 452q0 45 -35 66.5t-98 21.5h-47v-187h40q66 0 103 26t37 73z" />
    <glyph glyph-name="S" unicode="S" horiz-adv-x="530" 
d="M502 199q0 -44 -17.5 -82.5t-50.5 -67t-80 -45t-107 -16.5q-55 0 -110 12t-102 35l33 125q35 -17 79 -29.5t95 -12.5q42 0 69 15.5t27 50.5q0 25 -23.5 45.5t-85.5 43.5q-98 37 -143 84.5t-45 121.5q0 97 63.5 148t175.5 51q57 0 109 -12.5t88 -32.5l-28 -123
q-35 17 -76.5 27.5t-85.5 10.5q-37 0 -59.5 -12.5t-22.5 -42.5q0 -14 4 -24t14.5 -19t29.5 -18t48 -21q42 -17 79 -36t64 -44t42.5 -57t15.5 -75z" />
    <glyph glyph-name="T" unicode="T" horiz-adv-x="550" 
d="M536 666v-130h-179v-536h-164v536h-179v130h522z" />
    <glyph glyph-name="U" unicode="U" horiz-adv-x="690" 
d="M463 666h164v-426q0 -118 -74.5 -185t-207.5 -67t-207.5 67t-74.5 185v426h164v-431q0 -57 30 -87t88 -30t88 30t30 87v431z" />
    <glyph glyph-name="V" unicode="V" horiz-adv-x="634" 
d="M409 0h-184l-225 666h172l145 -507l145 507h172z" />
    <glyph glyph-name="W" unicode="W" horiz-adv-x="998" 
d="M714 204l103 462h168l-184 -666h-167l-135 500l-135 -500h-167l-184 666h168l103 -462l124 462h182z" />
    <glyph glyph-name="X" unicode="X" horiz-adv-x="654" 
d="M411 335l225 -335h-175l-134 213l-134 -213h-175l225 335l-221 331h174l131 -208l131 208h174z" />
    <glyph glyph-name="Y" unicode="Y" horiz-adv-x="592" 
d="M378 242v-242h-164v242l-219 424h175l126 -280l126 280h175z" />
    <glyph glyph-name="Z" unicode="Z" horiz-adv-x="570" 
d="M56 666h466v-130l-292 -406h302v-130h-484v130l292 406h-284v130z" />
    <glyph glyph-name="bracketleft" unicode="[" horiz-adv-x="395" 
d="M85 -176v912h265v-120h-105v-672h105v-120h-265z" />
    <glyph glyph-name="backslash" unicode="\" horiz-adv-x="457" 
d="M422 -47l-140 -53l-252 766l141 48z" />
    <glyph glyph-name="bracketright" unicode="]" horiz-adv-x="395" 
d="M45 -176v120h105v672h-105v120h265v-912h-265z" />
    <glyph glyph-name="asciicircum" unicode="^" horiz-adv-x="534" 
d="M489 352l-124 -46l-98 241l-98 -241l-124 46l144 314h156z" />
    <glyph glyph-name="underscore" unicode="_" horiz-adv-x="456" 
d="M-1 -250v112h458v-112h-458z" />
    <glyph glyph-name="grave" unicode="`" horiz-adv-x="445" 
d="M216 559l-116 169h169l76 -169h-129z" />
    <glyph glyph-name="a" unicode="a" horiz-adv-x="535" 
d="M328 48q-23 -23 -62.5 -40.5t-86.5 -17.5q-33 0 -59 11t-43.5 30t-27 44.5t-9.5 54.5q0 68 42.5 102.5t120.5 40.5q29 2 61.5 3t57.5 2v16q0 80 -89 80q-35 0 -67.5 -8t-59.5 -22l-29 111q35 20 82.5 32.5t103.5 12.5q103 0 161 -53.5t58 -160.5v-286h-154v48zM241 95
q23 0 43.5 6t37.5 16v73q-24 -2 -43 -4.5t-37 -4.5q-49 -6 -49 -46q0 -18 12.5 -29t35.5 -11z" />
    <glyph glyph-name="b" unicode="b" horiz-adv-x="580" 
d="M58 706h160v-254q21 21 50.5 34.5t74.5 13.5q48 0 87 -18.5t66.5 -52t42.5 -79.5t15 -101q0 -53 -17.5 -100.5t-52.5 -82.5t-88 -55.5t-124 -20.5q-60 0 -114.5 13t-99.5 36v667zM297 378q-45 0 -79 -27v-232q11 -5 26 -8t31 -3q31 0 54 11t37 30t21 44t7 54
q0 60 -23.5 95.5t-73.5 35.5z" />
    <glyph glyph-name="c" unicode="c" horiz-adv-x="454" 
d="M291 500q38 0 74.5 -8t63.5 -22l-16 -114q-19 8 -45.5 14t-53.5 6q-64 0 -96 -35t-32 -96t32 -96t96 -35q27 0 53.5 6t45.5 14l16 -114q-27 -14 -63.5 -22t-74.5 -8q-62 0 -111.5 18.5t-83.5 52t-52 80.5t-18 104t18 104t52 80.5t83.5 52t111.5 18.5z" />
    <glyph glyph-name="d" unicode="d" horiz-adv-x="584" 
d="M524 0h-153v62q-23 -33 -59.5 -52.5t-87.5 -19.5q-41 0 -77 17.5t-62.5 50t-41.5 78.5t-15 103q0 64 20.5 113t55 82t80.5 49.5t98 16.5q26 0 46 -3.5t36 -8.5v218h160v-706zM282 113q51 0 82 34v225q-22 8 -57 8q-60 0 -89.5 -37t-29.5 -101q0 -57 22.5 -93t71.5 -36z
" />
    <glyph glyph-name="e" unicode="e" horiz-adv-x="516" 
d="M277 500q96 0 152 -56.5t56 -156.5q0 -38 -9 -81h-284q2 -45 30.5 -72.5t87.5 -27.5q36 0 75.5 6.5t68.5 19.5l20 -103q-38 -19 -85.5 -29t-98.5 -10q-64 0 -113 18.5t-82 51.5t-50 79t-17 102q0 60 17.5 108t50 81.5t78.5 51.5t103 18zM272 398q-38 0 -58.5 -24.5
t-20.5 -67.5h142q2 8 2 17q0 32 -17 53.5t-48 21.5z" />
    <glyph glyph-name="f" unicode="f" horiz-adv-x="372" 
d="M91 0v368h-76v122h76v14q0 109 57 160.5t151 51.5q24 0 49.5 -3.5t47.5 -12.5l-12 -114q-24 7 -52 7q-38 0 -59.5 -18t-21.5 -64v-21h112v-122h-112v-368h-160z" />
    <glyph glyph-name="g" unicode="g" horiz-adv-x="528" 
d="M516 490v-102h-72l-1 1q11 -30 11 -58q0 -34 -13.5 -64t-40 -52.5t-66 -35.5t-91.5 -13h-6q-4 -7 -6.5 -13.5t-2.5 -14.5q0 -14 10.5 -20.5t26.5 -7.5l86 -5q74 -5 118.5 -38.5t44.5 -99.5q0 -46 -24.5 -80.5t-65 -57t-91.5 -34t-104 -11.5q-42 0 -81.5 6t-70.5 20.5
t-50 38.5t-19 59q0 23 10 40.5t27 30.5t39 22t45 14q-44 22 -44 67q0 19 7.5 34t18.5 26.5t24.5 20t25.5 13.5q-64 17 -96.5 58.5t-32.5 96.5q0 36 13.5 66.5t40 53.5t66 36t91.5 13q22 0 41.5 -2.5t36.5 -7.5h195zM196 -2q-12 -9 -25 -22t-13 -34q0 -28 23.5 -41t65.5 -13
q22 0 43.5 4.5t38.5 13t27 20t10 26.5q0 18 -12.5 26t-39.5 10zM243 264q35 0 53 18.5t18 50.5t-18 50.5t-53 18.5t-53 -18.5t-18 -50.5t18 -50.5t53 -18.5z" />
    <glyph glyph-name="h" unicode="h" horiz-adv-x="583" 
d="M60 0v706h160v-274q22 35 57 51.5t74 16.5q49 0 83 -20.5t55.5 -54.5t31 -78.5t9.5 -93.5v-253h-160v256q0 61 -19 89.5t-58 28.5q-25 0 -43.5 -11t-29.5 -27v-336h-160z" />
    <glyph glyph-name="i" unicode="i" horiz-adv-x="280" 
d="M60 0v490h160v-490h-160zM50 633q0 38 25 64t65 26t65 -26t25 -64t-25 -64t-65 -26t-65 26t-25 64z" />
    <glyph glyph-name="j" unicode="j" horiz-adv-x="281" 
d="M222 126q0 -50 -6.5 -95t-23 -87.5t-45 -82t-73.5 -77.5l-105 88q22 25 39.5 50.5t29.5 52.5t18 58t6 67v390h160v-364zM52 633q0 38 25 64t65 26t65 -26t25 -64t-25 -64t-65 -26t-65 26t-25 64z" />
    <glyph glyph-name="k" unicode="k" horiz-adv-x="563" 
d="M60 0v706h160v-445l147 229h173l-158 -241l179 -249h-183l-158 237v-237h-160z" />
    <glyph glyph-name="l" unicode="l" horiz-adv-x="301" 
d="M213 150q0 -19 8 -29.5t31 -10.5q14 0 34 3l5 -110q-20 -6 -45.5 -9.5t-52.5 -3.5q-40 0 -67 12t-43 32t-23 45.5t-7 52.5v574h160v-556z" />
    <glyph glyph-name="m" unicode="m" horiz-adv-x="879" 
d="M596 374q-26 0 -46 -12t-34 -28q4 -17 5.5 -39t1.5 -42v-253h-160v256q0 61 -15.5 89.5t-54.5 28.5q-25 0 -43.5 -11t-29.5 -27v-336h-160v490h154v-64q23 40 60.5 57t76.5 17q48 0 79.5 -19.5t59.5 -63.5q52 83 163 83q48 0 81 -20.5t53.5 -54.5t29.5 -78.5t9 -93.5
v-253h-160v256q0 61 -15.5 89.5t-54.5 28.5z" />
    <glyph glyph-name="n" unicode="n" horiz-adv-x="583" 
d="M60 0v490h154v-64q23 40 59.5 57t77.5 17q49 0 83 -20.5t55.5 -54.5t31 -78.5t9.5 -93.5v-253h-160v256q0 61 -19 89.5t-58 28.5q-25 0 -43.5 -11t-29.5 -27v-336h-160z" />
    <glyph glyph-name="o" unicode="o" horiz-adv-x="574" 
d="M548 245q0 -54 -17 -100.5t-50 -81t-82 -54t-112 -19.5t-112 19.5t-82 54t-50 81t-17 100.5t17 100.5t50 81t82 54t112 19.5t112 -19.5t82 -54t50 -81t17 -100.5zM388 245q0 26 -5 50.5t-16.5 44t-31 31t-48.5 11.5t-48.5 -11.5t-31 -31t-16.5 -44t-5 -50.5t5 -50.5
t16.5 -44t31 -31t48.5 -11.5t48.5 11.5t31 31t16.5 44t5 50.5z" />
    <glyph glyph-name="p" unicode="p" horiz-adv-x="584" 
d="M60 490h153v-58q48 68 147 68q41 0 77 -17.5t62.5 -50t41.5 -78.5t15 -103q0 -65 -20.5 -113.5t-55 -81.5t-80.5 -49.5t-98 -16.5q-26 0 -46 3.5t-36 8.5v-208h-160v696zM302 377q-27 0 -47 -8.5t-35 -25.5v-227q11 -4 25 -6t32 -2q63 0 91 38.5t28 103.5
q0 54 -22.5 90.5t-71.5 36.5z" />
    <glyph glyph-name="q" unicode="q" horiz-adv-x="584" 
d="M524 -206h-160v243q-22 -22 -53 -34.5t-72 -12.5q-50 0 -89.5 18.5t-66.5 51.5t-41 79t-14 101q0 59 18 107t53.5 82t88.5 52.5t122 18.5q64 0 115 -12t99 -36v-658zM285 112q46 0 79 26v232q-23 11 -56 11q-61 0 -90.5 -38.5t-29.5 -101.5q0 -60 23.5 -94.5t73.5 -34.5z
" />
    <glyph glyph-name="r" unicode="r" horiz-adv-x="379" 
d="M373 352h-19q-95 0 -134 -48v-304h-160v490h155v-82q14 40 43 63t76 23q14 0 23.5 -1.5t19.5 -4.5z" />
    <glyph glyph-name="s" unicode="s" horiz-adv-x="435" 
d="M409 160q0 -41 -15.5 -73t-44 -53.5t-67.5 -32.5t-86 -11q-40 0 -84 7.5t-80 22.5l22 111q31 -13 68.5 -19.5t65.5 -6.5q29 0 50.5 8.5t21.5 28.5q0 18 -19 25.5t-57 21.5q-31 11 -58 24.5t-46.5 32t-30.5 42.5t-11 56q0 80 54 118t141 38q46 0 84 -8.5t73 -28.5
l-22 -105q-27 12 -57 19.5t-63 7.5q-29 0 -44.5 -5.5t-15.5 -22.5t18.5 -24.5t47.5 -18.5q22 -8 49 -19.5t50.5 -29.5t39.5 -43.5t16 -61.5z" />
    <glyph glyph-name="t" unicode="t" horiz-adv-x="404" 
d="M8 490h75v128h160v-128h141v-122h-141v-192q0 -29 12.5 -45.5t45.5 -16.5q18 0 36.5 2.5t35.5 7.5l11 -111q-24 -11 -59 -17t-70 -6q-47 0 -79.5 14.5t-53 39t-30 58t-9.5 71.5v195h-75v122z" />
    <glyph glyph-name="u" unicode="u" horiz-adv-x="579" 
d="M519 490v-490h-154v64q-28 -42 -63 -58t-74 -16q-49 0 -82.5 20.5t-54 54.5t-29.5 78.5t-9 93.5v253h160v-256q0 -61 17 -89.5t56 -28.5q25 0 43.5 11t29.5 27v336h160z" />
    <glyph glyph-name="v" unicode="v" horiz-adv-x="508" 
d="M169 0l-170 490h161l94 -344l94 344h161l-170 -490h-170z" />
    <glyph glyph-name="w" unicode="w" horiz-adv-x="804" 
d="M510 0l-108 313l-108 -313h-150l-139 490h153l69 -295l100 295h150l100 -295l69 295h153l-139 -490h-150z" />
    <glyph glyph-name="x" unicode="x" horiz-adv-x="531" 
d="M5 0l175 248l-169 242h164l90 -135l91 135h164l-170 -242l176 -248h-166l-95 141l-94 -141h-166z" />
    <glyph glyph-name="y" unicode="y" horiz-adv-x="506" 
d="M113 -206l64 194l-177 502h166l90 -349l89 349h161l-232 -696h-161z" />
    <glyph glyph-name="z" unicode="z" horiz-adv-x="470" 
d="M44 0v110l199 268h-197v112h375v-111l-198 -267h215v-112h-394z" />
    <glyph glyph-name="braceleft" unicode="{" horiz-adv-x="450" 
d="M295 34q0 -50 20 -70t59 -20h36v-120h-64q-60 0 -100 13.5t-65 39.5t-35.5 65.5t-10.5 90.5v100q0 24 -4 42.5t-14.5 31t-30.5 18.5t-51 6v98q31 0 51 6t30.5 18.5t14.5 31t4 42.5v100q0 51 10.5 90.5t35.5 65.5t65 39.5t100 13.5h64v-120h-36q-39 0 -59 -20t-20 -70v-78
q0 -33 -4.5 -59t-16.5 -46.5t-32.5 -36t-53.5 -26.5q33 -11 53.5 -26.5t32.5 -36t16.5 -46.5t4.5 -59v-78z" />
    <glyph glyph-name="bar" unicode="|" horiz-adv-x="323" 
d="M95 -250v1000h133v-1000h-133z" />
    <glyph glyph-name="braceright" unicode="}" horiz-adv-x="450" 
d="M155 112q0 33 4.5 59t16.5 46.5t32.5 36t53.5 26.5q-33 11 -53.5 26.5t-32.5 36t-16.5 46.5t-4.5 59v78q0 50 -20 70t-59 20h-36v120h64q60 0 100 -13.5t65 -39.5t35.5 -65.5t10.5 -90.5v-100q0 -24 4 -42.5t14.5 -31t30 -18.5t51.5 -6v-98q-32 0 -51.5 -6t-30 -18.5
t-14.5 -31t-4 -42.5v-100q0 -51 -10.5 -90.5t-35.5 -65.5t-65 -39.5t-100 -13.5h-64v120h36q39 0 59 20t20 70v78z" />
    <glyph glyph-name="asciitilde" unicode="~" horiz-adv-x="607" 
d="M567 394q-31 -87 -67 -127.5t-94 -40.5q-29 0 -55 12.5t-50 24.5t-41.5 21.5t-34.5 9.5q-27 0 -40 -19.5t-25 -48.5l-115 45q14 48 30 80.5t35.5 53t43.5 29t55 8.5q29 0 52.5 -9.5t52.5 -25.5q22 -12 41 -22.5t39 -10.5q26 0 37 18t24 50z" />
    <glyph glyph-name="uni00A0" unicode="&#xa0;" horiz-adv-x="200" 
 />
    <glyph glyph-name="exclamdown" unicode="&#xa1;" horiz-adv-x="340" 
d="M252 33v-207h-164v207l37 234h91zM80 410q0 36 23 63t67 27t67 -27t23 -63t-23 -63t-67 -27t-67 27t-23 63z" />
    <glyph glyph-name="cent" unicode="&#xa2;" horiz-adv-x="511" 
d="M224 -28v127q-82 21 -128 81.5t-46 152.5q0 91 46 151.5t128 82.5v128h139v-121q26 -5 52 -12t46 -18l-22 -113q-23 10 -51.5 15.5t-59.5 5.5q-55 0 -86.5 -29.5t-31.5 -89.5t31.5 -89.5t86.5 -29.5q31 0 59.5 5.5t51.5 15.5l22 -113q-20 -11 -46 -18.5t-52 -11.5v-120
h-139z" />
    <glyph glyph-name="sterling" unicode="&#xa3;" horiz-adv-x="553" 
d="M453 245h-165q-11 -34 -29.5 -64t-46.5 -55h278v-126h-414l-30 110q29 33 50.5 65t32.5 70h-84v126h99v71q0 61 16.5 105.5t46 73.5t71 43t91.5 14q45 0 82 -8.5t67 -23.5l-24 -115q-20 9 -46 15t-55 6q-49 0 -69 -26.5t-20 -86.5v-68h149v-126z" />
    <glyph glyph-name="currency" unicode="&#xa4;" horiz-adv-x="652" 
d="M517 447q34 -51 34 -114t-34 -114l80 -80l-97 -92l-90 89q-19 -7 -40 -10t-44 -3q-47 0 -85 13l-89 -89l-97 92l80 80q-34 51 -34 114t34 114l-80 80l97 92l89 -90q40 14 85 14t84 -14l90 90l97 -92zM418 333q0 47 -25 75.5t-67 28.5t-67 -28.5t-25 -75.5t25 -75.5
t67 -28.5t67 28.5t25 75.5z" />
    <glyph glyph-name="yen" unicode="&#xa5;" horiz-adv-x="588" 
d="M374 122v-122h-160v122h-145v111h145v9l-26 61h-119v111h72l-106 252h167l92 -280l92 280h167l-106 -252h72v-111h-119l-26 -61v-9h145v-111h-145z" />
    <glyph glyph-name="brokenbar" unicode="&#xa6;" horiz-adv-x="323" 
d="M228 353h-133v397h133v-397zM95 -250v397h133v-397h-133z" />
    <glyph glyph-name="section" unicode="&#xa7;" horiz-adv-x="652" 
d="M373 716q38 0 78 -6t73 -20l-16 -108q-24 9 -52 14.5t-52 5.5q-33 0 -52 -10.5t-19 -36.5q0 -13 6.5 -25.5t19 -27t32.5 -32t47 -40.5q31 -27 62 -55t56 -61t40.5 -73t15.5 -90q0 -58 -19.5 -111.5t-59 -95t-100 -66t-141.5 -24.5q-37 0 -77.5 7t-78.5 18l18 109
q29 -8 58 -13.5t61 -5.5q33 0 52 11.5t19 36.5q0 12 -6 23.5t-18 25t-31 30t-44 40.5q-54 51 -91.5 91.5t-60.5 77t-33 73t-10 78.5q0 58 23 106t65 82.5t101.5 53t133.5 18.5zM214 550q-11 -20 -17 -37t-6 -44q0 -52 30 -97t86 -96q26 -24 54 -51t51 -58t38 -65.5t15 -73.5
q10 20 14.5 36.5t4.5 41.5q0 31 -8.5 58t-24 50.5t-37.5 45.5t-48 44q-69 58 -111.5 111.5t-42.5 111.5q0 6 0.5 12t1.5 11z" />
    <glyph glyph-name="dieresis" unicode="&#xa8;" horiz-adv-x="550" 
d="M100 642q0 30 20 52.5t55 22.5t55 -22.5t20 -52.5q0 -31 -20 -53t-55 -22t-55 22t-20 53zM300 642q0 30 20 52.5t55 22.5t55 -22.5t20 -52.5q0 -31 -20 -53t-55 -22t-55 22t-20 53z" />
    <glyph glyph-name="copyright" unicode="&#xa9;" horiz-adv-x="810" 
d="M55 333q0 71 25.5 134t72 110t111 74t141.5 27t141.5 -27t111 -74t72 -110t25.5 -134t-25.5 -134t-72 -110t-111 -74t-141.5 -27t-141.5 27t-111 74t-72 110t-25.5 134zM703 333q0 59 -21 113t-59.5 95t-93.5 65.5t-124 24.5t-124 -24.5t-93.5 -65.5t-59.5 -95t-21 -113
t21 -113t59.5 -95t93.5 -65.5t124 -24.5t124 24.5t93.5 65.5t59.5 95t21 113zM429 529q28 0 56.5 -5.5t50.5 -15.5l-13 -80q-38 12 -79 12q-51 0 -81 -26.5t-30 -80.5t30 -80.5t81 -26.5q41 0 79 12l13 -80q-22 -10 -50.5 -15.5t-56.5 -5.5q-50 0 -87.5 15t-63.5 41.5
t-39 62t-13 77.5t13 77.5t39 62t63.5 41.5t87.5 15z" />
    <glyph glyph-name="ordfeminine" unicode="&#xaa;" horiz-adv-x="490" 
d="M60 255h370v-113h-370v113zM278 351q-14 -14 -41 -27.5t-60 -13.5q-48 0 -77 26.5t-29 76.5q0 48 30.5 70.5t82.5 27.5q21 2 44.5 3t44.5 2v9q0 26 -15 37.5t-42 11.5q-28 0 -53 -6.5t-45 -16.5l-23 93q62 32 148 32q87 0 125.5 -44.5t38.5 -117.5v-196h-129v33zM273 450
q-11 -1 -23 -2t-23 -3q-16 -2 -22.5 -9.5t-6.5 -18.5q0 -13 9 -20.5t23 -7.5q23 0 43 13v48z" />
    <glyph glyph-name="guillemotleft" unicode="&#xab;" horiz-adv-x="647" 
d="M320 107l-104 -81l-181 215l181 215l104 -81l-115 -134zM592 107l-104 -81l-181 215l181 215l104 -81l-115 -134z" />
    <glyph glyph-name="logicalnot" unicode="&#xac;" horiz-adv-x="596" 
d="M536 74h-136v190h-340v118h476v-308z" />
    <glyph glyph-name="registered" unicode="&#xae;" horiz-adv-x="550" 
d="M45 455q0 45 16.5 85t46.5 71t72.5 49t95.5 18t95.5 -18t72 -49t45.5 -71t16 -85t-16 -85t-45.5 -71t-72 -49t-95.5 -18t-95.5 18t-72.5 49t-46.5 71t-16.5 85zM89 455q0 -39 13.5 -73t38.5 -59t59.5 -39t75.5 -14t75 14t58.5 39t38 59t13.5 73t-13.5 73t-38 59t-58.5 39
t-75 14t-75.5 -14t-59.5 -39t-38.5 -59t-13.5 -73zM369 503q0 -22 -12.5 -37.5t-32.5 -24.5l66 -85h-73l-56 75h-5v-75h-61v211h93q35 0 58 -16.5t23 -47.5zM308 498q0 23 -30 23h-22v-50h14q17 0 27.5 6.5t10.5 20.5z" />
    <glyph glyph-name="macron" unicode="&#xaf;" horiz-adv-x="515" 
d="M100 700h315v-121h-315v121z" />
    <glyph glyph-name="degree" unicode="&#xb0;" horiz-adv-x="398" 
d="M55 544q0 28 10.5 52.5t30 42.5t45.5 28.5t58 10.5q31 0 57.5 -10.5t46 -28.5t30 -42.5t10.5 -52.5q0 -29 -10.5 -53.5t-30 -42.5t-46 -28t-57.5 -10q-32 0 -58 10t-45.5 28t-30 42.5t-10.5 53.5zM145 544q0 -29 15 -44t39 -15t39 15t15 44t-15 44t-39 15t-39 -15
t-15 -44z" />
    <glyph glyph-name="plusminus" unicode="&#xb1;" horiz-adv-x="596" 
d="M366 321v-147h-136v147h-170v118h170v153h136v-153h170v-118h-170zM60 0v116h476v-116h-476z" />
    <glyph glyph-name="twosuperior" unicode="&#xb2;" horiz-adv-x="373" 
d="M33 795q62 39 146 39q72 0 115.5 -34t43.5 -95q0 -51 -23.5 -89t-66.5 -70q-9 -7 -14.5 -11t-13.5 -9h125v-106h-300l-23 80q29 24 56.5 46t57.5 48q27 23 46.5 44.5t19.5 47.5q0 20 -13.5 31t-39.5 11q-23 0 -45 -7.5t-41 -18.5z" />
    <glyph glyph-name="threesuperior" unicode="&#xb3;" horiz-adv-x="366" 
d="M336 533q0 -29 -13.5 -52t-37 -38.5t-56.5 -24t-72 -8.5q-33 0 -68.5 8t-60.5 19l21 89q20 -8 44 -13t49 -5q26 0 43 8t17 28t-16.5 27t-38.5 7h-75v93h58q31 0 46 9.5t15 26.5q0 15 -12.5 22t-32.5 7q-25 0 -46 -5t-41 -13l-20 89q33 16 68 21.5t68 5.5q66 0 108 -27
t42 -79q0 -31 -18.5 -56.5t-55.5 -39.5q33 -10 59 -33t26 -66z" />
    <glyph glyph-name="acute" unicode="&#xb4;" horiz-adv-x="448" 
d="M100 559l73 169h175l-116 -169h-132z" />
    <glyph glyph-name="mu" unicode="&#xb5;" horiz-adv-x="611" 
d="M60 490h160v-256q0 -61 17 -89.5t56 -28.5q25 0 42.5 11t30.5 28v335h160v-346q0 -23 8.5 -33t31.5 -10h15v-94q-18 -7 -39 -11t-47 -4q-54 0 -81.5 22t-38.5 60q-21 -37 -57 -60.5t-83 -23.5q-26 0 -47.5 6t-39.5 17q34 -23 53 -64.5t19 -87.5v-67h-160v696z" />
    <glyph glyph-name="paragraph" unicode="&#xb6;" horiz-adv-x="607" 
d="M422 -140v704h-98v-426q-53 0 -103.5 18t-89.5 52t-62.5 83t-23.5 111t23.5 111t62.5 83t89.5 52t103.5 18h218v-806h-120z" />
    <glyph glyph-name="periodcentered" unicode="&#xb7;" horiz-adv-x="286" 
d="M53 244q0 36 23 63t67 27t67 -27t23 -63t-23 -63t-67 -27t-67 27t-23 63z" />
    <glyph glyph-name="cedilla" unicode="&#xb8;" horiz-adv-x="393" 
d="M293 -113q0 -25 -14.5 -43.5t-39.5 -31t-57.5 -19.5t-69.5 -9l-12 74q23 2 43 8.5t20 21.5q0 8 -5.5 13.5t-14.5 8.5t-19.5 5t-20.5 3l28 82h80l-11 -43q18 0 34.5 -4t29.5 -12.5t21 -21.5t8 -32z" />
    <glyph glyph-name="onesuperior" unicode="&#xb9;" horiz-adv-x="322" 
d="M131 420v270l-86 -28l-30 103l159 59h93v-404h-136z" />
    <glyph glyph-name="ordmasculine" unicode="&#xba;" horiz-adv-x="504" 
d="M67 255h370v-113h-370v113zM454 493q0 -38 -13 -71.5t-38.5 -58.5t-63.5 -39t-87 -14q-50 0 -87.5 14t-63 39t-38.5 58.5t-13 71.5t13 71.5t38.5 58t63 39t87.5 14.5q49 0 87 -14.5t63.5 -39t38.5 -58t13 -71.5zM322 493q0 41 -17.5 63.5t-52.5 22.5t-52.5 -22.5
t-17.5 -63.5t17.5 -63.5t52.5 -22.5t52.5 22.5t17.5 63.5z" />
    <glyph glyph-name="guillemotright" unicode="&#xbb;" horiz-adv-x="647" 
d="M442 241l-115 134l104 81l181 -215l-181 -215l-104 81zM170 241l-115 134l104 81l181 -215l-181 -215l-104 81z" />
    <glyph glyph-name="onequarter" unicode="&#xbc;" horiz-adv-x="916" 
d="M566 678l102 -54l-340 -636l-102 55zM821 89v-89h-126v89h-176l-23 87l183 228h142v-221h60v-94h-60zM695 296l-88 -113h88v113zM156 262v270l-86 -28l-30 103l159 59h93v-404h-136z" />
    <glyph glyph-name="onehalf" unicode="&#xbd;" horiz-adv-x="959" 
d="M566 678l102 -54l-340 -636l-102 55zM156 262v270l-86 -28l-30 103l159 59h93v-404h-136zM592 375q62 39 146 39q72 0 115.5 -34t43.5 -95q0 -51 -23.5 -89t-66.5 -70q-9 -7 -14.5 -11t-13.5 -9h125v-106h-300l-23 80q29 24 56.5 46t57.5 48q27 23 46.5 44.5t19.5 47.5
q0 20 -13.5 31t-39.5 11q-23 0 -45 -7.5t-41 -18.5z" />
    <glyph glyph-name="threequarters" unicode="&#xbe;" horiz-adv-x="942" 
d="M591 678l102 -54l-340 -636l-102 55zM847 89v-89h-126v89h-176l-23 87l183 228h142v-221h60v-94h-60zM721 296l-88 -113h88v113zM363 375q0 -29 -13.5 -52t-37 -38.5t-56.5 -24t-72 -8.5q-33 0 -68.5 8t-60.5 19l21 89q20 -8 44 -13t49 -5q26 0 43 8t17 28t-16.5 27
t-38.5 7h-75v93h58q31 0 46 9.5t15 26.5q0 15 -12.5 22t-32.5 7q-25 0 -46 -5t-41 -13l-20 89q33 16 68 21.5t68 5.5q66 0 108 -27t42 -79q0 -31 -18.5 -56.5t-55.5 -39.5q33 -10 59 -33t26 -66z" />
    <glyph glyph-name="questiondown" unicode="&#xbf;" horiz-adv-x="480" 
d="M369 410q0 -36 -23 -63t-67 -27t-67 27t-23 63t23 63t67 27t67 -27t23 -63zM40 -6q0 45 17.5 81.5t49.5 68.5t77.5 63t102.5 66l73 -114q-34 -23 -63 -42.5t-50.5 -37.5t-34 -36.5t-12.5 -39.5q0 -30 19.5 -44t50.5 -14q36 0 67 11.5t62 28.5l46 -114q-45 -29 -91 -43
t-107 -14q-44 0 -81.5 11t-65.5 33.5t-44 56.5t-16 79z" />
    <glyph glyph-name="Agrave" unicode="&#xc0;" horiz-adv-x="700" 
d="M477 129h-255l-41 -129h-169l248 666h180l248 -666h-169zM264 259h171l-85 281zM281 724l-130 124h183l75 -124h-128z" />
    <glyph glyph-name="Aacute" unicode="&#xc1;" horiz-adv-x="700" 
d="M477 129h-255l-41 -129h-169l248 666h180l248 -666h-169zM264 259h171l-85 281zM284 724l75 124h183l-130 -124h-128z" />
    <glyph glyph-name="Acircumflex" unicode="&#xc2;" horiz-adv-x="700" 
d="M477 129h-255l-41 -129h-169l248 666h180l248 -666h-169zM264 259h171l-85 281zM522 724h-135l-37 52l-37 -52h-135l93 124h158z" />
    <glyph glyph-name="Atilde" unicode="&#xc3;" horiz-adv-x="700" 
d="M477 129h-255l-41 -129h-169l248 666h180l248 -666h-169zM264 259h171l-85 281zM440 714q-24 0 -42.5 4.5t-43.5 14.5q-20 8 -34 13.5t-27 5.5q-18 0 -27 -11t-17 -27l-95 42q17 58 45.5 83t74.5 25q24 0 44.5 -4.5t45.5 -15.5q20 -8 35 -13.5t28 -5.5q17 0 26.5 12
t18.5 29l86 -48q-23 -51 -50 -77.5t-68 -26.5z" />
    <glyph glyph-name="Adieresis" unicode="&#xc4;" horiz-adv-x="700" 
d="M477 129h-255l-41 -129h-169l248 666h180l248 -666h-169zM264 259h171l-85 281zM167 790q0 30 20.5 50.5t54.5 20.5t54.5 -20.5t20.5 -50.5q0 -31 -20.5 -51t-54.5 -20t-54.5 20t-20.5 51zM382 790q0 30 20.5 50.5t54.5 20.5t54.5 -20.5t20.5 -50.5q0 -31 -20.5 -51
t-54.5 -20t-54.5 20t-20.5 51z" />
    <glyph glyph-name="Aring" unicode="&#xc5;" horiz-adv-x="700" 
d="M459 721q0 -14 -5.5 -29t-13.5 -26l248 -666h-169l-42 129h-255l-41 -129h-169l248 665q-19 25 -19 56q0 19 7 36.5t20.5 31t34 22t47.5 8.5t47.5 -8.5t34 -22t20.5 -31t7 -36.5zM264 259h171l-85 281zM310 722q0 -17 11 -28t29 -11t29 11t11 28t-11 28.5t-29 11.5
t-29 -11.5t-11 -28.5z" />
    <glyph glyph-name="AE" unicode="&#xc6;" horiz-adv-x="894" 
d="M843 536h-288l18 -134h258v-130h-242l19 -142h238v-130h-371l-17 129h-238l-72 -129h-168l390 666h473v-130zM294 259h148l-27 237z" />
    <glyph glyph-name="Ccedilla" unicode="&#xc7;" horiz-adv-x="627" 
d="M498 -113q0 -25 -14.5 -43.5t-39.5 -31t-57.5 -19.5t-69.5 -9l-12 74q23 2 43 8.5t20 21.5q0 8 -5.5 13.5t-14.5 8.5t-19.5 5t-20.5 3l25 74q-74 8 -130 37t-93.5 73.5t-56.5 103.5t-19 127q0 75 23 138t68 109t112 72t155 26q52 0 104.5 -10t90.5 -29l-24 -121
q-30 12 -68.5 20.5t-76.5 8.5q-102 0 -161 -53t-59 -161t59 -161t161 -53q38 0 76.5 8.5t68.5 20.5l24 -121q-35 -17 -80.5 -26.5t-93.5 -11.5l-8 -32q18 0 34.5 -4t29.5 -12.5t21 -21.5t8 -32z" />
    <glyph glyph-name="Egrave" unicode="&#xc8;" horiz-adv-x="531" 
d="M65 666h415v-130h-251v-134h239v-130h-239v-142h254v-130h-418v666zM229 724l-130 124h183l75 -124h-128z" />
    <glyph glyph-name="Eacute" unicode="&#xc9;" horiz-adv-x="531" 
d="M65 666h415v-130h-251v-134h239v-130h-239v-142h254v-130h-418v666zM181 724l75 124h183l-130 -124h-128z" />
    <glyph glyph-name="Ecircumflex" unicode="&#xca;" horiz-adv-x="531" 
d="M65 666h415v-130h-251v-134h239v-130h-239v-142h254v-130h-418v666zM449 724h-135l-37 52l-37 -52h-135l93 124h158z" />
    <glyph glyph-name="Edieresis" unicode="&#xcb;" horiz-adv-x="531" 
d="M65 666h415v-130h-251v-134h239v-130h-239v-142h254v-130h-418v666zM94 790q0 30 20.5 50.5t54.5 20.5t54.5 -20.5t20.5 -50.5q0 -31 -20.5 -51t-54.5 -20t-54.5 20t-20.5 51zM309 790q0 30 20.5 50.5t54.5 20.5t54.5 -20.5t20.5 -50.5q0 -31 -20.5 -51t-54.5 -20
t-54.5 20t-20.5 51z" />
    <glyph glyph-name="Igrave" unicode="&#xcc;" horiz-adv-x="304" 
d="M234 0h-164v666h164v-666zM91 724l-130 124h183l75 -124h-128z" />
    <glyph glyph-name="Iacute" unicode="&#xcd;" horiz-adv-x="304" 
d="M234 0h-164v666h164v-666zM83 724l75 124h183l-130 -124h-128z" />
    <glyph glyph-name="Icircumflex" unicode="&#xce;" horiz-adv-x="304" 
d="M234 0h-164v666h164v-666zM324 724h-135l-37 52l-37 -52h-135l93 124h158z" />
    <glyph glyph-name="Idieresis" unicode="&#xcf;" horiz-adv-x="304" 
d="M234 0h-164v666h164v-666zM-30 790q0 30 20.5 50.5t54.5 20.5t54.5 -20.5t20.5 -50.5q0 -31 -20.5 -51t-54.5 -20t-54.5 20t-20.5 51zM185 790q0 30 20.5 50.5t54.5 20.5t54.5 -20.5t20.5 -50.5q0 -31 -20.5 -51t-54.5 -20t-54.5 20t-20.5 51z" />
    <glyph glyph-name="Eth" unicode="&#xd0;" horiz-adv-x="732" 
d="M30 398h74v268h203q88 0 161.5 -25t125.5 -69t81 -105.5t29 -133.5t-29 -133.5t-81 -105.5t-125.5 -69t-161.5 -25h-203v268h-74v130zM317 130q50 0 91 14t70.5 40t45.5 63.5t16 85.5t-16 85.5t-45.5 63.5t-70.5 40t-91 14h-49v-138h156v-130h-156v-138h49z" />
    <glyph glyph-name="Ntilde" unicode="&#xd1;" horiz-adv-x="721" 
d="M498 0l-275 397v-397h-158v666h158l275 -397v397h158v-666h-158zM439 714q-24 0 -42.5 4.5t-43.5 14.5q-20 8 -34 13.5t-27 5.5q-18 0 -27 -11t-17 -27l-95 42q17 58 45.5 83t74.5 25q24 0 44.5 -4.5t45.5 -15.5q20 -8 35 -13.5t28 -5.5q17 0 26.5 12t18.5 29l86 -48
q-23 -51 -50 -77.5t-68 -26.5z" />
    <glyph glyph-name="Ograve" unicode="&#xd2;" horiz-adv-x="748" 
d="M714 333q0 -71 -23 -133.5t-66.5 -109.5t-106.5 -74.5t-144 -27.5t-144.5 27.5t-107 74.5t-66 109.5t-22.5 133.5t22.5 133.5t66 109.5t107 74.5t144.5 27.5t144 -27.5t106.5 -74.5t66.5 -109.5t23 -133.5zM374 118q43 0 76 16t55.5 44.5t33.5 68t11 86.5t-11 86.5
t-33.5 68t-55.5 44.5t-76 16q-44 0 -76.5 -16t-55 -44.5t-33.5 -68t-11 -86.5t11 -86.5t33.5 -68t55 -44.5t76.5 -16zM312 724l-130 124h183l75 -124h-128z" />
    <glyph glyph-name="Oacute" unicode="&#xd3;" horiz-adv-x="748" 
d="M714 333q0 -71 -23 -133.5t-66.5 -109.5t-106.5 -74.5t-144 -27.5t-144.5 27.5t-107 74.5t-66 109.5t-22.5 133.5t22.5 133.5t66 109.5t107 74.5t144.5 27.5t144 -27.5t106.5 -74.5t66.5 -109.5t23 -133.5zM374 118q43 0 76 16t55.5 44.5t33.5 68t11 86.5t-11 86.5
t-33.5 68t-55.5 44.5t-76 16q-44 0 -76.5 -16t-55 -44.5t-33.5 -68t-11 -86.5t11 -86.5t33.5 -68t55 -44.5t76.5 -16zM304 724l75 124h183l-130 -124h-128z" />
    <glyph glyph-name="Ocircumflex" unicode="&#xd4;" horiz-adv-x="748" 
d="M714 333q0 -71 -23 -133.5t-66.5 -109.5t-106.5 -74.5t-144 -27.5t-144.5 27.5t-107 74.5t-66 109.5t-22.5 133.5t22.5 133.5t66 109.5t107 74.5t144.5 27.5t144 -27.5t106.5 -74.5t66.5 -109.5t23 -133.5zM374 118q43 0 76 16t55.5 44.5t33.5 68t11 86.5t-11 86.5
t-33.5 68t-55.5 44.5t-76 16q-44 0 -76.5 -16t-55 -44.5t-33.5 -68t-11 -86.5t11 -86.5t33.5 -68t55 -44.5t76.5 -16zM546 724h-135l-37 52l-37 -52h-135l93 124h158z" />
    <glyph glyph-name="Otilde" unicode="&#xd5;" horiz-adv-x="748" 
d="M714 333q0 -71 -23 -133.5t-66.5 -109.5t-106.5 -74.5t-144 -27.5t-144.5 27.5t-107 74.5t-66 109.5t-22.5 133.5t22.5 133.5t66 109.5t107 74.5t144.5 27.5t144 -27.5t106.5 -74.5t66.5 -109.5t23 -133.5zM374 118q43 0 76 16t55.5 44.5t33.5 68t11 86.5t-11 86.5
t-33.5 68t-55.5 44.5t-76 16q-44 0 -76.5 -16t-55 -44.5t-33.5 -68t-11 -86.5t11 -86.5t33.5 -68t55 -44.5t76.5 -16zM458 714q-24 0 -42.5 4.5t-43.5 14.5q-20 8 -34 13.5t-27 5.5q-18 0 -27 -11t-17 -27l-95 42q17 58 45.5 83t74.5 25q24 0 44.5 -4.5t45.5 -15.5
q20 -8 35 -13.5t28 -5.5q17 0 26.5 12t18.5 29l86 -48q-23 -51 -50 -77.5t-68 -26.5z" />
    <glyph glyph-name="Odieresis" unicode="&#xd6;" horiz-adv-x="748" 
d="M714 333q0 -71 -23 -133.5t-66.5 -109.5t-106.5 -74.5t-144 -27.5t-144.5 27.5t-107 74.5t-66 109.5t-22.5 133.5t22.5 133.5t66 109.5t107 74.5t144.5 27.5t144 -27.5t106.5 -74.5t66.5 -109.5t23 -133.5zM374 118q43 0 76 16t55.5 44.5t33.5 68t11 86.5t-11 86.5
t-33.5 68t-55.5 44.5t-76 16q-44 0 -76.5 -16t-55 -44.5t-33.5 -68t-11 -86.5t11 -86.5t33.5 -68t55 -44.5t76.5 -16zM191 790q0 30 20.5 50.5t54.5 20.5t54.5 -20.5t20.5 -50.5q0 -31 -20.5 -51t-54.5 -20t-54.5 20t-20.5 51zM406 790q0 30 20.5 50.5t54.5 20.5t54.5 -20.5
t20.5 -50.5q0 -31 -20.5 -51t-54.5 -20t-54.5 20t-20.5 51z" />
    <glyph glyph-name="multiply" unicode="&#xd7;" horiz-adv-x="614" 
d="M307 412l153 153l89 -89l-153 -153l153 -153l-89 -89l-153 153l-153 -153l-89 89l153 153l-153 153l89 89z" />
    <glyph glyph-name="Oslash" unicode="&#xd8;" horiz-adv-x="752" 
d="M114 102q-38 46 -58 105t-20 126q0 71 22.5 133.5t66 109.5t107 74.5t144.5 27.5q51 0 95 -11.5t81 -31.5l78 95l86 -71l-78 -95q38 -47 58 -106t20 -125q0 -71 -23 -133.5t-66.5 -109.5t-106.5 -74.5t-144 -27.5q-51 0 -95 11.5t-81 31.5l-78 -95l-86 71zM200 333
q0 -58 17 -106l246 299q-38 22 -87 22q-44 0 -76.5 -16t-55 -44.5t-33.5 -68t-11 -86.5zM376 118q43 0 76 16t55.5 44.5t33.5 68t11 86.5q0 60 -18 105l-245 -299q36 -21 87 -21z" />
    <glyph glyph-name="Ugrave" unicode="&#xd9;" horiz-adv-x="690" 
d="M463 666h164v-426q0 -118 -74.5 -185t-207.5 -67t-207.5 67t-74.5 185v426h164v-431q0 -57 30 -87t88 -30t88 30t30 87v431zM305 724l-130 124h183l75 -124h-128z" />
    <glyph glyph-name="Uacute" unicode="&#xda;" horiz-adv-x="690" 
d="M463 666h164v-426q0 -118 -74.5 -185t-207.5 -67t-207.5 67t-74.5 185v426h164v-431q0 -57 30 -87t88 -30t88 30t30 87v431zM257 724l75 124h183l-130 -124h-128z" />
    <glyph glyph-name="Ucircumflex" unicode="&#xdb;" horiz-adv-x="690" 
d="M463 666h164v-426q0 -118 -74.5 -185t-207.5 -67t-207.5 67t-74.5 185v426h164v-431q0 -57 30 -87t88 -30t88 30t30 87v431zM517 724h-135l-37 52l-37 -52h-135l93 124h158z" />
    <glyph glyph-name="Udieresis" unicode="&#xdc;" horiz-adv-x="690" 
d="M463 666h164v-426q0 -118 -74.5 -185t-207.5 -67t-207.5 67t-74.5 185v426h164v-431q0 -57 30 -87t88 -30t88 30t30 87v431zM162 790q0 30 20.5 50.5t54.5 20.5t54.5 -20.5t20.5 -50.5q0 -31 -20.5 -51t-54.5 -20t-54.5 20t-20.5 51zM377 790q0 30 20.5 50.5t54.5 20.5
t54.5 -20.5t20.5 -50.5q0 -31 -20.5 -51t-54.5 -20t-54.5 20t-20.5 51z" />
    <glyph glyph-name="Yacute" unicode="&#xdd;" horiz-adv-x="592" 
d="M378 242v-242h-164v242l-219 424h175l126 -280l126 280h175zM222 724l75 124h183l-130 -124h-128z" />
    <glyph glyph-name="Thorn" unicode="&#xde;" horiz-adv-x="563" 
d="M547 333q0 -53 -23 -95t-63.5 -70.5t-95.5 -43.5t-119 -15h-17v-109h-164v666h164v-116h28q63 0 116.5 -13t92 -39.5t60 -67.5t21.5 -97zM389 332q0 92 -131 92h-29v-189h27q65 0 99 26t34 71z" />
    <glyph glyph-name="germandbls" unicode="&#xdf;" horiz-adv-x="634" 
d="M60 0v471q0 64 20 110.5t55.5 76.5t83 44t101.5 14q48 0 88 -12.5t68 -34.5t43.5 -53t15.5 -67q0 -39 -15.5 -66t-35.5 -53q-17 -22 -31 -36.5t-14 -32.5q0 -17 14.5 -26t45.5 -27q21 -12 41.5 -26t37 -32.5t26.5 -42.5t10 -57q0 -34 -14 -63.5t-39.5 -51t-61 -33.5
t-78.5 -12q-32 0 -67 6t-64 17l20 109q23 -9 48 -13t42 -4q27 0 42.5 10.5t15.5 29.5q0 22 -20 34t-55 30q-59 30 -81.5 64.5t-22.5 78.5q0 56 51 110q18 19 32 37t14 39q0 26 -18 40.5t-47 14.5q-91 0 -91 -113v-480h-160z" />
    <glyph glyph-name="agrave" unicode="&#xe0;" horiz-adv-x="535" 
d="M328 48q-23 -23 -62.5 -40.5t-86.5 -17.5q-33 0 -59 11t-43.5 30t-27 44.5t-9.5 54.5q0 68 42.5 102.5t120.5 40.5q29 2 61.5 3t57.5 2v16q0 80 -89 80q-35 0 -67.5 -8t-59.5 -22l-29 111q35 20 82.5 32.5t103.5 12.5q103 0 161 -53.5t58 -160.5v-286h-154v48zM241 95
q23 0 43.5 6t37.5 16v73q-24 -2 -43 -4.5t-37 -4.5q-49 -6 -49 -46q0 -18 12.5 -29t35.5 -11zM217 559l-116 169h169l76 -169h-129z" />
    <glyph glyph-name="aacute" unicode="&#xe1;" horiz-adv-x="535" 
d="M328 48q-23 -23 -62.5 -40.5t-86.5 -17.5q-33 0 -59 11t-43.5 30t-27 44.5t-9.5 54.5q0 68 42.5 102.5t120.5 40.5q29 2 61.5 3t57.5 2v16q0 80 -89 80q-35 0 -67.5 -8t-59.5 -22l-29 111q35 20 82.5 32.5t103.5 12.5q103 0 161 -53.5t58 -160.5v-286h-154v48zM241 95
q23 0 43.5 6t37.5 16v73q-24 -2 -43 -4.5t-37 -4.5q-49 -6 -49 -46q0 -18 12.5 -29t35.5 -11zM189 559l73 169h175l-116 -169h-132z" />
    <glyph glyph-name="acircumflex" unicode="&#xe2;" horiz-adv-x="535" 
d="M328 48q-23 -23 -62.5 -40.5t-86.5 -17.5q-33 0 -59 11t-43.5 30t-27 44.5t-9.5 54.5q0 68 42.5 102.5t120.5 40.5q29 2 61.5 3t57.5 2v16q0 80 -89 80q-35 0 -67.5 -8t-59.5 -22l-29 111q35 20 82.5 32.5t103.5 12.5q103 0 161 -53.5t58 -160.5v-286h-154v48zM241 95
q23 0 43.5 6t37.5 16v73q-24 -2 -43 -4.5t-37 -4.5q-49 -6 -49 -46q0 -18 12.5 -29t35.5 -11zM457 559h-132l-48 82l-48 -82h-132l109 169h142z" />
    <glyph glyph-name="atilde" unicode="&#xe3;" horiz-adv-x="535" 
d="M328 48q-23 -23 -62.5 -40.5t-86.5 -17.5q-33 0 -59 11t-43.5 30t-27 44.5t-9.5 54.5q0 68 42.5 102.5t120.5 40.5q29 2 61.5 3t57.5 2v16q0 80 -89 80q-35 0 -67.5 -8t-59.5 -22l-29 111q35 20 82.5 32.5t103.5 12.5q103 0 161 -53.5t58 -160.5v-286h-154v48zM241 95
q23 0 43.5 6t37.5 16v73q-24 -2 -43 -4.5t-37 -4.5q-49 -6 -49 -46q0 -18 12.5 -29t35.5 -11zM356 562q-22 0 -40.5 6.5t-39.5 16.5q-19 8 -33 14.5t-26 6.5q-17 0 -26 -12.5t-19 -32.5l-89 43q12 33 24.5 55t27.5 36t34 20t43 6t43 -7t39 -18q19 -10 31.5 -14.5t23.5 -4.5
q18 0 27.5 11.5t20.5 33.5l86 -44q-14 -30 -27.5 -52t-28 -36t-32 -21t-39.5 -7z" />
    <glyph glyph-name="adieresis" unicode="&#xe4;" horiz-adv-x="535" 
d="M328 48q-23 -23 -62.5 -40.5t-86.5 -17.5q-33 0 -59 11t-43.5 30t-27 44.5t-9.5 54.5q0 68 42.5 102.5t120.5 40.5q29 2 61.5 3t57.5 2v16q0 80 -89 80q-35 0 -67.5 -8t-59.5 -22l-29 111q35 20 82.5 32.5t103.5 12.5q103 0 161 -53.5t58 -160.5v-286h-154v48zM241 95
q23 0 43.5 6t37.5 16v73q-24 -2 -43 -4.5t-37 -4.5q-49 -6 -49 -46q0 -18 12.5 -29t35.5 -11zM106 642q0 30 20 52.5t55 22.5t55 -22.5t20 -52.5q0 -31 -20 -53t-55 -22t-55 22t-20 53zM306 642q0 30 20 52.5t55 22.5t55 -22.5t20 -52.5q0 -31 -20 -53t-55 -22t-55 22
t-20 53z" />
    <glyph glyph-name="aring" unicode="&#xe5;" horiz-adv-x="535" 
d="M328 48q-23 -23 -62.5 -40.5t-86.5 -17.5q-33 0 -59 11t-43.5 30t-27 44.5t-9.5 54.5q0 68 42.5 102.5t120.5 40.5q29 2 61.5 3t57.5 2v16q0 80 -89 80q-35 0 -67.5 -8t-59.5 -22l-29 111q35 20 82.5 32.5t103.5 12.5q103 0 161 -53.5t58 -160.5v-286h-154v48zM241 95
q23 0 43.5 6t37.5 16v73q-24 -2 -43 -4.5t-37 -4.5q-49 -6 -49 -46q0 -18 12.5 -29t35.5 -11zM381 650q0 -18 -7 -34.5t-20 -30t-33 -21.5t-45 -8q-26 0 -45.5 8t-32.5 21.5t-20 30t-7 34.5t7 35t20 30.5t32.5 21.5t45.5 8q25 0 45 -8t33 -21.5t20 -30.5t7 -35zM240 650
q0 -17 10 -26.5t26 -9.5t26 9.5t10 26.5t-10 26.5t-26 9.5t-26 -9.5t-10 -26.5z" />
    <glyph glyph-name="ae" unicode="&#xe6;" horiz-adv-x="813" 
d="M574 500q99 0 149.5 -57.5t50.5 -155.5q0 -19 -2.5 -41.5t-6.5 -39.5h-279q1 -47 29 -73.5t88 -26.5q35 0 69 9t72 26l26 -107q-40 -21 -88 -32.5t-100 -11.5q-64 0 -111.5 18.5t-80.5 52.5q-38 -32 -85.5 -51.5t-107.5 -19.5q-39 0 -68.5 11t-49 30t-29.5 44.5t-10 54.5
q0 68 42.5 101.5t120.5 41.5q35 4 63.5 6t55.5 4v9q0 38 -19.5 60t-69.5 22q-64 0 -129 -29l-31 114q39 20 82.5 30.5t97.5 10.5q48 0 87 -15.5t68 -50.5q32 32 72.5 49t93.5 17zM565 396q-37 0 -57 -24t-21 -66h141q2 8 2 18q0 32 -16.5 52t-48.5 20zM344 128q-7 17 -11 31
t-7 31l-84 -15q-24 -5 -36.5 -13t-12.5 -27q0 -18 13 -28t35 -10q26 0 51.5 7t51.5 24z" />
    <glyph glyph-name="ccedilla" unicode="&#xe7;" horiz-adv-x="454" 
d="M392 -113q0 -25 -14.5 -43.5t-39.5 -31t-57.5 -19.5t-69.5 -9l-12 74q23 2 43 8.5t20 21.5q0 8 -5.5 13.5t-14.5 8.5t-19.5 5t-20.5 3l26 77q-48 9 -85.5 30.5t-63.5 53.5t-39.5 74t-13.5 92q0 57 18 104t52 80.5t83.5 52t111.5 18.5q38 0 74.5 -8t63.5 -22l-16 -114
q-19 8 -45.5 14t-53.5 6q-64 0 -96 -35t-32 -96t32 -96t96 -35q27 0 53.5 6t45.5 14l16 -114q-24 -12 -56 -19.5t-66 -9.5l-8 -34q18 0 34.5 -4t29.5 -12.5t21 -21.5t8 -32z" />
    <glyph glyph-name="egrave" unicode="&#xe8;" horiz-adv-x="516" 
d="M277 500q96 0 152 -56.5t56 -156.5q0 -38 -9 -81h-284q2 -45 30.5 -72.5t87.5 -27.5q36 0 75.5 6.5t68.5 19.5l20 -103q-38 -19 -85.5 -29t-98.5 -10q-64 0 -113 18.5t-82 51.5t-50 79t-17 102q0 60 17.5 108t50 81.5t78.5 51.5t103 18zM272 398q-38 0 -58.5 -24.5
t-20.5 -67.5h142q2 8 2 17q0 32 -17 53.5t-48 21.5zM206 559l-116 169h169l76 -169h-129z" />
    <glyph glyph-name="eacute" unicode="&#xe9;" horiz-adv-x="516" 
d="M277 500q96 0 152 -56.5t56 -156.5q0 -38 -9 -81h-284q2 -45 30.5 -72.5t87.5 -27.5q36 0 75.5 6.5t68.5 19.5l20 -103q-38 -19 -85.5 -29t-98.5 -10q-64 0 -113 18.5t-82 51.5t-50 79t-17 102q0 60 17.5 108t50 81.5t78.5 51.5t103 18zM272 398q-38 0 -58.5 -24.5
t-20.5 -67.5h142q2 8 2 17q0 32 -17 53.5t-48 21.5zM189 559l73 169h175l-116 -169h-132z" />
    <glyph glyph-name="ecircumflex" unicode="&#xea;" horiz-adv-x="516" 
d="M277 500q96 0 152 -56.5t56 -156.5q0 -38 -9 -81h-284q2 -45 30.5 -72.5t87.5 -27.5q36 0 75.5 6.5t68.5 19.5l20 -103q-38 -19 -85.5 -29t-98.5 -10q-64 0 -113 18.5t-82 51.5t-50 79t-17 102q0 60 17.5 108t50 81.5t78.5 51.5t103 18zM272 398q-38 0 -58.5 -24.5
t-20.5 -67.5h142q2 8 2 17q0 32 -17 53.5t-48 21.5zM452 559h-132l-48 82l-48 -82h-132l109 169h142z" />
    <glyph glyph-name="edieresis" unicode="&#xeb;" horiz-adv-x="516" 
d="M277 500q96 0 152 -56.5t56 -156.5q0 -38 -9 -81h-284q2 -45 30.5 -72.5t87.5 -27.5q36 0 75.5 6.5t68.5 19.5l20 -103q-38 -19 -85.5 -29t-98.5 -10q-64 0 -113 18.5t-82 51.5t-50 79t-17 102q0 60 17.5 108t50 81.5t78.5 51.5t103 18zM272 398q-38 0 -58.5 -24.5
t-20.5 -67.5h142q2 8 2 17q0 32 -17 53.5t-48 21.5zM98 642q0 30 20 52.5t55 22.5t55 -22.5t20 -52.5q0 -31 -20 -53t-55 -22t-55 22t-20 53zM298 642q0 30 20 52.5t55 22.5t55 -22.5t20 -52.5q0 -31 -20 -53t-55 -22t-55 22t-20 53z" />
    <glyph glyph-name="igrave" unicode="&#xec;" horiz-adv-x="280" 
d="M60 0v490h160v-490h-160zM76 559l-116 169h169l76 -169h-129z" />
    <glyph glyph-name="iacute" unicode="&#xed;" horiz-adv-x="280" 
d="M60 0v490h160v-490h-160zM75 559l73 169h175l-116 -169h-132z" />
    <glyph glyph-name="icircumflex" unicode="&#xee;" horiz-adv-x="280" 
d="M60 0v490h160v-490h-160zM320 559h-132l-48 82l-48 -82h-132l109 169h142z" />
    <glyph glyph-name="idieresis" unicode="&#xef;" horiz-adv-x="280" 
d="M60 0v490h160v-490h-160zM-35 642q0 30 20 52.5t55 22.5t55 -22.5t20 -52.5q0 -31 -20 -53t-55 -22t-55 22t-20 53zM165 642q0 30 20 52.5t55 22.5t55 -22.5t20 -52.5q0 -31 -20 -53t-55 -22t-55 22t-20 53z" />
    <glyph glyph-name="eth" unicode="&#xf0;" horiz-adv-x="572" 
d="M160 532l45 38q-27 9 -54.5 14t-58.5 9l30 123q50 -6 99.5 -17.5t96.5 -32.5l72 62l42 -47l-55 -47q81 -57 124 -138t43 -193q0 -63 -16.5 -119.5t-49.5 -99.5t-83 -68.5t-117 -25.5q-63 0 -110 19.5t-78 52.5t-46.5 77.5t-15.5 94.5q0 57 18 99.5t49 71t70.5 42.5
t83.5 14q38 0 68.5 -6.5t60.5 -23.5q-17 39 -45 64.5t-64 45.5l-66 -56zM186 228q0 -49 25 -82.5t70 -33.5q30 0 50 14t31.5 36.5t16.5 50t5 55.5v53q-18 8 -38.5 14t-48.5 6q-51 0 -81 -27t-30 -86z" />
    <glyph glyph-name="ntilde" unicode="&#xf1;" horiz-adv-x="583" 
d="M60 0v490h154v-64q23 40 59.5 57t77.5 17q49 0 83 -20.5t55.5 -54.5t31 -78.5t9.5 -93.5v-253h-160v256q0 61 -19 89.5t-58 28.5q-25 0 -43.5 -11t-29.5 -27v-336h-160zM373 562q-22 0 -40.5 6.5t-39.5 16.5q-19 8 -33 14.5t-26 6.5q-17 0 -26 -12.5t-19 -32.5l-89 43
q12 33 24.5 55t27.5 36t34 20t43 6t43 -7t39 -18q19 -10 31.5 -14.5t23.5 -4.5q18 0 27.5 11.5t20.5 33.5l86 -44q-14 -30 -27.5 -52t-28 -36t-32 -21t-39.5 -7z" />
    <glyph glyph-name="ograve" unicode="&#xf2;" horiz-adv-x="574" 
d="M548 245q0 -54 -17 -100.5t-50 -81t-82 -54t-112 -19.5t-112 19.5t-82 54t-50 81t-17 100.5t17 100.5t50 81t82 54t112 19.5t112 -19.5t82 -54t50 -81t17 -100.5zM388 245q0 26 -5 50.5t-16.5 44t-31 31t-48.5 11.5t-48.5 -11.5t-31 -31t-16.5 -44t-5 -50.5t5 -50.5
t16.5 -44t31 -31t48.5 -11.5t48.5 11.5t31 31t16.5 44t5 50.5zM227 559l-116 169h169l76 -169h-129z" />
    <glyph glyph-name="oacute" unicode="&#xf3;" horiz-adv-x="574" 
d="M548 245q0 -54 -17 -100.5t-50 -81t-82 -54t-112 -19.5t-112 19.5t-82 54t-50 81t-17 100.5t17 100.5t50 81t82 54t112 19.5t112 -19.5t82 -54t50 -81t17 -100.5zM388 245q0 26 -5 50.5t-16.5 44t-31 31t-48.5 11.5t-48.5 -11.5t-31 -31t-16.5 -44t-5 -50.5t5 -50.5
t16.5 -44t31 -31t48.5 -11.5t48.5 11.5t31 31t16.5 44t5 50.5zM214 559l73 169h175l-116 -169h-132z" />
    <glyph glyph-name="ocircumflex" unicode="&#xf4;" horiz-adv-x="574" 
d="M548 245q0 -54 -17 -100.5t-50 -81t-82 -54t-112 -19.5t-112 19.5t-82 54t-50 81t-17 100.5t17 100.5t50 81t82 54t112 19.5t112 -19.5t82 -54t50 -81t17 -100.5zM388 245q0 26 -5 50.5t-16.5 44t-31 31t-48.5 11.5t-48.5 -11.5t-31 -31t-16.5 -44t-5 -50.5t5 -50.5
t16.5 -44t31 -31t48.5 -11.5t48.5 11.5t31 31t16.5 44t5 50.5zM467 559h-132l-48 82l-48 -82h-132l109 169h142z" />
    <glyph glyph-name="otilde" unicode="&#xf5;" horiz-adv-x="574" 
d="M548 245q0 -54 -17 -100.5t-50 -81t-82 -54t-112 -19.5t-112 19.5t-82 54t-50 81t-17 100.5t17 100.5t50 81t82 54t112 19.5t112 -19.5t82 -54t50 -81t17 -100.5zM388 245q0 26 -5 50.5t-16.5 44t-31 31t-48.5 11.5t-48.5 -11.5t-31 -31t-16.5 -44t-5 -50.5t5 -50.5
t16.5 -44t31 -31t48.5 -11.5t48.5 11.5t31 31t16.5 44t5 50.5zM371 562q-22 0 -40.5 6.5t-39.5 16.5q-19 8 -33 14.5t-26 6.5q-17 0 -26 -12.5t-19 -32.5l-89 43q12 33 24.5 55t27.5 36t34 20t43 6t43 -7t39 -18q19 -10 31.5 -14.5t23.5 -4.5q18 0 27.5 11.5t20.5 33.5
l86 -44q-14 -30 -27.5 -52t-28 -36t-32 -21t-39.5 -7z" />
    <glyph glyph-name="odieresis" unicode="&#xf6;" horiz-adv-x="574" 
d="M548 245q0 -54 -17 -100.5t-50 -81t-82 -54t-112 -19.5t-112 19.5t-82 54t-50 81t-17 100.5t17 100.5t50 81t82 54t112 19.5t112 -19.5t82 -54t50 -81t17 -100.5zM388 245q0 26 -5 50.5t-16.5 44t-31 31t-48.5 11.5t-48.5 -11.5t-31 -31t-16.5 -44t-5 -50.5t5 -50.5
t16.5 -44t31 -31t48.5 -11.5t48.5 11.5t31 31t16.5 44t5 50.5zM112 642q0 30 20 52.5t55 22.5t55 -22.5t20 -52.5q0 -31 -20 -53t-55 -22t-55 22t-20 53zM312 642q0 30 20 52.5t55 22.5t55 -22.5t20 -52.5q0 -31 -20 -53t-55 -22t-55 22t-20 53z" />
    <glyph glyph-name="divide" unicode="&#xf7;" horiz-adv-x="596" 
d="M60 264v118h476v-118h-476zM381 125q0 -36 -24 -58.5t-59 -22.5t-59 22.5t-24 58.5t24 59.5t59 23.5t59 -23.5t24 -59.5zM381 519q0 -36 -24 -58.5t-59 -22.5t-59 22.5t-24 58.5t24 59.5t59 23.5t59 -23.5t24 -59.5z" />
    <glyph glyph-name="oslash" unicode="&#xf8;" horiz-adv-x="580" 
d="M98 62q-35 35 -52 81.5t-17 101.5q0 54 17 100.5t50 81t82 54t112 19.5q42 0 77 -8.5t64 -24.5l70 85l50 -41l-69 -83q69 -71 69 -183q0 -54 -17 -100.5t-50 -81t-82 -54t-112 -19.5q-83 0 -141 32l-69 -84l-51 40zM189 245q0 -17 1.5 -32.5t6.5 -30.5l150 183
q-23 17 -57 17q-29 0 -48.5 -11.5t-31 -31t-16.5 -44t-5 -50.5zM391 245q0 16 -1.5 32t-6.5 30l-150 -182q23 -17 57 -17q29 0 48.5 11.5t31 31t16.5 44t5 50.5z" />
    <glyph glyph-name="ugrave" unicode="&#xf9;" horiz-adv-x="579" 
d="M519 490v-490h-154v64q-28 -42 -63 -58t-74 -16q-49 0 -82.5 20.5t-54 54.5t-29.5 78.5t-9 93.5v253h160v-256q0 -61 17 -89.5t56 -28.5q25 0 43.5 11t29.5 27v336h160zM247 559l-116 169h169l76 -169h-129z" />
    <glyph glyph-name="uacute" unicode="&#xfa;" horiz-adv-x="579" 
d="M519 490v-490h-154v64q-28 -42 -63 -58t-74 -16q-49 0 -82.5 20.5t-54 54.5t-29.5 78.5t-9 93.5v253h160v-256q0 -61 17 -89.5t56 -28.5q25 0 43.5 11t29.5 27v336h160zM207 559l73 169h175l-116 -169h-132z" />
    <glyph glyph-name="ucircumflex" unicode="&#xfb;" horiz-adv-x="579" 
d="M519 490v-490h-154v64q-28 -42 -63 -58t-74 -16q-49 0 -82.5 20.5t-54 54.5t-29.5 78.5t-9 93.5v253h160v-256q0 -61 17 -89.5t56 -28.5q25 0 43.5 11t29.5 27v336h160zM473 559h-132l-48 82l-48 -82h-132l109 169h142z" />
    <glyph glyph-name="udieresis" unicode="&#xfc;" horiz-adv-x="579" 
d="M519 490v-490h-154v64q-28 -42 -63 -58t-74 -16q-49 0 -82.5 20.5t-54 54.5t-29.5 78.5t-9 93.5v253h160v-256q0 -61 17 -89.5t56 -28.5q25 0 43.5 11t29.5 27v336h160zM119 642q0 30 20 52.5t55 22.5t55 -22.5t20 -52.5q0 -31 -20 -53t-55 -22t-55 22t-20 53zM319 642
q0 30 20 52.5t55 22.5t55 -22.5t20 -52.5q0 -31 -20 -53t-55 -22t-55 22t-20 53z" />
    <glyph glyph-name="yacute" unicode="&#xfd;" horiz-adv-x="506" 
d="M113 -206l64 194l-177 502h166l90 -349l89 349h161l-232 -696h-161zM177 559l73 169h175l-116 -169h-132z" />
    <glyph glyph-name="thorn" unicode="&#xfe;" horiz-adv-x="584" 
d="M60 706h160v-269q19 27 56.5 45t83.5 18q41 0 77 -17.5t62.5 -50t41.5 -78.5t15 -103q0 -65 -20.5 -113.5t-55 -81.5t-80.5 -49.5t-98 -16.5q-26 0 -46 3.5t-36 8.5v-208h-160v912zM302 377q-27 0 -47 -8.5t-35 -25.5v-227q11 -4 25 -6t32 -2q63 0 91 38.5t28 103.5
q0 54 -22.5 90.5t-71.5 36.5z" />
    <glyph glyph-name="ydieresis" unicode="&#xff;" horiz-adv-x="506" 
d="M113 -206l64 194l-177 502h166l90 -349l89 349h161l-232 -696h-161zM85 642q0 30 20 52.5t55 22.5t55 -22.5t20 -52.5q0 -31 -20 -53t-55 -22t-55 22t-20 53zM285 642q0 30 20 52.5t55 22.5t55 -22.5t20 -52.5q0 -31 -20 -53t-55 -22t-55 22t-20 53z" />
    <glyph glyph-name="Amacron" unicode="&#x100;" horiz-adv-x="700" 
d="M477 129h-255l-41 -129h-169l248 666h180l248 -666h-169zM264 259h171l-85 281zM167 848h365v-121h-365v121z" />
    <glyph glyph-name="amacron" unicode="&#x101;" horiz-adv-x="535" 
d="M328 48q-23 -23 -62.5 -40.5t-86.5 -17.5q-33 0 -59 11t-43.5 30t-27 44.5t-9.5 54.5q0 68 42.5 102.5t120.5 40.5q29 2 61.5 3t57.5 2v16q0 80 -89 80q-35 0 -67.5 -8t-59.5 -22l-29 111q35 20 82.5 32.5t103.5 12.5q103 0 161 -53.5t58 -160.5v-286h-154v48zM241 95
q23 0 43.5 6t37.5 16v73q-24 -2 -43 -4.5t-37 -4.5q-49 -6 -49 -46q0 -18 12.5 -29t35.5 -11zM123 700h315v-121h-315v121z" />
    <glyph glyph-name="Abreve" unicode="&#x102;" horiz-adv-x="700" 
d="M477 129h-255l-41 -129h-169l248 666h180l248 -666h-169zM264 259h171l-85 281zM524 848q-17 -63 -63.5 -95t-110.5 -32t-110.5 32t-63.5 95l105 29q8 -26 24 -42t45 -16t45 16t24 42z" />
    <glyph glyph-name="abreve" unicode="&#x103;" horiz-adv-x="535" 
d="M328 48q-23 -23 -62.5 -40.5t-86.5 -17.5q-33 0 -59 11t-43.5 30t-27 44.5t-9.5 54.5q0 68 42.5 102.5t120.5 40.5q29 2 61.5 3t57.5 2v16q0 80 -89 80q-35 0 -67.5 -8t-59.5 -22l-29 111q35 20 82.5 32.5t103.5 12.5q103 0 161 -53.5t58 -160.5v-286h-154v48zM241 95
q23 0 43.5 6t37.5 16v73q-24 -2 -43 -4.5t-37 -4.5q-49 -6 -49 -46q0 -18 12.5 -29t35.5 -11zM452 707q-11 -72 -58 -110t-116 -38t-116 38t-58 110l103 21q4 -26 20 -47t51 -21q18 0 30.5 5.5t20.5 15t13 22t7 25.5z" />
    <glyph glyph-name="Aogonek" unicode="&#x104;" horiz-adv-x="700" 
d="M696 -196q-17 -8 -43.5 -14t-55.5 -6q-56 0 -88 29.5t-32 77.5q0 35 13.5 61t28.5 48l-42 129h-255l-41 -129h-169l248 666h180l248 -666h-43q-13 -20 -22.5 -40.5t-9.5 -43.5q0 -22 12.5 -34t32.5 -12q19 0 28 4zM264 259h171l-85 281z" />
    <glyph glyph-name="aogonek" unicode="&#x105;" horiz-adv-x="535" 
d="M480 -196q-17 -8 -43.5 -14t-55.5 -6q-55 0 -87.5 27t-32.5 73q0 39 20.5 66.5t46.5 49.5v48q-23 -23 -62.5 -40.5t-86.5 -17.5q-33 0 -59 11t-43.5 30t-27 44.5t-9.5 54.5q0 68 42.5 102.5t120.5 40.5q29 2 61.5 3t57.5 2v16q0 80 -89 80q-35 0 -67.5 -8t-59.5 -22
l-29 111q35 20 82.5 32.5t103.5 12.5q103 0 161 -53.5t58 -160.5v-286h-53q-11 -19 -21.5 -40t-10.5 -44q0 -46 45 -46q17 0 28 3zM241 95q23 0 43.5 6t37.5 16v73q-24 -2 -43 -4.5t-37 -4.5q-49 -6 -49 -46q0 -18 12.5 -29t35.5 -11z" />
    <glyph glyph-name="Cacute" unicode="&#x106;" horiz-adv-x="627" 
d="M392 678q52 0 104.5 -10t90.5 -29l-24 -121q-30 12 -68.5 20.5t-76.5 8.5q-102 0 -161 -53t-59 -161t59 -161t161 -53q38 0 76.5 8.5t68.5 20.5l24 -121q-38 -19 -90.5 -29t-104.5 -10q-88 0 -155 26t-112 72t-68 109t-23 138t23 138t68 109t112 72t155 26zM282 724
l75 124h183l-130 -124h-128z" />
    <glyph glyph-name="cacute" unicode="&#x107;" horiz-adv-x="454" 
d="M291 500q38 0 74.5 -8t63.5 -22l-16 -114q-19 8 -45.5 14t-53.5 6q-64 0 -96 -35t-32 -96t32 -96t96 -35q27 0 53.5 6t45.5 14l16 -114q-27 -14 -63.5 -22t-74.5 -8q-62 0 -111.5 18.5t-83.5 52t-52 80.5t-18 104t18 104t52 80.5t83.5 52t111.5 18.5zM182 559l73 169h175
l-116 -169h-132z" />
    <glyph glyph-name="Ccircumflex" unicode="&#x108;" horiz-adv-x="627" 
d="M392 678q52 0 104.5 -10t90.5 -29l-24 -121q-30 12 -68.5 20.5t-76.5 8.5q-102 0 -161 -53t-59 -161t59 -161t161 -53q38 0 76.5 8.5t68.5 20.5l24 -121q-38 -19 -90.5 -29t-104.5 -10q-88 0 -155 26t-112 72t-68 109t-23 138t23 138t68 109t112 72t155 26zM540 724h-135
l-37 52l-37 -52h-135l93 124h158z" />
    <glyph glyph-name="ccircumflex" unicode="&#x109;" horiz-adv-x="454" 
d="M291 500q38 0 74.5 -8t63.5 -22l-16 -114q-19 8 -45.5 14t-53.5 6q-64 0 -96 -35t-32 -96t32 -96t96 -35q27 0 53.5 6t45.5 14l16 -114q-27 -14 -63.5 -22t-74.5 -8q-62 0 -111.5 18.5t-83.5 52t-52 80.5t-18 104t18 104t52 80.5t83.5 52t111.5 18.5zM442 559h-132
l-48 82l-48 -82h-132l109 169h142z" />
    <glyph glyph-name="Cdotaccent" unicode="&#x10a;" horiz-adv-x="627" 
d="M392 678q52 0 104.5 -10t90.5 -29l-24 -121q-30 12 -68.5 20.5t-76.5 8.5q-102 0 -161 -53t-59 -161t59 -161t161 -53q38 0 76.5 8.5t68.5 20.5l24 -121q-38 -19 -90.5 -29t-104.5 -10q-88 0 -155 26t-112 72t-68 109t-23 138t23 138t68 109t112 72t155 26zM276 812
q0 38 25 64t65 26t65 -26t25 -64t-25 -64t-65 -26t-65 26t-25 64z" />
    <glyph glyph-name="cdotaccent" unicode="&#x10b;" horiz-adv-x="454" 
d="M291 500q38 0 74.5 -8t63.5 -22l-16 -114q-19 8 -45.5 14t-53.5 6q-64 0 -96 -35t-32 -96t32 -96t96 -35q27 0 53.5 6t45.5 14l16 -114q-27 -14 -63.5 -22t-74.5 -8q-62 0 -111.5 18.5t-83.5 52t-52 80.5t-18 104t18 104t52 80.5t83.5 52t111.5 18.5zM164 633q0 38 25 64
t65 26t65 -26t25 -64t-25 -64t-65 -26t-65 26t-25 64z" />
    <glyph glyph-name="Ccaron" unicode="&#x10c;" horiz-adv-x="627" 
d="M392 678q52 0 104.5 -10t90.5 -29l-24 -121q-30 12 -68.5 20.5t-76.5 8.5q-102 0 -161 -53t-59 -161t59 -161t161 -53q38 0 76.5 8.5t68.5 20.5l24 -121q-38 -19 -90.5 -29t-104.5 -10q-88 0 -155 26t-112 72t-68 109t-23 138t23 138t68 109t112 72t155 26zM447 724h-158
l-93 124h135l37 -52l37 52h135z" />
    <glyph glyph-name="ccaron" unicode="&#x10d;" horiz-adv-x="454" 
d="M291 500q38 0 74.5 -8t63.5 -22l-16 -114q-19 8 -45.5 14t-53.5 6q-64 0 -96 -35t-32 -96t32 -96t96 -35q27 0 53.5 6t45.5 14l16 -114q-27 -14 -63.5 -22t-74.5 -8q-62 0 -111.5 18.5t-83.5 52t-52 80.5t-18 104t18 104t52 80.5t83.5 52t111.5 18.5zM336 559h-142
l-109 169h132l48 -82l48 82h132z" />
    <glyph glyph-name="Dcaron" unicode="&#x10e;" horiz-adv-x="693" 
d="M65 666h203q88 0 161.5 -25t125.5 -69t81 -105.5t29 -133.5t-29 -133.5t-81 -105.5t-125.5 -69t-161.5 -25h-203v666zM278 130q50 0 91 14t70.5 40t45.5 63.5t16 85.5t-16 85.5t-45.5 63.5t-70.5 40t-91 14h-49v-406h49zM390 724h-158l-93 124h135l37 -52l37 52h135z" />
    <glyph glyph-name="dcaron" unicode="&#x10f;" horiz-adv-x="744" 
d="M524 0h-153v62q-23 -33 -59.5 -52.5t-87.5 -19.5q-41 0 -77 17.5t-62.5 50t-41.5 78.5t-15 103q0 64 20.5 113t55 82t80.5 49.5t98 16.5q26 0 46 -3.5t36 -8.5v218h160v-706zM282 113q51 0 82 34v225q-22 8 -57 8q-60 0 -89.5 -37t-29.5 -101q0 -57 22.5 -93t71.5 -36z
M577 499q20 48 33.5 98.5t18.5 108.5l147 -15q-5 -69 -29.5 -132t-62.5 -115z" />
    <glyph glyph-name="Dcroat" unicode="&#x110;" horiz-adv-x="732" 
d="M30 398h74v268h203q88 0 161.5 -25t125.5 -69t81 -105.5t29 -133.5t-29 -133.5t-81 -105.5t-125.5 -69t-161.5 -25h-203v268h-74v130zM317 130q50 0 91 14t70.5 40t45.5 63.5t16 85.5t-16 85.5t-45.5 63.5t-70.5 40t-91 14h-49v-138h156v-130h-156v-138h49z" />
    <glyph glyph-name="dcroat" unicode="&#x111;" horiz-adv-x="586" 
d="M234 642h130v64h160v-64h67v-104h-67v-538h-153v62q-23 -33 -59.5 -52.5t-87.5 -19.5q-41 0 -77 17.5t-62.5 50t-41.5 78.5t-15 103q0 64 20.5 113t55 82t80.5 49.5t98 16.5q26 0 46 -3.5t36 -8.5v50h-130v104zM282 113q51 0 82 34v225q-22 8 -57 8q-60 0 -89.5 -37
t-29.5 -101q0 -57 22.5 -93t71.5 -36z" />
    <glyph glyph-name="Emacron" unicode="&#x112;" horiz-adv-x="531" 
d="M65 666h415v-130h-251v-134h239v-130h-239v-142h254v-130h-418v666zM89 848h365v-121h-365v121z" />
    <glyph glyph-name="emacron" unicode="&#x113;" horiz-adv-x="516" 
d="M277 500q96 0 152 -56.5t56 -156.5q0 -38 -9 -81h-284q2 -45 30.5 -72.5t87.5 -27.5q36 0 75.5 6.5t68.5 19.5l20 -103q-38 -19 -85.5 -29t-98.5 -10q-64 0 -113 18.5t-82 51.5t-50 79t-17 102q0 60 17.5 108t50 81.5t78.5 51.5t103 18zM272 398q-38 0 -58.5 -24.5
t-20.5 -67.5h142q2 8 2 17q0 32 -17 53.5t-48 21.5zM111 700h315v-121h-315v121z" />
    <glyph glyph-name="Ebreve" unicode="&#x114;" horiz-adv-x="531" 
d="M65 666h415v-130h-251v-134h239v-130h-239v-142h254v-130h-418v666zM452 848q-17 -63 -63.5 -95t-110.5 -32t-110.5 32t-63.5 95l105 29q8 -26 24 -42t45 -16t45 16t24 42z" />
    <glyph glyph-name="ebreve" unicode="&#x115;" horiz-adv-x="516" 
d="M277 500q96 0 152 -56.5t56 -156.5q0 -38 -9 -81h-284q2 -45 30.5 -72.5t87.5 -27.5q36 0 75.5 6.5t68.5 19.5l20 -103q-38 -19 -85.5 -29t-98.5 -10q-64 0 -113 18.5t-82 51.5t-50 79t-17 102q0 60 17.5 108t50 81.5t78.5 51.5t103 18zM272 398q-38 0 -58.5 -24.5
t-20.5 -67.5h142q2 8 2 17q0 32 -17 53.5t-48 21.5zM444 707q-11 -72 -58 -110t-116 -38t-116 38t-58 110l103 21q4 -26 20 -47t51 -21q18 0 30.5 5.5t20.5 15t13 22t7 25.5z" />
    <glyph glyph-name="Edotaccent" unicode="&#x116;" horiz-adv-x="531" 
d="M65 666h415v-130h-251v-134h239v-130h-239v-142h254v-130h-418v666zM190 812q0 38 25 64t65 26t65 -26t25 -64t-25 -64t-65 -26t-65 26t-25 64z" />
    <glyph glyph-name="edotaccent" unicode="&#x117;" horiz-adv-x="516" 
d="M277 500q96 0 152 -56.5t56 -156.5q0 -38 -9 -81h-284q2 -45 30.5 -72.5t87.5 -27.5q36 0 75.5 6.5t68.5 19.5l20 -103q-38 -19 -85.5 -29t-98.5 -10q-64 0 -113 18.5t-82 51.5t-50 79t-17 102q0 60 17.5 108t50 81.5t78.5 51.5t103 18zM272 398q-38 0 -58.5 -24.5
t-20.5 -67.5h142q2 8 2 17q0 32 -17 53.5t-48 21.5zM180 633q0 38 25 64t65 26t65 -26t25 -64t-25 -64t-65 -26t-65 26t-25 64z" />
    <glyph glyph-name="Eogonek" unicode="&#x118;" horiz-adv-x="531" 
d="M65 666h415v-130h-251v-134h239v-130h-239v-142h254v-130q-12 -9 -25 -20t-24 -23.5t-18.5 -26t-7.5 -26.5q0 -17 10 -25.5t27 -8.5t28 4l10 -72q-15 -8 -42 -13t-57 -5q-49 0 -81.5 24.5t-32.5 71.5q0 21 9 39.5t23 33.5t30.5 27t32.5 20h-300v666z" />
    <glyph glyph-name="eogonek" unicode="&#x119;" horiz-adv-x="516" 
d="M464 -196q-17 -8 -43.5 -14t-55.5 -6q-55 0 -87.5 25.5t-32.5 71.5q0 19 7 35.5t18.5 30.5t25.5 25t29 19q-9 -1 -18 -1h-17q-64 0 -113 18.5t-82 51.5t-50 79t-17 102q0 60 17.5 108t50 81.5t78.5 51.5t103 18q96 0 152 -56.5t56 -156.5q0 -38 -9 -81h-284
q2 -45 30.5 -72.5t87.5 -27.5q36 0 75.5 6.5t68.5 19.5l20 -103q-38 -26 -65.5 -56t-27.5 -60q0 -43 45 -43q17 0 28 4zM272 398q-38 0 -58.5 -24.5t-20.5 -67.5h142q2 8 2 17q0 32 -17 53.5t-48 21.5z" />
    <glyph glyph-name="Ecaron" unicode="&#x11a;" horiz-adv-x="531" 
d="M65 666h415v-130h-251v-134h239v-130h-239v-142h254v-130h-418v666zM358 724h-158l-93 124h135l37 -52l37 52h135z" />
    <glyph glyph-name="ecaron" unicode="&#x11b;" horiz-adv-x="516" 
d="M277 500q96 0 152 -56.5t56 -156.5q0 -38 -9 -81h-284q2 -45 30.5 -72.5t87.5 -27.5q36 0 75.5 6.5t68.5 19.5l20 -103q-38 -19 -85.5 -29t-98.5 -10q-64 0 -113 18.5t-82 51.5t-50 79t-17 102q0 60 17.5 108t50 81.5t78.5 51.5t103 18zM272 398q-38 0 -58.5 -24.5
t-20.5 -67.5h142q2 8 2 17q0 32 -17 53.5t-48 21.5zM341 559h-142l-109 169h132l48 -82l48 82h132z" />
    <glyph glyph-name="Gcircumflex" unicode="&#x11c;" horiz-adv-x="694" 
d="M400 678q130 0 218 -41l-22 -124q-86 34 -180 34q-50 0 -90 -13t-68.5 -40.5t-44 -70t-15.5 -101.5q0 -104 54.5 -157t160.5 -53q23 0 44 3.5t35 8.5v186h147v-274q-43 -21 -109.5 -34.5t-138.5 -13.5q-84 0 -150 24.5t-112 68.5t-70.5 105.5t-24.5 136.5
q0 80 24.5 145.5t71.5 112t115 72t155 25.5zM548 724h-135l-37 52l-37 -52h-135l93 124h158z" />
    <glyph glyph-name="gcircumflex" unicode="&#x11d;" horiz-adv-x="528" 
d="M516 490v-102h-72l-1 1q11 -30 11 -58q0 -34 -13.5 -64t-40 -52.5t-66 -35.5t-91.5 -13h-6q-4 -7 -6.5 -13.5t-2.5 -14.5q0 -14 10.5 -20.5t26.5 -7.5l86 -5q74 -5 118.5 -38.5t44.5 -99.5q0 -46 -24.5 -80.5t-65 -57t-91.5 -34t-104 -11.5q-42 0 -81.5 6t-70.5 20.5
t-50 38.5t-19 59q0 23 10 40.5t27 30.5t39 22t45 14q-44 22 -44 67q0 19 7.5 34t18.5 26.5t24.5 20t25.5 13.5q-64 17 -96.5 58.5t-32.5 96.5q0 36 13.5 66.5t40 53.5t66 36t91.5 13q22 0 41.5 -2.5t36.5 -7.5h195zM196 -2q-12 -9 -25 -22t-13 -34q0 -28 23.5 -41t65.5 -13
q22 0 43.5 4.5t38.5 13t27 20t10 26.5q0 18 -12.5 26t-39.5 10zM243 264q35 0 53 18.5t18 50.5t-18 50.5t-53 18.5t-53 -18.5t-18 -50.5t18 -50.5t53 -18.5zM422 559h-132l-48 82l-48 -82h-132l109 169h142z" />
    <glyph glyph-name="Gbreve" unicode="&#x11e;" horiz-adv-x="694" 
d="M400 678q130 0 218 -41l-22 -124q-86 34 -180 34q-50 0 -90 -13t-68.5 -40.5t-44 -70t-15.5 -101.5q0 -104 54.5 -157t160.5 -53q23 0 44 3.5t35 8.5v186h147v-274q-43 -21 -109.5 -34.5t-138.5 -13.5q-84 0 -150 24.5t-112 68.5t-70.5 105.5t-24.5 136.5
q0 80 24.5 145.5t71.5 112t115 72t155 25.5zM556 848q-17 -63 -63.5 -95t-110.5 -32t-110.5 32t-63.5 95l105 29q8 -26 24 -42t45 -16t45 16t24 42z" />
    <glyph glyph-name="gbreve" unicode="&#x11f;" horiz-adv-x="528" 
d="M516 490v-102h-72l-1 1q11 -30 11 -58q0 -34 -13.5 -64t-40 -52.5t-66 -35.5t-91.5 -13h-6q-4 -7 -6.5 -13.5t-2.5 -14.5q0 -14 10.5 -20.5t26.5 -7.5l86 -5q74 -5 118.5 -38.5t44.5 -99.5q0 -46 -24.5 -80.5t-65 -57t-91.5 -34t-104 -11.5q-42 0 -81.5 6t-70.5 20.5
t-50 38.5t-19 59q0 23 10 40.5t27 30.5t39 22t45 14q-44 22 -44 67q0 19 7.5 34t18.5 26.5t24.5 20t25.5 13.5q-64 17 -96.5 58.5t-32.5 96.5q0 36 13.5 66.5t40 53.5t66 36t91.5 13q22 0 41.5 -2.5t36.5 -7.5h195zM196 -2q-12 -9 -25 -22t-13 -34q0 -28 23.5 -41t65.5 -13
q22 0 43.5 4.5t38.5 13t27 20t10 26.5q0 18 -12.5 26t-39.5 10zM243 264q35 0 53 18.5t18 50.5t-18 50.5t-53 18.5t-53 -18.5t-18 -50.5t18 -50.5t53 -18.5zM416 707q-11 -72 -58 -110t-116 -38t-116 38t-58 110l103 21q4 -26 20 -47t51 -21q18 0 30.5 5.5t20.5 15t13 22
t7 25.5z" />
    <glyph glyph-name="Gdotaccent" unicode="&#x120;" horiz-adv-x="694" 
d="M400 678q130 0 218 -41l-22 -124q-86 34 -180 34q-50 0 -90 -13t-68.5 -40.5t-44 -70t-15.5 -101.5q0 -104 54.5 -157t160.5 -53q23 0 44 3.5t35 8.5v186h147v-274q-43 -21 -109.5 -34.5t-138.5 -13.5q-84 0 -150 24.5t-112 68.5t-70.5 105.5t-24.5 136.5
q0 80 24.5 145.5t71.5 112t115 72t155 25.5zM282 812q0 38 25 64t65 26t65 -26t25 -64t-25 -64t-65 -26t-65 26t-25 64z" />
    <glyph glyph-name="gdotaccent" unicode="&#x121;" horiz-adv-x="528" 
d="M516 490v-102h-72l-1 1q11 -30 11 -58q0 -34 -13.5 -64t-40 -52.5t-66 -35.5t-91.5 -13h-6q-4 -7 -6.5 -13.5t-2.5 -14.5q0 -14 10.5 -20.5t26.5 -7.5l86 -5q74 -5 118.5 -38.5t44.5 -99.5q0 -46 -24.5 -80.5t-65 -57t-91.5 -34t-104 -11.5q-42 0 -81.5 6t-70.5 20.5
t-50 38.5t-19 59q0 23 10 40.5t27 30.5t39 22t45 14q-44 22 -44 67q0 19 7.5 34t18.5 26.5t24.5 20t25.5 13.5q-64 17 -96.5 58.5t-32.5 96.5q0 36 13.5 66.5t40 53.5t66 36t91.5 13q22 0 41.5 -2.5t36.5 -7.5h195zM196 -2q-12 -9 -25 -22t-13 -34q0 -28 23.5 -41t65.5 -13
q22 0 43.5 4.5t38.5 13t27 20t10 26.5q0 18 -12.5 26t-39.5 10zM243 264q35 0 53 18.5t18 50.5t-18 50.5t-53 18.5t-53 -18.5t-18 -50.5t18 -50.5t53 -18.5zM149 633q0 38 25 64t65 26t65 -26t25 -64t-25 -64t-65 -26t-65 26t-25 64z" />
    <glyph glyph-name="Gcommaaccent" unicode="&#x122;" horiz-adv-x="694" 
d="M400 678q130 0 218 -41l-22 -124q-86 34 -180 34q-50 0 -90 -13t-68.5 -40.5t-44 -70t-15.5 -101.5q0 -104 54.5 -157t160.5 -53q23 0 44 3.5t35 8.5v186h147v-274q-43 -21 -109.5 -34.5t-138.5 -13.5q-84 0 -150 24.5t-112 68.5t-70.5 105.5t-24.5 136.5
q0 80 24.5 145.5t71.5 112t115 72t155 25.5zM299 -204q14 32 20.5 71.5t7.5 74.5h149q-2 -57 -20 -105.5t-44 -86.5z" />
    <glyph glyph-name="gcommaaccent" unicode="&#x123;" horiz-adv-x="528" 
d="M516 490v-102h-72l-1 1q11 -30 11 -58q0 -34 -13.5 -64t-40 -52.5t-66 -35.5t-91.5 -13h-6q-4 -7 -6.5 -13.5t-2.5 -14.5q0 -14 10.5 -20.5t26.5 -7.5l86 -5q74 -5 118.5 -38.5t44.5 -99.5q0 -46 -24.5 -80.5t-65 -57t-91.5 -34t-104 -11.5q-42 0 -81.5 6t-70.5 20.5
t-50 38.5t-19 59q0 23 10 40.5t27 30.5t39 22t45 14q-44 22 -44 67q0 19 7.5 34t18.5 26.5t24.5 20t25.5 13.5q-64 17 -96.5 58.5t-32.5 96.5q0 36 13.5 66.5t40 53.5t66 36t91.5 13q22 0 41.5 -2.5t36.5 -7.5h195zM196 -2q-12 -9 -25 -22t-13 -34q0 -28 23.5 -41t65.5 -13
q22 0 43.5 4.5t38.5 13t27 20t10 26.5q0 18 -12.5 26t-39.5 10zM243 264q35 0 53 18.5t18 50.5t-18 50.5t-53 18.5t-53 -18.5t-18 -50.5t18 -50.5t53 -18.5zM349 708q-17 -35 -27.5 -72.5t-11.5 -76.5l-144 7q1 59 21 105.5t50 78.5z" />
    <glyph glyph-name="Hcircumflex" unicode="&#x124;" horiz-adv-x="702" 
d="M473 0v271h-244v-271h-164v666h164v-261h244v261h164v-666h-164zM523 724h-135l-37 52l-37 -52h-135l93 124h158z" />
    <glyph glyph-name="hcircumflex" unicode="&#x125;" horiz-adv-x="583" 
d="M60 0v706h160v-274q22 35 57 51.5t74 16.5q49 0 83 -20.5t55.5 -54.5t31 -78.5t9.5 -93.5v-253h-160v256q0 61 -19 89.5t-58 28.5q-25 0 -43.5 -11t-29.5 -27v-336h-160zM317 749h-135l-37 52l-37 -52h-135l93 124h158z" />
    <glyph glyph-name="Hbar" unicode="&#x126;" horiz-adv-x="742" 
d="M5 584h80v82h164v-82h244v82h164v-82h80v-104h-80v-480h-164v271h-244v-271h-164v480h-80v104zM493 405v75h-244v-75h244z" />
    <glyph glyph-name="hbar" unicode="&#x127;" horiz-adv-x="585" 
d="M-5 642h67v64h160v-64h130v-104h-130v-106q22 35 57 51.5t74 16.5q49 0 83 -20.5t55.5 -54.5t31 -78.5t9.5 -93.5v-253h-160v256q0 61 -19 89.5t-58 28.5q-25 0 -43.5 -11t-29.5 -27v-336h-160v538h-67v104z" />
    <glyph glyph-name="Itilde" unicode="&#x128;" horiz-adv-x="304" 
d="M234 0h-164v666h164v-666zM241 714q-24 0 -42.5 4.5t-43.5 14.5q-20 8 -34 13.5t-27 5.5q-18 0 -27 -11t-17 -27l-95 42q17 58 45.5 83t74.5 25q24 0 44.5 -4.5t45.5 -15.5q20 -8 35 -13.5t28 -5.5q17 0 26.5 12t18.5 29l86 -48q-23 -51 -50 -77.5t-68 -26.5z" />
    <glyph glyph-name="itilde" unicode="&#x129;" horiz-adv-x="280" 
d="M60 0v490h160v-490h-160zM218 562q-22 0 -40.5 6.5t-39.5 16.5q-19 8 -33 14.5t-26 6.5q-17 0 -26 -12.5t-19 -32.5l-89 43q12 33 24.5 55t27.5 36t34 20t43 6t43 -7t39 -18q19 -10 31.5 -14.5t23.5 -4.5q18 0 27.5 11.5t20.5 33.5l86 -44q-14 -30 -27.5 -52t-28 -36
t-32 -21t-39.5 -7z" />
    <glyph glyph-name="uni012A" unicode="&#x12a;" horiz-adv-x="304" 
d="M234 0h-164v666h164v-666zM-30 848h365v-121h-365v121z" />
    <glyph glyph-name="imacron" unicode="&#x12b;" horiz-adv-x="280" 
d="M60 0v490h160v-490h-160zM-17 700h315v-121h-315v121z" />
    <glyph glyph-name="Ibreve" unicode="&#x12c;" horiz-adv-x="304" 
d="M234 0h-164v666h164v-666zM326 848q-17 -63 -63.5 -95t-110.5 -32t-110.5 32t-63.5 95l105 29q8 -26 24 -42t45 -16t45 16t24 42z" />
    <glyph glyph-name="uni012D" unicode="&#x12d;" horiz-adv-x="280" 
d="M60 0v490h160v-490h-160zM314 707q-11 -72 -58 -110t-116 -38t-116 38t-58 110l103 21q4 -26 20 -47t51 -21q18 0 30.5 5.5t20.5 15t13 22t7 25.5z" />
    <glyph glyph-name="Iogonek" unicode="&#x12e;" horiz-adv-x="304" 
d="M238 -196q-17 -8 -43.5 -14t-55.5 -6q-55 0 -87.5 27t-32.5 73q0 41 17 69.5t34 46.5v666h164v-666h-52q-9 -18 -18 -37t-9 -45q0 -22 11 -35t34 -13q17 0 28 4z" />
    <glyph glyph-name="iogonek" unicode="&#x12f;" horiz-adv-x="280" 
d="M228 -196q-17 -8 -43.5 -14t-55.5 -6q-55 0 -87.5 27t-32.5 73q0 41 17 69.5t34 46.5v490h160v-490h-48q-9 -18 -18 -37t-9 -45q0 -22 11 -35t34 -13q17 0 28 4zM50 633q0 38 25 64t65 26t65 -26t25 -64t-25 -64t-65 -26t-65 26t-25 64z" />
    <glyph glyph-name="Idotaccent" unicode="&#x130;" horiz-adv-x="304" 
d="M234 0h-164v666h164v-666zM62 812q0 38 25 64t65 26t65 -26t25 -64t-25 -64t-65 -26t-65 26t-25 64z" />
    <glyph glyph-name="dotlessi" unicode="&#x131;" horiz-adv-x="280" 
d="M60 0v490h160v-490h-160z" />
    <glyph glyph-name="IJ" unicode="&#x132;" horiz-adv-x="603" 
d="M234 0h-164v666h164v-666zM538 159q0 -45 -6 -87.5t-21.5 -84t-42.5 -82t-69 -81.5l-113 89q42 50 65 102t23 117v534h164v-507z" />
    <glyph glyph-name="ij" unicode="&#x133;" horiz-adv-x="561" 
d="M60 0v490h160v-490h-160zM50 633q0 38 25 64t65 26t65 -26t25 -64t-25 -64t-65 -26t-65 26t-25 64zM502 126q0 -50 -6.5 -95t-23 -87.5t-45 -82t-73.5 -77.5l-105 88q22 25 39.5 50.5t29.5 52.5t18 58t6 67v390h160v-364zM332 633q0 38 25 64t65 26t65 -26t25 -64
t-25 -64t-65 -26t-65 26t-25 64z" />
    <glyph glyph-name="Jcircumflex" unicode="&#x134;" horiz-adv-x="299" 
d="M234 159q0 -45 -6 -87.5t-21.5 -84t-42.5 -82t-69 -81.5l-113 89q42 50 65 102t23 117v534h164v-507zM323 724h-135l-37 52l-37 -52h-135l93 124h158z" />
    <glyph glyph-name="jcircumflex" unicode="&#x135;" horiz-adv-x="281" 
d="M222 126q0 -50 -6.5 -95t-23 -87.5t-45 -82t-73.5 -77.5l-105 88q22 25 39.5 50.5t29.5 52.5t18 58t6 67v390h160v-364zM323 559h-132l-48 82l-48 -82h-132l109 169h142z" />
    <glyph glyph-name="Kcommaaccent" unicode="&#x136;" horiz-adv-x="640" 
d="M65 0v666h164v-319l210 319h185l-225 -329l241 -337h-197l-214 326v-326h-164zM230 -204q14 32 20.5 71.5t7.5 74.5h149q-2 -57 -20 -105.5t-44 -86.5z" />
    <glyph glyph-name="kcommaaccent" unicode="&#x137;" horiz-adv-x="563" 
d="M60 0v706h160v-445l147 229h173l-158 -241l179 -249h-183l-158 237v-237h-160zM194 -204q14 32 20.5 71.5t7.5 74.5h149q-2 -57 -20 -105.5t-44 -86.5z" />
    <glyph glyph-name="kgreenlandic" unicode="&#x138;" horiz-adv-x="563" 
d="M60 0v490h160v-229l147 229h173l-158 -241l179 -249h-183l-158 237v-237h-160z" />
    <glyph glyph-name="Lacute" unicode="&#x139;" horiz-adv-x="492" 
d="M229 666v-536h245v-130h-409v666h164zM79 724l75 124h183l-130 -124h-128z" />
    <glyph glyph-name="lacute" unicode="&#x13a;" horiz-adv-x="301" 
d="M213 150q0 -19 8 -29.5t31 -10.5q14 0 34 3l5 -110q-20 -6 -45.5 -9.5t-52.5 -3.5q-40 0 -67 12t-43 32t-23 45.5t-7 52.5v574h160v-556zM66 749l75 124h183l-130 -124h-128z" />
    <glyph glyph-name="Lcommaaccent" unicode="&#x13b;" horiz-adv-x="492" 
d="M229 666v-536h245v-130h-409v666h164zM166 -204q14 32 20.5 71.5t7.5 74.5h149q-2 -57 -20 -105.5t-44 -86.5z" />
    <glyph glyph-name="lcommaaccent" unicode="&#x13c;" horiz-adv-x="301" 
d="M213 150q0 -19 8 -29.5t31 -10.5q14 0 34 3l5 -110q-20 -6 -45.5 -9.5t-52.5 -3.5q-40 0 -67 12t-43 32t-23 45.5t-7 52.5v574h160v-556zM76 -204q14 32 20.5 71.5t7.5 74.5h149q-2 -57 -20 -105.5t-44 -86.5z" />
    <glyph glyph-name="Lcaron" unicode="&#x13d;" horiz-adv-x="492" 
d="M229 666v-536h245v-130h-409v666h164zM286 459q20 48 33.5 98.5t18.5 108.5l147 -15q-5 -69 -29.5 -132t-62.5 -115z" />
    <glyph glyph-name="lcaron" unicode="&#x13e;" horiz-adv-x="419" 
d="M213 150q0 -19 8 -29.5t31 -10.5q14 0 34 3l5 -110q-20 -6 -45.5 -9.5t-52.5 -3.5q-40 0 -67 12t-43 32t-23 45.5t-7 52.5v574h160v-556zM252 499q20 48 33.5 98.5t18.5 108.5l147 -15q-5 -69 -29.5 -132t-62.5 -115z" />
    <glyph glyph-name="Ldot" unicode="&#x13f;" horiz-adv-x="492" 
d="M229 666v-536h245v-130h-409v666h164zM277 323q0 36 23 63t67 27t67 -27t23 -63t-23 -63t-67 -27t-67 27t-23 63z" />
    <glyph glyph-name="ldot" unicode="&#x140;" horiz-adv-x="451" 
d="M213 150q0 -19 8 -29.5t31 -10.5q14 0 34 3l5 -110q-20 -6 -45.5 -9.5t-52.5 -3.5q-40 0 -67 12t-43 32t-23 45.5t-7 52.5v574h160v-556zM266 294q0 36 23 63t67 27t67 -27t23 -63t-23 -63t-67 -27t-67 27t-23 63z" />
    <glyph glyph-name="Lslash" unicode="&#x141;" horiz-adv-x="503" 
d="M240 286v-156h245v-130h-409v204l-41 -20l-55 116l96 47v319h164v-237l137 68l57 -114z" />
    <glyph glyph-name="lslash" unicode="&#x142;" horiz-adv-x="321" 
d="M225 327v-177q0 -19 8 -29.5t31 -10.5q14 0 34 3l5 -110q-20 -6 -45.5 -9.5t-52.5 -3.5q-40 0 -67 12t-43 32t-23 45.5t-7 52.5v117l-32 -15l-53 113l85 41v318h160v-240l64 31l52 -113z" />
    <glyph glyph-name="Nacute" unicode="&#x143;" horiz-adv-x="721" 
d="M498 0l-275 397v-397h-158v666h158l275 -397v397h158v-666h-158zM273 724l75 124h183l-130 -124h-128z" />
    <glyph glyph-name="nacute" unicode="&#x144;" horiz-adv-x="583" 
d="M60 0v490h154v-64q23 40 59.5 57t77.5 17q49 0 83 -20.5t55.5 -54.5t31 -78.5t9.5 -93.5v-253h-160v256q0 61 -19 89.5t-58 28.5q-25 0 -43.5 -11t-29.5 -27v-336h-160zM208 559l73 169h175l-116 -169h-132z" />
    <glyph glyph-name="Ncommaaccent" unicode="&#x145;" horiz-adv-x="721" 
d="M498 0l-275 397v-397h-158v666h158l275 -397v397h158v-666h-158zM264 -204q14 32 20.5 71.5t7.5 74.5h149q-2 -57 -20 -105.5t-44 -86.5z" />
    <glyph glyph-name="ncommaaccent" unicode="&#x146;" horiz-adv-x="583" 
d="M60 0v490h154v-64q23 40 59.5 57t77.5 17q49 0 83 -20.5t55.5 -54.5t31 -78.5t9.5 -93.5v-253h-160v256q0 61 -19 89.5t-58 28.5q-25 0 -43.5 -11t-29.5 -27v-336h-160zM193 -204q14 32 20.5 71.5t7.5 74.5h149q-2 -57 -20 -105.5t-44 -86.5z" />
    <glyph glyph-name="Ncaron" unicode="&#x147;" horiz-adv-x="721" 
d="M498 0l-275 397v-397h-158v666h158l275 -397v397h158v-666h-158zM433 724h-158l-93 124h135l37 -52l37 52h135z" />
    <glyph glyph-name="ncaron" unicode="&#x148;" horiz-adv-x="583" 
d="M60 0v490h154v-64q23 40 59.5 57t77.5 17q49 0 83 -20.5t55.5 -54.5t31 -78.5t9.5 -93.5v-253h-160v256q0 61 -19 89.5t-58 28.5q-25 0 -43.5 -11t-29.5 -27v-336h-160zM362 559h-142l-109 169h132l48 -82l48 82h132z" />
    <glyph glyph-name="napostrophe" unicode="&#x149;" horiz-adv-x="725" 
d="M210 0v490h154v-64q23 40 59.5 57t77.5 17q49 0 83 -20.5t55.5 -54.5t31 -78.5t9.5 -93.5v-253h-160v256q0 61 -19 89.5t-58 28.5q-25 0 -43.5 -11t-29.5 -27v-336h-160zM0 499q20 48 33.5 98.5t18.5 108.5l147 -15q-5 -69 -29.5 -132t-62.5 -115z" />
    <glyph glyph-name="Eng" unicode="&#x14a;" horiz-adv-x="721" 
d="M656 65q0 -57 -18 -102.5t-51 -80t-79 -59t-102 -39.5l-49 115q25 10 46.5 20.5t39 23.5t31.5 29t24 38l-275 387v-397h-158v666h158l275 -397v397h158v-601z" />
    <glyph glyph-name="eng" unicode="&#x14b;" horiz-adv-x="583" 
d="M530 75q0 -53 -7.5 -95t-27.5 -77t-55 -64t-90 -55l-68 120q22 12 38.5 24.5t27.5 30t16.5 40.5t5.5 56v201q0 61 -19 89.5t-58 28.5q-25 0 -43.5 -11t-29.5 -27v-336h-160v490h154v-64q23 40 59.5 57t77.5 17q49 0 83 -20.5t55.5 -54.5t31 -78.5t9.5 -93.5v-178v0z" />
    <glyph glyph-name="Omacron" unicode="&#x14c;" horiz-adv-x="748" 
d="M714 333q0 -71 -23 -133.5t-66.5 -109.5t-106.5 -74.5t-144 -27.5t-144.5 27.5t-107 74.5t-66 109.5t-22.5 133.5t22.5 133.5t66 109.5t107 74.5t144.5 27.5t144 -27.5t106.5 -74.5t66.5 -109.5t23 -133.5zM374 118q43 0 76 16t55.5 44.5t33.5 68t11 86.5t-11 86.5
t-33.5 68t-55.5 44.5t-76 16q-44 0 -76.5 -16t-55 -44.5t-33.5 -68t-11 -86.5t11 -86.5t33.5 -68t55 -44.5t76.5 -16zM191 848h365v-121h-365v121z" />
    <glyph glyph-name="omacron" unicode="&#x14d;" horiz-adv-x="574" 
d="M548 245q0 -54 -17 -100.5t-50 -81t-82 -54t-112 -19.5t-112 19.5t-82 54t-50 81t-17 100.5t17 100.5t50 81t82 54t112 19.5t112 -19.5t82 -54t50 -81t17 -100.5zM388 245q0 26 -5 50.5t-16.5 44t-31 31t-48.5 11.5t-48.5 -11.5t-31 -31t-16.5 -44t-5 -50.5t5 -50.5
t16.5 -44t31 -31t48.5 -11.5t48.5 11.5t31 31t16.5 44t5 50.5zM129 700h315v-121h-315v121z" />
    <glyph glyph-name="Obreve" unicode="&#x14e;" horiz-adv-x="748" 
d="M714 333q0 -71 -23 -133.5t-66.5 -109.5t-106.5 -74.5t-144 -27.5t-144.5 27.5t-107 74.5t-66 109.5t-22.5 133.5t22.5 133.5t66 109.5t107 74.5t144.5 27.5t144 -27.5t106.5 -74.5t66.5 -109.5t23 -133.5zM374 118q43 0 76 16t55.5 44.5t33.5 68t11 86.5t-11 86.5
t-33.5 68t-55.5 44.5t-76 16q-44 0 -76.5 -16t-55 -44.5t-33.5 -68t-11 -86.5t11 -86.5t33.5 -68t55 -44.5t76.5 -16zM548 848q-17 -63 -63.5 -95t-110.5 -32t-110.5 32t-63.5 95l105 29q8 -26 24 -42t45 -16t45 16t24 42z" />
    <glyph glyph-name="obreve" unicode="&#x14f;" horiz-adv-x="574" 
d="M548 245q0 -54 -17 -100.5t-50 -81t-82 -54t-112 -19.5t-112 19.5t-82 54t-50 81t-17 100.5t17 100.5t50 81t82 54t112 19.5t112 -19.5t82 -54t50 -81t17 -100.5zM388 245q0 26 -5 50.5t-16.5 44t-31 31t-48.5 11.5t-48.5 -11.5t-31 -31t-16.5 -44t-5 -50.5t5 -50.5
t16.5 -44t31 -31t48.5 -11.5t48.5 11.5t31 31t16.5 44t5 50.5zM461 707q-11 -72 -58 -110t-116 -38t-116 38t-58 110l103 21q4 -26 20 -47t51 -21q18 0 30.5 5.5t20.5 15t13 22t7 25.5z" />
    <glyph glyph-name="Ohungarumlaut" unicode="&#x150;" horiz-adv-x="748" 
d="M714 333q0 -71 -23 -133.5t-66.5 -109.5t-106.5 -74.5t-144 -27.5t-144.5 27.5t-107 74.5t-66 109.5t-22.5 133.5t22.5 133.5t66 109.5t107 74.5t144.5 27.5t144 -27.5t106.5 -74.5t66.5 -109.5t23 -133.5zM374 118q43 0 76 16t55.5 44.5t33.5 68t11 86.5t-11 86.5
t-33.5 68t-55.5 44.5t-76 16q-44 0 -76.5 -16t-55 -44.5t-33.5 -68t-11 -86.5t11 -86.5t33.5 -68t55 -44.5t76.5 -16zM207 724l44 124h155l-75 -124h-124zM420 724l44 124h155l-75 -124h-124z" />
    <glyph glyph-name="ohungarumlaut" unicode="&#x151;" horiz-adv-x="574" 
d="M548 245q0 -54 -17 -100.5t-50 -81t-82 -54t-112 -19.5t-112 19.5t-82 54t-50 81t-17 100.5t17 100.5t50 81t82 54t112 19.5t112 -19.5t82 -54t50 -81t17 -100.5zM388 245q0 26 -5 50.5t-16.5 44t-31 31t-48.5 11.5t-48.5 -11.5t-31 -31t-16.5 -44t-5 -50.5t5 -50.5
t16.5 -44t31 -31t48.5 -11.5t48.5 11.5t31 31t16.5 44t5 50.5zM133 559l56 169h146l-87 -169h-115zM333 559l56 169h146l-87 -169h-115z" />
    <glyph glyph-name="OE" unicode="&#x152;" horiz-adv-x="973" 
d="M510 0q-31 -5 -63 -8.5t-60 -3.5q-86 0 -151.5 27.5t-110.5 74.5t-68 109.5t-23 133.5t23 133.5t68 109.5t110.5 74.5t151.5 27.5q57 0 123 -12h415v-130h-251v-134h239v-130h-239v-142h254v-130h-418zM397 548q-94 0 -146.5 -58t-52.5 -157t52.5 -157t146.5 -58
q33 0 62.5 4t50.5 9v403q-56 14 -113 14z" />
    <glyph glyph-name="oe" unicode="&#x153;" horiz-adv-x="866" 
d="M629 500q96 0 150.5 -57.5t54.5 -155.5q0 -21 -2 -40t-7 -41h-281q1 -44 29.5 -72t87.5 -28q39 0 72 6.5t67 21.5l24 -106q-38 -18 -83.5 -28t-100.5 -10q-58 0 -103 17.5t-77 49.5q-30 -31 -75 -49t-98 -18q-64 0 -112.5 19.5t-81.5 54t-49.5 81t-16.5 100.5t17.5 100.5
t51 81t82 54t109.5 19.5q52 0 92 -14.5t80 -50.5q36 35 76.5 50t93.5 15zM387 245q0 62 -26 99.5t-74 37.5t-74 -36.5t-26 -100.5t26 -100.5t74 -36.5t74 37.5t26 99.5zM623 398q-38 0 -58 -25.5t-21 -66.5h143q4 39 -12 65.5t-52 26.5z" />
    <glyph glyph-name="Racute" unicode="&#x154;" horiz-adv-x="639" 
d="M567 455q0 -67 -37.5 -117t-104.5 -76l219 -262h-202l-183 231h-30v-231h-164v666h212q62 0 115 -13t92 -39t61 -65.5t22 -93.5zM409 452q0 45 -35 66.5t-98 21.5h-47v-187h40q66 0 103 26t37 73zM181 724l75 124h183l-130 -124h-128z" />
    <glyph glyph-name="racute" unicode="&#x155;" horiz-adv-x="379" 
d="M373 352h-19q-95 0 -134 -48v-304h-160v490h155v-82q14 40 43 63t76 23q14 0 23.5 -1.5t19.5 -4.5zM125 559l73 169h175l-116 -169h-132z" />
    <glyph glyph-name="Rcommaaccent" unicode="&#x156;" horiz-adv-x="639" 
d="M567 455q0 -67 -37.5 -117t-104.5 -76l219 -262h-202l-183 231h-30v-231h-164v666h212q62 0 115 -13t92 -39t61 -65.5t22 -93.5zM409 452q0 45 -35 66.5t-98 21.5h-47v-187h40q66 0 103 26t37 73zM223 -204q14 32 20.5 71.5t7.5 74.5h149q-2 -57 -20 -105.5t-44 -86.5z
" />
    <glyph glyph-name="rcommaaccent" unicode="&#x157;" horiz-adv-x="379" 
d="M373 352h-19q-95 0 -134 -48v-304h-160v490h155v-82q14 40 43 63t76 23q14 0 23.5 -1.5t19.5 -4.5zM35 -204q14 32 20.5 71.5t7.5 74.5h149q-2 -57 -20 -105.5t-44 -86.5z" />
    <glyph glyph-name="Rcaron" unicode="&#x158;" horiz-adv-x="639" 
d="M567 455q0 -67 -37.5 -117t-104.5 -76l219 -262h-202l-183 231h-30v-231h-164v666h212q62 0 115 -13t92 -39t61 -65.5t22 -93.5zM409 452q0 45 -35 66.5t-98 21.5h-47v-187h40q66 0 103 26t37 73zM368 724h-158l-93 124h135l37 -52l37 52h135z" />
    <glyph glyph-name="rcaron" unicode="&#x159;" horiz-adv-x="379" 
d="M373 352h-19q-95 0 -134 -48v-304h-160v490h155v-82q14 40 43 63t76 23q14 0 23.5 -1.5t19.5 -4.5zM290 559h-142l-109 169h132l48 -82l48 82h132z" />
    <glyph glyph-name="Sacute" unicode="&#x15a;" horiz-adv-x="530" 
d="M502 199q0 -44 -17.5 -82.5t-50.5 -67t-80 -45t-107 -16.5q-55 0 -110 12t-102 35l33 125q35 -17 79 -29.5t95 -12.5q42 0 69 15.5t27 50.5q0 25 -23.5 45.5t-85.5 43.5q-98 37 -143 84.5t-45 121.5q0 97 63.5 148t175.5 51q57 0 109 -12.5t88 -32.5l-28 -123
q-35 17 -76.5 27.5t-85.5 10.5q-37 0 -59.5 -12.5t-22.5 -42.5q0 -14 4 -24t14.5 -19t29.5 -18t48 -21q42 -17 79 -36t64 -44t42.5 -57t15.5 -75zM179 724l75 124h183l-130 -124h-128z" />
    <glyph glyph-name="sacute" unicode="&#x15b;" horiz-adv-x="435" 
d="M409 160q0 -41 -15.5 -73t-44 -53.5t-67.5 -32.5t-86 -11q-40 0 -84 7.5t-80 22.5l22 111q31 -13 68.5 -19.5t65.5 -6.5q29 0 50.5 8.5t21.5 28.5q0 18 -19 25.5t-57 21.5q-31 11 -58 24.5t-46.5 32t-30.5 42.5t-11 56q0 80 54 118t141 38q46 0 84 -8.5t73 -28.5
l-22 -105q-27 12 -57 19.5t-63 7.5q-29 0 -44.5 -5.5t-15.5 -22.5t18.5 -24.5t47.5 -18.5q22 -8 49 -19.5t50.5 -29.5t39.5 -43.5t16 -61.5zM142 559l73 169h175l-116 -169h-132z" />
    <glyph glyph-name="Scircumflex" unicode="&#x15c;" horiz-adv-x="530" 
d="M502 199q0 -44 -17.5 -82.5t-50.5 -67t-80 -45t-107 -16.5q-55 0 -110 12t-102 35l33 125q35 -17 79 -29.5t95 -12.5q42 0 69 15.5t27 50.5q0 25 -23.5 45.5t-85.5 43.5q-98 37 -143 84.5t-45 121.5q0 97 63.5 148t175.5 51q57 0 109 -12.5t88 -32.5l-28 -123
q-35 17 -76.5 27.5t-85.5 10.5q-37 0 -59.5 -12.5t-22.5 -42.5q0 -14 4 -24t14.5 -19t29.5 -18t48 -21q42 -17 79 -36t64 -44t42.5 -57t15.5 -75zM434 724h-135l-37 52l-37 -52h-135l93 124h158z" />
    <glyph glyph-name="scircumflex" unicode="&#x15d;" horiz-adv-x="435" 
d="M409 160q0 -41 -15.5 -73t-44 -53.5t-67.5 -32.5t-86 -11q-40 0 -84 7.5t-80 22.5l22 111q31 -13 68.5 -19.5t65.5 -6.5q29 0 50.5 8.5t21.5 28.5q0 18 -19 25.5t-57 21.5q-31 11 -58 24.5t-46.5 32t-30.5 42.5t-11 56q0 80 54 118t141 38q46 0 84 -8.5t73 -28.5
l-22 -105q-27 12 -57 19.5t-63 7.5q-29 0 -44.5 -5.5t-15.5 -22.5t18.5 -24.5t47.5 -18.5q22 -8 49 -19.5t50.5 -29.5t39.5 -43.5t16 -61.5zM401 559h-132l-48 82l-48 -82h-132l109 169h142z" />
    <glyph glyph-name="Scedilla" unicode="&#x15e;" horiz-adv-x="530" 
d="M368 -113q0 -25 -14.5 -43.5t-39.5 -31t-57.5 -19.5t-69.5 -9l-12 74q23 2 43 8.5t20 21.5q0 8 -5.5 13.5t-14.5 8.5t-19.5 5t-20.5 3l24 72q-45 5 -87.5 16t-79.5 29l33 125q35 -17 79 -29.5t95 -12.5q42 0 69 15.5t27 50.5q0 25 -23.5 45.5t-85.5 43.5
q-98 37 -143 84.5t-45 121.5q0 97 63.5 148t175.5 51q57 0 109 -12.5t88 -32.5l-28 -123q-35 17 -76.5 27.5t-85.5 10.5q-37 0 -59.5 -12.5t-22.5 -42.5q0 -14 4 -24t14.5 -19t29.5 -18t48 -21q42 -17 79 -36t64 -44t42.5 -57t15.5 -75q0 -41 -15 -77t-43 -63.5t-69 -46
t-92 -22.5l-8 -33q18 0 34.5 -4t29.5 -12.5t21 -21.5t8 -32z" />
    <glyph glyph-name="scedilla" unicode="&#x15f;" horiz-adv-x="435" 
d="M328 -113q0 -25 -14.5 -43.5t-39.5 -31t-57.5 -19.5t-69.5 -9l-12 74q23 2 43 8.5t20 21.5q0 8 -5.5 13.5t-14.5 8.5t-19.5 5t-20.5 3l23 73q-33 3 -66.5 10t-62.5 19l22 111q31 -13 68.5 -19.5t65.5 -6.5q29 0 50.5 8.5t21.5 28.5q0 18 -19 25.5t-57 21.5
q-31 11 -58 24.5t-46.5 32t-30.5 42.5t-11 56q0 80 54 118t141 38q46 0 84 -8.5t73 -28.5l-22 -105q-27 12 -57 19.5t-63 7.5q-29 0 -44.5 -5.5t-15.5 -22.5t18.5 -24.5t47.5 -18.5q22 -8 49 -19.5t50.5 -29.5t39.5 -43.5t16 -61.5q0 -72 -46 -114.5t-121 -52.5l-8 -36
q18 -1 35 -5t30 -12t21 -21t8 -32z" />
    <glyph glyph-name="Scaron" unicode="&#x160;" horiz-adv-x="530" 
d="M502 199q0 -44 -17.5 -82.5t-50.5 -67t-80 -45t-107 -16.5q-55 0 -110 12t-102 35l33 125q35 -17 79 -29.5t95 -12.5q42 0 69 15.5t27 50.5q0 25 -23.5 45.5t-85.5 43.5q-98 37 -143 84.5t-45 121.5q0 97 63.5 148t175.5 51q57 0 109 -12.5t88 -32.5l-28 -123
q-35 17 -76.5 27.5t-85.5 10.5q-37 0 -59.5 -12.5t-22.5 -42.5q0 -14 4 -24t14.5 -19t29.5 -18t48 -21q42 -17 79 -36t64 -44t42.5 -57t15.5 -75zM337 724h-158l-93 124h135l37 -52l37 52h135z" />
    <glyph glyph-name="scaron" unicode="&#x161;" horiz-adv-x="435" 
d="M409 160q0 -41 -15.5 -73t-44 -53.5t-67.5 -32.5t-86 -11q-40 0 -84 7.5t-80 22.5l22 111q31 -13 68.5 -19.5t65.5 -6.5q29 0 50.5 8.5t21.5 28.5q0 18 -19 25.5t-57 21.5q-31 11 -58 24.5t-46.5 32t-30.5 42.5t-11 56q0 80 54 118t141 38q46 0 84 -8.5t73 -28.5
l-22 -105q-27 12 -57 19.5t-63 7.5q-29 0 -44.5 -5.5t-15.5 -22.5t18.5 -24.5t47.5 -18.5q22 -8 49 -19.5t50.5 -29.5t39.5 -43.5t16 -61.5zM287 559h-142l-109 169h132l48 -82l48 82h132z" />
    <glyph glyph-name="Tcommaaccent" unicode="&#x162;" horiz-adv-x="550" 
d="M536 666v-130h-179v-536h-164v536h-179v130h522zM173 -204q14 32 20.5 71.5t7.5 74.5h149q-2 -57 -20 -105.5t-44 -86.5z" />
    <glyph glyph-name="Tcommaaccent" unicode="&#x21a;" horiz-adv-x="550" 
d="M536 666v-130h-179v-536h-164v536h-179v130h522zM173 -204q14 32 20.5 71.5t7.5 74.5h149q-2 -57 -20 -105.5t-44 -86.5z" />
    <glyph glyph-name="tcommaaccent" unicode="&#x163;" horiz-adv-x="404" 
d="M8 490h75v128h160v-128h141v-122h-141v-192q0 -29 12.5 -45.5t45.5 -16.5q18 0 36.5 2.5t35.5 7.5l11 -111q-24 -11 -59 -17t-70 -6q-47 0 -79.5 14.5t-53 39t-30 58t-9.5 71.5v195h-75v122zM140 -204q14 32 20.5 71.5t7.5 74.5h149q-2 -57 -20 -105.5t-44 -86.5z" />
    <glyph glyph-name="tcommaaccent" unicode="&#x21b;" horiz-adv-x="404" 
d="M8 490h75v128h160v-128h141v-122h-141v-192q0 -29 12.5 -45.5t45.5 -16.5q18 0 36.5 2.5t35.5 7.5l11 -111q-24 -11 -59 -17t-70 -6q-47 0 -79.5 14.5t-53 39t-30 58t-9.5 71.5v195h-75v122zM140 -204q14 32 20.5 71.5t7.5 74.5h149q-2 -57 -20 -105.5t-44 -86.5z" />
    <glyph glyph-name="Tcaron" unicode="&#x164;" horiz-adv-x="550" 
d="M536 666v-130h-179v-536h-164v536h-179v130h522zM354 724h-158l-93 124h135l37 -52l37 52h135z" />
    <glyph glyph-name="tcaron" unicode="&#x165;" horiz-adv-x="436" 
d="M8 490h75v128h160v-128h141v-122h-141v-192q0 -29 12.5 -45.5t45.5 -16.5q18 0 36.5 2.5t35.5 7.5l11 -111q-24 -11 -59 -17t-70 -6q-47 0 -79.5 14.5t-53 39t-30 58t-9.5 71.5v195h-75v122zM281 595q19 36 28 72.5t11 82.5l136 -15q-5 -58 -25 -105t-53 -88z" />
    <glyph glyph-name="Tbar" unicode="&#x166;" horiz-adv-x="550" 
d="M357 247v-247h-164v247h-117v122h117v167h-179v130h522v-130h-179v-167h117v-122h-117z" />
    <glyph glyph-name="tbar" unicode="&#x167;" horiz-adv-x="404" 
d="M8 301h75v67h-75v122h75v128h160v-128h141v-122h-141v-67h107v-104h-107v-21q0 -29 12.5 -45.5t45.5 -16.5q18 0 36.5 2.5t35.5 7.5l11 -111q-24 -11 -59 -17t-70 -6q-47 0 -79.5 14.5t-53 39t-30 58t-9.5 71.5v24h-75v104z" />
    <glyph glyph-name="Utilde" unicode="&#x168;" horiz-adv-x="690" 
d="M463 666h164v-426q0 -118 -74.5 -185t-207.5 -67t-207.5 67t-74.5 185v426h164v-431q0 -57 30 -87t88 -30t88 30t30 87v431zM432 714q-24 0 -42.5 4.5t-43.5 14.5q-20 8 -34 13.5t-27 5.5q-18 0 -27 -11t-17 -27l-95 42q17 58 45.5 83t74.5 25q24 0 44.5 -4.5t45.5 -15.5
q20 -8 35 -13.5t28 -5.5q17 0 26.5 12t18.5 29l86 -48q-23 -51 -50 -77.5t-68 -26.5z" />
    <glyph glyph-name="utilde" unicode="&#x169;" horiz-adv-x="579" 
d="M519 490v-490h-154v64q-28 -42 -63 -58t-74 -16q-49 0 -82.5 20.5t-54 54.5t-29.5 78.5t-9 93.5v253h160v-256q0 -61 17 -89.5t56 -28.5q25 0 43.5 11t29.5 27v336h160zM377 562q-22 0 -40.5 6.5t-39.5 16.5q-19 8 -33 14.5t-26 6.5q-17 0 -26 -12.5t-19 -32.5l-89 43
q12 33 24.5 55t27.5 36t34 20t43 6t43 -7t39 -18q19 -10 31.5 -14.5t23.5 -4.5q18 0 27.5 11.5t20.5 33.5l86 -44q-14 -30 -27.5 -52t-28 -36t-32 -21t-39.5 -7z" />
    <glyph glyph-name="Umacron" unicode="&#x16a;" horiz-adv-x="690" 
d="M463 666h164v-426q0 -118 -74.5 -185t-207.5 -67t-207.5 67t-74.5 185v426h164v-431q0 -57 30 -87t88 -30t88 30t30 87v431zM162 848h365v-121h-365v121z" />
    <glyph glyph-name="umacron" unicode="&#x16b;" horiz-adv-x="579" 
d="M519 490v-490h-154v64q-28 -42 -63 -58t-74 -16q-49 0 -82.5 20.5t-54 54.5t-29.5 78.5t-9 93.5v253h160v-256q0 -61 17 -89.5t56 -28.5q25 0 43.5 11t29.5 27v336h160zM132 700h315v-121h-315v121z" />
    <glyph glyph-name="Ubreve" unicode="&#x16c;" horiz-adv-x="690" 
d="M463 666h164v-426q0 -118 -74.5 -185t-207.5 -67t-207.5 67t-74.5 185v426h164v-431q0 -57 30 -87t88 -30t88 30t30 87v431zM519 848q-17 -63 -63.5 -95t-110.5 -32t-110.5 32t-63.5 95l105 29q8 -26 24 -42t45 -16t45 16t24 42z" />
    <glyph glyph-name="ubreve" unicode="&#x16d;" horiz-adv-x="579" 
d="M519 490v-490h-154v64q-28 -42 -63 -58t-74 -16q-49 0 -82.5 20.5t-54 54.5t-29.5 78.5t-9 93.5v253h160v-256q0 -61 17 -89.5t56 -28.5q25 0 43.5 11t29.5 27v336h160zM467 707q-11 -72 -58 -110t-116 -38t-116 38t-58 110l103 21q4 -26 20 -47t51 -21q18 0 30.5 5.5
t20.5 15t13 22t7 25.5z" />
    <glyph glyph-name="Uring" unicode="&#x16e;" horiz-adv-x="690" 
d="M463 666h164v-426q0 -118 -74.5 -185t-207.5 -67t-207.5 67t-74.5 185v426h164v-431q0 -57 30 -87t88 -30t88 30t30 87v431zM450 818q0 -18 -7 -34.5t-20 -30t-33 -21.5t-45 -8q-26 0 -45.5 8t-32.5 21.5t-20 30t-7 34.5t7 35t20 30.5t32.5 21.5t45.5 8q25 0 45 -8
t33 -21.5t20 -30.5t7 -35zM309 818q0 -17 10 -26.5t26 -9.5t26 9.5t10 26.5t-10 26.5t-26 9.5t-26 -9.5t-10 -26.5z" />
    <glyph glyph-name="uring" unicode="&#x16f;" horiz-adv-x="579" 
d="M519 490v-490h-154v64q-28 -42 -63 -58t-74 -16q-49 0 -82.5 20.5t-54 54.5t-29.5 78.5t-9 93.5v253h160v-256q0 -61 17 -89.5t56 -28.5q25 0 43.5 11t29.5 27v336h160zM393 650q0 -18 -7 -34.5t-20 -30t-33 -21.5t-45 -8q-26 0 -45.5 8t-32.5 21.5t-20 30t-7 34.5t7 35
t20 30.5t32.5 21.5t45.5 8q25 0 45 -8t33 -21.5t20 -30.5t7 -35zM252 650q0 -17 10 -26.5t26 -9.5t26 9.5t10 26.5t-10 26.5t-26 9.5t-26 -9.5t-10 -26.5z" />
    <glyph glyph-name="Uhungarumlaut" unicode="&#x170;" horiz-adv-x="690" 
d="M463 666h164v-426q0 -118 -74.5 -185t-207.5 -67t-207.5 67t-74.5 185v426h164v-431q0 -57 30 -87t88 -30t88 30t30 87v431zM178 724l44 124h155l-75 -124h-124zM391 724l44 124h155l-75 -124h-124z" />
    <glyph glyph-name="uhungarumlaut" unicode="&#x171;" horiz-adv-x="579" 
d="M519 490v-490h-154v64q-28 -42 -63 -58t-74 -16q-49 0 -82.5 20.5t-54 54.5t-29.5 78.5t-9 93.5v253h160v-256q0 -61 17 -89.5t56 -28.5q25 0 43.5 11t29.5 27v336h160zM134 559l56 169h146l-87 -169h-115zM334 559l56 169h146l-87 -169h-115z" />
    <glyph glyph-name="Uogonek" unicode="&#x172;" horiz-adv-x="690" 
d="M496 -196q-17 -8 -43.5 -14t-55.5 -6q-55 0 -87.5 27t-32.5 73q0 33 20.5 58.5t49.5 45.5h-2q-133 0 -207.5 67t-74.5 185v426h164v-431q0 -57 30 -87t88 -30t88 30t30 87v431h164v-426q0 -68 -24 -115.5t-66 -81.5q-17 -14 -38.5 -28t-40.5 -29.5t-32 -33.5t-13 -39
q0 -20 11.5 -31.5t33.5 -11.5q17 0 28 4z" />
    <glyph glyph-name="uogonek" unicode="&#x173;" horiz-adv-x="579" 
d="M517 -196q-17 -8 -43.5 -14t-55.5 -6q-55 0 -87.5 27t-32.5 73q0 39 20.5 66.5t46.5 49.5v64q-28 -42 -63 -58t-74 -16q-49 0 -82.5 20.5t-54 54.5t-29.5 78.5t-9 93.5v253h160v-256q0 -61 17 -89.5t56 -28.5q25 0 43.5 11t29.5 27v336h160v-490h-53q-11 -19 -21.5 -40
t-10.5 -44q0 -22 12.5 -34t32.5 -12q17 0 28 4z" />
    <glyph glyph-name="Wcircumflex" unicode="&#x174;" horiz-adv-x="998" 
d="M714 204l103 462h168l-184 -666h-167l-135 500l-135 -500h-167l-184 666h168l103 -462l124 462h182zM671 724h-135l-37 52l-37 -52h-135l93 124h158z" />
    <glyph glyph-name="wcircumflex" unicode="&#x175;" horiz-adv-x="804" 
d="M510 0l-108 313l-108 -313h-150l-139 490h153l69 -295l100 295h150l100 -295l69 295h153l-139 -490h-150zM582 559h-132l-48 82l-48 -82h-132l109 169h142z" />
    <glyph glyph-name="Ycircumflex" unicode="&#x176;" horiz-adv-x="592" 
d="M378 242v-242h-164v242l-219 424h175l126 -280l126 280h175zM468 724h-135l-37 52l-37 -52h-135l93 124h158z" />
    <glyph glyph-name="ycircumflex" unicode="&#x177;" horiz-adv-x="506" 
d="M113 -206l64 194l-177 502h166l90 -349l89 349h161l-232 -696h-161zM438 559h-132l-48 82l-48 -82h-132l109 169h142z" />
    <glyph glyph-name="Ydieresis" unicode="&#x178;" horiz-adv-x="592" 
d="M378 242v-242h-164v242l-219 424h175l126 -280l126 280h175zM113 790q0 30 20.5 50.5t54.5 20.5t54.5 -20.5t20.5 -50.5q0 -31 -20.5 -51t-54.5 -20t-54.5 20t-20.5 51zM328 790q0 30 20.5 50.5t54.5 20.5t54.5 -20.5t20.5 -50.5q0 -31 -20.5 -51t-54.5 -20t-54.5 20
t-20.5 51z" />
    <glyph glyph-name="Zacute" unicode="&#x179;" horiz-adv-x="570" 
d="M56 666h466v-130l-292 -406h302v-130h-484v130l292 406h-284v130zM207 724l75 124h183l-130 -124h-128z" />
    <glyph glyph-name="zacute" unicode="&#x17a;" horiz-adv-x="470" 
d="M44 0v110l199 268h-197v112h375v-111l-198 -267h215v-112h-394zM157 559l73 169h175l-116 -169h-132z" />
    <glyph glyph-name="Zdotaccent" unicode="&#x17b;" horiz-adv-x="570" 
d="M56 666h466v-130l-292 -406h302v-130h-484v130l292 406h-284v130zM198 812q0 38 25 64t65 26t65 -26t25 -64t-25 -64t-65 -26t-65 26t-25 64z" />
    <glyph glyph-name="zdotaccent" unicode="&#x17c;" horiz-adv-x="470" 
d="M44 0v110l199 268h-197v112h375v-111l-198 -267h215v-112h-394zM150 633q0 38 25 64t65 26t65 -26t25 -64t-25 -64t-65 -26t-65 26t-25 64z" />
    <glyph glyph-name="Zcaron" unicode="&#x17d;" horiz-adv-x="570" 
d="M56 666h466v-130l-292 -406h302v-130h-484v130l292 406h-284v130zM375 724h-158l-93 124h135l37 -52l37 52h135z" />
    <glyph glyph-name="zcaron" unicode="&#x17e;" horiz-adv-x="470" 
d="M44 0v110l199 268h-197v112h375v-111l-198 -267h215v-112h-394zM313 559h-142l-109 169h132l48 -82l48 82h132z" />
    <glyph glyph-name="florin" unicode="&#x192;" horiz-adv-x="543" 
d="M106 310v122h95l1 13q9 118 61.5 174.5t153.5 56.5q28 0 51.5 -3t44.5 -11l-13 -117q-10 3 -24 5.5t-30 2.5q-46 0 -63 -26.5t-22 -81.5l-1 -13h107v-122h-118l-10 -118q-5 -56 -16 -113.5t-37.5 -104.5t-71.5 -76.5t-117 -29.5q-24 0 -53 4.5t-49 11.5l17 115
q13 -4 29 -6t30 -2q33 0 53 13.5t31 39.5t16 63.5t9 85.5l10 117h-84z" />
    <glyph glyph-name="clickdental" unicode="&#x1c0;" horiz-adv-x="323" 
d="M95 -250v1000h133v-1000h-133z" />
    <glyph glyph-name="clicklateral" unicode="&#x1c1;" horiz-adv-x="646" 
d="M95 -250v1000h133v-1000h-133zM418 -250v1000h133v-1000h-133z" />
    <glyph glyph-name="clickretroflex" unicode="&#x1c3;" horiz-adv-x="340" 
d="M216 225h-91l-37 234v207h164v-207zM80 82q0 36 23 63t67 27t67 -27t23 -63t-23 -63t-67 -27t-67 27t-23 63z" />
    <glyph glyph-name="DZcaron" unicode="&#x1c4;" horiz-adv-x="1263" 
d="M65 666h203q88 0 161.5 -25t125.5 -69t81 -105.5t29 -133.5t-29 -133.5t-81 -105.5t-125.5 -69t-161.5 -25h-203v666zM278 130q50 0 91 14t70.5 40t45.5 63.5t16 85.5t-16 85.5t-45.5 63.5t-70.5 40t-91 14h-49v-406h49zM749 666h466v-130l-292 -406h302v-130h-484v130
l292 406h-284v130zM1054 716h-142l-109 169h132l48 -82l48 82h132z" />
    <glyph glyph-name="Dzcaron" unicode="&#x1c5;" horiz-adv-x="1214" 
d="M65 666h203q88 0 161.5 -25t125.5 -69t81 -105.5t29 -133.5t-29 -133.5t-81 -105.5t-125.5 -69t-161.5 -25h-203v666zM278 130q50 0 91 14t70.5 40t45.5 63.5t16 85.5t-16 85.5t-45.5 63.5t-70.5 40t-91 14h-49v-406h49zM737 0v110l199 268h-197v112h375v-111l-198 -267
h215v-112h-394zM1005 540h-142l-109 169h132l48 -82l48 82h132z" />
    <glyph glyph-name="dzcaron" unicode="&#x1c6;" horiz-adv-x="1105" 
d="M524 0h-153v62q-23 -33 -59.5 -52.5t-87.5 -19.5q-41 0 -77 17.5t-62.5 50t-41.5 78.5t-15 103q0 64 20.5 113t55 82t80.5 49.5t98 16.5q26 0 46 -3.5t36 -8.5v218h160v-706zM282 113q51 0 82 34v225q-22 8 -57 8q-60 0 -89.5 -37t-29.5 -101q0 -57 22.5 -93t71.5 -36z
M628 0v110l199 268h-197v112h375v-111l-198 -267h215v-112h-394zM896 540h-142l-109 169h132l48 -82l48 82h132z" />
    <glyph glyph-name="LJ" unicode="&#x1c7;" horiz-adv-x="791" 
d="M229 666v-536h245v-130h-409v666h164zM726 159q0 -45 -6 -87.5t-21.5 -84t-42.5 -82t-69 -81.5l-113 89q42 50 65 102t23 117v534h164v-507v0z" />
    <glyph glyph-name="Lj" unicode="&#x1c8;" horiz-adv-x="773" 
d="M229 666v-536h245v-130h-409v666h164zM714 126q0 -50 -6.5 -95t-23 -87.5t-45 -82t-73.5 -77.5l-105 88q22 25 39.5 50.5t29.5 52.5t18 58t6 67v390h160v-364zM544 633q0 38 25 64t65 26t65 -26t25 -64t-25 -64t-65 -26t-65 26t-25 64z" />
    <glyph glyph-name="lj" unicode="&#x1c9;" horiz-adv-x="582" 
d="M213 150q0 -19 8 -29.5t31 -10.5q14 0 34 3l5 -110q-20 -6 -45.5 -9.5t-52.5 -3.5q-40 0 -67 12t-43 32t-23 45.5t-7 52.5v574h160v-556zM523 126q0 -50 -6.5 -95t-23 -87.5t-45 -82t-73.5 -77.5l-105 88q22 25 39.5 50.5t29.5 52.5t18 58t6 67v390h160v-364zM353 633
q0 38 25 64t65 26t65 -26t25 -64t-25 -64t-65 -26t-65 26t-25 64z" />
    <glyph glyph-name="NJ" unicode="&#x1ca;" horiz-adv-x="1020" 
d="M498 0l-275 397v-397h-158v666h158l275 -397v397h158v-666h-158zM955 159q0 -45 -6 -87.5t-21.5 -84t-42.5 -82t-69 -81.5l-113 89q42 50 65 102t23 117v534h164v-507v0z" />
    <glyph glyph-name="Nj" unicode="&#x1cb;" horiz-adv-x="1002" 
d="M498 0l-275 397v-397h-158v666h158l275 -397v397h158v-666h-158zM943 126q0 -50 -6.5 -95t-23 -87.5t-45 -82t-73.5 -77.5l-105 88q22 25 39.5 50.5t29.5 52.5t18 58t6 67v390h160v-364zM773 633q0 38 25 64t65 26t65 -26t25 -64t-25 -64t-65 -26t-65 26t-25 64z" />
    <glyph glyph-name="nj" unicode="&#x1cc;" horiz-adv-x="864" 
d="M60 0v490h154v-64q23 40 59.5 57t77.5 17q49 0 83 -20.5t55.5 -54.5t31 -78.5t9.5 -93.5v-253h-160v256q0 61 -19 89.5t-58 28.5q-25 0 -43.5 -11t-29.5 -27v-336h-160zM805 126q0 -50 -6.5 -95t-23 -87.5t-45 -82t-73.5 -77.5l-105 88q22 25 39.5 50.5t29.5 52.5t18 58
t6 67v390h160v-364zM635 633q0 38 25 64t65 26t65 -26t25 -64t-25 -64t-65 -26t-65 26t-25 64z" />
    <glyph glyph-name="Acaron" unicode="&#x1cd;" horiz-adv-x="700" 
d="M477 129h-255l-41 -129h-169l248 666h180l248 -666h-169zM264 259h171l-85 281zM421 716h-142l-109 169h132l48 -82l48 82h132z" />
    <glyph glyph-name="acaron" unicode="&#x1ce;" horiz-adv-x="535" 
d="M328 48q-23 -23 -62.5 -40.5t-86.5 -17.5q-33 0 -59 11t-43.5 30t-27 44.5t-9.5 54.5q0 68 42.5 102.5t120.5 40.5q29 2 61.5 3t57.5 2v16q0 80 -89 80q-35 0 -67.5 -8t-59.5 -22l-29 111q35 20 82.5 32.5t103.5 12.5q103 0 161 -53.5t58 -160.5v-286h-154v48zM241 95
q23 0 43.5 6t37.5 16v73q-24 -2 -43 -4.5t-37 -4.5q-49 -6 -49 -46q0 -18 12.5 -29t35.5 -11zM332 550h-142l-109 169h132l48 -82l48 82h132z" />
    <glyph glyph-name="Icaron" unicode="&#x1cf;" horiz-adv-x="304" 
d="M234 0h-164v666h164v-666zM223 716h-142l-109 169h132l48 -82l48 82h132z" />
    <glyph glyph-name="icaron" unicode="&#x1d0;" horiz-adv-x="280" 
d="M60 0v490h160v-490h-160zM211 540h-142l-109 169h132l48 -82l48 82h132z" />
    <glyph glyph-name="Ocaron" unicode="&#x1d1;" horiz-adv-x="748" 
d="M714 333q0 -71 -23 -133.5t-66.5 -109.5t-106.5 -74.5t-144 -27.5t-144.5 27.5t-107 74.5t-66 109.5t-22.5 133.5t22.5 133.5t66 109.5t107 74.5t144.5 27.5t144 -27.5t106.5 -74.5t66.5 -109.5t23 -133.5zM374 118q43 0 76 16t55.5 44.5t33.5 68t11 86.5t-11 86.5
t-33.5 68t-55.5 44.5t-76 16q-44 0 -76.5 -16t-55 -44.5t-33.5 -68t-11 -86.5t11 -86.5t33.5 -68t55 -44.5t76.5 -16zM445 728h-142l-109 169h132l48 -82l48 82h132z" />
    <glyph glyph-name="ocaron" unicode="&#x1d2;" horiz-adv-x="574" 
d="M548 245q0 -54 -17 -100.5t-50 -81t-82 -54t-112 -19.5t-112 19.5t-82 54t-50 81t-17 100.5t17 100.5t50 81t82 54t112 19.5t112 -19.5t82 -54t50 -81t17 -100.5zM388 245q0 26 -5 50.5t-16.5 44t-31 31t-48.5 11.5t-48.5 -11.5t-31 -31t-16.5 -44t-5 -50.5t5 -50.5
t16.5 -44t31 -31t48.5 -11.5t48.5 11.5t31 31t16.5 44t5 50.5zM358 550h-142l-109 169h132l48 -82l48 82h132z" />
    <glyph glyph-name="Ucaron" unicode="&#x1d3;" horiz-adv-x="690" 
d="M463 666h164v-426q0 -118 -74.5 -185t-207.5 -67t-207.5 67t-74.5 185v426h164v-431q0 -57 30 -87t88 -30t88 30t30 87v431zM416 716h-142l-109 169h132l48 -82l48 82h132z" />
    <glyph glyph-name="ucaron" unicode="&#x1d4;" horiz-adv-x="579" 
d="M519 490v-490h-154v64q-28 -42 -63 -58t-74 -16q-49 0 -82.5 20.5t-54 54.5t-29.5 78.5t-9 93.5v253h160v-256q0 -61 17 -89.5t56 -28.5q25 0 43.5 11t29.5 27v336h160zM357 540h-142l-109 169h132l48 -82l48 82h132z" />
    <glyph glyph-name="Udieresismacron" unicode="&#x1d5;" horiz-adv-x="690" 
d="M463 666h164v-426q0 -118 -74.5 -185t-207.5 -67t-207.5 67t-74.5 185v426h164v-431q0 -57 30 -87t88 -30t88 30t30 87v431zM170 791q0 30 20 52.5t55 22.5t55 -22.5t20 -52.5q0 -31 -20 -53t-55 -22t-55 22t-20 53zM370 791q0 30 20 52.5t55 22.5t55 -22.5t20 -52.5
q0 -31 -20 -53t-55 -22t-55 22t-20 53zM188 1037h315v-121h-315v121z" />
    <glyph glyph-name="udieresismacron" unicode="&#x1d6;" horiz-adv-x="579" 
d="M519 490v-490h-154v64q-28 -42 -63 -58t-74 -16q-49 0 -82.5 20.5t-54 54.5t-29.5 78.5t-9 93.5v253h160v-256q0 -61 17 -89.5t56 -28.5q25 0 43.5 11t29.5 27v336h160zM111 615q0 30 20 52.5t55 22.5t55 -22.5t20 -52.5q0 -31 -20 -53t-55 -22t-55 22t-20 53zM311 615
q0 30 20 52.5t55 22.5t55 -22.5t20 -52.5q0 -31 -20 -53t-55 -22t-55 22t-20 53zM129 861h315v-121h-315v121z" />
    <glyph glyph-name="Udieresisacute" unicode="&#x1d7;" horiz-adv-x="690" 
d="M463 666h164v-426q0 -118 -74.5 -185t-207.5 -67t-207.5 67t-74.5 185v426h164v-431q0 -57 30 -87t88 -30t88 30t30 87v431zM170 791q0 30 20 52.5t55 22.5t55 -22.5t20 -52.5q0 -31 -20 -53t-55 -22t-55 22t-20 53zM370 791q0 30 20 52.5t55 22.5t55 -22.5t20 -52.5
q0 -31 -20 -53t-55 -22t-55 22t-20 53zM221 916l73 169h175l-116 -169h-132z" />
    <glyph glyph-name="udieresisacute" unicode="&#x1d8;" horiz-adv-x="579" 
d="M519 490v-490h-154v64q-28 -42 -63 -58t-74 -16q-49 0 -82.5 20.5t-54 54.5t-29.5 78.5t-9 93.5v253h160v-256q0 -61 17 -89.5t56 -28.5q25 0 43.5 11t29.5 27v336h160zM111 615q0 30 20 52.5t55 22.5t55 -22.5t20 -52.5q0 -31 -20 -53t-55 -22t-55 22t-20 53zM311 615
q0 30 20 52.5t55 22.5t55 -22.5t20 -52.5q0 -31 -20 -53t-55 -22t-55 22t-20 53zM162 740l73 169h175l-116 -169h-132z" />
    <glyph glyph-name="Udieresiscaron" unicode="&#x1d9;" horiz-adv-x="690" 
d="M463 666h164v-426q0 -118 -74.5 -185t-207.5 -67t-207.5 67t-74.5 185v426h164v-431q0 -57 30 -87t88 -30t88 30t30 87v431zM170 791q0 30 20 52.5t55 22.5t55 -22.5t20 -52.5q0 -31 -20 -53t-55 -22t-55 22t-20 53zM370 791q0 30 20 52.5t55 22.5t55 -22.5t20 -52.5
q0 -31 -20 -53t-55 -22t-55 22t-20 53zM416 916h-142l-109 169h132l48 -82l48 82h132z" />
    <glyph glyph-name="udieresiscaron" unicode="&#x1da;" horiz-adv-x="579" 
d="M519 490v-490h-154v64q-28 -42 -63 -58t-74 -16q-49 0 -82.5 20.5t-54 54.5t-29.5 78.5t-9 93.5v253h160v-256q0 -61 17 -89.5t56 -28.5q25 0 43.5 11t29.5 27v336h160zM111 615q0 30 20 52.5t55 22.5t55 -22.5t20 -52.5q0 -31 -20 -53t-55 -22t-55 22t-20 53zM311 615
q0 30 20 52.5t55 22.5t55 -22.5t20 -52.5q0 -31 -20 -53t-55 -22t-55 22t-20 53zM357 740h-142l-109 169h132l48 -82l48 82h132z" />
    <glyph glyph-name="Udieresisgrave" unicode="&#x1db;" horiz-adv-x="690" 
d="M463 666h164v-426q0 -118 -74.5 -185t-207.5 -67t-207.5 67t-74.5 185v426h164v-431q0 -57 30 -87t88 -30t88 30t30 87v431zM170 791q0 30 20 52.5t55 22.5t55 -22.5t20 -52.5q0 -31 -20 -53t-55 -22t-55 22t-20 53zM370 791q0 30 20 52.5t55 22.5t55 -22.5t20 -52.5
q0 -31 -20 -53t-55 -22t-55 22t-20 53zM339 916l-116 169h169l76 -169h-129z" />
    <glyph glyph-name="udieresisgrave" unicode="&#x1dc;" horiz-adv-x="579" 
d="M519 490v-490h-154v64q-28 -42 -63 -58t-74 -16q-49 0 -82.5 20.5t-54 54.5t-29.5 78.5t-9 93.5v253h160v-256q0 -61 17 -89.5t56 -28.5q25 0 43.5 11t29.5 27v336h160zM111 615q0 30 20 52.5t55 22.5t55 -22.5t20 -52.5q0 -31 -20 -53t-55 -22t-55 22t-20 53zM311 615
q0 30 20 52.5t55 22.5t55 -22.5t20 -52.5q0 -31 -20 -53t-55 -22t-55 22t-20 53zM280 740l-116 169h169l76 -169h-129z" />
    <glyph glyph-name="Adieresismacron" unicode="&#x1de;" horiz-adv-x="700" 
d="M477 129h-255l-41 -129h-169l248 666h180l248 -666h-169zM264 259h171l-85 281zM175 791q0 30 20 52.5t55 22.5t55 -22.5t20 -52.5q0 -31 -20 -53t-55 -22t-55 22t-20 53zM375 791q0 30 20 52.5t55 22.5t55 -22.5t20 -52.5q0 -31 -20 -53t-55 -22t-55 22t-20 53z
M193 1037h315v-121h-315v121z" />
    <glyph glyph-name="adieresismacron" unicode="&#x1df;" horiz-adv-x="535" 
d="M328 48q-23 -23 -62.5 -40.5t-86.5 -17.5q-33 0 -59 11t-43.5 30t-27 44.5t-9.5 54.5q0 68 42.5 102.5t120.5 40.5q29 2 61.5 3t57.5 2v16q0 80 -89 80q-35 0 -67.5 -8t-59.5 -22l-29 111q35 20 82.5 32.5t103.5 12.5q103 0 161 -53.5t58 -160.5v-286h-154v48zM241 95
q23 0 43.5 6t37.5 16v73q-24 -2 -43 -4.5t-37 -4.5q-49 -6 -49 -46q0 -18 12.5 -29t35.5 -11zM86 625q0 30 20 52.5t55 22.5t55 -22.5t20 -52.5q0 -31 -20 -53t-55 -22t-55 22t-20 53zM286 625q0 30 20 52.5t55 22.5t55 -22.5t20 -52.5q0 -31 -20 -53t-55 -22t-55 22t-20 53
zM104 871h315v-121h-315v121z" />
    <glyph glyph-name="Adotmacron" unicode="&#x1e0;" horiz-adv-x="700" 
d="M477 129h-255l-41 -129h-169l248 666h180l248 -666h-169zM264 259h171l-85 281zM260 806q0 38 25 64t65 26t65 -26t25 -64t-25 -64t-65 -26t-65 26t-25 64zM193 1067h315v-121h-315v121z" />
    <glyph glyph-name="adotmacron" unicode="&#x1e1;" horiz-adv-x="535" 
d="M328 48q-23 -23 -62.5 -40.5t-86.5 -17.5q-33 0 -59 11t-43.5 30t-27 44.5t-9.5 54.5q0 68 42.5 102.5t120.5 40.5q29 2 61.5 3t57.5 2v16q0 80 -89 80q-35 0 -67.5 -8t-59.5 -22l-29 111q35 20 82.5 32.5t103.5 12.5q103 0 161 -53.5t58 -160.5v-286h-154v48zM241 95
q23 0 43.5 6t37.5 16v73q-24 -2 -43 -4.5t-37 -4.5q-49 -6 -49 -46q0 -18 12.5 -29t35.5 -11zM171 640q0 38 25 64t65 26t65 -26t25 -64t-25 -64t-65 -26t-65 26t-25 64zM104 901h315v-121h-315v121z" />
    <glyph glyph-name="AEmacron" unicode="&#x1e2;" horiz-adv-x="894" 
d="M843 536h-288l18 -134h258v-130h-242l19 -142h238v-130h-371l-17 129h-238l-72 -129h-168l390 666h473v-130zM294 259h148l-27 237zM256 837h315v-121h-315v121z" />
    <glyph glyph-name="aemacron" unicode="&#x1e3;" horiz-adv-x="813" 
d="M574 500q99 0 149.5 -57.5t50.5 -155.5q0 -19 -2.5 -41.5t-6.5 -39.5h-279q1 -47 29 -73.5t88 -26.5q35 0 69 9t72 26l26 -107q-40 -21 -88 -32.5t-100 -11.5q-64 0 -111.5 18.5t-80.5 52.5q-38 -32 -85.5 -51.5t-107.5 -19.5q-39 0 -68.5 11t-49 30t-29.5 44.5t-10 54.5
q0 68 42.5 101.5t120.5 41.5q35 4 63.5 6t55.5 4v9q0 38 -19.5 60t-69.5 22q-64 0 -129 -29l-31 114q39 20 82.5 30.5t97.5 10.5q48 0 87 -15.5t68 -50.5q32 32 72.5 49t93.5 17zM565 396q-37 0 -57 -24t-21 -66h141q2 8 2 18q0 32 -16.5 52t-48.5 20zM344 128q-7 17 -11 31
t-7 31l-84 -15q-24 -5 -36.5 -13t-12.5 -27q0 -18 13 -28t35 -10q26 0 51.5 7t51.5 24zM250 671h315v-121h-315v121z" />
    <glyph glyph-name="Gcaron" unicode="&#x1e6;" horiz-adv-x="694" 
d="M400 678q130 0 218 -41l-22 -124q-86 34 -180 34q-50 0 -90 -13t-68.5 -40.5t-44 -70t-15.5 -101.5q0 -104 54.5 -157t160.5 -53q23 0 44 3.5t35 8.5v186h147v-274q-43 -21 -109.5 -34.5t-138.5 -13.5q-84 0 -150 24.5t-112 68.5t-70.5 105.5t-24.5 136.5
q0 80 24.5 145.5t71.5 112t115 72t155 25.5zM407 728h-142l-109 169h132l48 -82l48 82h132z" />
    <glyph glyph-name="gcaron" unicode="&#x1e7;" horiz-adv-x="528" 
d="M516 490v-102h-72l-1 1q11 -30 11 -58q0 -34 -13.5 -64t-40 -52.5t-66 -35.5t-91.5 -13h-6q-4 -7 -6.5 -13.5t-2.5 -14.5q0 -14 10.5 -20.5t26.5 -7.5l86 -5q74 -5 118.5 -38.5t44.5 -99.5q0 -46 -24.5 -80.5t-65 -57t-91.5 -34t-104 -11.5q-42 0 -81.5 6t-70.5 20.5
t-50 38.5t-19 59q0 23 10 40.5t27 30.5t39 22t45 14q-44 22 -44 67q0 19 7.5 34t18.5 26.5t24.5 20t25.5 13.5q-64 17 -96.5 58.5t-32.5 96.5q0 36 13.5 66.5t40 53.5t66 36t91.5 13q22 0 41.5 -2.5t36.5 -7.5h195zM196 -2q-12 -9 -25 -22t-13 -34q0 -28 23.5 -41t65.5 -13
q22 0 43.5 4.5t38.5 13t27 20t10 26.5q0 18 -12.5 26t-39.5 10zM243 264q35 0 53 18.5t18 50.5t-18 50.5t-53 18.5t-53 -18.5t-18 -50.5t18 -50.5t53 -18.5zM333 550h-142l-109 169h132l48 -82l48 82h132z" />
    <glyph glyph-name="Kcaron" unicode="&#x1e8;" horiz-adv-x="640" 
d="M65 0v666h164v-319l210 319h185l-225 -329l241 -337h-197l-214 326v-326h-164zM423 716h-142l-109 169h132l48 -82l48 82h132z" />
    <glyph glyph-name="kcaron" unicode="&#x1e9;" horiz-adv-x="563" 
d="M60 0v706h160v-445l147 229h173l-158 -241l179 -249h-183l-158 237v-237h-160zM381 756h-142l-109 169h132l48 -82l48 82h132z" />
    <glyph glyph-name="Oogonek" unicode="&#x1ea;" horiz-adv-x="748" 
d="M714 333q0 -71 -23 -133.5t-66.5 -109.5t-106.5 -74.5t-144 -27.5t-144.5 27.5t-107 74.5t-66 109.5t-22.5 133.5t22.5 133.5t66 109.5t107 74.5t144.5 27.5t144 -27.5t106.5 -74.5t66.5 -109.5t23 -133.5zM374 118q43 0 76 16t55.5 44.5t33.5 68t11 86.5t-11 86.5
t-33.5 68t-55.5 44.5t-76 16q-44 0 -76.5 -16t-55 -44.5t-33.5 -68t-11 -86.5t11 -86.5t33.5 -68t55 -44.5t76.5 -16zM484 -208q-17 -8 -43.5 -14t-55.5 -6q-55 0 -87.5 27t-32.5 73q0 39 20.5 66.5t46.5 49.5h101q-11 -19 -21.5 -40t-10.5 -44q0 -22 12.5 -34t32.5 -12
q17 0 28 4z" />
    <glyph glyph-name="oogonek" unicode="&#x1eb;" horiz-adv-x="574" 
d="M548 245q0 -54 -17 -100.5t-50 -81t-82 -54t-112 -19.5t-112 19.5t-82 54t-50 81t-17 100.5t17 100.5t50 81t82 54t112 19.5t112 -19.5t82 -54t50 -81t17 -100.5zM388 245q0 26 -5 50.5t-16.5 44t-31 31t-48.5 11.5t-48.5 -11.5t-31 -31t-16.5 -44t-5 -50.5t5 -50.5
t16.5 -44t31 -31t48.5 -11.5t48.5 11.5t31 31t16.5 44t5 50.5zM397 -206q-17 -8 -43.5 -14t-55.5 -6q-55 0 -87.5 27t-32.5 73q0 39 20.5 66.5t46.5 49.5h101q-11 -19 -21.5 -40t-10.5 -44q0 -22 12.5 -34t32.5 -12q17 0 28 4z" />
    <glyph glyph-name="Oogonekmacron" unicode="&#x1ec;" horiz-adv-x="748" 
d="M714 333q0 -71 -23 -133.5t-66.5 -109.5t-106.5 -74.5t-144 -27.5t-144.5 27.5t-107 74.5t-66 109.5t-22.5 133.5t22.5 133.5t66 109.5t107 74.5t144.5 27.5t144 -27.5t106.5 -74.5t66.5 -109.5t23 -133.5zM374 118q43 0 76 16t55.5 44.5t33.5 68t11 86.5t-11 86.5
t-33.5 68t-55.5 44.5t-76 16q-44 0 -76.5 -16t-55 -44.5t-33.5 -68t-11 -86.5t11 -86.5t33.5 -68t55 -44.5t76.5 -16zM484 -208q-17 -8 -43.5 -14t-55.5 -6q-55 0 -87.5 27t-32.5 73q0 39 20.5 66.5t46.5 49.5h101q-11 -19 -21.5 -40t-10.5 -44q0 -22 12.5 -34t32.5 -12
q17 0 28 4zM217 849h315v-121h-315v121z" />
    <glyph glyph-name="oogonekmacron" unicode="&#x1ed;" horiz-adv-x="574" 
d="M548 245q0 -54 -17 -100.5t-50 -81t-82 -54t-112 -19.5t-112 19.5t-82 54t-50 81t-17 100.5t17 100.5t50 81t82 54t112 19.5t112 -19.5t82 -54t50 -81t17 -100.5zM388 245q0 26 -5 50.5t-16.5 44t-31 31t-48.5 11.5t-48.5 -11.5t-31 -31t-16.5 -44t-5 -50.5t5 -50.5
t16.5 -44t31 -31t48.5 -11.5t48.5 11.5t31 31t16.5 44t5 50.5zM397 -206q-17 -8 -43.5 -14t-55.5 -6q-55 0 -87.5 27t-32.5 73q0 39 20.5 66.5t46.5 49.5h101q-11 -19 -21.5 -40t-10.5 -44q0 -22 12.5 -34t32.5 -12q17 0 28 4zM130 671h315v-121h-315v121z" />
    <glyph glyph-name="DZ" unicode="&#x1f1;" horiz-adv-x="1263" 
d="M65 666h203q88 0 161.5 -25t125.5 -69t81 -105.5t29 -133.5t-29 -133.5t-81 -105.5t-125.5 -69t-161.5 -25h-203v666zM278 130q50 0 91 14t70.5 40t45.5 63.5t16 85.5t-16 85.5t-45.5 63.5t-70.5 40t-91 14h-49v-406h49zM749 666h466v-130l-292 -406h302v-130h-484v130
l292 406h-284v130z" />
    <glyph glyph-name="Dz" unicode="&#x1f2;" horiz-adv-x="1163" 
d="M65 666h203q88 0 161.5 -25t125.5 -69t81 -105.5t29 -133.5t-29 -133.5t-81 -105.5t-125.5 -69t-161.5 -25h-203v666zM278 130q50 0 91 14t70.5 40t45.5 63.5t16 85.5t-16 85.5t-45.5 63.5t-70.5 40t-91 14h-49v-406h49zM737 0v110l199 268h-197v112h375v-111l-198 -267
h215v-112h-394z" />
    <glyph glyph-name="dz" unicode="&#x1f3;" horiz-adv-x="1054" 
d="M524 0h-153v62q-23 -33 -59.5 -52.5t-87.5 -19.5q-41 0 -77 17.5t-62.5 50t-41.5 78.5t-15 103q0 64 20.5 113t55 82t80.5 49.5t98 16.5q26 0 46 -3.5t36 -8.5v218h160v-706zM282 113q51 0 82 34v225q-22 8 -57 8q-60 0 -89.5 -37t-29.5 -101q0 -57 22.5 -93t71.5 -36z
M628 0v110l199 268h-197v112h375v-111l-198 -267h215v-112h-394z" />
    <glyph glyph-name="Gacute" unicode="&#x1f4;" horiz-adv-x="694" 
d="M400 678q130 0 218 -41l-22 -124q-86 34 -180 34q-50 0 -90 -13t-68.5 -40.5t-44 -70t-15.5 -101.5q0 -104 54.5 -157t160.5 -53q23 0 44 3.5t35 8.5v186h147v-274q-43 -21 -109.5 -34.5t-138.5 -13.5q-84 0 -150 24.5t-112 68.5t-70.5 105.5t-24.5 136.5
q0 80 24.5 145.5t71.5 112t115 72t155 25.5zM212 728l73 169h175l-116 -169h-132z" />
    <glyph glyph-name="gacute" unicode="&#x1f5;" horiz-adv-x="528" 
d="M516 490v-102h-72l-1 1q11 -30 11 -58q0 -34 -13.5 -64t-40 -52.5t-66 -35.5t-91.5 -13h-6q-4 -7 -6.5 -13.5t-2.5 -14.5q0 -14 10.5 -20.5t26.5 -7.5l86 -5q74 -5 118.5 -38.5t44.5 -99.5q0 -46 -24.5 -80.5t-65 -57t-91.5 -34t-104 -11.5q-42 0 -81.5 6t-70.5 20.5
t-50 38.5t-19 59q0 23 10 40.5t27 30.5t39 22t45 14q-44 22 -44 67q0 19 7.5 34t18.5 26.5t24.5 20t25.5 13.5q-64 17 -96.5 58.5t-32.5 96.5q0 36 13.5 66.5t40 53.5t66 36t91.5 13q22 0 41.5 -2.5t36.5 -7.5h195zM196 -2q-12 -9 -25 -22t-13 -34q0 -28 23.5 -41t65.5 -13
q22 0 43.5 4.5t38.5 13t27 20t10 26.5q0 18 -12.5 26t-39.5 10zM243 264q35 0 53 18.5t18 50.5t-18 50.5t-53 18.5t-53 -18.5t-18 -50.5t18 -50.5t53 -18.5zM138 550l73 169h175l-116 -169h-132z" />
    <glyph glyph-name="Ngrave" unicode="&#x1f8;" horiz-adv-x="721" 
d="M498 0l-275 397v-397h-158v666h158l275 -397v397h158v-666h-158zM354 716l-116 169h169l76 -169h-129z" />
    <glyph glyph-name="ngrave" unicode="&#x1f9;" horiz-adv-x="583" 
d="M60 0v490h154v-64q23 40 59.5 57t77.5 17q49 0 83 -20.5t55.5 -54.5t31 -78.5t9.5 -93.5v-253h-160v256q0 61 -19 89.5t-58 28.5q-25 0 -43.5 -11t-29.5 -27v-336h-160zM289 550l-116 169h169l76 -169h-129z" />
    <glyph glyph-name="Aringacute" unicode="&#x1fa;" horiz-adv-x="700" 
d="M287 848l56 105h159l-84 -105h-131zM459 721q0 -14 -5.5 -29t-13.5 -26l248 -666h-169l-42 129h-255l-41 -129h-169l248 665q-19 25 -19 56q0 19 7 36.5t20.5 31t34 22t47.5 8.5t47.5 -8.5t34 -22t20.5 -31t7 -36.5zM264 259h171l-85 281zM310 722q0 -17 11 -28t29 -11
t29 11t11 28t-11 28.5t-29 11.5t-29 -11.5t-11 -28.5z" />
    <glyph glyph-name="aringacute" unicode="&#x1fb;" horiz-adv-x="535" 
d="M328 48q-23 -23 -62.5 -40.5t-86.5 -17.5q-33 0 -59 11t-43.5 30t-27 44.5t-9.5 54.5q0 68 42.5 102.5t120.5 40.5q29 2 61.5 3t57.5 2v16q0 80 -89 80q-35 0 -67.5 -8t-59.5 -22l-29 111q35 20 82.5 32.5t103.5 12.5q103 0 161 -53.5t58 -160.5v-286h-154v48zM241 95
q23 0 43.5 6t37.5 16v73q-24 -2 -43 -4.5t-37 -4.5q-49 -6 -49 -46q0 -18 12.5 -29t35.5 -11zM379 637q0 -18 -7 -34.5t-20 -30t-33 -21.5t-45 -8q-26 0 -45.5 8t-32.5 21.5t-20 30t-7 34.5t7 35t20 30.5t32.5 21.5t45.5 8q25 0 45 -8t33 -21.5t20 -30.5t7 -35zM238 637
q0 -17 10 -26.5t26 -9.5t26 9.5t10 26.5t-10 26.5t-26 9.5t-26 -9.5t-10 -26.5zM216 773l56 105h157l-84 -105h-129z" />
    <glyph glyph-name="AEacute" unicode="&#x1fc;" horiz-adv-x="894" 
d="M843 536h-288l18 -134h258v-130h-242l19 -142h238v-130h-371l-17 129h-238l-72 -129h-168l390 666h473v-130zM294 259h148l-27 237zM424 724l75 124h183l-130 -124h-128z" />
    <glyph glyph-name="aeacute" unicode="&#x1fd;" horiz-adv-x="813" 
d="M574 500q99 0 149.5 -57.5t50.5 -155.5q0 -19 -2.5 -41.5t-6.5 -39.5h-279q1 -47 29 -73.5t88 -26.5q35 0 69 9t72 26l26 -107q-40 -21 -88 -32.5t-100 -11.5q-64 0 -111.5 18.5t-80.5 52.5q-38 -32 -85.5 -51.5t-107.5 -19.5q-39 0 -68.5 11t-49 30t-29.5 44.5t-10 54.5
q0 68 42.5 101.5t120.5 41.5q35 4 63.5 6t55.5 4v9q0 38 -19.5 60t-69.5 22q-64 0 -129 -29l-31 114q39 20 82.5 30.5t97.5 10.5q48 0 87 -15.5t68 -50.5q32 32 72.5 49t93.5 17zM565 396q-37 0 -57 -24t-21 -66h141q2 8 2 18q0 32 -16.5 52t-48.5 20zM344 128q-7 17 -11 31
t-7 31l-84 -15q-24 -5 -36.5 -13t-12.5 -27q0 -18 13 -28t35 -10q26 0 51.5 7t51.5 24zM322 559l73 169h175l-116 -169h-132z" />
    <glyph glyph-name="Oslashacute" unicode="&#x1fe;" horiz-adv-x="752" 
d="M114 102q-38 46 -58 105t-20 126q0 71 22.5 133.5t66 109.5t107 74.5t144.5 27.5q51 0 95 -11.5t81 -31.5l78 95l86 -71l-78 -95q38 -47 58 -106t20 -125q0 -71 -23 -133.5t-66.5 -109.5t-106.5 -74.5t-144 -27.5q-51 0 -95 11.5t-81 31.5l-78 -95l-86 71zM200 333
q0 -58 17 -106l246 299q-38 22 -87 22q-44 0 -76.5 -16t-55 -44.5t-33.5 -68t-11 -86.5zM376 118q43 0 76 16t55.5 44.5t33.5 68t11 86.5q0 60 -18 105l-245 -299q36 -21 87 -21zM299 724l75 124h183l-130 -124h-128z" />
    <glyph glyph-name="oslashacute" unicode="&#x1ff;" horiz-adv-x="580" 
d="M98 62q-35 35 -52 81.5t-17 101.5q0 54 17 100.5t50 81t82 54t112 19.5q42 0 77 -8.5t64 -24.5l70 85l50 -41l-69 -83q69 -71 69 -183q0 -54 -17 -100.5t-50 -81t-82 -54t-112 -19.5q-83 0 -141 32l-69 -84l-51 40zM189 245q0 -17 1.5 -32.5t6.5 -30.5l150 183
q-23 17 -57 17q-29 0 -48.5 -11.5t-31 -31t-16.5 -44t-5 -50.5zM391 245q0 16 -1.5 32t-6.5 30l-150 -182q23 -17 57 -17q29 0 48.5 11.5t31 31t16.5 44t5 50.5zM213 559l73 169h175l-116 -169h-132z" />
    <glyph glyph-name="Adblgrave" unicode="&#x200;" horiz-adv-x="700" 
d="M477 129h-255l-41 -129h-169l248 666h180l248 -666h-169zM264 259h171l-85 281zM249 716l-107 157h157l70 -157h-120zM437 716l-107 157h157l70 -157h-120z" />
    <glyph glyph-name="adblgrave" unicode="&#x201;" horiz-adv-x="535" 
d="M328 48q-23 -23 -62.5 -40.5t-86.5 -17.5q-33 0 -59 11t-43.5 30t-27 44.5t-9.5 54.5q0 68 42.5 102.5t120.5 40.5q29 2 61.5 3t57.5 2v16q0 80 -89 80q-35 0 -67.5 -8t-59.5 -22l-29 111q35 20 82.5 32.5t103.5 12.5q103 0 161 -53.5t58 -160.5v-286h-154v48zM241 95
q23 0 43.5 6t37.5 16v73q-24 -2 -43 -4.5t-37 -4.5q-49 -6 -49 -46q0 -18 12.5 -29t35.5 -11zM160 550l-107 157h157l70 -157h-120zM348 550l-107 157h157l70 -157h-120z" />
    <glyph glyph-name="Ainvertedbreve" unicode="&#x202;" horiz-adv-x="700" 
d="M477 129h-255l-41 -129h-169l248 666h180l248 -666h-169zM264 259h171l-85 281zM524 864q-11 -72 -58 -110t-116 -38t-116 38t-58 110l103 21q4 -26 20 -47t51 -21q18 0 30.5 5.5t20.5 15t13 22t7 25.5z" />
    <glyph glyph-name="ainvertedbreve" unicode="&#x203;" horiz-adv-x="535" 
d="M328 48q-23 -23 -62.5 -40.5t-86.5 -17.5q-33 0 -59 11t-43.5 30t-27 44.5t-9.5 54.5q0 68 42.5 102.5t120.5 40.5q29 2 61.5 3t57.5 2v16q0 80 -89 80q-35 0 -67.5 -8t-59.5 -22l-29 111q35 20 82.5 32.5t103.5 12.5q103 0 161 -53.5t58 -160.5v-286h-154v48zM241 95
q23 0 43.5 6t37.5 16v73q-24 -2 -43 -4.5t-37 -4.5q-49 -6 -49 -46q0 -18 12.5 -29t35.5 -11zM435 698q-11 -72 -58 -110t-116 -38t-116 38t-58 110l103 21q4 -26 20 -47t51 -21q18 0 30.5 5.5t20.5 15t13 22t7 25.5z" />
    <glyph glyph-name="Edblgrave" unicode="&#x204;" horiz-adv-x="531" 
d="M65 666h415v-130h-251v-134h239v-130h-239v-142h254v-130h-418v666zM173 716l-107 157h157l70 -157h-120zM361 716l-107 157h157l70 -157h-120z" />
    <glyph glyph-name="edblgrave" unicode="&#x205;" horiz-adv-x="516" 
d="M277 500q96 0 152 -56.5t56 -156.5q0 -38 -9 -81h-284q2 -45 30.5 -72.5t87.5 -27.5q36 0 75.5 6.5t68.5 19.5l20 -103q-38 -19 -85.5 -29t-98.5 -10q-64 0 -113 18.5t-82 51.5t-50 79t-17 102q0 60 17.5 108t50 81.5t78.5 51.5t103 18zM272 398q-38 0 -58.5 -24.5
t-20.5 -67.5h142q2 8 2 17q0 32 -17 53.5t-48 21.5zM155 550l-107 157h157l70 -157h-120zM343 550l-107 157h157l70 -157h-120z" />
    <glyph glyph-name="Einvertedbreve" unicode="&#x206;" horiz-adv-x="531" 
d="M65 666h415v-130h-251v-134h239v-130h-239v-142h254v-130h-418v666zM448 864q-11 -72 -58 -110t-116 -38t-116 38t-58 110l103 21q4 -26 20 -47t51 -21q18 0 30.5 5.5t20.5 15t13 22t7 25.5z" />
    <glyph glyph-name="einvertedbreve" unicode="&#x207;" horiz-adv-x="516" 
d="M277 500q96 0 152 -56.5t56 -156.5q0 -38 -9 -81h-284q2 -45 30.5 -72.5t87.5 -27.5q36 0 75.5 6.5t68.5 19.5l20 -103q-38 -19 -85.5 -29t-98.5 -10q-64 0 -113 18.5t-82 51.5t-50 79t-17 102q0 60 17.5 108t50 81.5t78.5 51.5t103 18zM272 398q-38 0 -58.5 -24.5
t-20.5 -67.5h142q2 8 2 17q0 32 -17 53.5t-48 21.5zM430 698q-11 -72 -58 -110t-116 -38t-116 38t-58 110l103 21q4 -26 20 -47t51 -21q18 0 30.5 5.5t20.5 15t13 22t7 25.5z" />
    <glyph glyph-name="Idblgrave" unicode="&#x208;" horiz-adv-x="304" 
d="M234 0h-164v666h164v-666zM51 716l-107 157h157l70 -157h-120zM239 716l-107 157h157l70 -157h-120z" />
    <glyph glyph-name="idblgrave" unicode="&#x209;" horiz-adv-x="280" 
d="M60 0v490h160v-490h-160zM39 540l-107 157h157l70 -157h-120zM227 540l-107 157h157l70 -157h-120z" />
    <glyph glyph-name="Iinvertedbreve" unicode="&#x20a;" horiz-adv-x="304" 
d="M234 0h-164v666h164v-666zM326 864q-11 -72 -58 -110t-116 -38t-116 38t-58 110l103 21q4 -26 20 -47t51 -21q18 0 30.5 5.5t20.5 15t13 22t7 25.5z" />
    <glyph glyph-name="iinvertedbreve" unicode="&#x20b;" horiz-adv-x="280" 
d="M60 0v490h160v-490h-160zM314 688q-11 -72 -58 -110t-116 -38t-116 38t-58 110l103 21q4 -26 20 -47t51 -21q18 0 30.5 5.5t20.5 15t13 22t7 25.5z" />
    <glyph glyph-name="Odblgrave" unicode="&#x20c;" horiz-adv-x="748" 
d="M714 333q0 -71 -23 -133.5t-66.5 -109.5t-106.5 -74.5t-144 -27.5t-144.5 27.5t-107 74.5t-66 109.5t-22.5 133.5t22.5 133.5t66 109.5t107 74.5t144.5 27.5t144 -27.5t106.5 -74.5t66.5 -109.5t23 -133.5zM374 118q43 0 76 16t55.5 44.5t33.5 68t11 86.5t-11 86.5
t-33.5 68t-55.5 44.5t-76 16q-44 0 -76.5 -16t-55 -44.5t-33.5 -68t-11 -86.5t11 -86.5t33.5 -68t55 -44.5t76.5 -16zM273 728l-107 157h157l70 -157h-120zM461 728l-107 157h157l70 -157h-120z" />
    <glyph glyph-name="odblgrave" unicode="&#x20d;" horiz-adv-x="574" 
d="M548 245q0 -54 -17 -100.5t-50 -81t-82 -54t-112 -19.5t-112 19.5t-82 54t-50 81t-17 100.5t17 100.5t50 81t82 54t112 19.5t112 -19.5t82 -54t50 -81t17 -100.5zM388 245q0 26 -5 50.5t-16.5 44t-31 31t-48.5 11.5t-48.5 -11.5t-31 -31t-16.5 -44t-5 -50.5t5 -50.5
t16.5 -44t31 -31t48.5 -11.5t48.5 11.5t31 31t16.5 44t5 50.5zM186 550l-107 157h157l70 -157h-120zM374 550l-107 157h157l70 -157h-120z" />
    <glyph glyph-name="Oinvertedbreve" unicode="&#x20e;" horiz-adv-x="748" 
d="M714 333q0 -71 -23 -133.5t-66.5 -109.5t-106.5 -74.5t-144 -27.5t-144.5 27.5t-107 74.5t-66 109.5t-22.5 133.5t22.5 133.5t66 109.5t107 74.5t144.5 27.5t144 -27.5t106.5 -74.5t66.5 -109.5t23 -133.5zM374 118q43 0 76 16t55.5 44.5t33.5 68t11 86.5t-11 86.5
t-33.5 68t-55.5 44.5t-76 16q-44 0 -76.5 -16t-55 -44.5t-33.5 -68t-11 -86.5t11 -86.5t33.5 -68t55 -44.5t76.5 -16zM548 876q-11 -72 -58 -110t-116 -38t-116 38t-58 110l103 21q4 -26 20 -47t51 -21q18 0 30.5 5.5t20.5 15t13 22t7 25.5z" />
    <glyph glyph-name="oinvertedbreve" unicode="&#x20f;" horiz-adv-x="574" 
d="M548 245q0 -54 -17 -100.5t-50 -81t-82 -54t-112 -19.5t-112 19.5t-82 54t-50 81t-17 100.5t17 100.5t50 81t82 54t112 19.5t112 -19.5t82 -54t50 -81t17 -100.5zM388 245q0 26 -5 50.5t-16.5 44t-31 31t-48.5 11.5t-48.5 -11.5t-31 -31t-16.5 -44t-5 -50.5t5 -50.5
t16.5 -44t31 -31t48.5 -11.5t48.5 11.5t31 31t16.5 44t5 50.5zM461 698q-11 -72 -58 -110t-116 -38t-116 38t-58 110l103 21q4 -26 20 -47t51 -21q18 0 30.5 5.5t20.5 15t13 22t7 25.5z" />
    <glyph glyph-name="Rdblgrave" unicode="&#x210;" horiz-adv-x="639" 
d="M567 455q0 -67 -37.5 -117t-104.5 -76l219 -262h-202l-183 231h-30v-231h-164v666h212q62 0 115 -13t92 -39t61 -65.5t22 -93.5zM409 452q0 45 -35 66.5t-98 21.5h-47v-187h40q66 0 103 26t37 73zM253 716l-107 157h157l70 -157h-120zM441 716l-107 157h157l70 -157h-120
z" />
    <glyph glyph-name="rdblgrave" unicode="&#x211;" horiz-adv-x="379" 
d="M373 352h-19q-95 0 -134 -48v-304h-160v490h155v-82q14 40 43 63t76 23q14 0 23.5 -1.5t19.5 -4.5zM117 544l-107 157h157l70 -157h-120zM305 544l-107 157h157l70 -157h-120z" />
    <glyph glyph-name="Rinvertedbreve" unicode="&#x212;" horiz-adv-x="639" 
d="M567 455q0 -67 -37.5 -117t-104.5 -76l219 -262h-202l-183 231h-30v-231h-164v666h212q62 0 115 -13t92 -39t61 -65.5t22 -93.5zM409 452q0 45 -35 66.5t-98 21.5h-47v-187h40q66 0 103 26t37 73zM528 864q-11 -72 -58 -110t-116 -38t-116 38t-58 110l103 21
q4 -26 20 -47t51 -21q18 0 30.5 5.5t20.5 15t13 22t7 25.5z" />
    <glyph glyph-name="rinvertedbreve" unicode="&#x213;" horiz-adv-x="379" 
d="M373 352h-19q-95 0 -134 -48v-304h-160v490h155v-82q14 40 43 63t76 23q14 0 23.5 -1.5t19.5 -4.5zM392 692q-11 -72 -58 -110t-116 -38t-116 38t-58 110l103 21q4 -26 20 -47t51 -21q18 0 30.5 5.5t20.5 15t13 22t7 25.5z" />
    <glyph glyph-name="Udblgrave" unicode="&#x214;" horiz-adv-x="690" 
d="M463 666h164v-426q0 -118 -74.5 -185t-207.5 -67t-207.5 67t-74.5 185v426h164v-431q0 -57 30 -87t88 -30t88 30t30 87v431zM244 716l-107 157h157l70 -157h-120zM432 716l-107 157h157l70 -157h-120z" />
    <glyph glyph-name="udblgrave" unicode="&#x215;" horiz-adv-x="579" 
d="M519 490v-490h-154v64q-28 -42 -63 -58t-74 -16q-49 0 -82.5 20.5t-54 54.5t-29.5 78.5t-9 93.5v253h160v-256q0 -61 17 -89.5t56 -28.5q25 0 43.5 11t29.5 27v336h160zM185 540l-107 157h157l70 -157h-120zM373 540l-107 157h157l70 -157h-120z" />
    <glyph glyph-name="Uinvertedbreve" unicode="&#x216;" horiz-adv-x="690" 
d="M463 666h164v-426q0 -118 -74.5 -185t-207.5 -67t-207.5 67t-74.5 185v426h164v-431q0 -57 30 -87t88 -30t88 30t30 87v431zM519 864q-11 -72 -58 -110t-116 -38t-116 38t-58 110l103 21q4 -26 20 -47t51 -21q18 0 30.5 5.5t20.5 15t13 22t7 25.5z" />
    <glyph glyph-name="uinvertedbreve" unicode="&#x217;" horiz-adv-x="579" 
d="M519 490v-490h-154v64q-28 -42 -63 -58t-74 -16q-49 0 -82.5 20.5t-54 54.5t-29.5 78.5t-9 93.5v253h160v-256q0 -61 17 -89.5t56 -28.5q25 0 43.5 11t29.5 27v336h160zM460 688q-11 -72 -58 -110t-116 -38t-116 38t-58 110l103 21q4 -26 20 -47t51 -21q18 0 30.5 5.5
t20.5 15t13 22t7 25.5z" />
    <glyph glyph-name="Scommaaccent" unicode="&#x218;" horiz-adv-x="530" 
d="M502 199q0 -44 -17.5 -82.5t-50.5 -67t-80 -45t-107 -16.5q-55 0 -110 12t-102 35l33 125q35 -17 79 -29.5t95 -12.5q42 0 69 15.5t27 50.5q0 25 -23.5 45.5t-85.5 43.5q-98 37 -143 84.5t-45 121.5q0 97 63.5 148t175.5 51q57 0 109 -12.5t88 -32.5l-28 -123
q-35 17 -76.5 27.5t-85.5 10.5q-37 0 -59.5 -12.5t-22.5 -42.5q0 -14 4 -24t14.5 -19t29.5 -18t48 -21q42 -17 79 -36t64 -44t42.5 -57t15.5 -75zM158 -204q14 32 20.5 71.5t7.5 74.5h149q-2 -57 -20 -105.5t-44 -86.5z" />
    <glyph glyph-name="scommaaccent" unicode="&#x219;" horiz-adv-x="435" 
d="M409 160q0 -41 -15.5 -73t-44 -53.5t-67.5 -32.5t-86 -11q-40 0 -84 7.5t-80 22.5l22 111q31 -13 68.5 -19.5t65.5 -6.5q29 0 50.5 8.5t21.5 28.5q0 18 -19 25.5t-57 21.5q-31 11 -58 24.5t-46.5 32t-30.5 42.5t-11 56q0 80 54 118t141 38q46 0 84 -8.5t73 -28.5
l-22 -105q-27 12 -57 19.5t-63 7.5q-29 0 -44.5 -5.5t-15.5 -22.5t18.5 -24.5t47.5 -18.5q22 -8 49 -19.5t50.5 -29.5t39.5 -43.5t16 -61.5zM120 -204q14 32 20.5 71.5t7.5 74.5h149q-2 -57 -20 -105.5t-44 -86.5z" />
    <glyph glyph-name="Hcaron" unicode="&#x21e;" horiz-adv-x="702" 
d="M473 0v271h-244v-271h-164v666h164v-261h244v261h164v-666h-164zM422 716h-142l-109 169h132l48 -82l48 82h132z" />
    <glyph glyph-name="hcaron" unicode="&#x21f;" horiz-adv-x="583" 
d="M60 0v706h160v-274q22 35 57 51.5t74 16.5q49 0 83 -20.5t55.5 -54.5t31 -78.5t9.5 -93.5v-253h-160v256q0 61 -19 89.5t-58 28.5q-25 0 -43.5 -11t-29.5 -27v-336h-160zM366 756h-142l-109 169h132l48 -82l48 82h132z" />
    <glyph glyph-name="Adotaccent" unicode="&#x226;" horiz-adv-x="700" 
d="M477 129h-255l-41 -129h-169l248 666h180l248 -666h-169zM264 259h171l-85 281zM260 806q0 38 25 64t65 26t65 -26t25 -64t-25 -64t-65 -26t-65 26t-25 64z" />
    <glyph glyph-name="adotaccent" unicode="&#x227;" horiz-adv-x="535" 
d="M328 48q-23 -23 -62.5 -40.5t-86.5 -17.5q-33 0 -59 11t-43.5 30t-27 44.5t-9.5 54.5q0 68 42.5 102.5t120.5 40.5q29 2 61.5 3t57.5 2v16q0 80 -89 80q-35 0 -67.5 -8t-59.5 -22l-29 111q35 20 82.5 32.5t103.5 12.5q103 0 161 -53.5t58 -160.5v-286h-154v48zM241 95
q23 0 43.5 6t37.5 16v73q-24 -2 -43 -4.5t-37 -4.5q-49 -6 -49 -46q0 -18 12.5 -29t35.5 -11zM171 640q0 38 25 64t65 26t65 -26t25 -64t-25 -64t-65 -26t-65 26t-25 64z" />
    <glyph glyph-name="Ecedilla" unicode="&#x228;" horiz-adv-x="531" 
d="M65 666h415v-130h-251v-134h239v-130h-239v-142h254v-130h-418v666zM371 -113q0 -25 -14.5 -43.5t-39.5 -31t-57.5 -19.5t-69.5 -9l-12 74q23 2 43 8.5t20 21.5q0 8 -5.5 13.5t-14.5 8.5t-19.5 5t-20.5 3l28 82h80l-11 -43q18 0 34.5 -4t29.5 -12.5t21 -21.5t8 -32z" />
    <glyph glyph-name="ecedilla" unicode="&#x229;" horiz-adv-x="516" 
d="M277 500q96 0 152 -56.5t56 -156.5q0 -38 -9 -81h-284q2 -45 30.5 -72.5t87.5 -27.5q36 0 75.5 6.5t68.5 19.5l20 -103q-38 -19 -85.5 -29t-98.5 -10q-64 0 -113 18.5t-82 51.5t-50 79t-17 102q0 60 17.5 108t50 81.5t78.5 51.5t103 18zM272 398q-38 0 -58.5 -24.5
t-20.5 -67.5h142q2 8 2 17q0 32 -17 53.5t-48 21.5zM353 -123q0 -25 -14.5 -43.5t-39.5 -31t-57.5 -19.5t-69.5 -9l-12 74q23 2 43 8.5t20 21.5q0 8 -5.5 13.5t-14.5 8.5t-19.5 5t-20.5 3l28 82h80l-11 -43q18 0 34.5 -4t29.5 -12.5t21 -21.5t8 -32z" />
    <glyph glyph-name="Odieresismacron" unicode="&#x22a;" horiz-adv-x="748" 
d="M714 333q0 -71 -23 -133.5t-66.5 -109.5t-106.5 -74.5t-144 -27.5t-144.5 27.5t-107 74.5t-66 109.5t-22.5 133.5t22.5 133.5t66 109.5t107 74.5t144.5 27.5t144 -27.5t106.5 -74.5t66.5 -109.5t23 -133.5zM374 118q43 0 76 16t55.5 44.5t33.5 68t11 86.5t-11 86.5
t-33.5 68t-55.5 44.5t-76 16q-44 0 -76.5 -16t-55 -44.5t-33.5 -68t-11 -86.5t11 -86.5t33.5 -68t55 -44.5t76.5 -16zM199 803q0 30 20 52.5t55 22.5t55 -22.5t20 -52.5q0 -31 -20 -53t-55 -22t-55 22t-20 53zM399 803q0 30 20 52.5t55 22.5t55 -22.5t20 -52.5
q0 -31 -20 -53t-55 -22t-55 22t-20 53zM217 1049h315v-121h-315v121z" />
    <glyph glyph-name="odieresismacron" unicode="&#x22b;" horiz-adv-x="574" 
d="M548 245q0 -54 -17 -100.5t-50 -81t-82 -54t-112 -19.5t-112 19.5t-82 54t-50 81t-17 100.5t17 100.5t50 81t82 54t112 19.5t112 -19.5t82 -54t50 -81t17 -100.5zM388 245q0 26 -5 50.5t-16.5 44t-31 31t-48.5 11.5t-48.5 -11.5t-31 -31t-16.5 -44t-5 -50.5t5 -50.5
t16.5 -44t31 -31t48.5 -11.5t48.5 11.5t31 31t16.5 44t5 50.5zM112 625q0 30 20 52.5t55 22.5t55 -22.5t20 -52.5q0 -31 -20 -53t-55 -22t-55 22t-20 53zM312 625q0 30 20 52.5t55 22.5t55 -22.5t20 -52.5q0 -31 -20 -53t-55 -22t-55 22t-20 53zM130 871h315v-121h-315v121z
" />
    <glyph glyph-name="Otildemacron" unicode="&#x22c;" horiz-adv-x="748" 
d="M714 333q0 -71 -23 -133.5t-66.5 -109.5t-106.5 -74.5t-144 -27.5t-144.5 27.5t-107 74.5t-66 109.5t-22.5 133.5t22.5 133.5t66 109.5t107 74.5t144.5 27.5t144 -27.5t106.5 -74.5t66.5 -109.5t23 -133.5zM374 118q43 0 76 16t55.5 44.5t33.5 68t11 86.5t-11 86.5
t-33.5 68t-55.5 44.5t-76 16q-44 0 -76.5 -16t-55 -44.5t-33.5 -68t-11 -86.5t11 -86.5t33.5 -68t55 -44.5t76.5 -16zM447 729q-22 0 -40.5 6.5t-39.5 16.5q-19 8 -33 14.5t-26 6.5q-17 0 -26 -12.5t-19 -32.5l-89 43q12 33 24.5 55t27.5 36t34 20t43 6t43 -7t39 -18
q19 -10 31.5 -14.5t23.5 -4.5q18 0 27.5 11.5t20.5 33.5l86 -44q-14 -30 -27.5 -52t-28 -36t-32 -21t-39.5 -7zM217 1060h315v-121h-315v121z" />
    <glyph glyph-name="otildemacron" unicode="&#x22d;" horiz-adv-x="574" 
d="M548 245q0 -54 -17 -100.5t-50 -81t-82 -54t-112 -19.5t-112 19.5t-82 54t-50 81t-17 100.5t17 100.5t50 81t82 54t112 19.5t112 -19.5t82 -54t50 -81t17 -100.5zM388 245q0 26 -5 50.5t-16.5 44t-31 31t-48.5 11.5t-48.5 -11.5t-31 -31t-16.5 -44t-5 -50.5t5 -50.5
t16.5 -44t31 -31t48.5 -11.5t48.5 11.5t31 31t16.5 44t5 50.5zM360 551q-22 0 -40.5 6.5t-39.5 16.5q-19 8 -33 14.5t-26 6.5q-17 0 -26 -12.5t-19 -32.5l-89 43q12 33 24.5 55t27.5 36t34 20t43 6t43 -7t39 -18q19 -10 31.5 -14.5t23.5 -4.5q18 0 27.5 11.5t20.5 33.5
l86 -44q-14 -30 -27.5 -52t-28 -36t-32 -21t-39.5 -7zM130 882h315v-121h-315v121z" />
    <glyph glyph-name="Odotaccent" unicode="&#x22e;" horiz-adv-x="748" 
d="M714 333q0 -71 -23 -133.5t-66.5 -109.5t-106.5 -74.5t-144 -27.5t-144.5 27.5t-107 74.5t-66 109.5t-22.5 133.5t22.5 133.5t66 109.5t107 74.5t144.5 27.5t144 -27.5t106.5 -74.5t66.5 -109.5t23 -133.5zM374 118q43 0 76 16t55.5 44.5t33.5 68t11 86.5t-11 86.5
t-33.5 68t-55.5 44.5t-76 16q-44 0 -76.5 -16t-55 -44.5t-33.5 -68t-11 -86.5t11 -86.5t33.5 -68t55 -44.5t76.5 -16zM284 818q0 38 25 64t65 26t65 -26t25 -64t-25 -64t-65 -26t-65 26t-25 64z" />
    <glyph glyph-name="odotaccent" unicode="&#x22f;" horiz-adv-x="574" 
d="M548 245q0 -54 -17 -100.5t-50 -81t-82 -54t-112 -19.5t-112 19.5t-82 54t-50 81t-17 100.5t17 100.5t50 81t82 54t112 19.5t112 -19.5t82 -54t50 -81t17 -100.5zM388 245q0 26 -5 50.5t-16.5 44t-31 31t-48.5 11.5t-48.5 -11.5t-31 -31t-16.5 -44t-5 -50.5t5 -50.5
t16.5 -44t31 -31t48.5 -11.5t48.5 11.5t31 31t16.5 44t5 50.5zM197 640q0 38 25 64t65 26t65 -26t25 -64t-25 -64t-65 -26t-65 26t-25 64z" />
    <glyph glyph-name="Odotaccentmacron" unicode="&#x230;" horiz-adv-x="748" 
d="M714 333q0 -71 -23 -133.5t-66.5 -109.5t-106.5 -74.5t-144 -27.5t-144.5 27.5t-107 74.5t-66 109.5t-22.5 133.5t22.5 133.5t66 109.5t107 74.5t144.5 27.5t144 -27.5t106.5 -74.5t66.5 -109.5t23 -133.5zM374 118q43 0 76 16t55.5 44.5t33.5 68t11 86.5t-11 86.5
t-33.5 68t-55.5 44.5t-76 16q-44 0 -76.5 -16t-55 -44.5t-33.5 -68t-11 -86.5t11 -86.5t33.5 -68t55 -44.5t76.5 -16zM284 818q0 38 25 64t65 26t65 -26t25 -64t-25 -64t-65 -26t-65 26t-25 64zM217 1079h315v-121h-315v121z" />
    <glyph glyph-name="odotaccentmacron" unicode="&#x231;" horiz-adv-x="574" 
d="M548 245q0 -54 -17 -100.5t-50 -81t-82 -54t-112 -19.5t-112 19.5t-82 54t-50 81t-17 100.5t17 100.5t50 81t82 54t112 19.5t112 -19.5t82 -54t50 -81t17 -100.5zM388 245q0 26 -5 50.5t-16.5 44t-31 31t-48.5 11.5t-48.5 -11.5t-31 -31t-16.5 -44t-5 -50.5t5 -50.5
t16.5 -44t31 -31t48.5 -11.5t48.5 11.5t31 31t16.5 44t5 50.5zM197 640q0 38 25 64t65 26t65 -26t25 -64t-25 -64t-65 -26t-65 26t-25 64zM130 901h315v-121h-315v121z" />
    <glyph glyph-name="Ymacron" unicode="&#x232;" horiz-adv-x="592" 
d="M378 242v-242h-164v242l-219 424h175l126 -280l126 280h175zM139 837h315v-121h-315v121z" />
    <glyph glyph-name="ymacron" unicode="&#x233;" horiz-adv-x="506" 
d="M113 -206l64 194l-177 502h166l90 -349l89 349h161l-232 -696h-161zM96 661h315v-121h-315v121z" />
    <glyph glyph-name="u0250" unicode="&#x250;" horiz-adv-x="535" 
d="M214 432q23 23 62.5 40.5t86.5 17.5q33 0 59 -11t43.5 -30t27 -44.5t9.5 -54.5q0 -68 -42.5 -102.5t-120.5 -40.5q-29 -2 -61.5 -3t-57.5 -2v-16q0 -80 89 -80q35 0 67.5 8t59.5 22l29 -111q-35 -20 -82.5 -32.5t-103.5 -12.5q-103 0 -161 53.5t-58 160.5v286h154v-48z
M301 385q-23 0 -43.5 -6t-37.5 -16v-73q24 2 43 4.5t37 4.5q49 6 49 46q0 18 -12.5 29t-35.5 11z" />
    <glyph glyph-name="u0251" unicode="&#x251;" horiz-adv-x="584" 
d="M524 0h-153v62q-23 -33 -59.5 -52.5t-87.5 -19.5q-41 0 -77 17.5t-62.5 50t-41.5 78.5t-15 103q0 64 16 113t44.5 82t67 49.5t83.5 16.5q25 0 45 -4.5t35 -12t26 -16.5t19 -17v40h160v-490zM282 113q51 0 82 34v201q-11 16 -31.5 24t-42.5 8q-28 0 -47.5 -11t-31.5 -29.5
t-17.5 -42.5t-5.5 -50q0 -28 5.5 -52.5t17 -42.5t29.5 -28.5t42 -10.5z" />
    <glyph glyph-name="u0252" unicode="&#x252;" horiz-adv-x="584" 
d="M60 490h160v-51q20 23 53 42t84 19q41 0 77.5 -13.5t63.5 -42t42.5 -72.5t15.5 -105q0 -71 -17 -123t-45 -86.5t-64.5 -51t-76.5 -16.5q-46 0 -80 17t-53 43v-50h-160v490zM306 113q42 0 66 37t24 97q0 29 -5.5 53.5t-17.5 42t-31.5 27.5t-47.5 10q-22 0 -42.5 -8
t-31.5 -24v-212q13 -12 35 -17.5t51 -5.5z" />
    <glyph glyph-name="u0253" unicode="&#x253;" horiz-adv-x="580" 
d="M58 479q0 72 18 118t48 72t68.5 36t80.5 10q35 0 70 -6t59 -17l-11 -111q-31 10 -77 10q-43 0 -69.5 -25t-26.5 -83v-31q21 21 50.5 34.5t74.5 13.5q48 0 87 -18.5t66.5 -52t42.5 -79.5t15 -101q0 -53 -17.5 -100.5t-52.5 -82.5t-88 -55.5t-124 -20.5q-60 0 -114.5 13
t-99.5 36v440zM297 378q-45 0 -79 -27v-232q24 -11 57 -11q31 0 54 11t37 30t21 44t7 54q0 60 -23 95.5t-74 35.5z" />
    <glyph glyph-name="u0254" unicode="&#x254;" horiz-adv-x="455" 
d="M164 500q62 0 111.5 -18.5t83.5 -51.5t52 -78.5t18 -99.5q0 -60 -18 -108t-52 -82.5t-83.5 -53t-111.5 -18.5q-38 0 -74.5 8t-63.5 22l16 114q19 -8 45.5 -14t53.5 -6q64 0 96 35t32 96t-32 96t-96 35q-27 0 -53.5 -6t-45.5 -14l-16 114q27 14 63.5 22t74.5 8z" />
    <glyph glyph-name="u0255" unicode="&#x255;" horiz-adv-x="499" 
d="M291 500q38 0 74.5 -8t63.5 -22l-16 -114q-19 8 -45.5 14t-53.5 6q-64 0 -96 -35t-32 -96q0 -25 4 -42q28 35 65.5 50t85.5 15q40 0 68 -10t45.5 -26.5t25 -38.5t7.5 -46q0 -47 -18.5 -77.5t-47 -48t-63 -24.5t-67.5 -7q-29 0 -56.5 4t-53.5 13q-7 -17 -12 -36t-10 -39
l-69 29q7 40 21 86q-42 34 -63.5 84.5t-21.5 113.5q0 57 18 104t52 80.5t83.5 52t111.5 18.5zM366 148q0 11 -10.5 19t-33.5 8q-26 0 -46 -10t-37 -34q31 -17 75 -17q7 0 16 2t17 6t13.5 10.5t5.5 15.5z" />
    <glyph glyph-name="u0256" unicode="&#x256;" horiz-adv-x="634" 
d="M364 54q-27 -37 -58 -50.5t-82 -13.5q-41 0 -77 17.5t-62.5 50t-41.5 78.5t-15 103q0 64 20.5 113t55 82t80.5 49.5t98 16.5q26 0 46 -3.5t36 -8.5v218h160v-712q0 -27 5 -43.5t13 -25.5t19.5 -12t23.5 -3q11 0 23.5 2.5t25.5 9.5l17 -91q-27 -23 -61 -30t-66 -7
q-81 0 -120.5 49t-39.5 143v68zM282 113q51 0 82 34v225q-22 8 -57 8q-60 0 -89.5 -37t-29.5 -101q0 -57 22.5 -93t71.5 -36z" />
    <glyph glyph-name="u0257" unicode="&#x257;" horiz-adv-x="674" 
d="M364 488q0 69 15 113t41 69.5t61.5 35t77.5 9.5q35 0 70 -6t59 -17l-11 -111q-31 10 -77 10q-43 0 -59.5 -25t-16.5 -83v-483h-153v62q-23 -33 -59.5 -52.5t-87.5 -19.5q-41 0 -77 17.5t-62.5 50t-41.5 78.5t-15 103q0 64 20.5 113t55 82t80.5 49.5t98 16.5q26 0 46 -3.5
t36 -8.5zM282 113q51 0 82 34v225q-24 8 -57 8q-60 0 -89.5 -37t-29.5 -101q0 -57 22.5 -93t71.5 -36z" />
    <glyph glyph-name="u0258" unicode="&#x258;" horiz-adv-x="516" 
d="M236 500q57 0 103 -18t78.5 -51.5t50 -81.5t17.5 -108q0 -56 -17 -102t-50 -79t-82 -51.5t-113 -18.5q-51 0 -98.5 10t-85.5 29l20 103q29 -13 68.5 -19.5t75.5 -6.5q59 0 87.5 27.5t30.5 72.5h-284q-9 43 -9 81q0 100 56 156.5t152 56.5zM241 398q-31 0 -48 -21.5
t-17 -53.5q0 -9 2 -17h142q0 43 -20.5 67.5t-58.5 24.5z" />
    <glyph glyph-name="u0259" unicode="&#x259;" horiz-adv-x="516" 
d="M236 -10q-96 0 -152 56.5t-56 156.5q0 38 9 81h284q-2 45 -30.5 72.5t-87.5 27.5q-36 0 -75.5 -6.5t-68.5 -19.5l-20 103q38 19 85.5 29t98.5 10q64 0 113 -18.5t82 -51.5t50 -79t17 -102q0 -60 -17.5 -108t-50 -81.5t-78.5 -51.5t-103 -18zM241 92q38 0 58.5 24.5
t20.5 67.5h-142q-2 -8 -2 -17q0 -32 17 -53.5t48 -21.5z" />
    <glyph glyph-name="u025A" unicode="&#x25a;" horiz-adv-x="662" 
d="M208 -10q-37 0 -69 9t-55.5 27t-37 44.5t-13.5 62.5q0 31 11.5 58.5t42.5 52t86 46t142 39.5q-4 11 -11 21t-20 17.5t-33 12t-48 4.5q-36 0 -75.5 -6.5t-68.5 -19.5l-20 103q38 19 85.5 29t98.5 10q91 0 152.5 -32.5t84.5 -92.5l111 35v-50q0 -21 8.5 -34t26.5 -13
q19 0 27.5 12.5t15.5 23.5l43 -41q-8 -15 -17.5 -29t-22 -25.5t-28.5 -18.5t-36 -7q-26 0 -42.5 6.5t-26 18t-14 27t-4.5 33.5l-21 -8q2 -14 3.5 -28t1.5 -28q0 -60 -22 -108t-59.5 -81.5t-88 -51.5t-107.5 -18zM235 86q12 0 27 5.5t28.5 23.5t22.5 50.5t9 86.5
q-77 -25 -109 -49t-32 -62q0 -29 17 -42t37 -13z" />
    <glyph glyph-name="u025B" unicode="&#x25b;" horiz-adv-x="459" 
d="M147 252q-50 11 -71.5 41t-21.5 66q0 39 17.5 66t47 43.5t67.5 24t80 7.5q41 0 76.5 -5.5t77.5 -16.5l-23 -112q-21 10 -54 16t-60 6q-39 0 -63 -11.5t-24 -36.5q0 -23 20 -30.5t52 -7.5h77v-101h-57q-47 0 -62 -13t-15 -37q0 -41 82 -41q13 0 29 2t32.5 5t32 7.5
t26.5 10.5l16 -115q-12 -6 -33.5 -12t-47 -10t-52 -6.5t-47.5 -2.5q-101 0 -155.5 35t-54.5 101q0 48 28 77t80 46v4z" />
    <glyph glyph-name="u025C" unicode="&#x25c;" horiz-adv-x="475" 
d="M53 458q36 22 80.5 32t88.5 10q202 0 202 -131q0 -39 -27 -68t-71 -43q51 -11 80 -39t29 -75q0 -76 -54.5 -115t-152.5 -39q-57 0 -104 13.5t-81 36.5l15 102q41 -21 77.5 -32t72.5 -11q38 0 53.5 14t15.5 36q0 23 -16.5 35t-58.5 12h-74v101h66q38 0 57 11t19 37
q0 23 -16 35t-55 12q-30 0 -63.5 -10t-61.5 -24z" />
    <glyph glyph-name="u025D" unicode="&#x25d;" horiz-adv-x="620" 
d="M53 458q36 22 80 32t89 10q184 0 201 -111l76 23v-50q0 -21 8.5 -34t26.5 -13q19 0 27.5 12.5t15.5 23.5l43 -41q-8 -15 -17.5 -29t-22 -25.5t-28.5 -18.5t-36 -7q-26 0 -42.5 6.5t-26 18t-14 27t-4.5 33.5l-27 -8q-15 -18 -31.5 -28.5t-44.5 -20.5q51 -11 80 -38.5
t29 -75.5q0 -76 -54 -115t-153 -39q-57 0 -104 13.5t-81 36.5l15 102q42 -21 78 -32t72 -11q38 0 53.5 14t15.5 36q0 23 -16.5 35t-58.5 12h-74v101h66q38 0 57 11t19 37q0 23 -16 35t-55 12q-32 0 -63.5 -10t-61.5 -24z" />
    <glyph glyph-name="u025E" unicode="&#x25e;" horiz-adv-x="527" 
d="M291 500q103 0 157 -37t54 -98q0 -29 -9 -49t-24 -33t-33.5 -21t-36.5 -12v-4q45 -6 75 -32t30 -71q0 -44 -19.5 -73t-51 -47t-71.5 -25.5t-82 -7.5q-60 0 -107.5 18.5t-80 52t-49.5 80.5t-17 104q0 58 19 105.5t53.5 80.5t83.5 51t109 18zM274 293q35 0 59 6t24 33
q0 15 -6.5 23.5t-16 13t-20 6t-17.5 1.5q-51 0 -81 -35t-30 -96t29.5 -96t77.5 -35q20 0 37 9t17 36q0 23 -16 32.5t-57 9.5h-50v92h50z" />
    <glyph glyph-name="u025F" unicode="&#x25f;" horiz-adv-x="380" 
d="M279 0q-2 -58 -16.5 -97.5t-39 -63.5t-57.5 -34.5t-71 -10.5q-35 0 -58 6t-47 17l11 111q17 -5 34 -7.5t28 -2.5q10 0 20 1.5t18 8t13 18.5t5 33v21h-92v79h92v411h160v-411h85v-79h-85z" />
    <glyph glyph-name="u0260" unicode="&#x260;" horiz-adv-x="674" 
d="M524 37q0 -62 -17.5 -107.5t-49 -75.5t-75 -45t-95.5 -15q-59 0 -104.5 6t-72.5 17l11 111q20 -3 57.5 -6.5t73.5 -3.5q62 0 87 23t25 59v37q-22 -22 -52.5 -34.5t-72.5 -12.5q-50 0 -89.5 18.5t-66.5 51.5t-41 79t-14 101q0 59 18 107t53.5 82t88.5 52.5t122 18.5
q28 0 54 -3q1 66 16.5 108t41.5 66.5t61 34t76 9.5q35 0 70 -6t59 -17l-11 -111q-31 10 -77 10q-43 0 -59.5 -25t-16.5 -83v-446zM285 112q45 0 79 26v232q-24 11 -56 11q-61 0 -90.5 -38.5t-29.5 -101.5q0 -60 23 -94.5t74 -34.5z" />
    <glyph glyph-name="u0261" unicode="&#x261;" horiz-adv-x="579" 
d="M524 37q0 -62 -17.5 -107.5t-49 -75.5t-75 -45t-95.5 -15q-59 0 -104.5 6t-72.5 17l11 111q20 -3 57.5 -6.5t73.5 -3.5q62 0 87 23t25 59v37q-22 -22 -52.5 -34.5t-72.5 -12.5q-50 0 -89.5 18.5t-66.5 51.5t-41 79t-14 101q0 59 18 107t53.5 82t88.5 52.5t122 18.5
q64 0 115 -12t99 -36v-415zM285 112q45 0 79 26v232q-24 11 -56 11q-61 0 -90.5 -38.5t-29.5 -101.5q0 -60 23 -94.5t74 -34.5z" />
    <glyph glyph-name="u0262" unicode="&#x262;" horiz-adv-x="508" 
d="M295 500q51 0 89 -8t65 -22l-16 -114q-19 8 -47 14t-66 6q-66 0 -100 -36.5t-34 -99.5q0 -26 7.5 -49t22.5 -40t38 -27t53 -10h12v116h149v-195q-37 -20 -80 -32.5t-97 -12.5q-62 0 -111.5 18.5t-83.5 52t-52 80.5t-18 104t19.5 104t54.5 80.5t85 52t110 18.5z" />
    <glyph glyph-name="u0263" unicode="&#x263;" horiz-adv-x="507" 
d="M336 100q24 -37 38 -66.5t21 -53t8.5 -41t1.5 -29.5q0 -21 -8 -43t-25 -40t-45 -30t-68 -12q-80 0 -116 31.5t-36 85.5q0 11 1.5 29t8.5 42.5t20.5 56t37.5 70.5l-176 390h161l105 -253l83 253h161zM292 -88q0 7 -0.5 14t-4.5 17t-11.5 25t-21.5 37q-23 -32 -31 -53.5
t-8 -39.5q0 -14 8 -26t31 -12q22 0 30 11.5t8 26.5z" />
    <glyph glyph-name="u0264" unicode="&#x264;" horiz-adv-x="520" 
d="M258 63q17 0 27.5 10.5t10.5 29.5q0 21 -11 40t-29 39q-17 -21 -26 -39.5t-9 -37.5q0 -42 37 -42zM341 263q29 -33 50 -66.5t21 -76.5q0 -35 -12 -61t-32.5 -43.5t-48.5 -26.5t-59 -9q-78 0 -117 35.5t-39 95.5q0 18 3.5 34t11 33.5t20.5 38t33 46.5l-171 227h161
l94 -141l95 141h161z" />
    <glyph glyph-name="u0265" unicode="&#x265;" horiz-adv-x="554" 
d="M499 480v-706h-160v274q-22 -35 -57 -51.5t-74 -16.5q-49 0 -83 20.5t-55.5 54.5t-31 78.5t-9.5 93.5v253h160v-256q0 -61 19 -89.5t58 -28.5q25 0 43.5 11t29.5 27v336h160z" />
    <glyph glyph-name="u0266" unicode="&#x266;" horiz-adv-x="583" 
d="M220 432q22 35 57 51.5t74 16.5q49 0 83 -20.5t55.5 -54.5t31 -78.5t9.5 -93.5v-253h-160v256q0 61 -19 89.5t-58 28.5q-25 0 -43.5 -11t-29.5 -27v-336h-160v481q0 63 16.5 107t46 72.5t68.5 41.5t84 13q35 0 70 -6t59 -17l-11 -111q-33 10 -77 10q-51 0 -73.5 -24
t-22.5 -75v-60z" />
    <glyph glyph-name="u0267" unicode="&#x267;" horiz-adv-x="583" 
d="M314 -82q10 0 20 1.5t18 8t13 18.5t5 33v277q0 61 -19 89.5t-58 28.5q-25 0 -43.5 -11t-29.5 -27v-336h-160v481q0 63 16.5 107t46 72.5t68.5 41.5t84 13q35 0 70 -6t59 -17l-11 -111q-33 10 -77 10q-51 0 -73.5 -24t-22.5 -75v-60q22 35 57 51.5t74 16.5q49 0 83 -20.5
t55.5 -54.5t31 -78.5t9.5 -93.5v-219q0 -120 -49 -180t-135 -60q-35 0 -58 6t-47 17l11 111q17 -5 34 -7.5t28 -2.5z" />
    <glyph glyph-name="u0268" unicode="&#x268;" horiz-adv-x="280" 
d="M60 0v225h-51v79h51v186h160v-186h51v-79h-51v-225h-160zM50 633q0 38 25 64t65 26t65 -26t25 -64t-25 -64t-65 -26t-65 26t-25 64z" />
    <glyph glyph-name="u0269" unicode="&#x269;" horiz-adv-x="318" 
d="M220 150q0 -19 8 -29.5t31 -10.5q14 0 34 3l5 -110q-20 -6 -45.5 -9.5t-52.5 -3.5q-40 0 -67 12t-43 32t-23 45.5t-7 52.5v358h160v-340z" />
    <glyph glyph-name="u026A" unicode="&#x26a;" horiz-adv-x="280" 
d="M263 490v-74h-43v-342h43v-74h-246v74h43v342h-43v74h246z" />
    <glyph glyph-name="u026B" unicode="&#x26b;" horiz-adv-x="429" 
d="M321 286q-16 0 -31 3v-289h-160v341q-4 0 -7 0.5t-6 0.5q-16 0 -32 -9.5t-26 -46.5l-59 41q8 45 34.5 73.5t64.5 28.5q14 0 31 -3v280h160v-330q10 -3 19 -3q8 0 16 1.5t15.5 7.5t14.5 17t12 30l59 -41q-5 -25 -16.5 -44t-26 -32t-31 -19.5t-31.5 -6.5z" />
    <glyph glyph-name="u026C" unicode="&#x26c;" horiz-adv-x="448" 
d="M359 315h69v-72h-69v-243h-160v243h-36q-51 0 -82.5 10t-49.5 26t-24 36.5t-6 40.5q0 18 5.5 36t17.5 32t32.5 23t50.5 9q25 0 51.5 -13t40.5 -35v298h160v-391zM91 356q0 -9 4.5 -17t16.5 -13t33 -8t54 -3q-7 13 -15 26t-17.5 23t-20.5 16.5t-24 6.5t-22 -7.5t-9 -23.5z
" />
    <glyph glyph-name="u026D" unicode="&#x26d;" horiz-adv-x="332" 
d="M220 -21q0 -21 5 -33t13 -18.5t18 -8t20 -1.5q11 0 28 2.5t34 7.5l11 -111q-24 -11 -47 -17t-58 -6q-44 0 -78 10.5t-57.5 35t-36 64t-12.5 97.5v705h160v-727z" />
    <glyph glyph-name="u026E" unicode="&#x26e;" horiz-adv-x="651" 
d="M60 0v706h160v-216h361v-104l-142 -169q36 -6 68.5 -19.5t57.5 -37t40 -58t15 -82.5q0 -51 -18 -94t-50.5 -74.5t-78 -49t-101.5 -17.5q-57 0 -99 9.5t-74 23.5l23 109q33 -17 60.5 -22.5t55.5 -5.5q23 0 45 6t39 19.5t27 35t10 51.5q0 29 -11.5 48.5t-31.5 31.5
t-47.5 17.5t-60.5 5.5h-35v59l166 190h-219v-363h-160z" />
    <glyph glyph-name="u026F" unicode="&#x26f;" horiz-adv-x="879" 
d="M290 116q26 0 46 12t34 28q-4 17 -5.5 39t-1.5 42v253h160v-256q0 -61 15.5 -89.5t54.5 -28.5q25 0 43.5 11t29.5 27v336h160v-490h-154v64q-23 -40 -60.5 -57t-76.5 -17q-48 0 -79.5 19.5t-59.5 63.5q-52 -83 -163 -83q-48 0 -81 20.5t-53.5 54.5t-29.5 78.5t-9 93.5
v253h160v-256q0 -61 15.5 -89.5t54.5 -28.5z" />
    <glyph glyph-name="u0270" unicode="&#x270;" horiz-adv-x="879" 
d="M290 116q26 0 46 12t34 28q-4 17 -5.5 39t-1.5 42v253h160v-256q0 -61 15.5 -89.5t54.5 -28.5q25 0 43.5 11t29.5 27v336h160v-696h-160v270q-12 -22 -28.5 -36.5t-35 -22.5t-38 -11.5t-37.5 -3.5q-42 0 -76 19.5t-55 63.5q-53 -83 -163 -83q-48 0 -81 20.5t-53.5 54.5
t-29.5 78.5t-9 93.5v253h160v-256q0 -61 15.5 -89.5t54.5 -28.5z" />
    <glyph glyph-name="u0271" unicode="&#x271;" horiz-adv-x="879" 
d="M666 256q0 61 -15.5 89.5t-54.5 28.5q-26 0 -46 -12t-34 -28q4 -17 5.5 -39t1.5 -42v-253h-160v256q0 61 -15.5 89.5t-54.5 28.5q-25 0 -43.5 -11t-29.5 -27v-336h-160v490h154v-64q23 40 60.5 57t76.5 17q48 0 79.5 -19.5t59.5 -63.5q52 83 163 83q48 0 81 -20.5
t53.5 -54.5t29.5 -78.5t9 -93.5v-219q0 -120 -49 -180t-135 -60q-35 0 -58 6t-47 17l11 111q17 -5 34 -7.5t28 -2.5q10 0 20 2.5t18 10t13 21t5 36.5v268z" />
    <glyph glyph-name="u0272" unicode="&#x272;" horiz-adv-x="642" 
d="M119 490h154v-64q23 40 59.5 57t77.5 17q49 0 83 -20.5t55.5 -54.5t31 -78.5t9.5 -93.5v-253h-160v256q0 61 -19 89.5t-58 28.5q-25 0 -43.5 -11t-29.5 -27v-323q0 -62 -14 -103.5t-38.5 -67.5t-58.5 -37t-73 -11q-35 0 -58 6t-47 17l11 111q17 -5 34 -7.5t28 -2.5
q10 0 20 1.5t18 8t13 18.5t5 33v511z" />
    <glyph glyph-name="u0273" unicode="&#x273;" horiz-adv-x="643" 
d="M60 0v490h154v-64q23 40 59.5 57t77.5 17q49 0 83 -20.5t55.5 -54.5t31 -78.5t9.5 -93.5v-274q0 -21 5 -33t13 -18.5t18 -8t20 -1.5q11 0 28 2.5t34 7.5l11 -111q-24 -11 -47 -17t-58 -6q-44 0 -78 10.5t-57.5 35t-36 64t-12.5 97.5v255q0 61 -19 89.5t-58 28.5
q-25 0 -43.5 -11t-29.5 -27v-336h-160z" />
    <glyph glyph-name="u0274" unicode="&#x274;" horiz-adv-x="603" 
d="M60 0v490h139l209 -268v268h142v-490h-139l-209 267v-267h-142z" />
    <glyph glyph-name="u0275" unicode="&#x275;" horiz-adv-x="574" 
d="M287 108q48 0 71 28t28 71h-198q5 -42 28 -70.5t71 -28.5zM287 382q-24 0 -41.5 -8.5t-29.5 -22t-19 -30.5t-9 -35h197q-2 19 -9 36.5t-19 30.5t-29 21t-41 8zM548 245q0 -54 -17 -100.5t-50 -81t-82 -54t-112 -19.5t-112 19.5t-82 54t-50 81t-17 100.5t17 100.5t50 81
t82 54t112 19.5t112 -19.5t82 -54t50 -81t17 -100.5z" />
    <glyph glyph-name="u0276" unicode="&#x276;" horiz-adv-x="766" 
d="M728 490v-112h-202v-81h176v-95h-176v-91h204v-111h-360q-17 -5 -41 -7.5t-61 -2.5q-60 0 -105 19.5t-76 54t-46.5 81t-15.5 100.5t17 100.5t50 81t82 54t112 19.5q23 0 46 -2.5t43 -7.5h353zM297 382q-34 0 -56 -11.5t-34.5 -31t-17 -44t-4.5 -50.5t5 -50.5t17.5 -44
t33 -31t51.5 -11.5q25 0 44.5 4.5t29.5 9.5v246q-13 7 -29.5 10.5t-39.5 3.5z" />
    <glyph glyph-name="u0277" unicode="&#x277;" horiz-adv-x="784" 
d="M392 105q-14 -36 -32 -58.5t-40 -35t-48 -17t-55 -4.5q-35 0 -69 13.5t-61 40.5t-44 67.5t-17 93.5q0 69 20.5 117.5t53.5 81.5t74.5 52t83 29t79.5 12.5t63 2.5q59 0 122.5 -13.5t116 -45t86 -84t33.5 -130.5q0 -62 -18 -106.5t-45.5 -73.5t-61.5 -43t-66 -14
q-29 0 -53.5 4.5t-45 17t-38.5 35t-34 58.5h-4zM186 219q0 -30 6 -49.5t15 -31.5t20.5 -16.5t22.5 -4.5q10 0 21 3.5t20 13t15 25.5t6 41v105h160v-105q0 -26 6 -42.5t15.5 -25.5t20.5 -12t20 -3q11 0 22.5 4.5t20.5 16t15 31t6 48.5q0 89 -51.5 127t-154.5 38
q-110 0 -158 -39.5t-48 -123.5z" />
    <glyph glyph-name="u0278" unicode="&#x278;" horiz-adv-x="737" 
d="M558 244q0 63 -30.5 100.5t-88.5 42.5v-294q32 5 54.5 19.5t37 35.5t21 45.5t6.5 50.5zM178 244q0 -56 27 -97.5t92 -53.5v294q-26 -3 -47.5 -14t-37.5 -29.5t-25 -44t-9 -55.5zM297 706h142v-218q58 -5 108.5 -20.5t88.5 -44.5t60 -72.5t22 -103.5q0 -58 -21 -103
t-58.5 -77.5t-88.5 -51t-111 -23.5v-198h-142v199q-56 6 -106.5 22.5t-88.5 46t-61 72t-23 100.5q0 68 25.5 115.5t65.5 77.5t90 44.5t98 16.5v218z" />
    <glyph glyph-name="u0279" unicode="&#x279;" horiz-adv-x="389" 
d="M16 138h19q95 0 134 48v304h160v-490h-155v82q-14 -40 -43 -63t-76 -23q-14 0 -23.5 1.5t-19.5 4.5z" />
    <glyph glyph-name="u027A" unicode="&#x27a;" horiz-adv-x="389" 
d="M16 138h19q95 0 134 48v521h160v-707h-155v82q-14 -40 -43 -63t-76 -23q-14 0 -23.5 1.5t-19.5 4.5z" />
    <glyph glyph-name="u027B" unicode="&#x27b;" horiz-adv-x="441" 
d="M169 82q-9 -40 -38 -63t-76 -23q-14 0 -23.5 1.5t-19.5 4.5v136h23q95 0 134 48v304h160v-496q0 -24 5 -39t13 -23t18 -11t20 -3q11 0 28 2.5t34 7.5l11 -111q-24 -11 -47 -17t-58 -6q-44 0 -78 11.5t-57.5 37.5t-36 68.5t-12.5 104.5v66z" />
    <glyph glyph-name="u027C" unicode="&#x27c;" horiz-adv-x="379" 
d="M373 352h-19q-95 0 -134 -48v-509h-160v695h155v-82q14 40 42.5 63t76.5 23q14 0 24 -1.5t19 -4.5z" />
    <glyph glyph-name="u027D" unicode="&#x27d;" horiz-adv-x="379" 
d="M220 -21q0 -21 5 -33t13 -18.5t18 -8t20 -1.5q11 0 28 2.5t34 7.5l11 -111q-24 -11 -47 -17t-58 -6q-44 0 -78 10.5t-57.5 35t-36 64t-12.5 97.5v489h155v-82q14 40 42.5 63t76.5 23q14 0 24 -1.5t19 -4.5l-4 -136h-19q-95 0 -134 -48v-325z" />
    <glyph glyph-name="u027E" unicode="&#x27e;" horiz-adv-x="361" 
d="M60 281q0 61 14 103t38.5 68t58.5 37t73 11q35 0 58 -6t47 -17l-11 -111q-17 5 -34 7.5t-28 2.5q-10 0 -20 -3t-18 -12t-13 -24.5t-5 -39.5v-297h-160v281z" />
    <glyph glyph-name="u027F" unicode="&#x27f;" horiz-adv-x="389" 
d="M169 -206v481q0 52 -19 76t-67 24q-44 0 -77 -10l-11 111q24 11 59 17t70 6q44 0 81.5 -12.5t65 -39.5t43 -69.5t15.5 -102.5v-481h-160z" />
    <glyph glyph-name="u0280" unicode="&#x280;" horiz-adv-x="541" 
d="M360 0l-112 153h-29v-153h-160v490h232q209 0 209 -158q0 -48 -23 -87.5t-86 -63.5l147 -181h-178zM264 243q39 0 59.5 20.5t20.5 55.5q0 29 -18.5 49t-64.5 20h-42v-145h45z" />
    <glyph glyph-name="u0281" unicode="&#x281;" horiz-adv-x="519" 
d="M503 490l-149 -182q54 -18 82.5 -52.5t28.5 -85.5q0 -88 -54.5 -129t-154.5 -41h-232v490h160v-153h31l110 153h178zM184 247v-135h52q21 0 35 5.5t22.5 14.5t12 20.5t3.5 23.5q0 31 -20.5 51t-59.5 20h-45z" />
    <glyph glyph-name="u0282" unicode="&#x282;" horiz-adv-x="440" 
d="M414 160q0 -41 -15.5 -73t-44 -53.5t-67.5 -32.5t-86 -11q-16 0 -37.5 1t-40.5 4q-1 -5 -1.5 -13t-1 -17t-0.5 -17v-11q0 -24 14 -39t43 -15q21 0 38 2.5t30 8.5v-80q-15 -8 -38 -13.5t-43 -5.5q-75 0 -108 42.5t-33 109.5q0 32 8 83.5t28 100.5q31 -13 68.5 -19.5
t65.5 -6.5q29 0 50.5 8.5t21.5 28.5q0 18 -19 25.5t-57 21.5q-32 11 -58.5 24.5t-46 32t-30.5 42.5t-11 56q0 80 54 118t141 38q46 0 84 -8.5t73 -28.5l-22 -105q-27 12 -57 19.5t-63 7.5q-29 0 -44.5 -5.5t-15.5 -22.5t18.5 -24.5t47.5 -18.5q22 -8 49 -19.5t50.5 -29.5
t39.5 -43.5t16 -61.5z" />
    <glyph glyph-name="u0283" unicode="&#x283;" horiz-adv-x="428" 
d="M290 24q0 -69 -15 -113.5t-41 -70.5t-61.5 -36t-77.5 -10q-35 0 -70 6t-59 17l11 111q31 -10 77 -10q43 0 59.5 25t16.5 83v462q0 69 15 113t41 69.5t61.5 35t77.5 9.5q35 0 70 -6t59 -17l-11 -111q-31 10 -77 10q-43 0 -59.5 -25t-16.5 -83v-459z" />
    <glyph glyph-name="u0284" unicode="&#x284;" horiz-adv-x="428" 
d="M290 79h123v-79h-124q-3 -61 -18.5 -101t-41.5 -63t-60 -32.5t-74 -9.5q-35 0 -70 6t-59 17l11 111q31 -10 77 -10q38 0 56.5 19t19.5 63h-109v79h109v409q0 69 15 113t41 69.5t61.5 35t77.5 9.5q35 0 70 -6t59 -17l-11 -111q-31 10 -77 10q-43 0 -59.5 -25t-16.5 -83
v-404z" />
    <glyph glyph-name="u0285" unicode="&#x285;" horiz-adv-x="428" 
d="M130 268q0 58 -20 83t-56 25q-46 0 -77 -10l-11 111q24 11 59 17t70 6q42 0 77.5 -9.5t61.5 -35t41 -69.5t15 -113v-247q0 -58 16.5 -83t59.5 -25q46 0 77 10l11 -111q-24 -11 -59 -17t-70 -6q-42 0 -77.5 10t-61.5 36t-41 70.5t-15 113.5v244z" />
    <glyph glyph-name="u0286" unicode="&#x286;" horiz-adv-x="548" 
d="M250 488q0 69 15 113t41 69.5t61.5 35t77.5 9.5q35 0 70 -6t59 -17l-11 -111q-31 10 -77 10q-43 0 -59.5 -25t-16.5 -83v-413q0 -66 -21.5 -124.5t-63.5 -92.5q7 -17 14.5 -41.5t10.5 -50.5l-73 -23q-5 20 -10 39t-12 36q-26 -9 -53.5 -13t-56.5 -4q-36 0 -69 7.5t-58 25
t-40 45t-15 67.5q0 58 39 92t103 34q48 0 81 -15t60 -43q4 17 4 42v437zM70 -55q0 -19 14 -28.5t37 -9.5t40.5 7t37.5 21q-17 24 -40.5 35t-44.5 11q-44 0 -44 -36z" />
    <glyph glyph-name="u0287" unicode="&#x287;" horiz-adv-x="389" 
d="M381 0.0302734h-74.9951v-127.992h-159.99v127.992h-140.991v121.992h140.991v191.988q0 28.998 -12.499 45.4971t-45.4971 16.499q-17.999 0 -36.498 -2.5t-35.498 -7.49902l-10.999 110.993q23.998 10.999 58.9961 16.999q34.998 5.99902 69.9961 5.99902
q46.9971 0 79.4951 -14.499t52.9971 -38.9971q20.498 -24.499 29.998 -57.9971q9.49902 -33.498 9.49902 -71.4951v-194.988h74.9951v-121.992z" />
    <glyph glyph-name="u0288" unicode="&#x288;" horiz-adv-x="404" 
d="M8 490h75v128h160v-128h141v-122h-141v-388q0 -29 12.5 -45.5t45.5 -16.5q18 0 36.5 2.5t35.5 7.5l11 -111q-24 -11 -59 -17t-70 -6q-47 0 -79.5 14.5t-53 39t-30 58t-9.5 71.5v391h-75v122z" />
    <glyph glyph-name="u0289" unicode="&#x289;" horiz-adv-x="579" 
d="M519 490v-170h36v-72h-36v-248h-154v64q-28 -42 -63 -58t-74 -16q-49 0 -82.5 20.5t-54 54.5t-29.5 78.5t-9 93.5v11h-35v72h35v170h160v-170h146v170h160zM286 116q25 0 43.5 11t29.5 27v94h-146v-14q0 -61 17 -89.5t56 -28.5z" />
    <glyph glyph-name="u028A" unicode="&#x28a;" horiz-adv-x="578" 
d="M288 -10q-68 0 -117 16t-81.5 43.5t-48 65.5t-15.5 83q0 60 25.5 102.5t83.5 77.5h-89v112h188v-112q-33 -42 -40.5 -77.5t-7.5 -70.5q0 -33 9 -56.5t24 -38t34.5 -21t40.5 -6.5q19 0 36.5 6.5t31 21t21 38t7.5 56.5q0 35 -7.5 70.5t-40.5 77.5v112h188v-112h-97
q60 -28 88.5 -72.5t28.5 -96.5q0 -111 -68.5 -165t-193.5 -54z" />
    <glyph glyph-name="u028B" unicode="&#x28b;" horiz-adv-x="564" 
d="M431 512q27 -17 45 -42t29 -54t15.5 -60.5t4.5 -61.5q0 -53 -13 -107.5t-42.5 -98t-77.5 -71t-118 -27.5q-106 0 -160 48.5t-54 156.5v295h160v-279q0 -32 6 -52t15.5 -31t21.5 -15.5t23 -4.5q33 0 52.5 16t30 40t13.5 51t3 49q0 52 -12 96.5t-53 78.5z" />
    <glyph glyph-name="u028C" unicode="&#x28c;" horiz-adv-x="522" 
d="M343 490l170 -490h-161l-94 344l-94 -344h-161l170 490h170z" />
    <glyph glyph-name="u028D" unicode="&#x28d;" horiz-adv-x="807" 
d="M662 490l139 -490h-153l-69 295l-100 -295h-150l-100 295l-69 -295h-153l139 490h150l108 -313l108 313h150z" />
    <glyph glyph-name="u028E" unicode="&#x28e;" horiz-adv-x="506" 
d="M393 697l-64 -194l177 -502h-166l-90 349l-89 -349h-161l232 696h161z" />
    <glyph glyph-name="u028F" unicode="&#x28f;" horiz-adv-x="505" 
d="M339 490h164l-166 -325v-165h-160v165l-176 325h164l96 -206z" />
    <glyph glyph-name="u0290" unicode="&#x290;" horiz-adv-x="513" 
d="M438 0q-10 -8 -18 -19t-8 -34q0 -24 15.5 -33.5t33.5 -9.5q14 0 30 2.5t25 8.5v-81q-15 -8 -38 -13.5t-51 -5.5q-60 0 -88.5 28.5t-28.5 74.5q0 23 8.5 43.5t20.5 38.5h-295v110l199 268h-197v112h375v-111l-198 -267h215v-112z" />
    <glyph glyph-name="u0291" unicode="&#x291;" horiz-adv-x="555" 
d="M326 0q-11 -28 -21.5 -59t-20.5 -66l-87 19q8 34 16 60t17 46h-186v110l199 268h-197v112h375v-111l-198 -267h54q18 38 37.5 61.5t39.5 37t39 18.5t35 5q55 0 87.5 -26.5t32.5 -78.5q0 -35 -10 -59.5t-29 -40t-45 -22.5t-57 -7h-81zM422 152q-28 0 -51 -40h48
q20 0 27.5 4.5t7.5 13.5q0 13 -9 17.5t-23 4.5z" />
    <glyph glyph-name="u0292" unicode="&#x292;" horiz-adv-x="462" 
d="M28 490h364v-104l-142 -169q36 -6 68.5 -19.5t57.5 -37t40 -58t15 -82.5q0 -51 -18 -94t-50.5 -74.5t-78 -49t-101.5 -17.5q-57 0 -99 9.5t-74 23.5l23 109q33 -17 60.5 -22.5t55.5 -5.5q23 0 45 6t39 19.5t27 35t10 51.5q0 29 -11.5 48.5t-31.5 31.5t-47.5 17.5
t-60.5 5.5h-35v59l157 190h-213v127z" />
    <glyph glyph-name="u0293" unicode="&#x293;" horiz-adv-x="482" 
d="M48 490h364v-104l-142 -169q36 -6 68.5 -19.5t57.5 -37t40 -58t15 -82.5q0 -50 -17 -92t-49 -74q11 -27 16.5 -49.5t9.5 -42.5l-76 -34q-5 23 -10 44.5t-12 33.5q-29 -11 -58 -16.5t-69 -5.5q-30 0 -62.5 6.5t-58.5 22.5t-43 42t-17 65q0 32 11.5 55.5t31 39.5t46.5 23.5
t58 7.5q42 0 79 -9.5t66 -38.5q0 36 -12.5 58.5t-34 35t-50 17.5t-61.5 5h-35v59l163 190h-219v127zM126 -83q0 -12 5.5 -19.5t14.5 -12t19.5 -6t20.5 -1.5q6 0 15.5 1t20 4t20.5 8.5t17 14.5q-17 23 -40 34.5t-49 11.5q-44 0 -44 -35z" />
    <glyph glyph-name="u0294" unicode="&#x294;" horiz-adv-x="470" 
d="M327 276q-15 -15 -28 -31t-22 -35t-14.5 -41.5t-5.5 -52.5v-116h-160v126q0 33 6 60.5t20 53.5t38 54.5t59 64.5q10 10 21 22t20 26.5t14.5 32t5.5 40.5q0 37 -19.5 52t-50.5 15q-36 0 -67 -11.5t-62 -28.5l-46 114q45 29 90 43t101 14q46 0 85.5 -11.5t68 -35
t44.5 -58.5t16 -83q0 -34 -5.5 -59.5t-19 -48.5t-35 -48t-54.5 -58z" />
    <glyph glyph-name="u0295" unicode="&#x295;" horiz-adv-x="470" 
d="M143 276q-33 33 -54.5 58t-35 47.5t-19 45.5t-5.5 53q0 51 16 88.5t44.5 62t68 36t85.5 11.5q56 0 101 -14t90 -43l-46 -114q-31 17 -62 28.5t-67 11.5q-31 0 -50.5 -22.5t-19.5 -54.5q0 -19 5.5 -35t14.5 -29.5t20 -25t21 -21.5q35 -36 58.5 -64.5t38 -54.5t20.5 -53.5
t6 -60.5v-126h-160v116q0 30 -5.5 52.5t-14.5 41.5t-22 35t-28 31z" />
    <glyph glyph-name="u0296" unicode="&#x296;" horiz-adv-x="470" 
d="M150 390q15 15 28 31t22 35t14.5 41.5t5.5 52.5v116h160v-126q0 -33 -6 -60.5t-20 -53.5t-38 -54.5t-59 -64.5q-10 -10 -21 -22t-20 -26.5t-14.5 -32t-5.5 -40.5q0 -32 19.5 -49.5t50.5 -17.5q36 0 67 11.5t62 28.5l46 -114q-45 -29 -90 -43t-101 -14q-46 0 -85.5 11.5
t-68 35t-44.5 58.5t-16 83q0 34 5.5 59.5t19 48.5t35 48t54.5 58z" />
    <glyph glyph-name="u0297" unicode="&#x297;" horiz-adv-x="454" 
d="M291 500q38 0 74.5 -8t63.5 -22l-16 -114q-19 8 -45.5 14t-53.5 6q-32 0 -56 -11t-40 -39t-24 -75t-8 -119q0 -104 31.5 -159.5t95.5 -55.5q27 0 53.5 6t45.5 14l16 -114q-27 -14 -63.5 -22t-74.5 -8q-62 0 -111 18t-83 58t-52 104.5t-18 158.5q0 96 18 165.5t52 114.5
t83.5 66.5t111.5 21.5z" />
    <glyph glyph-name="u0298" unicode="&#x298;" horiz-adv-x="748" 
d="M300 341q0 30 20 52t54 22t54 -22t20 -52t-20 -52t-54 -22t-54 22t-20 52zM714 333q0 -71 -23 -133.5t-66.5 -109.5t-106.5 -74.5t-144 -27.5t-144.5 27.5t-107 74.5t-66 109.5t-22.5 133.5t22.5 133.5t66 109.5t107 74.5t144.5 27.5t144 -27.5t106.5 -74.5t66.5 -109.5
t23 -133.5zM374 118q43 0 76 16t55.5 44.5t33.5 68t11 86.5t-11 86.5t-33.5 68t-55.5 44.5t-76 16q-44 0 -76.5 -16t-55 -44.5t-33.5 -68t-11 -86.5t11 -86.5t33.5 -68t55 -44.5t76.5 -16z" />
    <glyph glyph-name="u0299" unicode="&#x299;" horiz-adv-x="544" 
d="M60 0v490h216q111 0 163.5 -27.5t52.5 -94.5q0 -49 -28.5 -78t-69.5 -40q19 -3 38.5 -10t35.5 -20t26.5 -33t10.5 -49q0 -39 -14 -65.5t-41 -42.5t-65.5 -23t-87.5 -7h-237zM280 105q41 0 54.5 11.5t13.5 35.5q0 26 -16 37.5t-56 11.5h-56v-96h60zM276 293
q37 0 50.5 14.5t13.5 34.5q0 22 -14.5 32.5t-50.5 10.5h-55v-92h56z" />
    <glyph glyph-name="u029A" unicode="&#x29a;" horiz-adv-x="532" 
d="M236 500q130 0 199 -64.5t69 -185.5q0 -59 -19.5 -107t-54.5 -82t-83.5 -52.5t-105.5 -18.5q-41 0 -80 7.5t-69 25.5t-48 47t-18 73q0 45 30 71t75 32v4q-18 3 -36.5 10.5t-33 20t-24 31t-9.5 43.5q0 69 53.5 107t154.5 38zM306 293v-92h-50q-41 0 -57 -9.5t-16 -32.5
q0 -27 17 -36t37 -9q48 0 77.5 35t29.5 96t-30 96t-81 35q-8 0 -18 -1.5t-19.5 -6t-16 -13t-6.5 -23.5q0 -27 24 -33t59 -6h50z" />
    <glyph glyph-name="u029B" unicode="&#x29b;" horiz-adv-x="489" 
d="M295 500q12 0 24 -0.5t23 -1.5q-3 8 -4 19.5t-1 20.5q0 49 30 77.5t81 28.5q38 0 59.5 -5.5t36.5 -13.5v-80q-13 6 -29 8.5t-32 2.5q-35 0 -45.5 -13.5t-10.5 -33.5q0 -11 6.5 -21.5t15.5 -17.5l-16 -114q-19 8 -47 14t-66 6q-66 0 -100 -36.5t-34 -99.5q0 -26 7.5 -49
t22.5 -40t38 -27t53 -10h12v116h149v-195q-37 -20 -80 -32.5t-97 -12.5q-62 0 -111.5 18.5t-83.5 52t-52 80.5t-18 104t19.5 104t54.5 80.5t85 52t110 18.5z" />
    <glyph glyph-name="u029C" unicode="&#x29c;" horiz-adv-x="583" 
d="M60 0v490h160v-187h150v187h160v-490h-160v190h-150v-190h-160z" />
    <glyph glyph-name="u029D" unicode="&#x29d;" horiz-adv-x="466" 
d="M83 -61q0 -19 14 -28.5t37 -9.5t42.5 7.5t31.5 21.5q-17 24 -38.5 34.5t-42.5 10.5q-26 0 -35 -12t-9 -24zM247 490h160v-370q0 -66 -14.5 -124.5t-50.5 -100.5q4 -5 11.5 -16.5t15.5 -26t15 -30t10 -27.5l-67 -33q-11 23 -23.5 41.5t-27.5 36.5q-27 -19 -61.5 -31.5
t-82.5 -12.5q-33 0 -61.5 6.5t-49.5 23t-33 43t-12 67.5q0 57 38.5 91t98.5 34q43 0 76 -15t54 -37q2 10 3 30.5t1 58.5v392zM237 633q0 38 25 64t65 26t65 -26t25 -64t-25 -64t-65 -26t-65 26t-25 64z" />
    <glyph glyph-name="u029E" unicode="&#x29e;" horiz-adv-x="550" 
d="M490 490v-706h-160v445l-147 -229h-173l158 241l-179 249h183l158 -237v237h160z" />
    <glyph glyph-name="u029F" unicode="&#x29f;" horiz-adv-x="414" 
d="M398 0h-338v490h160v-378h178v-112z" />
    <glyph glyph-name="u02A0" unicode="&#x2a0;" horiz-adv-x="674" 
d="M524 -206h-160v243q-22 -22 -52.5 -34.5t-72.5 -12.5q-50 0 -89.5 18.5t-66.5 51.5t-41 79t-14 101q0 59 18 107t53.5 82t88.5 52.5t122 18.5q14 0 27.5 -0.5t26.5 -1.5q1 65 16.5 107t41.5 66.5t61 34t76 9.5q35 0 70 -6t59 -17l-11 -111q-31 10 -77 10q-43 0 -59.5 -25
t-16.5 -83v-689zM285 112q45 0 79 26v232q-24 11 -56 11q-61 0 -90.5 -38.5t-29.5 -101.5q0 -60 23 -94.5t74 -34.5z" />
    <glyph glyph-name="u02A1" unicode="&#x2a1;" horiz-adv-x="470" 
d="M101 205q3 34 18 60t35 47t42.5 38.5t41 36t31 39t12.5 47.5q0 21 -7 35t-18.5 23t-26 12.5t-29.5 3.5q-34 0 -60.5 -9t-57.5 -31l-46 114q45 29 90 43t101 14q46 0 85.5 -14t68 -39.5t44.5 -61.5t16 -81q0 -43 -12 -73t-31 -52.5t-41.5 -39.5t-43 -33.5t-36.5 -35
t-21 -43.5h100v-79h-99v-126h-160v126h-74v79h78z" />
    <glyph glyph-name="u02A2" unicode="&#x2a2;" horiz-adv-x="470" 
d="M447 205v-79h-74v-126h-160v126h-99v79h100q-6 25 -21.5 43.5t-36 35t-43 33.5t-41.5 39.5t-31 52.5t-12 73q0 45 16 81t44.5 61.5t68 39.5t85.5 14q56 0 101 -14t90 -43l-46 -114q-31 22 -57.5 31t-60.5 9q-15 0 -29.5 -3.5t-26 -12.5t-18.5 -23t-7 -35
q0 -27 12.5 -47.5t31 -39t41 -36t42.5 -38.5t35 -47t18 -60h78z" />
    <glyph glyph-name="u02A3" unicode="&#x2a3;" horiz-adv-x="949" 
d="M371 0v62q-23 -33 -59.5 -52.5t-87.5 -19.5q-41 0 -77 17.5t-62.5 50t-41.5 78.5t-15 103q0 64 20.5 113t55 82t80.5 49.5t98 16.5q26 0 46 -3.5t36 -8.5v218h160v-216h376v-111l-198 -267h215v-112h-546zM282 113q51 0 82 34v225q-24 8 -57 8q-60 0 -89.5 -37
t-29.5 -101q0 -57 22.5 -93t71.5 -36zM524 378v-267l198 267h-198z" />
    <glyph glyph-name="u02A4" unicode="&#x2a4;" horiz-adv-x="956" 
d="M524 490h362v-104l-142 -169q36 -6 68.5 -19.5t57.5 -37t40 -58t15 -82.5q0 -51 -18 -94t-50.5 -74.5t-78 -49t-101.5 -17.5q-57 0 -99 9.5t-74 23.5l23 109q33 -17 60.5 -22.5t55.5 -5.5q23 0 45 6t39 19.5t27 35t10 51.5q0 29 -11.5 48.5t-31.5 31.5t-47.5 17.5
t-60.5 5.5h-35v59l166 190h-220v-363h-153v62q-23 -33 -59.5 -52.5t-87.5 -19.5q-41 0 -77 17.5t-62.5 50t-41.5 78.5t-15 103q0 64 20.5 113t55 82t80.5 49.5t98 16.5q26 0 46 -3.5t36 -8.5v218h160v-216zM282 113q51 0 82 34v225q-24 8 -57 8q-60 0 -89.5 -37t-29.5 -101
q0 -57 22.5 -93t71.5 -36z" />
    <glyph glyph-name="u02A5" unicode="&#x2a5;" horiz-adv-x="1034" 
d="M282 113q51 0 82 34v225q-24 8 -57 8q-60 0 -89.5 -37t-29.5 -101q0 -57 22.5 -93t71.5 -36zM524 378v-267l198 267h-198zM371 0v62q-23 -33 -59.5 -52.5t-87.5 -19.5q-41 0 -77 17.5t-62.5 50t-41.5 78.5t-15 103q0 64 20.5 113t55 82t80.5 49.5t98 16.5q26 0 46 -3.5
t36 -8.5v218h160v-216h376v-111l-198 -267h54q18 38 37.5 61.5t39.5 37t39 18.5t35 5q55 0 87.5 -26.5t32.5 -78.5q0 -35 -10 -59.5t-29 -40t-45 -22.5t-57 -7h-81q-11 -28 -21.5 -59t-20.5 -66l-87 19q8 34 16 60t17 46h-338zM901 152q-28 0 -51 -40h48q20 0 27.5 4.5
t7.5 13.5q0 13 -9 17.5t-23 4.5z" />
    <glyph glyph-name="u02A6" unicode="&#x2a6;" horiz-adv-x="719" 
d="M699 160q0 -41 -15.5 -73t-44 -53.5t-67.5 -32.5t-86 -11q-40 0 -84 7.5t-80 22.5l22 111q31 -13 68.5 -19.5t65.5 -6.5q29 0 50.5 8.5t21.5 28.5q0 18 -19 25.5t-57 21.5q-32 11 -58.5 24.5t-46 32t-30.5 42.5t-11 56v12t1 12h-86v-368h-160v368h-75v122h75v128h160
v-128h198q18 5 38.5 7.5t43.5 2.5q46 0 84 -8.5t73 -28.5l-22 -105q-27 12 -57 19.5t-63 7.5q-29 0 -44.5 -5.5t-15.5 -22.5t18.5 -24.5t47.5 -18.5q22 -8 49 -19.5t50.5 -29.5t39.5 -43.5t16 -61.5z" />
    <glyph glyph-name="u02A7" unicode="&#x2a7;" horiz-adv-x="703" 
d="M8 490h75v128h160v-128h141v-122h-141v-192q0 -29 12.5 -45.5t45.5 -16.5q26 0 51.5 5.5t52.5 13.5v355q0 69 15 113t41 69.5t61.5 35t77.5 9.5q35 0 70 -6t59 -17l-11 -111q-31 10 -77 10q-43 0 -59.5 -25t-16.5 -83v-459q0 -69 -15 -113.5t-41 -70.5t-61.5 -36
t-77.5 -10q-35 0 -70 6t-59 17l11 111q31 -10 77 -10q41 0 57.5 23t18.5 75q-35 -12 -71.5 -19t-78.5 -7q-49 0 -82 14.5t-53 39t-28.5 58t-8.5 71.5v195h-75v122z" />
    <glyph glyph-name="u02A8" unicode="&#x2a8;" horiz-adv-x="887" 
d="M414 137q-10 20 -16.5 49.5t-6.5 66.5q0 58 19.5 103.5t54.5 77.5t84.5 49t108.5 17q46 0 81 -8.5t56 -22.5l-13 -107q-26 11 -48.5 15.5t-51.5 4.5q-32 0 -56.5 -9.5t-41.5 -25t-26 -36.5t-9 -44q0 -17 2 -25.5t5 -14.5q28 23 64.5 33t68.5 10q37 0 68.5 -7t55 -22.5
t36.5 -39.5t13 -58q0 -38 -16 -66.5t-44 -48t-64.5 -29t-78.5 -9.5q-58 0 -100 12.5t-84 41.5q-27 -15 -48.5 -25t-43.5 -16.5t-46.5 -9.5t-56.5 -3q-61 0 -99.5 14.5t-60 39t-29.5 58t-8 71.5v195h-75v122h75v128h160v-128h128v-122h-128v-192q0 -29 16.5 -45.5t60.5 -16.5
q26 0 51.5 7.5t42.5 15.5zM679 90q27 0 45 12.5t18 35.5q0 36 -58 36q-23 0 -48 -14.5t-47 -37.5q17 -19 43 -25.5t47 -6.5z" />
    <glyph glyph-name="u02A9" unicode="&#x2a9;" horiz-adv-x="893" 
d="M91 0v368h-76v122h76v14q0 109 57 160.5t151 51.5q24 0 49.5 -3.5t47.5 -12.5l-12 -114q-24 7 -52 7q-38 0 -59.5 -18t-21.5 -64v-21h279v-58q22 35 57 51.5t74 16.5q49 0 83 -20.5t55.5 -54.5t31 -78.5t9.5 -93.5v-219q0 -120 -49 -180t-135 -60q-35 0 -58 6t-47 17
l11 111q17 -5 34 -7.5t28 -2.5q10 0 20 1.5t18 8t13 18.5t5 33v277q0 61 -19 89.5t-58 28.5q-25 0 -43.5 -11t-29.5 -27v-336h-160v368h-119v-368h-160z" />
    <glyph glyph-name="u02AA" unicode="&#x2aa;" horiz-adv-x="641" 
d="M615 160q0 -41 -15.5 -73t-44 -53.5t-67.5 -32.5t-86 -11q-45 0 -95 13t-87 36v-39h-160v706h160v-539q23 -18 48 -30t48.5 -19t44 -10t33.5 -3q29 0 50.5 8.5t21.5 28.5q0 18 -19 25.5t-57 21.5q-32 11 -58.5 24.5t-46 32t-30.5 42.5t-11 56q0 80 54 118t141 38
q46 0 84 -8.5t73 -28.5l-22 -105q-27 12 -57 19.5t-63 7.5q-29 0 -44.5 -5.5t-15.5 -22.5t18.5 -24.5t47.5 -18.5q22 -8 49 -19.5t50.5 -29.5t39.5 -43.5t16 -61.5z" />
    <glyph glyph-name="u02AB" unicode="&#x2ab;" horiz-adv-x="638" 
d="M53 706h160v-216h376v-111l-198 -267h215v-112h-553v706zM213 378v-267l198 267h-198z" />
    <glyph glyph-name="u02AC" unicode="&#x2ac;" horiz-adv-x="441" 
d="M306 467l39 148h84l-86 -254h-72l-57 151l-61 -151h-73l-62 254h73l36 -149l61 149h68zM306 106l39 148h84l-86 -254h-72l-57 151l-61 -151h-73l-62 254h73l36 -149l61 149h68z" />
    <glyph glyph-name="u02AD" unicode="&#x2ad;" horiz-adv-x="554" 
d="M67 615h414v-254h-89v159h-236v-159h-89v254zM67 254h414v-254h-89v159h-236v-159h-89v254z" />
    <glyph glyph-name="u02AE" unicode="&#x2ae;" horiz-adv-x="670" 
d="M610 490v-696h-160v264q-27 -34 -62.5 -51t-93.5 -17q-46 0 -75.5 18.5t-47 45.5t-24.5 58.5t-7 57.5v106q0 20 -3.5 38.5t-12.5 32t-24.5 21.5t-39.5 8q-46 0 -77 -10l-11 111q31 11 63.5 17t77.5 6q41 0 75.5 -10.5t59 -32t38.5 -55.5t14 -81v-87q0 -61 19 -89.5
t58 -28.5q25 0 43.5 11t29.5 27v336h160z" />
    <glyph glyph-name="u02AF" unicode="&#x2af;" horiz-adv-x="722" 
d="M450 490h160v-496q0 -24 5 -39t13 -23t18 -11t20 -3q11 0 28 2.5t34 7.5l11 -111q-24 -11 -47 -17t-58 -6q-44 0 -78 10.5t-57.5 35t-36 64t-12.5 97.5v57q-27 -34 -62.5 -51t-93.5 -17q-46 0 -75.5 18.5t-47 45.5t-24.5 58.5t-7 57.5v106q0 20 -3.5 38.5t-12.5 32
t-24.5 21.5t-39.5 8q-46 0 -77 -10l-11 111q31 11 63.5 17t77.5 6q41 0 75.5 -10.5t59 -32t38.5 -55.5t14 -81v-87q0 -61 19 -89.5t58 -28.5q25 0 43.5 11t29.5 27v336z" />
    <glyph glyph-name="commaturnedmod" unicode="&#x2bb;" horiz-adv-x="288" 
d="M258 649q-32 -63 -46.5 -123t-18.5 -127l-153 15q1 87 32 160t80 132z" />
    <glyph glyph-name="afii57929" unicode="&#x2bc;" horiz-adv-x="288" 
d="M40 456q32 63 46.5 123t18.5 127l153 -15q-1 -87 -32 -160t-80 -132z" />
    <glyph glyph-name="circumflex" unicode="&#x2c6;" horiz-adv-x="560" 
d="M460 559h-132l-48 82l-48 -82h-132l109 169h142z" />
    <glyph glyph-name="caron" unicode="&#x2c7;" horiz-adv-x="560" 
d="M351 559h-142l-109 169h132l48 -82l48 82h132z" />
    <glyph glyph-name="breve" unicode="&#x2d8;" horiz-adv-x="548" 
d="M448 707q-11 -72 -58 -110t-116 -38t-116 38t-58 110l103 21q4 -26 20 -47t51 -21q18 0 30.5 5.5t20.5 15t13 22t7 25.5z" />
    <glyph glyph-name="dotaccent" unicode="&#x2d9;" horiz-adv-x="380" 
d="M100 633q0 38 25 64t65 26t65 -26t25 -64t-25 -64t-65 -26t-65 26t-25 64z" />
    <glyph glyph-name="ring" unicode="&#x2da;" horiz-adv-x="410" 
d="M310 650q0 -18 -7 -34.5t-20 -30t-33 -21.5t-45 -8q-26 0 -45.5 8t-32.5 21.5t-20 30t-7 34.5t7 35t20 30.5t32.5 21.5t45.5 8q25 0 45 -8t33 -21.5t20 -30.5t7 -35zM169 650q0 -17 10 -26.5t26 -9.5t26 9.5t10 26.5t-10 26.5t-26 9.5t-26 -9.5t-10 -26.5z" />
    <glyph glyph-name="ogonek" unicode="&#x2db;" horiz-adv-x="419" 
d="M319 -196q-17 -8 -43.5 -14t-55.5 -6q-55 0 -87.5 27t-32.5 73q0 39 20.5 66.5t46.5 49.5h101q-11 -19 -21.5 -40t-10.5 -44q0 -22 12.5 -34t32.5 -12q17 0 28 4z" />
    <glyph glyph-name="tilde" unicode="&#x2dc;" horiz-adv-x="600" 
d="M373 562q-22 0 -40.5 6.5t-39.5 16.5q-19 8 -33 14.5t-26 6.5q-17 0 -26 -12.5t-19 -32.5l-89 43q12 33 24.5 55t27.5 36t34 20t43 6t43 -7t39 -18q19 -10 31.5 -14.5t23.5 -4.5q18 0 27.5 11.5t20.5 33.5l86 -44q-14 -30 -27.5 -52t-28 -36t-32 -21t-39.5 -7z" />
    <glyph glyph-name="hungarumlaut" unicode="&#x2dd;" horiz-adv-x="602" 
d="M100 559l56 169h146l-87 -169h-115zM300 559l56 169h146l-87 -169h-115z" />
    <glyph glyph-name="uni02EE" unicode="&#x2ee;" horiz-adv-x="516" 
d="M40 456q32 63 46.5 123t18.5 127l153 -15q-1 -87 -32 -160t-80 -132zM268 456q32 63 46.5 123t18.5 127l153 -15q-1 -87 -32 -160t-80 -132z" />
    <glyph glyph-name="gravecmb" unicode="&#x300;" horiz-adv-x="0" 
d="M-329 559l-116 169h169l76 -169h-129z" />
    <glyph glyph-name="acutecmb" unicode="&#x301;" horiz-adv-x="0" 
d="M-448 559l73 169h175l-116 -169h-132z" />
    <glyph glyph-name="circumflexcmb" unicode="&#x302;" horiz-adv-x="0" 
d="M-200 559h-132l-48 82l-48 -82h-132l109 169h142z" />
    <glyph glyph-name="tildecmb" unicode="&#x303;" horiz-adv-x="0" 
d="M-327 562q-22 0 -40.5 6.5t-39.5 16.5q-19 8 -33 14.5t-26 6.5q-17 0 -26 -12.5t-19 -32.5l-89 43q12 33 24.5 55t27.5 36t34 20t43 6t43 -7t39 -18q19 -10 31.5 -14.5t23.5 -4.5q18 0 27.5 11.5t20.5 33.5l86 -44q-14 -30 -27.5 -52t-28 -36t-32 -21t-39.5 -7z" />
    <glyph glyph-name="macroncmb" unicode="&#x304;" horiz-adv-x="0" 
d="M-515 700h315v-121h-315v121z" />
    <glyph glyph-name="brevecmb" unicode="&#x306;" horiz-adv-x="0" 
d="M-200 707q-11 -72 -58 -110t-116 -38t-116 38t-58 110l103 21q4 -26 20 -47t51 -21q18 0 30.5 5.5t20.5 15t13 22t7 25.5z" />
    <glyph glyph-name="dotaccentcmb" unicode="&#x307;" horiz-adv-x="0" 
d="M-380 633q0 38 25 64t65 26t65 -26t25 -64t-25 -64t-65 -26t-65 26t-25 64z" />
    <glyph glyph-name="dieresiscmb" unicode="&#x308;" horiz-adv-x="0" 
d="M-550 642q0 30 20 52.5t55 22.5t55 -22.5t20 -52.5q0 -31 -20 -53t-55 -22t-55 22t-20 53zM-350 642q0 30 20 52.5t55 22.5t55 -22.5t20 -52.5q0 -31 -20 -53t-55 -22t-55 22t-20 53z" />
    <glyph glyph-name="hookabovecmb" unicode="&#x309;" horiz-adv-x="0" 
d="M-85 636q0 -20 -12.5 -35.5t-35 -29.5t-55 -27.5t-72.5 -28.5l-52 49q24 10 45 18.5t36 16.5t24 16t9 17q0 13 -14 19t-36 6q-26 0 -47.5 -5t-43.5 -13l-33 49q31 13 64 19t76 6q31 0 58 -5t46.5 -14.5t31 -24t11.5 -33.5z" />
    <glyph glyph-name="ringcmb" unicode="&#x30a;" horiz-adv-x="0" 
d="M-200 650q0 -18 -7 -34.5t-20 -30t-33 -21.5t-45 -8q-26 0 -45.5 8t-32.5 21.5t-20 30t-7 34.5t7 35t20 30.5t32.5 21.5t45.5 8q25 0 45 -8t33 -21.5t20 -30.5t7 -35zM-341 650q0 -17 10 -26.5t26 -9.5t26 9.5t10 26.5t-10 26.5t-26 9.5t-26 -9.5t-10 -26.5z" />
    <glyph glyph-name="hungarumlautcmb" unicode="&#x30b;" horiz-adv-x="0" 
d="M-602 559l56 169h146l-87 -169h-115zM-402 559l56 169h146l-87 -169h-115z" />
    <glyph glyph-name="caroncmb" unicode="&#x30c;" horiz-adv-x="0" 
d="M-309 559h-142l-109 169h132l48 -82l48 82h132z" />
    <glyph glyph-name="doublegravecmb" unicode="&#x30f;" horiz-adv-x="0" 
d="M-336 571l-107 157h157l70 -157h-120zM-148 571l-107 157h157l70 -157h-120z" />
    <glyph glyph-name="invertedbrevecmb" unicode="&#x311;" horiz-adv-x="0" 
d="M0 707q-11 -72 -58 -110t-116 -38t-116 38t-58 110l103 21q4 -26 20 -47t51 -21q18 0 30.5 5.5t20.5 15t13 22t7 25.5z" />
    <glyph glyph-name="uni0312" unicode="&#x312;" horiz-adv-x="383" 
d="M283 708q-17 -35 -27.5 -72.5t-11.5 -76.5l-144 7q1 59 21 105.5t50 78.5z" />
    <glyph glyph-name="uni0315" unicode="&#x315;" horiz-adv-x="399" 
d="M100 499q20 48 33.5 98.5t18.5 108.5l147 -15q-5 -69 -29.5 -132t-62.5 -115z" />
    <glyph glyph-name="horncmb" unicode="&#x31b;" horiz-adv-x="0" 
d="M-284 542q12 24 20 44.5t14 42t9 45t4 52.5l143 -9q-4 -60 -26.5 -110.5t-71.5 -103.5z" />
    <glyph glyph-name="dotbelowcmb" unicode="&#x323;" horiz-adv-x="0" 
d="M-286 -160q0 36 23 63t67 27t67 -27t23 -63t-23 -63t-67 -27t-67 27t-23 63z" />
    <glyph glyph-name="dieresisbelowcmb" unicode="&#x324;" horiz-adv-x="0" 
d="M-550 -145q0 30 20 52.5t55 22.5t55 -22.5t20 -52.5q0 -31 -20 -53t-55 -22t-55 22t-20 53zM-350 -145q0 30 20 52.5t55 22.5t55 -22.5t20 -52.5q0 -31 -20 -53t-55 -22t-55 22t-20 53z" />
    <glyph glyph-name="ringbelowcmb" unicode="&#x325;" horiz-adv-x="0" 
d="M-221 -158q0 -16 -6 -31.5t-18 -27.5t-30 -19.5t-41 -7.5t-40.5 7.5t-29.5 19.5t-18 27.5t-6 31.5q0 33 24 60.5t70 27.5q47 0 71 -27.5t24 -60.5zM-348 -158q0 -15 9 -24t23 -9t23.5 9t9.5 24q0 16 -9.5 25t-23.5 9t-23 -9t-9 -25z" />
    <glyph glyph-name="uni0326" unicode="&#x326;" horiz-adv-x="377" 
d="M100 -204q14 32 20.5 71.5t7.5 74.5h149q-2 -57 -20 -105.5t-44 -86.5z" />
    <glyph glyph-name="cedillacmb" unicode="&#x327;" horiz-adv-x="0" 
d="M-200 -113q0 -25 -14.5 -43.5t-39.5 -31t-57.5 -19.5t-69.5 -9l-12 74q23 2 43 8.5t20 21.5q0 8 -5.5 13.5t-14.5 8.5t-19.5 5t-20.5 3l28 82h80l-11 -43q18 0 34.5 -4t29.5 -12.5t21 -21.5t8 -32z" />
    <glyph glyph-name="ogonekcmb" unicode="&#x328;" horiz-adv-x="0" 
d="M-200 -196q-17 -8 -43.5 -14t-55.5 -6q-55 0 -87.5 27t-32.5 73q0 39 20.5 66.5t46.5 49.5h101q-11 -19 -21.5 -40t-10.5 -44q0 -22 12.5 -34t32.5 -12q17 0 28 4z" />
    <glyph glyph-name="circumflexbelowcmb" unicode="&#x32d;" horiz-adv-x="0" 
d="M-200 -239h-132l-48 82l-48 -82h-132l109 169h142z" />
    <glyph glyph-name="brevebelowcmb" unicode="&#x32e;" horiz-adv-x="0" 
d="M-200 -91q-11 -72 -58 -110t-116 -38t-116 38t-58 110l103 21q4 -26 20 -47t51 -21q18 0 30.5 5.5t20.5 15t13 22t7 25.5z" />
    <glyph glyph-name="tildebelowcmb" unicode="&#x330;" horiz-adv-x="0" 
d="M-327 -230q-22 0 -40.5 6.5t-39.5 16.5q-19 8 -33 14.5t-26 6.5q-17 0 -26 -12.5t-19 -32.5l-89 43q12 33 24.5 55t27.5 36t34 20t43 6t43 -7t39 -18q19 -10 31.5 -14.5t23.5 -4.5q18 0 27.5 11.5t20.5 33.5l86 -44q-14 -30 -27.5 -52t-28 -36t-32 -21t-39.5 -7z" />
    <glyph glyph-name="macronbelowcmb" unicode="&#x331;" horiz-adv-x="0" 
d="M-515 -70h315v-121h-315v121z" />
    <glyph glyph-name="gravetonecmb" unicode="&#x340;" horiz-adv-x="0" 
d="M-329 559l-116 169h169l76 -169h-129z" />
    <glyph glyph-name="acutetonecmb" unicode="&#x341;" horiz-adv-x="0" 
d="M-448 559l73 169h175l-116 -169h-132z" />
    <glyph glyph-name="dialytikatonoscmb" unicode="&#x344;" horiz-adv-x="0" 
d="M-550 642q0 30 20 52.5t55 22.5t55 -22.5t20 -52.5q0 -31 -20 -53t-55 -22t-55 22t-20 53zM-350 642q0 30 20 52.5t55 22.5t55 -22.5t20 -52.5q0 -31 -20 -53t-55 -22t-55 22t-20 53zM-499 767l73 169h175l-116 -169h-132z" />
    <glyph glyph-name="u0370" unicode="&#x370;" horiz-adv-x="454" 
d="M433 271h-204v-271h-164v666h164v-261h204v-134z" />
    <glyph glyph-name="u0371" unicode="&#x371;" horiz-adv-x="385" 
d="M358 190h-138v-190h-160v490h160v-187h138v-113z" />
    <glyph glyph-name="u0372" unicode="&#x372;" horiz-adv-x="619" 
d="M591 332h-131v204h-73v-536h-164v536h-73v-204h-131v334h572v-334z" />
    <glyph glyph-name="u0373" unicode="&#x373;" horiz-adv-x="602" 
d="M597 490v-279h-130v167h-87v-584h-161v584h-86v-167h-130v279h594z" />
    <glyph glyph-name="u0374" unicode="&#x374;" horiz-adv-x="224" 
d="M-3 498l76 169h169l-116 -169h-129z" />
    <glyph glyph-name="u0375" unicode="&#x375;" horiz-adv-x="257" 
d="M255 80l-76 -169h-169l116 169h129z" />
    <glyph glyph-name="u0376" unicode="&#x376;" horiz-adv-x="711" 
d="M482 0v430l-253 -430h-164v666h164v-421l253 421h164v-666h-164z" />
    <glyph glyph-name="u0377" unicode="&#x377;" horiz-adv-x="634" 
d="M60 0v490h159v-268l166 268h151v-347q1 -14 8 -23q8 -10 31 -10q14 0 34 3l5 -110q-20 -6 -45.5 -9.5t-52.5 -3.5q-40 0 -67 12t-43 32t-23 45.5t-7 52.5v140l-164 -272h-152z" />
    <glyph glyph-name="u037A" unicode="&#x37a;" horiz-adv-x="231" 
d="M226 -174q-9 -11 -22 -18.5t-27 -13t-28 -8t-25 -2.5q-19 0 -36.5 5t-30.5 16.5t-21 30t-8 45.5v79h101v-51q0 -21 9 -29.5t22 -8.5q8 0 16.5 2.5t19.5 10.5z" />
    <glyph glyph-name="u037B" unicode="&#x37b;" horiz-adv-x="455" 
d="M164 500q62 0 111.5 -18.5t83.5 -51.5t52 -78.5t18 -99.5q0 -60 -18 -108t-52 -82.5t-83.5 -53t-111.5 -18.5q-38 0 -74.5 8t-63.5 22l16 114q19 -8 45.5 -14t53.5 -6q64 0 96 35t32 96t-32 96t-96 35q-27 0 -53.5 -6t-45.5 -14l-16 114q27 14 63.5 22t74.5 8z" />
    <glyph glyph-name="u037C" unicode="&#x37c;" horiz-adv-x="454" 
d="M291 500q38 0 74.5 -8t63.5 -22l-16 -114q-19 8 -45.5 14t-53.5 6q-64 0 -96 -35t-32 -96t32 -96t96 -35q27 0 53.5 6t45.5 14l16 -114q-27 -14 -63.5 -22t-74.5 -8q-62 0 -111.5 18.5t-83.5 52t-52 80.5t-18 104t18 104t52 80.5t83.5 52t111.5 18.5zM227.98 276.569
q0 35.333 23.2461 59.5078q23.2451 24.1748 60.4375 24.1748t60.4375 -24.1748t23.2451 -59.5078t-23.2451 -59.5078t-60.4375 -24.1748t-60.4375 24.1748q-23.2461 24.1748 -23.2461 59.5078z" />
    <glyph glyph-name="u037D" unicode="&#x37d;" horiz-adv-x="455" 
d="M164 500q62 0 111.5 -18.5t83.5 -51.5t52 -78.5t18 -99.5q0 -60 -18 -108t-52 -82.5t-83.5 -53t-111.5 -18.5q-38 0 -74.5 8t-63.5 22l16 114q19 -8 45.5 -14t53.5 -6q64 0 96 35t32 96t-32 96t-96 35q-27 0 -53.5 -6t-45.5 -14l-16 114q27 14 63.5 22t74.5 8z
M58.9805 276.569q0 35.333 23.2461 59.5078q23.2451 24.1748 60.4375 24.1748t60.4375 -24.1748t23.2451 -59.5078t-23.2451 -59.5078t-60.4375 -24.1748t-60.4375 24.1748q-23.2461 24.1748 -23.2461 59.5078z" />
    <glyph glyph-name="questiongreek" unicode="&#x37e;" horiz-adv-x="299" 
d="M28 -105q13 32 22 60.5t15 57.5t9.5 61t5.5 71l157 -12q-2 -41 -9 -78t-19.5 -72t-32.5 -70t-47 -71zM66 362q0 36 23 63t67 27t67 -27t23 -63t-23 -63t-67 -27t-67 27t-23 63z" />
    <glyph glyph-name="u0384" unicode="&#x384;" horiz-adv-x="448" 
d="M100 559l73 169h175l-116 -169h-132z" />
    <glyph glyph-name="dialytikatonos" unicode="&#x385;" horiz-adv-x="593" 
d="M39 642q0 30 20 52.5t55 22.5t55 -22.5t20 -52.5q0 -31 -20 -53t-55 -22t-55 22t-20 53zM408 642q0 30 20 52.5t55 22.5t55 -22.5t20 -52.5q0 -31 -20 -53t-55 -22t-55 22t-20 53zM215 607l73 169h155l-116 -169h-112z" />
    <glyph glyph-name="u0386" unicode="&#x386;" horiz-adv-x="770" 
d="M547 129h-255l-41 -129h-169l248 666h180l248 -666h-169zM334 259h171l-85 281zM-6 497l73 169h175l-116 -169h-132z" />
    <glyph glyph-name="anoteleia" unicode="&#x387;" horiz-adv-x="286" 
d="M53 244q0 36 23 63t67 27t67 -27t23 -63t-23 -63t-67 -27t-67 27t-23 63z" />
    <glyph glyph-name="u0388" unicode="&#x388;" horiz-adv-x="732" 
d="M-6 497l73 169h175l-116 -169h-132zM266 666h415v-130h-251v-134h239v-130h-239v-142h254v-130h-418v666z" />
    <glyph glyph-name="u0389" unicode="&#x389;" horiz-adv-x="902" 
d="M673 0v271h-244v-271h-164v666h164v-261h244v261h164v-666h-164zM-6 497l73 169h175l-116 -169h-132z" />
    <glyph glyph-name="u038A" unicode="&#x38a;" horiz-adv-x="499" 
d="M429 0h-164v666h164v-666zM-6 497l73 169h175l-116 -169h-132z" />
    <glyph glyph-name="u038C" unicode="&#x38c;" horiz-adv-x="876" 
d="M842 333q0 -71 -23 -133.5t-66.5 -109.5t-106.5 -74.5t-144 -27.5t-144.5 27.5t-107 74.5t-66 109.5t-22.5 133.5t22.5 133.5t66 109.5t107 74.5t144.5 27.5t144 -27.5t106.5 -74.5t66.5 -109.5t23 -133.5zM502 118q43 0 76 16t55.5 44.5t33.5 68t11 86.5t-11 86.5
t-33.5 68t-55.5 44.5t-76 16q-44 0 -76.5 -16t-55 -44.5t-33.5 -68t-11 -86.5t11 -86.5t33.5 -68t55 -44.5t76.5 -16zM-6 497l73 169h175l-116 -169h-132z" />
    <glyph glyph-name="u038E" unicode="&#x38e;" horiz-adv-x="862" 
d="M648 242v-242h-164v242l-219 424h175l126 -280l126 280h175zM-6 497l73 169h175l-116 -169h-132z" />
    <glyph glyph-name="u038F" unicode="&#x38f;" horiz-adv-x="929" 
d="M879 377q0 -75 -32 -136t-92 -115h104v-126h-266v126q27 24 50 49.5t40 54.5t26.5 62t9.5 72q0 41 -11.5 75.5t-34 59.5t-57 39t-80.5 14t-80.5 -14t-57 -39t-34 -59.5t-11.5 -75.5q0 -39 9.5 -72t26.5 -62t40 -54.5t50 -49.5v-126h-266v126h104q-60 54 -92 115t-32 136
q0 71 25 127t70.5 94.5t108.5 59t139 20.5t139 -20.5t108.5 -59t70.5 -94.5t25 -127zM-6 497l73 169h175l-116 -169h-132z" />
    <glyph glyph-name="u0390" unicode="&#x390;" horiz-adv-x="318" 
d="M220 150q0 -19 8 -29.5t31 -10.5q14 0 34 3l5 -110q-20 -6 -45.5 -9.5t-52.5 -3.5q-40 0 -67 12t-43 32t-23 45.5t-7 52.5v358h160v-340zM-103 642q0 30 20 52.5t55 22.5t55 -22.5t20 -52.5q0 -31 -20 -53t-55 -22t-55 22t-20 53zM266 642q0 30 20 52.5t55 22.5t55 -22.5
t20 -52.5q0 -31 -20 -53t-55 -22t-55 22t-20 53zM73 607l73 169h155l-116 -169h-112z" />
    <glyph glyph-name="u0391" unicode="&#x391;" horiz-adv-x="700" 
d="M477 129h-255l-41 -129h-169l248 666h180l248 -666h-169zM264 259h171l-85 281z" />
    <glyph glyph-name="u0392" unicode="&#x392;" horiz-adv-x="589" 
d="M556 188q0 -45 -20 -80t-57.5 -59t-90 -36.5t-116.5 -12.5h-207v666h239q54 0 96.5 -12t71.5 -33t44.5 -49t15.5 -61q0 -62 -34.5 -102t-100.5 -60q34 -6 63 -19t50.5 -33t33.5 -47t12 -62zM394 201q0 38 -30.5 57.5t-84.5 19.5h-54v-155h58q60 0 85.5 23t25.5 55z
M273 401q43 0 70 19.5t27 55.5q0 32 -23.5 49.5t-65.5 17.5h-56v-142h48z" />
    <glyph glyph-name="u0393" unicode="&#x393;" horiz-adv-x="505" 
d="M229 0h-164v666h410v-130h-246v-536z" />
    <glyph glyph-name="u0394" unicode="&#x394;" horiz-adv-x="700" 
d="M12 0l248 666h180l248 -666h-676zM350 540l-147 -411h278z" />
    <glyph glyph-name="u0395" unicode="&#x395;" horiz-adv-x="531" 
d="M65 666h415v-130h-251v-134h239v-130h-239v-142h254v-130h-418v666z" />
    <glyph glyph-name="u0396" unicode="&#x396;" horiz-adv-x="570" 
d="M56 666h466v-130l-292 -406h302v-130h-484v130l292 406h-284v130z" />
    <glyph glyph-name="u0397" unicode="&#x397;" horiz-adv-x="702" 
d="M473 0v271h-244v-271h-164v666h164v-261h244v261h164v-666h-164z" />
    <glyph glyph-name="u0398" unicode="&#x398;" horiz-adv-x="748" 
d="M714 333q0 -71 -23 -133.5t-66.5 -109.5t-106.5 -74.5t-144 -27.5t-144.5 27.5t-107 74.5t-66 109.5t-22.5 133.5q0 70 22.5 133t66 110t107 74.5t144.5 27.5t144 -27.5t106.5 -74.5t66.5 -110t23 -133zM374 118q43 0 76 16t55.5 44.5t33.5 68t11 86.5t-11 86.5t-33.5 68
t-55.5 44.5t-76 16q-44 0 -76.5 -16t-55 -44.5t-33.5 -68t-11 -86.5t11 -86.5t33.5 -68t55 -44.5t76.5 -16zM247 273v128h254v-128h-254z" />
    <glyph glyph-name="u0399" unicode="&#x399;" horiz-adv-x="304" 
d="M234 0h-164v666h164v-666z" />
    <glyph glyph-name="u039A" unicode="&#x39a;" horiz-adv-x="640" 
d="M65 0v666h164v-319l210 319h185l-225 -329l241 -337h-197l-214 326v-326h-164z" />
    <glyph glyph-name="u039B" unicode="&#x39b;" horiz-adv-x="684" 
d="M342 540l-161 -540h-169l240 666h180l240 -666h-169z" />
    <glyph glyph-name="u039C" unicode="&#x39c;" horiz-adv-x="864" 
d="M511 106h-158l-130 267l-20 -373h-161l50 666h148l192 -407l192 407h148l50 -666h-161l-20 373z" />
    <glyph glyph-name="u039D" unicode="&#x39d;" horiz-adv-x="721" 
d="M498 0l-275 397v-397h-158v666h158l275 -397v397h158v-666h-158z" />
    <glyph glyph-name="u039E" unicode="&#x39e;" horiz-adv-x="619" 
d="M49 130h509v-130h-509v130zM59 666h489v-130h-488zM134 402h338v-130h-338v130z" />
    <glyph glyph-name="u039F" unicode="&#x39f;" horiz-adv-x="748" 
d="M714 333q0 -71 -23 -133.5t-66.5 -109.5t-106.5 -74.5t-144 -27.5t-144.5 27.5t-107 74.5t-66 109.5t-22.5 133.5t22.5 133.5t66 109.5t107 74.5t144.5 27.5t144 -27.5t106.5 -74.5t66.5 -109.5t23 -133.5zM374 118q43 0 76 16t55.5 44.5t33.5 68t11 86.5t-11 86.5
t-33.5 68t-55.5 44.5t-76 16q-44 0 -76.5 -16t-55 -44.5t-33.5 -68t-11 -86.5t11 -86.5t33.5 -68t55 -44.5t76.5 -16z" />
    <glyph glyph-name="u03A0" unicode="&#x3a0;" horiz-adv-x="696" 
d="M631 666v-666h-164v536h-238v-536h-164v666h566z" />
    <glyph glyph-name="u03A1" unicode="&#x3a1;" horiz-adv-x="559" 
d="M547 449q0 -53 -23 -95t-63.5 -70.5t-95.5 -43.5t-119 -15h-17v-225h-164v666h192q63 0 116.5 -13t92 -39.5t60 -67.5t21.5 -97zM389 448q0 92 -131 92h-29v-189h27q65 0 99 26t34 71z" />
    <glyph glyph-name="u03A3" unicode="&#x3a3;" horiz-adv-x="557" 
d="M220 129h287v-129h-460v113l195 236l-187 204v113h438v-129h-255l168 -186z" />
    <glyph glyph-name="u03A4" unicode="&#x3a4;" horiz-adv-x="550" 
d="M536 666v-130h-179v-536h-164v536h-179v130h522z" />
    <glyph glyph-name="u03A5" unicode="&#x3a5;" horiz-adv-x="592" 
d="M378 242v-242h-164v242l-219 424h175l126 -280l126 280h175z" />
    <glyph glyph-name="u03A6" unicode="&#x3a6;" horiz-adv-x="906" 
d="M371 48q-73 0 -134.5 20.5t-106.5 58.5t-70.5 92t-25.5 122q0 63 20.5 116t62 91.5t105 61t149.5 24.5v50h164v-50q172 -5 254.5 -83t82.5 -208q0 -61 -25.5 -114.5t-70.5 -93.5t-106.5 -63.5t-134.5 -23.5v-54h-164v54zM709 343q0 89 -46.5 133t-127.5 48v-366
q38 2 70 15t55 36.5t36 57t13 76.5zM197 339q0 -37 11.5 -69t34 -56t54.5 -39t74 -17v366q-84 -3 -129 -53t-45 -132z" />
    <glyph glyph-name="u03A7" unicode="&#x3a7;" horiz-adv-x="654" 
d="M411 335l225 -335h-175l-134 213l-134 -213h-175l225 335l-221 331h174l131 -208l131 208h174z" />
    <glyph glyph-name="u03A8" unicode="&#x3a8;" horiz-adv-x="814" 
d="M489 308q43 3 70.5 14.5t43.5 32t21.5 49t5.5 65.5v197h164v-212q0 -80 -25 -128t-67.5 -74t-97.5 -35.5t-115 -10.5v-206h-164v206q-60 1 -115 10.5t-97.5 35.5t-67.5 74t-25 128v212h164v-197q0 -37 5.5 -65.5t21.5 -49t43 -32t71 -14.5v358h164v-358z" />
    <glyph glyph-name="Omega" unicode="&#x3a9;" horiz-adv-x="786" 
d="M736 377q0 -75 -32 -136t-92 -115h104v-126h-266v126q27 24 50 49.5t40 54.5t26.5 62t9.5 72q0 41 -11.5 75.5t-34 59.5t-57 39t-80.5 14t-80.5 -14t-57 -39t-34 -59.5t-11.5 -75.5q0 -39 9.5 -72t26.5 -62t40 -54.5t50 -49.5v-126h-266v126h104q-60 54 -92 115t-32 136
q0 71 25 127t70.5 94.5t108.5 59t139 20.5t139 -20.5t108.5 -59t70.5 -94.5t25 -127z" />
    <glyph glyph-name="u03AA" unicode="&#x3aa;" horiz-adv-x="304" 
d="M234 0h-164v666h164v-666zM-30 790q0 30 20.5 50.5t54.5 20.5t54.5 -20.5t20.5 -50.5q0 -31 -20.5 -51t-54.5 -20t-54.5 20t-20.5 51zM185 790q0 30 20.5 50.5t54.5 20.5t54.5 -20.5t20.5 -50.5q0 -31 -20.5 -51t-54.5 -20t-54.5 20t-20.5 51z" />
    <glyph glyph-name="u03AB" unicode="&#x3ab;" horiz-adv-x="592" 
d="M378 242v-242h-164v242l-219 424h175l126 -280l126 280h175zM113 790q0 30 20.5 50.5t54.5 20.5t54.5 -20.5t20.5 -50.5q0 -31 -20.5 -51t-54.5 -20t-54.5 20t-20.5 51zM328 790q0 30 20.5 50.5t54.5 20.5t54.5 -20.5t20.5 -50.5q0 -31 -20.5 -51t-54.5 -20t-54.5 20
t-20.5 51z" />
    <glyph glyph-name="u03AC" unicode="&#x3ac;" horiz-adv-x="643" 
d="M568 490l-38 -231q2 -33 8.5 -62t17.5 -50t27 -33.5t37 -12.5l-12 -95q-15 -9 -29.5 -12.5t-37.5 -3.5q-42 0 -65.5 25t-33.5 76q-38 -54 -85 -77.5t-111 -23.5q-42 0 -81.5 16t-70 48.5t-49.5 82t-19 115.5q0 62 19.5 108.5t51 77.5t71.5 46.5t82 15.5q69 0 106.5 -23
t53.5 -52l5 65h153zM186 242q0 -38 8.5 -63.5t21.5 -41.5t28 -22.5t29 -6.5q44 0 69 40.5t37 106.5q-7 27 -16 50.5t-22 41t-30 27t-40 9.5q-35 0 -60 -36t-25 -105zM250 559l73 169h175l-116 -169h-132z" />
    <glyph glyph-name="u03AD" unicode="&#x3ad;" horiz-adv-x="459" 
d="M147 252q-50 11 -71.5 41t-21.5 66q0 39 17.5 66t47 43.5t67.5 24t80 7.5q41 0 76.5 -5.5t77.5 -16.5l-23 -112q-21 10 -54 16t-60 6q-39 0 -63 -11.5t-24 -36.5q0 -23 20 -30.5t52 -7.5h77v-101h-57q-47 0 -62 -13t-15 -37q0 -41 82 -41q13 0 29 2t32.5 5t32 7.5
t26.5 10.5l16 -115q-12 -6 -33.5 -12t-47 -10t-52 -6.5t-47.5 -2.5q-101 0 -155.5 35t-54.5 101q0 48 28 77t80 46v4zM154 559l73 169h175l-116 -169h-132z" />
    <glyph glyph-name="u03AE" unicode="&#x3ae;" horiz-adv-x="583" 
d="M60 0v490h154v-64q23 40 59 57t78 17q49 0 83 -18.5t55.5 -49.5t31 -70.5t9.5 -82.5v-484h-160v461q0 65 -19 91.5t-58 26.5q-25 0 -43.5 -11t-29.5 -27v-336h-160zM200 559l73 169h175l-116 -169h-132z" />
    <glyph glyph-name="u03AF" unicode="&#x3af;" horiz-adv-x="318" 
d="M220 150q0 -19 8 -29.5t31 -10.5q14 0 34 3l5 -110q-20 -6 -45.5 -9.5t-52.5 -3.5q-40 0 -67 12t-43 32t-23 45.5t-7 52.5v358h160v-340zM35 559l73 169h175l-116 -169h-132z" />
    <glyph glyph-name="u03B0" unicode="&#x3b0;" horiz-adv-x="572" 
d="M483 490q23 -39 31.5 -87t8.5 -109q0 -53 -13 -107.5t-42 -98t-76.5 -71t-117.5 -27.5q-106 0 -160 48.5t-54 156.5v295h160v-279q0 -32 6 -52t15.5 -31t21.5 -15.5t23 -4.5q33 0 52 17.5t29 45.5t13 63.5t3 70.5q0 54 -12 104t-25 81h137zM31 642q0 30 20 52.5t55 22.5
t55 -22.5t20 -52.5q0 -31 -20 -53t-55 -22t-55 22t-20 53zM400 642q0 30 20 52.5t55 22.5t55 -22.5t20 -52.5q0 -31 -20 -53t-55 -22t-55 22t-20 53zM207 607l73 169h155l-116 -169h-112z" />
    <glyph glyph-name="u03B1" unicode="&#x3b1;" horiz-adv-x="643" 
d="M568 490l-38 -231q2 -33 8.5 -62t17.5 -50t27 -33.5t37 -12.5l-12 -95q-15 -9 -29.5 -12.5t-37.5 -3.5q-42 0 -65.5 25t-33.5 76q-38 -54 -85 -77.5t-111 -23.5q-42 0 -81.5 16t-70 48.5t-49.5 82t-19 115.5q0 62 19.5 108.5t51 77.5t71.5 46.5t82 15.5q69 0 106.5 -23
t53.5 -52l5 65h153zM186 242q0 -38 8.5 -63.5t21.5 -41.5t28 -22.5t29 -6.5q44 0 69 40.5t37 106.5q-7 27 -16 50.5t-22 41t-30 27t-40 9.5q-35 0 -60 -36t-25 -105z" />
    <glyph glyph-name="u03B2" unicode="&#x3b2;" horiz-adv-x="603" 
d="M60 -206v638q0 64 18.5 110.5t51.5 76.5t78 44.5t99 14.5q113 0 169.5 -46.5t56.5 -120.5q0 -56 -26 -92.5t-74 -56.5v-5q29 -9 52 -22t38.5 -32.5t23.5 -47t8 -65.5q0 -51 -17 -88.5t-45.5 -62.5t-66 -37t-79.5 -12q-27 0 -47 3t-35 8t-25.5 11t-19.5 12v-230h-160z
M220 135q12 -16 35.5 -24.5t52.5 -8.5q48 0 67.5 27t19.5 69q0 41 -24 63.5t-66 22.5h-31v108q32 0 52.5 4.5t32.5 15t16.5 27t4.5 40.5q0 29 -7 48t-19 30.5t-27.5 16t-31.5 4.5q-33 0 -54 -21.5t-21 -64.5v-357z" />
    <glyph glyph-name="u03B3" unicode="&#x3b3;" horiz-adv-x="537" 
d="M189 -206v209l-182 487h164l114 -361q22 31 37.5 73.5t25.5 88t15 89.5t5 77v33h137q2 -6 2 -15v-18q0 -134 -44 -248t-114 -208v-207h-160z" />
    <glyph glyph-name="u03B4" unicode="&#x3b4;" horiz-adv-x="573" 
d="M449 510q-32 20 -66.5 33t-72.5 13q-32 0 -43 -7.5t-11 -21.5q0 -9 8 -16t26.5 -17.5t49.5 -26.5t77 -44q30 -18 53.5 -36t40 -39.5t25.5 -49.5t9 -66q0 -59 -23 -104t-60 -75.5t-83.5 -46t-92.5 -15.5q-60 0 -108 15.5t-82 43.5t-52 66.5t-18 85.5q0 45 14 77.5t36.5 56
t49.5 39t54 27.5q-48 29 -65.5 58.5t-17.5 68.5q0 30 12.5 57t37.5 47.5t62.5 32.5t86.5 12q53 0 100.5 -9.5t94.5 -34.5zM258 345q-20 -10 -33.5 -24.5t-22 -32t-12.5 -36t-4 -36.5q0 -30 9 -51t23.5 -33.5t31.5 -18t34 -5.5q26 0 45 9t32 24t19 34t6 39q0 16 -4.5 32
t-18.5 32t-39 33t-66 34z" />
    <glyph glyph-name="u03B5" unicode="&#x3b5;" horiz-adv-x="459" 
d="M147 252q-50 11 -71.5 41t-21.5 66q0 39 17.5 66t47 43.5t67.5 24t80 7.5q41 0 76.5 -5.5t77.5 -16.5l-23 -112q-21 10 -54 16t-60 6q-39 0 -63 -11.5t-24 -36.5q0 -23 20 -30.5t52 -7.5h77v-101h-57q-47 0 -62 -13t-15 -37q0 -41 82 -41q13 0 29 2t32.5 5t32 7.5
t26.5 10.5l16 -115q-12 -6 -33.5 -12t-47 -10t-52 -6.5t-47.5 -2.5q-101 0 -155.5 35t-54.5 101q0 48 28 77t80 46v4z" />
    <glyph glyph-name="u03B6" unicode="&#x3b6;" horiz-adv-x="450" 
d="M193 4q-40 16 -70.5 35.5t-51.5 43.5t-32 54.5t-11 70.5q0 61 23.5 111t59 90.5t77 72.5t78.5 58h-227v126h392v-124q-47 -35 -91 -70.5t-78 -72t-54.5 -74t-20.5 -76.5q0 -29 7.5 -49.5t22.5 -36.5t37.5 -29t52.5 -28q36 -18 61 -32.5t41 -30.5t23 -35.5t7 -47.5
q0 -26 -8 -52t-27 -49t-49 -42.5t-73 -32.5l-48 87q42 13 56 29t14 33q0 12 -6.5 20t-20 15.5t-34.5 15.5t-50 20z" />
    <glyph glyph-name="u03B7" unicode="&#x3b7;" horiz-adv-x="583" 
d="M60 0v490h154v-64q23 40 59 57t78 17q49 0 83 -18.5t55.5 -49.5t31 -70.5t9.5 -82.5v-484h-160v461q0 65 -19 91.5t-58 26.5q-25 0 -43.5 -11t-29.5 -27v-336h-160z" />
    <glyph glyph-name="u03B8" unicode="&#x3b8;" horiz-adv-x="606" 
d="M570 333q0 -77 -18 -140.5t-52.5 -109t-84 -70.5t-112.5 -25q-66 0 -116 25t-83 70.5t-50 109t-17 140.5t16 140.5t49 109t83 70.5t118 25q67 0 117.5 -25t83.5 -70.5t49.5 -109t16.5 -140.5zM303 560q-52 0 -78.5 -45.5t-27.5 -120.5h213q-8 75 -32.5 120.5t-74.5 45.5z
M197 281q3 -80 30.5 -127t75.5 -47q52 0 77 48t30 126h-213z" />
    </font>
</defs>
</svg>
