<?xml version="1.0" standalone="no"?>
<!DOCTYPE svg PUBLIC "-//W3C//DTD SVG 1.1//EN" "http://www.w3.org/Graphics/SVG/1.1/DTD/svg11.dtd" >
<svg xmlns="http://www.w3.org/2000/svg" xmlns:xlink="http://www.w3.org/1999/xlink" version="1.1">
<metadata>
Created by FontForge 20170731 at Sun Jul 19 08:52:44 2015
 By Aleksey,,,
Copyright (c) 2007 by Process Type Foundry. All rights reserved.
</metadata>
<defs>
<font id="Seravek-Light" horiz-adv-x="552" >
  <font-face 
    font-family="Seravek Light"
    font-weight="300"
    font-stretch="normal"
    units-per-em="1000"
    panose-1="2 11 5 3 4 0 0 2 0 4"
    ascent="800"
    descent="-200"
    x-height="477"
    cap-height="666"
    bbox="-90 -290 1203 921"
    underline-thickness="36"
    underline-position="-304"
    unicode-range="U+0020-FB04"
  />
<missing-glyph horiz-adv-x="686" 
d="M110 666h466v-666h-466v666zM187 616l340 -527v527h-340zM159 49h339l-339 527v-527z" />
    <glyph glyph-name="f_f" unicode="ff" horiz-adv-x="642" 
d="M416 0v422h-230v-422h-67v422h-87v55h87v29q0 210 176 210q43 0 70 -11l-7 -54q-10 4 -25 6.5t-32 2.5q-62 0 -88.5 -36.5t-26.5 -115.5v-31h230v29q0 210 176 210q21 0 41 -3t36 -9l-7 -54q-13 5 -30 7.5t-34 2.5q-62 0 -88.5 -36.5t-26.5 -115.5v-31h145v-55h-145v-422
h-67z" />
    <glyph glyph-name="fi" unicode="fi" horiz-adv-x="543" 
d="M119 0v422h-87v55h87v27q0 106 49 159t142 53q69 0 121 -20l-9 -55q-49 19 -108 19q-70 0 -99 -38.5t-29 -115.5v-29h277v-477h-67v422h-210v-422h-67z" />
    <glyph glyph-name="fl" unicode="fl" horiz-adv-x="589" 
d="M459 114q0 -30 11 -49t45 -19q13 0 24 1t22 5l3 -50q-28 -10 -65 -10q-56 0 -81.5 33.5t-25.5 84.5v541q-15 4 -38.5 6.5t-44.5 2.5q-63 0 -93 -32t-30 -105v-46h135v-55h-135v-422h-67v422h-87v55h87v44q0 102 49.5 148.5t134.5 46.5q24 0 47 -2.5t42 -7.5h67v-592z" />
    <glyph glyph-name="f_f_i" unicode="ffi" horiz-adv-x="840" 
d="M416 0v422h-230v-422h-67v422h-87v55h87v29q0 210 176 210q43 0 70 -11l-7 -54q-10 4 -25 6.5t-32 2.5q-62 0 -88.5 -36.5t-26.5 -115.5v-31h230v27q0 106 49 159t142 53q69 0 121 -20l-9 -55q-49 19 -108 19q-70 0 -99 -38.5t-29 -115.5v-29h277v-477h-67v422h-210v-422
h-67z" />
    <glyph glyph-name="f_f_l" unicode="ffl" horiz-adv-x="886" 
d="M756 114q0 -30 11 -49t45 -19q13 0 24 1t22 5l3 -50q-28 -10 -65 -10q-56 0 -81.5 33.5t-25.5 84.5v541q-15 4 -38.5 6.5t-44.5 2.5q-63 0 -93 -32t-30 -105v-46h135v-55h-135v-422h-67v422h-230v-422h-67v422h-87v55h87v29q0 210 176 210q43 0 70 -11l-7 -54
q-10 4 -25 6.5t-32 2.5q-62 0 -88.5 -36.5t-26.5 -115.5v-31h230v44q0 102 49.5 148.5t134.5 46.5q24 0 47 -2.5t42 -7.5h67v-592z" />
    <glyph glyph-name="f_b" unicode="fb" horiz-adv-x="844" 
d="M459 431q20 22 57.5 39t84.5 17q46 0 83 -18.5t62.5 -51t39 -77.5t13.5 -97q0 -55 -16 -101.5t-47.5 -80t-77 -52.5t-104.5 -19q-88 0 -162 31v630q-15 4 -38.5 6.5t-44.5 2.5q-63 0 -93 -32t-30 -105v-46h135v-55h-135v-422h-67v422h-87v55h87v44q0 102 49.5 148.5
t134.5 46.5q24 0 47 -2.5t42 -7.5h67v-275zM586 432q-38 0 -71 -15.5t-56 -36.5v-320q37 -15 95 -15q88 0 133 53t45 143q0 40 -8.5 74.5t-26.5 60.5t-45.5 41t-65.5 15z" />
    <glyph glyph-name="f_f_b" unicode="ffb" horiz-adv-x="1141" 
d="M756 431q20 22 57.5 39t84.5 17q46 0 83 -18.5t62.5 -51t39 -77.5t13.5 -97q0 -55 -16 -101.5t-47.5 -80t-77 -52.5t-104.5 -19q-88 0 -162 31v630q-15 4 -38.5 6.5t-44.5 2.5q-63 0 -93 -32t-30 -105v-46h135v-55h-135v-422h-67v422h-230v-422h-67v422h-87v55h87v29
q0 210 176 210q43 0 70 -11l-7 -54q-10 4 -25 6.5t-32 2.5q-62 0 -88.5 -36.5t-26.5 -115.5v-31h230v44q0 102 49.5 148.5t134.5 46.5q24 0 47 -2.5t42 -7.5h67v-275zM883 432q-38 0 -71 -15.5t-56 -36.5v-320q37 -15 95 -15q88 0 133 53t45 143q0 40 -8.5 74.5t-26.5 60.5
t-45.5 41t-65.5 15z" />
    <glyph glyph-name="f_h" unicode="fh" horiz-adv-x="855" 
d="M459 412q26 34 66 54.5t88 20.5q44 0 75.5 -19t52 -51t30 -74.5t9.5 -89.5v-253h-67v248q0 40 -6 73.5t-20 58t-37 38t-57 13.5q-42 0 -76.5 -22.5t-57.5 -51.5v-357h-67v651q-15 4 -38.5 6.5t-44.5 2.5q-63 0 -93 -32t-30 -105v-46h135v-55h-135v-422h-67v422h-87v55h87
v44q0 102 49.5 148.5t134.5 46.5q24 0 47 -2.5t42 -7.5h67v-294v0z" />
    <glyph glyph-name="f_f_h" unicode="ffh" horiz-adv-x="1152" 
d="M756 412q26 34 66 54.5t88 20.5q44 0 75.5 -19t52 -51t30 -74.5t9.5 -89.5v-253h-67v248q0 40 -6 73.5t-20 58t-37 38t-57 13.5q-42 0 -76.5 -22.5t-57.5 -51.5v-357h-67v651q-15 4 -38.5 6.5t-44.5 2.5q-63 0 -93 -32t-30 -105v-46h135v-55h-135v-422h-67v422h-230v-422
h-67v422h-87v55h87v29q0 210 176 210q43 0 70 -11l-7 -54q-10 4 -25 6.5t-32 2.5q-62 0 -88.5 -36.5t-26.5 -115.5v-31h230v44q0 102 49.5 148.5t134.5 46.5q24 0 47 -2.5t42 -7.5h67v-294v0z" />
    <glyph glyph-name="f_j" unicode="fj" horiz-adv-x="541" 
d="M119 0v422h-87v55h87v27q0 106 49 159t142 53q69 0 121 -20l-9 -55q-49 19 -108 19q-70 0 -99 -38.5t-29 -115.5v-29h277v-364q0 -47 -6.5 -90.5t-21 -84t-38.5 -79t-60 -75.5l-48 37q27 31 47 62t33.5 64.5t20 72t6.5 83.5v319h-210v-422h-67z" />
    <glyph glyph-name="f_f_j" unicode="ffj" horiz-adv-x="838" 
d="M416 0v422h-230v-422h-67v422h-87v55h87v29q0 210 176 210q43 0 70 -11l-7 -54q-10 4 -25 6.5t-32 2.5q-62 0 -88.5 -36.5t-26.5 -115.5v-31h230v27q0 106 49 159t142 53q69 0 121 -20l-9 -55q-49 19 -108 19q-70 0 -99 -38.5t-29 -115.5v-29h277v-364q0 -47 -6.5 -90.5
t-21 -84t-38.5 -79t-60 -75.5l-48 37q27 31 47 62t33.5 64.5t20 72t6.5 83.5v319h-210v-422h-67z" />
    <glyph glyph-name="f_k" unicode="fk" horiz-adv-x="785" 
d="M392 0v651q-15 4 -38.5 6.5t-44.5 2.5q-63 0 -93 -32t-30 -105v-46h135v-55h-135v-422h-67v422h-87v55h87v44q0 102 49.5 148.5t134.5 46.5q24 0 47 -2.5t42 -7.5h67v-456l207 227h82l-215 -234l238 -243h-85l-227 236v-236h-67z" />
    <glyph glyph-name="f_f_k" unicode="ffk" horiz-adv-x="1082" 
d="M689 0v651q-15 4 -38.5 6.5t-44.5 2.5q-63 0 -93 -32t-30 -105v-46h135v-55h-135v-422h-67v422h-230v-422h-67v422h-87v55h87v29q0 210 176 210q43 0 70 -11l-7 -54q-10 4 -25 6.5t-32 2.5q-62 0 -88.5 -36.5t-26.5 -115.5v-31h230v44q0 102 49.5 148.5t134.5 46.5
q24 0 47 -2.5t42 -7.5h67v-456l207 227h82l-215 -234l238 -243h-85l-227 236v-236h-67z" />
    <glyph glyph-name=".notdef" horiz-adv-x="686" 
d="M110 666h466v-666h-466v666zM187 616l340 -527v527h-340zM159 49h339l-339 527v-527z" />
    <glyph glyph-name=".null" horiz-adv-x="0" 
 />
    <glyph glyph-name="nonmarkingreturn" horiz-adv-x="333" 
 />
    <glyph glyph-name="space" unicode=" " horiz-adv-x="215" 
 />
    <glyph glyph-name="exclam" unicode="!" horiz-adv-x="288" 
d="M164 168h-40l-15 292v206h70v-206zM95 41q0 20 13.5 34.5t35.5 14.5t35.5 -14.5t13.5 -34.5t-13.5 -34.5t-35.5 -14.5t-35.5 14.5t-13.5 34.5z" />
    <glyph glyph-name="quotedbl" unicode="&#x22;" horiz-adv-x="402" 
d="M89 435l-9 231h68l-9 -231h-50zM263 435l-9 231h68l-9 -231h-50z" />
    <glyph glyph-name="numbersign" unicode="#" horiz-adv-x="669" 
d="M430 185h-211l-20 -185h-56l19 185h-112v48h117l22 208h-119v48h125l19 177h56l-19 -177h211l19 177h56l-19 -177h106v-48h-112l-21 -208h111v-48h-117l-19 -185h-56zM224 233h211l22 208h-211z" />
    <glyph glyph-name="dollar" unicode="$" horiz-adv-x="489" 
d="M208 -120v120q-38 4 -76 15t-67 25l13 53q31 -14 70.5 -26.5t84.5 -12.5q60 0 95.5 28.5t35.5 88.5q0 27 -10 48.5t-28 39.5t-42.5 33.5t-52.5 30.5q-36 19 -64.5 39t-48.5 42.5t-30.5 48t-10.5 56.5q0 35 11.5 62.5t31.5 46.5t46.5 30.5t56.5 14.5v123h61v-122
q32 -2 64 -10.5t61 -22.5l-12 -53q-34 16 -66.5 25t-70.5 9q-56 0 -87 -25.5t-31 -74.5q0 -25 8 -43t23.5 -33.5t38 -29.5t51.5 -31q30 -17 59.5 -36.5t53.5 -43.5t38.5 -54t14.5 -68q0 -69 -42 -112.5t-118 -57.5v-123h-61z" />
    <glyph glyph-name="percent" unicode="%" horiz-adv-x="877" 
d="M574 678l49 -24l-319 -666l-48 24zM380 485q0 -36 -10 -71t-30.5 -62t-50.5 -43.5t-69 -16.5q-40 0 -70 16.5t-50 43.5t-30 62t-10 71q0 37 10 71.5t30 61.5t50 43.5t70 16.5q39 0 69 -16.5t50.5 -43.5t30.5 -61.5t10 -71.5zM118 485q0 -28 6 -54t18.5 -46t31.5 -32
t46 -12t46 12t31.5 32t18.5 46t6 54t-6 54t-18.5 46t-31.5 32t-46 12t-46 -12t-31.5 -32t-18.5 -46t-6 -54zM817 181q0 -36 -10 -71t-30.5 -62t-50.5 -43.5t-69 -16.5q-40 0 -70 16.5t-50 43.5t-30 62t-10 71q0 37 10 71.5t30 61.5t50 43.5t70 16.5q39 0 69 -16.5
t50.5 -43.5t30.5 -61.5t10 -71.5zM555 181q0 -28 6 -54t18.5 -46t31.5 -32t46 -12t46 12t31.5 32t18.5 46t6 54t-6 54t-18.5 46t-31.5 32t-46 12t-46 -12t-31.5 -32t-18.5 -46t-6 -54z" />
    <glyph glyph-name="ampersand" unicode="&#x26;" horiz-adv-x="731" 
d="M643 354q-23 -58 -52.5 -112t-58.5 -90q42 -29 87.5 -57.5t91.5 -57.5l-30 -49q-46 28 -92.5 58.5t-91.5 61.5q-48 -54 -107.5 -87t-135.5 -33q-44 0 -79.5 11.5t-60.5 32t-38.5 49t-13.5 63.5q0 33 13.5 61.5t34 52t45 42.5t47.5 34q-45 38 -74.5 85.5t-29.5 102.5
q0 34 12.5 63t35 49.5t55 32t71.5 11.5q35 0 64.5 -10t50.5 -28t33 -42.5t12 -53.5q0 -37 -15.5 -69t-38 -58.5t-48.5 -47t-46 -34.5q48 -41 96.5 -77.5t106.5 -74.5q29 38 54 84.5t53 110.5zM254 40q62 0 109.5 26t89.5 74q-27 18 -55.5 38t-56 41t-53.5 41.5t-47 39.5
q-19 -14 -39.5 -30t-37 -35t-27 -40.5t-10.5 -47.5q0 -54 35.5 -80.5t91.5 -26.5zM159 521q0 -48 24.5 -85t61.5 -69q23 16 45.5 34.5t40.5 40t29.5 45.5t11.5 52q0 42 -29.5 66t-73.5 24q-50 0 -80 -28.5t-30 -79.5z" />
    <glyph glyph-name="quotesingle" unicode="'" horiz-adv-x="228" 
d="M89 435l-9 231h68l-9 -231h-50z" />
    <glyph glyph-name="parenleft" unicode="(" horiz-adv-x="329" 
d="M147 280q0 -57 6.5 -109.5t21.5 -105.5t38 -107.5t56 -115.5l-53 -28q-35 62 -60.5 118.5t-42.5 113t-25 114t-8 120.5t8 120.5t25 114t42.5 113t60.5 118.5l53 -28q-33 -61 -56 -115.5t-38 -107.5t-21.5 -105.5t-6.5 -109.5z" />
    <glyph glyph-name="parenright" unicode=")" horiz-adv-x="329" 
d="M182 280q0 57 -6.5 109.5t-21.5 105.5t-38 107.5t-56 115.5l53 28q35 -62 60.5 -118.5t42.5 -113t25 -114t8 -120.5t-8 -120.5t-25 -114t-42.5 -113t-60.5 -118.5l-53 28q33 61 56 115.5t38 107.5t21.5 105.5t6.5 109.5z" />
    <glyph glyph-name="asterisk" unicode="*" horiz-adv-x="407" 
d="M221 519v-123h-36v123l-107 -61l-18 32l107 61l-107 61l18 31l107 -62v125h36v-125l108 62l18 -31l-107 -61l107 -61l-18 -32z" />
    <glyph glyph-name="plus" unicode="+" horiz-adv-x="605" 
d="M332 298v-209h-59v209h-196v51h196v209h59v-209h196v-51h-196z" />
    <glyph glyph-name="comma" unicode="," horiz-adv-x="243" 
d="M42 -127q29 59 44 111t17 112l65 -6q-3 -72 -22.5 -128t-56.5 -114z" />
    <glyph glyph-name="hyphen" unicode="-" horiz-adv-x="355" 
d="M60 231v55h235v-55h-235z" />
    <glyph glyph-name="period" unicode="." horiz-adv-x="248" 
d="M75 41q0 20 13.5 34.5t35.5 14.5t35.5 -14.5t13.5 -34.5t-13.5 -34.5t-35.5 -14.5t-35.5 14.5t-13.5 34.5z" />
    <glyph glyph-name="slash" unicode="/" horiz-adv-x="413" 
d="M307 685l56 -19l-252 -766l-56 20z" />
    <glyph glyph-name="zero" unicode="0" horiz-adv-x="584" 
d="M527 333q0 -72 -14 -134.5t-42.5 -109.5t-73 -74t-105.5 -27t-105.5 27t-73 74t-42.5 109.5t-14 134.5t14 134.5t42.5 109.5t73 74t105.5 27t105.5 -27t73 -74t42.5 -109.5t14 -134.5zM292 43q46 0 78 22t52 61t29 92t9 115q0 61 -9 114t-29 92t-52 61.5t-78 22.5
t-78 -22.5t-52 -61.5t-29 -92t-9 -114q0 -62 9 -115t29 -92t52 -61t78 -22z" />
    <glyph glyph-name="one" unicode="1" horiz-adv-x="335" 
d="M178 0v596l-136 -59l-20 52l176 77h47v-666h-67z" />
    <glyph glyph-name="two" unicode="2" horiz-adv-x="461" 
d="M68 639q26 18 64.5 28.5t81.5 10.5t78 -13t60 -38t38.5 -60t13.5 -79q0 -79 -39 -147t-105 -137q-24 -24 -43 -44t-36.5 -37t-34 -33.5t-34.5 -33.5h304v-56h-380l-8 43q26 28 50 53t47 49t45.5 47.5t45.5 49.5q54 60 87.5 118t33.5 125q0 62 -32.5 99.5t-96.5 37.5
q-37 0 -65.5 -10t-56.5 -26z" />
    <glyph glyph-name="three" unicode="3" horiz-adv-x="476" 
d="M416 173q0 -42 -16 -76t-44.5 -58.5t-67.5 -37.5t-86 -13q-18 0 -39 2.5t-41 7t-38.5 10.5t-33.5 13l14 55q30 -14 65.5 -23t70.5 -9q75 0 112 36t37 89q0 37 -15 64t-41 45t-61 27t-74 9h-42v56h37q39 0 72 10t58 29t39 45.5t14 59.5q0 51 -32.5 79.5t-89.5 28.5
q-38 0 -68.5 -8t-56.5 -22l-15 52q32 18 69.5 26t76.5 8q40 0 73.5 -11t58 -31t38 -49t13.5 -65q0 -63 -39.5 -108t-104.5 -68q69 -16 113 -60.5t44 -112.5z" />
    <glyph glyph-name="four" unicode="4" horiz-adv-x="525" 
d="M395 202v-202h-65v202h-281l-9 53l285 411h70v-409h92v-55h-92zM330 581l-221 -324h221v324z" />
    <glyph glyph-name="five" unicode="5" horiz-adv-x="498" 
d="M446 184q0 -44 -17 -80t-47.5 -61.5t-72.5 -40t-91 -14.5q-20 0 -41.5 2.5t-42 6.5t-38.5 9t-31 11l12 55q31 -13 66.5 -21t74.5 -8q73 0 117 36.5t44 99.5q0 37 -15 64t-40.5 44t-60 25.5t-74.5 8.5h-92v345h327v-55h-260v-234h40q47 0 91 -12.5t77.5 -36.5t53.5 -60
t20 -84z" />
    <glyph glyph-name="six" unicode="6" horiz-adv-x="535" 
d="M402 629q-56 -30 -103 -62t-82 -70.5t-58.5 -85.5t-33.5 -108q28 34 70.5 56.5t97.5 22.5q44 0 79 -14t59.5 -38.5t37.5 -59.5t13 -77q0 -44 -15.5 -81.5t-42.5 -65t-64.5 -43t-81.5 -15.5q-55 0 -96 23.5t-68 60t-40.5 82t-13.5 90.5q0 77 23 142t65 118.5t100 96.5
t128 77zM417 191q0 68 -37 102t-100 34q-47 0 -84 -20.5t-71 -58.5q-2 -37 6.5 -73.5t27.5 -66t48.5 -48t70.5 -18.5q33 0 58.5 11.5t43.5 32t27.5 47.5t9.5 58z" />
    <glyph glyph-name="seven" unicode="7" horiz-adv-x="444" 
d="M403 610l-269 -610h-69l272 610h-300v56h356z" />
    <glyph glyph-name="eight" unicode="8" horiz-adv-x="534" 
d="M267 678q37 0 70.5 -10t59 -28.5t40 -46t14.5 -63.5q0 -29 -10.5 -53.5t-29 -46t-43 -41t-52.5 -37.5q30 -16 57.5 -35.5t49 -43.5t34 -53t12.5 -64q0 -38 -16.5 -69t-44.5 -53t-64.5 -34t-76.5 -12q-42 0 -79 11t-64 32t-43 52t-16 70q0 34 12.5 63t34 53t49 44t57.5 37
q-57 31 -96 75t-39 104q0 35 14.5 63t40 47t58.5 29t71 10zM404 155q0 28 -9 49.5t-26 40t-43 36t-59 37.5q-29 -19 -53.5 -36.5t-43.5 -36.5t-29.5 -42t-10.5 -52q0 -51 37 -80.5t100 -29.5q62 0 99.5 32t37.5 82zM147 529q0 -25 7 -44t22 -35.5t37.5 -32.5t53.5 -34
q52 32 86 67t34 79q0 40 -31 68t-89 28q-59 0 -89.5 -28t-30.5 -68z" />
    <glyph glyph-name="nine" unicode="9" horiz-adv-x="535" 
d="M131 37q56 30 103 62t82 70.5t58.5 85.5t33.5 108q-26 -33 -69.5 -56t-98.5 -23q-43 0 -78 14t-59.5 38.5t-38 59.5t-13.5 77q0 44 14.5 81.5t41 65t64 43t84.5 15.5q55 0 96 -23.5t68 -60t40.5 -82t13.5 -90.5q0 -77 -23 -142t-65 -118.5t-100 -96.5t-128 -77zM116 476
q0 -69 35.5 -103t98.5 -34q49 0 90 23t68 56q1 37 -7 73.5t-27 65.5t-48.5 47.5t-70.5 18.5q-33 0 -58.5 -11.5t-43.5 -31.5t-27.5 -46.5t-9.5 -57.5z" />
    <glyph glyph-name="colon" unicode=":" horiz-adv-x="248" 
d="M75 41q0 20 13.5 34.5t35.5 14.5t35.5 -14.5t13.5 -34.5t-13.5 -34.5t-35.5 -14.5t-35.5 14.5t-13.5 34.5zM75 364q0 20 13.5 34.5t35.5 14.5t35.5 -14.5t13.5 -34.5t-13.5 -34.5t-35.5 -14.5t-35.5 14.5t-13.5 34.5z" />
    <glyph glyph-name="semicolon" unicode=";" horiz-adv-x="261" 
d="M88 364q0 20 13.5 34.5t35.5 14.5t35.5 -14.5t13.5 -34.5t-13.5 -34.5t-35.5 -14.5t-35.5 14.5t-13.5 34.5zM42 -127q29 59 44 111t17 112l65 -6q-3 -72 -22.5 -128t-56.5 -114z" />
    <glyph glyph-name="less" unicode="&#x3c;" horiz-adv-x="586" 
d="M498 567l23 -48l-389 -196l389 -196l-23 -48l-428 219v50z" />
    <glyph glyph-name="equal" unicode="=" horiz-adv-x="615" 
d="M87 453h441v-51h-441v51zM87 244h441v-51h-441v51z" />
    <glyph glyph-name="greater" unicode="&#x3e;" horiz-adv-x="586" 
d="M516 348v-50l-428 -219l-23 48l389 196l-389 196l23 48z" />
    <glyph glyph-name="question" unicode="?" horiz-adv-x="447" 
d="M392 505q0 -51 -23 -95.5t-58 -83t-77.5 -71t-82.5 -59.5l-35 47q37 27 74.5 55.5t67.5 60t48.5 67.5t18.5 77q0 58 -33.5 88t-89.5 30q-35 0 -64.5 -9t-63.5 -27l-19 53q65 40 152 40q85 0 135 -46t50 -127zM113 41q0 20 13.5 34.5t35.5 14.5t35.5 -14.5t13.5 -34.5
t-13.5 -34.5t-35.5 -14.5t-35.5 14.5t-13.5 34.5z" />
    <glyph glyph-name="at" unicode="@" horiz-adv-x="806" 
d="M444 396q26 0 52 -6t47 -16l-26 -147q-3 -17 -3 -31q0 -32 14.5 -51.5t46.5 -19.5q28 0 51.5 14t40 38.5t25.5 58t9 71.5q0 55 -19.5 97.5t-55 72t-84 44.5t-106.5 15q-66 0 -124.5 -22.5t-102 -65t-68.5 -103t-25 -135.5q0 -134 76.5 -208t219.5 -74q67 0 127.5 13.5
t114.5 39.5l13 -41q-63 -29 -130 -42.5t-130 -13.5q-82 0 -145.5 24.5t-107 67.5t-66.5 102.5t-23 130.5q0 85 28 153.5t78 117t118 74.5t149 26q70 0 128 -20t99 -56t63.5 -86t22.5 -109q0 -50 -14 -91.5t-38.5 -71t-57.5 -46t-72 -16.5q-25 0 -44 8.5t-32.5 23t-20.5 33.5
t-7 39q-9 -20 -22 -38t-28.5 -31.5t-33 -22t-35.5 -8.5q-21 0 -35 9t-22.5 23.5t-12.5 33.5t-4 39q0 39 10.5 76t32 65t53.5 45t76 17zM440 352q-30 0 -52 -14t-36.5 -37t-21 -51.5t-6.5 -56.5q0 -24 7 -42.5t29 -18.5q14 0 28.5 9.5t28 25.5t26.5 37.5t24 45.5l17 96
q-18 6 -44 6z" />
    <glyph glyph-name="A" unicode="A" horiz-adv-x="654" 
d="M624 0h-71l-65 170h-322l-65 -170h-71l264 666h66zM327 596l-140 -370h280z" />
    <glyph glyph-name="B" unicode="B" horiz-adv-x="551" 
d="M508 185q0 -40 -17 -74t-49.5 -58.5t-78.5 -38.5t-104 -14h-174v666h187q48 0 87.5 -11t67 -32t43 -50t15.5 -65q0 -60 -40.5 -100.5t-104.5 -60.5q34 -6 65 -19t53.5 -33t36 -48t13.5 -62zM442 187q0 33 -15.5 57.5t-42 40t-61.5 23.5t-73 8h-101v-261h115
q81 0 129.5 33.5t48.5 98.5zM240 371q39 0 72 9t57 26t37 41t13 54q0 55 -42.5 82.5t-107.5 27.5h-120v-240h91z" />
    <glyph glyph-name="C" unicode="C" horiz-adv-x="600" 
d="M384 678q45 0 91 -8t79 -22l-12 -54q-35 13 -74 20t-77 7q-136 0 -207.5 -76.5t-71.5 -211.5t71.5 -211.5t207.5 -76.5q38 0 77 7t74 20l12 -54q-33 -14 -79 -22t-91 -8q-80 0 -143.5 26t-107 72.5t-66.5 109.5t-23 137t23 137t66.5 109.5t107 72.5t143.5 26z" />
    <glyph glyph-name="D" unicode="D" horiz-adv-x="671" 
d="M85 666h165q84 0 154 -24.5t120 -68.5t77.5 -105.5t27.5 -134.5q0 -74 -27.5 -135t-77.5 -105t-120 -68.5t-154 -24.5h-165v666zM251 56q64 0 120.5 18t98.5 53.5t66.5 87t24.5 118.5t-24.5 118.5t-66.5 86.5t-98.5 53.5t-120.5 18.5h-98v-554h98z" />
    <glyph glyph-name="E" unicode="E" horiz-adv-x="500" 
d="M85 666h356v-56h-288v-241h276v-56h-276v-257h291v-56h-359v666z" />
    <glyph glyph-name="F" unicode="F" horiz-adv-x="480" 
d="M85 0v666h358v-57h-290v-254h278v-57h-278v-298h-68z" />
    <glyph glyph-name="G" unicode="G" horiz-adv-x="674" 
d="M397 678q54 0 104 -8.5t92 -28.5l-12 -55q-41 17 -88 26.5t-95 9.5q-65 0 -117.5 -19.5t-90 -57.5t-58 -93t-20.5 -126q0 -134 73.5 -208.5t213.5 -74.5q32 0 71.5 5t65.5 13v226h63v-265q-40 -16 -97 -25t-111 -9q-81 0 -145 24.5t-109 69t-69 107t-24 137.5
q0 80 24.5 145t70.5 111t111.5 71t146.5 25z" />
    <glyph glyph-name="H" unicode="H" horiz-adv-x="686" 
d="M533 0v308h-380v-308h-68v666h68v-299h380v299h68v-666h-68z" />
    <glyph glyph-name="I" unicode="I" horiz-adv-x="248" 
d="M158 0h-68v666h68v-666z" />
    <glyph glyph-name="J" unicode="J" horiz-adv-x="238" 
d="M158 152q-1 -45 -5.5 -83t-17 -74t-34.5 -72t-58 -75l-49 39q51 58 73.5 117.5t22.5 134.5v527h68v-514v0z" />
    <glyph glyph-name="K" unicode="K" horiz-adv-x="567" 
d="M85 0v666h68v-324l293 324h85l-299 -330l325 -336h-92l-312 331v-331h-68z" />
    <glyph glyph-name="L" unicode="L" horiz-adv-x="458" 
d="M153 666v-610h281v-56h-349v666h68z" />
    <glyph glyph-name="M" unicode="M" horiz-adv-x="838" 
d="M171 553l-36 -553h-66l48 666h63l239 -480l239 480h63l48 -666h-66l-36 553l-211 -428h-74z" />
    <glyph glyph-name="N" unicode="N" horiz-adv-x="695" 
d="M545 0l-395 557v-557h-65v666h65l395 -557v557h65v-666h-65z" />
    <glyph glyph-name="O" unicode="O" horiz-adv-x="730" 
d="M365 -12q-76 0 -135.5 28t-100 75.5t-62 110t-21.5 131.5t21.5 131.5t62 110t100 75.5t135.5 28t135.5 -28t100 -75.5t62 -110t21.5 -131.5t-21.5 -131.5t-62 -110t-100 -75.5t-135.5 -28zM365 44q60 0 106.5 23t79 62t49 91.5t16.5 112.5q0 59 -16.5 111.5t-49 92
t-79 62.5t-106.5 23t-106.5 -23t-78.5 -62.5t-49 -92t-17 -111.5q0 -60 17 -112.5t49 -91.5t78.5 -62t106.5 -23z" />
    <glyph glyph-name="P" unicode="P" horiz-adv-x="496" 
d="M477 476q0 -48 -20 -86t-55.5 -64t-84 -40t-106.5 -14h-58v-272h-68v666h149q50 0 94.5 -12t77.5 -36t52 -59.5t19 -82.5zM409 476q0 36 -14.5 61.5t-39.5 41.5t-57 23.5t-67 7.5h-78v-282h61q42 0 78 10t62 28.5t40.5 46t14.5 63.5z" />
    <glyph glyph-name="Q" unicode="Q" horiz-adv-x="730" 
d="M365 -12q-76 0 -135.5 28t-100 75.5t-62 110t-21.5 131.5t21.5 131.5t62 110t100 75.5t135.5 28t135.5 -28t100 -75.5t62 -110t21.5 -131.5q0 -51 -12 -99t-34.5 -89t-56 -73.5t-76.5 -53.5l174 -107l-33 -51l-213 135q-12 -3 -31 -5t-37 -2zM365 44q60 0 106.5 23t79 62
t49 91.5t16.5 112.5q0 59 -16.5 111.5t-49 92t-79 62.5t-106.5 23t-106.5 -23t-78.5 -62.5t-49 -92t-17 -111.5q0 -60 17 -112.5t49 -91.5t78.5 -62t106.5 -23z" />
    <glyph glyph-name="R" unicode="R" horiz-adv-x="558" 
d="M489 483q0 -40 -14.5 -71.5t-39 -55t-57.5 -40t-69 -25.5l239 -291h-83l-226 280q-8 -1 -18.5 -1.5t-19.5 -0.5h-48v-278h-68v666h160q49 0 93.5 -11t78 -34t53 -57.5t19.5 -80.5zM421 481q0 35 -15 59.5t-40 40t-57 22.5t-66 7h-90v-276h54q43 0 82 9t68.5 27t46.5 45.5
t17 65.5z" />
    <glyph glyph-name="S" unicode="S" horiz-adv-x="499" 
d="M456 170q0 -41 -16.5 -74.5t-46 -57.5t-70.5 -37t-90 -13q-48 0 -97.5 10.5t-87.5 28.5l15 55q40 -18 82 -28t86 -10q72 0 115 33t43 90q0 31 -12.5 54t-34 41t-49.5 32.5t-58 28.5q-33 16 -64.5 33.5t-56 39.5t-39.5 50t-15 65q0 41 16 72.5t43 52.5t63.5 31.5
t78.5 10.5q46 0 89 -9t78 -26l-14 -57q-35 17 -74.5 26.5t-77.5 9.5q-62 0 -98.5 -26t-36.5 -80q0 -26 7.5 -44t23.5 -32t40.5 -27.5t58.5 -30.5t69 -35.5t64 -43t47.5 -56.5t18.5 -77z" />
    <glyph glyph-name="T" unicode="T" horiz-adv-x="518" 
d="M494 666v-56h-201v-610h-68v610h-201v56h470z" />
    <glyph glyph-name="U" unicode="U" horiz-adv-x="674" 
d="M523 666h68v-435q0 -50 -16 -94t-48 -77t-79.5 -52.5t-110.5 -19.5t-110.5 19.5t-79.5 52.5t-48 77t-16 94v435h68v-439q0 -82 47.5 -132.5t138.5 -50.5t138.5 50.5t47.5 132.5v439z" />
    <glyph glyph-name="V" unicode="V" horiz-adv-x="576" 
d="M494 666h67l-239 -666h-68l-239 666h67l206 -583z" />
    <glyph glyph-name="W" unicode="W" horiz-adv-x="920" 
d="M670 94l157 572h68l-191 -666h-67l-177 602l-177 -602h-67l-191 666h68l157 -572l168 572h84z" />
    <glyph glyph-name="X" unicode="X" horiz-adv-x="590" 
d="M478 666h75l-223 -331l227 -335h-76l-186 282l-186 -282h-76l227 335l-223 331h75l183 -277z" />
    <glyph glyph-name="Y" unicode="Y" horiz-adv-x="520" 
d="M226 269l-218 397h72l180 -335l180 335h72l-218 -397v-269h-68v269z" />
    <glyph glyph-name="Z" unicode="Z" horiz-adv-x="539" 
d="M67 666h418v-56l-358 -554h364v-56h-436v56l358 554h-346v56z" />
    <glyph glyph-name="bracketleft" unicode="[" horiz-adv-x="356" 
d="M105 -176v912h186v-56h-119v-801h119v-55h-186z" />
    <glyph glyph-name="backslash" unicode="\" horiz-adv-x="413" 
d="M358 -80l-56 -20l-252 766l56 19z" />
    <glyph glyph-name="bracketright" unicode="]" horiz-adv-x="356" 
d="M65 -176v55h119v801h-119v56h186v-912h-186z" />
    <glyph glyph-name="asciicircum" unicode="^" horiz-adv-x="500" 
d="M435 345l-51 -24l-134 288l-134 -288l-51 24l155 321h60z" />
    <glyph glyph-name="underscore" unicode="_" horiz-adv-x="405" 
d="M-2 -250v36h409v-36h-409z" />
    <glyph glyph-name="grave" unicode="`" horiz-adv-x="389" 
d="M212 554l-92 156h80l69 -156h-57z" />
    <glyph glyph-name="a" unicode="a" horiz-adv-x="493" 
d="M354 65q-11 -12 -27.5 -25.5t-37.5 -24.5t-46.5 -18t-53.5 -7q-65 0 -99 36t-34 93q0 34 12.5 59t34.5 41.5t52.5 25.5t66.5 11q32 2 65 3l66 2v31q0 72 -29.5 105.5t-91.5 33.5q-36 0 -66.5 -8t-59.5 -26l-17 51q28 17 66 28t86 11q39 0 72 -11.5t56.5 -35.5t37 -60
t13.5 -85v-295h-66v65zM204 42q43 0 82 22t67 54v95q-33 -1 -64.5 -3t-58.5 -4q-47 -5 -77.5 -24.5t-30.5 -62.5q0 -77 82 -77z" />
    <glyph glyph-name="b" unicode="b" horiz-adv-x="532" 
d="M80 706h67v-275q20 22 57.5 39t84.5 17q46 0 83 -18.5t62.5 -51t39 -77.5t13.5 -97q0 -55 -16 -101.5t-47.5 -80t-77 -52.5t-104.5 -19q-88 0 -162 31v685zM274 432q-38 0 -71 -15.5t-56 -36.5v-320q37 -15 95 -15q88 0 133 53t45 143q0 40 -8.5 74.5t-26.5 60.5
t-45.5 41t-65.5 15z" />
    <glyph glyph-name="c" unicode="c" horiz-adv-x="446" 
d="M275 486q35 0 69.5 -7t59.5 -19l-9 -53q-26 11 -56 17.5t-59 6.5q-44 0 -76 -14t-53 -39.5t-31 -61t-10 -78.5t10 -78.5t31 -61t53 -39.5t76 -14q29 0 58.5 6.5t55.5 17.5l10 -53q-25 -12 -61.5 -19t-67.5 -7q-60 0 -104 20t-72.5 54.5t-42 79t-13.5 94.5q0 49 13.5 94
t42 79.5t72.5 54.5t104 20z" />
    <glyph glyph-name="d" unicode="d" horiz-adv-x="532" 
d="M452 0h-63v69q-23 -31 -64 -55t-96 -24q-44 0 -78 18.5t-57.5 51t-36 77.5t-12.5 98q0 59 17.5 105.5t49.5 79t76.5 50t97.5 17.5q30 0 53 -3.5t46 -10.5v233h67v-706zM247 45q47 0 81 24.5t57 51.5v296q-20 8 -43.5 11.5t-49.5 3.5q-39 0 -72 -12t-57 -37t-37.5 -62
t-13.5 -86q0 -86 32 -138t103 -52z" />
    <glyph glyph-name="e" unicode="e" horiz-adv-x="478" 
d="M255 487q47 0 80.5 -15.5t55.5 -42.5t32 -63t10 -77q0 -32 -6 -66h-314q1 -88 42 -134t123 -46q38 0 74 8.5t65 22.5l11 -50q-31 -15 -72.5 -24.5t-84.5 -9.5q-57 0 -99.5 19t-70.5 52.5t-42 79t-14 97.5q0 54 14.5 99.5t41.5 79t66 52t88 18.5zM252 436q-33 0 -58.5 -14
t-43 -36.5t-27 -51t-10.5 -58.5h256q6 69 -23 114.5t-94 45.5z" />
    <glyph glyph-name="f" unicode="f" horiz-adv-x="344" 
d="M119 0v422h-87v55h87v29q0 210 176 210q21 0 41 -3t36 -9l-7 -54q-13 5 -30 7.5t-34 2.5q-62 0 -88.5 -36.5t-26.5 -115.5v-31h145v-55h-145v-422h-67z" />
    <glyph glyph-name="g" unicode="g" horiz-adv-x="500" 
d="M238 164q-21 0 -39 3q-10 -8 -17 -19.5t-7 -24.5q0 -20 15 -30t44 -12l94 -8q34 -3 63 -11.5t50 -22.5t32.5 -35t11.5 -49q0 -40 -22 -71.5t-58.5 -53.5t-83.5 -34t-96 -12q-44 0 -80.5 8.5t-63 24t-41.5 39t-15 53.5q0 29 14.5 51.5t35.5 38t45.5 25.5t44.5 15
q-54 21 -54 70q0 26 16 43t35 25q-47 17 -77 54.5t-30 93.5q0 36 14 65.5t38.5 51t58 33.5t72.5 12q18 0 34.5 -2.5t32.5 -7.5h178v-53h-99q17 -17 27.5 -43t10.5 -56q0 -33 -13.5 -62.5t-38 -51.5t-58.5 -34.5t-74 -12.5zM222 28q-25 -9 -49 -19.5t-42.5 -24t-30 -30.5
t-11.5 -39q0 -43 37 -62.5t99 -19.5q37 0 72.5 8.5t63 23.5t44 36t16.5 47q0 38 -30.5 53.5t-80.5 19.5zM238 214q52 0 87.5 29t35.5 82q0 54 -35 83t-88 29t-87.5 -27.5t-34.5 -84.5q0 -56 34 -83.5t88 -27.5z" />
    <glyph glyph-name="h" unicode="h" horiz-adv-x="543" 
d="M80 0v706h67v-294q26 34 66 54.5t88 20.5q44 0 75.5 -19t52 -51t30 -74.5t9.5 -89.5v-253h-67v248q0 40 -6 73.5t-20 58t-37 38t-57 13.5q-42 0 -76.5 -22.5t-57.5 -51.5v-357h-67z" />
    <glyph glyph-name="i" unicode="i" horiz-adv-x="227" 
d="M80 0v477h67v-477h-67zM67 622q0 20 13 33.5t33 13.5q21 0 34 -13.5t13 -33.5q0 -19 -13 -32.5t-34 -13.5q-20 0 -33 13.5t-13 32.5z" />
    <glyph glyph-name="j" unicode="j" horiz-adv-x="230" 
d="M-22 -179q27 31 47 62t33.5 64.5t20 72t6.5 83.5v374h67v-364q0 -47 -6.5 -90.5t-21 -84t-38.5 -79t-60 -75.5zM72 622q0 20 13 33.5t33 13.5q21 0 34 -13.5t13 -33.5q0 -19 -13 -32.5t-34 -13.5q-20 0 -33 13.5t-13 32.5z" />
    <glyph glyph-name="k" unicode="k" horiz-adv-x="473" 
d="M80 0v706h67v-456l207 227h82l-215 -234l238 -243h-85l-227 236v-236h-67z" />
    <glyph glyph-name="l" unicode="l" horiz-adv-x="275" 
d="M145 114q0 -30 11 -49t45 -19q13 0 24 1t22 5l3 -50q-28 -10 -65 -10q-56 0 -81.5 33.5t-25.5 84.5v596h67v-592z" />
    <glyph glyph-name="m" unicode="m" horiz-adv-x="852" 
d="M592 431q-45 0 -78.5 -25t-62.5 -59q5 -18 8 -43t3 -51v-253h-67v248q0 39 -5.5 72t-19 58t-36.5 39t-57 14q-39 0 -73 -22.5t-57 -51.5v-357h-67v477h63v-69q24 35 65 57t90 22q50 0 83.5 -25t53.5 -68q30 41 72 67t102 26q45 0 76.5 -18.5t52 -50t30 -74t9.5 -91.5
v-253h-67v248q0 39 -5.5 72t-19 58t-36.5 39t-57 14z" />
    <glyph glyph-name="n" unicode="n" horiz-adv-x="543" 
d="M80 0v477h63v-69q29 38 68.5 58.5t89.5 20.5q44 0 75.5 -19t52 -51t30 -74.5t9.5 -89.5v-253h-67v248q0 40 -6 73.5t-20 58t-37 38t-57 13.5q-42 0 -76.5 -22.5t-57.5 -51.5v-357h-67z" />
    <glyph glyph-name="o" unicode="o" horiz-adv-x="538" 
d="M493 238q0 -49 -14.5 -94t-43 -79t-70.5 -54.5t-96 -20.5t-96 20.5t-70.5 54.5t-43 79t-14.5 94t14.5 94.5t43 79.5t70.5 54.5t96 20.5t96 -20.5t70.5 -54.5t43 -79.5t14.5 -94.5zM426 238q0 40 -10 76t-29.5 62t-49 41.5t-68.5 15.5t-68.5 -15.5t-49 -41.5t-29.5 -62
t-10 -76q0 -41 10 -76t29.5 -61.5t49 -41.5t68.5 -15t68.5 15t49 41.5t29.5 61.5t10 76z" />
    <glyph glyph-name="p" unicode="p" horiz-adv-x="532" 
d="M80 477h63v-66q26 31 64 53.5t94 22.5q46 0 81 -19t58.5 -52t35 -77.5t11.5 -96.5q0 -58 -17 -104.5t-48.5 -79.5t-76 -50.5t-99.5 -17.5q-30 0 -53 3.5t-46 10.5v-210h-67v683zM285 432q-44 0 -79.5 -24.5t-58.5 -51.5v-296q20 -8 43.5 -11.5t49.5 -3.5q88 0 134 51
t46 146q0 42 -8 77t-24.5 60t-42 39t-60.5 14z" />
    <glyph glyph-name="q" unicode="q" horiz-adv-x="531" 
d="M452 -206h-67v252q-21 -22 -58 -39t-84 -17q-46 0 -83 19t-62.5 52t-39 77.5t-13.5 95.5q0 56 16 102.5t47.5 80t77 52t104.5 18.5q45 0 88 -8.5t74 -22.5v-662zM258 45q38 0 70 14.5t57 37.5v320q-18 7 -41.5 11t-53.5 4q-88 0 -133 -53.5t-45 -142.5q0 -41 8.5 -76
t26.5 -60.5t45.5 -40t65.5 -14.5z" />
    <glyph glyph-name="r" unicode="r" horiz-adv-x="348" 
d="M334 422h-19q-56 0 -99 -23t-69 -71v-328h-67v477h63v-95q19 45 60 72.5t98 27.5q20 0 33 -5v-55z" />
    <glyph glyph-name="s" unicode="s" horiz-adv-x="424" 
d="M378 130q0 -32 -13.5 -58t-37.5 -44t-57 -28t-72 -10q-17 0 -36.5 2t-38.5 5.5t-36.5 9t-30.5 11.5l12 54q27 -12 59 -20t70 -8q48 0 81.5 20t33.5 60q0 20 -9 34t-23.5 25t-33.5 19.5t-39 17.5q-24 10 -49.5 22.5t-46.5 29t-34.5 38.5t-13.5 52q0 32 12.5 55.5t34.5 39
t51 23t62 7.5q39 0 74 -9t62 -23l-13 -54q-29 15 -60 23.5t-63 8.5q-42 0 -68 -15t-26 -50q0 -19 9 -31.5t23 -22.5t31.5 -17.5t35.5 -16.5q20 -10 46 -21.5t49 -29t39 -41.5t16 -58z" />
    <glyph glyph-name="t" unicode="t" horiz-adv-x="380" 
d="M25 477h87v127h67v-127h162v-55h-162v-265q0 -27 3 -48t12 -35.5t24.5 -21.5t40.5 -7q21 0 41.5 4t37.5 10l6 -51q-15 -7 -43 -12.5t-54 -5.5q-38 0 -63.5 12.5t-41.5 35t-23 53.5t-7 67v264h-87v55z" />
    <glyph glyph-name="u" unicode="u" horiz-adv-x="535" 
d="M455 477v-477h-63v69q-29 -38 -68.5 -58.5t-89.5 -20.5q-43 0 -74 19t-50.5 51t-29 74.5t-9.5 89.5v253h67v-248q0 -42 5.5 -76t19 -57.5t35.5 -36.5t56 -13q42 0 76.5 22.5t57.5 51.5v357h67z" />
    <glyph glyph-name="v" unicode="v" horiz-adv-x="454" 
d="M20 477h70l137 -406l137 406h70l-172 -477h-70z" />
    <glyph glyph-name="w" unicode="w" horiz-adv-x="738" 
d="M537 84l109 393h67l-144 -477h-63l-137 416l-137 -416h-63l-144 477h67l109 -393l130 393h76z" />
    <glyph glyph-name="x" unicode="x" horiz-adv-x="482" 
d="M377 477h75l-176 -236l180 -241h-75l-140 193l-140 -193h-75l180 241l-176 236h75l136 -189z" />
    <glyph glyph-name="y" unicode="y" horiz-adv-x="443" 
d="M117 -206l72 203l-172 480h70l136 -406l134 406h69l-243 -683h-66z" />
    <glyph glyph-name="z" unicode="z" horiz-adv-x="445" 
d="M60 0v55l262 367h-249v55h321v-55l-262 -367h268v-55h-340z" />
    <glyph glyph-name="braceleft" unicode="{" horiz-adv-x="398" 
d="M226 -8q0 -59 20 -85.5t73 -26.5h24v-56h-25q-80 0 -119.5 39.5t-39.5 130.5v160q0 51 -19.5 75t-67.5 24h-22v54h22q48 0 67.5 24t19.5 75v160q0 91 39.5 130.5t119.5 39.5h25v-56h-24q-53 0 -73 -27t-20 -85v-153q0 -52 -20 -86.5t-76 -48.5q56 -14 76 -48.5t20 -86.5
v-153z" />
    <glyph glyph-name="bar" unicode="|" horiz-adv-x="256" 
d="M100 -250v1000h56v-1000h-56z" />
    <glyph glyph-name="braceright" unicode="}" horiz-adv-x="398" 
d="M172 145q0 52 20 86.5t76 48.5q-56 14 -76 48.5t-20 86.5v153q0 58 -20 85t-73 27h-24v56h25q80 0 119.5 -39.5t39.5 -130.5v-160q0 -51 19.5 -75t67.5 -24h22v-54h-22q-48 0 -67.5 -24t-19.5 -75v-160q0 -91 -39.5 -130.5t-119.5 -39.5h-25v56h24q53 0 73 26.5t20 85.5
v153z" />
    <glyph glyph-name="asciitilde" unicode="~" horiz-adv-x="570" 
d="M510 386q-25 -59 -52 -85t-70 -26q-28 0 -54 12.5t-53 26.5l-47 23.5t-44 11.5q-16 0 -26.5 -5.5t-18.5 -15.5t-15 -25.5t-17 -34.5l-48 23q22 62 50.5 88t75.5 26q31 0 55.5 -11.5t54.5 -27.5l45.5 -24.5t43.5 -10.5q25 0 39 18.5t34 60.5z" />
    <glyph glyph-name="uni00A0" unicode="&#xa0;" horiz-adv-x="200" 
 />
    <glyph glyph-name="exclamdown" unicode="&#xa1;" horiz-adv-x="298" 
d="M184 19v-206h-70v206l15 292h40zM100 438q0 20 13.5 34.5t35.5 14.5t35.5 -14.5t13.5 -34.5t-13.5 -34.5t-35.5 -14.5t-35.5 14.5t-13.5 34.5z" />
    <glyph glyph-name="cent" unicode="&#xa2;" horiz-adv-x="493" 
d="M255 687h61v-116q28 -2 56 -7.5t51 -16.5l-10 -53q-25 10 -53 15.5t-57 5.5q-84 0 -125.5 -50.5t-41.5 -131.5q0 -82 41.5 -132.5t125.5 -50.5q30 0 58 5.5t52 15.5l10 -52q-20 -9 -50 -15.5t-57 -8.5v-117h-61v120q-46 7 -80.5 28t-58 52t-35 70.5t-11.5 84.5t11.5 84.5
t35 70.5t58 51.5t80.5 28.5v119z" />
    <glyph glyph-name="sterling" unicode="&#xa3;" horiz-adv-x="530" 
d="M408 278h-172q-3 -67 -31.5 -123t-78.5 -100h324v-55h-381l-14 50q51 48 80 103t34 125h-107v54h109v118q0 107 46.5 167.5t140.5 60.5q36 0 67.5 -7t54.5 -19l-12 -53q-49 23 -105 23q-65 0 -95 -42.5t-30 -130.5v-117h170v-54z" />
    <glyph glyph-name="currency" unicode="&#xa4;" horiz-adv-x="627" 
d="M512 591l40 -38l-85 -85q25 -26 39 -61t14 -74q0 -40 -14 -75t-39 -62l85 -84l-40 -38l-88 87q-47 -32 -110 -32q-64 0 -111 32l-88 -87l-40 38l84 84q-24 28 -38 62.5t-14 74.5q0 38 14 73t38 62l-84 85l40 38l88 -87q23 15 51 23.5t60 8.5q31 0 59 -8.5t51 -23.5z
M165 333q0 -32 10.5 -60t29.5 -49.5t46.5 -34t62.5 -12.5q34 0 61.5 12.5t46.5 34t29.5 49.5t10.5 60q0 31 -10.5 59.5t-29.5 50t-46.5 34t-61.5 12.5q-35 0 -62.5 -12.5t-46.5 -34t-29.5 -50t-10.5 -59.5z" />
    <glyph glyph-name="yen" unicode="&#xa5;" horiz-adv-x="535" 
d="M409 666h71l-130 -288h109v-50h-131l-27 -59v-61h158v-49h-158v-159h-67v159h-158v49h158v61l-27 59h-131v50h109l-130 288h71l141 -333z" />
    <glyph glyph-name="brokenbar" unicode="&#xa6;" horiz-adv-x="256" 
d="M156 369h-56v381h56v-381zM100 -250v381h56v-381h-56z" />
    <glyph glyph-name="section" unicode="&#xa7;" horiz-adv-x="606" 
d="M363 716q33 0 65 -4.5t53 -13.5l-7 -45q-26 8 -48.5 12t-51.5 4q-52 0 -85 -27t-33 -86q0 -27 7.5 -49t22 -43t35.5 -41.5t47 -43.5q31 -27 63 -57t57.5 -63.5t41.5 -73t16 -85.5q0 -57 -25 -102.5t-66 -77.5t-94 -49t-110 -17q-35 0 -69 5t-63 15l8 45q26 -8 55 -13.5
t63 -5.5q59 0 90 31t31 85q0 31 -13 57t-34.5 50.5t-49 48.5t-56.5 51q-32 29 -57.5 57.5t-43.5 58.5t-27.5 62t-9.5 69q0 57 21.5 103t59.5 77.5t91 48.5t116 17zM252 659q-58 -29 -90 -74t-32 -112q0 -33 9 -61t25 -53t38.5 -49t49.5 -50q28 -27 58 -53.5t55 -55t40.5 -61
t15.5 -69.5q0 -30 -13.5 -58.5t-30.5 -45.5q50 28 82 70t32 105q0 39 -11.5 71t-32.5 60.5t-49 55.5t-61 56q-31 27 -56 52t-43 50.5t-27.5 53t-9.5 59.5q0 37 14.5 64.5t36.5 44.5z" />
    <glyph glyph-name="dieresis" unicode="&#xa8;" horiz-adv-x="512" 
d="M214 628q0 -21 -13.5 -34.5t-34.5 -13.5q-20 0 -33 13.5t-13 34.5q0 20 13 33t33 13q21 0 34.5 -13t13.5 -33zM392 628q0 -21 -13.5 -34.5t-34.5 -13.5q-20 0 -33 13.5t-13 34.5q0 20 13 33t33 13q21 0 34.5 -13t13.5 -33z" />
    <glyph glyph-name="copyright" unicode="&#xa9;" horiz-adv-x="832" 
d="M762 333q0 -71 -25 -133.5t-70.5 -109.5t-109 -74.5t-141.5 -27.5t-141.5 27.5t-109 74.5t-70.5 109.5t-25 133.5t25 134t70.5 110t109 74t141.5 27t141.5 -27t109 -74t70.5 -110t25 -134zM105 333q0 -65 22 -122t63 -100t98 -68t128 -25q70 0 127.5 25t98.5 68t63 100
t22 122q0 64 -22 121.5t-63 100.5t-98.5 68t-127.5 25q-71 0 -128 -25t-98 -68t-63 -100.5t-22 -121.5zM438 529q23 0 51 -4.5t48 -13.5l-8 -43q-41 15 -87 15q-71 0 -107 -39.5t-36 -110.5t36 -110.5t107 -39.5q46 0 87 15l8 -43q-20 -9 -48 -13.5t-51 -4.5
q-47 0 -82.5 14.5t-60.5 41t-37.5 62.5t-12.5 78t12.5 78t37.5 62.5t60.5 41t82.5 14.5z" />
    <glyph glyph-name="ordfeminine" unicode="&#xaa;" horiz-adv-x="447" 
d="M70 252h307v-49h-307v49zM297 373q-20 -20 -50 -35t-67 -15q-46 0 -72.5 24.5t-26.5 66.5q0 48 32.5 71.5t81.5 28.5q24 2 53 3.5t48 1.5v17q0 50 -21 71t-62 21q-23 0 -49 -6.5t-46 -17.5l-11 45q23 13 51.5 20t63.5 7q58 0 95.5 -33.5t37.5 -103.5v-208h-58v42z
M193 367q28 0 54.5 13.5t48.5 34.5v65q-21 -2 -42.5 -4t-41.5 -4q-32 -4 -52 -16.5t-20 -41.5q0 -47 53 -47z" />
    <glyph glyph-name="guillemotleft" unicode="&#xab;" horiz-adv-x="551" 
d="M126 240l135 -170l-44 -35l-162 205l162 205l44 -35zM341 240l135 -170l-44 -35l-162 205l162 205l44 -35z" />
    <glyph glyph-name="logicalnot" unicode="&#xac;" horiz-adv-x="611" 
d="M472 89v209h-392v51h451v-260h-59z" />
    <glyph glyph-name="registered" unicode="&#xae;" horiz-adv-x="566" 
d="M65 462q0 44 15.5 83.5t44 69t69 46.5t89.5 17t89.5 -17t69 -46.5t44 -69t15.5 -83.5t-15.5 -83t-44 -68.5t-69 -47t-89.5 -17.5t-89.5 17.5t-69 47t-44 68.5t-15.5 83zM472 462q0 39 -13.5 73.5t-38.5 61t-59.5 41.5t-77.5 15t-78 -15t-59.5 -41.5t-38 -61t-13.5 -73.5
t13.5 -74t38 -61t59.5 -41t78 -15t77.5 15t59.5 41t38.5 61t13.5 74zM365 516q0 -25 -14.5 -40.5t-35.5 -22.5l75 -94h-48l-66 86h-20v-86h-38v219h70q32 0 54.5 -16.5t22.5 -45.5zM327 514q0 17 -13 25t-31 8h-27v-71h14q26 0 41.5 9t15.5 29z" />
    <glyph glyph-name="macron" unicode="&#xaf;" horiz-adv-x="498" 
d="M120 646h258v-54h-258v54z" />
    <glyph glyph-name="degree" unicode="&#xb0;" horiz-adv-x="400" 
d="M75 557q0 24 8.5 46t24.5 38.5t39 26.5t53 10t53 -10t39 -26.5t24.5 -38.5t8.5 -46t-8.5 -46.5t-24.5 -39t-39 -26.5t-53 -10t-53 10t-39 26.5t-24.5 39t-8.5 46.5zM277 557q0 30 -18.5 55.5t-58.5 25.5q-20 0 -34.5 -7t-24 -18.5t-14 -26t-4.5 -29.5t4.5 -29.5t14 -26.5
t24 -19t34.5 -7t34.5 7t24 19t14 26.5t4.5 29.5z" />
    <glyph glyph-name="plusminus" unicode="&#xb1;" horiz-adv-x="611" 
d="M335 322v-186h-59v186h-196v50h196v185h59v-185h196v-50h-196zM80 51h451v-51h-451v51z" />
    <glyph glyph-name="twosuperior" unicode="&#xb2;" horiz-adv-x="354" 
d="M62 791q22 14 51 22t61 8q63 0 97 -32.5t34 -83.5q0 -30 -9.5 -54.5t-25 -45.5t-36.5 -39.5t-44 -37.5t-41 -33t-35 -27h205v-48h-274l-12 39q32 26 61.5 50.5t58.5 50.5q18 16 35 32t29.5 33t20.5 36t8 40q0 34 -20.5 53t-58.5 19q-24 0 -46 -7.5t-44 -19.5z" />
    <glyph glyph-name="threesuperior" unicode="&#xb3;" horiz-adv-x="348" 
d="M303 524q0 -26 -11 -47t-31 -36t-47.5 -23t-60.5 -8q-27 0 -57.5 6.5t-50.5 17.5l11 45q23 -11 45.5 -16.5t48.5 -5.5q45 0 69.5 17.5t24.5 49.5q0 19 -8.5 32t-23.5 21.5t-34.5 12.5t-41.5 4h-47v49h41q50 0 77.5 21t27.5 51t-21.5 44t-56.5 14q-45 0 -88 -22l-12 45
q45 25 109 25q56 0 91.5 -25.5t35.5 -73.5q0 -71 -84 -100q44 -11 69 -34t25 -64z" />
    <glyph glyph-name="acute" unicode="&#xb4;" horiz-adv-x="389" 
d="M120 554l69 156h80l-92 -156h-57z" />
    <glyph glyph-name="mu" unicode="&#xb5;" horiz-adv-x="596" 
d="M80 477h67v-248q0 -41 5.5 -75t18.5 -58t35.5 -37.5t56.5 -13.5q39 0 73 21t61 53v358h67v-352q0 -18 3 -33t10.5 -26.5t21 -17.5t35.5 -6h19v-41q-11 -3 -22 -5t-25 -2q-42 0 -67 22t-35 57q-29 -38 -68 -60.5t-89 -22.5q-48 0 -78 28t-41 64q9 -40 14 -83t5 -89v-116
h-67v683z" />
    <glyph glyph-name="paragraph" unicode="&#xb6;" horiz-adv-x="560" 
d="M416 -140v755h-122v-420q-53 0 -96.5 16.5t-74 47.5t-47 74t-16.5 96q0 57 19 101.5t51.5 74.5t74.5 45.5t88 15.5h182v-806h-59z" />
    <glyph glyph-name="periodcentered" unicode="&#xb7;" horiz-adv-x="248" 
d="M75 250q0 20 13.5 34.5t35.5 14.5t35.5 -14.5t13.5 -34.5t-13.5 -34.5t-35.5 -14.5t-35.5 14.5t-13.5 34.5z" />
    <glyph glyph-name="cedilla" unicode="&#xb8;" horiz-adv-x="389" 
d="M269 -124q0 -21 -11 -36.5t-29 -26.5t-42.5 -18t-51.5 -11l-12 44q16 3 31 7t27 10t19 13.5t7 17.5q0 11 -7.5 18.5t-20 13t-28 9t-31.5 6.5l31 77h51l-18 -50q14 -2 29 -7t27.5 -14t20.5 -22t8 -31z" />
    <glyph glyph-name="onesuperior" unicode="&#xb9;" horiz-adv-x="255" 
d="M126 420v331l-89 -29l-14 47l120 42h42v-391h-59z" />
    <glyph glyph-name="ordmasculine" unicode="&#xba;" horiz-adv-x="476" 
d="M85 252h307v-49h-307v49zM406 499q0 -35 -11 -66.5t-32 -56t-52.5 -39t-72.5 -14.5t-72 14.5t-52.5 39t-32.5 56t-11 66.5t11 67t32.5 56.5t52.5 39t72 14.5t72.5 -14.5t52.5 -39t32 -56.5t11 -67zM128 499q0 -27 7 -50.5t21 -41t34.5 -27.5t47.5 -10t47.5 10t34.5 27.5
t21 41t7 50.5q0 54 -28 92t-82 38t-82 -38t-28 -92z" />
    <glyph glyph-name="guillemotright" unicode="&#xbb;" horiz-adv-x="551" 
d="M290 410l44 35l162 -205l-162 -205l-44 35l135 170zM75 410l44 35l162 -205l-162 -205l-44 35l135 170z" />
    <glyph glyph-name="onequarter" unicode="&#xbc;" horiz-adv-x="804" 
d="M540 678l44 -23l-355 -667l-43 23zM163 275v331l-89 -29l-14 47l120 42h42v-391h-59zM690 106v-106h-56v106h-194l-10 39l203 246h57v-239h59v-46h-59zM634 323l-138 -171h138v171z" />
    <glyph glyph-name="onehalf" unicode="&#xbd;" horiz-adv-x="858" 
d="M540 678l44 -23l-355 -667l-43 23zM163 275v331l-89 -29l-14 47l120 42h42v-391h-59zM526 371q22 14 51 22t61 8q63 0 97 -32.5t34 -83.5q0 -30 -9.5 -54.5t-25 -45.5t-36.5 -39.5t-44 -37.5t-41 -33t-35 -27h205v-48h-274l-12 39q32 26 61.5 50.5t58.5 50.5q18 16 35 32
t29.5 33t20.5 36t8 40q0 34 -20.5 53t-58.5 19q-24 0 -46 -7.5t-44 -19.5z" />
    <glyph glyph-name="threequarters" unicode="&#xbe;" horiz-adv-x="859" 
d="M595 678l44 -23l-355 -667l-43 23zM745 106v-106h-56v106h-194l-10 39l203 246h57v-239h59v-46h-59zM689 323l-138 -171h138v171zM333 379q0 -26 -11 -47t-31 -36t-47.5 -23t-60.5 -8q-27 0 -57.5 6.5t-50.5 17.5l11 45q23 -11 45.5 -16.5t48.5 -5.5q45 0 69.5 17.5
t24.5 49.5q0 19 -8.5 32t-23.5 21.5t-34.5 12.5t-41.5 4h-47v49h41q50 0 77.5 21t27.5 51t-21.5 44t-56.5 14q-45 0 -88 -22l-12 45q45 25 109 25q56 0 91.5 -25.5t35.5 -73.5q0 -71 -84 -100q44 -11 69 -34t25 -64z" />
    <glyph glyph-name="questiondown" unicode="&#xbf;" horiz-adv-x="452" 
d="M60 -26q0 51 22.5 95.5t58 83t78 71t82.5 59.5l35 -47q-38 -27 -75 -55.5t-67 -60t-48.5 -67.5t-18.5 -77q0 -58 33.5 -88t89.5 -30q35 0 64.5 9t63.5 27l19 -53q-65 -40 -152 -40q-85 0 -135 46t-50 127zM339 438q0 -20 -13.5 -34.5t-35.5 -14.5t-35.5 14.5t-13.5 34.5
t13.5 34.5t35.5 14.5t35.5 -14.5t13.5 -34.5z" />
    <glyph glyph-name="Agrave" unicode="&#xc0;" horiz-adv-x="654" 
d="M624 0h-71l-65 170h-322l-65 -170h-71l264 666h66zM327 596l-140 -370h280zM291 730l-108 111h84l83 -111h-59z" />
    <glyph glyph-name="Aacute" unicode="&#xc1;" horiz-adv-x="654" 
d="M624 0h-71l-65 170h-322l-65 -170h-71l264 666h66zM327 596l-140 -370h280zM292 730l83 111h84l-108 -111h-59z" />
    <glyph glyph-name="Acircumflex" unicode="&#xc2;" horiz-adv-x="654" 
d="M624 0h-71l-65 170h-322l-65 -170h-71l264 666h66zM327 596l-140 -370h280zM455 730h-64l-64 77l-64 -77h-64l92 111h72z" />
    <glyph glyph-name="Atilde" unicode="&#xc3;" horiz-adv-x="654" 
d="M624 0h-71l-65 170h-322l-65 -170h-71l264 666h66zM327 596l-140 -370h280zM398 740q-20 0 -40.5 9t-38.5 17q-17 8 -30 13.5t-27 5.5q-20 0 -30 -14t-21 -38l-42 19q15 45 35 65.5t57 20.5q22 0 41.5 -7.5t36.5 -15.5q16 -8 30.5 -15t28.5 -7q18 0 26.5 12.5t18.5 32.5
l42 -20q-17 -37 -35 -57.5t-52 -20.5z" />
    <glyph glyph-name="Adieresis" unicode="&#xc4;" horiz-adv-x="654" 
d="M624 0h-71l-65 170h-322l-65 -170h-71l264 666h66zM327 596l-140 -370h280zM279 789q0 -20 -12.5 -32.5t-33.5 -12.5t-33.5 12.5t-12.5 32.5t12.5 32.5t33.5 12.5t33.5 -12.5t12.5 -32.5zM466 789q0 -20 -12.5 -32.5t-33.5 -12.5t-33.5 12.5t-12.5 32.5t12.5 32.5
t33.5 12.5t33.5 -12.5t12.5 -32.5z" />
    <glyph glyph-name="Aring" unicode="&#xc5;" horiz-adv-x="654" 
d="M327 797q42 0 63 -25t21 -55q0 -22 -11 -41t-32 -30l256 -646h-71l-65 170h-322l-65 -170h-71l256 646q-22 11 -32.5 30t-10.5 41q0 30 21 55t63 25zM327 596l-140 -370h280zM371 717q0 20 -12 33t-32 13q-21 0 -33 -13t-12 -33t12 -33t33 -13q20 0 32 13t12 33z" />
    <glyph glyph-name="AE" unicode="&#xc6;" horiz-adv-x="866" 
d="M807 610h-330l32 -241h270v-56h-263l33 -257h261v-56h-317l-21 170h-294l-95 -170h-73l383 666h414v-56zM210 225h254l-46 375z" />
    <glyph glyph-name="Ccedilla" unicode="&#xc7;" horiz-adv-x="600" 
d="M458 -124q0 -21 -11 -36.5t-29 -26.5t-42.5 -18t-51.5 -11l-12 44q16 3 31 7t27 10t19 13.5t7 17.5q0 11 -7.5 18.5t-20 13t-28 9t-31.5 6.5l27 68q-69 7 -123.5 36t-92 74t-57 104.5t-19.5 127.5q0 74 23 137t66.5 109.5t107 72.5t143.5 26q45 0 91 -8t79 -22l-12 -54
q-35 13 -74 20t-77 7q-136 0 -207.5 -76.5t-71.5 -211.5t71.5 -211.5t207.5 -76.5q38 0 77 7t74 20l12 -54q-33 -14 -78 -21.5t-90 -8.5l-13 -38q14 -2 29 -7t27.5 -14t20.5 -22t8 -31z" />
    <glyph glyph-name="Egrave" unicode="&#xc8;" horiz-adv-x="500" 
d="M85 666h356v-56h-288v-241h276v-56h-276v-257h291v-56h-359v666zM257 730l-108 111h84l83 -111h-59z" />
    <glyph glyph-name="Eacute" unicode="&#xc9;" horiz-adv-x="500" 
d="M85 666h356v-56h-288v-241h276v-56h-276v-257h291v-56h-359v666zM203 730l83 111h84l-108 -111h-59z" />
    <glyph glyph-name="Ecircumflex" unicode="&#xca;" horiz-adv-x="500" 
d="M85 666h356v-56h-288v-241h276v-56h-276v-257h291v-56h-359v666zM395 730h-64l-64 77l-64 -77h-64l92 111h72z" />
    <glyph glyph-name="Edieresis" unicode="&#xcb;" horiz-adv-x="500" 
d="M85 666h356v-56h-288v-241h276v-56h-276v-257h291v-56h-359v666zM221 789q0 -20 -12.5 -32.5t-33.5 -12.5t-33.5 12.5t-12.5 32.5t12.5 32.5t33.5 12.5t33.5 -12.5t12.5 -32.5zM408 789q0 -20 -12.5 -32.5t-33.5 -12.5t-33.5 12.5t-12.5 32.5t12.5 32.5t33.5 12.5
t33.5 -12.5t12.5 -32.5z" />
    <glyph glyph-name="Igrave" unicode="&#xcc;" horiz-adv-x="248" 
d="M158 0h-68v666h68v-666zM101 730l-108 111h84l83 -111h-59z" />
    <glyph glyph-name="Iacute" unicode="&#xcd;" horiz-adv-x="248" 
d="M158 0h-68v666h68v-666zM87 730l83 111h84l-108 -111h-59z" />
    <glyph glyph-name="Icircumflex" unicode="&#xce;" horiz-adv-x="248" 
d="M158 0h-68v666h68v-666zM252 730h-64l-64 77l-64 -77h-64l92 111h72z" />
    <glyph glyph-name="Idieresis" unicode="&#xcf;" horiz-adv-x="248" 
d="M158 0h-68v666h68v-666zM77 789q0 -20 -12.5 -32.5t-33.5 -12.5t-33.5 12.5t-12.5 32.5t12.5 32.5t33.5 12.5t33.5 -12.5t12.5 -32.5zM264 789q0 -20 -12.5 -32.5t-33.5 -12.5t-33.5 12.5t-12.5 32.5t12.5 32.5t33.5 12.5t33.5 -12.5t12.5 -32.5z" />
    <glyph glyph-name="Eth" unicode="&#xd0;" horiz-adv-x="711" 
d="M50 361h75v305h165q84 0 154 -24.5t120 -68.5t77.5 -105.5t27.5 -134.5q0 -74 -27.5 -135t-77.5 -105t-120 -68.5t-154 -24.5h-165v306h-75v55zM291 56q64 0 120.5 18t98.5 53.5t66.5 87t24.5 118.5t-24.5 118.5t-66.5 86.5t-98.5 53.5t-120.5 18.5h-98v-249h195v-55
h-195v-250h98z" />
    <glyph glyph-name="Ntilde" unicode="&#xd1;" horiz-adv-x="695" 
d="M545 0l-395 557v-557h-65v666h65l395 -557v557h65v-666h-65zM421 740q-20 0 -40.5 9t-38.5 17q-17 8 -30 13.5t-27 5.5q-20 0 -30 -14t-21 -38l-42 19q15 45 35 65.5t57 20.5q22 0 41.5 -7.5t36.5 -15.5q16 -8 30.5 -15t28.5 -7q18 0 26.5 12.5t18.5 32.5l42 -20
q-17 -37 -35 -57.5t-52 -20.5z" />
    <glyph glyph-name="Ograve" unicode="&#xd2;" horiz-adv-x="730" 
d="M365 -12q-76 0 -135.5 28t-100 75.5t-62 110t-21.5 131.5t21.5 131.5t62 110t100 75.5t135.5 28t135.5 -28t100 -75.5t62 -110t21.5 -131.5t-21.5 -131.5t-62 -110t-100 -75.5t-135.5 -28zM365 44q60 0 106.5 23t79 62t49 91.5t16.5 112.5q0 59 -16.5 111.5t-49 92
t-79 62.5t-106.5 23t-106.5 -23t-78.5 -62.5t-49 -92t-17 -111.5q0 -60 17 -112.5t49 -91.5t78.5 -62t106.5 -23zM351 730l-108 111h84l83 -111h-59z" />
    <glyph glyph-name="Oacute" unicode="&#xd3;" horiz-adv-x="730" 
d="M365 -12q-76 0 -135.5 28t-100 75.5t-62 110t-21.5 131.5t21.5 131.5t62 110t100 75.5t135.5 28t135.5 -28t100 -75.5t62 -110t21.5 -131.5t-21.5 -131.5t-62 -110t-100 -75.5t-135.5 -28zM365 44q60 0 106.5 23t79 62t49 91.5t16.5 112.5q0 59 -16.5 111.5t-49 92
t-79 62.5t-106.5 23t-106.5 -23t-78.5 -62.5t-49 -92t-17 -111.5q0 -60 17 -112.5t49 -91.5t78.5 -62t106.5 -23zM326 730l83 111h84l-108 -111h-59z" />
    <glyph glyph-name="Ocircumflex" unicode="&#xd4;" horiz-adv-x="730" 
d="M365 -12q-76 0 -135.5 28t-100 75.5t-62 110t-21.5 131.5t21.5 131.5t62 110t100 75.5t135.5 28t135.5 -28t100 -75.5t62 -110t21.5 -131.5t-21.5 -131.5t-62 -110t-100 -75.5t-135.5 -28zM365 44q60 0 106.5 23t79 62t49 91.5t16.5 112.5q0 59 -16.5 111.5t-49 92
t-79 62.5t-106.5 23t-106.5 -23t-78.5 -62.5t-49 -92t-17 -111.5q0 -60 17 -112.5t49 -91.5t78.5 -62t106.5 -23zM493 730h-64l-64 77l-64 -77h-64l92 111h72z" />
    <glyph glyph-name="Otilde" unicode="&#xd5;" horiz-adv-x="730" 
d="M365 -12q-76 0 -135.5 28t-100 75.5t-62 110t-21.5 131.5t21.5 131.5t62 110t100 75.5t135.5 28t135.5 -28t100 -75.5t62 -110t21.5 -131.5t-21.5 -131.5t-62 -110t-100 -75.5t-135.5 -28zM365 44q60 0 106.5 23t79 62t49 91.5t16.5 112.5q0 59 -16.5 111.5t-49 92
t-79 62.5t-106.5 23t-106.5 -23t-78.5 -62.5t-49 -92t-17 -111.5q0 -60 17 -112.5t49 -91.5t78.5 -62t106.5 -23zM443 740q-20 0 -40.5 9t-38.5 17q-17 8 -30 13.5t-27 5.5q-20 0 -30 -14t-21 -38l-42 19q15 45 35 65.5t57 20.5q22 0 41.5 -7.5t36.5 -15.5q16 -8 30.5 -15
t28.5 -7q18 0 26.5 12.5t18.5 32.5l42 -20q-17 -37 -35 -57.5t-52 -20.5z" />
    <glyph glyph-name="Odieresis" unicode="&#xd6;" horiz-adv-x="730" 
d="M365 -12q-76 0 -135.5 28t-100 75.5t-62 110t-21.5 131.5t21.5 131.5t62 110t100 75.5t135.5 28t135.5 -28t100 -75.5t62 -110t21.5 -131.5t-21.5 -131.5t-62 -110t-100 -75.5t-135.5 -28zM365 44q60 0 106.5 23t79 62t49 91.5t16.5 112.5q0 59 -16.5 111.5t-49 92
t-79 62.5t-106.5 23t-106.5 -23t-78.5 -62.5t-49 -92t-17 -111.5q0 -60 17 -112.5t49 -91.5t78.5 -62t106.5 -23zM317 789q0 -20 -12.5 -32.5t-33.5 -12.5t-33.5 12.5t-12.5 32.5t12.5 32.5t33.5 12.5t33.5 -12.5t12.5 -32.5zM504 789q0 -20 -12.5 -32.5t-33.5 -12.5
t-33.5 12.5t-12.5 32.5t12.5 32.5t33.5 12.5t33.5 -12.5t12.5 -32.5z" />
    <glyph glyph-name="multiply" unicode="&#xd7;" horiz-adv-x="571" 
d="M447 523l39 -38l-163 -162l163 -162l-39 -39l-162 163l-162 -163l-38 39l162 162l-162 162l38 38l162 -163z" />
    <glyph glyph-name="Oslash" unicode="&#xd8;" horiz-adv-x="738" 
d="M142 81q-45 48 -68.5 113.5t-23.5 138.5q0 69 21.5 131.5t62 110t100 75.5t135.5 28q59 0 107 -17t86 -47l91 116l35 -29l-92 -117q45 -48 68.5 -113.5t23.5 -137.5q0 -69 -21.5 -131.5t-62 -110t-100 -75.5t-135.5 -28q-59 0 -107 16.5t-86 45.5l-90 -114l-36 28z
M118 333q0 -60 16 -111.5t48 -90.5l343 436q-31 26 -69.5 40.5t-86.5 14.5q-60 0 -106.5 -23t-78.5 -62.5t-49 -92t-17 -111.5zM369 44q60 0 106.5 23t79 62t49 91.5t16.5 112.5q0 58 -16 110t-47 91l-343 -436q30 -26 68.5 -40t86.5 -14z" />
    <glyph glyph-name="Ugrave" unicode="&#xd9;" horiz-adv-x="674" 
d="M523 666h68v-435q0 -50 -16 -94t-48 -77t-79.5 -52.5t-110.5 -19.5t-110.5 19.5t-79.5 52.5t-48 77t-16 94v435h68v-439q0 -82 47.5 -132.5t138.5 -50.5t138.5 50.5t47.5 132.5v439zM340 730l-108 111h84l83 -111h-59z" />
    <glyph glyph-name="Uacute" unicode="&#xda;" horiz-adv-x="674" 
d="M523 666h68v-435q0 -50 -16 -94t-48 -77t-79.5 -52.5t-110.5 -19.5t-110.5 19.5t-79.5 52.5t-48 77t-16 94v435h68v-439q0 -82 47.5 -132.5t138.5 -50.5t138.5 50.5t47.5 132.5v439zM294 730l83 111h84l-108 -111h-59z" />
    <glyph glyph-name="Ucircumflex" unicode="&#xdb;" horiz-adv-x="674" 
d="M523 666h68v-435q0 -50 -16 -94t-48 -77t-79.5 -52.5t-110.5 -19.5t-110.5 19.5t-79.5 52.5t-48 77t-16 94v435h68v-439q0 -82 47.5 -132.5t138.5 -50.5t138.5 50.5t47.5 132.5v439zM465 730h-64l-64 77l-64 -77h-64l92 111h72z" />
    <glyph glyph-name="Udieresis" unicode="&#xdc;" horiz-adv-x="674" 
d="M523 666h68v-435q0 -50 -16 -94t-48 -77t-79.5 -52.5t-110.5 -19.5t-110.5 19.5t-79.5 52.5t-48 77t-16 94v435h68v-439q0 -82 47.5 -132.5t138.5 -50.5t138.5 50.5t47.5 132.5v439zM289 789q0 -20 -12.5 -32.5t-33.5 -12.5t-33.5 12.5t-12.5 32.5t12.5 32.5t33.5 12.5
t33.5 -12.5t12.5 -32.5zM476 789q0 -20 -12.5 -32.5t-33.5 -12.5t-33.5 12.5t-12.5 32.5t12.5 32.5t33.5 12.5t33.5 -12.5t12.5 -32.5z" />
    <glyph glyph-name="Yacute" unicode="&#xdd;" horiz-adv-x="520" 
d="M226 269l-218 397h72l180 -335l180 335h72l-218 -397v-269h-68v269zM224 730l83 111h84l-108 -111h-59z" />
    <glyph glyph-name="Thorn" unicode="&#xde;" horiz-adv-x="499" 
d="M477 341q0 -48 -20 -86t-55.5 -64t-84 -40t-106.5 -14h-58v-137h-68v666h68v-135h81q50 0 94.5 -12t77.5 -36t52 -59.5t19 -82.5zM409 341q0 36 -14.5 61.5t-39.5 41.5t-57 23.5t-67 7.5h-78v-282h61q42 0 78 10t62 29t40.5 46.5t14.5 62.5z" />
    <glyph glyph-name="germandbls" unicode="&#xdf;" horiz-adv-x="577" 
d="M80 0v486q0 59 15.5 102t43 71.5t66 42.5t85.5 14q33 0 64 -9.5t54 -27.5t37 -44t14 -59q0 -23 -6 -41.5t-15.5 -34t-21 -29.5t-22.5 -27q-10 -13 -19.5 -24t-16.5 -22t-11.5 -22.5t-4.5 -24.5q0 -26 23 -41.5t54 -35.5q18 -12 39.5 -25.5t40 -31t31 -41t12.5 -56.5
q0 -58 -44.5 -94t-119.5 -36q-28 0 -62 6t-60 17l10 53q56 -22 110 -22q45 0 72.5 19t27.5 56q0 19 -8 34t-21.5 27t-30 22.5t-32.5 19.5q-21 12 -40.5 24t-34.5 27t-24 33t-9 42q0 20 6 37t15 31.5t19.5 27.5t19.5 24q11 14 21.5 26t18.5 24.5t12.5 26t4.5 30.5
q0 40 -31.5 62.5t-77.5 22.5q-61 0 -99 -42.5t-38 -134.5v-483h-67z" />
    <glyph glyph-name="agrave" unicode="&#xe0;" horiz-adv-x="493" 
d="M354 65q-11 -12 -27.5 -25.5t-37.5 -24.5t-46.5 -18t-53.5 -7q-65 0 -99 36t-34 93q0 34 12.5 59t34.5 41.5t52.5 25.5t66.5 11q32 2 65 3l66 2v31q0 72 -29.5 105.5t-91.5 33.5q-36 0 -66.5 -8t-59.5 -26l-17 51q28 17 66 28t86 11q39 0 72 -11.5t56.5 -35.5t37 -60
t13.5 -85v-295h-66v65zM204 42q43 0 82 22t67 54v95q-33 -1 -64.5 -3t-58.5 -4q-47 -5 -77.5 -24.5t-30.5 -62.5q0 -77 82 -77zM229 554l-92 156h80l69 -156h-57z" />
    <glyph glyph-name="aacute" unicode="&#xe1;" horiz-adv-x="493" 
d="M354 65q-11 -12 -27.5 -25.5t-37.5 -24.5t-46.5 -18t-53.5 -7q-65 0 -99 36t-34 93q0 34 12.5 59t34.5 41.5t52.5 25.5t66.5 11q32 2 65 3l66 2v31q0 72 -29.5 105.5t-91.5 33.5q-36 0 -66.5 -8t-59.5 -26l-17 51q28 17 66 28t86 11q39 0 72 -11.5t56.5 -35.5t37 -60
t13.5 -85v-295h-66v65zM204 42q43 0 82 22t67 54v95q-33 -1 -64.5 -3t-58.5 -4q-47 -5 -77.5 -24.5t-30.5 -62.5q0 -77 82 -77zM196 554l69 156h80l-92 -156h-57z" />
    <glyph glyph-name="acircumflex" unicode="&#xe2;" horiz-adv-x="493" 
d="M354 65q-11 -12 -27.5 -25.5t-37.5 -24.5t-46.5 -18t-53.5 -7q-65 0 -99 36t-34 93q0 34 12.5 59t34.5 41.5t52.5 25.5t66.5 11q32 2 65 3l66 2v31q0 72 -29.5 105.5t-91.5 33.5q-36 0 -66.5 -8t-59.5 -26l-17 51q28 17 66 28t86 11q39 0 72 -11.5t56.5 -35.5t37 -60
t13.5 -85v-295h-66v65zM204 42q43 0 82 22t67 54v95q-33 -1 -64.5 -3t-58.5 -4q-47 -5 -77.5 -24.5t-30.5 -62.5q0 -77 82 -77zM392 554h-64l-77 117l-77 -117h-64l107 156h68z" />
    <glyph glyph-name="atilde" unicode="&#xe3;" horiz-adv-x="493" 
d="M354 65q-11 -12 -27.5 -25.5t-37.5 -24.5t-46.5 -18t-53.5 -7q-65 0 -99 36t-34 93q0 34 12.5 59t34.5 41.5t52.5 25.5t66.5 11q32 2 65 3l66 2v31q0 72 -29.5 105.5t-91.5 33.5q-36 0 -66.5 -8t-59.5 -26l-17 51q28 17 66 28t86 11q39 0 72 -11.5t56.5 -35.5t37 -60
t13.5 -85v-295h-66v65zM204 42q43 0 82 22t67 54v95q-33 -1 -64.5 -3t-58.5 -4q-47 -5 -77.5 -24.5t-30.5 -62.5q0 -77 82 -77zM320 575q-20 0 -41.5 10t-33.5 17q-14 8 -27 14.5t-27 6.5q-21 0 -29.5 -13.5t-21.5 -40.5l-43 20q16 45 36 66.5t58 21.5q32 0 72 -23
q17 -10 31.5 -17.5t26.5 -7.5q17 0 25.5 13.5t18.5 33.5l42 -22q-18 -38 -37 -58.5t-50 -20.5z" />
    <glyph glyph-name="adieresis" unicode="&#xe4;" horiz-adv-x="493" 
d="M354 65q-11 -12 -27.5 -25.5t-37.5 -24.5t-46.5 -18t-53.5 -7q-65 0 -99 36t-34 93q0 34 12.5 59t34.5 41.5t52.5 25.5t66.5 11q32 2 65 3l66 2v31q0 72 -29.5 105.5t-91.5 33.5q-36 0 -66.5 -8t-59.5 -26l-17 51q28 17 66 28t86 11q39 0 72 -11.5t56.5 -35.5t37 -60
t13.5 -85v-295h-66v65zM204 42q43 0 82 22t67 54v95q-33 -1 -64.5 -3t-58.5 -4q-47 -5 -77.5 -24.5t-30.5 -62.5q0 -77 82 -77zM202 628q0 -21 -13.5 -34.5t-34.5 -13.5q-20 0 -33 13.5t-13 34.5q0 20 13 33t33 13q21 0 34.5 -13t13.5 -33zM380 628q0 -21 -13.5 -34.5
t-34.5 -13.5q-20 0 -33 13.5t-13 34.5q0 20 13 33t33 13q21 0 34.5 -13t13.5 -33z" />
    <glyph glyph-name="aring" unicode="&#xe5;" horiz-adv-x="493" 
d="M354 65q-11 -12 -27.5 -25.5t-37.5 -24.5t-46.5 -18t-53.5 -7q-65 0 -99 36t-34 93q0 34 12.5 59t34.5 41.5t52.5 25.5t66.5 11q32 2 65 3l66 2v31q0 72 -29.5 105.5t-91.5 33.5q-36 0 -66.5 -8t-59.5 -26l-17 51q28 17 66 28t86 11q39 0 72 -11.5t56.5 -35.5t37 -60
t13.5 -85v-295h-66v65zM204 42q43 0 82 22t67 54v95q-33 -1 -64.5 -3t-58.5 -4q-47 -5 -77.5 -24.5t-30.5 -62.5q0 -77 82 -77zM242 714q42 0 63 -25t21 -55t-21 -55t-63 -25t-63 25t-21 55t21 55t63 25zM286 634q0 20 -12 33t-32 13q-21 0 -33 -13t-12 -33t12 -33t33 -13
q20 0 32 13t12 33z" />
    <glyph glyph-name="ae" unicode="&#xe6;" horiz-adv-x="780" 
d="M560 487q45 0 78.5 -15t55.5 -41.5t33 -62.5t11 -79q0 -19 -2 -35t-4 -31h-314q2 -84 41.5 -132t125.5 -48q72 0 137 31l12 -50q-28 -14 -69 -24t-86 -10q-62 0 -106.5 22t-72.5 60q-40 -39 -90 -60.5t-105 -21.5q-34 0 -61.5 10t-47 28t-30 42t-10.5 52q0 69 43.5 104
t115.5 40q36 2 68.5 3t66.5 2v23q0 72 -31.5 105t-88.5 33q-36 0 -66.5 -9.5t-58.5 -23.5l-15 52q63 36 147 36q58 0 96.5 -24t58.5 -69q27 44 69 68.5t99 24.5zM217 41q45 0 85 20t72 52q-11 24 -16.5 50.5t-7.5 55.5q-24 -1 -56 -1.5t-60 -2.5q-57 -3 -85 -24t-28 -65
q0 -39 24.5 -62t71.5 -23zM557 436q-33 0 -58.5 -13.5t-43 -35.5t-27 -51t-10.5 -60h256q3 32 -2.5 61t-19.5 51t-37.5 35t-57.5 13z" />
    <glyph glyph-name="ccedilla" unicode="&#xe7;" horiz-adv-x="446" 
d="M351 -124q0 -21 -11 -36.5t-29 -26.5t-42.5 -18t-51.5 -11l-12 44q16 3 31 7t27 10t19 13.5t7 17.5q0 11 -7.5 18.5t-20 13t-28 9t-31.5 6.5l28 71q-48 7 -83.5 29.5t-58.5 55t-34 73.5t-11 86q0 49 13.5 94t42 79.5t72.5 54.5t104 20q35 0 69.5 -7t59.5 -19l-9 -53
q-26 11 -56 17.5t-59 6.5q-44 0 -76 -14t-53 -39.5t-31 -61t-10 -78.5t10 -78.5t31 -61t53 -39.5t76 -14q29 0 58.5 6.5t55.5 17.5l10 -53q-24 -12 -58.5 -18.5t-65.5 -7.5l-14 -40q14 -2 29 -7t27.5 -14t20.5 -22t8 -31z" />
    <glyph glyph-name="egrave" unicode="&#xe8;" horiz-adv-x="478" 
d="M255 487q47 0 80.5 -15.5t55.5 -42.5t32 -63t10 -77q0 -32 -6 -66h-314q1 -88 42 -134t123 -46q38 0 74 8.5t65 22.5l11 -50q-31 -15 -72.5 -24.5t-84.5 -9.5q-57 0 -99.5 19t-70.5 52.5t-42 79t-14 97.5q0 54 14.5 99.5t41.5 79t66 52t88 18.5zM252 436q-33 0 -58.5 -14
t-43 -36.5t-27 -51t-10.5 -58.5h256q6 69 -23 114.5t-94 45.5zM226 554l-92 156h80l69 -156h-57z" />
    <glyph glyph-name="eacute" unicode="&#xe9;" horiz-adv-x="478" 
d="M255 487q47 0 80.5 -15.5t55.5 -42.5t32 -63t10 -77q0 -32 -6 -66h-314q1 -88 42 -134t123 -46q38 0 74 8.5t65 22.5l11 -50q-31 -15 -72.5 -24.5t-84.5 -9.5q-57 0 -99.5 19t-70.5 52.5t-42 79t-14 97.5q0 54 14.5 99.5t41.5 79t66 52t88 18.5zM252 436q-33 0 -58.5 -14
t-43 -36.5t-27 -51t-10.5 -58.5h256q6 69 -23 114.5t-94 45.5zM210 554l69 156h80l-92 -156h-57z" />
    <glyph glyph-name="ecircumflex" unicode="&#xea;" horiz-adv-x="478" 
d="M255 487q47 0 80.5 -15.5t55.5 -42.5t32 -63t10 -77q0 -32 -6 -66h-314q1 -88 42 -134t123 -46q38 0 74 8.5t65 22.5l11 -50q-31 -15 -72.5 -24.5t-84.5 -9.5q-57 0 -99.5 19t-70.5 52.5t-42 79t-14 97.5q0 54 14.5 99.5t41.5 79t66 52t88 18.5zM252 436q-33 0 -58.5 -14
t-43 -36.5t-27 -51t-10.5 -58.5h256q6 69 -23 114.5t-94 45.5zM392 554h-64l-77 117l-77 -117h-64l107 156h68z" />
    <glyph glyph-name="edieresis" unicode="&#xeb;" horiz-adv-x="478" 
d="M255 487q47 0 80.5 -15.5t55.5 -42.5t32 -63t10 -77q0 -32 -6 -66h-314q1 -88 42 -134t123 -46q38 0 74 8.5t65 22.5l11 -50q-31 -15 -72.5 -24.5t-84.5 -9.5q-57 0 -99.5 19t-70.5 52.5t-42 79t-14 97.5q0 54 14.5 99.5t41.5 79t66 52t88 18.5zM252 436q-33 0 -58.5 -14
t-43 -36.5t-27 -51t-10.5 -58.5h256q6 69 -23 114.5t-94 45.5zM207 628q0 -21 -13.5 -34.5t-34.5 -13.5q-20 0 -33 13.5t-13 34.5q0 20 13 33t33 13q21 0 34.5 -13t13.5 -33zM385 628q0 -21 -13.5 -34.5t-34.5 -13.5q-20 0 -33 13.5t-13 34.5q0 20 13 33t33 13
q21 0 34.5 -13t13.5 -33z" />
    <glyph glyph-name="igrave" unicode="&#xec;" horiz-adv-x="227" 
d="M80 0v477h67v-477h-67zM87 554l-92 156h80l69 -156h-57z" />
    <glyph glyph-name="iacute" unicode="&#xed;" horiz-adv-x="227" 
d="M80 0v477h67v-477h-67zM81 554l69 156h80l-92 -156h-57z" />
    <glyph glyph-name="icircumflex" unicode="&#xee;" horiz-adv-x="227" 
d="M80 0v477h67v-477h-67zM255 554h-64l-77 117l-77 -117h-64l107 156h68z" />
    <glyph glyph-name="idieresis" unicode="&#xef;" horiz-adv-x="227" 
d="M80 0v477h67v-477h-67zM72 628q0 -21 -13.5 -34.5t-34.5 -13.5q-20 0 -33 13.5t-13 34.5q0 20 13 33t33 13q21 0 34.5 -13t13.5 -33zM250 628q0 -21 -13.5 -34.5t-34.5 -13.5q-20 0 -33 13.5t-13 34.5q0 20 13 33t33 13q21 0 34.5 -13t13.5 -33z" />
    <glyph glyph-name="eth" unicode="&#xf0;" horiz-adv-x="533" 
d="M259 614q-34 19 -72.5 31t-82.5 20l14 51q104 -15 191 -65l88 66l26 -36l-76 -56q28 -20 54.5 -49t46.5 -68t32.5 -87t12.5 -105q0 -72 -14 -131.5t-42.5 -103t-71 -67.5t-99.5 -24q-56 0 -96.5 20t-67 53t-39.5 76t-13 90q0 55 16 98t44 72t67 44t86 15q48 0 87.5 -12.5
t72.5 -34.5q-14 60 -44.5 104t-77.5 75l-104 -77l-27 36zM115 228q0 -82 39 -133.5t113 -51.5q44 0 74.5 21t49.5 53t27.5 71.5t8.5 75.5v87q-28 23 -66.5 38.5t-82.5 15.5q-80 0 -121.5 -46t-41.5 -131z" />
    <glyph glyph-name="ntilde" unicode="&#xf1;" horiz-adv-x="543" 
d="M80 0v477h63v-69q29 38 68.5 58.5t89.5 20.5q44 0 75.5 -19t52 -51t30 -74.5t9.5 -89.5v-253h-67v248q0 40 -6 73.5t-20 58t-37 38t-57 13.5q-42 0 -76.5 -22.5t-57.5 -51.5v-357h-67zM341 575q-20 0 -41.5 10t-33.5 17q-14 8 -27 14.5t-27 6.5q-21 0 -29.5 -13.5
t-21.5 -40.5l-43 20q16 45 36 66.5t58 21.5q32 0 72 -23q17 -10 31.5 -17.5t26.5 -7.5q17 0 25.5 13.5t18.5 33.5l42 -22q-18 -38 -37 -58.5t-50 -20.5z" />
    <glyph glyph-name="ograve" unicode="&#xf2;" horiz-adv-x="538" 
d="M493 238q0 -49 -14.5 -94t-43 -79t-70.5 -54.5t-96 -20.5t-96 20.5t-70.5 54.5t-43 79t-14.5 94t14.5 94.5t43 79.5t70.5 54.5t96 20.5t96 -20.5t70.5 -54.5t43 -79.5t14.5 -94.5zM426 238q0 40 -10 76t-29.5 62t-49 41.5t-68.5 15.5t-68.5 -15.5t-49 -41.5t-29.5 -62
t-10 -76q0 -41 10 -76t29.5 -61.5t49 -41.5t68.5 -15t68.5 15t49 41.5t29.5 61.5t10 76zM243 554l-92 156h80l69 -156h-57z" />
    <glyph glyph-name="oacute" unicode="&#xf3;" horiz-adv-x="538" 
d="M493 238q0 -49 -14.5 -94t-43 -79t-70.5 -54.5t-96 -20.5t-96 20.5t-70.5 54.5t-43 79t-14.5 94t14.5 94.5t43 79.5t70.5 54.5t96 20.5t96 -20.5t70.5 -54.5t43 -79.5t14.5 -94.5zM426 238q0 40 -10 76t-29.5 62t-49 41.5t-68.5 15.5t-68.5 -15.5t-49 -41.5t-29.5 -62
t-10 -76q0 -41 10 -76t29.5 -61.5t49 -41.5t68.5 -15t68.5 15t49 41.5t29.5 61.5t10 76zM228 554l69 156h80l-92 -156h-57z" />
    <glyph glyph-name="ocircumflex" unicode="&#xf4;" horiz-adv-x="538" 
d="M493 238q0 -49 -14.5 -94t-43 -79t-70.5 -54.5t-96 -20.5t-96 20.5t-70.5 54.5t-43 79t-14.5 94t14.5 94.5t43 79.5t70.5 54.5t96 20.5t96 -20.5t70.5 -54.5t43 -79.5t14.5 -94.5zM426 238q0 40 -10 76t-29.5 62t-49 41.5t-68.5 15.5t-68.5 -15.5t-49 -41.5t-29.5 -62
t-10 -76q0 -41 10 -76t29.5 -61.5t49 -41.5t68.5 -15t68.5 15t49 41.5t29.5 61.5t10 76zM410 554h-64l-77 117l-77 -117h-64l107 156h68z" />
    <glyph glyph-name="otilde" unicode="&#xf5;" horiz-adv-x="538" 
d="M493 238q0 -49 -14.5 -94t-43 -79t-70.5 -54.5t-96 -20.5t-96 20.5t-70.5 54.5t-43 79t-14.5 94t14.5 94.5t43 79.5t70.5 54.5t96 20.5t96 -20.5t70.5 -54.5t43 -79.5t14.5 -94.5zM426 238q0 40 -10 76t-29.5 62t-49 41.5t-68.5 15.5t-68.5 -15.5t-49 -41.5t-29.5 -62
t-10 -76q0 -41 10 -76t29.5 -61.5t49 -41.5t68.5 -15t68.5 15t49 41.5t29.5 61.5t10 76zM343 575q-20 0 -41.5 10t-33.5 17q-14 8 -27 14.5t-27 6.5q-21 0 -29.5 -13.5t-21.5 -40.5l-43 20q16 45 36 66.5t58 21.5q32 0 72 -23q17 -10 31.5 -17.5t26.5 -7.5q17 0 25.5 13.5
t18.5 33.5l42 -22q-18 -38 -37 -58.5t-50 -20.5z" />
    <glyph glyph-name="odieresis" unicode="&#xf6;" horiz-adv-x="538" 
d="M493 238q0 -49 -14.5 -94t-43 -79t-70.5 -54.5t-96 -20.5t-96 20.5t-70.5 54.5t-43 79t-14.5 94t14.5 94.5t43 79.5t70.5 54.5t96 20.5t96 -20.5t70.5 -54.5t43 -79.5t14.5 -94.5zM426 238q0 40 -10 76t-29.5 62t-49 41.5t-68.5 15.5t-68.5 -15.5t-49 -41.5t-29.5 -62
t-10 -76q0 -41 10 -76t29.5 -61.5t49 -41.5t68.5 -15t68.5 15t49 41.5t29.5 61.5t10 76zM227 628q0 -21 -13.5 -34.5t-34.5 -13.5q-20 0 -33 13.5t-13 34.5q0 20 13 33t33 13q21 0 34.5 -13t13.5 -33zM405 628q0 -21 -13.5 -34.5t-34.5 -13.5q-20 0 -33 13.5t-13 34.5
q0 20 13 33t33 13q21 0 34.5 -13t13.5 -33z" />
    <glyph glyph-name="divide" unicode="&#xf7;" horiz-adv-x="611" 
d="M80 298v51h451v-51h-451zM256 143q0 20 13.5 34.5t35.5 14.5q23 0 36 -14.5t13 -34.5t-13 -34.5t-36 -14.5q-22 0 -35.5 14.5t-13.5 34.5zM256 504q0 20 13.5 34.5t35.5 14.5q23 0 36 -14.5t13 -34.5t-13 -34.5t-36 -14.5q-22 0 -35.5 14.5t-13.5 34.5z" />
    <glyph glyph-name="oslash" unicode="&#xf8;" horiz-adv-x="544" 
d="M114 54q-32 35 -49 82.5t-17 101.5q0 49 14.5 94.5t43 79.5t70.5 54.5t96 20.5q38 0 69 -10t57 -28l65 90l33 -25l-67 -93q33 -35 50 -82t17 -101q0 -49 -14.5 -94t-43 -79t-70.5 -54.5t-96 -20.5q-75 0 -127 37l-64 -89l-33 24zM115 238q0 -39 9 -73t27 -60l213 297
q-37 31 -92 31q-39 0 -68.5 -15.5t-49 -41.5t-29.5 -62t-10 -76zM429 238q0 38 -9 72.5t-27 60.5l-214 -297q38 -30 93 -30q39 0 68.5 15t49 41.5t29.5 61.5t10 76z" />
    <glyph glyph-name="ugrave" unicode="&#xf9;" horiz-adv-x="535" 
d="M455 477v-477h-63v69q-29 -38 -68.5 -58.5t-89.5 -20.5q-43 0 -74 19t-50.5 51t-29 74.5t-9.5 89.5v253h67v-248q0 -42 5.5 -76t19 -57.5t35.5 -36.5t56 -13q42 0 76.5 22.5t57.5 51.5v357h67zM252 554l-92 156h80l69 -156h-57z" />
    <glyph glyph-name="uacute" unicode="&#xfa;" horiz-adv-x="535" 
d="M455 477v-477h-63v69q-29 -38 -68.5 -58.5t-89.5 -20.5q-43 0 -74 19t-50.5 51t-29 74.5t-9.5 89.5v253h67v-248q0 -42 5.5 -76t19 -57.5t35.5 -36.5t56 -13q42 0 76.5 22.5t57.5 51.5v357h67zM219 554l69 156h80l-92 -156h-57z" />
    <glyph glyph-name="ucircumflex" unicode="&#xfb;" horiz-adv-x="535" 
d="M455 477v-477h-63v69q-29 -38 -68.5 -58.5t-89.5 -20.5q-43 0 -74 19t-50.5 51t-29 74.5t-9.5 89.5v253h67v-248q0 -42 5.5 -76t19 -57.5t35.5 -36.5t56 -13q42 0 76.5 22.5t57.5 51.5v357h67zM411 554h-64l-77 117l-77 -117h-64l107 156h68z" />
    <glyph glyph-name="udieresis" unicode="&#xfc;" horiz-adv-x="535" 
d="M455 477v-477h-63v69q-29 -38 -68.5 -58.5t-89.5 -20.5q-43 0 -74 19t-50.5 51t-29 74.5t-9.5 89.5v253h67v-248q0 -42 5.5 -76t19 -57.5t35.5 -36.5t56 -13q42 0 76.5 22.5t57.5 51.5v357h67zM224 628q0 -21 -13.5 -34.5t-34.5 -13.5q-20 0 -33 13.5t-13 34.5
q0 20 13 33t33 13q21 0 34.5 -13t13.5 -33zM402 628q0 -21 -13.5 -34.5t-34.5 -13.5q-20 0 -33 13.5t-13 34.5q0 20 13 33t33 13q21 0 34.5 -13t13.5 -33z" />
    <glyph glyph-name="yacute" unicode="&#xfd;" horiz-adv-x="443" 
d="M117 -206l72 203l-172 480h70l136 -406l134 406h69l-243 -683h-66zM178 554l69 156h80l-92 -156h-57z" />
    <glyph glyph-name="thorn" unicode="&#xfe;" horiz-adv-x="532" 
d="M80 706h67v-291q25 29 62.5 50.5t91.5 21.5q46 0 81 -19t58.5 -52t35 -77.5t11.5 -96.5q0 -58 -17 -104.5t-48.5 -79.5t-76 -50.5t-99.5 -17.5q-30 0 -53 3.5t-46 10.5v-210h-67v912zM285 432q-44 0 -79.5 -24.5t-58.5 -51.5v-296q20 -8 43.5 -11.5t49.5 -3.5
q88 0 134 51t46 146q0 42 -8 77t-24.5 60t-42 39t-60.5 14z" />
    <glyph glyph-name="ydieresis" unicode="&#xff;" horiz-adv-x="443" 
d="M117 -206l72 203l-172 480h70l136 -406l134 406h69l-243 -683h-66zM180 628q0 -21 -13.5 -34.5t-34.5 -13.5q-20 0 -33 13.5t-13 34.5q0 20 13 33t33 13q21 0 34.5 -13t13.5 -33zM358 628q0 -21 -13.5 -34.5t-34.5 -13.5q-20 0 -33 13.5t-13 34.5q0 20 13 33t33 13
q21 0 34.5 -13t13.5 -33z" />
    <glyph glyph-name="Amacron" unicode="&#x100;" horiz-adv-x="654" 
d="M624 0h-71l-65 170h-322l-65 -170h-71l264 666h66zM327 596l-140 -370h280zM195 822h263v-54h-263v54z" />
    <glyph glyph-name="amacron" unicode="&#x101;" horiz-adv-x="493" 
d="M354 65q-11 -12 -27.5 -25.5t-37.5 -24.5t-46.5 -18t-53.5 -7q-65 0 -99 36t-34 93q0 34 12.5 59t34.5 41.5t52.5 25.5t66.5 11q32 2 65 3l66 2v31q0 72 -29.5 105.5t-91.5 33.5q-36 0 -66.5 -8t-59.5 -26l-17 51q28 17 66 28t86 11q39 0 72 -11.5t56.5 -35.5t37 -60
t13.5 -85v-295h-66v65zM204 42q43 0 82 22t67 54v95q-33 -1 -64.5 -3t-58.5 -4q-47 -5 -77.5 -24.5t-30.5 -62.5q0 -77 82 -77zM119 646h258v-54h-258v54z" />
    <glyph glyph-name="Abreve" unicode="&#x102;" horiz-adv-x="654" 
d="M624 0h-71l-65 170h-322l-65 -170h-71l264 666h66zM327 596l-140 -370h280zM456 834q-12 -49 -45 -76.5t-84 -27.5t-84 27.5t-45 76.5l51 15q10 -33 28 -52t50 -19t50 19t28 52z" />
    <glyph glyph-name="abreve" unicode="&#x103;" horiz-adv-x="493" 
d="M354 65q-11 -12 -27.5 -25.5t-37.5 -24.5t-46.5 -18t-53.5 -7q-65 0 -99 36t-34 93q0 34 12.5 59t34.5 41.5t52.5 25.5t66.5 11q32 2 65 3l66 2v31q0 72 -29.5 105.5t-91.5 33.5q-36 0 -66.5 -8t-59.5 -26l-17 51q28 17 66 28t86 11q39 0 72 -11.5t56.5 -35.5t37 -60
t13.5 -85v-295h-66v65zM204 42q43 0 82 22t67 54v95q-33 -1 -64.5 -3t-58.5 -4q-47 -5 -77.5 -24.5t-30.5 -62.5q0 -77 82 -77zM388 685q-11 -63 -46.5 -97t-91.5 -34t-91.5 34t-46.5 97l52 11q8 -41 28 -67t58 -26t58 26t28 67z" />
    <glyph glyph-name="Aogonek" unicode="&#x104;" horiz-adv-x="654" 
d="M624 -200q-14 -7 -33.5 -11.5t-41.5 -4.5q-40 0 -64.5 22.5t-24.5 61.5q0 24 9 44t22.5 36.5t30 29.5t31.5 22l-65 170h-322l-65 -170h-71l264 666h66l264 -666q-20 -14 -38.5 -28t-33 -29.5t-23.5 -32.5t-9 -37q0 -42 44 -42q12 0 26.5 2.5t25.5 7.5zM327 596l-140 -370
h280z" />
    <glyph glyph-name="aogonek" unicode="&#x105;" horiz-adv-x="493" 
d="M420 -200q-14 -7 -33.5 -11.5t-41.5 -4.5q-40 0 -64.5 22.5t-24.5 61.5q0 24 10 44t25 36.5t32 29.5t31 22v65q-11 -12 -27.5 -25.5t-37.5 -24.5t-46.5 -18t-53.5 -7q-65 0 -99 36t-34 93q0 34 12.5 59t34.5 41.5t52.5 25.5t66.5 11q32 2 65 3l66 2v31q0 72 -29.5 105.5
t-91.5 33.5q-36 0 -66.5 -8t-59.5 -26l-17 51q28 17 66 28t86 11q39 0 72 -11.5t56.5 -35.5t37 -60t13.5 -85v-295q-20 -14 -38.5 -28t-33 -29.5t-23.5 -32.5t-9 -37q0 -42 44 -42q12 0 26.5 2.5t25.5 7.5zM204 42q43 0 82 22t67 54v95q-33 -1 -64.5 -3t-58.5 -4
q-47 -5 -77.5 -24.5t-30.5 -62.5q0 -77 82 -77z" />
    <glyph glyph-name="Cacute" unicode="&#x106;" horiz-adv-x="600" 
d="M384 678q45 0 91 -8t79 -22l-12 -54q-35 13 -74 20t-77 7q-136 0 -207.5 -76.5t-71.5 -211.5t71.5 -211.5t207.5 -76.5q38 0 77 7t74 20l12 -54q-33 -14 -79 -22t-91 -8q-80 0 -143.5 26t-107 72.5t-66.5 109.5t-23 137t23 137t66.5 109.5t107 72.5t143.5 26zM315 730
l83 111h84l-108 -111h-59z" />
    <glyph glyph-name="cacute" unicode="&#x107;" horiz-adv-x="446" 
d="M275 486q35 0 69.5 -7t59.5 -19l-9 -53q-26 11 -56 17.5t-59 6.5q-44 0 -76 -14t-53 -39.5t-31 -61t-10 -78.5t10 -78.5t31 -61t53 -39.5t76 -14q29 0 58.5 6.5t55.5 17.5l10 -53q-25 -12 -61.5 -19t-67.5 -7q-60 0 -104 20t-72.5 54.5t-42 79t-13.5 94.5q0 49 13.5 94
t42 79.5t72.5 54.5t104 20zM203 554l69 156h80l-92 -156h-57z" />
    <glyph glyph-name="Ccircumflex" unicode="&#x108;" horiz-adv-x="600" 
d="M384 678q45 0 91 -8t79 -22l-12 -54q-35 13 -74 20t-77 7q-136 0 -207.5 -76.5t-71.5 -211.5t71.5 -211.5t207.5 -76.5q38 0 77 7t74 20l12 -54q-33 -14 -79 -22t-91 -8q-80 0 -143.5 26t-107 72.5t-66.5 109.5t-23 137t23 137t66.5 109.5t107 72.5t143.5 26zM489 730
h-64l-64 77l-64 -77h-64l92 111h72z" />
    <glyph glyph-name="ccircumflex" unicode="&#x109;" horiz-adv-x="446" 
d="M275 486q35 0 69.5 -7t59.5 -19l-9 -53q-26 11 -56 17.5t-59 6.5q-44 0 -76 -14t-53 -39.5t-31 -61t-10 -78.5t10 -78.5t31 -61t53 -39.5t76 -14q29 0 58.5 6.5t55.5 17.5l10 -53q-25 -12 -61.5 -19t-67.5 -7q-60 0 -104 20t-72.5 54.5t-42 79t-13.5 94.5q0 49 13.5 94
t42 79.5t72.5 54.5t104 20zM388 554h-64l-77 117l-77 -117h-64l107 156h68z" />
    <glyph glyph-name="Cdotaccent" unicode="&#x10a;" horiz-adv-x="600" 
d="M384 678q45 0 91 -8t79 -22l-12 -54q-35 13 -74 20t-77 7q-136 0 -207.5 -76.5t-71.5 -211.5t71.5 -211.5t207.5 -76.5q38 0 77 7t74 20l12 -54q-33 -14 -79 -22t-91 -8q-80 0 -143.5 26t-107 72.5t-66.5 109.5t-23 137t23 137t66.5 109.5t107 72.5t143.5 26zM319 791
q0 20 13 33.5t33 13.5q21 0 34 -13.5t13 -33.5q0 -19 -13 -32.5t-34 -13.5q-20 0 -33 13.5t-13 32.5z" />
    <glyph glyph-name="cdotaccent" unicode="&#x10b;" horiz-adv-x="446" 
d="M275 486q35 0 69.5 -7t59.5 -19l-9 -53q-26 11 -56 17.5t-59 6.5q-44 0 -76 -14t-53 -39.5t-31 -61t-10 -78.5t10 -78.5t31 -61t53 -39.5t76 -14q29 0 58.5 6.5t55.5 17.5l10 -53q-25 -12 -61.5 -19t-67.5 -7q-60 0 -104 20t-72.5 54.5t-42 79t-13.5 94.5q0 49 13.5 94
t42 79.5t72.5 54.5t104 20zM202 622q0 20 13 33.5t33 13.5q21 0 34 -13.5t13 -33.5q0 -19 -13 -32.5t-34 -13.5q-20 0 -33 13.5t-13 32.5z" />
    <glyph glyph-name="Ccaron" unicode="&#x10c;" horiz-adv-x="600" 
d="M384 678q45 0 91 -8t79 -22l-12 -54q-35 13 -74 20t-77 7q-136 0 -207.5 -76.5t-71.5 -211.5t71.5 -211.5t207.5 -76.5q38 0 77 7t74 20l12 -54q-33 -14 -79 -22t-91 -8q-80 0 -143.5 26t-107 72.5t-66.5 109.5t-23 137t23 137t66.5 109.5t107 72.5t143.5 26zM406 730
h-72l-92 111h64l64 -77l64 77h64z" />
    <glyph glyph-name="ccaron" unicode="&#x10d;" horiz-adv-x="446" 
d="M275 486q35 0 69.5 -7t59.5 -19l-9 -53q-26 11 -56 17.5t-59 6.5q-44 0 -76 -14t-53 -39.5t-31 -61t-10 -78.5t10 -78.5t31 -61t53 -39.5t76 -14q29 0 58.5 6.5t55.5 17.5l10 -53q-25 -12 -61.5 -19t-67.5 -7q-60 0 -104 20t-72.5 54.5t-42 79t-13.5 94.5q0 49 13.5 94
t42 79.5t72.5 54.5t104 20zM293 554h-68l-107 156h64l77 -117l77 117h64z" />
    <glyph glyph-name="Dcaron" unicode="&#x10e;" horiz-adv-x="671" 
d="M85 666h165q84 0 154 -24.5t120 -68.5t77.5 -105.5t27.5 -134.5q0 -74 -27.5 -135t-77.5 -105t-120 -68.5t-154 -24.5h-165v666zM251 56q64 0 120.5 18t98.5 53.5t66.5 87t24.5 118.5t-24.5 118.5t-66.5 86.5t-98.5 53.5t-120.5 18.5h-98v-554h98zM328 730h-72l-92 111
h64l64 -77l64 77h64z" />
    <glyph glyph-name="dcaron" unicode="&#x10f;" horiz-adv-x="621" 
d="M452 0h-63v69q-23 -31 -64 -55t-96 -24q-44 0 -78 18.5t-57.5 51t-36 77.5t-12.5 98q0 59 17.5 105.5t49.5 79t76.5 50t97.5 17.5q30 0 53 -3.5t46 -10.5v233h67v-706zM247 45q47 0 81 24.5t57 51.5v296q-20 8 -43.5 11.5t-49.5 3.5q-39 0 -72 -12t-57 -37t-37.5 -62
t-13.5 -86q0 -86 32 -138t103 -52zM532 512q22 48 33 94.5t14 99.5l62 -7q-4 -55 -19 -109.5t-43 -99.5z" />
    <glyph glyph-name="Dcroat" unicode="&#x110;" horiz-adv-x="711" 
d="M50 361h75v305h165q84 0 154 -24.5t120 -68.5t77.5 -105.5t27.5 -134.5q0 -74 -27.5 -135t-77.5 -105t-120 -68.5t-154 -24.5h-165v306h-75v55zM291 56q64 0 120.5 18t98.5 53.5t66.5 87t24.5 118.5t-24.5 118.5t-66.5 86.5t-98.5 53.5t-120.5 18.5h-98v-249h195v-55
h-195v-250h98z" />
    <glyph glyph-name="dcroat" unicode="&#x111;" horiz-adv-x="532" 
d="M235 614h150v92h67v-92h71v-51h-71v-563h-63v69q-23 -31 -64 -55t-96 -24q-44 0 -78 18.5t-57.5 51t-36 77.5t-12.5 98q0 59 17.5 105.5t49.5 79t76.5 50t97.5 17.5q30 0 53 -3.5t46 -10.5v90h-150v51zM247 45q47 0 81 24.5t57 51.5v296q-20 8 -43.5 11.5t-49.5 3.5
q-39 0 -72 -12t-57 -37t-37.5 -62t-13.5 -86q0 -86 32 -138t103 -52z" />
    <glyph glyph-name="Emacron" unicode="&#x112;" horiz-adv-x="500" 
d="M85 666h356v-56h-288v-241h276v-56h-276v-257h291v-56h-359v666zM134 822h263v-54h-263v54z" />
    <glyph glyph-name="emacron" unicode="&#x113;" horiz-adv-x="478" 
d="M255 487q47 0 80.5 -15.5t55.5 -42.5t32 -63t10 -77q0 -32 -6 -66h-314q1 -88 42 -134t123 -46q38 0 74 8.5t65 22.5l11 -50q-31 -15 -72.5 -24.5t-84.5 -9.5q-57 0 -99.5 19t-70.5 52.5t-42 79t-14 97.5q0 54 14.5 99.5t41.5 79t66 52t88 18.5zM252 436q-33 0 -58.5 -14
t-43 -36.5t-27 -51t-10.5 -58.5h256q6 69 -23 114.5t-94 45.5zM123 646h258v-54h-258v54z" />
    <glyph glyph-name="Ebreve" unicode="&#x114;" horiz-adv-x="500" 
d="M85 666h356v-56h-288v-241h276v-56h-276v-257h291v-56h-359v666zM401 834q-12 -49 -45 -76.5t-84 -27.5t-84 27.5t-45 76.5l51 15q10 -33 28 -52t50 -19t50 19t28 52z" />
    <glyph glyph-name="ebreve" unicode="&#x115;" horiz-adv-x="478" 
d="M255 487q47 0 80.5 -15.5t55.5 -42.5t32 -63t10 -77q0 -32 -6 -66h-314q1 -88 42 -134t123 -46q38 0 74 8.5t65 22.5l11 -50q-31 -15 -72.5 -24.5t-84.5 -9.5q-57 0 -99.5 19t-70.5 52.5t-42 79t-14 97.5q0 54 14.5 99.5t41.5 79t66 52t88 18.5zM252 436q-33 0 -58.5 -14
t-43 -36.5t-27 -51t-10.5 -58.5h256q6 69 -23 114.5t-94 45.5zM391 685q-11 -63 -46.5 -97t-91.5 -34t-91.5 34t-46.5 97l52 11q8 -41 28 -67t58 -26t58 26t28 67z" />
    <glyph glyph-name="Edotaccent" unicode="&#x116;" horiz-adv-x="500" 
d="M85 666h356v-56h-288v-241h276v-56h-276v-257h291v-56h-359v666zM220 791q0 20 13 33.5t33 13.5q21 0 34 -13.5t13 -33.5q0 -19 -13 -32.5t-34 -13.5q-20 0 -33 13.5t-13 32.5z" />
    <glyph glyph-name="edotaccent" unicode="&#x117;" horiz-adv-x="478" 
d="M255 487q47 0 80.5 -15.5t55.5 -42.5t32 -63t10 -77q0 -32 -6 -66h-314q1 -88 42 -134t123 -46q38 0 74 8.5t65 22.5l11 -50q-31 -15 -72.5 -24.5t-84.5 -9.5q-57 0 -99.5 19t-70.5 52.5t-42 79t-14 97.5q0 54 14.5 99.5t41.5 79t66 52t88 18.5zM252 436q-33 0 -58.5 -14
t-43 -36.5t-27 -51t-10.5 -58.5h256q6 69 -23 114.5t-94 45.5zM201 622q0 20 13 33.5t33 13.5q21 0 34 -13.5t13 -33.5q0 -19 -13 -32.5t-34 -13.5q-20 0 -33 13.5t-13 32.5z" />
    <glyph glyph-name="Eogonek" unicode="&#x118;" horiz-adv-x="500" 
d="M85 666h356v-56h-288v-241h276v-56h-276v-257h291v-56q-20 -14 -38.5 -28t-33 -29.5t-23.5 -32.5t-9 -37q0 -42 44 -42q12 0 26.5 2.5t25.5 7.5l8 -41q-14 -7 -33.5 -11.5t-41.5 -4.5q-40 0 -64.5 22.5t-24.5 61.5q0 24 10.5 44t26 37t33 29.5t31.5 21.5h-296v666z" />
    <glyph glyph-name="eogonek" unicode="&#x119;" horiz-adv-x="478" 
d="M424 -200q-14 -7 -33.5 -11.5t-41.5 -4.5q-40 0 -64.5 22.5t-24.5 61.5q0 23 8.5 43t22 36.5t28.5 29.5t29 22q-16 -4 -37 -6.5t-40 -2.5q-57 0 -99.5 19t-70.5 52.5t-42 79t-14 97.5q0 54 14.5 99.5t41.5 79t66 52t88 18.5q47 0 80.5 -15.5t55.5 -42.5t32 -63t10 -77
q0 -32 -6 -66h-314q1 -88 42 -134t123 -46q38 0 74 8.5t65 22.5l11 -50q-24 -21 -43.5 -39t-34 -35.5t-22.5 -36t-8 -40.5q0 -42 44 -42q12 0 26.5 2.5t25.5 7.5zM252 436q-33 0 -58.5 -14t-43 -36.5t-27 -51t-10.5 -58.5h256q6 69 -23 114.5t-94 45.5z" />
    <glyph glyph-name="Ecaron" unicode="&#x11a;" horiz-adv-x="500" 
d="M85 666h356v-56h-288v-241h276v-56h-276v-257h291v-56h-359v666zM305 730h-72l-92 111h64l64 -77l64 77h64z" />
    <glyph glyph-name="ecaron" unicode="&#x11b;" horiz-adv-x="478" 
d="M255 487q47 0 80.5 -15.5t55.5 -42.5t32 -63t10 -77q0 -32 -6 -66h-314q1 -88 42 -134t123 -46q38 0 74 8.5t65 22.5l11 -50q-31 -15 -72.5 -24.5t-84.5 -9.5q-57 0 -99.5 19t-70.5 52.5t-42 79t-14 97.5q0 54 14.5 99.5t41.5 79t66 52t88 18.5zM252 436q-33 0 -58.5 -14
t-43 -36.5t-27 -51t-10.5 -58.5h256q6 69 -23 114.5t-94 45.5zM284 554h-68l-107 156h64l77 -117l77 117h64z" />
    <glyph glyph-name="Gcircumflex" unicode="&#x11c;" horiz-adv-x="674" 
d="M397 678q54 0 104 -8.5t92 -28.5l-12 -55q-41 17 -88 26.5t-95 9.5q-65 0 -117.5 -19.5t-90 -57.5t-58 -93t-20.5 -126q0 -134 73.5 -208.5t213.5 -74.5q32 0 71.5 5t65.5 13v226h63v-265q-40 -16 -97 -25t-111 -9q-81 0 -145 24.5t-109 69t-69 107t-24 137.5
q0 80 24.5 145t70.5 111t111.5 71t146.5 25zM492 730h-64l-64 77l-64 -77h-64l92 111h72z" />
    <glyph glyph-name="gcircumflex" unicode="&#x11d;" horiz-adv-x="500" 
d="M238 164q-21 0 -39 3q-10 -8 -17 -19.5t-7 -24.5q0 -20 15 -30t44 -12l94 -8q34 -3 63 -11.5t50 -22.5t32.5 -35t11.5 -49q0 -40 -22 -71.5t-58.5 -53.5t-83.5 -34t-96 -12q-44 0 -80.5 8.5t-63 24t-41.5 39t-15 53.5q0 29 14.5 51.5t35.5 38t45.5 25.5t44.5 15
q-54 21 -54 70q0 26 16 43t35 25q-47 17 -77 54.5t-30 93.5q0 36 14 65.5t38.5 51t58 33.5t72.5 12q18 0 34.5 -2.5t32.5 -7.5h178v-53h-99q17 -17 27.5 -43t10.5 -56q0 -33 -13.5 -62.5t-38 -51.5t-58.5 -34.5t-74 -12.5zM222 28q-25 -9 -49 -19.5t-42.5 -24t-30 -30.5
t-11.5 -39q0 -43 37 -62.5t99 -19.5q37 0 72.5 8.5t63 23.5t44 36t16.5 47q0 38 -30.5 53.5t-80.5 19.5zM238 214q52 0 87.5 29t35.5 82q0 54 -35 83t-88 29t-87.5 -27.5t-34.5 -84.5q0 -56 34 -83.5t88 -27.5zM384 554h-64l-77 117l-77 -117h-64l107 156h68z" />
    <glyph glyph-name="Gbreve" unicode="&#x11e;" horiz-adv-x="674" 
d="M397 678q54 0 104 -8.5t92 -28.5l-12 -55q-41 17 -88 26.5t-95 9.5q-65 0 -117.5 -19.5t-90 -57.5t-58 -93t-20.5 -126q0 -134 73.5 -208.5t213.5 -74.5q32 0 71.5 5t65.5 13v226h63v-265q-40 -16 -97 -25t-111 -9q-81 0 -145 24.5t-109 69t-69 107t-24 137.5
q0 80 24.5 145t70.5 111t111.5 71t146.5 25zM506 834q-12 -49 -45 -76.5t-84 -27.5t-84 27.5t-45 76.5l51 15q10 -33 28 -52t50 -19t50 19t28 52z" />
    <glyph glyph-name="gbreve" unicode="&#x11f;" horiz-adv-x="500" 
d="M238 164q-21 0 -39 3q-10 -8 -17 -19.5t-7 -24.5q0 -20 15 -30t44 -12l94 -8q34 -3 63 -11.5t50 -22.5t32.5 -35t11.5 -49q0 -40 -22 -71.5t-58.5 -53.5t-83.5 -34t-96 -12q-44 0 -80.5 8.5t-63 24t-41.5 39t-15 53.5q0 29 14.5 51.5t35.5 38t45.5 25.5t44.5 15
q-54 21 -54 70q0 26 16 43t35 25q-47 17 -77 54.5t-30 93.5q0 36 14 65.5t38.5 51t58 33.5t72.5 12q18 0 34.5 -2.5t32.5 -7.5h178v-53h-99q17 -17 27.5 -43t10.5 -56q0 -33 -13.5 -62.5t-38 -51.5t-58.5 -34.5t-74 -12.5zM222 28q-25 -9 -49 -19.5t-42.5 -24t-30 -30.5
t-11.5 -39q0 -43 37 -62.5t99 -19.5q37 0 72.5 8.5t63 23.5t44 36t16.5 47q0 38 -30.5 53.5t-80.5 19.5zM238 214q52 0 87.5 29t35.5 82q0 54 -35 83t-88 29t-87.5 -27.5t-34.5 -84.5q0 -56 34 -83.5t88 -27.5zM375 685q-11 -63 -46.5 -97t-91.5 -34t-91.5 34t-46.5 97
l52 11q8 -41 28 -67t58 -26t58 26t28 67z" />
    <glyph glyph-name="Gdotaccent" unicode="&#x120;" horiz-adv-x="674" 
d="M397 678q54 0 104 -8.5t92 -28.5l-12 -55q-41 17 -88 26.5t-95 9.5q-65 0 -117.5 -19.5t-90 -57.5t-58 -93t-20.5 -126q0 -134 73.5 -208.5t213.5 -74.5q32 0 71.5 5t65.5 13v226h63v-265q-40 -16 -97 -25t-111 -9q-81 0 -145 24.5t-109 69t-69 107t-24 137.5
q0 80 24.5 145t70.5 111t111.5 71t146.5 25zM325 791q0 20 13 33.5t33 13.5q21 0 34 -13.5t13 -33.5q0 -19 -13 -32.5t-34 -13.5q-20 0 -33 13.5t-13 32.5z" />
    <glyph glyph-name="gdotaccent" unicode="&#x121;" horiz-adv-x="500" 
d="M238 164q-21 0 -39 3q-10 -8 -17 -19.5t-7 -24.5q0 -20 15 -30t44 -12l94 -8q34 -3 63 -11.5t50 -22.5t32.5 -35t11.5 -49q0 -40 -22 -71.5t-58.5 -53.5t-83.5 -34t-96 -12q-44 0 -80.5 8.5t-63 24t-41.5 39t-15 53.5q0 29 14.5 51.5t35.5 38t45.5 25.5t44.5 15
q-54 21 -54 70q0 26 16 43t35 25q-47 17 -77 54.5t-30 93.5q0 36 14 65.5t38.5 51t58 33.5t72.5 12q18 0 34.5 -2.5t32.5 -7.5h178v-53h-99q17 -17 27.5 -43t10.5 -56q0 -33 -13.5 -62.5t-38 -51.5t-58.5 -34.5t-74 -12.5zM222 28q-25 -9 -49 -19.5t-42.5 -24t-30 -30.5
t-11.5 -39q0 -43 37 -62.5t99 -19.5q37 0 72.5 8.5t63 23.5t44 36t16.5 47q0 38 -30.5 53.5t-80.5 19.5zM238 214q52 0 87.5 29t35.5 82q0 54 -35 83t-88 29t-87.5 -27.5t-34.5 -84.5q0 -56 34 -83.5t88 -27.5zM191 622q0 20 13 33.5t33 13.5q21 0 34 -13.5t13 -33.5
q0 -19 -13 -32.5t-34 -13.5q-20 0 -33 13.5t-13 32.5z" />
    <glyph glyph-name="Gcommaaccent" unicode="&#x122;" horiz-adv-x="674" 
d="M397 678q54 0 104 -8.5t92 -28.5l-12 -55q-41 17 -88 26.5t-95 9.5q-65 0 -117.5 -19.5t-90 -57.5t-58 -93t-20.5 -126q0 -134 73.5 -208.5t213.5 -74.5q32 0 71.5 5t65.5 13v226h63v-265q-40 -16 -97 -25t-111 -9q-81 0 -145 24.5t-109 69t-69 107t-24 137.5
q0 80 24.5 145t70.5 111t111.5 71t146.5 25zM322 -227q19 35 28.5 74t11.5 77h64q-2 -51 -15.5 -91.5t-41.5 -82.5z" />
    <glyph glyph-name="gcommaaccent" unicode="&#x123;" horiz-adv-x="500" 
d="M238 164q-21 0 -39 3q-10 -8 -17 -19.5t-7 -24.5q0 -20 15 -30t44 -12l94 -8q34 -3 63 -11.5t50 -22.5t32.5 -35t11.5 -49q0 -40 -22 -71.5t-58.5 -53.5t-83.5 -34t-96 -12q-44 0 -80.5 8.5t-63 24t-41.5 39t-15 53.5q0 29 14.5 51.5t35.5 38t45.5 25.5t44.5 15
q-54 21 -54 70q0 26 16 43t35 25q-47 17 -77 54.5t-30 93.5q0 36 14 65.5t38.5 51t58 33.5t72.5 12q18 0 34.5 -2.5t32.5 -7.5h178v-53h-99q17 -17 27.5 -43t10.5 -56q0 -33 -13.5 -62.5t-38 -51.5t-58.5 -34.5t-74 -12.5zM222 28q-25 -9 -49 -19.5t-42.5 -24t-30 -30.5
t-11.5 -39q0 -43 37 -62.5t99 -19.5q37 0 72.5 8.5t63 23.5t44 36t16.5 47q0 38 -30.5 53.5t-80.5 19.5zM238 214q52 0 87.5 29t35.5 82q0 54 -35 83t-88 29t-87.5 -27.5t-34.5 -84.5q0 -56 34 -83.5t88 -27.5zM301 704q-21 -38 -28.5 -73.5t-9.5 -76.5l-62 3q1 54 15 94
t40 75z" />
    <glyph glyph-name="Hcircumflex" unicode="&#x124;" horiz-adv-x="686" 
d="M533 0v308h-380v-308h-68v666h68v-299h380v299h68v-666h-68zM471 730h-64l-64 77l-64 -77h-64l92 111h72z" />
    <glyph glyph-name="hcircumflex" unicode="&#x125;" horiz-adv-x="543" 
d="M80 0v706h67v-294q26 34 66 54.5t88 20.5q44 0 75.5 -19t52 -51t30 -74.5t9.5 -89.5v-253h-67v248q0 40 -6 73.5t-20 58t-37 38t-57 13.5q-42 0 -76.5 -22.5t-57.5 -51.5v-357h-67zM242 748h-64l-64 77l-64 -77h-64l92 111h72z" />
    <glyph glyph-name="Hbar" unicode="&#x126;" horiz-adv-x="746" 
d="M563 0v308h-380v-308h-68v482h-80v53h80v131h68v-131h380v131h68v-131h80v-53h-80v-482h-68zM563 367v115h-380v-115h380z" />
    <glyph glyph-name="hbar" unicode="&#x127;" horiz-adv-x="543" 
d="M9 614h71v92h67v-92h140v-51h-140v-151q26 34 66 54.5t88 20.5q44 0 75.5 -19t52 -51t30 -74.5t9.5 -89.5v-253h-67v248q0 40 -6 73.5t-20 58t-37 38t-57 13.5q-42 0 -76.5 -22.5t-57.5 -51.5v-357h-67v563h-71v51z" />
    <glyph glyph-name="Itilde" unicode="&#x128;" horiz-adv-x="248" 
d="M158 0h-68v666h68v-666zM195 740q-20 0 -40.5 9t-38.5 17q-17 8 -30 13.5t-27 5.5q-20 0 -30 -14t-21 -38l-42 19q15 45 35 65.5t57 20.5q22 0 41.5 -7.5t36.5 -15.5q16 -8 30.5 -15t28.5 -7q18 0 26.5 12.5t18.5 32.5l42 -20q-17 -37 -35 -57.5t-52 -20.5z" />
    <glyph glyph-name="itilde" unicode="&#x129;" horiz-adv-x="227" 
d="M80 0v477h67v-477h-67zM182 575q-20 0 -41.5 10t-33.5 17q-14 8 -27 14.5t-27 6.5q-21 0 -29.5 -13.5t-21.5 -40.5l-43 20q16 45 36 66.5t58 21.5q32 0 72 -23q17 -10 31.5 -17.5t26.5 -7.5q17 0 25.5 13.5t18.5 33.5l42 -22q-18 -38 -37 -58.5t-50 -20.5z" />
    <glyph glyph-name="uni012A" unicode="&#x12a;" horiz-adv-x="248" 
d="M158 0h-68v666h68v-666zM-7 822h263v-54h-263v54z" />
    <glyph glyph-name="imacron" unicode="&#x12b;" horiz-adv-x="227" 
d="M80 0v477h67v-477h-67zM-15 646h258v-54h-258v54z" />
    <glyph glyph-name="Ibreve" unicode="&#x12c;" horiz-adv-x="248" 
d="M158 0h-68v666h68v-666zM253 834q-12 -49 -45 -76.5t-84 -27.5t-84 27.5t-45 76.5l51 15q10 -33 28 -52t50 -19t50 19t28 52z" />
    <glyph glyph-name="uni012D" unicode="&#x12d;" horiz-adv-x="227" 
d="M80 0v477h67v-477h-67zM252 685q-11 -63 -46.5 -97t-91.5 -34t-91.5 34t-46.5 97l52 11q8 -41 28 -67t58 -26t58 26t28 67z" />
    <glyph glyph-name="Iogonek" unicode="&#x12e;" horiz-adv-x="248" 
d="M176 -204q-12 -6 -29 -9t-34 -3q-41 0 -67.5 24t-26.5 72q0 23 6.5 41.5t17 33t23 25.5t24.5 20v666h68v-666q-21 -17 -35.5 -31.5t-24.5 -28t-14.5 -28t-4.5 -31.5q0 -23 11.5 -36.5t37.5 -13.5q24 0 43 8z" />
    <glyph glyph-name="iogonek" unicode="&#x12f;" horiz-adv-x="227" 
d="M165 -204q-12 -6 -29 -9t-34 -3q-41 0 -67.5 24t-26.5 72q0 23 7 41.5t17.5 33t23 25.5t24.5 20v477h67v-477q-21 -17 -35.5 -31.5t-24.5 -28t-14.5 -28t-4.5 -31.5q0 -23 11.5 -36.5t37.5 -13.5q24 0 43 8zM67 622q0 20 13 33.5t33 13.5q21 0 34 -13.5t13 -33.5
q0 -19 -13 -32.5t-34 -13.5q-20 0 -33 13.5t-13 32.5z" />
    <glyph glyph-name="Idotaccent" unicode="&#x130;" horiz-adv-x="248" 
d="M158 0h-68v666h68v-666zM78 791q0 20 13 33.5t33 13.5q21 0 34 -13.5t13 -33.5q0 -19 -13 -32.5t-34 -13.5q-20 0 -33 13.5t-13 32.5z" />
    <glyph glyph-name="dotlessi" unicode="&#x131;" horiz-adv-x="227" 
d="M80 0v477h67v-477h-67z" />
    <glyph glyph-name="IJ" unicode="&#x132;" horiz-adv-x="486" 
d="M158 0h-68v666h68v-666zM406 152q-1 -45 -5.5 -83t-17 -74t-34.5 -72t-58 -75l-49 39q51 58 73.5 117.5t22.5 134.5v527h68v-514z" />
    <glyph glyph-name="ij" unicode="&#x133;" horiz-adv-x="457" 
d="M80 0v477h67v-477h-67zM67 622q0 20 13 33.5t33 13.5q21 0 34 -13.5t13 -33.5q0 -19 -13 -32.5t-34 -13.5q-20 0 -33 13.5t-13 32.5zM205 -179q27 31 47 62t33.5 64.5t20 72t6.5 83.5v374h67v-364q0 -47 -6.5 -90.5t-21 -84t-38.5 -79t-60 -75.5zM299 622q0 20 13 33.5
t33 13.5q21 0 34 -13.5t13 -33.5q0 -19 -13 -32.5t-34 -13.5q-20 0 -33 13.5t-13 32.5z" />
    <glyph glyph-name="Jcircumflex" unicode="&#x134;" horiz-adv-x="238" 
d="M158 152q-1 -45 -5.5 -83t-17 -74t-34.5 -72t-58 -75l-49 39q51 58 73.5 117.5t22.5 134.5v527h68v-514zM253 730h-64l-64 77l-64 -77h-64l92 111h72z" />
    <glyph glyph-name="jcircumflex" unicode="&#x135;" horiz-adv-x="230" 
d="M-22 -179q27 31 47 62t33.5 64.5t20 72t6.5 83.5v374h67v-364q0 -47 -6.5 -90.5t-21 -84t-38.5 -79t-60 -75.5zM256 554h-64l-77 117l-77 -117h-64l107 156h68z" />
    <glyph glyph-name="Kcommaaccent" unicode="&#x136;" horiz-adv-x="567" 
d="M85 0v666h68v-324l293 324h85l-299 -330l325 -336h-92l-312 331v-331h-68zM221 -227q19 35 28.5 74t11.5 77h64q-2 -51 -15.5 -91.5t-41.5 -82.5z" />
    <glyph glyph-name="kcommaaccent" unicode="&#x137;" horiz-adv-x="473" 
d="M80 0v706h67v-456l207 227h82l-215 -234l238 -243h-85l-227 236v-236h-67zM181 -227q19 35 28.5 74t11.5 77h64q-2 -51 -15.5 -91.5t-41.5 -82.5z" />
    <glyph glyph-name="kgreenlandic" unicode="&#x138;" horiz-adv-x="473" 
d="M80 0v477h67v-227l207 227h82l-215 -234l238 -243h-85l-227 236v-236h-67z" />
    <glyph glyph-name="Lacute" unicode="&#x139;" horiz-adv-x="458" 
d="M153 666v-610h281v-56h-349v666h68zM89 730l83 111h84l-108 -111h-59z" />
    <glyph glyph-name="lacute" unicode="&#x13a;" horiz-adv-x="275" 
d="M145 114q0 -30 11 -49t45 -19q13 0 24 1t22 5l3 -50q-28 -10 -65 -10q-56 0 -81.5 33.5t-25.5 84.5v596h67v-592zM76 750l83 111h84l-108 -111h-59z" />
    <glyph glyph-name="Lcommaaccent" unicode="&#x13b;" horiz-adv-x="458" 
d="M153 666v-610h281v-56h-349v666h68zM187 -227q19 35 28.5 74t11.5 77h64q-2 -51 -15.5 -91.5t-41.5 -82.5z" />
    <glyph glyph-name="lcommaaccent" unicode="&#x13c;" horiz-adv-x="275" 
d="M145 114q0 -30 11 -49t45 -19q13 0 24 1t22 5l3 -50q-28 -10 -65 -10q-56 0 -81.5 33.5t-25.5 84.5v596h67v-592zM91 -227q19 35 28.5 74t11.5 77h64q-2 -51 -15.5 -91.5t-41.5 -82.5z" />
    <glyph glyph-name="Lcaron" unicode="&#x13d;" horiz-adv-x="458" 
d="M153 666v-610h281v-56h-349v666h68zM281 479q22 48 33 94.5t14 99.5l62 -7q-4 -55 -19 -109.5t-43 -99.5z" />
    <glyph glyph-name="lcaron" unicode="&#x13e;" horiz-adv-x="306" 
d="M145 114q0 -30 11 -49t45 -19q13 0 24 1t22 5l3 -50q-28 -10 -65 -10q-56 0 -81.5 33.5t-25.5 84.5v596h67v-592zM217 512q22 48 33 94.5t14 99.5l62 -7q-4 -55 -19 -109.5t-43 -99.5z" />
    <glyph glyph-name="Ldot" unicode="&#x13f;" horiz-adv-x="458" 
d="M153 666v-610h281v-56h-349v666h68zM289 323q0 20 13.5 34.5t35.5 14.5t35.5 -14.5t13.5 -34.5t-13.5 -34.5t-35.5 -14.5t-35.5 14.5t-13.5 34.5z" />
    <glyph glyph-name="ldot" unicode="&#x140;" horiz-adv-x="348" 
d="M145 114q0 -30 11 -49t45 -19q13 0 24 1t22 5l3 -50q-28 -10 -65 -10q-56 0 -81.5 33.5t-25.5 84.5v596h67v-592zM240 298q0 20 13.5 34.5t35.5 14.5t35.5 -14.5t13.5 -34.5t-13.5 -34.5t-35.5 -14.5t-35.5 14.5t-13.5 34.5z" />
    <glyph glyph-name="Lslash" unicode="&#x141;" horiz-adv-x="462" 
d="M157 328v-272h281v-56h-349v294l-67 -34l-22 47l89 45v314h68v-280l180 91l23 -46z" />
    <glyph glyph-name="lslash" unicode="&#x142;" horiz-adv-x="279" 
d="M149 369v-255q0 -30 11 -49t45 -19q13 0 24 1t22 5l3 -50q-28 -10 -65 -10q-56 0 -81.5 33.5t-25.5 84.5v225l-55 -28l-22 46l77 39v314h67v-280l101 51l23 -45z" />
    <glyph glyph-name="Nacute" unicode="&#x143;" horiz-adv-x="695" 
d="M545 0l-395 557v-557h-65v666h65l395 -557v557h65v-666h-65zM297 730l83 111h84l-108 -111h-59z" />
    <glyph glyph-name="nacute" unicode="&#x144;" horiz-adv-x="543" 
d="M80 0v477h63v-69q29 38 68.5 58.5t89.5 20.5q44 0 75.5 -19t52 -51t30 -74.5t9.5 -89.5v-253h-67v248q0 40 -6 73.5t-20 58t-37 38t-57 13.5q-42 0 -76.5 -22.5t-57.5 -51.5v-357h-67zM224 554l69 156h80l-92 -156h-57z" />
    <glyph glyph-name="Ncommaaccent" unicode="&#x145;" horiz-adv-x="695" 
d="M545 0l-395 557v-557h-65v666h65l395 -557v557h65v-666h-65zM279 -227q19 35 28.5 74t11.5 77h64q-2 -51 -15.5 -91.5t-41.5 -82.5z" />
    <glyph glyph-name="ncommaaccent" unicode="&#x146;" horiz-adv-x="543" 
d="M80 0v477h63v-69q29 38 68.5 58.5t89.5 20.5q44 0 75.5 -19t52 -51t30 -74.5t9.5 -89.5v-253h-67v248q0 40 -6 73.5t-20 58t-37 38t-57 13.5q-42 0 -76.5 -22.5t-57.5 -51.5v-357h-67zM207 -227q19 35 28.5 74t11.5 77h64q-2 -51 -15.5 -91.5t-41.5 -82.5z" />
    <glyph glyph-name="Ncaron" unicode="&#x147;" horiz-adv-x="695" 
d="M545 0l-395 557v-557h-65v666h65l395 -557v557h65v-666h-65zM386 730h-72l-92 111h64l64 -77l64 77h64z" />
    <glyph glyph-name="ncaron" unicode="&#x148;" horiz-adv-x="543" 
d="M80 0v477h63v-69q29 38 68.5 58.5t89.5 20.5q44 0 75.5 -19t52 -51t30 -74.5t9.5 -89.5v-253h-67v248q0 40 -6 73.5t-20 58t-37 38t-57 13.5q-42 0 -76.5 -22.5t-57.5 -51.5v-357h-67zM299 554h-68l-107 156h64l77 -117l77 117h64z" />
    <glyph glyph-name="napostrophe" unicode="&#x149;" horiz-adv-x="633" 
d="M170 0v477h63v-69q29 38 68.5 58.5t89.5 20.5q44 0 75.5 -19t52 -51t30 -74.5t9.5 -89.5v-253h-67v248q0 40 -6 73.5t-20 58t-37 38t-57 13.5q-42 0 -76.5 -22.5t-57.5 -51.5v-357h-67zM10 512q22 48 33 94.5t14 99.5l62 -7q-4 -55 -19 -109.5t-43 -99.5z" />
    <glyph glyph-name="Eng" unicode="&#x14a;" horiz-adv-x="695" 
d="M393 -165q66 28 102 68t46 103l-391 551v-557h-65v666h65l395 -557v557h65v-603q0 -203 -192 -279l-25 51v0z" />
    <glyph glyph-name="eng" unicode="&#x14b;" horiz-adv-x="543" 
d="M255 -166q75 32 110.5 86t35.5 141v187q0 40 -6 73.5t-20 58t-37 38t-57 13.5q-42 0 -76.5 -22.5t-57.5 -51.5v-357h-67v477h63v-69q29 38 68.5 58.5t89.5 20.5q44 0 75.5 -19t52 -51t30 -74.5t9.5 -89.5v-190q0 -106 -48.5 -174.5t-139.5 -104.5z" />
    <glyph glyph-name="Omacron" unicode="&#x14c;" horiz-adv-x="730" 
d="M365 -12q-76 0 -135.5 28t-100 75.5t-62 110t-21.5 131.5t21.5 131.5t62 110t100 75.5t135.5 28t135.5 -28t100 -75.5t62 -110t21.5 -131.5t-21.5 -131.5t-62 -110t-100 -75.5t-135.5 -28zM365 44q60 0 106.5 23t79 62t49 91.5t16.5 112.5q0 59 -16.5 111.5t-49 92
t-79 62.5t-106.5 23t-106.5 -23t-78.5 -62.5t-49 -92t-17 -111.5q0 -60 17 -112.5t49 -91.5t78.5 -62t106.5 -23zM233 822h263v-54h-263v54z" />
    <glyph glyph-name="omacron" unicode="&#x14d;" horiz-adv-x="538" 
d="M493 238q0 -49 -14.5 -94t-43 -79t-70.5 -54.5t-96 -20.5t-96 20.5t-70.5 54.5t-43 79t-14.5 94t14.5 94.5t43 79.5t70.5 54.5t96 20.5t96 -20.5t70.5 -54.5t43 -79.5t14.5 -94.5zM426 238q0 40 -10 76t-29.5 62t-49 41.5t-68.5 15.5t-68.5 -15.5t-49 -41.5t-29.5 -62
t-10 -76q0 -41 10 -76t29.5 -61.5t49 -41.5t68.5 -15t68.5 15t49 41.5t29.5 61.5t10 76zM140 646h258v-54h-258v54z" />
    <glyph glyph-name="Obreve" unicode="&#x14e;" horiz-adv-x="730" 
d="M365 -12q-76 0 -135.5 28t-100 75.5t-62 110t-21.5 131.5t21.5 131.5t62 110t100 75.5t135.5 28t135.5 -28t100 -75.5t62 -110t21.5 -131.5t-21.5 -131.5t-62 -110t-100 -75.5t-135.5 -28zM365 44q60 0 106.5 23t79 62t49 91.5t16.5 112.5q0 59 -16.5 111.5t-49 92
t-79 62.5t-106.5 23t-106.5 -23t-78.5 -62.5t-49 -92t-17 -111.5q0 -60 17 -112.5t49 -91.5t78.5 -62t106.5 -23zM494 834q-12 -49 -45 -76.5t-84 -27.5t-84 27.5t-45 76.5l51 15q10 -33 28 -52t50 -19t50 19t28 52z" />
    <glyph glyph-name="obreve" unicode="&#x14f;" horiz-adv-x="538" 
d="M493 238q0 -49 -14.5 -94t-43 -79t-70.5 -54.5t-96 -20.5t-96 20.5t-70.5 54.5t-43 79t-14.5 94t14.5 94.5t43 79.5t70.5 54.5t96 20.5t96 -20.5t70.5 -54.5t43 -79.5t14.5 -94.5zM426 238q0 40 -10 76t-29.5 62t-49 41.5t-68.5 15.5t-68.5 -15.5t-49 -41.5t-29.5 -62
t-10 -76q0 -41 10 -76t29.5 -61.5t49 -41.5t68.5 -15t68.5 15t49 41.5t29.5 61.5t10 76zM407 685q-11 -63 -46.5 -97t-91.5 -34t-91.5 34t-46.5 97l52 11q8 -41 28 -67t58 -26t58 26t28 67z" />
    <glyph glyph-name="Ohungarumlaut" unicode="&#x150;" horiz-adv-x="730" 
d="M365 -12q-76 0 -135.5 28t-100 75.5t-62 110t-21.5 131.5t21.5 131.5t62 110t100 75.5t135.5 28t135.5 -28t100 -75.5t62 -110t21.5 -131.5t-21.5 -131.5t-62 -110t-100 -75.5t-135.5 -28zM365 44q60 0 106.5 23t79 62t49 91.5t16.5 112.5q0 59 -16.5 111.5t-49 92
t-79 62.5t-106.5 23t-106.5 -23t-78.5 -62.5t-49 -92t-17 -111.5q0 -60 17 -112.5t49 -91.5t78.5 -62t106.5 -23zM255 730l44 111h73l-62 -111h-55zM422 730l44 111h73l-62 -111h-55z" />
    <glyph glyph-name="ohungarumlaut" unicode="&#x151;" horiz-adv-x="538" 
d="M493 238q0 -49 -14.5 -94t-43 -79t-70.5 -54.5t-96 -20.5t-96 20.5t-70.5 54.5t-43 79t-14.5 94t14.5 94.5t43 79.5t70.5 54.5t96 20.5t96 -20.5t70.5 -54.5t43 -79.5t14.5 -94.5zM426 238q0 40 -10 76t-29.5 62t-49 41.5t-68.5 15.5t-68.5 -15.5t-49 -41.5t-29.5 -62
t-10 -76q0 -41 10 -76t29.5 -61.5t49 -41.5t68.5 -15t68.5 15t49 41.5t29.5 61.5t10 76zM154 554l55 156h73l-73 -156h-55zM322 554l55 156h73l-73 -156h-55z" />
    <glyph glyph-name="OE" unicode="&#x152;" horiz-adv-x="950" 
d="M45 333q0 71 22.5 133.5t66 109.5t108 74.5t147.5 27.5q42 0 77 -3t69 -9h356v-56h-288v-241h276v-56h-276v-257h291v-56h-359q-38 -5 -73 -8.5t-73 -3.5q-83 0 -147.5 27.5t-108 74.5t-66 109.5t-22.5 133.5zM535 608q-30 7 -68 10.5t-70 3.5q-69 0 -122 -21t-89 -59
t-54.5 -91.5t-18.5 -117.5q0 -65 18.5 -118t54.5 -91t89 -59t122 -21q32 0 70 3.5t68 10.5v550z" />
    <glyph glyph-name="oe" unicode="&#x153;" horiz-adv-x="857" 
d="M636 487q47 0 80.5 -15.5t55.5 -42.5t32 -63t10 -77q0 -32 -6 -66h-314q1 -87 43.5 -133.5t121.5 -46.5q38 0 74 8.5t65 22.5l11 -50q-31 -15 -72.5 -24.5t-84.5 -9.5q-72 0 -121.5 33t-72.5 82q-28 -49 -75.5 -82t-113.5 -33q-54 0 -96 20.5t-70.5 54.5t-43 79t-14.5 94
t14.5 94.5t43 79.5t70.5 54.5t96 20.5q66 0 114 -32.5t75 -83.5q26 52 71 84t107 32zM426 238q0 40 -10 76t-29.5 62t-49 41.5t-68.5 15.5t-68.5 -15.5t-49 -41.5t-29.5 -62t-10 -76q0 -41 10 -76t29.5 -61.5t49 -41.5t68.5 -15t68.5 15t49 41.5t29.5 61.5t10 76zM633 436
q-33 0 -58.5 -14t-43 -36.5t-27 -51t-10.5 -58.5h256q6 69 -23 114.5t-94 45.5z" />
    <glyph glyph-name="Racute" unicode="&#x154;" horiz-adv-x="558" 
d="M489 483q0 -40 -14.5 -71.5t-39 -55t-57.5 -40t-69 -25.5l239 -291h-83l-226 280q-8 -1 -18.5 -1.5t-19.5 -0.5h-48v-278h-68v666h160q49 0 93.5 -11t78 -34t53 -57.5t19.5 -80.5zM421 481q0 35 -15 59.5t-40 40t-57 22.5t-66 7h-90v-276h54q43 0 82 9t68.5 27t46.5 45.5
t17 65.5zM196 730l83 111h84l-108 -111h-59z" />
    <glyph glyph-name="racute" unicode="&#x155;" horiz-adv-x="348" 
d="M334 422h-19q-56 0 -99 -23t-69 -71v-328h-67v477h63v-95q19 45 60 72.5t98 27.5q20 0 33 -5v-55zM140 554l69 156h80l-92 -156h-57z" />
    <glyph glyph-name="Rcommaaccent" unicode="&#x156;" horiz-adv-x="558" 
d="M489 483q0 -40 -14.5 -71.5t-39 -55t-57.5 -40t-69 -25.5l239 -291h-83l-226 280q-8 -1 -18.5 -1.5t-19.5 -0.5h-48v-278h-68v666h160q49 0 93.5 -11t78 -34t53 -57.5t19.5 -80.5zM421 481q0 35 -15 59.5t-40 40t-57 22.5t-66 7h-90v-276h54q43 0 82 9t68.5 27t46.5 45.5
t17 65.5zM226 -227q19 35 28.5 74t11.5 77h64q-2 -51 -15.5 -91.5t-41.5 -82.5z" />
    <glyph glyph-name="rcommaaccent" unicode="&#x157;" horiz-adv-x="348" 
d="M334 422h-19q-56 0 -99 -23t-69 -71v-328h-67v477h63v-95q19 45 60 72.5t98 27.5q20 0 33 -5v-55zM41 -227q19 35 28.5 74t11.5 77h64q-2 -51 -15.5 -91.5t-41.5 -82.5z" />
    <glyph glyph-name="Rcaron" unicode="&#x158;" horiz-adv-x="558" 
d="M489 483q0 -40 -14.5 -71.5t-39 -55t-57.5 -40t-69 -25.5l239 -291h-83l-226 280q-8 -1 -18.5 -1.5t-19.5 -0.5h-48v-278h-68v666h160q49 0 93.5 -11t78 -34t53 -57.5t19.5 -80.5zM421 481q0 35 -15 59.5t-40 40t-57 22.5t-66 7h-90v-276h54q43 0 82 9t68.5 27t46.5 45.5
t17 65.5zM298 730h-72l-92 111h64l64 -77l64 77h64z" />
    <glyph glyph-name="rcaron" unicode="&#x159;" horiz-adv-x="348" 
d="M334 422h-19q-56 0 -99 -23t-69 -71v-328h-67v477h63v-95q19 45 60 72.5t98 27.5q20 0 33 -5v-55zM232 554h-68l-107 156h64l77 -117l77 117h64z" />
    <glyph glyph-name="Sacute" unicode="&#x15a;" horiz-adv-x="499" 
d="M456 170q0 -41 -16.5 -74.5t-46 -57.5t-70.5 -37t-90 -13q-48 0 -97.5 10.5t-87.5 28.5l15 55q40 -18 82 -28t86 -10q72 0 115 33t43 90q0 31 -12.5 54t-34 41t-49.5 32.5t-58 28.5q-33 16 -64.5 33.5t-56 39.5t-39.5 50t-15 65q0 41 16 72.5t43 52.5t63.5 31.5
t78.5 10.5q46 0 89 -9t78 -26l-14 -57q-35 17 -74.5 26.5t-77.5 9.5q-62 0 -98.5 -26t-36.5 -80q0 -26 7.5 -44t23.5 -32t40.5 -27.5t58.5 -30.5t69 -35.5t64 -43t47.5 -56.5t18.5 -77zM200 730l83 111h84l-108 -111h-59z" />
    <glyph glyph-name="sacute" unicode="&#x15b;" horiz-adv-x="424" 
d="M378 130q0 -32 -13.5 -58t-37.5 -44t-57 -28t-72 -10q-17 0 -36.5 2t-38.5 5.5t-36.5 9t-30.5 11.5l12 54q27 -12 59 -20t70 -8q48 0 81.5 20t33.5 60q0 20 -9 34t-23.5 25t-33.5 19.5t-39 17.5q-24 10 -49.5 22.5t-46.5 29t-34.5 38.5t-13.5 52q0 32 12.5 55.5t34.5 39
t51 23t62 7.5q39 0 74 -9t62 -23l-13 -54q-29 15 -60 23.5t-63 8.5q-42 0 -68 -15t-26 -50q0 -19 9 -31.5t23 -22.5t31.5 -17.5t35.5 -16.5q20 -10 46 -21.5t49 -29t39 -41.5t16 -58zM161 554l69 156h80l-92 -156h-57z" />
    <glyph glyph-name="Scircumflex" unicode="&#x15c;" horiz-adv-x="499" 
d="M456 170q0 -41 -16.5 -74.5t-46 -57.5t-70.5 -37t-90 -13q-48 0 -97.5 10.5t-87.5 28.5l15 55q40 -18 82 -28t86 -10q72 0 115 33t43 90q0 31 -12.5 54t-34 41t-49.5 32.5t-58 28.5q-33 16 -64.5 33.5t-56 39.5t-39.5 50t-15 65q0 41 16 72.5t43 52.5t63.5 31.5
t78.5 10.5q46 0 89 -9t78 -26l-14 -57q-35 17 -74.5 26.5t-77.5 9.5q-62 0 -98.5 -26t-36.5 -80q0 -26 7.5 -44t23.5 -32t40.5 -27.5t58.5 -30.5t69 -35.5t64 -43t47.5 -56.5t18.5 -77zM379 730h-64l-64 77l-64 -77h-64l92 111h72z" />
    <glyph glyph-name="scircumflex" unicode="&#x15d;" horiz-adv-x="424" 
d="M378 130q0 -32 -13.5 -58t-37.5 -44t-57 -28t-72 -10q-17 0 -36.5 2t-38.5 5.5t-36.5 9t-30.5 11.5l12 54q27 -12 59 -20t70 -8q48 0 81.5 20t33.5 60q0 20 -9 34t-23.5 25t-33.5 19.5t-39 17.5q-24 10 -49.5 22.5t-46.5 29t-34.5 38.5t-13.5 52q0 32 12.5 55.5t34.5 39
t51 23t62 7.5q39 0 74 -9t62 -23l-13 -54q-29 15 -60 23.5t-63 8.5q-42 0 -68 -15t-26 -50q0 -19 9 -31.5t23 -22.5t31.5 -17.5t35.5 -16.5q20 -10 46 -21.5t49 -29t39 -41.5t16 -58zM353 554h-64l-77 117l-77 -117h-64l107 156h68z" />
    <glyph glyph-name="Scedilla" unicode="&#x15e;" horiz-adv-x="499" 
d="M456 170q0 -38 -14.5 -69.5t-40 -55t-61 -38t-78.5 -18.5l-14 -39q14 -2 29 -7t27.5 -14t20.5 -22t8 -31q0 -21 -11 -36.5t-29 -26.5t-42.5 -18t-51.5 -11l-12 44q16 3 31 7t27 10t19 13.5t7 17.5q0 11 -7.5 18.5t-20 13t-28 9t-31.5 6.5l26 66q-43 2 -85.5 12t-76.5 26
l15 55q40 -18 82 -28t86 -10q72 0 115 33t43 90q0 31 -12.5 54t-34 41t-49.5 32.5t-58 28.5q-33 16 -64.5 33.5t-56 39.5t-39.5 50t-15 65q0 41 16 72.5t43 52.5t63.5 31.5t78.5 10.5q46 0 89 -9t78 -26l-14 -57q-35 17 -74.5 26.5t-77.5 9.5q-62 0 -98.5 -26t-36.5 -80
q0 -26 7.5 -44t23.5 -32t40.5 -27.5t58.5 -30.5t69 -35.5t64 -43t47.5 -56.5t18.5 -77z" />
    <glyph glyph-name="Scedilla" unicode="&#xf6c1;" horiz-adv-x="499" 
d="M456 170q0 -38 -14.5 -69.5t-40 -55t-61 -38t-78.5 -18.5l-14 -39q14 -2 29 -7t27.5 -14t20.5 -22t8 -31q0 -21 -11 -36.5t-29 -26.5t-42.5 -18t-51.5 -11l-12 44q16 3 31 7t27 10t19 13.5t7 17.5q0 11 -7.5 18.5t-20 13t-28 9t-31.5 6.5l26 66q-43 2 -85.5 12t-76.5 26
l15 55q40 -18 82 -28t86 -10q72 0 115 33t43 90q0 31 -12.5 54t-34 41t-49.5 32.5t-58 28.5q-33 16 -64.5 33.5t-56 39.5t-39.5 50t-15 65q0 41 16 72.5t43 52.5t63.5 31.5t78.5 10.5q46 0 89 -9t78 -26l-14 -57q-35 17 -74.5 26.5t-77.5 9.5q-62 0 -98.5 -26t-36.5 -80
q0 -26 7.5 -44t23.5 -32t40.5 -27.5t58.5 -30.5t69 -35.5t64 -43t47.5 -56.5t18.5 -77z" />
    <glyph glyph-name="scedilla" unicode="&#x15f;" horiz-adv-x="424" 
d="M295 -124q0 -21 -11 -36.5t-29 -26.5t-42.5 -18t-51.5 -11l-12 44q16 3 31 7t27 10t19 13.5t7 17.5q0 11 -7.5 18.5t-20 13t-28 9t-31.5 6.5l27 68q-31 2 -63.5 9t-53.5 18l12 54q27 -12 59 -20t70 -8q48 0 81.5 20t33.5 60q0 20 -9 34t-23.5 25t-33.5 19.5t-39 17.5
q-24 10 -49.5 22.5t-46.5 29t-34.5 38.5t-13.5 52q0 32 12.5 55.5t34.5 39t51 23t62 7.5q39 0 74 -9t62 -23l-13 -54q-29 15 -60 23.5t-63 8.5q-42 0 -68 -15t-26 -50q0 -19 9 -31.5t23 -22.5t31.5 -17.5t35.5 -16.5q20 -10 46 -21.5t49 -29t39 -41.5t16 -58
q0 -59 -42.5 -95.5t-110.5 -42.5l-15 -42q14 -2 29 -7t27.5 -14t20.5 -22t8 -31z" />
    <glyph glyph-name="scedilla" unicode="&#xf6c2;" horiz-adv-x="424" 
d="M295 -124q0 -21 -11 -36.5t-29 -26.5t-42.5 -18t-51.5 -11l-12 44q16 3 31 7t27 10t19 13.5t7 17.5q0 11 -7.5 18.5t-20 13t-28 9t-31.5 6.5l27 68q-31 2 -63.5 9t-53.5 18l12 54q27 -12 59 -20t70 -8q48 0 81.5 20t33.5 60q0 20 -9 34t-23.5 25t-33.5 19.5t-39 17.5
q-24 10 -49.5 22.5t-46.5 29t-34.5 38.5t-13.5 52q0 32 12.5 55.5t34.5 39t51 23t62 7.5q39 0 74 -9t62 -23l-13 -54q-29 15 -60 23.5t-63 8.5q-42 0 -68 -15t-26 -50q0 -19 9 -31.5t23 -22.5t31.5 -17.5t35.5 -16.5q20 -10 46 -21.5t49 -29t39 -41.5t16 -58
q0 -59 -42.5 -95.5t-110.5 -42.5l-15 -42q14 -2 29 -7t27.5 -14t20.5 -22t8 -31z" />
    <glyph glyph-name="Scaron" unicode="&#x160;" horiz-adv-x="499" 
d="M456 170q0 -41 -16.5 -74.5t-46 -57.5t-70.5 -37t-90 -13q-48 0 -97.5 10.5t-87.5 28.5l15 55q40 -18 82 -28t86 -10q72 0 115 33t43 90q0 31 -12.5 54t-34 41t-49.5 32.5t-58 28.5q-33 16 -64.5 33.5t-56 39.5t-39.5 50t-15 65q0 41 16 72.5t43 52.5t63.5 31.5
t78.5 10.5q46 0 89 -9t78 -26l-14 -57q-35 17 -74.5 26.5t-77.5 9.5q-62 0 -98.5 -26t-36.5 -80q0 -26 7.5 -44t23.5 -32t40.5 -27.5t58.5 -30.5t69 -35.5t64 -43t47.5 -56.5t18.5 -77zM287 730h-72l-92 111h64l64 -77l64 77h64z" />
    <glyph glyph-name="scaron" unicode="&#x161;" horiz-adv-x="424" 
d="M378 130q0 -32 -13.5 -58t-37.5 -44t-57 -28t-72 -10q-17 0 -36.5 2t-38.5 5.5t-36.5 9t-30.5 11.5l12 54q27 -12 59 -20t70 -8q48 0 81.5 20t33.5 60q0 20 -9 34t-23.5 25t-33.5 19.5t-39 17.5q-24 10 -49.5 22.5t-46.5 29t-34.5 38.5t-13.5 52q0 32 12.5 55.5t34.5 39
t51 23t62 7.5q39 0 74 -9t62 -23l-13 -54q-29 15 -60 23.5t-63 8.5q-42 0 -68 -15t-26 -50q0 -19 9 -31.5t23 -22.5t31.5 -17.5t35.5 -16.5q20 -10 46 -21.5t49 -29t39 -41.5t16 -58zM243 554h-68l-107 156h64l77 -117l77 117h64z" />
    <glyph glyph-name="Tcommaaccent" unicode="&#x162;" horiz-adv-x="518" 
d="M494 666v-56h-201v-610h-68v610h-201v56h470zM187 -227q19 35 28.5 74t11.5 77h64q-2 -51 -15.5 -91.5t-41.5 -82.5z" />
    <glyph glyph-name="Tcommaaccent" unicode="&#x21a;" horiz-adv-x="518" 
d="M494 666v-56h-201v-610h-68v610h-201v56h470zM187 -227q19 35 28.5 74t11.5 77h64q-2 -51 -15.5 -91.5t-41.5 -82.5z" />
    <glyph glyph-name="tcommaaccent" unicode="&#x163;" horiz-adv-x="380" 
d="M25 477h87v127h67v-127h162v-55h-162v-265q0 -27 3 -48t12 -35.5t24.5 -21.5t40.5 -7q21 0 41.5 4t37.5 10l6 -51q-15 -7 -43 -12.5t-54 -5.5q-38 0 -63.5 12.5t-41.5 35t-23 53.5t-7 67v264h-87v55zM154 -227q19 35 28.5 74t11.5 77h64q-2 -51 -15.5 -91.5t-41.5 -82.5z
" />
    <glyph glyph-name="tcommaaccent" unicode="&#x21b;" horiz-adv-x="380" 
d="M25 477h87v127h67v-127h162v-55h-162v-265q0 -27 3 -48t12 -35.5t24.5 -21.5t40.5 -7q21 0 41.5 4t37.5 10l6 -51q-15 -7 -43 -12.5t-54 -5.5q-38 0 -63.5 12.5t-41.5 35t-23 53.5t-7 67v264h-87v55zM154 -227q19 35 28.5 74t11.5 77h64q-2 -51 -15.5 -91.5t-41.5 -82.5z
" />
    <glyph glyph-name="Tcaron" unicode="&#x164;" horiz-adv-x="518" 
d="M494 666v-56h-201v-610h-68v610h-201v56h470zM295 730h-72l-92 111h64l64 -77l64 77h64z" />
    <glyph glyph-name="tcaron" unicode="&#x165;" horiz-adv-x="383" 
d="M25 477h86v127h68v-127h162v-55h-162v-265q0 -27 3 -48t12 -35.5t24.5 -21.5t40.5 -7q21 0 41.5 4t37.5 10l6 -51q-15 -7 -43 -12.5t-54 -5.5q-38 0 -63.5 12.5t-41.5 35t-23 53.5t-7 67v264h-87v55zM261 586q20 43 29 79.5t14 82.5l60 -7q-4 -48 -17.5 -92.5
t-37.5 -84.5z" />
    <glyph glyph-name="Tbar" unicode="&#x166;" horiz-adv-x="518" 
d="M293 288v-288h-68v288h-135v54h135v268h-201v56h470v-56h-201v-268h135v-54h-135z" />
    <glyph glyph-name="tbar" unicode="&#x167;" horiz-adv-x="380" 
d="M25 278h87v144h-87v55h86v127h68v-127h162v-55h-162v-144h132v-54h-132v-67q0 -27 3 -48t12 -35.5t24.5 -21.5t40.5 -7q21 0 41.5 4t37.5 10l6 -51q-15 -7 -43 -12.5t-54 -5.5q-38 0 -63.5 12.5t-41.5 35t-23 53.5t-7 67v66h-87v54z" />
    <glyph glyph-name="Utilde" unicode="&#x168;" horiz-adv-x="674" 
d="M523 666h68v-435q0 -50 -16 -94t-48 -77t-79.5 -52.5t-110.5 -19.5t-110.5 19.5t-79.5 52.5t-48 77t-16 94v435h68v-439q0 -82 47.5 -132.5t138.5 -50.5t138.5 50.5t47.5 132.5v439zM420 740q-20 0 -40.5 9t-38.5 17q-17 8 -30 13.5t-27 5.5q-20 0 -30 -14t-21 -38
l-42 19q15 45 35 65.5t57 20.5q22 0 41.5 -7.5t36.5 -15.5q16 -8 30.5 -15t28.5 -7q18 0 26.5 12.5t18.5 32.5l42 -20q-17 -37 -35 -57.5t-52 -20.5z" />
    <glyph glyph-name="utilde" unicode="&#x169;" horiz-adv-x="535" 
d="M455 477v-477h-63v69q-29 -38 -68.5 -58.5t-89.5 -20.5q-43 0 -74 19t-50.5 51t-29 74.5t-9.5 89.5v253h67v-248q0 -42 5.5 -76t19 -57.5t35.5 -36.5t56 -13q42 0 76.5 22.5t57.5 51.5v357h67zM343 575q-20 0 -41.5 10t-33.5 17q-14 8 -27 14.5t-27 6.5
q-21 0 -29.5 -13.5t-21.5 -40.5l-43 20q16 45 36 66.5t58 21.5q32 0 72 -23q17 -10 31.5 -17.5t26.5 -7.5q17 0 25.5 13.5t18.5 33.5l42 -22q-18 -38 -37 -58.5t-50 -20.5z" />
    <glyph glyph-name="Umacron" unicode="&#x16a;" horiz-adv-x="674" 
d="M523 666h68v-435q0 -50 -16 -94t-48 -77t-79.5 -52.5t-110.5 -19.5t-110.5 19.5t-79.5 52.5t-48 77t-16 94v435h68v-439q0 -82 47.5 -132.5t138.5 -50.5t138.5 50.5t47.5 132.5v439zM205 822h263v-54h-263v54z" />
    <glyph glyph-name="umacron" unicode="&#x16b;" horiz-adv-x="535" 
d="M455 477v-477h-63v69q-29 -38 -68.5 -58.5t-89.5 -20.5q-43 0 -74 19t-50.5 51t-29 74.5t-9.5 89.5v253h67v-248q0 -42 5.5 -76t19 -57.5t35.5 -36.5t56 -13q42 0 76.5 22.5t57.5 51.5v357h67zM139 646h258v-54h-258v54z" />
    <glyph glyph-name="Ubreve" unicode="&#x16c;" horiz-adv-x="674" 
d="M523 666h68v-435q0 -50 -16 -94t-48 -77t-79.5 -52.5t-110.5 -19.5t-110.5 19.5t-79.5 52.5t-48 77t-16 94v435h68v-439q0 -82 47.5 -132.5t138.5 -50.5t138.5 50.5t47.5 132.5v439zM466 834q-12 -49 -45 -76.5t-84 -27.5t-84 27.5t-45 76.5l51 15q10 -33 28 -52t50 -19
t50 19t28 52z" />
    <glyph glyph-name="ubreve" unicode="&#x16d;" horiz-adv-x="535" 
d="M455 477v-477h-63v69q-29 -38 -68.5 -58.5t-89.5 -20.5q-43 0 -74 19t-50.5 51t-29 74.5t-9.5 89.5v253h67v-248q0 -42 5.5 -76t19 -57.5t35.5 -36.5t56 -13q42 0 76.5 22.5t57.5 51.5v357h67zM410 685q-11 -63 -46.5 -97t-91.5 -34t-91.5 34t-46.5 97l52 11
q8 -41 28 -67t58 -26t58 26t28 67z" />
    <glyph glyph-name="Uring" unicode="&#x16e;" horiz-adv-x="674" 
d="M523 666h68v-435q0 -50 -16 -94t-48 -77t-79.5 -52.5t-110.5 -19.5t-110.5 19.5t-79.5 52.5t-48 77t-16 94v435h68v-439q0 -82 47.5 -132.5t138.5 -50.5t138.5 50.5t47.5 132.5v439zM337 890q42 0 63 -25t21 -55t-21 -55t-63 -25t-63 25t-21 55t21 55t63 25zM381 810
q0 20 -12 33t-32 13q-21 0 -33 -13t-12 -33t12 -33t33 -13q20 0 32 13t12 33z" />
    <glyph glyph-name="uring" unicode="&#x16f;" horiz-adv-x="535" 
d="M455 477v-477h-63v69q-29 -38 -68.5 -58.5t-89.5 -20.5q-43 0 -74 19t-50.5 51t-29 74.5t-9.5 89.5v253h67v-248q0 -42 5.5 -76t19 -57.5t35.5 -36.5t56 -13q42 0 76.5 22.5t57.5 51.5v357h67zM266 714q42 0 63 -25t21 -55t-21 -55t-63 -25t-63 25t-21 55t21 55t63 25z
M310 634q0 20 -12 33t-32 13q-21 0 -33 -13t-12 -33t12 -33t33 -13q20 0 32 13t12 33z" />
    <glyph glyph-name="Uhungarumlaut" unicode="&#x170;" horiz-adv-x="674" 
d="M523 666h68v-435q0 -50 -16 -94t-48 -77t-79.5 -52.5t-110.5 -19.5t-110.5 19.5t-79.5 52.5t-48 77t-16 94v435h68v-439q0 -82 47.5 -132.5t138.5 -50.5t138.5 50.5t47.5 132.5v439zM220 730l44 111h73l-62 -111h-55zM387 730l44 111h73l-62 -111h-55z" />
    <glyph glyph-name="uhungarumlaut" unicode="&#x171;" horiz-adv-x="535" 
d="M455 477v-477h-63v69q-29 -38 -68.5 -58.5t-89.5 -20.5q-43 0 -74 19t-50.5 51t-29 74.5t-9.5 89.5v253h67v-248q0 -42 5.5 -76t19 -57.5t35.5 -36.5t56 -13q42 0 76.5 22.5t57.5 51.5v357h67zM147 554l55 156h73l-73 -156h-55zM315 554l55 156h73l-73 -156h-55z" />
    <glyph glyph-name="Uogonek" unicode="&#x172;" horiz-adv-x="674" 
d="M468 -200q-14 -7 -33.5 -11.5t-41.5 -4.5q-40 0 -64.5 21.5t-24.5 60.5q0 24 9.5 43.5t24 35.5t30.5 28t28 20q-14 -2 -28.5 -3.5t-30.5 -1.5q-63 0 -110.5 19.5t-79.5 52.5t-48 77t-16 94v435h68v-439q0 -82 47.5 -132.5t138.5 -50.5t138.5 50.5t47.5 132.5v439h68v-435
q0 -117 -78 -184q-24 -21 -50.5 -42.5t-48.5 -43t-36 -44t-14 -44.5q0 -42 44 -42q12 0 26.5 2.5t25.5 7.5z" />
    <glyph glyph-name="uogonek" unicode="&#x173;" horiz-adv-x="535" 
d="M455 -200q-14 -7 -33.5 -11.5t-41.5 -4.5q-40 0 -64.5 22.5t-24.5 61.5q0 24 10.5 44t25.5 37t32.5 29.5t32.5 21.5v69q-29 -38 -68.5 -58.5t-89.5 -20.5q-43 0 -74 19t-50.5 51t-29 74.5t-9.5 89.5v253h67v-248q0 -42 5.5 -76t19 -57.5t35.5 -36.5t56 -13
q42 0 76.5 22.5t57.5 51.5v357h67v-477q-20 -14 -38.5 -28t-33 -29.5t-23.5 -32.5t-9 -37q0 -42 44 -42q12 0 26.5 2.5t25.5 7.5z" />
    <glyph glyph-name="Wcircumflex" unicode="&#x174;" horiz-adv-x="920" 
d="M670 94l157 572h68l-191 -666h-67l-177 602l-177 -602h-67l-191 666h68l157 -572l168 572h84zM588 730h-64l-64 77l-64 -77h-64l92 111h72z" />
    <glyph glyph-name="wcircumflex" unicode="&#x175;" horiz-adv-x="738" 
d="M537 84l109 393h67l-144 -477h-63l-137 416l-137 -416h-63l-144 477h67l109 -393l130 393h76zM510 554h-64l-77 117l-77 -117h-64l107 156h68z" />
    <glyph glyph-name="Ycircumflex" unicode="&#x176;" horiz-adv-x="520" 
d="M226 269l-218 397h72l180 -335l180 335h72l-218 -397v-269h-68v269zM388 730h-64l-64 77l-64 -77h-64l92 111h72z" />
    <glyph glyph-name="ycircumflex" unicode="&#x177;" horiz-adv-x="443" 
d="M117 -206l72 203l-172 480h70l136 -406l134 406h69l-243 -683h-66zM363 554h-64l-77 117l-77 -117h-64l107 156h68z" />
    <glyph glyph-name="Ydieresis" unicode="&#x178;" horiz-adv-x="520" 
d="M226 269l-218 397h72l180 -335l180 335h72l-218 -397v-269h-68v269zM212 789q0 -20 -12.5 -32.5t-33.5 -12.5t-33.5 12.5t-12.5 32.5t12.5 32.5t33.5 12.5t33.5 -12.5t12.5 -32.5zM399 789q0 -20 -12.5 -32.5t-33.5 -12.5t-33.5 12.5t-12.5 32.5t12.5 32.5t33.5 12.5
t33.5 -12.5t12.5 -32.5z" />
    <glyph glyph-name="Zacute" unicode="&#x179;" horiz-adv-x="539" 
d="M67 666h418v-56l-358 -554h364v-56h-436v56l358 554h-346v56zM225 730l83 111h84l-108 -111h-59z" />
    <glyph glyph-name="zacute" unicode="&#x17a;" horiz-adv-x="445" 
d="M60 0v55l262 367h-249v55h321v-55l-262 -367h268v-55h-340zM186 554l69 156h80l-92 -156h-57z" />
    <glyph glyph-name="Zdotaccent" unicode="&#x17b;" horiz-adv-x="539" 
d="M67 666h418v-56l-358 -554h364v-56h-436v56l358 554h-346v56zM231 791q0 20 13 33.5t33 13.5q21 0 34 -13.5t13 -33.5q0 -19 -13 -32.5t-34 -13.5q-20 0 -33 13.5t-13 32.5z" />
    <glyph glyph-name="zdotaccent" unicode="&#x17c;" horiz-adv-x="445" 
d="M60 0v55l262 367h-249v55h321v-55l-262 -367h268v-55h-340zM184 622q0 20 13 33.5t33 13.5q21 0 34 -13.5t13 -33.5q0 -19 -13 -32.5t-34 -13.5q-20 0 -33 13.5t-13 32.5z" />
    <glyph glyph-name="Zcaron" unicode="&#x17d;" horiz-adv-x="539" 
d="M67 666h418v-56l-358 -554h364v-56h-436v56l358 554h-346v56zM315 730h-72l-92 111h64l64 -77l64 77h64z" />
    <glyph glyph-name="zcaron" unicode="&#x17e;" horiz-adv-x="445" 
d="M60 0v55l262 367h-249v55h321v-55l-262 -367h268v-55h-340zM269 554h-68l-107 156h64l77 -117l77 117h64z" />
    <glyph glyph-name="florin" unicode="&#x192;" horiz-adv-x="515" 
d="M116 353v54h110l3 39q10 123 53 176.5t125 53.5q21 0 43 -4t35 -9l-7 -53q-15 5 -32 7.5t-35 2.5q-28 0 -48 -9.5t-33.5 -30t-21.5 -54t-12 -81.5l-3 -38h131v-54h-136l-17 -193q-4 -47 -11.5 -96.5t-26.5 -90t-54 -66.5t-93 -26q-20 0 -44.5 4t-41.5 11l7 52
q17 -5 35.5 -8.5t39.5 -3.5q39 0 61 18t34.5 48.5t17.5 71.5t9 88l17 191h-105z" />
    <glyph glyph-name="Aringacute" unicode="&#x1fa;" horiz-adv-x="654" 
d="M327 797q42 0 63 -25t21 -55q0 -22 -11 -41t-32 -30l256 -646h-71l-65 170h-322l-65 -170h-71l256 646q-22 11 -32.5 30t-10.5 41q0 30 21 55t63 25zM327 596l-140 -370h280zM371 717q0 20 -12 33t-32 13q-21 0 -33 -13t-12 -33t12 -33t33 -13q20 0 32 13t12 33zM298 831
l50 90h79l-74 -90h-55z" />
    <glyph glyph-name="aringacute" unicode="&#x1fb;" horiz-adv-x="493" 
d="M354 65q-11 -12 -27.5 -25.5t-37.5 -24.5t-46.5 -18t-53.5 -7q-65 0 -99 36t-34 93q0 34 12.5 59t34.5 41.5t52.5 25.5t66.5 11q32 2 65 3l66 2v31q0 72 -29.5 105.5t-91.5 33.5q-36 0 -66.5 -8t-59.5 -26l-17 51q28 17 66 28t86 11q39 0 72 -11.5t56.5 -35.5t37 -60
t13.5 -85v-295h-66v65zM204 42q43 0 82 22t67 54v95q-33 -1 -64.5 -3t-58.5 -4q-47 -5 -77.5 -24.5t-30.5 -62.5q0 -77 82 -77zM245 714q42 0 63 -25t21 -55t-21 -55t-63 -25t-63 25t-21 55t21 55t63 25zM289 634q0 20 -12 33t-32 13q-21 0 -33 -13t-12 -33t12 -33t33 -13
q20 0 32 13t12 33zM219 753l52 95h75l-75 -95h-52z" />
    <glyph glyph-name="AEacute" unicode="&#x1fc;" horiz-adv-x="866" 
d="M807 610h-330l32 -241h270v-56h-263l33 -257h261v-56h-317l-21 170h-294l-95 -170h-73l383 666h414v-56zM210 225h254l-46 375zM426 730l83 111h84l-108 -111h-59z" />
    <glyph glyph-name="aeacute" unicode="&#x1fd;" horiz-adv-x="780" 
d="M560 487q45 0 78.5 -15t55.5 -41.5t33 -62.5t11 -79q0 -19 -2 -35t-4 -31h-314q2 -84 41.5 -132t125.5 -48q72 0 137 31l12 -50q-28 -14 -69 -24t-86 -10q-62 0 -106.5 22t-72.5 60q-40 -39 -90 -60.5t-105 -21.5q-34 0 -61.5 10t-47 28t-30 42t-10.5 52q0 69 43.5 104
t115.5 40q36 2 68.5 3t66.5 2v23q0 72 -31.5 105t-88.5 33q-36 0 -66.5 -9.5t-58.5 -23.5l-15 52q63 36 147 36q58 0 96.5 -24t58.5 -69q27 44 69 68.5t99 24.5zM217 41q45 0 85 20t72 52q-11 24 -16.5 50.5t-7.5 55.5q-24 -1 -56 -1.5t-60 -2.5q-57 -3 -85 -24t-28 -65
q0 -39 24.5 -62t71.5 -23zM557 436q-33 0 -58.5 -13.5t-43 -35.5t-27 -51t-10.5 -60h256q3 32 -2.5 61t-19.5 51t-37.5 35t-57.5 13zM372 554l69 156h80l-92 -156h-57z" />
    <glyph glyph-name="Oslashacute" unicode="&#x1fe;" horiz-adv-x="738" 
d="M142 81q-45 48 -68.5 113.5t-23.5 138.5q0 69 21.5 131.5t62 110t100 75.5t135.5 28q59 0 107 -17t86 -47l91 116l35 -29l-92 -117q45 -48 68.5 -113.5t23.5 -137.5q0 -69 -21.5 -131.5t-62 -110t-100 -75.5t-135.5 -28q-59 0 -107 16.5t-86 45.5l-90 -114l-36 28z
M118 333q0 -60 16 -111.5t48 -90.5l343 436q-31 26 -69.5 40.5t-86.5 14.5q-60 0 -106.5 -23t-78.5 -62.5t-49 -92t-17 -111.5zM369 44q60 0 106.5 23t79 62t49 91.5t16.5 112.5q0 58 -16 110t-47 91l-343 -436q30 -26 68.5 -40t86.5 -14zM323 730l83 111h84l-108 -111h-59z
" />
    <glyph glyph-name="oslashacute" unicode="&#x1ff;" horiz-adv-x="544" 
d="M114 54q-32 35 -49 82.5t-17 101.5q0 49 14.5 94.5t43 79.5t70.5 54.5t96 20.5q38 0 69 -10t57 -28l65 90l33 -25l-67 -93q33 -35 50 -82t17 -101q0 -49 -14.5 -94t-43 -79t-70.5 -54.5t-96 -20.5q-75 0 -127 37l-64 -89l-33 24zM115 238q0 -39 9 -73t27 -60l213 297
q-37 31 -92 31q-39 0 -68.5 -15.5t-49 -41.5t-29.5 -62t-10 -76zM429 238q0 38 -9 72.5t-27 60.5l-214 -297q38 -30 93 -30q39 0 68.5 15t49 41.5t29.5 61.5t10 76zM232 554l69 156h80l-92 -156h-57z" />
    <glyph glyph-name="Scommaaccent" unicode="&#x218;" horiz-adv-x="499" 
d="M456 170q0 -41 -16.5 -74.5t-46 -57.5t-70.5 -37t-90 -13q-48 0 -97.5 10.5t-87.5 28.5l15 55q40 -18 82 -28t86 -10q72 0 115 33t43 90q0 31 -12.5 54t-34 41t-49.5 32.5t-58 28.5q-33 16 -64.5 33.5t-56 39.5t-39.5 50t-15 65q0 41 16 72.5t43 52.5t63.5 31.5
t78.5 10.5q46 0 89 -9t78 -26l-14 -57q-35 17 -74.5 26.5t-77.5 9.5q-62 0 -98.5 -26t-36.5 -80q0 -26 7.5 -44t23.5 -32t40.5 -27.5t58.5 -30.5t69 -35.5t64 -43t47.5 -56.5t18.5 -77zM181 -227q19 35 28.5 74t11.5 77h64q-2 -51 -15.5 -91.5t-41.5 -82.5z" />
    <glyph glyph-name="scommaaccent" unicode="&#x219;" horiz-adv-x="424" 
d="M378 130q0 -32 -13.5 -58t-37.5 -44t-57 -28t-72 -10q-17 0 -36.5 2t-38.5 5.5t-36.5 9t-30.5 11.5l12 54q27 -12 59 -20t70 -8q48 0 81.5 20t33.5 60q0 20 -9 34t-23.5 25t-33.5 19.5t-39 17.5q-24 10 -49.5 22.5t-46.5 29t-34.5 38.5t-13.5 52q0 32 12.5 55.5t34.5 39
t51 23t62 7.5q39 0 74 -9t62 -23l-13 -54q-29 15 -60 23.5t-63 8.5q-42 0 -68 -15t-26 -50q0 -19 9 -31.5t23 -22.5t31.5 -17.5t35.5 -16.5q20 -10 46 -21.5t49 -29t39 -41.5t16 -58zM140 -227q19 35 28.5 74t11.5 77h64q-2 -51 -15.5 -91.5t-41.5 -82.5z" />
    <glyph glyph-name="circumflex" unicode="&#x2c6;" horiz-adv-x="522" 
d="M402 554h-64l-77 117l-77 -117h-64l107 156h68z" />
    <glyph glyph-name="caron" unicode="&#x2c7;" horiz-adv-x="522" 
d="M295 554h-68l-107 156h64l77 -117l77 117h64z" />
    <glyph glyph-name="breve" unicode="&#x2d8;" horiz-adv-x="516" 
d="M396 685q-11 -63 -46.5 -97t-91.5 -34t-91.5 34t-46.5 97l52 11q8 -41 28 -67t58 -26t58 26t28 67z" />
    <glyph glyph-name="dotaccent" unicode="&#x2d9;" horiz-adv-x="333" 
d="M120 622q0 20 13 33.5t33 13.5q21 0 34 -13.5t13 -33.5q0 -19 -13 -32.5t-34 -13.5q-20 0 -33 13.5t-13 32.5z" />
    <glyph glyph-name="ring" unicode="&#x2da;" horiz-adv-x="408" 
d="M204 714q42 0 63 -25t21 -55t-21 -55t-63 -25t-63 25t-21 55t21 55t63 25zM248 634q0 20 -12 33t-32 13q-21 0 -33 -13t-12 -33t12 -33t33 -13q20 0 32 13t12 33z" />
    <glyph glyph-name="ogonek" unicode="&#x2db;" horiz-adv-x="404" 
d="M284 -200q-14 -7 -33.5 -11.5t-41.5 -4.5q-40 0 -64.5 22.5t-24.5 61.5q0 24 10 44t25 36.5t32 29.5t31 22h66q-20 -14 -38.5 -28t-33 -29.5t-23.5 -32.5t-9 -37q0 -42 44 -42q12 0 26.5 2.5t25.5 7.5z" />
    <glyph glyph-name="tilde" unicode="&#x2dc;" horiz-adv-x="550" 
d="M343 575q-20 0 -41.5 10t-33.5 17q-14 8 -27 14.5t-27 6.5q-21 0 -29.5 -13.5t-21.5 -40.5l-43 20q16 45 36 66.5t58 21.5q32 0 72 -23q17 -10 31.5 -17.5t26.5 -7.5q17 0 25.5 13.5t18.5 33.5l42 -22q-18 -38 -37 -58.5t-50 -20.5z" />
    <glyph glyph-name="hungarumlaut" unicode="&#x2dd;" horiz-adv-x="536" 
d="M120 554l55 156h73l-73 -156h-55zM288 554l55 156h73l-73 -156h-55z" />
    <glyph glyph-name="uni0312" unicode="&#x312;" horiz-adv-x="340" 
d="M220 704q-21 -38 -28.5 -73.5t-9.5 -76.5l-62 3q1 54 15 94t40 75z" />
    <glyph glyph-name="uni0315" unicode="&#x315;" horiz-adv-x="349" 
d="M120 512q22 48 33 94.5t14 99.5l62 -7q-4 -55 -19 -109.5t-43 -99.5z" />
    <glyph glyph-name="uni0326" unicode="&#x326;" horiz-adv-x="343" 
d="M119 -227q19 35 28.5 74t11.5 77h64q-2 -51 -15.5 -91.5t-41.5 -82.5z" />
    <glyph glyph-name="Omega" unicode="&#x3a9;" horiz-adv-x="778" 
d="M708 366q0 -95 -45 -176t-121 -135h144v-55h-224v55q86 60 132.5 133t46.5 176q0 63 -19.5 111t-54 80.5t-80.5 49.5t-98 17q-53 0 -98.5 -17t-80 -49.5t-54 -80.5t-19.5 -111q0 -103 46.5 -176t132.5 -133v-55h-224v55h144q-76 54 -121 135t-45 176q0 73 25 131t68 98.5
t101.5 61.5t124.5 21t124.5 -21t101.5 -61.5t68 -98.5t25 -131z" />
    <glyph glyph-name="pi" unicode="&#x3c0;" horiz-adv-x="686" 
d="M526 422q-29 -58 -44 -109t-15 -115q0 -35 5 -63.5t17 -48.5t32 -31t50 -11q14 0 27 2.5t24 6.5l6 -51q-14 -6 -32.5 -9t-36.5 -3q-43 0 -73 17t-48.5 45t-27 65t-8.5 78q0 66 18 125.5t43 101.5h-227v-35q0 -101 -20.5 -198.5t-54.5 -188.5h-69q37 96 57.5 193.5
t20.5 195.5v33h-115v55h586v-55h-115z" />
    <glyph glyph-name="Wgrave" unicode="&#x1e80;" horiz-adv-x="920" 
d="M670 94l157 572h68l-191 -666h-67l-177 602l-177 -602h-67l-191 666h68l157 -572l168 572h84zM429 730l-108 111h84l83 -111h-59z" />
    <glyph glyph-name="wgrave" unicode="&#x1e81;" horiz-adv-x="738" 
d="M537 84l109 393h67l-144 -477h-63l-137 416l-137 -416h-63l-144 477h67l109 -393l130 393h76zM338 554l-92 156h80l69 -156h-57z" />
    <glyph glyph-name="Wacute" unicode="&#x1e82;" horiz-adv-x="920" 
d="M670 94l157 572h68l-191 -666h-67l-177 602l-177 -602h-67l-191 666h68l157 -572l168 572h84zM432 730l83 111h84l-108 -111h-59z" />
    <glyph glyph-name="wacute" unicode="&#x1e83;" horiz-adv-x="738" 
d="M537 84l109 393h67l-144 -477h-63l-137 416l-137 -416h-63l-144 477h67l109 -393l130 393h76zM340 554l69 156h80l-92 -156h-57z" />
    <glyph glyph-name="Wdieresis" unicode="&#x1e84;" horiz-adv-x="920" 
d="M670 94l157 572h68l-191 -666h-67l-177 602l-177 -602h-67l-191 666h68l157 -572l168 572h84zM412 789q0 -20 -12.5 -32.5t-33.5 -12.5t-33.5 12.5t-12.5 32.5t12.5 32.5t33.5 12.5t33.5 -12.5t12.5 -32.5zM599 789q0 -20 -12.5 -32.5t-33.5 -12.5t-33.5 12.5t-12.5 32.5
t12.5 32.5t33.5 12.5t33.5 -12.5t12.5 -32.5z" />
    <glyph glyph-name="wdieresis" unicode="&#x1e85;" horiz-adv-x="738" 
d="M537 84l109 393h67l-144 -477h-63l-137 416l-137 -416h-63l-144 477h67l109 -393l130 393h76zM327 628q0 -21 -13.5 -34.5t-34.5 -13.5q-20 0 -33 13.5t-13 34.5q0 20 13 33t33 13q21 0 34.5 -13t13.5 -33zM505 628q0 -21 -13.5 -34.5t-34.5 -13.5q-20 0 -33 13.5
t-13 34.5q0 20 13 33t33 13q21 0 34.5 -13t13.5 -33z" />
    <glyph glyph-name="Ygrave" unicode="&#x1ef2;" horiz-adv-x="520" 
d="M226 269l-218 397h72l180 -335l180 335h72l-218 -397v-269h-68v269zM243 730l-108 111h84l83 -111h-59z" />
    <glyph glyph-name="ygrave" unicode="&#x1ef3;" horiz-adv-x="443" 
d="M117 -206l72 203l-172 480h70l136 -406l134 406h69l-243 -683h-66zM203 554l-92 156h80l69 -156h-57z" />
    <glyph glyph-name="endash" unicode="&#x2013;" horiz-adv-x="518" 
d="M70 287v55h378v-55h-378z" />
    <glyph glyph-name="emdash" unicode="&#x2014;" horiz-adv-x="767" 
d="M60 231v55h647v-55h-647z" />
    <glyph glyph-name="quoteleft" unicode="&#x2018;" horiz-adv-x="236" 
d="M186 684q-13 -28 -22 -53t-15.5 -49.5t-10.5 -51.5t-6 -59l-64 7q5 69 22.5 123t48.5 105z" />
    <glyph glyph-name="quoteright" unicode="&#x2019;" horiz-adv-x="236" 
d="M58 493q13 28 22 53t15.5 49.5t10.5 51.5t6 59l64 -7q-5 -69 -22.5 -123t-48.5 -105z" />
    <glyph glyph-name="quotesinglbase" unicode="&#x201a;" horiz-adv-x="235" 
d="M42 -117q13 28 22 53t15.5 49.5t10.5 51.5t6 59l64 -7q-5 -69 -22.5 -123t-48.5 -105z" />
    <glyph glyph-name="quotedblleft" unicode="&#x201c;" horiz-adv-x="411" 
d="M361 684q-13 -28 -22 -53t-15.5 -49.5t-10.5 -51.5t-6 -59l-64 7q5 69 22.5 123t48.5 105zM183 684q-13 -28 -22 -53t-15.5 -49.5t-10.5 -51.5t-6 -59l-64 7q5 69 22.5 123t48.5 105z" />
    <glyph glyph-name="quotedblright" unicode="&#x201d;" horiz-adv-x="411" 
d="M65 493q13 28 22 53t15.5 49.5t10.5 51.5t6 59l64 -7q-5 -69 -22.5 -123t-48.5 -105zM243 493q13 28 22 53t15.5 49.5t10.5 51.5t6 59l64 -7q-5 -69 -22.5 -123t-48.5 -105z" />
    <glyph glyph-name="quotedblbase" unicode="&#x201e;" horiz-adv-x="413" 
d="M42 -117q13 28 22 53t15.5 49.5t10.5 51.5t6 59l64 -7q-5 -69 -22.5 -123t-48.5 -105zM220 -117q13 28 22 53t15.5 49.5t10.5 51.5t6 59l64 -7q-5 -69 -22.5 -123t-48.5 -105z" />
    <glyph glyph-name="dagger" unicode="&#x2020;" horiz-adv-x="453" 
d="M208 128l-15 284l14 108l-85 -13h-56v57h56l85 -14l-14 109v47h67v-47l-14 -109l86 14h55v-57h-55l-86 13l14 -108l-15 -284h-37z" />
    <glyph glyph-name="daggerdbl" unicode="&#x2021;" horiz-adv-x="471" 
d="M269 293l-14 -108l86 13h55v-56h-55l-86 13l14 -108v-47h-67v47l14 108l-85 -13h-56v56h56l85 -13l-14 108v119l14 108l-85 -13h-56v57h56l85 -14l-14 109v47h67v-47l-14 -109l86 14h55v-57h-55l-86 13l14 -108v-119z" />
    <glyph glyph-name="bullet" unicode="&#x2022;" horiz-adv-x="401" 
d="M321 284q0 -25 -9 -47t-25 -38.5t-38.5 -26t-48.5 -9.5t-48 9.5t-38 26t-25 38.5t-9 47t9 47t25 38.5t38 26t48 9.5t48.5 -9.5t38.5 -26t25 -38.5t9 -47z" />
    <glyph glyph-name="ellipsis" unicode="&#x2026;" horiz-adv-x="744" 
d="M75 41q0 20 13.5 34.5t35.5 14.5t35.5 -14.5t13.5 -34.5t-13.5 -34.5t-35.5 -14.5t-35.5 14.5t-13.5 34.5zM323 41q0 20 13.5 34.5t35.5 14.5t35.5 -14.5t13.5 -34.5t-13.5 -34.5t-35.5 -14.5t-35.5 14.5t-13.5 34.5zM571 41q0 20 13.5 34.5t35.5 14.5t35.5 -14.5
t13.5 -34.5t-13.5 -34.5t-35.5 -14.5t-35.5 14.5t-13.5 34.5z" />
    <glyph glyph-name="perthousand" unicode="&#x2030;" horiz-adv-x="1263" 
d="M574 678l49 -24l-319 -666l-48 24zM380 485q0 -36 -10 -71t-30.5 -62t-50.5 -43.5t-69 -16.5q-40 0 -70 16.5t-50 43.5t-30 62t-10 71q0 37 10 71.5t30 61.5t50 43.5t70 16.5q39 0 69 -16.5t50.5 -43.5t30.5 -61.5t10 -71.5zM118 485q0 -28 6 -54t18.5 -46t31.5 -32
t46 -12t46 12t31.5 32t18.5 46t6 54t-6 54t-18.5 46t-31.5 32t-46 12t-46 -12t-31.5 -32t-18.5 -46t-6 -54zM817 181q0 -36 -10 -71t-30.5 -62t-50.5 -43.5t-69 -16.5q-40 0 -70 16.5t-50 43.5t-30 62t-10 71q0 37 10 71.5t30 61.5t50 43.5t70 16.5q39 0 69 -16.5
t50.5 -43.5t30.5 -61.5t10 -71.5zM555 181q0 -28 6 -54t18.5 -46t31.5 -32t46 -12t46 12t31.5 32t18.5 46t6 54t-6 54t-18.5 46t-31.5 32t-46 12t-46 -12t-31.5 -32t-18.5 -46t-6 -54zM1203 181q0 -36 -10 -71t-30.5 -62t-50.5 -43.5t-69 -16.5q-40 0 -70 16.5t-50 43.5
t-30 62t-10 71q0 37 10 71.5t30 61.5t50 43.5t70 16.5q39 0 69 -16.5t50.5 -43.5t30.5 -61.5t10 -71.5zM941 181q0 -28 6 -54t18.5 -46t31.5 -32t46 -12t46 12t31.5 32t18.5 46t6 54t-6 54t-18.5 46t-31.5 32t-46 12t-46 -12t-31.5 -32t-18.5 -46t-6 -54z" />
    <glyph glyph-name="guilsinglleft" unicode="&#x2039;" horiz-adv-x="336" 
d="M126 240l135 -170l-44 -35l-162 205l162 205l44 -35z" />
    <glyph glyph-name="guilsinglright" unicode="&#x203a;" horiz-adv-x="336" 
d="M75 410l44 35l162 -205l-162 -205l-44 35l135 170z" />
    <glyph glyph-name="fraction" unicode="&#x2044;" horiz-adv-x="218" 
d="M264 678l44 -23l-355 -667l-43 23z" />
    <glyph glyph-name="uni2070" unicode="&#x2070;" horiz-adv-x="392" 
d="M352 615q0 -40 -9 -77t-28.5 -65.5t-49 -45.5t-69.5 -17q-41 0 -70 17t-48.5 45.5t-28.5 65.5t-9 77t9 77.5t28.5 66t48.5 45.5t70 17q40 0 69.5 -17t49 -45.5t28.5 -66t9 -77.5zM293 615q0 31 -5 59.5t-16 50.5t-29.5 35t-46.5 13t-46.5 -13t-30 -35t-16 -50.5
t-4.5 -59.5t4.5 -59.5t16 -50t30 -34.5t46.5 -13t46.5 13t29.5 34.5t16 50t5 59.5z" />
    <glyph glyph-name="uni2074" unicode="&#x2074;" horiz-adv-x="377" 
d="M292 526v-106h-56v106h-194l-10 39l203 246h57v-239h59v-46h-59zM236 743l-138 -171h138v171z" />
    <glyph glyph-name="uni2075" unicode="&#x2075;" horiz-adv-x="350" 
d="M313 529q0 -30 -12 -52t-33 -37t-49 -22.5t-59 -7.5q-25 0 -56 4.5t-54 14.5l9 47q24 -10 49.5 -14.5t49.5 -4.5q42 0 69.5 17t27.5 53t-30.5 53t-78.5 17h-75v214h222v-48h-164v-118h29q33 0 61.5 -7.5t49 -22t32.5 -36t12 -50.5z" />
    <glyph glyph-name="uni2076" unicode="&#x2076;" horiz-adv-x="373" 
d="M279 778q-38 -16 -68.5 -32.5t-53 -36.5t-36.5 -44.5t-19 -55.5q17 18 45.5 31t65.5 13q54 0 90.5 -31.5t36.5 -86.5q0 -26 -10.5 -48.5t-30 -39.5t-46 -27t-57.5 -10q-38 0 -66.5 13.5t-47 36t-28 51t-9.5 59.5q0 48 15.5 86.5t43.5 69.5t68 54.5t90 40.5zM284 533
q0 38 -22.5 56.5t-59.5 18.5q-32 0 -57 -13t-44 -32q0 -45 25 -76.5t70 -31.5q40 0 64 21.5t24 56.5z" />
    <glyph glyph-name="uni2077" unicode="&#x2077;" horiz-adv-x="333" 
d="M311 769l-199 -349h-60l197 343h-204v48h257z" />
    <glyph glyph-name="uni2078" unicode="&#x2078;" horiz-adv-x="382" 
d="M45 515q0 20 8.5 36.5t22.5 30t31.5 23.5t35.5 17q-36 17 -59.5 42t-23.5 61q0 44 37 70t94 26t94 -26t37 -70q0 -37 -24.5 -60t-58.5 -40q18 -7 35.5 -17t31.5 -23t22.5 -30.5t8.5 -39.5q0 -24 -12.5 -43.5t-33 -33t-46.5 -21t-54 -7.5q-68 0 -107 27t-39 78zM281 516
q0 31 -27 50t-63 33q-17 -8 -33.5 -16.5t-29 -18.5t-20 -22t-7.5 -28q0 -27 23 -44.5t67 -17.5q38 0 64 18t26 46zM114 725q0 -29 20.5 -46t56.5 -33q33 15 55 34t22 46q0 23 -20 38t-57 15t-57 -15t-20 -39z" />
    <glyph glyph-name="uni2079" unicode="&#x2079;" horiz-adv-x="381" 
d="M102 453q76 31 121 69t56 100q-17 -18 -45.5 -31t-65.5 -13q-57 0 -92 31.5t-35 86.5q0 27 10.5 50t29 39.5t45 26t59.5 9.5q38 0 66.5 -13t47 -35.5t28 -51.5t9.5 -60q0 -95 -59 -156t-158 -95zM97 698q0 -39 23.5 -57t58.5 -18q32 0 57.5 13t43.5 32q0 45 -25 76.5
t-70 31.5q-41 0 -64.5 -21.5t-23.5 -56.5z" />
    <glyph glyph-name="uni207A" unicode="&#x207a;" horiz-adv-x="440" 
d="M247 596v-126h-54v126h-128v48h128v126h54v-126h128v-48h-128z" />
    <glyph glyph-name="uni207B" unicode="&#x207b;" horiz-adv-x="414" 
d="M60 644h294v-49h-294v49z" />
    <glyph glyph-name="uni207C" unicode="&#x207c;" horiz-adv-x="435" 
d="M70 715h295v-47h-295v47zM70 573h295v-47h-295v47z" />
    <glyph glyph-name="uni207D" unicode="&#x207d;" horiz-adv-x="238" 
d="M124 616q0 -61 20 -114.5t59 -109.5l-40 -28q-48 58 -73 118t-25 134t25 134t73 118l40 -28q-39 -56 -59 -109.5t-20 -114.5z" />
    <glyph glyph-name="uni207E" unicode="&#x207e;" horiz-adv-x="238" 
d="M114 616q0 61 -20 114.5t-59 109.5l40 28q48 -58 73 -118t25 -134t-25 -134t-73 -118l-40 28q39 56 59 109.5t20 114.5z" />
    <glyph glyph-name="uni207F" unicode="&#x207f;" horiz-adv-x="419" 
d="M65 420v337h56v-50q20 26 48 42t65 16q33 0 56.5 -13t38.5 -35.5t22.5 -52.5t7.5 -64v-180h-59v174q0 25 -4 47.5t-14 39.5t-26 26.5t-40 9.5q-29 0 -52.5 -15t-39.5 -35v-247h-59z" />
    <glyph glyph-name="uni2080" unicode="&#x2080;" horiz-adv-x="392" 
d="M352 38q0 -40 -9 -77t-28.5 -65.5t-49 -45.5t-69.5 -17q-41 0 -70 17t-48.5 45.5t-28.5 65.5t-9 77t9 77.5t28.5 66t48.5 45.5t70 17q40 0 69.5 -17t49 -45.5t28.5 -66t9 -77.5zM293 38q0 31 -5 59.5t-16 50.5t-29.5 35t-46.5 13t-46.5 -13t-30 -35t-16 -50.5t-4.5 -59.5
t4.5 -59.5t16 -50t30 -34.5t46.5 -13t46.5 13t29.5 34.5t16 50t5 59.5z" />
    <glyph glyph-name="uni2081" unicode="&#x2081;" horiz-adv-x="255" 
d="M126 -157v331l-89 -29l-14 47l120 42h42v-391h-59z" />
    <glyph glyph-name="uni2082" unicode="&#x2082;" horiz-adv-x="354" 
d="M62 214q22 14 51 22t61 8q63 0 97 -32.5t34 -83.5q0 -30 -9.5 -54.5t-25 -45.5t-36.5 -39.5t-44 -37.5t-41 -33t-35 -27h205v-48h-274l-12 39q32 26 61.5 50.5t58.5 50.5q18 16 35 32t29.5 33t20.5 36t8 40q0 34 -20.5 53t-58.5 19q-24 0 -46 -7.5t-44 -19.5z" />
    <glyph glyph-name="uni2083" unicode="&#x2083;" horiz-adv-x="348" 
d="M303 -53q0 -26 -11 -47t-31 -36t-47.5 -23t-60.5 -8q-27 0 -57.5 6.5t-50.5 17.5l11 45q23 -11 45.5 -16.5t48.5 -5.5q45 0 69.5 17.5t24.5 49.5q0 19 -8.5 32t-23.5 21.5t-34.5 12.5t-41.5 4h-47v49h41q50 0 77.5 21t27.5 51t-21.5 44t-56.5 14q-45 0 -88 -22l-12 45
q45 25 109 25q56 0 91.5 -25.5t35.5 -73.5q0 -71 -84 -100q44 -11 69 -34t25 -64z" />
    <glyph glyph-name="uni2084" unicode="&#x2084;" horiz-adv-x="377" 
d="M292 -51v-106h-56v106h-194l-10 39l203 246h57v-239h59v-46h-59zM236 166l-138 -171h138v171z" />
    <glyph glyph-name="uni2085" unicode="&#x2085;" horiz-adv-x="350" 
d="M313 -48q0 -30 -12 -52t-33 -37t-49 -22.5t-59 -7.5q-25 0 -56 4.5t-54 14.5l9 47q24 -10 49.5 -14.5t49.5 -4.5q42 0 69.5 17t27.5 53t-30.5 53t-78.5 17h-75v214h222v-48h-164v-118h29q33 0 61.5 -7.5t49 -22t32.5 -36t12 -50.5z" />
    <glyph glyph-name="uni2086" unicode="&#x2086;" horiz-adv-x="373" 
d="M279 201q-38 -16 -68.5 -32.5t-53 -36.5t-36.5 -44.5t-19 -55.5q17 18 45.5 31t65.5 13q54 0 90.5 -31.5t36.5 -86.5q0 -26 -10.5 -48.5t-30 -39.5t-46 -27t-57.5 -10q-38 0 -66.5 13.5t-47 36t-28 51t-9.5 59.5q0 48 15.5 86.5t43.5 69.5t68 54.5t90 40.5zM284 -44
q0 38 -22.5 56.5t-59.5 18.5q-32 0 -57 -13t-44 -32q0 -45 25 -76.5t70 -31.5q40 0 64 21.5t24 56.5z" />
    <glyph glyph-name="uni2087" unicode="&#x2087;" horiz-adv-x="333" 
d="M311 192l-199 -349h-60l197 343h-204v48h257z" />
    <glyph glyph-name="uni2088" unicode="&#x2088;" horiz-adv-x="382" 
d="M45 -62q0 20 8.5 36.5t22.5 30t31.5 23.5t35.5 17q-36 17 -59.5 42t-23.5 61q0 44 37 70t94 26t94 -26t37 -70q0 -37 -24.5 -60t-58.5 -40q18 -7 35.5 -17t31.5 -23t22.5 -30.5t8.5 -39.5q0 -24 -12.5 -43.5t-33 -33t-46.5 -21t-54 -7.5q-68 0 -107 27t-39 78zM281 -61
q0 31 -27 50t-63 33q-17 -8 -33.5 -16.5t-29 -18.5t-20 -22t-7.5 -28q0 -27 23 -44.5t67 -17.5q38 0 64 18t26 46zM114 148q0 -29 20.5 -46t56.5 -33q33 15 55 34t22 46q0 23 -20 38t-57 15t-57 -15t-20 -39z" />
    <glyph glyph-name="uni2089" unicode="&#x2089;" horiz-adv-x="381" 
d="M102 -124q76 31 121 69t56 100q-17 -18 -45.5 -31t-65.5 -13q-57 0 -92 31.5t-35 86.5q0 27 10.5 50t29 39.5t45 26t59.5 9.5q38 0 66.5 -13t47 -35.5t28 -51.5t9.5 -60q0 -95 -59 -156t-158 -95zM97 121q0 -39 23.5 -57t58.5 -18q32 0 57.5 13t43.5 32q0 45 -25 76.5
t-70 31.5q-41 0 -64.5 -21.5t-23.5 -56.5z" />
    <glyph glyph-name="uni208A" unicode="&#x208a;" horiz-adv-x="440" 
d="M247 19v-126h-54v126h-128v48h128v126h54v-126h128v-48h-128z" />
    <glyph glyph-name="uni208B" unicode="&#x208b;" horiz-adv-x="414" 
d="M60 67h294v-49h-294v49z" />
    <glyph glyph-name="uni208C" unicode="&#x208c;" horiz-adv-x="435" 
d="M70 138h295v-47h-295v47zM70 -4h295v-47h-295v47z" />
    <glyph glyph-name="uni208D" unicode="&#x208d;" horiz-adv-x="238" 
d="M124 39q0 -61 20 -114.5t59 -109.5l-40 -28q-48 58 -73 118t-25 134t25 134t73 118l40 -28q-39 -56 -59 -109.5t-20 -114.5z" />
    <glyph glyph-name="uni208E" unicode="&#x208e;" horiz-adv-x="238" 
d="M114 39q0 61 -20 114.5t-59 109.5l40 28q48 -58 73 -118t25 -134t-25 -134t-73 -118l-40 28q39 56 59 109.5t20 114.5z" />
    <glyph glyph-name="Euro" unicode="&#x20ac;" horiz-adv-x="593" 
d="M50 400v48h102q10 51 31 93.5t53 72.5t75 47t98 17q70 0 119 -20l-8 -52q-24 10 -52 14t-54 4q-88 0 -134.5 -48t-62.5 -128h262v-48h-269q-3 -32 -3 -67q0 -36 3 -67h269v-48h-262q16 -80 62.5 -128t134.5 -48q26 0 54 4.5t52 13.5l8 -51q-23 -9 -54.5 -15t-64.5 -6
q-55 0 -98 17t-75 47t-53 72.5t-31 93.5h-102v48h95q-3 31 -3 67q0 35 3 67h-95z" />
    <glyph glyph-name="uni2113" unicode="&#x2113;" horiz-adv-x="499" 
d="M20 251q26 11 55.5 24t60.5 27v210q0 109 44 156.5t115 47.5q65 0 103.5 -43t38.5 -115q0 -51 -19.5 -93t-51.5 -77t-74.5 -63t-88.5 -51v-109q0 -57 18.5 -88.5t71.5 -31.5q32 0 61 9.5t57 25.5l16 -50q-30 -18 -67.5 -29t-76.5 -11t-67 13t-46 36t-26 54.5t-8 68.5v79
q-12 -5 -26 -11t-27.5 -11.5t-24.5 -10t-18 -7.5zM203 335q30 14 60.5 35t55 49.5t40 63t14.5 75.5q-2 54 -24 78.5t-56 24.5q-47 0 -68.5 -38t-21.5 -111v-177z" />
    <glyph glyph-name="uni2116" unicode="&#x2116;" horiz-adv-x="1043" 
d="M478 0l-332 553v-553h-61v666h62l331 -553v553h61v-666h-61zM672 252h307v-49h-307v49zM993 499q0 -35 -11 -66.5t-32 -56t-52.5 -39t-72.5 -14.5t-72 14.5t-52.5 39t-32.5 56t-11 66.5t11 67t32.5 56.5t52.5 39t72 14.5t72.5 -14.5t52.5 -39t32 -56.5t11 -67zM715 499
q0 -27 7 -50.5t21 -41t34.5 -27.5t47.5 -10t47.5 10t34.5 27.5t21 41t7 50.5q0 54 -28 92t-82 38t-82 -38t-28 -92z" />
    <glyph glyph-name="published" unicode="&#x2117;" horiz-adv-x="832" 
d="M563 409q0 -56 -42 -88.5t-113 -32.5h-25v-143h-54v376h91q29 0 55 -7t45.5 -21.5t31 -35.5t11.5 -48zM509 407q0 37 -29 52t-66 15h-31v-140h24q50 0 76 18.5t26 54.5zM762 333q0 -71 -25 -133.5t-70.5 -109.5t-109 -74.5t-141.5 -27.5t-141.5 27.5t-109 74.5
t-70.5 109.5t-25 133.5t25 134t70.5 110t109 74t141.5 27t141.5 -27t109 -74t70.5 -110t25 -134zM105 333q0 -65 22 -122t63 -100t98 -68t128 -25q70 0 127.5 25t98.5 68t63 100t22 122q0 64 -22 121.5t-63 100.5t-98.5 68t-127.5 25q-71 0 -128 -25t-98 -68t-63 -100.5
t-22 -121.5z" />
    <glyph glyph-name="trademark" unicode="&#x2122;" horiz-adv-x="717" 
d="M274 666v-37h-92v-273h-45v273h-92v37h229zM518 417h-50l-83 178l-16 -239h-45l24 310h45l100 -210l100 210h45l24 -310h-45l-16 239z" />
    <glyph glyph-name="estimated" unicode="&#x212e;" horiz-adv-x="844" 
d="M207 321v-221q43 -38 96.5 -57.5t119.5 -19.5q85 0 154 29t136 94l24 -25q-70 -65 -145.5 -98t-169.5 -33q-77 0 -142.5 27t-113 74t-74.5 112t-27 140q0 72 28.5 133t77.5 105.5t114 69.5t137 25t137 -25.5t113.5 -70.5t77.5 -105.5t29 -130.5v-23h-572zM422 643
q-63 0 -118 -21t-97 -58v-211h430v211q-46 36 -99.5 57.5t-115.5 21.5z" />
    <glyph glyph-name="onethird" unicode="&#x2153;" horiz-adv-x="831" 
d="M540 678l44 -23l-355 -667l-43 23zM163 275v331l-89 -29l-14 47l120 42h42v-391h-59zM771 104q0 -26 -11 -47t-31 -36t-47.5 -23t-60.5 -8q-27 0 -57.5 6.5t-50.5 17.5l11 45q23 -11 45.5 -16.5t48.5 -5.5q45 0 69.5 17.5t24.5 49.5q0 19 -8.5 32t-23.5 21.5t-34.5 12.5
t-41.5 4h-47v49h41q50 0 77.5 21t27.5 51t-21.5 44t-56.5 14q-45 0 -88 -22l-12 45q45 25 109 25q56 0 91.5 -25.5t35.5 -73.5q0 -71 -84 -100q44 -11 69 -34t25 -64z" />
    <glyph glyph-name="twothirds" unicode="&#x2154;" horiz-adv-x="925" 
d="M634 678l44 -23l-355 -667l-43 23zM865 104q0 -26 -11 -47t-31 -36t-47.5 -23t-60.5 -8q-27 0 -57.5 6.5t-50.5 17.5l11 45q23 -11 45.5 -16.5t48.5 -5.5q45 0 69.5 17.5t24.5 49.5q0 19 -8.5 32t-23.5 21.5t-34.5 12.5t-41.5 4h-47v49h41q50 0 77.5 21t27.5 51t-21.5 44
t-56.5 14q-45 0 -88 -22l-12 45q45 25 109 25q56 0 91.5 -25.5t35.5 -73.5q0 -71 -84 -100q44 -11 69 -34t25 -64zM86 646q22 14 51 22t61 8q63 0 97 -32.5t34 -83.5q0 -30 -9.5 -54.5t-25 -45.5t-36.5 -39.5t-44 -37.5t-41 -33t-35 -27h205v-48h-274l-12 39
q32 26 61.5 50.5t58.5 50.5q18 16 35 32t29.5 33t20.5 36t8 40q0 34 -20.5 53t-58.5 19q-24 0 -46 -7.5t-44 -19.5z" />
    <glyph glyph-name="oneeighth" unicode="&#x215b;" horiz-adv-x="845" 
d="M540 678l44 -23l-355 -667l-43 23zM163 275v331l-89 -29l-14 47l120 42h42v-391h-59zM493 95q0 20 8.5 36.5t22.5 30t31.5 23.5t35.5 17q-36 17 -59.5 42t-23.5 61q0 44 37 70t94 26t94 -26t37 -70q0 -37 -24.5 -60t-58.5 -40q18 -7 35.5 -17t31.5 -23t22.5 -30.5
t8.5 -39.5q0 -24 -12.5 -43.5t-33 -33t-46.5 -21t-54 -7.5q-68 0 -107 27t-39 78zM729 96q0 31 -27 50t-63 33q-17 -8 -33.5 -16.5t-29 -18.5t-20 -22t-7.5 -28q0 -27 23 -44.5t67 -17.5q38 0 64 18t26 46zM562 305q0 -29 20.5 -46t56.5 -33q33 15 55 34t22 46q0 23 -20 38
t-57 15t-57 -15t-20 -39z" />
    <glyph glyph-name="threeeighths" unicode="&#x215c;" horiz-adv-x="898" 
d="M595 678l44 -23l-355 -667l-43 23zM546 95q0 20 8.5 36.5t22.5 30t31.5 23.5t35.5 17q-36 17 -59.5 42t-23.5 61q0 44 37 70t94 26t94 -26t37 -70q0 -37 -24.5 -60t-58.5 -40q18 -7 35.5 -17t31.5 -23t22.5 -30.5t8.5 -39.5q0 -24 -12.5 -43.5t-33 -33t-46.5 -21
t-54 -7.5q-68 0 -107 27t-39 78zM782 96q0 31 -27 50t-63 33q-17 -8 -33.5 -16.5t-29 -18.5t-20 -22t-7.5 -28q0 -27 23 -44.5t67 -17.5q38 0 64 18t26 46zM615 305q0 -29 20.5 -46t56.5 -33q33 15 55 34t22 46q0 23 -20 38t-57 15t-57 -15t-20 -39zM333 379q0 -26 -11 -47
t-31 -36t-47.5 -23t-60.5 -8q-27 0 -57.5 6.5t-50.5 17.5l11 45q23 -11 45.5 -16.5t48.5 -5.5q45 0 69.5 17.5t24.5 49.5q0 19 -8.5 32t-23.5 21.5t-34.5 12.5t-41.5 4h-47v49h41q50 0 77.5 21t27.5 51t-21.5 44t-56.5 14q-45 0 -88 -22l-12 45q45 25 109 25
q56 0 91.5 -25.5t35.5 -73.5q0 -71 -84 -100q44 -11 69 -34t25 -64z" />
    <glyph glyph-name="fiveeighths" unicode="&#x215d;" horiz-adv-x="901" 
d="M598 678l44 -23l-355 -667l-43 23zM549 95q0 20 8.5 36.5t22.5 30t31.5 23.5t35.5 17q-36 17 -59.5 42t-23.5 61q0 44 37 70t94 26t94 -26t37 -70q0 -37 -24.5 -60t-58.5 -40q18 -7 35.5 -17t31.5 -23t22.5 -30.5t8.5 -39.5q0 -24 -12.5 -43.5t-33 -33t-46.5 -21
t-54 -7.5q-68 0 -107 27t-39 78zM785 96q0 31 -27 50t-63 33q-17 -8 -33.5 -16.5t-29 -18.5t-20 -22t-7.5 -28q0 -27 23 -44.5t67 -17.5q38 0 64 18t26 46zM618 305q0 -29 20.5 -46t56.5 -33q33 15 55 34t22 46q0 23 -20 38t-57 15t-57 -15t-20 -39zM338 384q0 -30 -12 -52
t-33 -37t-49 -22.5t-59 -7.5q-25 0 -56 4.5t-54 14.5l9 47q24 -10 49.5 -14.5t49.5 -4.5q42 0 69.5 17t27.5 53t-30.5 53t-78.5 17h-75v214h222v-48h-164v-118h29q33 0 61.5 -7.5t49 -22t32.5 -36t12 -50.5z" />
    <glyph glyph-name="seveneighths" unicode="&#x215e;" horiz-adv-x="843" 
d="M540 678l44 -23l-355 -667l-43 23zM491 95q0 20 8.5 36.5t22.5 30t31.5 23.5t35.5 17q-36 17 -59.5 42t-23.5 61q0 44 37 70t94 26t94 -26t37 -70q0 -37 -24.5 -60t-58.5 -40q18 -7 35.5 -17t31.5 -23t22.5 -30.5t8.5 -39.5q0 -24 -12.5 -43.5t-33 -33t-46.5 -21
t-54 -7.5q-68 0 -107 27t-39 78zM727 96q0 31 -27 50t-63 33q-17 -8 -33.5 -16.5t-29 -18.5t-20 -22t-7.5 -28q0 -27 23 -44.5t67 -17.5q38 0 64 18t26 46zM560 305q0 -29 20.5 -46t56.5 -33q33 15 55 34t22 46q0 23 -20 38t-57 15t-57 -15t-20 -39zM351 624l-199 -349h-60
l197 343h-204v48h257z" />
    <glyph glyph-name="arrowleft" unicode="&#x2190;" horiz-adv-x="966" 
d="M449 639l-283 -281h700v-50h-700l283 -281l-37 -37l-342 343l342 343z" />
    <glyph glyph-name="arrowup" unicode="&#x2191;" horiz-adv-x="744" 
d="M347 579l-235 -236l-37 37l297 296l297 -296l-37 -37l-234 236v-579h-51v579z" />
    <glyph glyph-name="arrowright" unicode="&#x2192;" horiz-adv-x="966" 
d="M554 676l342 -343l-342 -343l-37 37l282 281h-699v50h699l-282 281z" />
    <glyph glyph-name="arrowdown" unicode="&#x2193;" horiz-adv-x="744" 
d="M347 666h51v-579l234 236l37 -37l-297 -296l-297 296l37 37l235 -236v579z" />
    <glyph glyph-name="partialdiff" unicode="&#x2202;" horiz-adv-x="563" 
d="M60 199q0 54 16 96.5t44.5 72t67.5 45.5t85 16q51 0 95.5 -20t76.5 -58q-2 52 -10.5 107.5t-29.5 100.5t-56 74t-90 29q-37 0 -71 -12t-66 -33l-20 48q31 23 72 37t89 14q67 0 114 -32t76 -84t42 -119t13 -136q0 -60 -16 -123.5t-48.5 -115t-81 -85t-112.5 -33.5
q-46 0 -81.5 17t-59.5 45.5t-36.5 67t-12.5 81.5zM125 197q0 -33 8 -61.5t24 -49t40 -32.5t55 -12q43 0 76 20t56.5 54.5t37.5 79t19 94.5q-32 38 -73.5 61t-86.5 23q-71 0 -113.5 -44.5t-42.5 -132.5z" />
    <glyph glyph-name="Delta" unicode="&#x2206;" horiz-adv-x="694" 
d="M649 0h-604l270 666h64zM347 603l-214 -550h428z" />
    <glyph glyph-name="product" unicode="&#x220f;" horiz-adv-x="851" 
d="M256 -206h-66v816h-125v56h721v-56h-125v-816h-66v816h-339v-816z" />
    <glyph glyph-name="summation" unicode="&#x2211;" horiz-adv-x="589" 
d="M137 -151h392v-55h-464v55l253 381l-253 380v56h464v-56h-392l254 -380z" />
    <glyph glyph-name="minus" unicode="&#x2212;" 
d="M70 296v52h412v-52h-412z" />
    <glyph glyph-name="radical" unicode="&#x221a;" horiz-adv-x="732" 
d="M55 349l169 66l186 -452l206 819h61l-227 -882h-72l-187 444l-117 -47z" />
    <glyph glyph-name="infinity" unicode="&#x221e;" horiz-adv-x="896" 
d="M448 283q-41 -49 -94 -83t-118 -34q-38 0 -69.5 11.5t-54 32.5t-35 49.5t-12.5 63.5q0 34 12.5 62.5t35 49.5t54 32.5t69.5 11.5q65 0 118 -33.5t94 -83.5q40 50 93.5 83.5t117.5 33.5q39 0 70.5 -11.5t54 -32.5t35 -49.5t12.5 -62.5q0 -35 -12.5 -63.5t-35 -49.5
t-54 -32.5t-70.5 -11.5q-64 0 -117.5 34t-93.5 83zM482 323q33 -46 76.5 -76t95.5 -30q51 0 83.5 27t32.5 79t-32.5 78.5t-83.5 26.5q-52 0 -95.5 -30t-76.5 -75zM414 323q-33 45 -77 75t-96 30q-51 0 -83.5 -26.5t-32.5 -78.5t32.5 -79t83.5 -27q52 0 96 30t77 76z" />
    <glyph glyph-name="integral" unicode="&#x222b;" horiz-adv-x="442" 
d="M172 435q0 79 12 133t35.5 87t57 47t76.5 14q17 0 36 -3t33 -8l-5 -53q-11 4 -26.5 6t-29.5 2q-32 0 -55 -10.5t-38 -36t-22 -69t-7 -109.5v-355q0 -69 -8 -124t-28 -93t-54 -58.5t-86 -20.5q-14 0 -31.5 2t-31.5 7l5 53q24 -7 51 -7q38 0 61 15t35 45.5t16 75.5t4 105
v355v0z" />
    <glyph glyph-name="approxequal" unicode="&#x2248;" horiz-adv-x="596" 
d="M404 353q-30 0 -55 9.5t-54 24.5q-26 14 -45 21.5t-42 7.5q-27 0 -48.5 -11.5t-47.5 -33.5l-27 39q30 28 58 42.5t66 14.5q28 0 52 -7.5t54 -24.5q26 -14 45.5 -22.5t44.5 -8.5q26 0 46 11t43 31l27 -38q-27 -24 -55 -39.5t-62 -15.5zM404 179q-30 0 -55 9.5t-54 24.5
q-26 14 -45 21.5t-42 7.5q-27 0 -48.5 -11.5t-47.5 -33.5l-27 39q30 28 58 42.5t66 14.5q28 0 52 -7.5t54 -24.5q26 -14 45.5 -22.5t44.5 -8.5q26 0 46 11t43 31l27 -38q-27 -24 -55 -39.5t-62 -15.5z" />
    <glyph glyph-name="notequal" unicode="&#x2260;" horiz-adv-x="625" 
d="M92 453h266l68 118l42 -25l-54 -93h119v-51h-148l-90 -158h238v-51h-268l-67 -118l-42 25l53 93h-117v51h146l91 158h-237v51z" />
    <glyph glyph-name="lessequal" unicode="&#x2264;" horiz-adv-x="606" 
d="M512 567l19 -51l-390 -159l390 -159l-19 -51l-442 186v48zM70 51h461v-51h-461v51z" />
    <glyph glyph-name="greaterequal" unicode="&#x2265;" horiz-adv-x="606" 
d="M536 381v-48l-442 -186l-19 51l390 159l-390 159l19 51zM536 0h-461v51h461v-51z" />
    <glyph glyph-name="lozenge" unicode="&#x25ca;" horiz-adv-x="558" 
d="M513 333l-201 -333h-66l-201 333l201 333h66zM279 51l168 282l-168 281l-168 -281z" />
    <glyph glyph-name="apple" unicode="&#xf8ff;" horiz-adv-x="846" 
d="M438 333v-333h-333v666h666v-333h-333z" />
    <glyph glyph-name="acute.case" horiz-adv-x="407" 
d="M120 730l83 111h84l-108 -111h-59z" />
    <glyph glyph-name="breve.case" horiz-adv-x="498" 
d="M378 834q-12 -49 -45 -76.5t-84 -27.5t-84 27.5t-45 76.5l51 15q10 -33 28 -52t50 -19t50 19t28 52z" />
    <glyph glyph-name="caron.case" horiz-adv-x="496" 
d="M284 730h-72l-92 111h64l64 -77l64 77h64z" />
    <glyph glyph-name="circumflex.case" horiz-adv-x="496" 
d="M376 730h-64l-64 77l-64 -77h-64l92 111h72z" />
    <glyph glyph-name="dieresis.case" horiz-adv-x="519" 
d="M212 789q0 -20 -12.5 -32.5t-33.5 -12.5t-33.5 12.5t-12.5 32.5t12.5 32.5t33.5 12.5t33.5 -12.5t12.5 -32.5zM399 789q0 -20 -12.5 -32.5t-33.5 -12.5t-33.5 12.5t-12.5 32.5t12.5 32.5t33.5 12.5t33.5 -12.5t12.5 -32.5z" />
    <glyph glyph-name="dotaccent.case" horiz-adv-x="333" 
d="M120 791q0 20 13 33.5t33 13.5q21 0 34 -13.5t13 -33.5q0 -19 -13 -32.5t-34 -13.5q-20 0 -33 13.5t-13 32.5z" />
    <glyph glyph-name="grave.case" horiz-adv-x="407" 
d="M228 730l-108 111h84l83 -111h-59z" />
    <glyph glyph-name="hungarumlaut.case" horiz-adv-x="524" 
d="M120 730l44 111h73l-62 -111h-55zM287 730l44 111h73l-62 -111h-55z" />
    <glyph glyph-name="macron.case" horiz-adv-x="503" 
d="M120 822h263v-54h-263v54z" />
    <glyph glyph-name="ring.case" horiz-adv-x="408" 
d="M204 890q42 0 63 -25t21 -55t-21 -55t-63 -25t-63 25t-21 55t21 55t63 25zM248 810q0 20 -12 33t-32 13q-21 0 -33 -13t-12 -33t12 -33t33 -13q20 0 32 13t12 33z" />
    <glyph glyph-name="tilde.case" horiz-adv-x="556" 
d="M349 740q-20 0 -40.5 9t-38.5 17q-17 8 -30 13.5t-27 5.5q-20 0 -30 -14t-21 -38l-42 19q15 45 35 65.5t57 20.5q22 0 41.5 -7.5t36.5 -15.5q16 -8 30.5 -15t28.5 -7q18 0 26.5 12.5t18.5 32.5l42 -20q-17 -37 -35 -57.5t-52 -20.5z" />
    <glyph glyph-name="ampersand.salt" horiz-adv-x="665" 
d="M75 168q0 38 12.5 68t33.5 51.5t49.5 35.5t60.5 20q-63 18 -98 60t-35 102q0 42 16 74.5t45.5 54.5t70.5 33t92 11q48 0 93.5 -7.5t87.5 -26.5l-11 -55q-40 17 -84 25t-84 8q-34 0 -63.5 -6.5t-51 -21t-34 -37t-12.5 -55.5q0 -66 49.5 -100t139.5 -34h268v-53h-103v-287
q-48 -21 -102 -30.5t-110 -9.5q-53 0 -95.5 12.5t-72.5 36t-46 56.5t-16 75zM309 40q43 0 78 5t70 18v252h-108q-97 0 -153 -37.5t-56 -109.5q0 -60 44.5 -94t124.5 -34z" />
    <glyph glyph-name="g.salt" horiz-adv-x="530" 
d="M452 10q0 -51 -13.5 -92.5t-40.5 -71.5t-68.5 -46t-98.5 -16q-42 0 -83 8.5t-70 19.5l8 54q32 -13 68.5 -20.5t74.5 -7.5q85 0 120.5 45t35.5 125v57q-23 -23 -59 -39t-83 -16q-48 0 -84.5 17.5t-62 48.5t-38.5 74t-13 94q0 55 16.5 99.5t47.5 76.5t76.5 49.5t104.5 17.5
q45 0 88 -8.5t74 -22.5v-446zM258 64q38 0 70 14.5t57 37.5v302q-20 8 -44.5 11t-50.5 3q-86 0 -132.5 -50t-46.5 -138q0 -40 8.5 -73t26.5 -57t46 -37t66 -13z" />
    <glyph glyph-name="gcircumflex.salt" horiz-adv-x="530" 
d="M452 10q0 -51 -13.5 -92.5t-40.5 -71.5t-68.5 -46t-98.5 -16q-42 0 -83 8.5t-70 19.5l8 54q32 -13 68.5 -20.5t74.5 -7.5q85 0 120.5 45t35.5 125v57q-23 -23 -59 -39t-83 -16q-48 0 -84.5 17.5t-62 48.5t-38.5 74t-13 94q0 55 16.5 99.5t47.5 76.5t76.5 49.5t104.5 17.5
q45 0 88 -8.5t74 -22.5v-446zM258 64q38 0 70 14.5t57 37.5v302q-20 8 -44.5 11t-50.5 3q-86 0 -132.5 -50t-46.5 -138q0 -40 8.5 -73t26.5 -57t46 -37t66 -13zM417 554h-64l-77 117l-77 -117h-64l107 156h68z" />
    <glyph glyph-name="gbreve.salt" horiz-adv-x="530" 
d="M452 10q0 -51 -13.5 -92.5t-40.5 -71.5t-68.5 -46t-98.5 -16q-42 0 -83 8.5t-70 19.5l8 54q32 -13 68.5 -20.5t74.5 -7.5q85 0 120.5 45t35.5 125v57q-23 -23 -59 -39t-83 -16q-48 0 -84.5 17.5t-62 48.5t-38.5 74t-13 94q0 55 16.5 99.5t47.5 76.5t76.5 49.5t104.5 17.5
q45 0 88 -8.5t74 -22.5v-446zM258 64q38 0 70 14.5t57 37.5v302q-20 8 -44.5 11t-50.5 3q-86 0 -132.5 -50t-46.5 -138q0 -40 8.5 -73t26.5 -57t46 -37t66 -13zM413 685q-11 -63 -46.5 -97t-91.5 -34t-91.5 34t-46.5 97l52 11q8 -41 28 -67t58 -26t58 26t28 67z" />
    <glyph glyph-name="gdotaccent.salt" horiz-adv-x="530" 
d="M452 10q0 -51 -13.5 -92.5t-40.5 -71.5t-68.5 -46t-98.5 -16q-42 0 -83 8.5t-70 19.5l8 54q32 -13 68.5 -20.5t74.5 -7.5q85 0 120.5 45t35.5 125v57q-23 -23 -59 -39t-83 -16q-48 0 -84.5 17.5t-62 48.5t-38.5 74t-13 94q0 55 16.5 99.5t47.5 76.5t76.5 49.5t104.5 17.5
q45 0 88 -8.5t74 -22.5v-446zM258 64q38 0 70 14.5t57 37.5v302q-20 8 -44.5 11t-50.5 3q-86 0 -132.5 -50t-46.5 -138q0 -40 8.5 -73t26.5 -57t46 -37t66 -13zM221 622q0 20 13 33.5t33 13.5q21 0 34 -13.5t13 -33.5q0 -19 -13 -32.5t-34 -13.5q-20 0 -33 13.5t-13 32.5z
" />
    <glyph glyph-name="gcommaaccent.salt" horiz-adv-x="530" 
d="M452 10q0 -51 -13.5 -92.5t-40.5 -71.5t-68.5 -46t-98.5 -16q-42 0 -83 8.5t-70 19.5l8 54q32 -13 68.5 -20.5t74.5 -7.5q85 0 120.5 45t35.5 125v57q-23 -23 -59 -39t-83 -16q-48 0 -84.5 17.5t-62 48.5t-38.5 74t-13 94q0 55 16.5 99.5t47.5 76.5t76.5 49.5t104.5 17.5
q45 0 88 -8.5t74 -22.5v-446zM258 64q38 0 70 14.5t57 37.5v302q-20 8 -44.5 11t-50.5 3q-86 0 -132.5 -50t-46.5 -138q0 -40 8.5 -73t26.5 -57t46 -37t66 -13zM344 704q-21 -38 -28.5 -73.5t-9.5 -76.5l-62 3q1 54 15 94t40 75z" />
    <glyph glyph-name="parenleft.case" horiz-adv-x="334" 
d="M152 323q0 -57 6.5 -109.5t21.5 -105.5t38 -107.5t56 -115.5l-53 -28q-35 62 -60.5 118.5t-42.5 113t-25 114t-8 120.5t8 120.5t25 114t42.5 113t60.5 118.5l53 -28q-33 -61 -56 -115.5t-38 -107.5t-21.5 -105.5t-6.5 -109.5z" />
    <glyph glyph-name="parenright.case" horiz-adv-x="334" 
d="M182 323q0 57 -6.5 109.5t-21.5 105.5t-38 107.5t-56 115.5l53 28q35 -62 60.5 -118.5t42.5 -113t25 -114t8 -120.5t-8 -120.5t-25 -114t-42.5 -113t-60.5 -118.5l-53 28q33 61 56 115.5t38 107.5t21.5 105.5t6.5 109.5z" />
    <glyph glyph-name="bracketleft.case" horiz-adv-x="356" 
d="M105 -133v912h186v-56h-119v-801h119v-55h-186z" />
    <glyph glyph-name="bracketright.case" horiz-adv-x="356" 
d="M65 -133v55h119v801h-119v56h186v-912h-186z" />
    <glyph glyph-name="braceleft.case" horiz-adv-x="398" 
d="M226 35q0 -59 20 -85.5t73 -26.5h24v-56h-25q-80 0 -119.5 39.5t-39.5 130.5v160q0 51 -19.5 75t-67.5 24h-22v54h22q48 0 67.5 24t19.5 75v160q0 91 39.5 130.5t119.5 39.5h25v-56h-24q-53 0 -73 -27t-20 -85v-153q0 -52 -20 -86.5t-76 -48.5q56 -14 76 -48.5t20 -86.5
v-153z" />
    <glyph glyph-name="braceright.case" horiz-adv-x="398" 
d="M172 188q0 52 20 86.5t76 48.5q-56 14 -76 48.5t-20 86.5v153q0 58 -20 85t-73 27h-24v56h25q80 0 119.5 -39.5t39.5 -130.5v-160q0 -51 19.5 -75t67.5 -24h22v-54h-22q-48 0 -67.5 -24t-19.5 -75v-160q0 -91 -39.5 -130.5t-119.5 -39.5h-25v56h24q53 0 73 26.5t20 85.5
v153z" />
    <glyph glyph-name="at.case" horiz-adv-x="809" 
d="M444 496q26 0 52 -6t47 -16l-26 -147q-3 -17 -3 -31q0 -32 14.5 -51.5t46.5 -19.5q28 0 51.5 14t40 38.5t25.5 58t9 71.5q0 55 -19.5 97.5t-55 72t-84 44.5t-106.5 15q-66 0 -124.5 -22.5t-102 -65t-68.5 -103t-25 -135.5q0 -134 76.5 -208t219.5 -74q67 0 127.5 13.5
t114.5 39.5l13 -41q-63 -29 -130 -42.5t-130 -13.5q-82 0 -145.5 24.5t-107 67.5t-66.5 102.5t-23 130.5q0 85 28 153.5t78 117t118 74.5t149 26q70 0 128 -20t99 -56t63.5 -86t22.5 -109q0 -50 -14 -91.5t-38.5 -71t-57.5 -46t-72 -16.5q-25 0 -44 8.5t-32.5 23t-20.5 33.5
t-7 39q-9 -20 -22 -38t-28.5 -31.5t-33 -22t-35.5 -8.5q-21 0 -35 9t-22.5 23.5t-12.5 33.5t-4 39q0 39 10.5 76t32 65t53.5 45t76 17zM440 452q-30 0 -52 -14t-36.5 -37t-21 -51.5t-6.5 -56.5q0 -24 7 -42.5t29 -18.5q14 0 28.5 9.5t28 25.5t26.5 37.5t24 45.5l17 96
q-18 6 -44 6z" />
    <glyph glyph-name="asterisk.case" horiz-adv-x="407" 
d="M221 479v-123h-36v123l-107 -61l-18 32l107 61l-107 61l18 31l107 -62v125h36v-125l108 62l18 -31l-107 -61l107 -61l-18 -32z" />
    <glyph glyph-name="hyphen.case" horiz-adv-x="365" 
d="M65 287v55h235v-55h-235z" />
    <glyph glyph-name="emdash.case" horiz-adv-x="777" 
d="M65 287v55h647v-55h-647z" />
    <glyph glyph-name="slash.case" horiz-adv-x="423" 
d="M312 716l56 -19l-252 -766l-56 20z" />
    <glyph glyph-name="backslash.case" horiz-adv-x="423" 
d="M363 -49l-56 -20l-252 766l56 19z" />
    <glyph glyph-name="bullet.case" horiz-adv-x="401" 
d="M321 323q0 -25 -9 -47t-25 -38.5t-38.5 -26t-48.5 -9.5t-48 9.5t-38 26t-25 38.5t-9 47t9 47t25 38.5t38 26t48 9.5t48.5 -9.5t38.5 -26t25 -38.5t9 -47z" />
    <glyph glyph-name="questiondown.case" horiz-adv-x="457" 
d="M60 161q0 51 22.5 95.5t58 83t78 71t82.5 59.5l35 -47q-38 -27 -75 -55.5t-67 -60t-48.5 -67.5t-18.5 -77q0 -58 33.5 -88t89.5 -30q35 0 64.5 9t63.5 27l19 -53q-65 -40 -152 -40q-85 0 -135 46t-50 127zM339 629q0 -20 -13.5 -34.5t-35.5 -14.5t-35.5 14.5t-13.5 34.5
t13.5 34.5t35.5 14.5t35.5 -14.5t13.5 -34.5z" />
    <glyph glyph-name="exclamdown.case" horiz-adv-x="298" 
d="M184 206v-206h-70v206l15 292h40zM100 629q0 20 13.5 34.5t35.5 14.5t35.5 -14.5t13.5 -34.5t-13.5 -34.5t-35.5 -14.5t-35.5 14.5t-13.5 34.5z" />
    <glyph glyph-name="guillemotleft.case" horiz-adv-x="551" 
d="M126 323l135 -170l-44 -35l-162 205l162 205l44 -35zM341 323l135 -170l-44 -35l-162 205l162 205l44 -35z" />
    <glyph glyph-name="guillemotright.case" horiz-adv-x="551" 
d="M290 493l44 35l162 -205l-162 -205l-44 35l135 170zM75 493l44 35l162 -205l-162 -205l-44 35l135 170z" />
    <glyph glyph-name="guilsinglleft.case" horiz-adv-x="336" 
d="M126 323l135 -170l-44 -35l-162 205l162 205l44 -35z" />
    <glyph glyph-name="guilsinglright.case" horiz-adv-x="336" 
d="M75 493l44 35l162 -205l-162 -205l-44 35l135 170z" />
    <glyph glyph-name="periodcentered.case" horiz-adv-x="258" 
d="M80 323q0 20 13.5 34.5t35.5 14.5t35.5 -14.5t13.5 -34.5t-13.5 -34.5t-35.5 -14.5t-35.5 14.5t-13.5 34.5z" />
    <glyph glyph-name="zero.tnum" 
d="M494 333q0 -71 -12 -134t-38 -110t-67.5 -74t-100.5 -27t-100.5 27t-67.5 74t-38 110t-12 134t12 133.5t38 109.5t67.5 74.5t100.5 27.5t100.5 -27t67.5 -74t38 -110t12 -134zM427 333q0 60 -7.5 113t-25 92.5t-46.5 62t-72 22.5q-44 0 -73 -22.5t-46 -62t-24.5 -92.5
t-7.5 -113q0 -61 7.5 -114t24.5 -92t46 -61.5t73 -22.5q43 0 72 22.5t46.5 61.5t25 92t7.5 114z" />
    <glyph glyph-name="one.tnum" 
d="M88 55h170v540l-160 -53l-15 55l196 69h46v-611h160v-55h-397v55z" />
    <glyph glyph-name="two.tnum" 
d="M114 639q26 18 64.5 28.5t81.5 10.5t78 -13t60 -38t38.5 -60t13.5 -79q0 -79 -39 -147t-105 -137q-24 -24 -43 -44t-36.5 -37t-34 -33.5t-34.5 -33.5h304v-56h-380l-8 43q26 28 50 53t47 49t45.5 47.5t45.5 49.5q54 60 87.5 118t33.5 125q0 62 -32.5 99.5t-96.5 37.5
q-37 0 -65.5 -10t-56.5 -26z" />
    <glyph glyph-name="three.tnum" 
d="M451 173q0 -42 -16 -76t-44.5 -58.5t-67.5 -37.5t-86 -13q-18 0 -39 2.5t-41 7t-38.5 10.5t-33.5 13l14 55q30 -14 65.5 -23t70.5 -9q75 0 112 36t37 89q0 37 -15 64t-41 45t-61 27t-74 9h-42v56h37q39 0 72 10t58 29t39 45.5t14 59.5q0 51 -32.5 79.5t-89.5 28.5
q-38 0 -68.5 -8t-56.5 -22l-15 52q32 18 69.5 26t76.5 8q40 0 73.5 -11t58 -31t38 -49t13.5 -65q0 -63 -39.5 -108t-104.5 -68q69 -16 113 -60.5t44 -112.5z" />
    <glyph glyph-name="four.tnum" 
d="M408 402v-156h92v-54h-92v-192h-62v192h-286l-9 52l190 432l53 -24l-176 -406h228v156h62z" />
    <glyph glyph-name="five.tnum" 
d="M474 184q0 -44 -17 -80t-47.5 -61.5t-72.5 -40t-91 -14.5q-20 0 -41.5 2.5t-42 6.5t-38.5 9t-31 11l12 55q31 -13 66.5 -21t74.5 -8q73 0 117 36.5t44 99.5q0 37 -15 64t-40.5 44t-60 25.5t-74.5 8.5h-92v345h322v-55h-255v-234h40q47 0 91 -12.5t77.5 -36.5t53.5 -60
t20 -84z" />
    <glyph glyph-name="six.tnum" 
d="M415 629q-56 -30 -103 -62t-82 -70.5t-58.5 -85.5t-33.5 -108q28 34 70.5 56.5t97.5 22.5q44 0 79 -14t59.5 -38.5t37.5 -59.5t13 -77q0 -44 -15.5 -81.5t-42.5 -65t-64.5 -43t-81.5 -15.5q-55 0 -96 23.5t-68 60t-40.5 82t-13.5 90.5q0 77 23 142t65 118.5t100 96.5
t128 77zM430 191q0 68 -37 102t-100 34q-47 0 -84 -20.5t-71 -58.5q-2 -37 6.5 -73.5t27.5 -66t48.5 -48t70.5 -18.5q33 0 58.5 11.5t43.5 32t27.5 47.5t9.5 58z" />
    <glyph glyph-name="seven.tnum" 
d="M472 610l-283 -610h-69l288 610h-313v56h367z" />
    <glyph glyph-name="eight.tnum" 
d="M276 678q37 0 70.5 -10t59 -28.5t40 -46t14.5 -63.5q0 -29 -10.5 -53.5t-29 -46t-43 -41t-52.5 -37.5q30 -16 57.5 -35.5t49 -43.5t34 -53t12.5 -64q0 -38 -16.5 -69t-44.5 -53t-64.5 -34t-76.5 -12q-42 0 -79 11t-64 32t-43 52t-16 70q0 34 12.5 63t34 53t49 44t57.5 37
q-57 31 -96 75t-39 104q0 35 14.5 63t40 47t58.5 29t71 10zM413 155q0 28 -9 49.5t-26 40t-43 36t-59 37.5q-29 -19 -53.5 -36.5t-43.5 -36.5t-29.5 -42t-10.5 -52q0 -51 37 -80.5t100 -29.5q62 0 99.5 32t37.5 82zM156 529q0 -25 7 -44t22 -35.5t37.5 -32.5t53.5 -34
q52 32 86 67t34 79q0 40 -31 68t-89 28q-59 0 -89.5 -28t-30.5 -68z" />
    <glyph glyph-name="nine.tnum" 
d="M137 37q56 30 103 62t82 70.5t58.5 85.5t33.5 108q-26 -33 -69.5 -56t-98.5 -23q-43 0 -78 14t-59.5 38.5t-38 59.5t-13.5 77q0 44 14.5 81.5t41 65t64 43t84.5 15.5q55 0 96 -23.5t68 -60t40.5 -82t13.5 -90.5q0 -77 -23 -142t-65 -118.5t-100 -96.5t-128 -77zM122 476
q0 -69 35.5 -103t98.5 -34q49 0 90 23t68 56q1 37 -7 73.5t-27 65.5t-48.5 47.5t-70.5 18.5q-33 0 -58.5 -11.5t-43.5 -31.5t-27.5 -46.5t-9.5 -57.5z" />
    <glyph glyph-name="cent.tnum" 
d="M284 687h61v-116q28 -2 56 -7.5t51 -16.5l-10 -53q-25 10 -53 15.5t-57 5.5q-84 0 -125.5 -50.5t-41.5 -131.5q0 -82 41.5 -132.5t125.5 -50.5q30 0 58 5.5t52 15.5l10 -52q-20 -9 -50 -15.5t-57 -8.5v-117h-61v120q-46 7 -80.5 28t-58 52t-35 70.5t-11.5 84.5t11.5 84.5
t35 70.5t58 51.5t80.5 28.5v119z" />
    <glyph glyph-name="dollar.tnum" 
d="M237 -120v120q-38 4 -76 15t-67 25l13 53q31 -14 70.5 -26.5t84.5 -12.5q60 0 95.5 28.5t35.5 88.5q0 27 -10 48.5t-28 39.5t-42.5 33.5t-52.5 30.5q-36 19 -64.5 39t-48.5 42.5t-30.5 48t-10.5 56.5q0 35 11.5 62.5t31.5 46.5t46.5 30.5t56.5 14.5v123h61v-122
q32 -2 64 -10.5t61 -22.5l-12 -53q-34 16 -66.5 25t-70.5 9q-56 0 -87 -25.5t-31 -74.5q0 -25 8 -43t23.5 -33.5t38 -29.5t51.5 -31q30 -17 59.5 -36.5t53.5 -43.5t38.5 -54t14.5 -68q0 -69 -42 -112.5t-118 -57.5v-123h-61z" />
    <glyph glyph-name="Euro.tnum" 
d="M37 400v48h102q10 51 31 93.5t53 72.5t75 47t98 17q70 0 119 -20l-8 -52q-24 10 -52 14t-54 4q-88 0 -134.5 -48t-62.5 -128h262v-48h-269q-3 -32 -3 -67q0 -36 3 -67h269v-48h-262q16 -80 62.5 -128t134.5 -48q26 0 54 4.5t52 13.5l8 -51q-23 -9 -54.5 -15t-64.5 -6
q-55 0 -98 17t-75 47t-53 72.5t-31 93.5h-102v48h95q-3 31 -3 67q0 35 3 67h-95z" />
    <glyph glyph-name="sterling.tnum" 
d="M424 278h-172q-3 -67 -31.5 -123t-78.5 -100h324v-55h-381l-14 50q51 48 80 103t34 125h-107v54h109v118q0 107 46.5 167.5t140.5 60.5q36 0 67.5 -7t54.5 -19l-12 -53q-49 23 -105 23q-65 0 -95 -42.5t-30 -130.5v-117h170v-54z" />
    <glyph glyph-name="yen.tnum" 
d="M417 666h71l-130 -288h109v-50h-131l-27 -59v-61h158v-49h-158v-159h-67v159h-158v49h158v61l-27 59h-131v50h109l-130 288h71l141 -333z" />
    <glyph glyph-name="numbersign.tnum" horiz-adv-x="669" 
d="M430 185h-211l-20 -185h-56l19 185h-112v48h117l22 208h-119v48h125l19 177h56l-19 -177h211l19 177h56l-19 -177h106v-48h-112l-21 -208h111v-48h-117l-19 -185h-56zM224 233h211l22 208h-211z" />
    <glyph glyph-name="plus.tnum" 
d="M305 298v-209h-59v209h-196v51h196v209h59v-209h196v-51h-196z" />
    <glyph glyph-name="plusminus.tnum" 
d="M305 322v-186h-59v186h-196v50h196v185h59v-185h196v-50h-196zM50 51h451v-51h-451v51z" />
    <glyph glyph-name="multiply.tnum" 
d="M437 523l39 -38l-163 -162l163 -162l-39 -39l-162 163l-162 -163l-38 39l162 162l-162 162l38 38l162 -163z" />
    <glyph glyph-name="divide.tnum" 
d="M50 298v51h451v-51h-451zM226 143q0 20 13.5 34.5t35.5 14.5q23 0 36 -14.5t13 -34.5t-13 -34.5t-36 -14.5q-22 0 -35.5 14.5t-13.5 34.5zM226 504q0 20 13.5 34.5t35.5 14.5q23 0 36 -14.5t13 -34.5t-13 -34.5t-36 -14.5q-22 0 -35.5 14.5t-13.5 34.5z" />
    <glyph glyph-name="equal.tnum" 
d="M55 453h441v-51h-441v51zM55 244h441v-51h-441v51z" />
    <glyph glyph-name="notequal.tnum" 
d="M55 453h266l68 118l42 -25l-54 -93h119v-51h-148l-90 -158h238v-51h-268l-67 -118l-42 25l53 93h-117v51h146l91 158h-237v51z" />
    <glyph glyph-name="logicalnot.tnum" 
d="M437 89v209h-392v51h451v-260h-59z" />
    <glyph glyph-name="approxequal.tnum" 
d="M377 353q-30 0 -55 9.5t-54 24.5q-26 14 -45 21.5t-42 7.5q-27 0 -48.5 -11.5t-47.5 -33.5l-27 39q30 28 58 42.5t66 14.5q28 0 52 -7.5t54 -24.5q26 -14 45.5 -22.5t44.5 -8.5q26 0 46 11t43 31l27 -38q-27 -24 -55 -39.5t-62 -15.5zM377 179q-30 0 -55 9.5t-54 24.5
q-26 14 -45 21.5t-42 7.5q-27 0 -48.5 -11.5t-47.5 -33.5l-27 39q30 28 58 42.5t66 14.5q28 0 52 -7.5t54 -24.5q26 -14 45.5 -22.5t44.5 -8.5q26 0 46 11t43 31l27 -38q-27 -24 -55 -39.5t-62 -15.5z" />
    <glyph glyph-name="endash.tnum" 
d="M87 287v55h378v-55h-378z" />
    <glyph glyph-name="minus.tnum" 
d="M70 296v52h412v-52h-412z" />
    <glyph glyph-name="less.tnum" 
d="M478 567l23 -48l-389 -196l389 -196l-23 -48l-428 219v50z" />
    <glyph glyph-name="greater.tnum" 
d="M501 348v-50l-428 -219l-23 48l389 196l-389 196l23 48z" />
    <glyph glyph-name="lessequal.tnum" 
d="M487 567l19 -51l-390 -159l390 -159l-19 -51l-442 186v48zM45 51h461v-51h-461v51z" />
    <glyph glyph-name="greaterequal.tnum" 
d="M506 381v-48l-442 -186l-19 51l390 159l-390 159l19 51zM506 0h-461v51h461v-51z" />
    <glyph glyph-name="percent.tnum" horiz-adv-x="877" 
d="M574 678l49 -24l-319 -666l-48 24zM380 485q0 -36 -10 -71t-30.5 -62t-50.5 -43.5t-69 -16.5q-40 0 -70 16.5t-50 43.5t-30 62t-10 71q0 37 10 71.5t30 61.5t50 43.5t70 16.5q39 0 69 -16.5t50.5 -43.5t30.5 -61.5t10 -71.5zM118 485q0 -28 6 -54t18.5 -46t31.5 -32
t46 -12t46 12t31.5 32t18.5 46t6 54t-6 54t-18.5 46t-31.5 32t-46 12t-46 -12t-31.5 -32t-18.5 -46t-6 -54zM817 181q0 -36 -10 -71t-30.5 -62t-50.5 -43.5t-69 -16.5q-40 0 -70 16.5t-50 43.5t-30 62t-10 71q0 37 10 71.5t30 61.5t50 43.5t70 16.5q39 0 69 -16.5
t50.5 -43.5t30.5 -61.5t10 -71.5zM555 181q0 -28 6 -54t18.5 -46t31.5 -32t46 -12t46 12t31.5 32t18.5 46t6 54t-6 54t-18.5 46t-31.5 32t-46 12t-46 -12t-31.5 -32t-18.5 -46t-6 -54z" />
    <glyph glyph-name="perthousand.tnum" horiz-adv-x="1263" 
d="M574 678l49 -24l-319 -666l-48 24zM380 485q0 -36 -10 -71t-30.5 -62t-50.5 -43.5t-69 -16.5q-40 0 -70 16.5t-50 43.5t-30 62t-10 71q0 37 10 71.5t30 61.5t50 43.5t70 16.5q39 0 69 -16.5t50.5 -43.5t30.5 -61.5t10 -71.5zM118 485q0 -28 6 -54t18.5 -46t31.5 -32
t46 -12t46 12t31.5 32t18.5 46t6 54t-6 54t-18.5 46t-31.5 32t-46 12t-46 -12t-31.5 -32t-18.5 -46t-6 -54zM817 181q0 -36 -10 -71t-30.5 -62t-50.5 -43.5t-69 -16.5q-40 0 -70 16.5t-50 43.5t-30 62t-10 71q0 37 10 71.5t30 61.5t50 43.5t70 16.5q39 0 69 -16.5
t50.5 -43.5t30.5 -61.5t10 -71.5zM555 181q0 -28 6 -54t18.5 -46t31.5 -32t46 -12t46 12t31.5 32t18.5 46t6 54t-6 54t-18.5 46t-31.5 32t-46 12t-46 -12t-31.5 -32t-18.5 -46t-6 -54zM1203 181q0 -36 -10 -71t-30.5 -62t-50.5 -43.5t-69 -16.5q-40 0 -70 16.5t-50 43.5
t-30 62t-10 71q0 37 10 71.5t30 61.5t50 43.5t70 16.5q39 0 69 -16.5t50.5 -43.5t30.5 -61.5t10 -71.5zM941 181q0 -28 6 -54t18.5 -46t31.5 -32t46 -12t46 12t31.5 32t18.5 46t6 54t-6 54t-18.5 46t-31.5 32t-46 12t-46 -12t-31.5 -32t-18.5 -46t-6 -54z" />
    <glyph glyph-name="zero.onum" horiz-adv-x="576" 
d="M526 248q0 -51 -15.5 -98t-45.5 -83t-74.5 -57.5t-102.5 -21.5t-102.5 21.5t-74.5 57.5t-45.5 83t-15.5 98t15.5 98t45.5 83.5t74.5 58t102.5 21.5t102.5 -21.5t74.5 -58t45.5 -83.5t15.5 -98zM459 248q0 41 -10.5 78.5t-32 66t-53.5 45t-75 16.5t-75 -16.5t-53.5 -45
t-32 -66t-10.5 -78.5t10.5 -78t32 -65.5t53.5 -45t75 -16.5t75 16.5t53.5 45t32 65.5t10.5 78z" />
    <glyph glyph-name="one.onum" horiz-adv-x="348" 
d="M196 0v428l-140 -62l-21 53l182 78h46v-497h-67z" />
    <glyph glyph-name="two.onum" horiz-adv-x="507" 
d="M99 468q28 17 65 29t81 12q37 0 68.5 -10t54 -29.5t35.5 -47.5t13 -64q0 -41 -14 -74.5t-36.5 -61.5t-51.5 -52t-59 -46q-29 -21 -52 -37.5t-44 -31.5h292v-55h-382l-11 42q47 37 82.5 64t70.5 55q24 18 48.5 38t44.5 43.5t32.5 50.5t12.5 60q0 45 -28 72.5t-82 27.5
q-32 0 -60.5 -9.5t-60.5 -27.5z" />
    <glyph glyph-name="three.onum" horiz-adv-x="472" 
d="M410 -2q0 -41 -15.5 -74t-44 -56.5t-67.5 -36t-86 -12.5q-18 0 -39 3t-41.5 8t-39 11.5t-32.5 13.5l15 51q31 -14 65 -23.5t71 -9.5q70 0 109 33.5t39 87.5q0 35 -15 61t-40.5 43.5t-58.5 27.5t-68 13l-40 4v53l29 5q39 7 71.5 20.5t56.5 33.5t37.5 46t13.5 57
q0 44 -30.5 70t-87.5 26q-33 0 -66 -9.5t-61 -24.5l-16 52q67 37 151 37q38 0 70.5 -10t56 -29t36.5 -46t13 -61q0 -35 -12.5 -64t-34 -53t-51.5 -41.5t-66 -29.5q33 -6 65 -19.5t57 -35.5t40.5 -52t15.5 -70z" />
    <glyph glyph-name="four.onum" horiz-adv-x="561" 
d="M410 47v-218h-64v218h-288l-10 52l295 398h67v-397h109v-53h-109zM346 416l-227 -316h227v316z" />
    <glyph glyph-name="five.onum" horiz-adv-x="474" 
d="M439 5q0 -42 -16.5 -76.5t-46 -58.5t-70.5 -37.5t-89 -13.5q-18 0 -38 2t-40 5.5t-38.5 8t-32.5 10.5l10 55q32 -12 66 -19t69 -7q74 0 116.5 34t42.5 94q0 36 -15.5 61t-41.5 41.5t-61.5 25t-75.5 10.5l-86 5v352h320v-56h-255v-244l44 -2q48 -2 91 -15t76 -37t52 -58.5
t19 -79.5z" />
    <glyph glyph-name="six.onum" horiz-adv-x="543" 
d="M410 629q-56 -30 -103 -62t-82 -70.5t-58.5 -85.5t-33.5 -108q28 34 70.5 56.5t97.5 22.5q44 0 79 -14t59.5 -38.5t37.5 -59.5t13 -77q0 -44 -15.5 -81.5t-42.5 -65t-64.5 -43t-81.5 -15.5q-55 0 -96 23.5t-68 60t-40.5 82t-13.5 90.5q0 77 23 142t65 118.5t100 96.5
t128 77zM425 191q0 68 -37 102t-100 34q-47 0 -84 -20.5t-71 -58.5q-2 -37 6.5 -73.5t27.5 -66t48.5 -48t70.5 -18.5q33 0 58.5 11.5t43.5 32t27.5 47.5t9.5 58z" />
    <glyph glyph-name="seven.onum" horiz-adv-x="455" 
d="M415 442q-35 -88 -68.5 -165.5t-70 -151.5t-76.5 -148.5t-87 -157.5l-52 28q46 79 85 151.5t74 144t67 144.5t65 154h-297v56h350z" />
    <glyph glyph-name="eight.onum" horiz-adv-x="524" 
d="M262 678q37 0 70.5 -10t59 -28.5t40 -46t14.5 -63.5q0 -29 -10.5 -53.5t-29 -46t-43 -41t-52.5 -37.5q30 -16 57.5 -35.5t49 -43.5t34 -53t12.5 -64q0 -38 -16.5 -69t-44.5 -53t-64.5 -34t-76.5 -12q-42 0 -79 11t-64 32t-43 52t-16 70q0 34 12.5 63t34 53t49 44t57.5 37
q-57 31 -96 75t-39 104q0 35 14.5 63t40 47t58.5 29t71 10zM399 155q0 28 -9 49.5t-26 40t-43 36t-59 37.5q-29 -19 -53.5 -36.5t-43.5 -36.5t-29.5 -42t-10.5 -52q0 -51 37 -80.5t100 -29.5q62 0 99.5 32t37.5 82zM142 529q0 -25 7 -44t22 -35.5t37.5 -32.5t53.5 -34
q52 32 86 67t34 79q0 40 -31 68t-89 28q-59 0 -89.5 -28t-30.5 -68z" />
    <glyph glyph-name="nine.onum" horiz-adv-x="547" 
d="M143 -132q56 30 103 62t82 70.5t58.5 85.5t33.5 108q-26 -33 -69.5 -56t-98.5 -23q-43 0 -78 14t-59.5 38.5t-38 59.5t-13.5 77q0 44 14.5 81.5t41 65t64 43t84.5 15.5q55 0 96 -23.5t68 -60t40.5 -82t13.5 -90.5q0 -77 -23 -142t-65 -118.5t-100 -96.5t-128 -77z
M128 307q0 -69 35.5 -103t98.5 -34q49 0 90 23t68 56q1 37 -7 73.5t-27 65.5t-48.5 47.5t-70.5 18.5q-33 0 -58.5 -11.5t-43.5 -31.5t-27.5 -46.5t-9.5 -57.5z" />
    <glyph glyph-name="cent.onum" horiz-adv-x="498" 
d="M264 -82v118q-48 6 -84.5 25t-61.5 48.5t-37.5 66.5t-12.5 78t12.5 78t37.5 66t61.5 48t84.5 25v118h61v-117q27 -1 55 -6.5t48 -14.5l-9 -52q-53 19 -114 19q-83 0 -127 -44t-44 -120t44 -120.5t127 -44.5q60 0 114 20l9 -52q-19 -9 -47 -14.5t-55 -7.5v-117h-62z" />
    <glyph glyph-name="dollar.onum" horiz-adv-x="463" 
d="M200 -109v110q-38 4 -74 15.5t-64 26.5l16 50q33 -18 70.5 -29.5t78.5 -11.5q57 0 86 23t29 62q0 21 -9.5 37t-26 28.5t-38 22.5t-45.5 20q-31 12 -58 25t-47 29.5t-31.5 39t-11.5 53.5q0 53 36.5 85t93.5 37v111h62v-110q31 -2 61.5 -10t58.5 -23l-12 -51
q-30 14 -64.5 24t-69.5 10q-43 0 -72.5 -16t-29.5 -55q0 -21 7.5 -34t21 -23t32 -18.5t40.5 -18.5q22 -11 50.5 -23.5t54 -30.5t43.5 -43t18 -61q0 -57 -39 -93.5t-105 -46.5v-111h-62z" />
    <glyph glyph-name="Euro.onum" horiz-adv-x="563" 
d="M189 254q0 -25 3 -46h260v-46h-249q18 -57 63 -88.5t121 -31.5q29 0 58 4.5t57 15.5l9 -49q-26 -11 -60 -17t-70 -6q-94 0 -157 45.5t-87 126.5h-87v46h77q-3 22 -3 46t3 47h-77v46h87q24 81 87 126.5t157 45.5q36 0 70 -6t60 -17l-9 -49q-28 11 -57 15.5t-58 4.5
q-76 0 -121 -31.5t-63 -88.5h249v-46h-260q-3 -21 -3 -47z" />
    <glyph glyph-name="sterling.onum" horiz-adv-x="513" 
d="M66 273h94v44q0 106 50 154t135 48q32 0 61 -5.5t54 -16.5l-11 -54q-23 10 -49.5 15t-50.5 5q-62 0 -92 -33t-30 -113v-44h179v-54h-182q-5 -52 -31 -94.5t-63 -70.5h318v-54h-382l-11 45q46 42 71.5 82t30.5 92h-91v54z" />
    <glyph glyph-name="yen.onum" horiz-adv-x="512" 
d="M350 304h88v-46h-112l-37 -67v-28h149v-45h-149v-118h-67v118h-148v45h148v28l-37 67h-111v46h87l-111 205h68l138 -266l138 266h68z" />
    <glyph glyph-name="numbersign.onum" horiz-adv-x="649" 
d="M409 134h-190l-16 -134h-54l16 134h-98v46h103l20 169h-104v46h110l14 124h54l-14 -124h190l15 124h54l-15 -124h95v-46h-100l-20 -169h103v-46h-109l-16 -134h-54zM224 180h191l20 169h-191z" />
    <glyph glyph-name="plus.onum" horiz-adv-x="611" 
d="M335 229v-209h-59v209h-196v51h196v209h59v-209h196v-51h-196z" />
    <glyph glyph-name="plusminus.onum" horiz-adv-x="615" 
d="M337 278v-160h-59v160h-196v51h196v160h59v-160h196v-51h-196zM82 51h451v-51h-451v51z" />
    <glyph glyph-name="multiply.onum" horiz-adv-x="571" 
d="M447 454l39 -38l-163 -162l163 -162l-39 -39l-162 163l-162 -163l-38 39l162 162l-162 162l38 38l162 -163z" />
    <glyph glyph-name="divide.onum" horiz-adv-x="611" 
d="M80 229v51h451v-51h-451zM256 74q0 20 13.5 34.5t35.5 14.5q23 0 36 -14.5t13 -34.5t-13 -34.5t-36 -14.5q-22 0 -35.5 14.5t-13.5 34.5zM256 435q0 20 13.5 34.5t35.5 14.5q23 0 36 -14.5t13 -34.5t-13 -34.5t-36 -14.5q-22 0 -35.5 14.5t-13.5 34.5z" />
    <glyph glyph-name="equal.onum" horiz-adv-x="621" 
d="M90 384h441v-51h-441v51zM90 175h441v-51h-441v51z" />
    <glyph glyph-name="notequal.onum" horiz-adv-x="631" 
d="M95 384h266l68 118l42 -25l-54 -93h119v-51h-148l-90 -158h238v-51h-268l-67 -118l-42 25l53 93h-117v51h146l91 158h-237v51z" />
    <glyph glyph-name="logicalnot.onum" horiz-adv-x="616" 
d="M472 20v209h-392v51h451v-260h-59z" />
    <glyph glyph-name="approxequal.onum" horiz-adv-x="591" 
d="M399 284q-30 0 -55 9.5t-54 24.5q-26 14 -45 21.5t-42 7.5q-27 0 -48.5 -11.5t-47.5 -33.5l-27 39q30 28 58 42.5t66 14.5q28 0 52 -7.5t54 -24.5q26 -14 45.5 -22.5t44.5 -8.5q26 0 46 11t43 31l27 -38q-27 -24 -55 -39.5t-62 -15.5zM399 110q-30 0 -55 9.5t-54 24.5
q-26 14 -45 21.5t-42 7.5q-27 0 -48.5 -11.5t-47.5 -33.5l-27 39q30 28 58 42.5t66 14.5q28 0 52 -7.5t54 -24.5q26 -14 45.5 -22.5t44.5 -8.5q26 0 46 11t43 31l27 -38q-27 -24 -55 -39.5t-62 -15.5z" />
    <glyph glyph-name="endash.onum" horiz-adv-x="517" 
d="M70 221v55h377v-55h-377z" />
    <glyph glyph-name="minus.onum" 
d="M70 229v52h412v-52h-412z" />
    <glyph glyph-name="less.onum" horiz-adv-x="601" 
d="M503 498l23 -48l-389 -196l389 -196l-23 -48l-428 219v50z" />
    <glyph glyph-name="greater.onum" horiz-adv-x="601" 
d="M526 279v-50l-428 -219l-23 48l389 196l-389 196l23 48z" />
    <glyph glyph-name="lessequal.onum" horiz-adv-x="621" 
d="M523 498l15 -50l-388 -129l388 -129l-15 -50l-440 152v54zM80 51h461v-51h-461v51z" />
    <glyph glyph-name="greaterequal.onum" horiz-adv-x="621" 
d="M538 346v-54l-440 -152l-15 50l388 129l-388 129l15 50zM541 0h-461v51h461v-51z" />
    <glyph glyph-name="percent.onum" horiz-adv-x="811" 
d="M525 529l45 -25l-283 -514l-44 25zM359 383q0 -29 -10 -55.5t-29 -46.5t-46 -32t-61 -12t-61 12t-46 32t-29 46.5t-10 55.5t10 55.5t29 46.5t46 32t61 12t61 -12t46 -32t29 -46.5t10 -55.5zM305 383q0 42 -23.5 71.5t-68.5 29.5q-44 0 -68 -29.5t-24 -71.5t24 -71.5
t68 -29.5q45 0 68.5 29.5t23.5 71.5zM746 136q0 -29 -10 -55.5t-29 -46.5t-46 -32t-61 -12t-61 12t-46 32t-29 46.5t-10 55.5t10 55.5t29 46.5t46 32t61 12t61 -12t46 -32t29 -46.5t10 -55.5zM692 136q0 42 -23.5 71.5t-68.5 29.5q-44 0 -68 -29.5t-24 -71.5t24 -71.5
t68 -29.5q45 0 68.5 29.5t23.5 71.5z" />
    <glyph glyph-name="perthousand.onum" horiz-adv-x="1154" 
d="M525 529l45 -25l-283 -514l-44 25zM359 383q0 -29 -10 -55.5t-29 -46.5t-46 -32t-61 -12t-61 12t-46 32t-29 46.5t-10 55.5t10 55.5t29 46.5t46 32t61 12t61 -12t46 -32t29 -46.5t10 -55.5zM305 383q0 42 -23.5 71.5t-68.5 29.5q-44 0 -68 -29.5t-24 -71.5t24 -71.5
t68 -29.5q45 0 68.5 29.5t23.5 71.5zM746 136q0 -29 -10 -55.5t-29 -46.5t-46 -32t-61 -12t-61 12t-46 32t-29 46.5t-10 55.5t10 55.5t29 46.5t46 32t61 12t61 -12t46 -32t29 -46.5t10 -55.5zM692 136q0 42 -23.5 71.5t-68.5 29.5q-44 0 -68 -29.5t-24 -71.5t24 -71.5
t68 -29.5q45 0 68.5 29.5t23.5 71.5zM1089 136q0 -29 -10 -55.5t-29 -46.5t-46 -32t-61 -12t-61 12t-46 32t-29 46.5t-10 55.5t10 55.5t29 46.5t46 32t61 12t61 -12t46 -32t29 -46.5t10 -55.5zM1035 136q0 42 -23.5 71.5t-68.5 29.5q-44 0 -68 -29.5t-24 -71.5t24 -71.5
t68 -29.5q45 0 68.5 29.5t23.5 71.5z" />
    <glyph glyph-name="zeroonum.tnum" 
d="M495 248q0 -50 -14.5 -97t-42.5 -83t-69 -58t-93 -22q-53 0 -93.5 22t-68.5 58t-42.5 83t-14.5 97t14.5 97t42.5 83.5t68.5 58.5t93.5 22q52 0 93 -22t69 -58.5t42.5 -83.5t14.5 -97zM429 248q0 41 -9.5 78.5t-29 66t-48 45.5t-66.5 17t-66.5 -17t-48 -45.5t-29 -66
t-9.5 -78.5t9.5 -78t29 -65.5t48 -45.5t66.5 -17t66.5 17t48 45.5t29 65.5t9.5 78z" />
    <glyph glyph-name="oneonum.tnum" 
d="M70 55h180v373l-160 -60l-18 54l199 75h46v-442h165v-55h-412v55z" />
    <glyph glyph-name="twoonum.tnum" 
d="M120 468q28 17 65 29t81 12q37 0 68.5 -10t54 -29.5t35.5 -47.5t13 -64q0 -41 -14 -74.5t-36.5 -61.5t-51.5 -52t-59 -46q-29 -21 -52 -37.5t-44 -31.5h292v-55h-382l-11 42q47 37 82.5 64t70.5 55q24 18 48.5 38t44.5 43.5t32.5 50.5t12.5 60q0 45 -28 72.5t-82 27.5
q-32 0 -60.5 -9.5t-60.5 -27.5z" />
    <glyph glyph-name="threeonum.tnum" 
d="M450 -2q0 -41 -15.5 -74t-44 -56.5t-67.5 -36t-86 -12.5q-18 0 -39 3t-41.5 8t-39 11.5t-32.5 13.5l15 51q31 -14 65 -23.5t71 -9.5q70 0 109 33.5t39 87.5q0 35 -15 61t-40.5 43.5t-58.5 27.5t-68 13l-40 4v53l29 5q39 7 71.5 20.5t56.5 33.5t37.5 46t13.5 57
q0 44 -30.5 70t-87.5 26q-33 0 -66 -9.5t-61 -24.5l-16 52q67 37 151 37q38 0 70.5 -10t56 -29t36.5 -46t13 -61q0 -35 -12.5 -64t-34 -53t-51.5 -41.5t-66 -29.5q33 -6 65 -19.5t57 -35.5t40.5 -52t15.5 -70z" />
    <glyph glyph-name="fouronum.tnum" 
d="M288 485l-175 -394h226v174h64v-174h102v-53h-102v-209h-64v209h-284l-9 52l189 419z" />
    <glyph glyph-name="fiveonum.tnum" 
d="M469 5q0 -42 -16.5 -76.5t-46 -58.5t-70.5 -37.5t-89 -13.5q-18 0 -38 2t-40 5.5t-38.5 8t-32.5 10.5l10 55q32 -12 66 -19t69 -7q74 0 116.5 34t42.5 94q0 36 -15.5 61t-41.5 41.5t-61.5 25t-75.5 10.5l-86 5v352h319v-56h-254v-244l44 -2q48 -2 91 -15t76 -37t52 -58.5
t19 -79.5z" />
    <glyph glyph-name="sixonum.tnum" 
d="M407 629q-56 -30 -103 -62t-82 -70.5t-58.5 -85.5t-33.5 -108q28 34 70.5 56.5t97.5 22.5q44 0 79 -14t59.5 -38.5t37.5 -59.5t13 -77q0 -44 -15.5 -81.5t-42.5 -65t-64.5 -43t-81.5 -15.5q-55 0 -96 23.5t-68 60t-40.5 82t-13.5 90.5q0 77 23 142t65 118.5t100 96.5
t128 77zM422 191q0 68 -37 102t-100 34q-47 0 -84 -20.5t-71 -58.5q-2 -37 6.5 -73.5t27.5 -66t48.5 -48t70.5 -18.5q33 0 58.5 11.5t43.5 32t27.5 47.5t9.5 58z" />
    <glyph glyph-name="sevenonum.tnum" 
d="M459 442q-35 -87 -69 -163.5t-70.5 -150.5t-77 -149.5t-88.5 -159.5l-51 28q45 80 85 154t76 146t68.5 144.5t64.5 149.5h-304v56h356z" />
    <glyph glyph-name="eightonum.tnum" 
d="M276 678q37 0 70.5 -10t59 -28.5t40 -46t14.5 -63.5q0 -29 -10.5 -53.5t-29 -46t-43 -41t-52.5 -37.5q30 -16 57.5 -35.5t49 -43.5t34 -53t12.5 -64q0 -38 -16.5 -69t-44.5 -53t-64.5 -34t-76.5 -12q-42 0 -79 11t-64 32t-43 52t-16 70q0 34 12.5 63t34 53t49 44t57.5 37
q-57 31 -96 75t-39 104q0 35 14.5 63t40 47t58.5 29t71 10zM413 155q0 28 -9 49.5t-26 40t-43 36t-59 37.5q-29 -19 -53.5 -36.5t-43.5 -36.5t-29.5 -42t-10.5 -52q0 -51 37 -80.5t100 -29.5q62 0 99.5 32t37.5 82zM156 529q0 -25 7 -44t22 -35.5t37.5 -32.5t53.5 -34
q52 32 86 67t34 79q0 40 -31 68t-89 28q-59 0 -89.5 -28t-30.5 -68z" />
    <glyph glyph-name="nineonum.tnum" 
d="M145 -132q56 30 103 62t82 70.5t58.5 85.5t33.5 108q-26 -33 -69.5 -56t-98.5 -23q-43 0 -78 14t-59.5 38.5t-38 59.5t-13.5 77q0 44 14.5 81.5t41 65t64 43t84.5 15.5q55 0 96 -23.5t68 -60t40.5 -82t13.5 -90.5q0 -77 -23 -142t-65 -118.5t-100 -96.5t-128 -77z
M130 307q0 -69 35.5 -103t98.5 -34q49 0 90 23t68 56q1 37 -7 73.5t-27 65.5t-48.5 47.5t-70.5 18.5q-33 0 -58.5 -11.5t-43.5 -31.5t-27.5 -46.5t-9.5 -57.5z" />
    <glyph glyph-name="centonum.tnum" 
d="M292 -82v118q-48 6 -84.5 25t-61.5 48.5t-37.5 66.5t-12.5 78t12.5 78t37.5 66t61.5 48t84.5 25v118h61v-117q27 -1 55 -6.5t48 -14.5l-9 -52q-53 19 -114 19q-83 0 -127 -44t-44 -120t44 -120.5t127 -44.5q60 0 114 20l9 -52q-19 -9 -47 -14.5t-55 -7.5v-117h-62z" />
    <glyph glyph-name="dollaronum.tnum" 
d="M242 -109v110q-38 4 -74 15.5t-64 26.5l16 50q33 -18 70.5 -29.5t78.5 -11.5q57 0 86 23t29 62q0 21 -9.5 37t-26 28.5t-38 22.5t-45.5 20q-31 12 -58 25t-47 29.5t-31.5 39t-11.5 53.5q0 53 36.5 85t93.5 37v111h62v-110q31 -2 61.5 -10t58.5 -23l-12 -51
q-30 14 -64.5 24t-69.5 10q-43 0 -72.5 -16t-29.5 -55q0 -21 7.5 -34t21 -23t32 -18.5t40.5 -18.5q22 -11 50.5 -23.5t54 -30.5t43.5 -43t18 -61q0 -57 -39 -93.5t-105 -46.5v-111h-62z" />
    <glyph glyph-name="Euroonum.tnum" 
d="M184 254q0 -25 3 -46h260v-46h-249q18 -57 63 -88.5t121 -31.5q29 0 58 4.5t57 15.5l9 -49q-26 -11 -60 -17t-70 -6q-94 0 -157 45.5t-87 126.5h-87v46h77q-3 22 -3 46t3 47h-77v46h87q24 81 87 126.5t157 45.5q36 0 70 -6t60 -17l-9 -49q-28 11 -57 15.5t-58 4.5
q-76 0 -121 -31.5t-63 -88.5h249v-46h-260q-3 -21 -3 -47z" />
    <glyph glyph-name="sterlingonum.tnum" 
d="M92 273h94v44q0 106 50 154t135 48q32 0 61 -5.5t54 -16.5l-11 -54q-23 10 -49.5 15t-50.5 5q-62 0 -92 -33t-30 -113v-44h179v-54h-182q-5 -52 -31 -94.5t-63 -70.5h318v-54h-382l-11 45q46 42 71.5 82t30.5 92h-91v54z" />
    <glyph glyph-name="yenonum.tnum" 
d="M370 304h88v-46h-112l-37 -67v-28h149v-45h-149v-118h-67v118h-148v45h148v28l-37 67h-111v46h87l-111 205h68l138 -266l138 266h68z" />
    <glyph glyph-name="numbersignonum.tnum" horiz-adv-x="649" 
d="M409 134h-190l-16 -134h-54l16 134h-98v46h103l20 169h-104v46h110l14 124h54l-14 -124h190l15 124h54l-15 -124h95v-46h-100l-20 -169h103v-46h-109l-16 -134h-54zM224 180h191l20 169h-191z" />
    <glyph glyph-name="plusonum.tnum" 
d="M305 229v-209h-59v209h-196v51h196v209h59v-209h196v-51h-196z" />
    <glyph glyph-name="plusminusonum.tnum" 
d="M305 278v-160h-59v160h-196v51h196v160h59v-160h196v-51h-196zM50 51h451v-51h-451v51z" />
    <glyph glyph-name="multiplyonum.tnum" 
d="M437 454l39 -38l-163 -162l163 -162l-39 -39l-162 163l-162 -163l-38 39l162 162l-162 162l38 38l162 -163z" />
    <glyph glyph-name="divideonum.tnum" 
d="M50 229v51h451v-51h-451zM226 74q0 20 13.5 34.5t35.5 14.5q23 0 36 -14.5t13 -34.5t-13 -34.5t-36 -14.5q-22 0 -35.5 14.5t-13.5 34.5zM226 435q0 20 13.5 34.5t35.5 14.5q23 0 36 -14.5t13 -34.5t-13 -34.5t-36 -14.5q-22 0 -35.5 14.5t-13.5 34.5z" />
    <glyph glyph-name="equalonum.tnum" 
d="M55 384h441v-51h-441v51zM55 175h441v-51h-441v51z" />
    <glyph glyph-name="notequalonum.tnum" 
d="M55 384h266l68 118l42 -25l-54 -93h119v-51h-148l-90 -158h238v-51h-268l-67 -118l-42 25l53 93h-117v51h146l91 158h-237v51z" />
    <glyph glyph-name="logicalnotonum.tnum" 
d="M434 20v209h-392v51h451v-260h-59z" />
    <glyph glyph-name="approxequalonum.tnum" 
d="M377 284q-30 0 -55 9.5t-54 24.5q-26 14 -45 21.5t-42 7.5q-27 0 -48.5 -11.5t-47.5 -33.5l-27 39q30 28 58 42.5t66 14.5q28 0 52 -7.5t54 -24.5q26 -14 45.5 -22.5t44.5 -8.5q26 0 46 11t43 31l27 -38q-27 -24 -55 -39.5t-62 -15.5zM377 110q-30 0 -55 9.5t-54 24.5
q-26 14 -45 21.5t-42 7.5q-27 0 -48.5 -11.5t-47.5 -33.5l-27 39q30 28 58 42.5t66 14.5q28 0 52 -7.5t54 -24.5q26 -14 45.5 -22.5t44.5 -8.5q26 0 46 11t43 31l27 -38q-27 -24 -55 -39.5t-62 -15.5z" />
    <glyph glyph-name="endashonum.tnum" 
d="M87 221v55h377v-55h-377z" />
    <glyph glyph-name="minusonum.tnum" 
d="M70 229v52h412v-52h-412z" />
    <glyph glyph-name="lessonum.tnum" 
d="M478 498l23 -48l-389 -196l389 -196l-23 -48l-428 219v50z" />
    <glyph glyph-name="greateronum.tnum" 
d="M501 279v-50l-428 -219l-23 48l389 196l-389 196l23 48z" />
    <glyph glyph-name="lessequalonum.tnum" 
d="M488 498l15 -50l-388 -129l388 -129l-15 -50l-440 152v54zM45 51h461v-51h-461v51z" />
    <glyph glyph-name="greaterequalonum.tnum" 
d="M503 346v-54l-440 -152l-15 50l388 129l-388 129l15 50zM506 0h-461v51h461v-51z" />
    <glyph glyph-name="percentonum.tnum" horiz-adv-x="811" 
d="M525 529l45 -25l-283 -514l-44 25zM359 383q0 -29 -10 -55.5t-29 -46.5t-46 -32t-61 -12t-61 12t-46 32t-29 46.5t-10 55.5t10 55.5t29 46.5t46 32t61 12t61 -12t46 -32t29 -46.5t10 -55.5zM305 383q0 42 -23.5 71.5t-68.5 29.5q-44 0 -68 -29.5t-24 -71.5t24 -71.5
t68 -29.5q45 0 68.5 29.5t23.5 71.5zM746 136q0 -29 -10 -55.5t-29 -46.5t-46 -32t-61 -12t-61 12t-46 32t-29 46.5t-10 55.5t10 55.5t29 46.5t46 32t61 12t61 -12t46 -32t29 -46.5t10 -55.5zM692 136q0 42 -23.5 71.5t-68.5 29.5q-44 0 -68 -29.5t-24 -71.5t24 -71.5
t68 -29.5q45 0 68.5 29.5t23.5 71.5z" />
    <glyph glyph-name="perthousandonum.tnum" horiz-adv-x="1154" 
d="M525 529l45 -25l-283 -514l-44 25zM359 383q0 -29 -10 -55.5t-29 -46.5t-46 -32t-61 -12t-61 12t-46 32t-29 46.5t-10 55.5t10 55.5t29 46.5t46 32t61 12t61 -12t46 -32t29 -46.5t10 -55.5zM305 383q0 42 -23.5 71.5t-68.5 29.5q-44 0 -68 -29.5t-24 -71.5t24 -71.5
t68 -29.5q45 0 68.5 29.5t23.5 71.5zM746 136q0 -29 -10 -55.5t-29 -46.5t-46 -32t-61 -12t-61 12t-46 32t-29 46.5t-10 55.5t10 55.5t29 46.5t46 32t61 12t61 -12t46 -32t29 -46.5t10 -55.5zM692 136q0 42 -23.5 71.5t-68.5 29.5q-44 0 -68 -29.5t-24 -71.5t24 -71.5
t68 -29.5q45 0 68.5 29.5t23.5 71.5zM1089 136q0 -29 -10 -55.5t-29 -46.5t-46 -32t-61 -12t-61 12t-46 32t-29 46.5t-10 55.5t10 55.5t29 46.5t46 32t61 12t61 -12t46 -32t29 -46.5t10 -55.5zM1035 136q0 42 -23.5 71.5t-68.5 29.5q-44 0 -68 -29.5t-24 -71.5t24 -71.5
t68 -29.5q45 0 68.5 29.5t23.5 71.5z" />
    <glyph glyph-name="zerosmcp.tnum" 
d="M469 254q0 -55 -12 -103t-36 -84t-60 -56.5t-85 -20.5t-85.5 20.5t-60.5 56.5t-35.5 84t-11.5 103t11.5 103.5t35.5 84.5t60.5 56.5t85.5 20.5t85 -20.5t60 -56.5t36 -84.5t12 -103.5zM403 254q0 43 -7 81.5t-22 67.5t-39.5 46t-58.5 17q-35 0 -59 -17t-39 -46t-22 -67.5
t-7 -81.5t7 -81.5t22 -67t39 -45.5t59 -17q34 0 58.5 17t39.5 45.5t22 67t7 81.5z" />
    <glyph glyph-name="onesmcp.tnum" 
d="M75 54h171v388l-155 -50l-16 53l191 64h47v-455h163v-54h-401v54z" />
    <glyph glyph-name="twosmcp.tnum" 
d="M137 485q30 17 62 25.5t71 8.5q73 0 119 -39t46 -108q0 -36 -10.5 -66t-28.5 -57t-42 -51.5t-51 -49.5q-23 -20 -54.5 -45.5t-57.5 -47.5h261v-55h-339l-13 43q50 44 88 77.5t67 59.5q23 22 43.5 43t36 43.5t24.5 47t9 52.5q0 46 -26.5 71.5t-77.5 25.5q-26 0 -55 -7.5
t-55 -21.5z" />
    <glyph glyph-name="threesmcp.tnum" 
d="M429 134q0 -32 -13.5 -58.5t-37.5 -45.5t-57.5 -29.5t-73.5 -10.5q-36 0 -75 8.5t-65 20.5l14 53q29 -12 59 -19.5t63 -7.5q57 0 88 24.5t31 63.5q0 26 -12 44t-32 29.5t-45.5 17t-51.5 5.5h-54v55h42q34 0 60 8.5t44 22.5t27.5 32.5t9.5 39.5q0 40 -27.5 58.5
t-72.5 18.5q-27 0 -54.5 -7t-53.5 -20l-15 52q29 16 63 23t69 7q71 0 114.5 -33.5t43.5 -90.5q0 -46 -28 -80.5t-80 -54.5q54 -12 87 -42.5t33 -83.5z" />
    <glyph glyph-name="foursmcp.tnum" 
d="M398 333v-142h89v-52h-89v-139h-63v139h-256l-15 46l183 334l52 -27l-167 -301h203v142h63z" />
    <glyph glyph-name="fivesmcp.tnum" 
d="M440 143q0 -71 -52.5 -112t-137.5 -41q-36 0 -72.5 6t-65.5 17l11 55q26 -10 57.5 -16.5t67.5 -6.5q62 0 94 25.5t32 68.5q0 49 -40.5 72.5t-102.5 23.5h-93v274h278v-56h-212v-162h39q38 0 73.5 -9t63 -27t44 -46t16.5 -66z" />
    <glyph glyph-name="sixsmcp.tnum" 
d="M379 469q-45 -19 -82.5 -40.5t-66 -48t-46.5 -59.5t-24 -75q25 23 57.5 37.5t78.5 14.5q72 0 116.5 -40t44.5 -108q0 -32 -12.5 -60.5t-35 -51t-55.5 -35.5t-73 -13q-46 0 -80.5 17.5t-58 46.5t-35.5 66.5t-12 78.5q0 63 20.5 113.5t56 90t83 68t102.5 48.5zM394 146
q0 50 -30.5 75t-79.5 25q-38 0 -70 -15t-55 -35q0 -27 6.5 -55t21.5 -50t38 -36t56 -14q53 0 83 29t30 76z" />
    <glyph glyph-name="sevensmcp.tnum" 
d="M465 460l-258 -460h-67l255 453h-275v56h335z" />
    <glyph glyph-name="eightsmcp.tnum" 
d="M437 400q0 -23 -9 -42.5t-24.5 -36.5t-35.5 -31t-42 -26q21 -11 43.5 -24t41.5 -30t31 -38.5t12 -48.5q0 -30 -14.5 -54.5t-38.5 -42t-56.5 -27t-68.5 -9.5q-38 0 -70.5 9t-56.5 26t-37.5 41.5t-13.5 55.5q0 26 12 48t31 39.5t41.5 31t43.5 22.5q-22 10 -42 24t-35 31.5
t-24 37.5t-9 44q0 28 12.5 50t34 37.5t50.5 23.5t63 8t63.5 -8.5t51.5 -24t34 -37.5t12 -49zM391 119q0 38 -32 64.5t-83 50.5q-21 -11 -41.5 -22.5t-37 -25.5t-26.5 -30.5t-10 -36.5q0 -36 31 -58t84 -22t84 22.5t31 57.5zM176 400q0 -38 27.5 -62t72.5 -47q41 23 71 48
t30 61q0 30 -26.5 50.5t-74.5 20.5q-46 0 -73 -19.5t-27 -51.5z" />
    <glyph glyph-name="ninesmcp.tnum" 
d="M173 40q90 36 147 87.5t71 135.5q-21 -21 -56.5 -37t-79.5 -16q-72 0 -116 40t-44 110q0 34 12.5 63.5t35.5 50.5t55 33t72 12q49 0 84 -19t58 -49t34 -67.5t11 -73.5q0 -63 -20.5 -113t-56.5 -89.5t-84 -68.5t-102 -49zM158 362q0 -51 29 -75.5t80 -24.5q39 0 72 16
t53 35q0 27 -6.5 54.5t-20.5 50t-37.5 36.5t-57.5 14q-55 0 -83.5 -29t-28.5 -77z" />
    <glyph glyph-name="centsmcp.tnum" 
d="M292 -82v118q-48 6 -84.5 25t-61.5 48.5t-37.5 66.5t-12.5 78t12.5 78t37.5 66t61.5 48t84.5 25v118h61v-117q27 -1 55 -6.5t48 -14.5l-9 -52q-53 19 -114 19q-83 0 -127 -44t-44 -120t44 -120.5t127 -44.5q60 0 114 20l9 -52q-19 -9 -47 -14.5t-55 -7.5v-117h-62z" />
    <glyph glyph-name="dollarsmcp.tnum" 
d="M242 -109v110q-38 4 -74 15.5t-64 26.5l16 50q33 -18 70.5 -29.5t78.5 -11.5q57 0 86 23t29 62q0 21 -9.5 37t-26 28.5t-38 22.5t-45.5 20q-31 12 -58 25t-47 29.5t-31.5 39t-11.5 53.5q0 53 36.5 85t93.5 37v111h62v-110q31 -2 61.5 -10t58.5 -23l-12 -51
q-30 14 -64.5 24t-69.5 10q-43 0 -72.5 -16t-29.5 -55q0 -21 7.5 -34t21 -23t32 -18.5t40.5 -18.5q22 -11 50.5 -23.5t54 -30.5t43.5 -43t18 -61q0 -57 -39 -93.5t-105 -46.5v-111h-62z" />
    <glyph glyph-name="Eurosmcp.tnum" 
d="M184 254q0 -25 3 -46h260v-46h-249q18 -57 63 -88.5t121 -31.5q29 0 58 4.5t57 15.5l9 -49q-26 -11 -60 -17t-70 -6q-94 0 -157 45.5t-87 126.5h-87v46h77q-3 22 -3 46t3 47h-77v46h87q24 81 87 126.5t157 45.5q36 0 70 -6t60 -17l-9 -49q-28 11 -57 15.5t-58 4.5
q-76 0 -121 -31.5t-63 -88.5h249v-46h-260q-3 -21 -3 -47z" />
    <glyph glyph-name="sterlingsmcp.tnum" 
d="M92 273h94v44q0 106 50 154t135 48q32 0 61 -5.5t54 -16.5l-11 -54q-23 10 -49.5 15t-50.5 5q-62 0 -92 -33t-30 -113v-44h179v-54h-182q-5 -52 -31 -94.5t-63 -70.5h318v-54h-382l-11 45q46 42 71.5 82t30.5 92h-91v54z" />
    <glyph glyph-name="yensmcp.tnum" 
d="M370 304h88v-46h-112l-37 -67v-28h149v-45h-149v-118h-67v118h-148v45h148v28l-37 67h-111v46h87l-111 205h68l138 -266l138 266h68z" />
    <glyph glyph-name="numbersignsmcp.tnum" horiz-adv-x="621" 
d="M387 137h-171l-16 -137h-54l16 137h-95v46h101l18 148h-102v46h108l16 132h53l-16 -132h171l16 132h53l-16 -132h92v-46h-98l-18 -148h99v-46h-105l-16 -137h-52zM221 183h171l19 148h-171z" />
    <glyph glyph-name="plussmcp.tnum" 
d="M305 229v-209h-59v209h-196v51h196v209h59v-209h196v-51h-196z" />
    <glyph glyph-name="plusminussmcp.tnum" 
d="M305 278v-160h-59v160h-196v51h196v160h59v-160h196v-51h-196zM50 51h451v-51h-451v51z" />
    <glyph glyph-name="multiplysmcp.tnum" 
d="M437 454l39 -38l-163 -162l163 -162l-39 -39l-162 163l-162 -163l-38 39l162 162l-162 162l38 38l162 -163z" />
    <glyph glyph-name="dividesmcp.tnum" 
d="M50 229v51h451v-51h-451zM226 74q0 20 13.5 34.5t35.5 14.5q23 0 36 -14.5t13 -34.5t-13 -34.5t-36 -14.5q-22 0 -35.5 14.5t-13.5 34.5zM226 435q0 20 13.5 34.5t35.5 14.5q23 0 36 -14.5t13 -34.5t-13 -34.5t-36 -14.5q-22 0 -35.5 14.5t-13.5 34.5z" />
    <glyph glyph-name="equalsmcp.tnum" 
d="M55 384h441v-51h-441v51zM55 175h441v-51h-441v51z" />
    <glyph glyph-name="notequalsmcp.tnum" 
d="M55 384h266l68 118l42 -25l-54 -93h119v-51h-148l-90 -158h238v-51h-268l-67 -118l-42 25l53 93h-117v51h146l91 158h-237v51z" />
    <glyph glyph-name="logicalnotsmcp.tnum" 
d="M434 20v209h-392v51h451v-260h-59z" />
    <glyph glyph-name="approxequalsmcp.tnum" 
d="M377 284q-30 0 -55 9.5t-54 24.5q-26 14 -45 21.5t-42 7.5q-27 0 -48.5 -11.5t-47.5 -33.5l-27 39q30 28 58 42.5t66 14.5q28 0 52 -7.5t54 -24.5q26 -14 45.5 -22.5t44.5 -8.5q26 0 46 11t43 31l27 -38q-27 -24 -55 -39.5t-62 -15.5zM377 110q-30 0 -55 9.5t-54 24.5
q-26 14 -45 21.5t-42 7.5q-27 0 -48.5 -11.5t-47.5 -33.5l-27 39q30 28 58 42.5t66 14.5q28 0 52 -7.5t54 -24.5q26 -14 45.5 -22.5t44.5 -8.5q26 0 46 11t43 31l27 -38q-27 -24 -55 -39.5t-62 -15.5z" />
    <glyph glyph-name="endashsmcp.tnum" 
d="M87 221v55h377v-55h-377z" />
    <glyph glyph-name="minussmcp.tnum" 
d="M70 229v52h412v-52h-412z" />
    <glyph glyph-name="lesssmcp.tnum" 
d="M478 498l23 -48l-389 -196l389 -196l-23 -48l-428 219v50z" />
    <glyph glyph-name="greatersmcp.tnum" 
d="M501 279v-50l-428 -219l-23 48l389 196l-389 196l23 48z" />
    <glyph glyph-name="lessequalsmcp.tnum" 
d="M488 498l15 -50l-388 -129l388 -129l-15 -50l-440 152v54zM45 51h461v-51h-461v51z" />
    <glyph glyph-name="greaterequalsmcp.tnum" 
d="M503 346v-54l-440 -152l-15 50l388 129l-388 129l15 50zM506 0h-461v51h461v-51z" />
    <glyph glyph-name="percentsmcp.tnum" horiz-adv-x="811" 
d="M523 519l45 -25l-278 -504l-44 25zM359 373q0 -29 -10 -55.5t-29 -46.5t-46 -32t-61 -12t-61 12t-46 32t-29 46.5t-10 55.5t10 55.5t29 46.5t46 32t61 12t61 -12t46 -32t29 -46.5t10 -55.5zM305 373q0 42 -23.5 71.5t-68.5 29.5q-44 0 -68 -29.5t-24 -71.5t24 -71.5
t68 -29.5q45 0 68.5 29.5t23.5 71.5zM746 136q0 -29 -10 -55.5t-29 -46.5t-46 -32t-61 -12t-61 12t-46 32t-29 46.5t-10 55.5t10 55.5t29 46.5t46 32t61 12t61 -12t46 -32t29 -46.5t10 -55.5zM692 136q0 42 -23.5 71.5t-68.5 29.5q-44 0 -68 -29.5t-24 -71.5t24 -71.5
t68 -29.5q45 0 68.5 29.5t23.5 71.5z" />
    <glyph glyph-name="perthousandsmcp.tnum" horiz-adv-x="1157" 
d="M523 519l45 -25l-278 -504l-44 25zM359 373q0 -29 -10 -55.5t-29 -46.5t-46 -32t-61 -12t-61 12t-46 32t-29 46.5t-10 55.5t10 55.5t29 46.5t46 32t61 12t61 -12t46 -32t29 -46.5t10 -55.5zM305 373q0 42 -23.5 71.5t-68.5 29.5q-44 0 -68 -29.5t-24 -71.5t24 -71.5
t68 -29.5q45 0 68.5 29.5t23.5 71.5zM746 136q0 -29 -10 -55.5t-29 -46.5t-46 -32t-61 -12t-61 12t-46 32t-29 46.5t-10 55.5t10 55.5t29 46.5t46 32t61 12t61 -12t46 -32t29 -46.5t10 -55.5zM692 136q0 42 -23.5 71.5t-68.5 29.5q-44 0 -68 -29.5t-24 -71.5t24 -71.5
t68 -29.5q45 0 68.5 29.5t23.5 71.5zM1092 136q0 -29 -10 -55.5t-29 -46.5t-46 -32t-61 -12t-61 12t-46 32t-29 46.5t-10 55.5t10 55.5t29 46.5t46 32t61 12t61 -12t46 -32t29 -46.5t10 -55.5zM1038 136q0 42 -23.5 71.5t-68.5 29.5q-44 0 -68 -29.5t-24 -71.5t24 -71.5
t68 -29.5q45 0 68.5 29.5t23.5 71.5z" />
    <glyph glyph-name="A.smcp" horiz-adv-x="580" 
d="M544 0h-70l-51 127h-266l-51 -127h-70l218 509h72zM290 455l-110 -273h220z" />
    <glyph glyph-name="B.smcp" horiz-adv-x="505" 
d="M462 143q0 -30 -14.5 -56.5t-41.5 -45.5t-65.5 -30t-87.5 -11h-163v509h166q82 0 131 -33t49 -88q0 -46 -30.5 -76.5t-83.5 -45.5q28 -4 53 -13.5t44.5 -25t31 -36.5t11.5 -48zM396 145q0 24 -13 41.5t-34.5 29t-50 16.5t-58.5 5h-86v-185h100q70 0 106 25t36 68z
M228 289q60 0 101 22.5t41 67.5q0 39 -32.5 58t-86.5 19h-97v-167h74z" />
    <glyph glyph-name="C.smcp" horiz-adv-x="517" 
d="M326 519q85 0 145 -27l-11 -51q-27 11 -60 17t-67 6q-111 0 -164.5 -57t-53.5 -152q0 -48 13 -86.5t40 -66t68 -42.5t97 -15q34 0 67 6t60 17l11 -51q-28 -13 -67.5 -20t-77.5 -7q-68 0 -120 20.5t-87 56.5t-53 84t-18 104q0 55 18 103.5t53 84t87 56t120 20.5z" />
    <glyph glyph-name="D.smcp" horiz-adv-x="598" 
d="M90 509h147q73 0 131.5 -19t100 -53t64 -81t22.5 -102q0 -56 -22.5 -102.5t-64 -80t-100 -52.5t-131.5 -19h-147v509zM240 55q52 0 97.5 13t79 38t52.5 62.5t19 85.5t-19 85.5t-52.5 63t-79 38.5t-97.5 13h-83v-399h83z" />
    <glyph glyph-name="E.smcp" horiz-adv-x="466" 
d="M90 509h311v-55h-244v-172h235v-55h-235v-172h247v-55h-314v509z" />
    <glyph glyph-name="F.smcp" horiz-adv-x="446" 
d="M90 0v509h313v-56h-246v-181h237v-56h-237v-216h-67z" />
    <glyph glyph-name="G.smcp" horiz-adv-x="579" 
d="M337 519q43 0 84 -7.5t76 -21.5l-10 -54q-35 14 -72 21t-74 7q-112 0 -169 -57.5t-57 -157.5q0 -102 59 -153.5t163 -51.5q27 0 57.5 3.5t49.5 10.5v165h62v-205q-32 -13 -79.5 -20.5t-93.5 -7.5q-71 0 -124.5 19.5t-89 54.5t-53.5 82t-18 103q0 61 19 110.5t56 85t91 55
t123 19.5z" />
    <glyph glyph-name="H.smcp" horiz-adv-x="611" 
d="M454 0v229h-297v-229h-67v509h67v-222h297v222h67v-509h-67z" />
    <glyph glyph-name="I.smcp" horiz-adv-x="253" 
d="M160 0h-67v509h67v-509z" />
    <glyph glyph-name="J.smcp" horiz-adv-x="250" 
d="M162 124q-1 -41 -6.5 -76t-18.5 -67.5t-35 -63.5t-56 -62l-46 40q51 52 73 103.5t22 120.5v390h67v-385v0z" />
    <glyph glyph-name="K.smcp" horiz-adv-x="525" 
d="M90 0v509h67v-243l245 243h86l-255 -253l274 -256h-92l-258 249v-249h-67z" />
    <glyph glyph-name="L.smcp" horiz-adv-x="441" 
d="M157 509v-454h244v-55h-311v509h67z" />
    <glyph glyph-name="M.smcp" horiz-adv-x="736" 
d="M404 89h-72l-172 313l-22 -402h-63l31 509h59l203 -365l203 365h59l31 -509h-63l-22 402z" />
    <glyph glyph-name="N.smcp" horiz-adv-x="634" 
d="M483 0l-328 409v-409h-65v509h61l328 -409v409h65v-509h-61z" />
    <glyph glyph-name="O.smcp" horiz-adv-x="634" 
d="M317 -10q-60 0 -109.5 20.5t-84.5 56.5t-54 84t-19 103t19 103.5t54 84.5t84.5 56.5t109.5 20.5t109.5 -20.5t84.5 -56.5t54 -84.5t19 -103.5t-19 -103t-54 -84t-84.5 -56.5t-109.5 -20.5zM317 45q46 0 83.5 16t63 44.5t39.5 66.5t14 82t-14 82.5t-39.5 67t-63 44.5
t-83.5 16q-47 0 -84 -16t-62.5 -44.5t-39.5 -67t-14 -82.5t14 -82t39.5 -66.5t62.5 -44.5t84 -16z" />
    <glyph glyph-name="P.smcp" horiz-adv-x="470" 
d="M436 362q0 -40 -17 -70.5t-47.5 -51t-72.5 -31t-92 -10.5h-50v-199h-67v509h143q44 0 81.5 -10t64.5 -28.5t42 -46t15 -62.5zM369 359q0 25 -11 43.5t-30 29.5t-44.5 16.5t-53.5 5.5h-73v-200h53q73 0 116 26t43 79z" />
    <glyph glyph-name="Q.smcp" horiz-adv-x="634" 
d="M317 -10q-60 0 -109.5 20.5t-84.5 56.5t-54 84t-19 103t19 103.5t54 84.5t84.5 56.5t109.5 20.5t109.5 -20.5t84.5 -56.5t54 -84.5t19 -103.5q0 -75 -34.5 -136t-95.5 -95l147 -89l-32 -48l-182 112q-35 -8 -70 -8zM317 45q46 0 83.5 16t63 44.5t39.5 66.5t14 82
t-14 82.5t-39.5 67t-63 44.5t-83.5 16q-47 0 -84 -16t-62.5 -44.5t-39.5 -67t-14 -82.5t14 -82t39.5 -66.5t62.5 -44.5t84 -16z" />
    <glyph glyph-name="R.smcp" horiz-adv-x="523" 
d="M443 364q0 -58 -40 -96.5t-105 -52.5l202 -215h-86l-186 206q-7 -1 -15 -1h-13h-43v-205h-67v509h155q40 0 76 -9.5t63 -27.5t43 -45t16 -63zM377 362q0 25 -11 42.5t-30 28.5t-43.5 16t-51.5 5h-84v-195h57q72 0 117.5 25.5t45.5 77.5z" />
    <glyph glyph-name="S.smcp" horiz-adv-x="458" 
d="M403 137q0 -35 -14.5 -62.5t-39.5 -46t-59 -28.5t-73 -10q-20 0 -41.5 2.5t-42.5 7t-39.5 10.5t-33.5 13l14 55q29 -14 66.5 -23.5t75.5 -9.5q51 0 85.5 22t34.5 65q0 22 -9.5 38t-26 28t-39 22t-47.5 20q-34 13 -61.5 26.5t-47 30.5t-30.5 39.5t-11 54.5q0 61 46 94.5
t123 33.5q45 0 81.5 -9.5t67.5 -24.5l-13 -54q-30 14 -65 23.5t-73 9.5q-45 0 -72.5 -18t-27.5 -54q0 -18 6 -31t18.5 -23.5t31 -19t43.5 -18.5q27 -11 57.5 -24t56 -31.5t42.5 -44.5t17 -63z" />
    <glyph glyph-name="T.smcp" horiz-adv-x="471" 
d="M434 509v-55h-165v-454h-67v454h-165v55h397z" />
    <glyph glyph-name="U.smcp" horiz-adv-x="614" 
d="M460 509h67v-319q0 -42 -14.5 -78.5t-42.5 -63.5t-69 -42.5t-94 -15.5t-94 15.5t-69 42.5t-42.5 63.5t-14.5 78.5v319h67v-324q0 -63 39 -101.5t114 -38.5t114 38.5t39 101.5v324z" />
    <glyph glyph-name="V.smcp" horiz-adv-x="510" 
d="M21 509h67l167 -440l167 440h67l-200 -509h-68z" />
    <glyph glyph-name="W.smcp" horiz-adv-x="822" 
d="M598 88l123 421h65l-156 -509h-61l-158 449l-158 -449h-61l-156 509h65l123 -421l148 421h78z" />
    <glyph glyph-name="X.smcp" horiz-adv-x="544" 
d="M426 509h73l-190 -253l194 -256h-74l-157 208l-157 -208h-74l194 256l-190 253h73l154 -205z" />
    <glyph glyph-name="Y.smcp" horiz-adv-x="485" 
d="M209 200l-193 309h74l152 -251l153 251h74l-193 -309v-200h-67v200z" />
    <glyph glyph-name="Z.smcp" horiz-adv-x="510" 
d="M80 509h364v-52l-299 -402h305v-55h-380v52l298 402h-288v55z" />
    <glyph glyph-name="zero.smcp" horiz-adv-x="518" 
d="M466 254q0 -55 -13.5 -103t-40 -84t-65 -56.5t-88.5 -20.5t-88.5 20.5t-65 56.5t-40 84t-13.5 103t13.5 103.5t40 84.5t65 56.5t88.5 20.5t88.5 -20.5t65 -56.5t40 -84.5t13.5 -103.5zM119 254q0 -44 8 -82.5t25 -66.5t43.5 -44t63.5 -16t63.5 16t43.5 44t25 66.5t8 82.5
t-8 82.5t-25 67t-43.5 44.5t-63.5 16t-63.5 -16t-43.5 -44.5t-25 -67t-8 -82.5z" />
    <glyph glyph-name="one.smcp" horiz-adv-x="328" 
d="M171 0v441l-129 -45l-17 54l166 59h47v-509h-67z" />
    <glyph glyph-name="two.smcp" horiz-adv-x="435" 
d="M73 485q30 17 62 25.5t71 8.5q73 0 119 -39t46 -108q0 -36 -10.5 -66t-28.5 -57t-42 -51.5t-51 -49.5q-23 -20 -54.5 -45.5t-57.5 -47.5h261v-55h-339l-13 43q50 44 88 77.5t67 59.5q23 22 43.5 43t36 43.5t24.5 47t9 52.5q0 46 -26.5 71.5t-77.5 25.5q-26 0 -55 -7.5
t-55 -21.5z" />
    <glyph glyph-name="three.smcp" horiz-adv-x="434" 
d="M374 134q0 -32 -13.5 -58.5t-37.5 -45.5t-57.5 -29.5t-73.5 -10.5q-36 0 -75 8.5t-65 20.5l14 53q29 -12 59 -19.5t63 -7.5q57 0 88 24.5t31 63.5q0 26 -12 44t-32 29.5t-45.5 17t-51.5 5.5h-54v55h42q34 0 60 8.5t44 22.5t27.5 32.5t9.5 39.5q0 40 -27.5 58.5
t-72.5 18.5q-27 0 -54.5 -7t-53.5 -20l-15 52q29 16 63 23t69 7q71 0 114.5 -33.5t43.5 -90.5q0 -46 -28 -80.5t-80 -54.5q54 -12 87 -42.5t33 -83.5z" />
    <glyph glyph-name="four.smcp" horiz-adv-x="484" 
d="M362 141v-141h-64v141h-242l-13 49l252 319h67v-314h84v-54h-84zM298 430l-184 -235h184v235z" />
    <glyph glyph-name="five.smcp" horiz-adv-x="431" 
d="M386 143q0 -71 -52.5 -112t-137.5 -41q-36 0 -72.5 6t-65.5 17l11 55q26 -10 57.5 -16.5t67.5 -6.5q62 0 94 25.5t32 68.5q0 49 -40.5 72.5t-102.5 23.5h-93v274h278v-56h-212v-162h39q38 0 73.5 -9t63 -27t44 -46t16.5 -66z" />
    <glyph glyph-name="six.smcp" horiz-adv-x="463" 
d="M339 469q-45 -19 -82.5 -40.5t-66 -48t-46.5 -59.5t-24 -75q25 23 57.5 37.5t78.5 14.5q72 0 116.5 -40t44.5 -108q0 -32 -12.5 -60.5t-35 -51t-55.5 -35.5t-73 -13q-46 0 -80.5 17.5t-58 46.5t-35.5 66.5t-12 78.5q0 63 20.5 113.5t56 90t83 68t102.5 48.5zM354 146
q0 50 -30.5 75t-79.5 25q-38 0 -70 -15t-55 -35q0 -27 6.5 -55t21.5 -50t38 -36t56 -14q53 0 83 29t30 76z" />
    <glyph glyph-name="seven.smcp" horiz-adv-x="404" 
d="M384 460l-246 -460h-67l246 453h-257v56h314z" />
    <glyph glyph-name="eight.smcp" horiz-adv-x="476" 
d="M399 400q0 -23 -9 -42.5t-24.5 -36.5t-35.5 -31t-42 -26q21 -11 43.5 -24t41.5 -30t31 -38.5t12 -48.5q0 -30 -14.5 -54.5t-38.5 -42t-56.5 -27t-68.5 -9.5q-38 0 -70.5 9t-56.5 26t-37.5 41.5t-13.5 55.5q0 26 12 48t31 39.5t41.5 31t43.5 22.5q-22 10 -42 24t-35 31.5
t-24 37.5t-9 44q0 28 12.5 50t34 37.5t50.5 23.5t63 8t63.5 -8.5t51.5 -24t34 -37.5t12 -49zM353 119q0 38 -32 64.5t-83 50.5q-21 -11 -41.5 -22.5t-37 -25.5t-26.5 -30.5t-10 -36.5q0 -36 31 -58t84 -22t84 22.5t31 57.5zM138 400q0 -38 27.5 -62t72.5 -47q41 23 71 48
t30 61q0 30 -26.5 50.5t-74.5 20.5q-46 0 -73 -19.5t-27 -51.5z" />
    <glyph glyph-name="nine.smcp" horiz-adv-x="460" 
d="M121 40q90 36 147 87.5t71 135.5q-21 -21 -56.5 -37t-79.5 -16q-72 0 -116 40t-44 110q0 34 12.5 63.5t35.5 50.5t55 33t72 12q49 0 84 -19t58 -49t34 -67.5t11 -73.5q0 -63 -20.5 -113t-56.5 -89.5t-84 -68.5t-102 -49zM106 362q0 -51 29 -75.5t80 -24.5q39 0 72 16
t53 35q0 27 -6.5 54.5t-20.5 50t-37.5 36.5t-57.5 14q-55 0 -83.5 -29t-28.5 -77z" />
    <glyph glyph-name="cent.smcp" horiz-adv-x="498" 
d="M264 -82v118q-48 6 -84.5 25t-61.5 48.5t-37.5 66.5t-12.5 78t12.5 78t37.5 66t61.5 48t84.5 25v118h61v-117q27 -1 55 -6.5t48 -14.5l-9 -52q-53 19 -114 19q-83 0 -127 -44t-44 -120t44 -120.5t127 -44.5q60 0 114 20l9 -52q-19 -9 -47 -14.5t-55 -7.5v-117h-62z" />
    <glyph glyph-name="dollar.smcp" horiz-adv-x="463" 
d="M200 -109v110q-38 4 -74 15.5t-64 26.5l16 50q33 -18 70.5 -29.5t78.5 -11.5q57 0 86 23t29 62q0 21 -9.5 37t-26 28.5t-38 22.5t-45.5 20q-31 12 -58 25t-47 29.5t-31.5 39t-11.5 53.5q0 53 36.5 85t93.5 37v111h62v-110q31 -2 61.5 -10t58.5 -23l-12 -51
q-30 14 -64.5 24t-69.5 10q-43 0 -72.5 -16t-29.5 -55q0 -21 7.5 -34t21 -23t32 -18.5t40.5 -18.5q22 -11 50.5 -23.5t54 -30.5t43.5 -43t18 -61q0 -57 -39 -93.5t-105 -46.5v-111h-62z" />
    <glyph glyph-name="Euro.smcp" horiz-adv-x="563" 
d="M189 254q0 -25 3 -46h260v-46h-249q18 -57 63 -88.5t121 -31.5q29 0 58 4.5t57 15.5l9 -49q-26 -11 -60 -17t-70 -6q-94 0 -157 45.5t-87 126.5h-87v46h77q-3 22 -3 46t3 47h-77v46h87q24 81 87 126.5t157 45.5q36 0 70 -6t60 -17l-9 -49q-28 11 -57 15.5t-58 4.5
q-76 0 -121 -31.5t-63 -88.5h249v-46h-260q-3 -21 -3 -47z" />
    <glyph glyph-name="sterling.smcp" horiz-adv-x="513" 
d="M66 273h94v44q0 106 50 154t135 48q32 0 61 -5.5t54 -16.5l-11 -54q-23 10 -49.5 15t-50.5 5q-62 0 -92 -33t-30 -113v-44h179v-54h-182q-5 -52 -31 -94.5t-63 -70.5h318v-54h-382l-11 45q46 42 71.5 82t30.5 92h-91v54z" />
    <glyph glyph-name="yen.smcp" horiz-adv-x="512" 
d="M350 304h88v-46h-112l-37 -67v-28h149v-45h-149v-118h-67v118h-148v45h148v28l-37 67h-111v46h87l-111 205h68l138 -266l138 266h68z" />
    <glyph glyph-name="numbersign.smcp" horiz-adv-x="621" 
d="M387 137h-171l-16 -137h-54l16 137h-95v46h101l18 148h-102v46h108l16 132h53l-16 -132h171l16 132h53l-16 -132h92v-46h-98l-18 -148h99v-46h-105l-16 -137h-52zM221 183h171l19 148h-171z" />
    <glyph glyph-name="plus.smcp" horiz-adv-x="611" 
d="M335 229v-209h-59v209h-196v51h196v209h59v-209h196v-51h-196z" />
    <glyph glyph-name="plusminus.smcp" horiz-adv-x="615" 
d="M337 278v-160h-59v160h-196v51h196v160h59v-160h196v-51h-196zM82 51h451v-51h-451v51z" />
    <glyph glyph-name="multiply.smcp" horiz-adv-x="571" 
d="M447 454l39 -38l-163 -162l163 -162l-39 -39l-162 163l-162 -163l-38 39l162 162l-162 162l38 38l162 -163z" />
    <glyph glyph-name="divide.smcp" horiz-adv-x="611" 
d="M80 229v51h451v-51h-451zM256 74q0 20 13.5 34.5t35.5 14.5q23 0 36 -14.5t13 -34.5t-13 -34.5t-36 -14.5q-22 0 -35.5 14.5t-13.5 34.5zM256 435q0 20 13.5 34.5t35.5 14.5q23 0 36 -14.5t13 -34.5t-13 -34.5t-36 -14.5q-22 0 -35.5 14.5t-13.5 34.5z" />
    <glyph glyph-name="equal.smcp" horiz-adv-x="621" 
d="M90 384h441v-51h-441v51zM90 175h441v-51h-441v51z" />
    <glyph glyph-name="notequal.smcp" horiz-adv-x="631" 
d="M95 384h266l68 118l42 -25l-54 -93h119v-51h-148l-90 -158h238v-51h-268l-67 -118l-42 25l53 93h-117v51h146l91 158h-237v51z" />
    <glyph glyph-name="logicalnot.smcp" horiz-adv-x="616" 
d="M472 20v209h-392v51h451v-260h-59z" />
    <glyph glyph-name="approxequal.smcp" horiz-adv-x="591" 
d="M399 284q-30 0 -55 9.5t-54 24.5q-26 14 -45 21.5t-42 7.5q-27 0 -48.5 -11.5t-47.5 -33.5l-27 39q30 28 58 42.5t66 14.5q28 0 52 -7.5t54 -24.5q26 -14 45.5 -22.5t44.5 -8.5q26 0 46 11t43 31l27 -38q-27 -24 -55 -39.5t-62 -15.5zM399 110q-30 0 -55 9.5t-54 24.5
q-26 14 -45 21.5t-42 7.5q-27 0 -48.5 -11.5t-47.5 -33.5l-27 39q30 28 58 42.5t66 14.5q28 0 52 -7.5t54 -24.5q26 -14 45.5 -22.5t44.5 -8.5q26 0 46 11t43 31l27 -38q-27 -24 -55 -39.5t-62 -15.5z" />
    <glyph glyph-name="endash.smcp" horiz-adv-x="517" 
d="M70 221v55h377v-55h-377z" />
    <glyph glyph-name="minus.smcp" 
d="M70 229v52h412v-52h-412z" />
    <glyph glyph-name="less.smcp" horiz-adv-x="601" 
d="M503 498l23 -48l-389 -196l389 -196l-23 -48l-428 219v50z" />
    <glyph glyph-name="greater.smcp" horiz-adv-x="601" 
d="M526 279v-50l-428 -219l-23 48l389 196l-389 196l23 48z" />
    <glyph glyph-name="lessequal.smcp" horiz-adv-x="621" 
d="M523 498l15 -50l-388 -129l388 -129l-15 -50l-440 152v54zM80 51h461v-51h-461v51z" />
    <glyph glyph-name="greaterequal.smcp" horiz-adv-x="621" 
d="M538 346v-54l-440 -152l-15 50l388 129l-388 129l15 50zM541 0h-461v51h461v-51z" />
    <glyph glyph-name="percent.smcp" horiz-adv-x="811" 
d="M523 519l45 -25l-278 -504l-44 25zM359 373q0 -29 -10 -55.5t-29 -46.5t-46 -32t-61 -12t-61 12t-46 32t-29 46.5t-10 55.5t10 55.5t29 46.5t46 32t61 12t61 -12t46 -32t29 -46.5t10 -55.5zM305 373q0 42 -23.5 71.5t-68.5 29.5q-44 0 -68 -29.5t-24 -71.5t24 -71.5
t68 -29.5q45 0 68.5 29.5t23.5 71.5zM746 136q0 -29 -10 -55.5t-29 -46.5t-46 -32t-61 -12t-61 12t-46 32t-29 46.5t-10 55.5t10 55.5t29 46.5t46 32t61 12t61 -12t46 -32t29 -46.5t10 -55.5zM692 136q0 42 -23.5 71.5t-68.5 29.5q-44 0 -68 -29.5t-24 -71.5t24 -71.5
t68 -29.5q45 0 68.5 29.5t23.5 71.5z" />
    <glyph glyph-name="perthousand.smcp" horiz-adv-x="1157" 
d="M523 519l45 -25l-278 -504l-44 25zM359 373q0 -29 -10 -55.5t-29 -46.5t-46 -32t-61 -12t-61 12t-46 32t-29 46.5t-10 55.5t10 55.5t29 46.5t46 32t61 12t61 -12t46 -32t29 -46.5t10 -55.5zM305 373q0 42 -23.5 71.5t-68.5 29.5q-44 0 -68 -29.5t-24 -71.5t24 -71.5
t68 -29.5q45 0 68.5 29.5t23.5 71.5zM746 136q0 -29 -10 -55.5t-29 -46.5t-46 -32t-61 -12t-61 12t-46 32t-29 46.5t-10 55.5t10 55.5t29 46.5t46 32t61 12t61 -12t46 -32t29 -46.5t10 -55.5zM692 136q0 42 -23.5 71.5t-68.5 29.5q-44 0 -68 -29.5t-24 -71.5t24 -71.5
t68 -29.5q45 0 68.5 29.5t23.5 71.5zM1092 136q0 -29 -10 -55.5t-29 -46.5t-46 -32t-61 -12t-61 12t-46 32t-29 46.5t-10 55.5t10 55.5t29 46.5t46 32t61 12t61 -12t46 -32t29 -46.5t10 -55.5zM1038 136q0 42 -23.5 71.5t-68.5 29.5q-44 0 -68 -29.5t-24 -71.5t24 -71.5
t68 -29.5q45 0 68.5 29.5t23.5 71.5z" />
    <glyph glyph-name="period.smcp" horiz-adv-x="248" 
d="M75 41q0 20 13.5 34.5t35.5 14.5t35.5 -14.5t13.5 -34.5t-13.5 -34.5t-35.5 -14.5t-35.5 14.5t-13.5 34.5z" />
    <glyph glyph-name="ellipsis.smcp" horiz-adv-x="744" 
d="M75 41q0 20 13.5 34.5t35.5 14.5t35.5 -14.5t13.5 -34.5t-13.5 -34.5t-35.5 -14.5t-35.5 14.5t-13.5 34.5zM323 41q0 20 13.5 34.5t35.5 14.5t35.5 -14.5t13.5 -34.5t-13.5 -34.5t-35.5 -14.5t-35.5 14.5t-13.5 34.5zM571 41q0 20 13.5 34.5t35.5 14.5t35.5 -14.5
t13.5 -34.5t-13.5 -34.5t-35.5 -14.5t-35.5 14.5t-13.5 34.5z" />
    <glyph glyph-name="comma.smcp" horiz-adv-x="228" 
d="M45 -99q22 50 33 95t13 100l65 -6q-4 -60 -18 -109.5t-43 -101.5z" />
    <glyph glyph-name="colon.smcp" horiz-adv-x="248" 
d="M75 41q0 20 13.5 34.5t35.5 14.5t35.5 -14.5t13.5 -34.5t-13.5 -34.5t-35.5 -14.5t-35.5 14.5t-13.5 34.5zM75 401q0 20 13.5 34.5t35.5 14.5t35.5 -14.5t13.5 -34.5t-13.5 -34.5t-35.5 -14.5t-35.5 14.5t-13.5 34.5z" />
    <glyph glyph-name="semicolon.smcp" horiz-adv-x="249" 
d="M41 -99q22 50 33 95t13 100l65 -6q-4 -60 -18 -109.5t-43 -101.5zM76 401q0 20 13.5 34.5t35.5 14.5t35.5 -14.5t13.5 -34.5t-13.5 -34.5t-35.5 -14.5t-35.5 14.5t-13.5 34.5z" />
    <glyph glyph-name="hyphen.smcp" horiz-adv-x="391" 
d="M70 221v55h251v-55h-251z" />
    <glyph glyph-name="emdash.smcp" horiz-adv-x="787" 
d="M70 221v55h647v-55h-647z" />
    <glyph glyph-name="question.smcp" horiz-adv-x="412" 
d="M362 389q0 -39 -18.5 -72t-48.5 -62t-68 -55.5t-77 -51.5l-32 47q34 24 66 47t57 46t39.5 47.5t14.5 50.5q0 41 -26 59.5t-68 18.5q-60 0 -122 -34l-19 52q35 20 70 28.5t75 8.5q72 0 114.5 -33t42.5 -97zM207 40q0 -19 -13.5 -33t-33.5 -14t-33 14t-13 33t13 32.5
t33 13.5t33.5 -13.5t13.5 -32.5z" />
    <glyph glyph-name="exclam.smcp" horiz-adv-x="293" 
d="M166 140h-39l-15 214v155h69v-155zM193 40q0 -19 -13.5 -33t-33.5 -14t-33 14t-13 33t13 32.5t33 13.5t33.5 -13.5t13.5 -32.5z" />
    </font>
</defs>
</svg>
