<?xml version="1.0" standalone="no"?>
<!DOCTYPE svg PUBLIC "-//W3C//DTD SVG 1.1//EN" "http://www.w3.org/Graphics/SVG/1.1/DTD/svg11.dtd" >
<svg xmlns="http://www.w3.org/2000/svg" xmlns:xlink="http://www.w3.org/1999/xlink" version="1.1">
<metadata>
Created by FontForge 20170731 at Sun Jul 19 08:52:44 2015
 By Aleksey,,,
Copyright (c) 2007 by Process Type Foundry. All rights reserved.
</metadata>
<defs>
<font id="Seravek-Medium" horiz-adv-x="552" >
  <font-face 
    font-family="Seravek Medium"
    font-weight="500"
    font-stretch="normal"
    units-per-em="1000"
    panose-1="2 11 7 3 5 0 0 2 0 4"
    ascent="800"
    descent="-200"
    x-height="487"
    cap-height="666"
    bbox="-95 -300 1361 953"
    underline-thickness="91"
    underline-position="-384"
    unicode-range="U+0020-FB04"
  />
<missing-glyph horiz-adv-x="656" 
d="M95 666h466v-666h-466v666zM172 616l340 -527v527h-340zM144 49h339l-339 527v-527z" />
    <glyph glyph-name="f_f" unicode="ff" horiz-adv-x="681" 
d="M417 0v380h-182v-380h-136v380h-79v107h79v17q0 110 54 161t145 51q23 0 45 -2.5t37 -7.5l-9 -105q-10 3 -22.5 4.5t-24.5 1.5q-48 0 -68.5 -24.5t-20.5 -72.5v-23h182v17q0 109 54.5 160.5t145.5 51.5q23 0 45.5 -2.5t43.5 -10.5l-8 -103q-12 4 -26.5 5.5t-28.5 1.5
q-46 0 -68 -22.5t-22 -74.5v-23h119v-107h-119v-380h-136z" />
    <glyph glyph-name="fi" unicode="fi" horiz-adv-x="603" 
d="M401 0v380h-166v-380h-136v380h-79v107h79v14q0 113 57.5 164t160.5 51q41 0 76 -6.5t61 -18.5l-15 -98q-23 8 -49.5 13t-56.5 5q-51 0 -74.5 -24.5t-23.5 -75.5v-24h303v-487h-137z" />
    <glyph glyph-name="fl" unicode="fl" horiz-adv-x="652" 
d="M549 141q0 -23 9.5 -34.5t32.5 -11.5q9 0 19 1t19 3l5 -96q-17 -5 -42 -8.5t-49 -3.5q-37 0 -62 11.5t-40.5 31t-22 44t-6.5 50.5v476q-17 4 -36 6t-40 2q-54 0 -77.5 -26.5t-23.5 -80.5v-18h111v-107h-111v-380h-136v380h-79v107h79v16q0 100 51.5 156.5t159.5 56.5
q26 0 51.5 -2.5t50.5 -7.5h137v-565z" />
    <glyph glyph-name="f_f_i" unicode="ffi" horiz-adv-x="921" 
d="M417 501q0 113 57.5 164t160.5 51q41 0 76 -6.5t61 -18.5l-15 -98q-23 8 -49.5 13t-56.5 5q-51 0 -74.5 -24.5t-23.5 -75.5v-24h303v-487h-137v380h-166v-380h-136v380h-182v-380h-136v380h-79v107h79v17q0 110 54 161t145 51q23 0 45 -2.5t37 -7.5l-9 -105
q-10 3 -22.5 4.5t-24.5 1.5q-48 0 -68.5 -24.5t-20.5 -72.5v-23h182v14z" />
    <glyph glyph-name="f_f_l" unicode="ffl" horiz-adv-x="970" 
d="M867 141q0 -23 9.5 -34.5t32.5 -11.5q9 0 19 1t19 3l5 -96q-17 -5 -42 -8.5t-49 -3.5q-37 0 -62 11.5t-40.5 31t-22 44t-6.5 50.5v476q-17 4 -36 6t-40 2q-54 0 -77.5 -26.5t-23.5 -80.5v-18h111v-107h-111v-380h-136v380h-182v-380h-136v380h-79v107h79v17q0 110 54 161
t145 51q23 0 45 -2.5t37 -7.5l-9 -105q-10 3 -22.5 4.5t-24.5 1.5q-48 0 -68.5 -24.5t-20.5 -72.5v-23h182v16q0 100 51.5 156.5t159.5 56.5q26 0 51.5 -2.5t50.5 -7.5h137v-565z" />
    <glyph glyph-name="f_b" unicode="fb" horiz-adv-x="919" 
d="M613 -10q-56 0 -107 12t-94 32v570q-17 4 -36 6t-40 2q-54 0 -77.5 -26.5t-23.5 -80.5v-18h111v-107h-111v-380h-136v380h-79v107h79v16q0 100 51.5 156.5t159.5 56.5q26 0 51.5 -2.5t50.5 -7.5h137v-259q22 22 53 36t76 14q48 0 86.5 -18.5t65.5 -51.5t41.5 -79
t14.5 -100q0 -56 -17 -103.5t-51 -82t-85.5 -53.5t-119.5 -19zM640 391q-28 0 -50 -8.5t-41 -24.5v-253q12 -6 29 -9t37 -3q36 0 61.5 11.5t41.5 32t23.5 48.5t7.5 61q0 64 -26.5 104.5t-82.5 40.5z" />
    <glyph glyph-name="f_f_b" unicode="ffb" horiz-adv-x="1237" 
d="M867 447q22 22 53 36t76 14q48 0 86.5 -18.5t65.5 -51.5t41.5 -79t14.5 -100q0 -56 -17 -103.5t-51 -82t-85.5 -53.5t-119.5 -19q-56 0 -107 12t-94 32v570q-17 4 -36 6t-40 2q-54 0 -77.5 -26.5t-23.5 -80.5v-18h111v-107h-111v-380h-136v380h-182v-380h-136v380h-79
v107h79v17q0 110 54 161t145 51q23 0 45 -2.5t37 -7.5l-9 -105q-10 3 -22.5 4.5t-24.5 1.5q-48 0 -68.5 -24.5t-20.5 -72.5v-23h182v16q0 100 51.5 156.5t159.5 56.5q26 0 51.5 -2.5t50.5 -7.5h137v-259zM958 391q-28 0 -50 -8.5t-41 -24.5v-253q12 -6 29 -9t37 -3
q36 0 61.5 11.5t41.5 32t23.5 48.5t7.5 61q0 64 -26.5 104.5t-82.5 40.5z" />
    <glyph glyph-name="f_h" unicode="fh" horiz-adv-x="922" 
d="M412 0v604q-17 4 -36 6t-40 2q-54 0 -77.5 -26.5t-23.5 -80.5v-18h111v-107h-111v-380h-136v380h-79v107h79v16q0 100 51.5 156.5t159.5 56.5q26 0 51.5 -2.5t50.5 -7.5h137v-278q24 35 59.5 52t77.5 17q47 0 80.5 -20t54.5 -53.5t31 -78t10 -92.5v-253h-137v254
q0 66 -20.5 100t-67.5 34q-30 0 -52 -14t-36 -33v-341h-137z" />
    <glyph glyph-name="f_f_h" unicode="ffh" horiz-adv-x="1240" 
d="M730 0v604q-17 4 -36 6t-40 2q-54 0 -77.5 -26.5t-23.5 -80.5v-18h111v-107h-111v-380h-136v380h-182v-380h-136v380h-79v107h79v17q0 110 54 161t145 51q23 0 45 -2.5t37 -7.5l-9 -105q-10 3 -22.5 4.5t-24.5 1.5q-48 0 -68.5 -24.5t-20.5 -72.5v-23h182v16
q0 100 51.5 156.5t159.5 56.5q26 0 51.5 -2.5t50.5 -7.5h137v-278q24 35 59.5 52t77.5 17q47 0 80.5 -20t54.5 -53.5t31 -78t10 -92.5v-253h-137v254q0 66 -20.5 100t-67.5 34q-30 0 -52 -14t-36 -33v-341h-137z" />
    <glyph glyph-name="f_j" unicode="fj" horiz-adv-x="603" 
d="M235 380v-380h-136v380h-79v107h79v14q0 113 57.5 164t160.5 51q41 0 76 -6.5t61 -18.5l-15 -98q-23 8 -49.5 13t-56.5 5q-51 0 -74.5 -24.5t-23.5 -75.5v-24h303v-371q0 -53 -7.5 -97t-24.5 -84t-45 -76.5t-70 -74.5l-89 78q25 27 43.5 53t31 54.5t18.5 60.5t6 71v279
h-166z" />
    <glyph glyph-name="f_f_j" unicode="ffj" horiz-adv-x="921" 
d="M417 501q0 113 57.5 164t160.5 51q41 0 76 -6.5t61 -18.5l-15 -98q-23 8 -49.5 13t-56.5 5q-51 0 -74.5 -24.5t-23.5 -75.5v-24h303v-371q0 -53 -7.5 -97t-24.5 -84t-45 -76.5t-70 -74.5l-89 78q25 27 43.5 53t31 54.5t18.5 60.5t6 71v279h-166v-380h-136v380h-182v-380
h-136v380h-79v107h79v17q0 110 54 161t145 51q23 0 45 -2.5t37 -7.5l-9 -105q-10 3 -22.5 4.5t-24.5 1.5q-48 0 -68.5 -24.5t-20.5 -72.5v-23h182v14z" />
    <glyph glyph-name="f_k" unicode="fk" horiz-adv-x="885" 
d="M412 0v604q-17 4 -36 6t-40 2q-54 0 -77.5 -26.5t-23.5 -80.5v-18h111v-107h-111v-380h-136v380h-79v107h79v16q0 100 51.5 156.5t159.5 56.5q26 0 51.5 -2.5t50.5 -7.5h137v-448l162 229h152l-173 -240l197 -247h-163l-175 237v-237h-137z" />
    <glyph glyph-name="f_f_k" unicode="ffk" horiz-adv-x="1203" 
d="M730 0v604q-17 4 -36 6t-40 2q-54 0 -77.5 -26.5t-23.5 -80.5v-18h111v-107h-111v-380h-136v380h-182v-380h-136v380h-79v107h79v17q0 110 54 161t145 51q23 0 45 -2.5t37 -7.5l-9 -105q-10 3 -22.5 4.5t-24.5 1.5q-48 0 -68.5 -24.5t-20.5 -72.5v-23h182v16
q0 100 51.5 156.5t159.5 56.5q26 0 51.5 -2.5t50.5 -7.5h137v-448l162 229h152l-173 -240l197 -247h-163l-175 237v-237h-137z" />
    <glyph glyph-name=".notdef" horiz-adv-x="656" 
d="M95 666h466v-666h-466v666zM172 616l340 -527v527h-340zM144 49h339l-339 527v-527z" />
    <glyph glyph-name=".null" horiz-adv-x="0" 
 />
    <glyph glyph-name="nonmarkingreturn" horiz-adv-x="333" 
 />
    <glyph glyph-name="space" unicode=" " horiz-adv-x="215" 
 />
    <glyph glyph-name="exclam" unicode="!" horiz-adv-x="328" 
d="M204 210h-80l-32 249v207h144v-207zM85 72q0 32 20.5 55.5t58.5 23.5t58.5 -23.5t20.5 -55.5t-20.5 -56t-58.5 -24t-58.5 24t-20.5 56z" />
    <glyph glyph-name="quotedbl" unicode="&#x22;" horiz-adv-x="485" 
d="M85 417l-15 249h138l-15 -249h-108zM292 417l-15 249h138l-15 -249h-108z" />
    <glyph glyph-name="numbersign" unicode="#" horiz-adv-x="696" 
d="M417 161h-167l-17 -161h-107l17 161h-98v90h107l18 172h-105v90h115l17 153h107l-17 -153h167l17 153h107l-17 -153h95v-90h-104l-18 -172h97v-90h-107l-17 -161h-107zM259 251h168l18 172h-168z" />
    <glyph glyph-name="dollar" unicode="$" horiz-adv-x="506" 
d="M185 -120v122q-37 5 -72 14.5t-63 22.5l24 103q33 -16 71.5 -25t83.5 -9q42 0 70 18.5t28 57.5q0 36 -26.5 58t-77.5 47q-41 19 -72 39t-51.5 43t-31 51.5t-10.5 65.5q0 72 38.5 113.5t98.5 54.5v130h122v-123q31 -2 63 -11.5t60 -23.5l-23 -104q-38 17 -71.5 25.5
t-68.5 8.5q-85 0 -85 -65q0 -16 6.5 -28t18.5 -22.5t30 -21t42 -22.5q24 -13 54 -29.5t56.5 -40.5t44 -55.5t17.5 -74.5q0 -72 -42 -121.5t-112 -68.5v-129h-122z" />
    <glyph glyph-name="percent" unicode="%" horiz-adv-x="982" 
d="M418 480q0 -36 -11 -71.5t-34 -63.5t-57.5 -45t-81.5 -17t-81.5 17t-57.5 45t-34 63.5t-11 71.5q0 37 11 72.5t34 63.5t57.5 45t81.5 17t81.5 -17t57.5 -45t34 -63.5t11 -72.5zM308 480q0 47 -18 78t-56 31t-56 -31t-18 -78t17.5 -77.5t56.5 -30.5t56.5 30.5t17.5 77.5z
M598 678l98 -47l-306 -643l-97 49zM937 185q0 -36 -11 -71.5t-34 -63.5t-57.5 -45t-81.5 -17t-81.5 17t-57.5 45t-34 63.5t-11 71.5q0 37 11 72.5t34 63.5t57.5 45t81.5 17t81.5 -17t57.5 -45t34 -63.5t11 -72.5zM827 185q0 47 -18 78t-56 31t-56 -31t-18 -78t17.5 -77.5
t56.5 -30.5t56.5 30.5t17.5 77.5z" />
    <glyph glyph-name="ampersand" unicode="&#x26;" horiz-adv-x="743" 
d="M666 -12q-43 25 -83 50.5t-78 50.5q-56 -53 -117.5 -77t-128.5 -24q-47 0 -86 11t-67.5 32.5t-44.5 52t-16 69.5q0 31 11 57t29.5 48t42 40.5t48.5 35.5q-42 37 -70 78.5t-28 93.5q0 38 13.5 69.5t40 54.5t64 35.5t85.5 12.5q39 0 73.5 -9.5t60 -28.5t40.5 -47t15 -64
q0 -34 -11.5 -61.5t-30 -50t-41 -41.5t-43.5 -36q34 -26 69.5 -52t74.5 -52q24 33 44.5 71t43.5 86l100 -49q-23 -51 -47 -93.5t-50 -75.5q36 -23 73 -45.5t73 -45.5zM272 89q42 0 77 16t67 45q-39 26 -82 57.5t-78 60.5q-29 -23 -51.5 -47.5t-22.5 -57.5q0 -34 22 -54
t68 -20zM202 507q0 -31 17 -57t44 -49q18 13 34 26t28 27.5t19 30.5t7 36q0 29 -20.5 45t-51.5 16q-37 0 -57 -19.5t-20 -55.5z" />
    <glyph glyph-name="quotesingle" unicode="'" horiz-adv-x="278" 
d="M85 417l-15 249h138l-15 -249h-108z" />
    <glyph glyph-name="parenleft" unicode="(" horiz-adv-x="363" 
d="M213 280q0 -44 5 -91t17.5 -98t34 -107t53.5 -117l-95 -53q-75 108 -114 224.5t-39 241.5t39 241.5t114 224.5l95 -53q-32 -62 -53.5 -117.5t-34 -106.5t-17.5 -98t-5 -91z" />
    <glyph glyph-name="parenright" unicode=")" horiz-adv-x="363" 
d="M150 280q0 44 -5 91t-17.5 98t-34 106.5t-53.5 117.5l95 53q75 -108 114 -224.5t39 -241.5t-39 -241.5t-114 -224.5l-95 53q32 61 53.5 117t34 107t17.5 98t5 91z" />
    <glyph glyph-name="asterisk" unicode="*" horiz-adv-x="411" 
d="M175 591v115h61v-115l99 58l31 -53l-99 -57l99 -57l-30 -54l-100 58v-114h-61v114l-101 -58l-29 54l98 57l-98 57l31 53z" />
    <glyph glyph-name="plus" unicode="+" horiz-adv-x="594" 
d="M356 272v-194h-118v194h-176v102h176v194h118v-194h176v-102h-176z" />
    <glyph glyph-name="comma" unicode="," horiz-adv-x="288" 
d="M32 -112q13 31 23.5 59t17.5 57t11 60.5t5 67.5l134 -11q-5 -79 -29.5 -148.5t-72.5 -131.5z" />
    <glyph glyph-name="hyphen" unicode="-" horiz-adv-x="384" 
d="M60 207v111h264v-111h-264z" />
    <glyph glyph-name="period" unicode="." horiz-adv-x="278" 
d="M60 72q0 32 20.5 55.5t58.5 23.5t58.5 -23.5t20.5 -55.5t-20.5 -56t-58.5 -24t-58.5 24t-20.5 56z" />
    <glyph glyph-name="slash" unicode="/" horiz-adv-x="446" 
d="M292 707l119 -41l-252 -766l-119 43z" />
    <glyph glyph-name="zero" unicode="0" horiz-adv-x="614" 
d="M569 333q0 -76 -16 -139.5t-49 -109t-82 -71t-115 -25.5t-115 25.5t-82 71t-49 109t-16 139.5t16 139.5t49 109t82 71t115 25.5t115 -25.5t82 -71t49 -109t16 -139.5zM431 333q0 55 -6.5 98.5t-21.5 74t-38.5 46.5t-57.5 16t-57.5 -16t-38.5 -46.5t-21.5 -74t-6.5 -98.5
t6.5 -98.5t21.5 -74t38.5 -46.5t57.5 -16q67 0 95.5 62.5t28.5 172.5z" />
    <glyph glyph-name="one" unicode="1" horiz-adv-x="380" 
d="M167 0v518l-124 -45l-33 108l213 85h82v-666h-138z" />
    <glyph glyph-name="two" unicode="2" horiz-adv-x="500" 
d="M56 628q36 23 80 36.5t97 13.5q99 0 156.5 -53t57.5 -148q0 -40 -10 -75t-28 -66.5t-42.5 -61t-53.5 -57.5q-31 -30 -59 -56t-55 -50h254v-111h-414l-19 80q27 28 49.5 51t42.5 43.5t38.5 40.5t38.5 42l44 50t38.5 51t27 53t10.5 55q0 47 -27 73.5t-75 26.5
q-37 0 -66 -9.5t-53 -24.5z" />
    <glyph glyph-name="three" unicode="3" horiz-adv-x="490" 
d="M445 181q0 -45 -18.5 -80.5t-50 -60.5t-74.5 -38.5t-92 -13.5q-46 0 -93 10t-82 26l23 104q31 -14 64.5 -22.5t71.5 -8.5q57 0 85 25t28 63q0 51 -42 73.5t-108 22.5h-56v111h37q74 0 114.5 27t40.5 74q0 36 -24.5 55.5t-69.5 19.5q-64 0 -120 -28l-24 99
q32 18 77.5 28.5t94.5 10.5q43 0 80.5 -11t65 -32t43 -51t15.5 -68q0 -57 -31.5 -100.5t-93.5 -69.5q28 -8 53.5 -22.5t44.5 -35t30 -47.5t11 -60z" />
    <glyph glyph-name="four" unicode="4" horiz-adv-x="570" 
d="M453 170v-170h-135v170h-269l-20 101l257 395h167v-390h90v-106h-90zM318 541l-161 -265h161v265z" />
    <glyph glyph-name="five" unicode="5" horiz-adv-x="514" 
d="M474 201q0 -50 -20 -89.5t-55 -67t-81.5 -42t-100.5 -14.5q-45 0 -91 8.5t-76 21.5l19 107q32 -12 68 -19.5t72 -7.5q58 0 92.5 24t34.5 71q0 53 -41.5 75.5t-109.5 22.5h-108v375h360v-112h-223v-154h21q51 0 94.5 -13t76 -38t50.5 -62t18 -86z" />
    <glyph glyph-name="six" unicode="6" horiz-adv-x="550" 
d="M433 576q-45 -23 -84.5 -44.5t-72 -48t-56 -60.5t-35.5 -82q24 26 58.5 40.5t76.5 14.5q43 0 79 -13.5t61.5 -39t40 -61.5t14.5 -81q0 -46 -17.5 -85t-48.5 -67.5t-72 -44.5t-87 -16q-63 0 -109 23.5t-76 61t-45 85t-15 95.5q0 79 23.5 144.5t68 118.5t108.5 93.5
t144 68.5zM385 197q0 44 -25 69t-70 25q-36 0 -62.5 -14t-44.5 -33q0 -29 5 -56t17.5 -48t32.5 -34t49 -13q45 0 71.5 29.5t26.5 74.5z" />
    <glyph glyph-name="seven" unicode="7" horiz-adv-x="465" 
d="M445 557l-255 -557h-137l260 556h-278v110h391z" />
    <glyph glyph-name="eight" unicode="8" horiz-adv-x="557" 
d="M279 678q46 0 84 -11t65.5 -31.5t42.5 -50.5t15 -68q0 -27 -10 -50t-26.5 -43.5t-37.5 -38t-43 -32.5q27 -17 51.5 -35.5t43 -41t29.5 -49.5t11 -60q0 -38 -17.5 -71t-48.5 -57t-72 -37.5t-87 -13.5q-51 0 -93 12.5t-71.5 35t-45.5 55t-16 73.5q0 31 12 57.5t31 48t43 40
t49 35.5q-50 34 -83.5 72.5t-33.5 92.5q0 37 14.5 68t41.5 53.5t65.5 34.5t86.5 12zM374 167q0 37 -25 63.5t-70 55.5q-20 -15 -37.5 -28t-30.5 -27t-20.5 -29.5t-7.5 -35.5q0 -38 25.5 -58.5t70.5 -20.5q42 0 68.5 22.5t26.5 57.5zM199 513q0 -29 17.5 -50.5t62.5 -51.5
q35 24 57 48t22 54q0 32 -22 49.5t-57 17.5q-36 0 -58 -19t-22 -48z" />
    <glyph glyph-name="nine" unicode="9" horiz-adv-x="555" 
d="M122 90q45 20 84.5 41.5t71.5 48.5t56 62t36 83q-24 -26 -58.5 -40.5t-76.5 -14.5q-43 0 -79 13.5t-61.5 39t-40 61.5t-14.5 81q0 48 16.5 87.5t46.5 67.5t71.5 43t90.5 15q64 0 110.5 -23.5t76.5 -61t44 -85t14 -95.5q0 -80 -23.5 -146t-68 -118.5t-108.5 -92.5
t-144 -68zM170 470q0 -46 26 -70.5t69 -24.5q36 0 62.5 14t44.5 33q0 28 -5 55.5t-17.5 48.5t-32.5 34t-49 13q-45 0 -71.5 -28t-26.5 -75z" />
    <glyph glyph-name="colon" unicode=":" horiz-adv-x="278" 
d="M60 72q0 32 20.5 55.5t58.5 23.5t58.5 -23.5t20.5 -55.5t-20.5 -56t-58.5 -24t-58.5 24t-20.5 56zM60 363q0 32 20.5 55.5t58.5 23.5t58.5 -23.5t20.5 -55.5t-20.5 -56t-58.5 -24t-58.5 24t-20.5 56z" />
    <glyph glyph-name="semicolon" unicode=";" horiz-adv-x="282" 
d="M25 -112q13 31 23.5 59t17.5 57t11 60.5t5 67.5l134 -11q-5 -79 -29.5 -148.5t-72.5 -131.5zM68 363q0 32 20.5 55.5t58.5 23.5t58.5 -23.5t20.5 -55.5t-20.5 -56t-58.5 -24t-58.5 24t-20.5 56z" />
    <glyph glyph-name="less" unicode="&#x3c;" horiz-adv-x="591" 
d="M494 578l42 -95l-352 -160l352 -160l-42 -95l-429 201v108z" />
    <glyph glyph-name="equal" unicode="=" horiz-adv-x="610" 
d="M75 385v101h460v-101h-460zM75 160v101h460v-101h-460z" />
    <glyph glyph-name="greater" unicode="&#x3e;" horiz-adv-x="591" 
d="M526 377v-108l-429 -201l-42 95l352 160l-352 160l42 95z" />
    <glyph glyph-name="question" unicode="?" horiz-adv-x="474" 
d="M434 500q0 -47 -20.5 -86.5t-55 -73.5t-79.5 -65t-94 -61l-64 92q35 26 66.5 48.5t55.5 45t38.5 45t14.5 48.5q0 36 -23 54.5t-61 18.5q-40 0 -70.5 -10t-60.5 -27l-36 100q38 23 84 36t102 13q42 0 79 -11t64.5 -33.5t43.5 -56t16 -77.5zM121 72q0 32 20.5 55.5
t58.5 23.5t58.5 -23.5t20.5 -55.5t-20.5 -56t-58.5 -24t-58.5 24t-20.5 56z" />
    <glyph glyph-name="at" unicode="@" horiz-adv-x="847" 
d="M456 401q38 0 70.5 -10.5t61.5 -27.5l-26 -147q-1 -5 -1.5 -10.5t-0.5 -10.5q0 -23 11 -37.5t36 -14.5q42 0 70 44t28 117q0 51 -18.5 90t-52 66t-79.5 41t-101 14q-71 0 -127 -22.5t-95.5 -62.5t-60.5 -96.5t-21 -123.5q0 -121 70 -192t206 -71q71 0 131 14.5t119 40.5
l22 -68q-65 -32 -137.5 -46t-139.5 -14q-87 0 -154.5 26.5t-113 72t-69.5 105.5t-24 127q0 84 28 154.5t80 122t126 80t166 28.5q75 0 136 -21.5t104.5 -59.5t67.5 -89.5t24 -111.5q0 -51 -13.5 -94t-39.5 -74t-63 -48.5t-84 -17.5q-54 0 -83.5 26t-34.5 62
q-21 -34 -50.5 -55t-61.5 -21q-48 0 -71.5 33t-23.5 79q0 42 12 79t35.5 64.5t59 43.5t82.5 16zM452 326q-23 0 -40 -10t-27.5 -26.5t-15.5 -37.5t-5 -43q0 -19 6.5 -32.5t23.5 -13.5q20 0 37.5 18.5t33.5 45.5l17 94q-13 5 -30 5z" />
    <glyph glyph-name="A" unicode="A" horiz-adv-x="696" 
d="M677 0h-145l-47 140h-274l-47 -140h-145l253 666h152zM348 554l-100 -303h200z" />
    <glyph glyph-name="B" unicode="B" horiz-adv-x="582" 
d="M547 187q0 -44 -20 -78.5t-56 -58.5t-87 -37t-113 -13h-201v666h228q51 0 92.5 -11.5t70.5 -32t45 -49.5t16 -64q0 -63 -36.5 -102t-99.5 -59q72 -11 116.5 -51.5t44.5 -109.5zM409 197q0 45 -38 68t-98 23h-67v-182h74q66 0 97.5 25t31.5 66zM266 394q52 0 85 23t33 65
q0 40 -28 59t-76 19h-74v-166h60z" />
    <glyph glyph-name="C" unicode="C" horiz-adv-x="621" 
d="M392 678q25 0 51 -2.5t50.5 -7t47 -11t40.5 -15.5l-20 -103q-32 12 -71 19.5t-77 7.5q-114 0 -174.5 -59t-60.5 -174t60.5 -174t174.5 -59q38 0 77 7.5t71 19.5l20 -103q-18 -9 -40.5 -15.5t-47 -11t-50.5 -7t-51 -2.5q-86 0 -152 26t-111 72t-68 109t-23 138t23 138
t68 109t111 72t152 26z" />
    <glyph glyph-name="D" unicode="D" horiz-adv-x="690" 
d="M70 666h201q88 0 159.5 -25t122 -69.5t78 -105.5t27.5 -133t-27.5 -133t-78 -105.5t-122 -69.5t-159.5 -25h-201v666zM274 112q53 0 98 15t77.5 43.5t50.5 69.5t18 93t-18 93t-50.5 69.5t-77.5 43.5t-98 15h-64v-442h64z" />
    <glyph glyph-name="E" unicode="E" horiz-adv-x="525" 
d="M70 666h400v-111h-260v-161h248v-111h-248v-172h263v-111h-403v666z" />
    <glyph glyph-name="F" unicode="F" horiz-adv-x="508" 
d="M70 0v666h402v-112h-262v-176h250v-112h-250v-266h-140z" />
    <glyph glyph-name="G" unicode="G" horiz-adv-x="688" 
d="M400 678q60 0 112 -9t101 -32l-20 -109q-44 18 -88 28t-94 10q-54 0 -97 -15t-73.5 -45t-47 -76t-16.5 -107q0 -113 58 -171t174 -58q24 0 48.5 3.5t44.5 9.5v197h126v-272q-47 -20 -110.5 -32t-126.5 -12q-83 0 -148.5 24.5t-111.5 69t-70 106t-24 136.5
q0 79 24.5 144.5t71.5 112t114 72t153 25.5z" />
    <glyph glyph-name="H" unicode="H" horiz-adv-x="696" 
d="M486 0v280h-276v-280h-140v666h140v-270h276v270h140v-666h-140z" />
    <glyph glyph-name="I" unicode="I" horiz-adv-x="290" 
d="M215 0h-140v666h140v-666z" />
    <glyph glyph-name="J" unicode="J" horiz-adv-x="288" 
d="M218 157q0 -46 -5.5 -87t-20 -80t-40.5 -78.5t-68 -81.5l-97 76q23 26 40 51.5t28.5 52.5t17 57.5t5.5 66.5v532h140v-509v0z" />
    <glyph glyph-name="K" unicode="K" horiz-adv-x="625" 
d="M70 0v666h140v-320l231 320h162l-245 -329l262 -337h-173l-237 327v-327h-140z" />
    <glyph glyph-name="L" unicode="L" horiz-adv-x="481" 
d="M210 666v-554h248v-112h-388v666h140z" />
    <glyph glyph-name="M" unicode="M" horiz-adv-x="854" 
d="M631 666h126l49 -666h-137l-23 414l-147 -302h-144l-147 302l-23 -414h-137l49 666h126l204 -430z" />
    <glyph glyph-name="N" unicode="N" horiz-adv-x="719" 
d="M515 0l-311 436v-436h-134v666h134l311 -436v436h134v-666h-134z" />
    <glyph glyph-name="O" unicode="O" horiz-adv-x="746" 
d="M708 333q0 -71 -22.5 -133.5t-65 -109.5t-105 -74.5t-142.5 -27.5t-142.5 27.5t-105.5 74.5t-65 109.5t-22 133.5q0 70 22 133t65 110t105.5 74.5t142.5 27.5t142.5 -27.5t105 -74.5t65 -110t22.5 -133zM373 98q49 0 85.5 18t61 49.5t36.5 74.5t12 93t-12 93t-36.5 74.5
t-61 49.5t-85.5 18t-85.5 -18t-61 -49.5t-36.5 -74.5t-12 -93t12 -93t36.5 -74.5t61 -49.5t85.5 -18z" />
    <glyph glyph-name="P" unicode="P" horiz-adv-x="550" 
d="M534 456q0 -55 -23 -96t-63 -68.5t-94.5 -41t-116.5 -13.5h-27v-237h-140v666h182q60 0 111.5 -12.5t89.5 -38.5t59.5 -65.5t21.5 -93.5zM394 456q0 52 -38.5 76.5t-104.5 24.5h-41v-211h34q70 0 110 27t40 83z" />
    <glyph glyph-name="Q" unicode="Q" horiz-adv-x="746" 
d="M708 333q0 -95 -39.5 -173.5t-114.5 -123.5l166 -107l-68 -100l-242 161q-8 -1 -18 -1.5t-19 -0.5q-80 0 -142.5 27.5t-105.5 74.5t-65 109.5t-22 133.5q0 70 22 133t65 110t105.5 74.5t142.5 27.5t142.5 -27.5t105 -74.5t65 -110t22.5 -133zM373 98q49 0 85.5 18
t61 49.5t36.5 74.5t12 93t-12 93t-36.5 74.5t-61 49.5t-85.5 18t-85.5 -18t-61 -49.5t-36.5 -74.5t-12 -93t12 -93t36.5 -74.5t61 -49.5t85.5 -18z" />
    <glyph glyph-name="R" unicode="R" horiz-adv-x="622" 
d="M552 463q0 -71 -40 -119.5t-115 -74.5l225 -269h-174l-193 243h-45v-243h-140v666h199q62 0 114 -12.5t89.5 -38t58.5 -63.5t21 -89zM412 460q0 51 -40 74t-104 23h-58v-208h42q72 0 116 28t44 83z" />
    <glyph glyph-name="S" unicode="S" horiz-adv-x="527" 
d="M494 190q0 -44 -18 -81t-50.5 -64t-78.5 -42t-102 -15q-53 0 -106.5 11.5t-98.5 33.5l29 107q36 -17 80.5 -29t91.5 -12q50 0 81.5 20.5t31.5 59.5q0 36 -30 59t-92 48q-44 18 -78 37.5t-57 43.5t-35.5 53.5t-12.5 66.5q0 92 62.5 141.5t167.5 49.5q54 0 99 -10t87 -32
l-26 -107q-35 17 -73.5 27.5t-78.5 10.5q-44 0 -71 -16.5t-27 -51.5q0 -16 4.5 -28t16.5 -22.5t31.5 -21t49.5 -23.5q40 -17 76.5 -36t64.5 -44t45 -58t17 -76z" />
    <glyph glyph-name="T" unicode="T" horiz-adv-x="546" 
d="M527 666v-112h-184v-554h-140v554h-184v112h508z" />
    <glyph glyph-name="U" unicode="U" horiz-adv-x="686" 
d="M478 666h140v-426q0 -57 -19 -103.5t-54 -79.5t-86.5 -51t-115.5 -18q-65 0 -116 18t-86 51t-54 79.5t-19 103.5v426h140v-432q0 -63 34 -98.5t101 -35.5t101 35.5t34 98.5v432z" />
    <glyph glyph-name="V" unicode="V" horiz-adv-x="616" 
d="M467 666h146l-224 -666h-162l-224 666h146l159 -524z" />
    <glyph glyph-name="W" unicode="W" horiz-adv-x="978" 
d="M702 177l118 489h142l-186 -666h-142l-145 522l-145 -522h-142l-186 666h142l118 -489l134 489h158z" />
    <glyph glyph-name="X" unicode="X" horiz-adv-x="636" 
d="M459 666h152l-219 -331l223 -335h-153l-144 227l-144 -227h-153l223 335l-219 331h152l141 -225z" />
    <glyph glyph-name="Y" unicode="Y" horiz-adv-x="580" 
d="M427 666h153l-220 -417v-249h-140v249l-220 417h153l137 -293z" />
    <glyph glyph-name="Z" unicode="Z" horiz-adv-x="567" 
d="M65 666h454v-112l-311 -442h317v-112h-472v112l311 442h-299v112z" />
    <glyph glyph-name="bracketleft" unicode="[" horiz-adv-x="383" 
d="M90 -176v912h243v-104h-106v-704h106v-104h-243z" />
    <glyph glyph-name="backslash" unicode="\" horiz-adv-x="446" 
d="M406 -57l-119 -43l-252 766l119 41z" />
    <glyph glyph-name="bracketright" unicode="]" horiz-adv-x="383" 
d="M50 -176v104h106v704h-106v104h243v-912h-243z" />
    <glyph glyph-name="asciicircum" unicode="^" horiz-adv-x="526" 
d="M476 355l-105 -43l-108 244l-108 -244l-105 43l147 311h132z" />
    <glyph glyph-name="underscore" unicode="_" horiz-adv-x="442" 
d="M-2 -250v91h446v-91h-446z" />
    <glyph glyph-name="grave" unicode="`" horiz-adv-x="434" 
d="M216 558l-111 166h151l73 -166h-113z" />
    <glyph glyph-name="a" unicode="a" horiz-adv-x="525" 
d="M333 52q-27 -26 -65 -44t-88 -18q-32 0 -58 10.5t-44 29t-28 43.5t-10 55q0 67 45 102t123 40q30 2 62 3t58 2v17q0 47 -23 71.5t-72 24.5q-38 0 -72 -9t-60 -23l-27 96q38 22 84 33.5t99 11.5q97 0 152.5 -53t55.5 -157v-287h-132v52zM230 83q29 0 54 10t44 25v77
q-21 -2 -45 -4t-44 -5q-30 -5 -48 -16.5t-18 -38.5q0 -24 15.5 -36t41.5 -12z" />
    <glyph glyph-name="b" unicode="b" horiz-adv-x="571" 
d="M64 706h137v-259q22 22 53 36t76 14q48 0 86.5 -18.5t65.5 -51.5t41.5 -79t14.5 -100q0 -56 -17 -103.5t-51 -82t-85.5 -53.5t-119.5 -19q-56 0 -107 12t-94 32v672zM292 391q-28 0 -50 -8.5t-41 -24.5v-253q12 -6 29 -9t37 -3q36 0 61.5 11.5t41.5 32t23.5 48.5t7.5 61
q0 64 -26.5 104.5t-82.5 40.5z" />
    <glyph glyph-name="c" unicode="c" horiz-adv-x="456" 
d="M288 497q36 0 74.5 -7.5t64.5 -21.5l-15 -98q-47 21 -104 21q-72 0 -106 -39.5t-34 -107.5t34 -108t106 -40q57 0 104 21l15 -98q-26 -14 -64.5 -21.5t-74.5 -7.5q-63 0 -111 19.5t-80.5 53.5t-49 80.5t-16.5 100.5t16.5 100.5t49 80t80.5 53t111 19.5z" />
    <glyph glyph-name="d" unicode="d" horiz-adv-x="572" 
d="M507 0h-131v63q-24 -32 -61.5 -52.5t-88.5 -20.5q-42 0 -77.5 18.5t-61 51.5t-40 78.5t-14.5 99.5q0 63 20 111.5t54 81t79.5 49.5t97.5 17q26 0 47.5 -3.5t38.5 -9.5v222h137v-706zM273 96q32 0 55.5 12.5t41.5 32.5v242q-28 10 -66 10q-66 0 -100 -40.5t-34 -112.5
q0 -31 6 -57.5t18.5 -45.5t32 -30t46.5 -11z" />
    <glyph glyph-name="e" unicode="e" horiz-adv-x="507" 
d="M273 497q48 0 85.5 -15t62.5 -42.5t38 -66t13 -86.5q0 -20 -2.5 -40.5t-7.5 -37.5h-289q2 -54 33 -86t99 -32q39 0 76 7.5t66 21.5l17 -93q-36 -18 -82 -27.5t-95 -9.5q-61 0 -108 18t-79.5 51t-49.5 79.5t-17 102.5q0 57 16.5 104.5t47.5 81t75.5 52t100.5 18.5z
M265 405q-42 0 -64.5 -29.5t-26.5 -74.5h167q5 47 -14 75.5t-62 28.5z" />
    <glyph glyph-name="f" unicode="f" horiz-adv-x="363" 
d="M99 0v380h-79v107h79v17q0 109 54.5 160.5t145.5 51.5q23 0 45.5 -2.5t43.5 -10.5l-8 -103q-12 4 -26.5 5.5t-28.5 1.5q-46 0 -68 -22.5t-22 -74.5v-23h119v-107h-119v-380h-136z" />
    <glyph glyph-name="g" unicode="g" horiz-adv-x="520" 
d="M503 487v-91h-77q17 -29 17 -67q0 -35 -14 -65t-40 -52.5t-64 -35t-86 -12.5h-6.5t-10.5 1q-5 -8 -8 -14.5t-3 -16.5q0 -17 15 -24t39 -9l80 -5q75 -5 117.5 -34t42.5 -94q0 -44 -23.5 -78t-62.5 -57.5t-89.5 -36t-104.5 -12.5q-42 0 -81 6.5t-69.5 21.5t-48.5 38.5
t-18 57.5q0 25 11 43.5t28.5 32t40 22t46.5 14.5q-21 11 -33 27.5t-12 40.5q0 17 6.5 31t16 25t21.5 19t24 13q-59 17 -90.5 57.5t-31.5 95.5q0 36 13.5 66.5t39.5 53t64 35.5t87 13q20 0 38.5 -2.5t35.5 -7.5h190zM196 4q-20 -11 -39.5 -27t-19.5 -43q0 -31 26.5 -45.5
t72.5 -14.5q26 0 51.5 5t45.5 14.5t32.5 23.5t12.5 33q0 24 -19.5 33.5t-51.5 11.5zM239 251q38 0 61 21.5t23 57.5q0 37 -22.5 58.5t-61.5 21.5t-61.5 -21t-22.5 -59q0 -37 23 -58t61 -21z" />
    <glyph glyph-name="h" unicode="h" horiz-adv-x="575" 
d="M65 0v706h137v-278q24 35 59.5 52t77.5 17q47 0 80.5 -20t54.5 -53.5t31 -78t10 -92.5v-253h-137v254q0 66 -20.5 100t-67.5 34q-30 0 -52 -14t-36 -33v-341h-137z" />
    <glyph glyph-name="i" unicode="i" horiz-adv-x="267" 
d="M65 0v487h137v-487h-137zM54 629q0 33 22 56t57 23t57.5 -23t22.5 -56q0 -32 -22.5 -55.5t-57.5 -23.5t-57 23.5t-22 55.5z" />
    <glyph glyph-name="j" unicode="j" horiz-adv-x="274" 
d="M209 116q0 -53 -7.5 -97t-24.5 -84t-45 -76.5t-70 -74.5l-89 78q25 27 43.5 53t31 54.5t18.5 60.5t6 71v386h137v-371zM61 629q0 33 22 56t57 23t57.5 -23t22.5 -56q0 -32 -22.5 -55.5t-57.5 -23.5t-57 23.5t-22 55.5z" />
    <glyph glyph-name="k" unicode="k" horiz-adv-x="538" 
d="M65 0v706h137v-448l162 229h152l-173 -240l197 -247h-163l-175 237v-237h-137z" />
    <glyph glyph-name="l" unicode="l" horiz-adv-x="297" 
d="M195 141q0 -23 9.5 -34.5t32.5 -11.5q9 0 19 1t19 3l5 -96q-17 -5 -42 -8.5t-49 -3.5q-37 0 -62 11.5t-40.5 31t-22 44t-6.5 50.5v578h137v-565z" />
    <glyph glyph-name="m" unicode="m" horiz-adv-x="874" 
d="M594 388q-32 0 -55.5 -18t-37.5 -38q3 -18 5 -38.5t2 -40.5v-253h-137v254q0 68 -19 101t-64 33q-31 0 -51.5 -14t-34.5 -33v-341h-137v487h132v-66q24 39 61 57.5t81 18.5q51 0 84 -23t53 -61q33 46 74 65t92 19q47 0 79.5 -18.5t53 -51.5t30 -77.5t9.5 -96.5v-253h-137
v254q0 68 -19 101t-64 33z" />
    <glyph glyph-name="n" unicode="n" horiz-adv-x="575" 
d="M65 0v487h132v-66q24 39 61 57.5t81 18.5q47 0 80.5 -20t54.5 -53.5t31 -78t10 -92.5v-253h-137v254q0 66 -20.5 100t-67.5 34q-30 0 -52 -14t-36 -33v-341h-137z" />
    <glyph glyph-name="o" unicode="o" horiz-adv-x="568" 
d="M535 243q0 -53 -16.5 -99t-48.5 -80.5t-78.5 -54t-107.5 -19.5t-107.5 19.5t-78.5 54t-48.5 80.5t-16.5 99t16.5 99t48.5 80.5t78.5 54.5t107.5 20t107.5 -20t78.5 -54.5t48.5 -80.5t16.5 -99zM398 243q0 30 -6 57.5t-19.5 48.5t-35.5 33.5t-53 12.5q-32 0 -53.5 -12.5
t-35 -33.5t-19.5 -48.5t-6 -57.5t6 -57t19.5 -48t35 -33.5t53.5 -12.5q31 0 53 12.5t35.5 33.5t19.5 48t6 57z" />
    <glyph glyph-name="p" unicode="p" horiz-adv-x="571" 
d="M65 487h131v-62q24 33 60 52.5t88 19.5q44 0 80 -18t61.5 -50.5t39.5 -78t14 -101.5q0 -63 -20 -111.5t-54 -81.5t-79.5 -49.5t-97.5 -16.5q-27 0 -48 3.5t-38 8.5v-208h-137v693zM298 390q-33 0 -57.5 -14t-38.5 -31v-241q13 -5 30 -7.5t36 -2.5q70 0 102 43t32 111
q0 61 -25.5 101.5t-78.5 40.5z" />
    <glyph glyph-name="q" unicode="q" horiz-adv-x="572" 
d="M507 -206h-137v245q-21 -21 -54 -35t-75 -14q-48 0 -86.5 18t-65.5 51t-41.5 78.5t-14.5 99.5q0 123 72 191.5t201 68.5q54 0 104 -10.5t97 -34.5v-658zM279 95q56 0 91 33v254q-28 11 -65 11q-66 0 -100.5 -40t-34.5 -115q0 -65 26 -104t83 -39z" />
    <glyph glyph-name="r" unicode="r" horiz-adv-x="379" 
d="M364 370h-23q-51 0 -85 -16t-54 -46v-308h-137v487h132v-86q14 43 44.5 67t81.5 24q23 0 41 -5v-117z" />
    <glyph glyph-name="s" unicode="s" horiz-adv-x="433" 
d="M405 152q0 -39 -16 -69.5t-44 -51t-66 -31t-83 -10.5q-38 0 -82.5 8.5t-77.5 22.5l20 97q32 -13 66 -20.5t69 -7.5q34 0 56.5 10t22.5 36q0 23 -22 33.5t-58 25.5q-29 12 -56 24.5t-47.5 30t-33 41t-12.5 58.5q0 38 14.5 66t40 46t60 27t74.5 9q42 0 80.5 -7.5
t74.5 -26.5l-21 -97q-29 13 -60.5 21.5t-63.5 8.5q-29 0 -46.5 -6.5t-17.5 -27.5q0 -20 21 -30t50 -23q21 -9 48.5 -20.5t51.5 -29.5t41 -43.5t17 -63.5z" />
    <glyph glyph-name="t" unicode="t" horiz-adv-x="401" 
d="M15 487h79v126h137v-126h146v-107h-146v-209q0 -34 12.5 -54t49.5 -20q39 0 74 11l10 -97q-22 -9 -55 -15t-66 -6q-44 0 -74.5 13.5t-50 37.5t-28.5 56t-9 70v213h-79v107z" />
    <glyph glyph-name="u" unicode="u" horiz-adv-x="567" 
d="M502 487v-487h-132v66q-26 -39 -62 -57.5t-80 -18.5q-47 0 -80 20t-53.5 53.5t-29.5 78t-9 92.5v253h137v-254q0 -66 18.5 -100t65.5 -34q30 0 52 14t36 33v341h137z" />
    <glyph glyph-name="v" unicode="v" horiz-adv-x="499" 
d="M177 0l-171 487h138l106 -359l105 359h138l-171 -487h-145z" />
    <glyph glyph-name="w" unicode="w" horiz-adv-x="782" 
d="M565 166l79 321h131l-140 -487h-128l-116 343l-116 -343h-128l-140 487h131l79 -321l107 321h134z" />
    <glyph glyph-name="x" unicode="x" horiz-adv-x="512" 
d="M361 0l-105 154l-105 -154h-143l176 246l-171 241h142l101 -148l101 148h142l-171 -241l176 -246h-143z" />
    <glyph glyph-name="y" unicode="y" horiz-adv-x="493" 
d="M118 -206l66 191l-179 502h142l103 -362l99 362h139l-233 -693h-137z" />
    <glyph glyph-name="z" unicode="z" horiz-adv-x="471" 
d="M49 0v99l225 288h-214v100h366v-100l-225 -287h233v-100h-385z" />
    <glyph glyph-name="braceleft" unicode="{" horiz-adv-x="438" 
d="M279 25q0 -52 19.5 -74.5t61.5 -22.5h33v-104h-40q-59 0 -99.5 14t-65 41t-35.5 66.5t-11 91.5v98q0 53 -21 75.5t-81 22.5v94q60 0 81 22.5t21 75.5v98q0 52 11 91.5t35.5 66.5t65 41t99.5 14h40v-104h-33q-42 0 -61.5 -22.5t-19.5 -74.5v-80q0 -70 -24.5 -112
t-85.5 -63q61 -21 85.5 -63t24.5 -112v-80z" />
    <glyph glyph-name="bar" unicode="|" horiz-adv-x="313" 
d="M100 -250v1000h113v-1000h-113z" />
    <glyph glyph-name="braceright" unicode="}" horiz-adv-x="438" 
d="M159 105q0 70 24.5 112t85.5 63q-61 21 -85.5 63t-24.5 112v80q0 52 -19.5 74.5t-61.5 22.5h-33v104h40q59 0 99.5 -14t65 -41t35.5 -66.5t11 -91.5v-98q0 -53 21 -75.5t81 -22.5v-94q-60 0 -81 -22.5t-21 -75.5v-98q0 -52 -11 -91.5t-35.5 -66.5t-65 -41t-99.5 -14h-40
v104h33q42 0 61.5 22.5t19.5 74.5v80z" />
    <glyph glyph-name="asciitilde" unicode="~" horiz-adv-x="598" 
d="M553 392q-12 -35 -25.5 -63.5t-30 -48.5t-37.5 -30.5t-50 -10.5t-60 13t-55 25l-44 22t-37 10q-26 0 -39 -19t-26 -52l-99 39q12 43 26 73t32 48.5t41.5 26.5t55.5 8q29 0 53.5 -10.5t53.5 -25.5q23 -12 43 -23t40 -11q26 0 38.5 21t23.5 50z" />
    <glyph glyph-name="uni00A0" unicode="&#xa0;" horiz-adv-x="200" 
 />
    <glyph glyph-name="exclamdown" unicode="&#xa1;" horiz-adv-x="328" 
d="M236 30v-207h-144v207l32 249h80zM85 417q0 32 20.5 56t58.5 24t58.5 -24t20.5 -56t-20.5 -55.5t-58.5 -23.5t-58.5 23.5t-20.5 55.5z" />
    <glyph glyph-name="cent" unicode="&#xa2;" horiz-adv-x="508" 
d="M353 692v-119q26 -3 53 -9.5t47 -17.5l-19 -98q-52 20 -111 20q-62 0 -96.5 -34.5t-34.5 -100.5t34.5 -100.5t96.5 -34.5q59 0 111 20l19 -98q-20 -11 -47 -17.5t-53 -9.5v-119h-120v125q-85 20 -131.5 81.5t-46.5 152.5t46.5 152.5t131.5 81.5v125h120z" />
    <glyph glyph-name="sterling" unicode="&#xa3;" horiz-adv-x="551" 
d="M446 253h-167q-8 -43 -31.5 -81t-54.5 -63h289v-109h-406l-26 95q37 38 59.5 74.5t33.5 83.5h-92v108h103v83q0 115 55 174.5t159 59.5q87 0 143 -28l-18 -101q-49 20 -102 20q-54 0 -77 -31t-23 -96v-81h155v-108z" />
    <glyph glyph-name="currency" unicode="&#xa4;" horiz-adv-x="645" 
d="M504 452q39 -51 39 -119q0 -67 -39 -120l81 -81l-82 -78l-90 88q-20 -9 -42.5 -13t-47.5 -4q-52 0 -92 17l-88 -88l-83 78l81 81q-39 53 -39 120q0 68 39 119l-81 82l83 78l88 -89q42 18 92 18q51 0 90 -18l90 89l82 -78zM429 333q0 51 -29 84t-77 33q-49 0 -77.5 -33
t-28.5 -84t28.5 -84t77.5 -33q48 0 77 33t29 84z" />
    <glyph glyph-name="yen" unicode="&#xa5;" horiz-adv-x="574" 
d="M356 132v-132h-137v132h-149v95h149v22l-27 60h-122v96h82l-112 261h143l104 -292l104 292h143l-111 -261h81v-96h-122l-26 -60v-22h148v-95h-148z" />
    <glyph glyph-name="brokenbar" unicode="&#xa6;" horiz-adv-x="313" 
d="M213 357h-113v393h113v-393zM100 -250v393h113v-393h-113z" />
    <glyph glyph-name="section" unicode="&#xa7;" horiz-adv-x="621" 
d="M364 716q34 0 69.5 -4t65.5 -16l-12 -77q-21 8 -48.5 12t-53.5 4q-41 0 -67.5 -20t-26.5 -63q0 -20 6.5 -36.5t20 -33t33.5 -34.5t47 -41q31 -27 63 -56.5t57.5 -64t41.5 -74t16 -86.5q0 -63 -27 -113t-72 -85.5t-103.5 -54.5t-120.5 -19q-36 0 -73.5 6.5t-63.5 16.5
l14 77q22 -8 53 -13.5t66 -5.5q48 0 73.5 22.5t25.5 60.5q0 19 -7.5 36t-21 33.5t-32 33.5t-40.5 36q-49 43 -85 79t-60 71t-35.5 71.5t-11.5 80.5q0 61 24 108.5t66 80.5t98 50.5t121 17.5zM222 603q-29 -20 -47.5 -51t-18.5 -83q0 -59 33.5 -105.5t85.5 -94.5
q25 -23 53.5 -48t52.5 -53.5t40 -61t16 -70.5q0 -16 -4 -33.5t-10 -29.5q23 23 40.5 57t17.5 74q0 34 -11.5 63t-30.5 55t-43.5 49.5t-49.5 46.5q-36 31 -63 57t-45.5 51t-28 51.5t-9.5 59.5q0 22 7 39.5t15 26.5z" />
    <glyph glyph-name="dieresis" unicode="&#xa8;" horiz-adv-x="540" 
d="M105 632q0 27 18.5 47.5t49.5 20.5t49.5 -20.5t18.5 -47.5q0 -29 -18.5 -48.5t-49.5 -19.5t-49.5 19.5t-18.5 48.5zM299 632q0 27 18.5 47.5t49.5 20.5t49.5 -20.5t18.5 -47.5q0 -29 -18.5 -48.5t-49.5 -19.5t-49.5 19.5t-18.5 48.5z" />
    <glyph glyph-name="copyright" unicode="&#xa9;" horiz-adv-x="818" 
d="M60 333q0 71 25.5 134t71.5 110t110 74t142 27q77 0 141.5 -27t110.5 -74t71.5 -110t25.5 -134t-25.5 -134t-71.5 -110t-110.5 -74t-141.5 -27q-78 0 -142 27t-110 74t-71.5 110t-25.5 134zM711 333q0 60 -21 115t-60 96.5t-95 66t-126 24.5t-126 -24.5t-95 -66
t-60 -96.5t-21 -115t21 -115t60 -96.5t95 -66t126 -24.5t126 24.5t95 66t60 96.5t21 115zM431 529q27 0 56 -5t49 -15l-11 -70q-37 13 -81 13q-58 0 -88.5 -30.5t-30.5 -88.5t30.5 -88.5t88.5 -30.5q44 0 81 13l11 -70q-20 -10 -49 -15t-56 -5q-48 0 -85.5 15t-63 41.5
t-38.5 62t-13 77.5t13 77.5t38.5 62t63 41.5t85.5 15z" />
    <glyph glyph-name="ordfeminine" unicode="&#xaa;" horiz-adv-x="489" 
d="M70 257h349v-94h-349v94zM288 357q-20 -20 -47.5 -32t-60.5 -12q-46 0 -73.5 26t-27.5 74t30.5 71t81.5 28q24 2 47 3t47 2v10q0 31 -17 45.5t-47 14.5q-28 0 -51 -6t-43 -17l-20 81q50 31 136 31q78 0 117.5 -41t39.5 -115v-199h-112v36zM285 457q-26 -2 -55 -6
q-20 -3 -30 -10.5t-10 -23.5q0 -31 36 -31q16 0 31 5.5t28 14.5v51z" />
    <glyph glyph-name="guillemotleft" unicode="&#xab;" horiz-adv-x="624" 
d="M182 241l121 -144l-87 -69l-176 213l176 213l87 -69zM440 241l121 -144l-87 -69l-176 213l176 213l87 -69z" />
    <glyph glyph-name="logicalnot" unicode="&#xac;" horiz-adv-x="605" 
d="M535 78h-118v194h-352v102h470v-296z" />
    <glyph glyph-name="registered" unicode="&#xae;" horiz-adv-x="556" 
d="M50 457q0 44 16 84t46 70.5t72 48.5t94 18t94 -18t72 -48.5t46 -70.5t16 -84q0 -45 -16 -85t-46 -70.5t-72 -48.5t-94 -18t-94 18t-72 48.5t-46 70.5t-16 85zM90 457q0 -39 13.5 -73.5t38 -60t59 -40t77.5 -14.5t77.5 14.5t59 40t38 60t13.5 73.5t-13.5 73t-38 59.5
t-59 40t-77.5 14.5t-77.5 -14.5t-59 -40t-38 -59.5t-13.5 -73zM369 507q0 -46 -46 -63l69 -87h-67l-59 78h-9v-78h-55v213h87q35 0 57.5 -17t22.5 -46zM314 502q0 12 -9 18.5t-24 6.5h-24v-54h14q20 0 31.5 7.5t11.5 21.5z" />
    <glyph glyph-name="macron" unicode="&#xaf;" horiz-adv-x="511" 
d="M105 681h301v-104h-301v104z" />
    <glyph glyph-name="degree" unicode="&#xb0;" horiz-adv-x="399" 
d="M60 547q0 28 10 52t28.5 41.5t44 27.5t56.5 10t57 -10t44.5 -27.5t28.5 -41.5t10 -52q0 -27 -10 -51t-28.5 -42t-44.5 -28t-57 -10t-56.5 10t-44 28t-28.5 42t-10 51zM140 547q0 -29 15.5 -46.5t43.5 -17.5q29 0 44.5 17.5t15.5 46.5t-15.5 47t-44.5 18q-28 0 -43.5 -18
t-15.5 -47z" />
    <glyph glyph-name="plusminus" unicode="&#xb1;" horiz-adv-x="605" 
d="M361 320v-157h-117v157h-177v101h177v161h117v-161h177v-101h-177zM67 0v100h471v-100h-471z" />
    <glyph glyph-name="twosuperior" unicode="&#xb2;" horiz-adv-x="374" 
d="M47 797q58 34 136 34q33 0 61 -9t48.5 -26.5t32 -42t11.5 -54.5q0 -53 -30 -90t-76 -70q-13 -9 -21.5 -15.5t-18.5 -12.5h149v-91h-294l-20 70q32 26 62.5 51t50.5 42q12 11 26.5 23t26.5 25.5t20 28t8 30.5q0 49 -59 49q-25 0 -48.5 -7.5t-41.5 -17.5z" />
    <glyph glyph-name="threesuperior" unicode="&#xb3;" horiz-adv-x="363" 
d="M328 531q0 -57 -48 -89t-124 -32q-32 0 -66.5 7t-56.5 18l18 80q21 -9 46 -14t47 -5q31 0 49.5 10t18.5 31q0 24 -20.5 33.5t-48.5 9.5h-66v85h55q70 0 70 44q0 19 -15 27.5t-38 8.5q-25 0 -46 -5t-41 -14l-18 79q29 14 61.5 20t67.5 6q31 0 57.5 -7t45.5 -20t30 -32.5
t11 -44.5q0 -35 -19 -60t-57 -38q37 -11 62 -34t25 -64z" />
    <glyph glyph-name="acute" unicode="&#xb4;" horiz-adv-x="434" 
d="M105 558l73 166h151l-111 -166h-113z" />
    <glyph glyph-name="mu" unicode="&#xb5;" horiz-adv-x="609" 
d="M65 487h137v-254q0 -66 19 -100t64 -34q29 0 50.5 13.5t38.5 33.5v341h137v-348q0 -26 9 -39.5t38 -13.5h16v-80q-17 -6 -35 -9.5t-41 -3.5q-51 0 -78 22t-38 59q-23 -37 -59 -60.5t-84 -23.5q-29 0 -52.5 10.5t-38.5 26.5q24 -29 39 -69t15 -85v-79h-137v693z" />
    <glyph glyph-name="paragraph" unicode="&#xb6;" horiz-adv-x="598" 
d="M424 -140v718h-104v-426q-57 0 -106.5 17t-85.5 50t-57 80.5t-21 108.5q0 59 21 106.5t57.5 81.5t85.5 52t105 18h209v-806h-104z" />
    <glyph glyph-name="periodcentered" unicode="&#xb7;" horiz-adv-x="278" 
d="M60 248q0 32 20.5 55.5t58.5 23.5t58.5 -23.5t20.5 -55.5t-20.5 -56t-58.5 -24t-58.5 24t-20.5 56z" />
    <glyph glyph-name="cedilla" unicode="&#xb8;" horiz-adv-x="391" 
d="M286 -117q0 -24 -13.5 -42t-37 -30t-55 -18.5t-66.5 -8.5l-9 67q28 3 49.5 10t21.5 24q0 9 -6.5 15t-16.5 10t-22 5.5t-24 3.5l31 81h71l-14 -41q38 -4 64.5 -22.5t26.5 -53.5z" />
    <glyph glyph-name="onesuperior" unicode="&#xb9;" horiz-adv-x="309" 
d="M132 420v281l-90 -28l-24 92l151 56h80v-401h-117z" />
    <glyph glyph-name="ordmasculine" unicode="&#xba;" horiz-adv-x="508" 
d="M77 257h355v-94h-355v94zM448 494q0 -37 -13 -70t-37.5 -57.5t-61 -39t-82.5 -14.5q-47 0 -83 14.5t-61 39t-37.5 57.5t-12.5 70t12.5 70.5t37.5 58t61 39t83 14.5q46 0 82.5 -14.5t61 -39t37.5 -58t13 -70.5zM334 494q0 44 -21 70.5t-59 26.5q-39 0 -59.5 -26.5
t-20.5 -70.5q0 -43 20.5 -69.5t59.5 -26.5q38 0 59 26.5t21 69.5z" />
    <glyph glyph-name="guillemotright" unicode="&#xbb;" horiz-adv-x="624" 
d="M321 385l87 69l176 -213l-176 -213l-87 69l121 144zM63 385l87 69l176 -213l-176 -213l-87 69l121 144z" />
    <glyph glyph-name="onequarter" unicode="&#xbc;" horiz-adv-x="906" 
d="M159 265v281l-90 -28l-24 92l151 56h80v-401h-117zM566 678l88 -48l-344 -642l-88 48zM805 93v-93h-108v93h-179l-21 75l188 233h120v-226h61v-82h-61zM697 302l-100 -127h100v127z" />
    <glyph glyph-name="onehalf" unicode="&#xbd;" horiz-adv-x="946" 
d="M159 265v281l-90 -28l-24 92l151 56h80v-401h-117zM566 678l88 -48l-344 -642l-88 48zM594 377q58 34 136 34q33 0 61 -9t48.5 -26.5t32 -42t11.5 -54.5q0 -53 -30 -90t-76 -70q-13 -9 -21.5 -15.5t-18.5 -12.5h149v-91h-294l-20 70q32 26 62.5 51t50.5 42q12 11 26.5 23
t26.5 25.5t20 28t8 30.5q0 49 -59 49q-25 0 -48.5 -7.5t-41.5 -17.5z" />
    <glyph glyph-name="threequarters" unicode="&#xbe;" horiz-adv-x="936" 
d="M355 376q0 -57 -48 -89t-124 -32q-32 0 -66.5 7t-56.5 18l18 80q21 -9 46 -14t47 -5q31 0 49.5 10t18.5 31q0 24 -20.5 33.5t-48.5 9.5h-66v85h55q70 0 70 44q0 19 -15 27.5t-38 8.5q-25 0 -46 -5t-41 -14l-18 79q29 14 61.5 20t67.5 6q31 0 57.5 -7t45.5 -20t30 -32.5
t11 -44.5q0 -35 -19 -60t-57 -38q37 -11 62 -34t25 -64zM596 678l88 -48l-344 -642l-88 48zM835 93v-93h-108v93h-179l-21 75l188 233h120v-226h61v-82h-61zM727 302l-100 -127h100v127z" />
    <glyph glyph-name="questiondown" unicode="&#xbf;" horiz-adv-x="474" 
d="M45 -11q0 47 20.5 86.5t55 73.5t79.5 65t94 61l64 -92q-35 -26 -66.5 -48.5t-55.5 -45t-38.5 -45t-14.5 -48.5q0 -36 23 -54.5t61 -18.5q40 0 70.5 10t60.5 27l36 -100q-38 -23 -84 -36t-102 -13q-42 0 -79 11t-64.5 33.5t-43.5 56t-16 77.5zM358 417q0 -32 -20.5 -55.5
t-58.5 -23.5t-58.5 23.5t-20.5 55.5t20.5 56t58.5 24t58.5 -24t20.5 -56z" />
    <glyph glyph-name="Agrave" unicode="&#xc0;" horiz-adv-x="696" 
d="M677 0h-145l-47 140h-274l-47 -140h-145l253 666h152zM348 554l-100 -303h200zM286 726l-123 120h161l75 -120h-113z" />
    <glyph glyph-name="Aacute" unicode="&#xc1;" horiz-adv-x="696" 
d="M677 0h-145l-47 140h-274l-47 -140h-145l253 666h152zM348 554l-100 -303h200zM292 726l75 120h161l-123 -120h-113z" />
    <glyph glyph-name="Acircumflex" unicode="&#xc2;" horiz-adv-x="696" 
d="M677 0h-145l-47 140h-274l-47 -140h-145l253 666h152zM348 554l-100 -303h200zM509 726h-117l-44 58l-44 -58h-117l93 120h136z" />
    <glyph glyph-name="Atilde" unicode="&#xc3;" horiz-adv-x="696" 
d="M677 0h-145l-47 140h-274l-47 -140h-145l253 666h152zM348 554l-100 -303h200zM436 726q-22 0 -44 5.5t-46 14.5q-20 8 -36.5 13.5t-30.5 5.5q-17 0 -25.5 -11t-14.5 -30l-84 30q14 54 38.5 81t76.5 27q24 0 46 -6t43 -14q20 -8 36 -14t28 -6q17 0 25.5 12t17.5 29
l78 -37q-18 -46 -40.5 -73t-67.5 -27z" />
    <glyph glyph-name="Adieresis" unicode="&#xc4;" horiz-adv-x="696" 
d="M677 0h-145l-47 140h-274l-47 -140h-145l253 666h152zM348 554l-100 -303h200zM175 790q0 27 18.5 45.5t49.5 18.5q30 0 48.5 -18.5t18.5 -45.5q0 -29 -18.5 -47t-48.5 -18q-31 0 -49.5 18t-18.5 47zM385 790q0 27 18.5 45.5t49.5 18.5q30 0 48.5 -18.5t18.5 -45.5
q0 -29 -18.5 -47t-48.5 -18q-31 0 -49.5 18t-18.5 47z" />
    <glyph glyph-name="Aring" unicode="&#xc5;" horiz-adv-x="696" 
d="M448 723q0 -33 -23 -59l252 -664h-145l-47 140h-274l-47 -140h-145l252 664q-22 27 -22 59q0 17 6.5 33.5t19 29t31 20.5t42.5 8t43 -8t31.5 -20.5t19 -29t6.5 -33.5zM348 554l-100 -303h200zM309 723q0 -17 9.5 -29.5t29.5 -12.5t30 12.5t10 29.5t-10 29t-30 12
t-29.5 -12t-9.5 -29z" />
    <glyph glyph-name="AE" unicode="&#xc6;" horiz-adv-x="897" 
d="M842 555h-298l20 -161h262v-111h-248l23 -172h244v-111h-358l-18 140h-252l-77 -140h-145l386 666h461v-111zM281 251h174l-31 281z" />
    <glyph glyph-name="Ccedilla" unicode="&#xc7;" horiz-adv-x="621" 
d="M483 -117q0 -24 -13.5 -42t-37 -30t-55 -18.5t-66.5 -8.5l-9 67q28 3 49.5 10t21.5 24q0 9 -6.5 15t-16.5 10t-22 5.5t-24 3.5l28 73q-72 9 -127 37.5t-92 73.5t-56 103.5t-19 126.5q0 75 23 138t68 109t111 72t152 26q25 0 51 -2.5t50.5 -7t47 -11t40.5 -15.5l-20 -103
q-32 12 -71 19.5t-77 7.5q-114 0 -174.5 -59t-60.5 -174t60.5 -174t174.5 -59q38 0 77 7.5t71 19.5l20 -103q-34 -17 -82.5 -26t-96.5 -10l-10 -29q38 -4 64.5 -22.5t26.5 -53.5z" />
    <glyph glyph-name="Egrave" unicode="&#xc8;" horiz-adv-x="525" 
d="M70 666h400v-111h-260v-161h248v-111h-248v-172h263v-111h-403v666zM238 726l-123 120h161l75 -120h-113z" />
    <glyph glyph-name="Eacute" unicode="&#xc9;" horiz-adv-x="525" 
d="M70 666h400v-111h-260v-161h248v-111h-248v-172h263v-111h-403v666zM188 726l75 120h161l-123 -120h-113z" />
    <glyph glyph-name="Ecircumflex" unicode="&#xca;" horiz-adv-x="525" 
d="M70 666h400v-111h-260v-161h248v-111h-248v-172h263v-111h-403v666zM432 726h-117l-44 58l-44 -58h-117l93 120h136z" />
    <glyph glyph-name="Edieresis" unicode="&#xcb;" horiz-adv-x="525" 
d="M70 666h400v-111h-260v-161h248v-111h-248v-172h263v-111h-403v666zM98 790q0 27 18.5 45.5t49.5 18.5q30 0 48.5 -18.5t18.5 -45.5q0 -29 -18.5 -47t-48.5 -18q-31 0 -49.5 18t-18.5 47zM308 790q0 27 18.5 45.5t49.5 18.5q30 0 48.5 -18.5t18.5 -45.5q0 -29 -18.5 -47
t-48.5 -18q-31 0 -49.5 18t-18.5 47z" />
    <glyph glyph-name="Igrave" unicode="&#xcc;" horiz-adv-x="290" 
d="M215 0h-140v666h140v-666zM91 726l-123 120h161l75 -120h-113z" />
    <glyph glyph-name="Iacute" unicode="&#xcd;" horiz-adv-x="290" 
d="M215 0h-140v666h140v-666zM87 726l75 120h161l-123 -120h-113z" />
    <glyph glyph-name="Icircumflex" unicode="&#xce;" horiz-adv-x="290" 
d="M215 0h-140v666h140v-666zM306 726h-117l-44 58l-44 -58h-117l93 120h136z" />
    <glyph glyph-name="Idieresis" unicode="&#xcf;" horiz-adv-x="290" 
d="M215 0h-140v666h140v-666zM-27 790q0 27 18.5 45.5t49.5 18.5q30 0 48.5 -18.5t18.5 -45.5q0 -29 -18.5 -47t-48.5 -18q-31 0 -49.5 18t-18.5 47zM183 790q0 27 18.5 45.5t49.5 18.5q30 0 48.5 -18.5t18.5 -45.5q0 -29 -18.5 -47t-48.5 -18q-31 0 -49.5 18t-18.5 47z" />
    <glyph glyph-name="Eth" unicode="&#xd0;" horiz-adv-x="731" 
d="M35 388h76v278h201q88 0 159.5 -25t122 -69.5t78 -105.5t27.5 -133t-27.5 -133t-78 -105.5t-122 -69.5t-159.5 -25h-201v278h-76v110zM315 112q53 0 98 15t77.5 43.5t50.5 69.5t18 93t-18 93t-50.5 69.5t-77.5 43.5t-98 15h-64v-166h165v-110h-165v-166h64z" />
    <glyph glyph-name="Ntilde" unicode="&#xd1;" horiz-adv-x="719" 
d="M515 0l-311 436v-436h-134v666h134l311 -436v436h134v-666h-134zM447 726q-22 0 -44 5.5t-46 14.5q-20 8 -36.5 13.5t-30.5 5.5q-17 0 -25.5 -11t-14.5 -30l-84 30q14 54 38.5 81t76.5 27q24 0 46 -6t43 -14q20 -8 36 -14t28 -6q17 0 25.5 12t17.5 29l78 -37
q-18 -46 -40.5 -73t-67.5 -27z" />
    <glyph glyph-name="Ograve" unicode="&#xd2;" horiz-adv-x="746" 
d="M708 333q0 -71 -22.5 -133.5t-65 -109.5t-105 -74.5t-142.5 -27.5t-142.5 27.5t-105.5 74.5t-65 109.5t-22 133.5q0 70 22 133t65 110t105.5 74.5t142.5 27.5t142.5 -27.5t105 -74.5t65 -110t22.5 -133zM373 98q49 0 85.5 18t61 49.5t36.5 74.5t12 93t-12 93t-36.5 74.5
t-61 49.5t-85.5 18t-85.5 -18t-61 -49.5t-36.5 -74.5t-12 -93t12 -93t36.5 -74.5t61 -49.5t85.5 -18zM322 726l-123 120h161l75 -120h-113z" />
    <glyph glyph-name="Oacute" unicode="&#xd3;" horiz-adv-x="746" 
d="M708 333q0 -71 -22.5 -133.5t-65 -109.5t-105 -74.5t-142.5 -27.5t-142.5 27.5t-105.5 74.5t-65 109.5t-22 133.5q0 70 22 133t65 110t105.5 74.5t142.5 27.5t142.5 -27.5t105 -74.5t65 -110t22.5 -133zM373 98q49 0 85.5 18t61 49.5t36.5 74.5t12 93t-12 93t-36.5 74.5
t-61 49.5t-85.5 18t-85.5 -18t-61 -49.5t-36.5 -74.5t-12 -93t12 -93t36.5 -74.5t61 -49.5t85.5 -18zM310 726l75 120h161l-123 -120h-113z" />
    <glyph glyph-name="Ocircumflex" unicode="&#xd4;" horiz-adv-x="746" 
d="M708 333q0 -71 -22.5 -133.5t-65 -109.5t-105 -74.5t-142.5 -27.5t-142.5 27.5t-105.5 74.5t-65 109.5t-22 133.5q0 70 22 133t65 110t105.5 74.5t142.5 27.5t142.5 -27.5t105 -74.5t65 -110t22.5 -133zM373 98q49 0 85.5 18t61 49.5t36.5 74.5t12 93t-12 93t-36.5 74.5
t-61 49.5t-85.5 18t-85.5 -18t-61 -49.5t-36.5 -74.5t-12 -93t12 -93t36.5 -74.5t61 -49.5t85.5 -18zM534 726h-117l-44 58l-44 -58h-117l93 120h136z" />
    <glyph glyph-name="Otilde" unicode="&#xd5;" horiz-adv-x="746" 
d="M708 333q0 -71 -22.5 -133.5t-65 -109.5t-105 -74.5t-142.5 -27.5t-142.5 27.5t-105.5 74.5t-65 109.5t-22 133.5q0 70 22 133t65 110t105.5 74.5t142.5 27.5t142.5 -27.5t105 -74.5t65 -110t22.5 -133zM373 98q49 0 85.5 18t61 49.5t36.5 74.5t12 93t-12 93t-36.5 74.5
t-61 49.5t-85.5 18t-85.5 -18t-61 -49.5t-36.5 -74.5t-12 -93t12 -93t36.5 -74.5t61 -49.5t85.5 -18zM465 726q-22 0 -44 5.5t-46 14.5q-20 8 -36.5 13.5t-30.5 5.5q-17 0 -25.5 -11t-14.5 -30l-84 30q14 54 38.5 81t76.5 27q24 0 46 -6t43 -14q20 -8 36 -14t28 -6
q17 0 25.5 12t17.5 29l78 -37q-18 -46 -40.5 -73t-67.5 -27z" />
    <glyph glyph-name="Odieresis" unicode="&#xd6;" horiz-adv-x="746" 
d="M708 333q0 -71 -22.5 -133.5t-65 -109.5t-105 -74.5t-142.5 -27.5t-142.5 27.5t-105.5 74.5t-65 109.5t-22 133.5q0 70 22 133t65 110t105.5 74.5t142.5 27.5t142.5 -27.5t105 -74.5t65 -110t22.5 -133zM373 98q49 0 85.5 18t61 49.5t36.5 74.5t12 93t-12 93t-36.5 74.5
t-61 49.5t-85.5 18t-85.5 -18t-61 -49.5t-36.5 -74.5t-12 -93t12 -93t36.5 -74.5t61 -49.5t85.5 -18zM200 790q0 27 18.5 45.5t49.5 18.5q30 0 48.5 -18.5t18.5 -45.5q0 -29 -18.5 -47t-48.5 -18q-31 0 -49.5 18t-18.5 47zM410 790q0 27 18.5 45.5t49.5 18.5
q30 0 48.5 -18.5t18.5 -45.5q0 -29 -18.5 -47t-48.5 -18q-31 0 -49.5 18t-18.5 47z" />
    <glyph glyph-name="multiply" unicode="&#xd7;" horiz-adv-x="603" 
d="M302 399l155 156l76 -77l-155 -155l155 -155l-76 -77l-155 156l-156 -156l-76 77l155 155l-155 155l76 77z" />
    <glyph glyph-name="Oslash" unicode="&#xd8;" horiz-adv-x="752" 
d="M126 92q-42 48 -63.5 109.5t-21.5 131.5t22 133t65 110t105.5 74.5t142.5 27.5q56 0 103 -14t85 -38l85 104l62 -52l-86 -105q42 -47 64 -108.5t22 -131.5q0 -71 -22.5 -133.5t-65 -109.5t-105 -74.5t-142.5 -27.5q-56 0 -103 13.5t-85 37.5l-84 -103l-63 52zM376 97
q49 0 85.5 18t61 49.5t36.5 75t12 93.5q0 79 -30 138l-278 -340q46 -34 113 -34zM181 333q0 -39 7 -74t22 -64l278 339q-22 17 -50 26t-62 9q-49 0 -85.5 -18t-61 -49.5t-36.5 -75t-12 -93.5z" />
    <glyph glyph-name="Ugrave" unicode="&#xd9;" horiz-adv-x="686" 
d="M478 666h140v-426q0 -57 -19 -103.5t-54 -79.5t-86.5 -51t-115.5 -18q-65 0 -116 18t-86 51t-54 79.5t-19 103.5v426h140v-432q0 -63 34 -98.5t101 -35.5t101 35.5t34 98.5v432zM312 726l-123 120h161l75 -120h-113z" />
    <glyph glyph-name="Uacute" unicode="&#xda;" horiz-adv-x="686" 
d="M478 666h140v-426q0 -57 -19 -103.5t-54 -79.5t-86.5 -51t-115.5 -18q-65 0 -116 18t-86 51t-54 79.5t-19 103.5v426h140v-432q0 -63 34 -98.5t101 -35.5t101 35.5t34 98.5v432zM267 726l75 120h161l-123 -120h-113z" />
    <glyph glyph-name="Ucircumflex" unicode="&#xdb;" horiz-adv-x="686" 
d="M478 666h140v-426q0 -57 -19 -103.5t-54 -79.5t-86.5 -51t-115.5 -18q-65 0 -116 18t-86 51t-54 79.5t-19 103.5v426h140v-432q0 -63 34 -98.5t101 -35.5t101 35.5t34 98.5v432zM504 726h-117l-44 58l-44 -58h-117l93 120h136z" />
    <glyph glyph-name="Udieresis" unicode="&#xdc;" horiz-adv-x="686" 
d="M478 666h140v-426q0 -57 -19 -103.5t-54 -79.5t-86.5 -51t-115.5 -18q-65 0 -116 18t-86 51t-54 79.5t-19 103.5v426h140v-432q0 -63 34 -98.5t101 -35.5t101 35.5t34 98.5v432zM170 790q0 27 18.5 45.5t49.5 18.5q30 0 48.5 -18.5t18.5 -45.5q0 -29 -18.5 -47t-48.5 -18
q-31 0 -49.5 18t-18.5 47zM380 790q0 27 18.5 45.5t49.5 18.5q30 0 48.5 -18.5t18.5 -45.5q0 -29 -18.5 -47t-48.5 -18q-31 0 -49.5 18t-18.5 47z" />
    <glyph glyph-name="Yacute" unicode="&#xdd;" horiz-adv-x="580" 
d="M427 666h153l-220 -417v-249h-140v249l-220 417h153l137 -293zM226 726l75 120h161l-123 -120h-113z" />
    <glyph glyph-name="Thorn" unicode="&#xde;" horiz-adv-x="556" 
d="M534 339q0 -55 -23 -96t-63 -68.5t-94.5 -41t-116.5 -13.5h-27v-120h-140v666h140v-117h42q60 0 111.5 -12.5t89.5 -38.5t59.5 -65.5t21.5 -93.5zM394 339q0 52 -38.5 76.5t-104.5 24.5h-41v-211h34q70 0 110 27t40 83z" />
    <glyph glyph-name="germandbls" unicode="&#xdf;" horiz-adv-x="622" 
d="M65 0v475q0 61 18.5 106t51.5 75t78.5 45t99.5 15q45 0 82.5 -11.5t64.5 -32.5t42 -50.5t15 -65.5q0 -42 -17.5 -69.5t-35.5 -50.5t-33.5 -40.5t-15.5 -37.5t18 -31.5t46 -28.5q20 -12 41 -25.5t38 -31t28 -41t11 -55.5q0 -34 -13.5 -62.5t-38 -49t-59 -32t-76.5 -11.5
q-37 0 -73 6.5t-57 14.5l18 96q20 -8 45.5 -12.5t51.5 -4.5q32 0 50 13t18 35q0 13 -5.5 22t-16 17t-25 16t-31.5 17q-57 31 -82 62.5t-25 78.5q0 35 16 61.5t39 52.5q17 20 32.5 40t15.5 43q0 29 -21.5 45t-54.5 16q-103 0 -103 -135v-474h-137z" />
    <glyph glyph-name="agrave" unicode="&#xe0;" horiz-adv-x="525" 
d="M333 52q-27 -26 -65 -44t-88 -18q-32 0 -58 10.5t-44 29t-28 43.5t-10 55q0 67 45 102t123 40q30 2 62 3t58 2v17q0 47 -23 71.5t-72 24.5q-38 0 -72 -9t-60 -23l-27 96q38 22 84 33.5t99 11.5q97 0 152.5 -53t55.5 -157v-287h-132v52zM230 83q29 0 54 10t44 25v77
q-21 -2 -45 -4t-44 -5q-30 -5 -48 -16.5t-18 -38.5q0 -24 15.5 -36t41.5 -12zM213 558l-111 166h151l73 -166h-113z" />
    <glyph glyph-name="aacute" unicode="&#xe1;" horiz-adv-x="525" 
d="M333 52q-27 -26 -65 -44t-88 -18q-32 0 -58 10.5t-44 29t-28 43.5t-10 55q0 67 45 102t123 40q30 2 62 3t58 2v17q0 47 -23 71.5t-72 24.5q-38 0 -72 -9t-60 -23l-27 96q38 22 84 33.5t99 11.5q97 0 152.5 -53t55.5 -157v-287h-132v52zM230 83q29 0 54 10t44 25v77
q-21 -2 -45 -4t-44 -5q-30 -5 -48 -16.5t-18 -38.5q0 -24 15.5 -36t41.5 -12zM190 558l73 166h151l-111 -166h-113z" />
    <glyph glyph-name="acircumflex" unicode="&#xe2;" horiz-adv-x="525" 
d="M333 52q-27 -26 -65 -44t-88 -18q-32 0 -58 10.5t-44 29t-28 43.5t-10 55q0 67 45 102t123 40q30 2 62 3t58 2v17q0 47 -23 71.5t-72 24.5q-38 0 -72 -9t-60 -23l-27 96q38 22 84 33.5t99 11.5q97 0 152.5 -53t55.5 -157v-287h-132v52zM230 83q29 0 54 10t44 25v77
q-21 -2 -45 -4t-44 -5q-30 -5 -48 -16.5t-18 -38.5q0 -24 15.5 -36t41.5 -12zM437 558h-115l-55 93l-55 -93h-115l108 166h124z" />
    <glyph glyph-name="atilde" unicode="&#xe3;" horiz-adv-x="525" 
d="M333 52q-27 -26 -65 -44t-88 -18q-32 0 -58 10.5t-44 29t-28 43.5t-10 55q0 67 45 102t123 40q30 2 62 3t58 2v17q0 47 -23 71.5t-72 24.5q-38 0 -72 -9t-60 -23l-27 96q38 22 84 33.5t99 11.5q97 0 152.5 -53t55.5 -157v-287h-132v52zM230 83q29 0 54 10t44 25v77
q-21 -2 -45 -4t-44 -5q-30 -5 -48 -16.5t-18 -38.5q0 -24 15.5 -36t41.5 -12zM344 565q-21 0 -42 8.5t-41 16.5q-17 8 -31 14t-26 6q-18 0 -26.5 -12.5t-19.5 -34.5l-77 36q19 59 45 85t75 26q23 0 40.5 -7.5t37.5 -16.5q18 -8 32 -14.5t25 -6.5q18 0 27 12t20 33l76 -38
q-14 -30 -26 -50.5t-25 -33t-28 -18t-36 -5.5z" />
    <glyph glyph-name="adieresis" unicode="&#xe4;" horiz-adv-x="525" 
d="M333 52q-27 -26 -65 -44t-88 -18q-32 0 -58 10.5t-44 29t-28 43.5t-10 55q0 67 45 102t123 40q30 2 62 3t58 2v17q0 47 -23 71.5t-72 24.5q-38 0 -72 -9t-60 -23l-27 96q38 22 84 33.5t99 11.5q97 0 152.5 -53t55.5 -157v-287h-132v52zM230 83q29 0 54 10t44 25v77
q-21 -2 -45 -4t-44 -5q-30 -5 -48 -16.5t-18 -38.5q0 -24 15.5 -36t41.5 -12zM105 632q0 27 18.5 47.5t49.5 20.5t49.5 -20.5t18.5 -47.5q0 -29 -18.5 -48.5t-49.5 -19.5t-49.5 19.5t-18.5 48.5zM299 632q0 27 18.5 47.5t49.5 20.5t49.5 -20.5t18.5 -47.5q0 -29 -18.5 -48.5
t-49.5 -19.5t-49.5 19.5t-18.5 48.5z" />
    <glyph glyph-name="aring" unicode="&#xe5;" horiz-adv-x="525" 
d="M333 52q-27 -26 -65 -44t-88 -18q-32 0 -58 10.5t-44 29t-28 43.5t-10 55q0 67 45 102t123 40q30 2 62 3t58 2v17q0 47 -23 71.5t-72 24.5q-38 0 -72 -9t-60 -23l-27 96q38 22 84 33.5t99 11.5q97 0 152.5 -53t55.5 -157v-287h-132v52zM230 83q29 0 54 10t44 25v77
q-21 -2 -45 -4t-44 -5q-30 -5 -48 -16.5t-18 -38.5q0 -24 15.5 -36t41.5 -12zM361 645q0 -17 -6.5 -33t-19 -29t-31.5 -20.5t-43 -7.5t-42.5 7.5t-31 20.5t-19 29t-6.5 33t6.5 33.5t19 29t31 20.5t42.5 8t43 -8t31.5 -20.5t19 -29t6.5 -33.5zM222 645q0 -17 10 -28.5
t29 -11.5t29.5 11.5t10.5 28.5t-10.5 29t-29.5 12t-29 -12t-10 -29z" />
    <glyph glyph-name="ae" unicode="&#xe6;" horiz-adv-x="806" 
d="M572 497q49 0 86.5 -15.5t62.5 -43.5t37.5 -66.5t12.5 -84.5q0 -19 -3 -40.5t-7 -37.5h-289q1 -54 33.5 -86t98.5 -32q37 0 72 6.5t70 22.5l17 -93q-38 -20 -81.5 -28.5t-94.5 -8.5q-63 0 -111.5 19t-80.5 54q-42 -34 -91 -53.5t-109 -19.5q-38 0 -66.5 10.5t-48.5 29
t-30 44t-10 54.5q0 69 43 103t121 41q33 3 65.5 5t61.5 4v13q0 45 -23 71t-74 26q-41 0 -74.5 -9t-65.5 -24l-26 96q32 19 76.5 31t101.5 12q51 0 91 -16t70 -54q58 70 165 70zM564 405q-39 0 -64 -28.5t-27 -75.5h167q7 45 -12 74.5t-64 29.5zM353 124q-15 35 -19 72
q-23 -2 -50 -5t-50 -6q-29 -5 -46 -16t-17 -37q0 -24 16 -36.5t43 -12.5q33 0 65 11t58 30z" />
    <glyph glyph-name="ccedilla" unicode="&#xe7;" horiz-adv-x="456" 
d="M386 -117q0 -24 -13.5 -42t-37 -30t-55 -18.5t-66.5 -8.5l-9 67q28 3 49.5 10t21.5 24q0 9 -6.5 15t-16.5 10t-22 5.5t-24 3.5l28 75q-50 8 -88 30t-64 55t-39 75t-13 90q0 54 16.5 100.5t49 80t80.5 53t111 19.5q36 0 74.5 -7.5t64.5 -21.5l-15 -98q-47 21 -104 21
q-72 0 -106 -39.5t-34 -107.5t34 -108t106 -40q57 0 104 21l15 -98q-23 -12 -56 -19t-66 -9l-10 -32q38 -4 64.5 -22.5t26.5 -53.5z" />
    <glyph glyph-name="egrave" unicode="&#xe8;" horiz-adv-x="507" 
d="M273 497q48 0 85.5 -15t62.5 -42.5t38 -66t13 -86.5q0 -20 -2.5 -40.5t-7.5 -37.5h-289q2 -54 33 -86t99 -32q39 0 76 7.5t66 21.5l17 -93q-36 -18 -82 -27.5t-95 -9.5q-61 0 -108 18t-79.5 51t-49.5 79.5t-17 102.5q0 57 16.5 104.5t47.5 81t75.5 52t100.5 18.5z
M265 405q-42 0 -64.5 -29.5t-26.5 -74.5h167q5 47 -14 75.5t-62 28.5zM209 558l-111 166h151l73 -166h-113z" />
    <glyph glyph-name="eacute" unicode="&#xe9;" horiz-adv-x="507" 
d="M273 497q48 0 85.5 -15t62.5 -42.5t38 -66t13 -86.5q0 -20 -2.5 -40.5t-7.5 -37.5h-289q2 -54 33 -86t99 -32q39 0 76 7.5t66 21.5l17 -93q-36 -18 -82 -27.5t-95 -9.5q-61 0 -108 18t-79.5 51t-49.5 79.5t-17 102.5q0 57 16.5 104.5t47.5 81t75.5 52t100.5 18.5z
M265 405q-42 0 -64.5 -29.5t-26.5 -74.5h167q5 47 -14 75.5t-62 28.5zM198 558l73 166h151l-111 -166h-113z" />
    <glyph glyph-name="ecircumflex" unicode="&#xea;" horiz-adv-x="507" 
d="M273 497q48 0 85.5 -15t62.5 -42.5t38 -66t13 -86.5q0 -20 -2.5 -40.5t-7.5 -37.5h-289q2 -54 33 -86t99 -32q39 0 76 7.5t66 21.5l17 -93q-36 -18 -82 -27.5t-95 -9.5q-61 0 -108 18t-79.5 51t-49.5 79.5t-17 102.5q0 57 16.5 104.5t47.5 81t75.5 52t100.5 18.5z
M265 405q-42 0 -64.5 -29.5t-26.5 -74.5h167q5 47 -14 75.5t-62 28.5zM433 558h-115l-55 93l-55 -93h-115l108 166h124z" />
    <glyph glyph-name="edieresis" unicode="&#xeb;" horiz-adv-x="507" 
d="M273 497q48 0 85.5 -15t62.5 -42.5t38 -66t13 -86.5q0 -20 -2.5 -40.5t-7.5 -37.5h-289q2 -54 33 -86t99 -32q39 0 76 7.5t66 21.5l17 -93q-36 -18 -82 -27.5t-95 -9.5q-61 0 -108 18t-79.5 51t-49.5 79.5t-17 102.5q0 57 16.5 104.5t47.5 81t75.5 52t100.5 18.5z
M265 405q-42 0 -64.5 -29.5t-26.5 -74.5h167q5 47 -14 75.5t-62 28.5zM100 632q0 27 18.5 47.5t49.5 20.5t49.5 -20.5t18.5 -47.5q0 -29 -18.5 -48.5t-49.5 -19.5t-49.5 19.5t-18.5 48.5zM294 632q0 27 18.5 47.5t49.5 20.5t49.5 -20.5t18.5 -47.5q0 -29 -18.5 -48.5
t-49.5 -19.5t-49.5 19.5t-18.5 48.5z" />
    <glyph glyph-name="igrave" unicode="&#xec;" horiz-adv-x="267" 
d="M65 0v487h137v-487h-137zM77 558l-111 166h151l73 -166h-113z" />
    <glyph glyph-name="iacute" unicode="&#xed;" horiz-adv-x="267" 
d="M65 0v487h137v-487h-137zM83 558l73 166h151l-111 -166h-113z" />
    <glyph glyph-name="icircumflex" unicode="&#xee;" horiz-adv-x="267" 
d="M65 0v487h137v-487h-137zM304 558h-115l-55 93l-55 -93h-115l108 166h124z" />
    <glyph glyph-name="idieresis" unicode="&#xef;" horiz-adv-x="267" 
d="M65 0v487h137v-487h-137zM-31 632q0 27 18.5 47.5t49.5 20.5t49.5 -20.5t18.5 -47.5q0 -29 -18.5 -48.5t-49.5 -19.5t-49.5 19.5t-18.5 48.5zM163 632q0 27 18.5 47.5t49.5 20.5t49.5 -20.5t18.5 -47.5q0 -29 -18.5 -48.5t-49.5 -19.5t-49.5 19.5t-18.5 48.5z" />
    <glyph glyph-name="eth" unicode="&#xf0;" horiz-adv-x="561" 
d="M162 536l56 46q-55 20 -123 29l25 105q51 -6 100.5 -18.5t95.5 -34.5l75 62l39 -47l-58 -48q74 -50 116.5 -131.5t42.5 -192.5q0 -65 -16 -122.5t-48.5 -100.5t-80.5 -68t-112 -25q-58 0 -103 19t-75.5 51.5t-46.5 76t-16 92.5q0 58 17.5 101t47.5 72t70 43.5t84 14.5
q41 0 75.5 -8t61.5 -26q-16 44 -44 73.5t-66 52.5l-76 -62zM168 226q0 -29 6 -53t19 -41.5t33.5 -27.5t49.5 -10q35 0 58 16t36.5 41t18.5 55.5t5 59.5v63q-19 11 -44.5 20.5t-57.5 9.5q-62 0 -93 -34t-31 -99z" />
    <glyph glyph-name="ntilde" unicode="&#xf1;" horiz-adv-x="575" 
d="M65 0v487h132v-66q24 39 61 57.5t81 18.5q47 0 80.5 -20t54.5 -53.5t31 -78t10 -92.5v-253h-137v254q0 66 -20.5 100t-67.5 34q-30 0 -52 -14t-36 -33v-341h-137zM368 565q-21 0 -42 8.5t-41 16.5q-17 8 -31 14t-26 6q-18 0 -26.5 -12.5t-19.5 -34.5l-77 36q19 59 45 85
t75 26q23 0 40.5 -7.5t37.5 -16.5q18 -8 32 -14.5t25 -6.5q18 0 27 12t20 33l76 -38q-14 -30 -26 -50.5t-25 -33t-28 -18t-36 -5.5z" />
    <glyph glyph-name="ograve" unicode="&#xf2;" horiz-adv-x="568" 
d="M535 243q0 -53 -16.5 -99t-48.5 -80.5t-78.5 -54t-107.5 -19.5t-107.5 19.5t-78.5 54t-48.5 80.5t-16.5 99t16.5 99t48.5 80.5t78.5 54.5t107.5 20t107.5 -20t78.5 -54.5t48.5 -80.5t16.5 -99zM398 243q0 30 -6 57.5t-19.5 48.5t-35.5 33.5t-53 12.5q-32 0 -53.5 -12.5
t-35 -33.5t-19.5 -48.5t-6 -57.5t6 -57t19.5 -48t35 -33.5t53.5 -12.5q31 0 53 12.5t35.5 33.5t19.5 48t6 57zM227 558l-111 166h151l73 -166h-113z" />
    <glyph glyph-name="oacute" unicode="&#xf3;" horiz-adv-x="568" 
d="M535 243q0 -53 -16.5 -99t-48.5 -80.5t-78.5 -54t-107.5 -19.5t-107.5 19.5t-78.5 54t-48.5 80.5t-16.5 99t16.5 99t48.5 80.5t78.5 54.5t107.5 20t107.5 -20t78.5 -54.5t48.5 -80.5t16.5 -99zM398 243q0 30 -6 57.5t-19.5 48.5t-35.5 33.5t-53 12.5q-32 0 -53.5 -12.5
t-35 -33.5t-19.5 -48.5t-6 -57.5t6 -57t19.5 -48t35 -33.5t53.5 -12.5q31 0 53 12.5t35.5 33.5t19.5 48t6 57zM221 558l73 166h151l-111 -166h-113z" />
    <glyph glyph-name="ocircumflex" unicode="&#xf4;" horiz-adv-x="568" 
d="M535 243q0 -53 -16.5 -99t-48.5 -80.5t-78.5 -54t-107.5 -19.5t-107.5 19.5t-78.5 54t-48.5 80.5t-16.5 99t16.5 99t48.5 80.5t78.5 54.5t107.5 20t107.5 -20t78.5 -54.5t48.5 -80.5t16.5 -99zM398 243q0 30 -6 57.5t-19.5 48.5t-35.5 33.5t-53 12.5q-32 0 -53.5 -12.5
t-35 -33.5t-19.5 -48.5t-6 -57.5t6 -57t19.5 -48t35 -33.5t53.5 -12.5q31 0 53 12.5t35.5 33.5t19.5 48t6 57zM454 558h-115l-55 93l-55 -93h-115l108 166h124z" />
    <glyph glyph-name="otilde" unicode="&#xf5;" horiz-adv-x="568" 
d="M535 243q0 -53 -16.5 -99t-48.5 -80.5t-78.5 -54t-107.5 -19.5t-107.5 19.5t-78.5 54t-48.5 80.5t-16.5 99t16.5 99t48.5 80.5t78.5 54.5t107.5 20t107.5 -20t78.5 -54.5t48.5 -80.5t16.5 -99zM398 243q0 30 -6 57.5t-19.5 48.5t-35.5 33.5t-53 12.5q-32 0 -53.5 -12.5
t-35 -33.5t-19.5 -48.5t-6 -57.5t6 -57t19.5 -48t35 -33.5t53.5 -12.5q31 0 53 12.5t35.5 33.5t19.5 48t6 57zM363 565q-21 0 -42 8.5t-41 16.5q-17 8 -31 14t-26 6q-18 0 -26.5 -12.5t-19.5 -34.5l-77 36q19 59 45 85t75 26q23 0 40.5 -7.5t37.5 -16.5q18 -8 32 -14.5
t25 -6.5q18 0 27 12t20 33l76 -38q-14 -30 -26 -50.5t-25 -33t-28 -18t-36 -5.5z" />
    <glyph glyph-name="odieresis" unicode="&#xf6;" horiz-adv-x="568" 
d="M535 243q0 -53 -16.5 -99t-48.5 -80.5t-78.5 -54t-107.5 -19.5t-107.5 19.5t-78.5 54t-48.5 80.5t-16.5 99t16.5 99t48.5 80.5t78.5 54.5t107.5 20t107.5 -20t78.5 -54.5t48.5 -80.5t16.5 -99zM398 243q0 30 -6 57.5t-19.5 48.5t-35.5 33.5t-53 12.5q-32 0 -53.5 -12.5
t-35 -33.5t-19.5 -48.5t-6 -57.5t6 -57t19.5 -48t35 -33.5t53.5 -12.5q31 0 53 12.5t35.5 33.5t19.5 48t6 57zM119 632q0 27 18.5 47.5t49.5 20.5t49.5 -20.5t18.5 -47.5q0 -29 -18.5 -48.5t-49.5 -19.5t-49.5 19.5t-18.5 48.5zM313 632q0 27 18.5 47.5t49.5 20.5
t49.5 -20.5t18.5 -47.5q0 -29 -18.5 -48.5t-49.5 -19.5t-49.5 19.5t-18.5 48.5z" />
    <glyph glyph-name="divide" unicode="&#xf7;" horiz-adv-x="600" 
d="M65 272v102h470v-102h-470zM374 516q0 -32 -21 -52.5t-53 -20.5t-53.5 20.5t-21.5 52.5t21.5 53t53.5 21t53 -21t21 -53zM374 129q0 -32 -21 -52.5t-53 -20.5t-53.5 20.5t-21.5 52.5t21.5 53t53.5 21t53 -21t21 -53z" />
    <glyph glyph-name="oslash" unicode="&#xf8;" horiz-adv-x="572" 
d="M103 60q-34 35 -51 82t-17 101q0 53 16.5 99t48.5 80.5t78.5 54.5t107.5 20q40 0 74 -9t62 -25l68 86l47 -38l-68 -85q34 -35 51 -82t17 -101q0 -53 -16.5 -99t-48.5 -80.5t-78.5 -54t-107.5 -19.5q-41 0 -74.5 8.5t-61.5 24.5l-68 -85l-47 37zM172 243q0 -22 2.5 -42
t9.5 -38l167 211q-26 21 -65 21q-32 0 -53.5 -12.5t-35 -33.5t-19.5 -48.5t-6 -57.5zM400 243q0 21 -3 41.5t-10 38.5l-167 -211q26 -20 66 -20q31 0 53 12.5t35.5 33.5t19.5 48t6 57z" />
    <glyph glyph-name="ugrave" unicode="&#xf9;" horiz-adv-x="567" 
d="M502 487v-487h-132v66q-26 -39 -62 -57.5t-80 -18.5q-47 0 -80 20t-53.5 53.5t-29.5 78t-9 92.5v253h137v-254q0 -66 18.5 -100t65.5 -34q30 0 52 14t36 33v341h137zM251 558l-111 166h151l73 -166h-113z" />
    <glyph glyph-name="uacute" unicode="&#xfa;" horiz-adv-x="567" 
d="M502 487v-487h-132v66q-26 -39 -62 -57.5t-80 -18.5q-47 0 -80 20t-53.5 53.5t-29.5 78t-9 92.5v253h137v-254q0 -66 18.5 -100t65.5 -34q30 0 52 14t36 33v341h137zM209 558l73 166h151l-111 -166h-113z" />
    <glyph glyph-name="ucircumflex" unicode="&#xfb;" horiz-adv-x="567" 
d="M502 487v-487h-132v66q-26 -39 -62 -57.5t-80 -18.5q-47 0 -80 20t-53.5 53.5t-29.5 78t-9 92.5v253h137v-254q0 -66 18.5 -100t65.5 -34q30 0 52 14t36 33v341h137zM455 558h-115l-55 93l-55 -93h-115l108 166h124z" />
    <glyph glyph-name="udieresis" unicode="&#xfc;" horiz-adv-x="567" 
d="M502 487v-487h-132v66q-26 -39 -62 -57.5t-80 -18.5q-47 0 -80 20t-53.5 53.5t-29.5 78t-9 92.5v253h137v-254q0 -66 18.5 -100t65.5 -34q30 0 52 14t36 33v341h137zM120 632q0 27 18.5 47.5t49.5 20.5t49.5 -20.5t18.5 -47.5q0 -29 -18.5 -48.5t-49.5 -19.5t-49.5 19.5
t-18.5 48.5zM314 632q0 27 18.5 47.5t49.5 20.5t49.5 -20.5t18.5 -47.5q0 -29 -18.5 -48.5t-49.5 -19.5t-49.5 19.5t-18.5 48.5z" />
    <glyph glyph-name="yacute" unicode="&#xfd;" horiz-adv-x="493" 
d="M118 -206l66 191l-179 502h142l103 -362l99 362h139l-233 -693h-137zM180 558l73 166h151l-111 -166h-113z" />
    <glyph glyph-name="thorn" unicode="&#xfe;" horiz-adv-x="571" 
d="M65 706h137v-274q24 30 58.5 47.5t83.5 17.5q44 0 80 -18t61.5 -50.5t39.5 -78t14 -101.5q0 -63 -20 -111.5t-54 -81.5t-79.5 -49.5t-97.5 -16.5q-27 0 -48 3.5t-38 8.5v-208h-137v912zM298 390q-33 0 -57.5 -14t-38.5 -31v-241q13 -5 30 -7.5t36 -2.5q70 0 102 43
t32 111q0 61 -25.5 101.5t-78.5 40.5z" />
    <glyph glyph-name="ydieresis" unicode="&#xff;" horiz-adv-x="493" 
d="M118 -206l66 191l-179 502h142l103 -362l99 362h139l-233 -693h-137zM86 632q0 27 18.5 47.5t49.5 20.5t49.5 -20.5t18.5 -47.5q0 -29 -18.5 -48.5t-49.5 -19.5t-49.5 19.5t-18.5 48.5zM280 632q0 27 18.5 47.5t49.5 20.5t49.5 -20.5t18.5 -47.5q0 -29 -18.5 -48.5
t-49.5 -19.5t-49.5 19.5t-18.5 48.5z" />
    <glyph glyph-name="Amacron" unicode="&#x100;" horiz-adv-x="696" 
d="M677 0h-145l-47 140h-274l-47 -140h-145l253 666h152zM348 554l-100 -303h200zM178 841h340v-104h-340v104z" />
    <glyph glyph-name="amacron" unicode="&#x101;" horiz-adv-x="525" 
d="M333 52q-27 -26 -65 -44t-88 -18q-32 0 -58 10.5t-44 29t-28 43.5t-10 55q0 67 45 102t123 40q30 2 62 3t58 2v17q0 47 -23 71.5t-72 24.5q-38 0 -72 -9t-60 -23l-27 96q38 22 84 33.5t99 11.5q97 0 152.5 -53t55.5 -157v-287h-132v52zM230 83q29 0 54 10t44 25v77
q-21 -2 -45 -4t-44 -5q-30 -5 -48 -16.5t-18 -38.5q0 -24 15.5 -36t41.5 -12zM120 681h301v-104h-301v104z" />
    <glyph glyph-name="Abreve" unicode="&#x102;" horiz-adv-x="696" 
d="M677 0h-145l-47 140h-274l-47 -140h-145l253 666h152zM348 554l-100 -303h200zM510 844q-15 -60 -58.5 -90.5t-103.5 -30.5t-103.5 30.5t-58.5 90.5l91 26q8 -26 24.5 -44t46.5 -18t46.5 18t24.5 44z" />
    <glyph glyph-name="abreve" unicode="&#x103;" horiz-adv-x="525" 
d="M333 52q-27 -26 -65 -44t-88 -18q-32 0 -58 10.5t-44 29t-28 43.5t-10 55q0 67 45 102t123 40q30 2 62 3t58 2v17q0 47 -23 71.5t-72 24.5q-38 0 -72 -9t-60 -23l-27 96q38 22 84 33.5t99 11.5q97 0 152.5 -53t55.5 -157v-287h-132v52zM230 83q29 0 54 10t44 25v77
q-21 -2 -45 -4t-44 -5q-30 -5 -48 -16.5t-18 -38.5q0 -24 15.5 -36t41.5 -12zM433 702q-11 -70 -55 -107t-110 -37t-110 37t-55 107l91 19q5 -32 22 -54.5t52 -22.5t52 22.5t22 54.5z" />
    <glyph glyph-name="Aogonek" unicode="&#x104;" horiz-adv-x="696" 
d="M662 -198q-38 -18 -89 -18q-54 0 -82.5 28t-28.5 73q0 42 23 70t47 45l-47 140h-274l-47 -140h-145l253 666h152l253 -666q-17 -8 -34.5 -19t-31.5 -24t-23 -28t-9 -31q0 -35 35 -35q9 0 20.5 1.5t19.5 4.5zM348 554l-100 -303h200z" />
    <glyph glyph-name="aogonek" unicode="&#x105;" horiz-adv-x="525" 
d="M463 -198q-38 -18 -89 -18t-78.5 27.5t-27.5 72.5q0 21 6 38t15 31t20.5 25.5t23.5 21.5v52q-27 -26 -65 -44t-88 -18q-32 0 -58 10.5t-44 29t-28 43.5t-10 55q0 67 45 102t123 40q30 2 62 3t58 2v17q0 47 -23 71.5t-72 24.5q-38 0 -72 -9t-60 -23l-27 96q38 22 84 33.5
t99 11.5q97 0 152.5 -53t55.5 -157v-287q-15 -9 -30 -20.5t-27.5 -24.5t-20 -27.5t-7.5 -29.5t8 -25t27 -10q9 0 20.5 1.5t19.5 4.5zM230 83q29 0 54 10t44 25v77q-21 -2 -45 -4t-44 -5q-30 -5 -48 -16.5t-18 -38.5q0 -24 15.5 -36t41.5 -12z" />
    <glyph glyph-name="Cacute" unicode="&#x106;" horiz-adv-x="621" 
d="M392 678q25 0 51 -2.5t50.5 -7t47 -11t40.5 -15.5l-20 -103q-32 12 -71 19.5t-77 7.5q-114 0 -174.5 -59t-60.5 -174t60.5 -174t174.5 -59q38 0 77 7.5t71 19.5l20 -103q-18 -9 -40.5 -15.5t-47 -11t-50.5 -7t-51 -2.5q-86 0 -152 26t-111 72t-68 109t-23 138t23 138
t68 109t111 72t152 26zM294 726l75 120h161l-123 -120h-113z" />
    <glyph glyph-name="cacute" unicode="&#x107;" horiz-adv-x="456" 
d="M288 497q36 0 74.5 -7.5t64.5 -21.5l-15 -98q-47 21 -104 21q-72 0 -106 -39.5t-34 -107.5t34 -108t106 -40q57 0 104 21l15 -98q-26 -14 -64.5 -21.5t-74.5 -7.5q-63 0 -111 19.5t-80.5 53.5t-49 80.5t-16.5 100.5t16.5 100.5t49 80t80.5 53t111 19.5zM185 558l73 166
h151l-111 -166h-113z" />
    <glyph glyph-name="Ccircumflex" unicode="&#x108;" horiz-adv-x="621" 
d="M392 678q25 0 51 -2.5t50.5 -7t47 -11t40.5 -15.5l-20 -103q-32 12 -71 19.5t-77 7.5q-114 0 -174.5 -59t-60.5 -174t60.5 -174t174.5 -59q38 0 77 7.5t71 19.5l20 -103q-18 -9 -40.5 -15.5t-47 -11t-50.5 -7t-51 -2.5q-86 0 -152 26t-111 72t-68 109t-23 138t23 138
t68 109t111 72t152 26zM530 726h-117l-44 58l-44 -58h-117l93 120h136z" />
    <glyph glyph-name="ccircumflex" unicode="&#x109;" horiz-adv-x="456" 
d="M288 497q36 0 74.5 -7.5t64.5 -21.5l-15 -98q-47 21 -104 21q-72 0 -106 -39.5t-34 -107.5t34 -108t106 -40q57 0 104 21l15 -98q-26 -14 -64.5 -21.5t-74.5 -7.5q-63 0 -111 19.5t-80.5 53.5t-49 80.5t-16.5 100.5t16.5 100.5t49 80t80.5 53t111 19.5zM425 558h-115
l-55 93l-55 -93h-115l108 166h124z" />
    <glyph glyph-name="Cdotaccent" unicode="&#x10a;" horiz-adv-x="621" 
d="M392 678q25 0 51 -2.5t50.5 -7t47 -11t40.5 -15.5l-20 -103q-32 12 -71 19.5t-77 7.5q-114 0 -174.5 -59t-60.5 -174t60.5 -174t174.5 -59q38 0 77 7.5t71 19.5l20 -103q-18 -9 -40.5 -15.5t-47 -11t-50.5 -7t-51 -2.5q-86 0 -152 26t-111 72t-68 109t-23 138t23 138
t68 109t111 72t152 26zM285 801q0 33 22 56t57 23t57.5 -23t22.5 -56q0 -32 -22.5 -55.5t-57.5 -23.5t-57 23.5t-22 55.5z" />
    <glyph glyph-name="cdotaccent" unicode="&#x10b;" horiz-adv-x="456" 
d="M288 497q36 0 74.5 -7.5t64.5 -21.5l-15 -98q-47 21 -104 21q-72 0 -106 -39.5t-34 -107.5t34 -108t106 -40q57 0 104 21l15 -98q-26 -14 -64.5 -21.5t-74.5 -7.5q-63 0 -111 19.5t-80.5 53.5t-49 80.5t-16.5 100.5t16.5 100.5t49 80t80.5 53t111 19.5zM179 629
q0 33 22 56t57 23t57.5 -23t22.5 -56q0 -32 -22.5 -55.5t-57.5 -23.5t-57 23.5t-22 55.5z" />
    <glyph glyph-name="Ccaron" unicode="&#x10c;" horiz-adv-x="621" 
d="M392 678q25 0 51 -2.5t50.5 -7t47 -11t40.5 -15.5l-20 -103q-32 12 -71 19.5t-77 7.5q-114 0 -174.5 -59t-60.5 -174t60.5 -174t174.5 -59q38 0 77 7.5t71 19.5l20 -103q-18 -9 -40.5 -15.5t-47 -11t-50.5 -7t-51 -2.5q-86 0 -152 26t-111 72t-68 109t-23 138t23 138
t68 109t111 72t152 26zM430 726h-136l-93 120h117l44 -58l44 58h117z" />
    <glyph glyph-name="ccaron" unicode="&#x10d;" horiz-adv-x="456" 
d="M288 497q36 0 74.5 -7.5t64.5 -21.5l-15 -98q-47 21 -104 21q-72 0 -106 -39.5t-34 -107.5t34 -108t106 -40q57 0 104 21l15 -98q-26 -14 -64.5 -21.5t-74.5 -7.5q-63 0 -111 19.5t-80.5 53.5t-49 80.5t-16.5 100.5t16.5 100.5t49 80t80.5 53t111 19.5zM323 558h-124
l-108 166h115l55 -93l55 93h115z" />
    <glyph glyph-name="Dcaron" unicode="&#x10e;" horiz-adv-x="690" 
d="M70 666h201q88 0 159.5 -25t122 -69.5t78 -105.5t27.5 -133t-27.5 -133t-78 -105.5t-122 -69.5t-159.5 -25h-201v666zM274 112q53 0 98 15t77.5 43.5t50.5 69.5t18 93t-18 93t-50.5 69.5t-77.5 43.5t-98 15h-64v-442h64zM363 726h-136l-93 120h117l44 -58l44 58h117z" />
    <glyph glyph-name="dcaron" unicode="&#x10f;" horiz-adv-x="711" 
d="M507 0h-131v63q-24 -32 -61.5 -52.5t-88.5 -20.5q-42 0 -77.5 18.5t-61 51.5t-40 78.5t-14.5 99.5q0 63 20 111.5t54 81t79.5 49.5t97.5 17q26 0 47.5 -3.5t38.5 -9.5v222h137v-706zM273 96q32 0 55.5 12.5t41.5 32.5v242q-28 10 -66 10q-66 0 -100 -40.5t-34 -112.5
q0 -31 6 -57.5t18.5 -45.5t32 -30t46.5 -11zM559 495q26 52 38.5 103t15.5 108l121 -11q-2 -69 -26.5 -130.5t-62.5 -111.5z" />
    <glyph glyph-name="Dcroat" unicode="&#x110;" horiz-adv-x="731" 
d="M35 388h76v278h201q88 0 159.5 -25t122 -69.5t78 -105.5t27.5 -133t-27.5 -133t-78 -105.5t-122 -69.5t-159.5 -25h-201v278h-76v110zM315 112q53 0 98 15t77.5 43.5t50.5 69.5t18 93t-18 93t-50.5 69.5t-77.5 43.5t-98 15h-64v-166h165v-110h-165v-166h64z" />
    <glyph glyph-name="dcroat" unicode="&#x111;" horiz-adv-x="572" 
d="M237 636h133v70h137v-70h70v-93h-70v-543h-131v63q-24 -32 -61.5 -52.5t-88.5 -20.5q-42 0 -77.5 18.5t-61 51.5t-40 78.5t-14.5 99.5q0 63 20 111.5t54 81t79.5 49.5t97.5 17q26 0 47.5 -3.5t38.5 -9.5v59h-133v93zM273 96q32 0 55.5 12.5t41.5 32.5v242q-28 10 -66 10
q-66 0 -100 -40.5t-34 -112.5q0 -31 6 -57.5t18.5 -45.5t32 -30t46.5 -11z" />
    <glyph glyph-name="Emacron" unicode="&#x112;" horiz-adv-x="525" 
d="M70 666h400v-111h-260v-161h248v-111h-248v-172h263v-111h-403v666zM99 841h340v-104h-340v104z" />
    <glyph glyph-name="emacron" unicode="&#x113;" horiz-adv-x="507" 
d="M273 497q48 0 85.5 -15t62.5 -42.5t38 -66t13 -86.5q0 -20 -2.5 -40.5t-7.5 -37.5h-289q2 -54 33 -86t99 -32q39 0 76 7.5t66 21.5l17 -93q-36 -18 -82 -27.5t-95 -9.5q-61 0 -108 18t-79.5 51t-49.5 79.5t-17 102.5q0 57 16.5 104.5t47.5 81t75.5 52t100.5 18.5z
M265 405q-42 0 -64.5 -29.5t-26.5 -74.5h167q5 47 -14 75.5t-62 28.5zM119 681h301v-104h-301v104z" />
    <glyph glyph-name="Ebreve" unicode="&#x114;" horiz-adv-x="525" 
d="M70 666h400v-111h-260v-161h248v-111h-248v-172h263v-111h-403v666zM445 844q-15 -60 -58.5 -90.5t-103.5 -30.5t-103.5 30.5t-58.5 90.5l91 26q8 -26 24.5 -44t46.5 -18t46.5 18t24.5 44z" />
    <glyph glyph-name="ebreve" unicode="&#x115;" horiz-adv-x="507" 
d="M273 497q48 0 85.5 -15t62.5 -42.5t38 -66t13 -86.5q0 -20 -2.5 -40.5t-7.5 -37.5h-289q2 -54 33 -86t99 -32q39 0 76 7.5t66 21.5l17 -93q-36 -18 -82 -27.5t-95 -9.5q-61 0 -108 18t-79.5 51t-49.5 79.5t-17 102.5q0 57 16.5 104.5t47.5 81t75.5 52t100.5 18.5z
M265 405q-42 0 -64.5 -29.5t-26.5 -74.5h167q5 47 -14 75.5t-62 28.5zM434 702q-11 -70 -55 -107t-110 -37t-110 37t-55 107l91 19q5 -32 22 -54.5t52 -22.5t52 22.5t22 54.5z" />
    <glyph glyph-name="Edotaccent" unicode="&#x116;" horiz-adv-x="525" 
d="M70 666h400v-111h-260v-161h248v-111h-248v-172h263v-111h-403v666zM196 801q0 33 22 56t57 23t57.5 -23t22.5 -56q0 -32 -22.5 -55.5t-57.5 -23.5t-57 23.5t-22 55.5z" />
    <glyph glyph-name="edotaccent" unicode="&#x117;" horiz-adv-x="507" 
d="M273 497q48 0 85.5 -15t62.5 -42.5t38 -66t13 -86.5q0 -20 -2.5 -40.5t-7.5 -37.5h-289q2 -54 33 -86t99 -32q39 0 76 7.5t66 21.5l17 -93q-36 -18 -82 -27.5t-95 -9.5q-61 0 -108 18t-79.5 51t-49.5 79.5t-17 102.5q0 57 16.5 104.5t47.5 81t75.5 52t100.5 18.5z
M265 405q-42 0 -64.5 -29.5t-26.5 -74.5h167q5 47 -14 75.5t-62 28.5zM183 629q0 33 22 56t57 23t57.5 -23t22.5 -56q0 -32 -22.5 -55.5t-57.5 -23.5t-57 23.5t-22 55.5z" />
    <glyph glyph-name="Eogonek" unicode="&#x118;" horiz-adv-x="525" 
d="M70 666h400v-111h-260v-161h248v-111h-248v-172h263v-111q-17 -10 -34.5 -21.5t-31.5 -24t-23 -26.5t-9 -30q0 -35 35 -35q9 0 20.5 1.5t19.5 4.5l8 -67q-18 -8 -41 -13t-48 -5q-51 0 -81 23t-30 69q0 24 9.5 43.5t23 35t29 26.5t28.5 19h-278v666z" />
    <glyph glyph-name="eogonek" unicode="&#x119;" horiz-adv-x="507" 
d="M448 -198q-20 -8 -42 -13t-47 -5q-54 0 -81 25t-27 68q0 38 21 66t51 48q-9 -1 -18 -1h-18q-61 0 -108 18t-79.5 51t-49.5 79.5t-17 102.5q0 57 16.5 104.5t47.5 81t75.5 52t100.5 18.5q48 0 85.5 -15t62.5 -42.5t38 -66t13 -86.5q0 -20 -2.5 -40.5t-7.5 -37.5h-289
q2 -54 33 -86t99 -32q39 0 76 7.5t66 21.5l17 -93q-46 -29 -72.5 -64t-26.5 -66q0 -19 10 -26.5t27 -7.5q9 0 19.5 1.5t18.5 4.5zM265 405q-42 0 -64.5 -29.5t-26.5 -74.5h167q5 47 -14 75.5t-62 28.5z" />
    <glyph glyph-name="Ecaron" unicode="&#x11a;" horiz-adv-x="525" 
d="M70 666h400v-111h-260v-161h248v-111h-248v-172h263v-111h-403v666zM344 726h-136l-93 120h117l44 -58l44 58h117z" />
    <glyph glyph-name="ecaron" unicode="&#x11b;" horiz-adv-x="507" 
d="M273 497q48 0 85.5 -15t62.5 -42.5t38 -66t13 -86.5q0 -20 -2.5 -40.5t-7.5 -37.5h-289q2 -54 33 -86t99 -32q39 0 76 7.5t66 21.5l17 -93q-36 -18 -82 -27.5t-95 -9.5q-61 0 -108 18t-79.5 51t-49.5 79.5t-17 102.5q0 57 16.5 104.5t47.5 81t75.5 52t100.5 18.5z
M265 405q-42 0 -64.5 -29.5t-26.5 -74.5h167q5 47 -14 75.5t-62 28.5zM324 558h-124l-108 166h115l55 -93l55 93h115z" />
    <glyph glyph-name="Gcircumflex" unicode="&#x11c;" horiz-adv-x="688" 
d="M400 678q60 0 112 -9t101 -32l-20 -109q-44 18 -88 28t-94 10q-54 0 -97 -15t-73.5 -45t-47 -76t-16.5 -107q0 -113 58 -171t174 -58q24 0 48.5 3.5t44.5 9.5v197h126v-272q-47 -20 -110.5 -32t-126.5 -12q-83 0 -148.5 24.5t-111.5 69t-70 106t-24 136.5
q0 79 24.5 144.5t71.5 112t114 72t153 25.5zM534 726h-117l-44 58l-44 -58h-117l93 120h136z" />
    <glyph glyph-name="gcircumflex" unicode="&#x11d;" horiz-adv-x="520" 
d="M503 487v-91h-77q17 -29 17 -67q0 -35 -14 -65t-40 -52.5t-64 -35t-86 -12.5h-6.5t-10.5 1q-5 -8 -8 -14.5t-3 -16.5q0 -17 15 -24t39 -9l80 -5q75 -5 117.5 -34t42.5 -94q0 -44 -23.5 -78t-62.5 -57.5t-89.5 -36t-104.5 -12.5q-42 0 -81 6.5t-69.5 21.5t-48.5 38.5
t-18 57.5q0 25 11 43.5t28.5 32t40 22t46.5 14.5q-21 11 -33 27.5t-12 40.5q0 17 6.5 31t16 25t21.5 19t24 13q-59 17 -90.5 57.5t-31.5 95.5q0 36 13.5 66.5t39.5 53t64 35.5t87 13q20 0 38.5 -2.5t35.5 -7.5h190zM196 4q-20 -11 -39.5 -27t-19.5 -43q0 -31 26.5 -45.5
t72.5 -14.5q26 0 51.5 5t45.5 14.5t32.5 23.5t12.5 33q0 24 -19.5 33.5t-51.5 11.5zM239 251q38 0 61 21.5t23 57.5q0 37 -22.5 58.5t-61.5 21.5t-61.5 -21t-22.5 -59q0 -37 23 -58t61 -21zM408 558h-115l-55 93l-55 -93h-115l108 166h124z" />
    <glyph glyph-name="Gbreve" unicode="&#x11e;" horiz-adv-x="688" 
d="M400 678q60 0 112 -9t101 -32l-20 -109q-44 18 -88 28t-94 10q-54 0 -97 -15t-73.5 -45t-47 -76t-16.5 -107q0 -113 58 -171t174 -58q24 0 48.5 3.5t44.5 9.5v197h126v-272q-47 -20 -110.5 -32t-126.5 -12q-83 0 -148.5 24.5t-111.5 69t-70 106t-24 136.5
q0 79 24.5 144.5t71.5 112t114 72t153 25.5zM530 844q-15 -60 -58.5 -90.5t-103.5 -30.5t-103.5 30.5t-58.5 90.5l91 26q8 -26 24.5 -44t46.5 -18t46.5 18t24.5 44z" />
    <glyph glyph-name="gbreve" unicode="&#x11f;" horiz-adv-x="520" 
d="M503 487v-91h-77q17 -29 17 -67q0 -35 -14 -65t-40 -52.5t-64 -35t-86 -12.5h-6.5t-10.5 1q-5 -8 -8 -14.5t-3 -16.5q0 -17 15 -24t39 -9l80 -5q75 -5 117.5 -34t42.5 -94q0 -44 -23.5 -78t-62.5 -57.5t-89.5 -36t-104.5 -12.5q-42 0 -81 6.5t-69.5 21.5t-48.5 38.5
t-18 57.5q0 25 11 43.5t28.5 32t40 22t46.5 14.5q-21 11 -33 27.5t-12 40.5q0 17 6.5 31t16 25t21.5 19t24 13q-59 17 -90.5 57.5t-31.5 95.5q0 36 13.5 66.5t39.5 53t64 35.5t87 13q20 0 38.5 -2.5t35.5 -7.5h190zM196 4q-20 -11 -39.5 -27t-19.5 -43q0 -31 26.5 -45.5
t72.5 -14.5q26 0 51.5 5t45.5 14.5t32.5 23.5t12.5 33q0 24 -19.5 33.5t-51.5 11.5zM239 251q38 0 61 21.5t23 57.5q0 37 -22.5 58.5t-61.5 21.5t-61.5 -21t-22.5 -59q0 -37 23 -58t61 -21zM404 702q-11 -70 -55 -107t-110 -37t-110 37t-55 107l91 19q5 -32 22 -54.5
t52 -22.5t52 22.5t22 54.5z" />
    <glyph glyph-name="Gdotaccent" unicode="&#x120;" horiz-adv-x="688" 
d="M400 678q60 0 112 -9t101 -32l-20 -109q-44 18 -88 28t-94 10q-54 0 -97 -15t-73.5 -45t-47 -76t-16.5 -107q0 -113 58 -171t174 -58q24 0 48.5 3.5t44.5 9.5v197h126v-272q-47 -20 -110.5 -32t-126.5 -12q-83 0 -148.5 24.5t-111.5 69t-70 106t-24 136.5
q0 79 24.5 144.5t71.5 112t114 72t153 25.5zM293 801q0 33 22 56t57 23t57.5 -23t22.5 -56q0 -32 -22.5 -55.5t-57.5 -23.5t-57 23.5t-22 55.5z" />
    <glyph glyph-name="gdotaccent" unicode="&#x121;" horiz-adv-x="520" 
d="M503 487v-91h-77q17 -29 17 -67q0 -35 -14 -65t-40 -52.5t-64 -35t-86 -12.5h-6.5t-10.5 1q-5 -8 -8 -14.5t-3 -16.5q0 -17 15 -24t39 -9l80 -5q75 -5 117.5 -34t42.5 -94q0 -44 -23.5 -78t-62.5 -57.5t-89.5 -36t-104.5 -12.5q-42 0 -81 6.5t-69.5 21.5t-48.5 38.5
t-18 57.5q0 25 11 43.5t28.5 32t40 22t46.5 14.5q-21 11 -33 27.5t-12 40.5q0 17 6.5 31t16 25t21.5 19t24 13q-59 17 -90.5 57.5t-31.5 95.5q0 36 13.5 66.5t39.5 53t64 35.5t87 13q20 0 38.5 -2.5t35.5 -7.5h190zM196 4q-20 -11 -39.5 -27t-19.5 -43q0 -31 26.5 -45.5
t72.5 -14.5q26 0 51.5 5t45.5 14.5t32.5 23.5t12.5 33q0 24 -19.5 33.5t-51.5 11.5zM239 251q38 0 61 21.5t23 57.5q0 37 -22.5 58.5t-61.5 21.5t-61.5 -21t-22.5 -59q0 -37 23 -58t61 -21zM155 629q0 33 22 56t57 23t57.5 -23t22.5 -56q0 -32 -22.5 -55.5t-57.5 -23.5
t-57 23.5t-22 55.5z" />
    <glyph glyph-name="Gcommaaccent" unicode="&#x122;" horiz-adv-x="688" 
d="M400 678q60 0 112 -9t101 -32l-20 -109q-44 18 -88 28t-94 10q-54 0 -97 -15t-73.5 -45t-47 -76t-16.5 -107q0 -113 58 -171t174 -58q24 0 48.5 3.5t44.5 9.5v197h126v-272q-47 -20 -110.5 -32t-126.5 -12q-83 0 -148.5 24.5t-111.5 69t-70 106t-24 136.5
q0 79 24.5 144.5t71.5 112t114 72t153 25.5zM299 -208q31 71 31 146h128q0 -55 -15.5 -100.5t-49.5 -87.5z" />
    <glyph glyph-name="gcommaaccent" unicode="&#x123;" horiz-adv-x="520" 
d="M503 487v-91h-77q17 -29 17 -67q0 -35 -14 -65t-40 -52.5t-64 -35t-86 -12.5h-6.5t-10.5 1q-5 -8 -8 -14.5t-3 -16.5q0 -17 15 -24t39 -9l80 -5q75 -5 117.5 -34t42.5 -94q0 -44 -23.5 -78t-62.5 -57.5t-89.5 -36t-104.5 -12.5q-42 0 -81 6.5t-69.5 21.5t-48.5 38.5
t-18 57.5q0 25 11 43.5t28.5 32t40 22t46.5 14.5q-21 11 -33 27.5t-12 40.5q0 17 6.5 31t16 25t21.5 19t24 13q-59 17 -90.5 57.5t-31.5 95.5q0 36 13.5 66.5t39.5 53t64 35.5t87 13q20 0 38.5 -2.5t35.5 -7.5h190zM196 4q-20 -11 -39.5 -27t-19.5 -43q0 -31 26.5 -45.5
t72.5 -14.5q26 0 51.5 5t45.5 14.5t32.5 23.5t12.5 33q0 24 -19.5 33.5t-51.5 11.5zM239 251q38 0 61 21.5t23 57.5q0 37 -22.5 58.5t-61.5 21.5t-61.5 -21t-22.5 -59q0 -37 23 -58t61 -21zM337 702q-19 -28 -27.5 -65t-11.5 -79l-125 7q1 60 23 104.5t51 74.5z" />
    <glyph glyph-name="Hcircumflex" unicode="&#x124;" horiz-adv-x="696" 
d="M486 0v280h-276v-280h-140v666h140v-270h276v270h140v-666h-140zM509 726h-117l-44 58l-44 -58h-117l93 120h136z" />
    <glyph glyph-name="hcircumflex" unicode="&#x125;" horiz-adv-x="575" 
d="M65 0v706h137v-278q24 35 59.5 52t77.5 17q47 0 80.5 -20t54.5 -53.5t31 -78t10 -92.5v-253h-137v254q0 66 -20.5 100t-67.5 34q-30 0 -52 -14t-36 -33v-341h-137zM297 746h-117l-44 58l-44 -58h-117l93 120h136z" />
    <glyph glyph-name="Hbar" unicode="&#x126;" horiz-adv-x="736" 
d="M506 0v280h-276v-280h-140v480h-80v95h80v91h140v-91h276v91h140v-91h80v-95h-80v-480h-140zM506 396v84h-276v-84h276z" />
    <glyph glyph-name="hbar" unicode="&#x127;" horiz-adv-x="575" 
d="M-5 636h70v70h137v-70h125v-93h-125v-115q24 35 59.5 52t77.5 17q47 0 80.5 -20t54.5 -53.5t31 -78t10 -92.5v-253h-137v254q0 66 -20.5 100t-67.5 34q-30 0 -52 -14t-36 -33v-341h-137v543h-70v93z" />
    <glyph glyph-name="Itilde" unicode="&#x128;" horiz-adv-x="290" 
d="M215 0h-140v666h140v-666zM230 726q-22 0 -44 5.5t-46 14.5q-20 8 -36.5 13.5t-30.5 5.5q-17 0 -25.5 -11t-14.5 -30l-84 30q14 54 38.5 81t76.5 27q24 0 46 -6t43 -14q20 -8 36 -14t28 -6q17 0 25.5 12t17.5 29l78 -37q-18 -46 -40.5 -73t-67.5 -27z" />
    <glyph glyph-name="itilde" unicode="&#x129;" horiz-adv-x="267" 
d="M65 0v487h137v-487h-137zM210 565q-21 0 -42 8.5t-41 16.5q-17 8 -31 14t-26 6q-18 0 -26.5 -12.5t-19.5 -34.5l-77 36q19 59 45 85t75 26q23 0 40.5 -7.5t37.5 -16.5q18 -8 32 -14.5t25 -6.5q18 0 27 12t20 33l76 -38q-14 -30 -26 -50.5t-25 -33t-28 -18t-36 -5.5z" />
    <glyph glyph-name="uni012A" unicode="&#x12a;" horiz-adv-x="290" 
d="M215 0h-140v666h140v-666zM-25 841h340v-104h-340v104z" />
    <glyph glyph-name="imacron" unicode="&#x12b;" horiz-adv-x="267" 
d="M65 0v487h137v-487h-137zM-17 681h301v-104h-301v104z" />
    <glyph glyph-name="Ibreve" unicode="&#x12c;" horiz-adv-x="290" 
d="M215 0h-140v666h140v-666zM307 844q-15 -60 -58.5 -90.5t-103.5 -30.5t-103.5 30.5t-58.5 90.5l91 26q8 -26 24.5 -44t46.5 -18t46.5 18t24.5 44z" />
    <glyph glyph-name="uni012D" unicode="&#x12d;" horiz-adv-x="267" 
d="M65 0v487h137v-487h-137zM299 702q-11 -70 -55 -107t-110 -37t-110 37t-55 107l91 19q5 -32 22 -54.5t52 -22.5t52 22.5t22 54.5z" />
    <glyph glyph-name="Iogonek" unicode="&#x12e;" horiz-adv-x="290" 
d="M213 -198q-19 -9 -39 -13.5t-45 -4.5q-55 0 -81.5 29t-26.5 74q0 37 16 64t38 49v666h140v-666q-14 -10 -28.5 -21.5t-26.5 -24.5t-19.5 -27t-7.5 -29q0 -35 35 -35q20 0 37 6z" />
    <glyph glyph-name="iogonek" unicode="&#x12f;" horiz-adv-x="267" 
d="M200 -198q-19 -9 -39 -13.5t-45 -4.5q-55 0 -81.5 29t-26.5 74q0 37 18 64.5t39 48.5v487h137v-487q-14 -10 -28.5 -21.5t-26.5 -24.5t-19.5 -27t-7.5 -29q0 -35 35 -35q20 0 37 6zM54 629q0 33 22 56t57 23t57.5 -23t22.5 -56q0 -32 -22.5 -55.5t-57.5 -23.5t-57 23.5
t-22 55.5z" />
    <glyph glyph-name="Idotaccent" unicode="&#x130;" horiz-adv-x="290" 
d="M215 0h-140v666h140v-666zM66 801q0 33 22 56t57 23t57.5 -23t22.5 -56q0 -32 -22.5 -55.5t-57.5 -23.5t-57 23.5t-22 55.5z" />
    <glyph glyph-name="dotlessi" unicode="&#x131;" horiz-adv-x="267" 
d="M65 0v487h137v-487h-137z" />
    <glyph glyph-name="IJ" unicode="&#x132;" horiz-adv-x="578" 
d="M215 0h-140v666h140v-666zM508 157q0 -46 -5.5 -87t-20 -80t-40.5 -78.5t-68 -81.5l-97 76q23 26 40 51.5t28.5 52.5t17 57.5t5.5 66.5v532h140v-509z" />
    <glyph glyph-name="ij" unicode="&#x133;" horiz-adv-x="541" 
d="M65 0v487h137v-487h-137zM54 629q0 33 22 56t57 23t57.5 -23t22.5 -56q0 -32 -22.5 -55.5t-57.5 -23.5t-57 23.5t-22 55.5zM476 116q0 -53 -7.5 -97t-24.5 -84t-45 -76.5t-70 -74.5l-89 78q25 27 43.5 53t31 54.5t18.5 60.5t6 71v386h137v-371zM328 629q0 33 22 56t57 23
t57.5 -23t22.5 -56q0 -32 -22.5 -55.5t-57.5 -23.5t-57 23.5t-22 55.5z" />
    <glyph glyph-name="Jcircumflex" unicode="&#x134;" horiz-adv-x="288" 
d="M218 157q0 -46 -5.5 -87t-20 -80t-40.5 -78.5t-68 -81.5l-97 76q23 26 40 51.5t28.5 52.5t17 57.5t5.5 66.5v532h140v-509zM309 726h-117l-44 58l-44 -58h-117l93 120h136z" />
    <glyph glyph-name="jcircumflex" unicode="&#x135;" horiz-adv-x="274" 
d="M209 116q0 -53 -7.5 -97t-24.5 -84t-45 -76.5t-70 -74.5l-89 78q25 27 43.5 53t31 54.5t18.5 60.5t6 71v386h137v-371zM312 558h-115l-55 93l-55 -93h-115l108 166h124z" />
    <glyph glyph-name="Kcommaaccent" unicode="&#x136;" horiz-adv-x="625" 
d="M70 0v666h140v-320l231 320h162l-245 -329l262 -337h-173l-237 327v-327h-140zM228 -208q31 71 31 146h128q0 -55 -15.5 -100.5t-49.5 -87.5z" />
    <glyph glyph-name="kcommaaccent" unicode="&#x137;" horiz-adv-x="538" 
d="M65 0v706h137v-448l162 229h152l-173 -240l197 -247h-163l-175 237v-237h-137zM191 -208q31 71 31 146h128q0 -55 -15.5 -100.5t-49.5 -87.5z" />
    <glyph glyph-name="kgreenlandic" unicode="&#x138;" horiz-adv-x="538" 
d="M65 0v487h137v-229l162 229h152l-173 -240l197 -247h-163l-175 237v-237h-137z" />
    <glyph glyph-name="Lacute" unicode="&#x139;" horiz-adv-x="481" 
d="M210 666v-554h248v-112h-388v666h140zM81 726l75 120h161l-123 -120h-113z" />
    <glyph glyph-name="lacute" unicode="&#x13a;" horiz-adv-x="297" 
d="M195 141q0 -23 9.5 -34.5t32.5 -11.5q9 0 19 1t19 3l5 -96q-17 -5 -42 -8.5t-49 -3.5q-37 0 -62 11.5t-40.5 31t-22 44t-6.5 50.5v578h137v-565zM70 746l75 120h161l-123 -120h-113z" />
    <glyph glyph-name="Lcommaaccent" unicode="&#x13b;" horiz-adv-x="481" 
d="M210 666v-554h248v-112h-388v666h140zM161 -208q31 71 31 146h128q0 -55 -15.5 -100.5t-49.5 -87.5z" />
    <glyph glyph-name="lcommaaccent" unicode="&#x13c;" horiz-adv-x="298" 
d="M195 141q0 -23 9.5 -34.5t32.5 -11.5q9 0 19 1t19 3l5 -96q-17 -5 -42 -8.5t-49 -3.5q-37 0 -62 11.5t-40.5 31t-22 44t-6.5 50.5v578h137v-565zM79 -208q31 71 31 146h128q0 -55 -15.5 -100.5t-49.5 -87.5z" />
    <glyph glyph-name="Lcaron" unicode="&#x13d;" horiz-adv-x="481" 
d="M210 666v-554h248v-112h-388v666h140zM280 455q26 52 38.5 103t15.5 108l121 -11q-2 -69 -26.5 -130.5t-62.5 -111.5z" />
    <glyph glyph-name="lcaron" unicode="&#x13e;" horiz-adv-x="397" 
d="M195 141q0 -23 9.5 -34.5t32.5 -11.5q9 0 19 1t19 3l5 -96q-17 -5 -42 -8.5t-49 -3.5q-37 0 -62 11.5t-40.5 31t-22 44t-6.5 50.5v578h137v-565zM250 495q26 52 38.5 103t15.5 108l121 -11q-2 -69 -26.5 -130.5t-62.5 -111.5z" />
    <glyph glyph-name="Ldot" unicode="&#x13f;" horiz-adv-x="481" 
d="M210 666v-554h248v-112h-388v666h140zM272 323q0 32 20.5 55.5t58.5 23.5t58.5 -23.5t20.5 -55.5t-20.5 -56t-58.5 -24t-58.5 24t-20.5 56z" />
    <glyph glyph-name="ldot" unicode="&#x140;" horiz-adv-x="417" 
d="M195 141q0 -23 9.5 -34.5t32.5 -11.5q9 0 19 1t19 3l5 -96q-17 -5 -42 -8.5t-49 -3.5q-37 0 -62 11.5t-40.5 31t-22 44t-6.5 50.5v578h137v-565zM251 294q0 32 20.5 55.5t58.5 23.5t58.5 -23.5t20.5 -55.5t-20.5 -56t-58.5 -24t-58.5 24t-20.5 56z" />
    <glyph glyph-name="Lslash" unicode="&#x141;" horiz-adv-x="481" 
d="M210 301v-189h248v-112h-388v231l-41 -20l-43 98l84 42v315h140v-246l154 77l46 -97z" />
    <glyph glyph-name="lslash" unicode="&#x142;" horiz-adv-x="298" 
d="M195 333v-192q0 -23 9.5 -34.5t32.5 -11.5q9 0 19 1t19 3l5 -96q-17 -5 -42 -8.5t-49 -3.5q-37 0 -62 11.5t-40.5 31t-22 44t-6.5 50.5v137l-36 -17l-45 97l81 40v321h137v-254l70 35l46 -97z" />
    <glyph glyph-name="Nacute" unicode="&#x143;" horiz-adv-x="719" 
d="M515 0l-311 436v-436h-134v666h134l311 -436v436h134v-666h-134zM285 726l75 120h161l-123 -120h-113z" />
    <glyph glyph-name="nacute" unicode="&#x144;" horiz-adv-x="575" 
d="M65 0v487h132v-66q24 39 61 57.5t81 18.5q47 0 80.5 -20t54.5 -53.5t31 -78t10 -92.5v-253h-137v254q0 66 -20.5 100t-67.5 34q-30 0 -52 -14t-36 -33v-341h-137zM209 558l73 166h151l-111 -166h-113z" />
    <glyph glyph-name="Ncommaaccent" unicode="&#x145;" horiz-adv-x="719" 
d="M515 0l-311 436v-436h-134v666h134l311 -436v436h134v-666h-134zM270 -208q31 71 31 146h128q0 -55 -15.5 -100.5t-49.5 -87.5z" />
    <glyph glyph-name="ncommaaccent" unicode="&#x146;" horiz-adv-x="575" 
d="M65 0v487h132v-66q24 39 61 57.5t81 18.5q47 0 80.5 -20t54.5 -53.5t31 -78t10 -92.5v-253h-137v254q0 66 -20.5 100t-67.5 34q-30 0 -52 -14t-36 -33v-341h-137zM194 -208q31 71 31 146h128q0 -55 -15.5 -100.5t-49.5 -87.5z" />
    <glyph glyph-name="Ncaron" unicode="&#x147;" horiz-adv-x="719" 
d="M515 0l-311 436v-436h-134v666h134l311 -436v436h134v-666h-134zM431 726h-136l-93 120h117l44 -58l44 58h117z" />
    <glyph glyph-name="ncaron" unicode="&#x148;" horiz-adv-x="575" 
d="M65 0v487h132v-66q24 39 61 57.5t81 18.5q47 0 80.5 -20t54.5 -53.5t31 -78t10 -92.5v-253h-137v254q0 66 -20.5 100t-67.5 34q-30 0 -52 -14t-36 -33v-341h-137zM348 558h-124l-108 166h115l55 -93l55 93h115z" />
    <glyph glyph-name="napostrophe" unicode="&#x149;" horiz-adv-x="716" 
d="M206 0v487h132v-66q24 39 61 57.5t81 18.5q47 0 80.5 -20t54.5 -53.5t31 -78t10 -92.5v-253h-137v254q0 66 -20.5 100t-67.5 34q-30 0 -52 -14t-36 -33v-341h-137zM6 495q26 52 38.5 103t15.5 108l121 -11q-2 -69 -26.5 -130.5t-62.5 -111.5z" />
    <glyph glyph-name="Eng" unicode="&#x14a;" horiz-adv-x="719" 
d="M649 82q0 -55 -11.5 -100t-37.5 -82t-68.5 -65.5t-104.5 -50.5l-45 104q42 15 75.5 40t53.5 73l-307 435v-436h-134v666h134l311 -436v436h134v-584z" />
    <glyph glyph-name="eng" unicode="&#x14b;" horiz-adv-x="575" 
d="M515 82q0 -55 -9.5 -99.5t-33 -81t-64 -65t-102.5 -52.5l-48 104q62 27 91 67.5t29 112.5v186q0 66 -20.5 100t-67.5 34q-30 0 -52 -14t-36 -33v-341h-137v487h132v-66q24 39 61 57.5t81 18.5q47 0 80.5 -20t54.5 -53.5t31 -78t10 -92.5v-171v0z" />
    <glyph glyph-name="Omacron" unicode="&#x14c;" horiz-adv-x="746" 
d="M708 333q0 -71 -22.5 -133.5t-65 -109.5t-105 -74.5t-142.5 -27.5t-142.5 27.5t-105.5 74.5t-65 109.5t-22 133.5q0 70 22 133t65 110t105.5 74.5t142.5 27.5t142.5 -27.5t105 -74.5t65 -110t22.5 -133zM373 98q49 0 85.5 18t61 49.5t36.5 74.5t12 93t-12 93t-36.5 74.5
t-61 49.5t-85.5 18t-85.5 -18t-61 -49.5t-36.5 -74.5t-12 -93t12 -93t36.5 -74.5t61 -49.5t85.5 -18zM203 841h340v-104h-340v104z" />
    <glyph glyph-name="omacron" unicode="&#x14d;" horiz-adv-x="568" 
d="M535 243q0 -53 -16.5 -99t-48.5 -80.5t-78.5 -54t-107.5 -19.5t-107.5 19.5t-78.5 54t-48.5 80.5t-16.5 99t16.5 99t48.5 80.5t78.5 54.5t107.5 20t107.5 -20t78.5 -54.5t48.5 -80.5t16.5 -99zM398 243q0 30 -6 57.5t-19.5 48.5t-35.5 33.5t-53 12.5q-32 0 -53.5 -12.5
t-35 -33.5t-19.5 -48.5t-6 -57.5t6 -57t19.5 -48t35 -33.5t53.5 -12.5q31 0 53 12.5t35.5 33.5t19.5 48t6 57zM133 681h301v-104h-301v104z" />
    <glyph glyph-name="Obreve" unicode="&#x14e;" horiz-adv-x="746" 
d="M708 333q0 -71 -22.5 -133.5t-65 -109.5t-105 -74.5t-142.5 -27.5t-142.5 27.5t-105.5 74.5t-65 109.5t-22 133.5q0 70 22 133t65 110t105.5 74.5t142.5 27.5t142.5 -27.5t105 -74.5t65 -110t22.5 -133zM373 98q49 0 85.5 18t61 49.5t36.5 74.5t12 93t-12 93t-36.5 74.5
t-61 49.5t-85.5 18t-85.5 -18t-61 -49.5t-36.5 -74.5t-12 -93t12 -93t36.5 -74.5t61 -49.5t85.5 -18zM535 844q-15 -60 -58.5 -90.5t-103.5 -30.5t-103.5 30.5t-58.5 90.5l91 26q8 -26 24.5 -44t46.5 -18t46.5 18t24.5 44z" />
    <glyph glyph-name="obreve" unicode="&#x14f;" horiz-adv-x="568" 
d="M535 243q0 -53 -16.5 -99t-48.5 -80.5t-78.5 -54t-107.5 -19.5t-107.5 19.5t-78.5 54t-48.5 80.5t-16.5 99t16.5 99t48.5 80.5t78.5 54.5t107.5 20t107.5 -20t78.5 -54.5t48.5 -80.5t16.5 -99zM398 243q0 30 -6 57.5t-19.5 48.5t-35.5 33.5t-53 12.5q-32 0 -53.5 -12.5
t-35 -33.5t-19.5 -48.5t-6 -57.5t6 -57t19.5 -48t35 -33.5t53.5 -12.5q31 0 53 12.5t35.5 33.5t19.5 48t6 57zM449 702q-11 -70 -55 -107t-110 -37t-110 37t-55 107l91 19q5 -32 22 -54.5t52 -22.5t52 22.5t22 54.5z" />
    <glyph glyph-name="Ohungarumlaut" unicode="&#x150;" horiz-adv-x="746" 
d="M708 333q0 -71 -22.5 -133.5t-65 -109.5t-105 -74.5t-142.5 -27.5t-142.5 27.5t-105.5 74.5t-65 109.5t-22 133.5q0 70 22 133t65 110t105.5 74.5t142.5 27.5t142.5 -27.5t105 -74.5t65 -110t22.5 -133zM373 98q49 0 85.5 18t61 49.5t36.5 74.5t12 93t-12 93t-36.5 74.5
t-61 49.5t-85.5 18t-85.5 -18t-61 -49.5t-36.5 -74.5t-12 -93t12 -93t36.5 -74.5t61 -49.5t85.5 -18zM222 726l44 120h136l-72 -120h-108zM425 726l44 120h136l-72 -120h-108z" />
    <glyph glyph-name="ohungarumlaut" unicode="&#x151;" horiz-adv-x="568" 
d="M535 243q0 -53 -16.5 -99t-48.5 -80.5t-78.5 -54t-107.5 -19.5t-107.5 19.5t-78.5 54t-48.5 80.5t-16.5 99t16.5 99t48.5 80.5t78.5 54.5t107.5 20t107.5 -20t78.5 -54.5t48.5 -80.5t16.5 -99zM398 243q0 30 -6 57.5t-19.5 48.5t-35.5 33.5t-53 12.5q-32 0 -53.5 -12.5
t-35 -33.5t-19.5 -48.5t-6 -57.5t6 -57t19.5 -48t35 -33.5t53.5 -12.5q31 0 53 12.5t35.5 33.5t19.5 48t6 57zM144 558l53 166h131l-83 -166h-101zM338 558l53 166h131l-83 -166h-101z" />
    <glyph glyph-name="OE" unicode="&#x152;" horiz-adv-x="974" 
d="M919 666v-111h-260v-161h248v-111h-248v-172h263v-111h-403q-32 -5 -64.5 -8.5t-63.5 -3.5q-86 0 -152 27t-111 74t-68.5 109.5t-23.5 134.5t23.5 134.5t68.5 109.5t111 74t152 27q31 0 63.5 -3.5t64.5 -8.5h400zM403 100q28 0 60 3.5t56 8.5v442q-24 5 -56 8.5t-60 3.5
q-112 0 -169.5 -62t-57.5 -171t57.5 -171t169.5 -62z" />
    <glyph glyph-name="oe" unicode="&#x153;" horiz-adv-x="872" 
d="M634 497q48 0 86 -15.5t64 -43.5t39.5 -66.5t13.5 -84.5q0 -20 -2.5 -38t-7.5 -40h-291q1 -26 8 -47.5t23 -37.5t41 -24.5t62 -8.5q34 0 70.5 7t71.5 22l18 -93q-30 -17 -79 -27t-103 -10q-61 0 -110.5 22t-75.5 58q-29 -35 -75.5 -57.5t-102.5 -22.5q-62 0 -109 19.5
t-78.5 54t-47.5 80.5t-16 99t16.5 99t49 80.5t79.5 54.5t107 20q56 0 99 -18.5t79 -60.5q29 38 71.5 58.5t99.5 20.5zM400 243q0 66 -29 109t-86 43q-56 0 -85.5 -41t-29.5 -111t29.5 -110.5t85.5 -40.5q57 0 86 42.5t29 108.5zM629 406q-37 0 -62.5 -28.5t-27.5 -76.5h167
q2 18 -0.5 37t-11.5 34t-25 24.5t-40 9.5z" />
    <glyph glyph-name="Racute" unicode="&#x154;" horiz-adv-x="622" 
d="M552 463q0 -71 -40 -119.5t-115 -74.5l225 -269h-174l-193 243h-45v-243h-140v666h199q62 0 114 -12.5t89.5 -38t58.5 -63.5t21 -89zM412 460q0 51 -40 74t-104 23h-58v-208h42q72 0 116 28t44 83zM195 726l75 120h161l-123 -120h-113z" />
    <glyph glyph-name="racute" unicode="&#x155;" horiz-adv-x="379" 
d="M364 370h-23q-51 0 -85 -16t-54 -46v-308h-137v487h132v-86q14 43 44.5 67t81.5 24q23 0 41 -5v-117zM137 558l73 166h151l-111 -166h-113z" />
    <glyph glyph-name="Rcommaaccent" unicode="&#x156;" horiz-adv-x="622" 
d="M552 463q0 -71 -40 -119.5t-115 -74.5l225 -269h-174l-193 243h-45v-243h-140v666h199q62 0 114 -12.5t89.5 -38t58.5 -63.5t21 -89zM412 460q0 51 -40 74t-104 23h-58v-208h42q72 0 116 28t44 83zM221 -208q31 71 31 146h128q0 -55 -15.5 -100.5t-49.5 -87.5z" />
    <glyph glyph-name="rcommaaccent" unicode="&#x157;" horiz-adv-x="379" 
d="M364 370h-23q-51 0 -85 -16t-54 -46v-308h-137v487h132v-86q14 43 44.5 67t81.5 24q23 0 41 -5v-117zM36 -208q31 71 31 146h128q0 -55 -15.5 -100.5t-49.5 -87.5z" />
    <glyph glyph-name="Rcaron" unicode="&#x158;" horiz-adv-x="622" 
d="M552 463q0 -71 -40 -119.5t-115 -74.5l225 -269h-174l-193 243h-45v-243h-140v666h199q62 0 114 -12.5t89.5 -38t58.5 -63.5t21 -89zM412 460q0 51 -40 74t-104 23h-58v-208h42q72 0 116 28t44 83zM349 726h-136l-93 120h117l44 -58l44 58h117z" />
    <glyph glyph-name="rcaron" unicode="&#x159;" horiz-adv-x="379" 
d="M364 370h-23q-51 0 -85 -16t-54 -46v-308h-137v487h132v-86q14 43 44.5 67t81.5 24q23 0 41 -5v-117zM279 558h-124l-108 166h115l55 -93l55 93h115z" />
    <glyph glyph-name="Sacute" unicode="&#x15a;" horiz-adv-x="527" 
d="M494 190q0 -44 -18 -81t-50.5 -64t-78.5 -42t-102 -15q-53 0 -106.5 11.5t-98.5 33.5l29 107q36 -17 80.5 -29t91.5 -12q50 0 81.5 20.5t31.5 59.5q0 36 -30 59t-92 48q-44 18 -78 37.5t-57 43.5t-35.5 53.5t-12.5 66.5q0 92 62.5 141.5t167.5 49.5q54 0 99 -10t87 -32
l-26 -107q-35 17 -73.5 27.5t-78.5 10.5q-44 0 -71 -16.5t-27 -51.5q0 -16 4.5 -28t16.5 -22.5t31.5 -21t49.5 -23.5q40 -17 76.5 -36t64.5 -44t45 -58t17 -76zM183 726l75 120h161l-123 -120h-113z" />
    <glyph glyph-name="sacute" unicode="&#x15b;" horiz-adv-x="433" 
d="M405 152q0 -39 -16 -69.5t-44 -51t-66 -31t-83 -10.5q-38 0 -82.5 8.5t-77.5 22.5l20 97q32 -13 66 -20.5t69 -7.5q34 0 56.5 10t22.5 36q0 23 -22 33.5t-58 25.5q-29 12 -56 24.5t-47.5 30t-33 41t-12.5 58.5q0 38 14.5 66t40 46t60 27t74.5 9q42 0 80.5 -7.5
t74.5 -26.5l-21 -97q-29 13 -60.5 21.5t-63.5 8.5q-29 0 -46.5 -6.5t-17.5 -27.5q0 -20 21 -30t50 -23q21 -9 48.5 -20.5t51.5 -29.5t41 -43.5t17 -63.5zM145 558l73 166h151l-111 -166h-113z" />
    <glyph glyph-name="Scircumflex" unicode="&#x15c;" horiz-adv-x="527" 
d="M494 190q0 -44 -18 -81t-50.5 -64t-78.5 -42t-102 -15q-53 0 -106.5 11.5t-98.5 33.5l29 107q36 -17 80.5 -29t91.5 -12q50 0 81.5 20.5t31.5 59.5q0 36 -30 59t-92 48q-44 18 -78 37.5t-57 43.5t-35.5 53.5t-12.5 66.5q0 92 62.5 141.5t167.5 49.5q54 0 99 -10t87 -32
l-26 -107q-35 17 -73.5 27.5t-78.5 10.5q-44 0 -71 -16.5t-27 -51.5q0 -16 4.5 -28t16.5 -22.5t31.5 -21t49.5 -23.5q40 -17 76.5 -36t64.5 -44t45 -58t17 -76zM425 726h-117l-44 58l-44 -58h-117l93 120h136z" />
    <glyph glyph-name="scircumflex" unicode="&#x15d;" horiz-adv-x="433" 
d="M405 152q0 -39 -16 -69.5t-44 -51t-66 -31t-83 -10.5q-38 0 -82.5 8.5t-77.5 22.5l20 97q32 -13 66 -20.5t69 -7.5q34 0 56.5 10t22.5 36q0 23 -22 33.5t-58 25.5q-29 12 -56 24.5t-47.5 30t-33 41t-12.5 58.5q0 38 14.5 66t40 46t60 27t74.5 9q42 0 80.5 -7.5
t74.5 -26.5l-21 -97q-29 13 -60.5 21.5t-63.5 8.5q-29 0 -46.5 -6.5t-17.5 -27.5q0 -20 21 -30t50 -23q21 -9 48.5 -20.5t51.5 -29.5t41 -43.5t17 -63.5zM386 558h-115l-55 93l-55 -93h-115l108 166h124z" />
    <glyph glyph-name="Scedilla" unicode="&#x15e;" horiz-adv-x="527" 
d="M360 -117q0 -24 -13.5 -42t-37 -30t-55 -18.5t-66.5 -8.5l-9 67q28 3 49.5 10t21.5 24q0 9 -6.5 15t-16.5 10t-22 5.5t-24 3.5l27 71q-45 3 -88 14t-80 29l29 107q36 -17 80.5 -29t91.5 -12q50 0 81.5 20.5t31.5 59.5q0 36 -30 59t-92 48q-44 18 -78 37.5t-57 43.5
t-35.5 53.5t-12.5 66.5q0 92 62.5 141.5t167.5 49.5q54 0 99 -10t87 -32l-26 -107q-35 17 -73.5 27.5t-78.5 10.5q-44 0 -71 -16.5t-27 -51.5q0 -16 4.5 -28t16.5 -22.5t31.5 -21t49.5 -23.5q40 -17 76.5 -36t64.5 -44t45 -58t17 -76q0 -40 -15 -75t-43 -61t-68 -43t-89 -21
l-10 -31q38 -4 64.5 -22.5t26.5 -53.5z" />
    <glyph glyph-name="Scedilla" unicode="&#xf6c1;" horiz-adv-x="527" 
d="M360 -117q0 -24 -13.5 -42t-37 -30t-55 -18.5t-66.5 -8.5l-9 67q28 3 49.5 10t21.5 24q0 9 -6.5 15t-16.5 10t-22 5.5t-24 3.5l27 71q-45 3 -88 14t-80 29l29 107q36 -17 80.5 -29t91.5 -12q50 0 81.5 20.5t31.5 59.5q0 36 -30 59t-92 48q-44 18 -78 37.5t-57 43.5
t-35.5 53.5t-12.5 66.5q0 92 62.5 141.5t167.5 49.5q54 0 99 -10t87 -32l-26 -107q-35 17 -73.5 27.5t-78.5 10.5q-44 0 -71 -16.5t-27 -51.5q0 -16 4.5 -28t16.5 -22.5t31.5 -21t49.5 -23.5q40 -17 76.5 -36t64.5 -44t45 -58t17 -76q0 -40 -15 -75t-43 -61t-68 -43t-89 -21
l-10 -31q38 -4 64.5 -22.5t26.5 -53.5z" />
    <glyph glyph-name="scedilla" unicode="&#x15f;" horiz-adv-x="433" 
d="M314 -117q0 -24 -13.5 -42t-37 -30t-55 -18.5t-66.5 -8.5l-9 67q28 3 49.5 10t21.5 24q0 9 -6.5 15t-16.5 10t-22 5.5t-24 3.5l27 73q-33 3 -66.5 10.5t-59.5 18.5l20 97q32 -13 66 -20.5t69 -7.5q34 0 56.5 10t22.5 36q0 23 -22 33.5t-58 25.5q-29 12 -56 24.5t-47.5 30
t-33 41t-12.5 58.5q0 38 14.5 66t40 46t60 27t74.5 9q42 0 80.5 -7.5t74.5 -26.5l-21 -97q-29 13 -60.5 21.5t-63.5 8.5q-29 0 -46.5 -6.5t-17.5 -27.5q0 -20 21 -30t50 -23q21 -9 48.5 -20.5t51.5 -29.5t41 -43.5t17 -63.5q0 -35 -13 -63t-35.5 -48t-54 -32.5t-68.5 -16.5
l-11 -33q38 -4 64.5 -22.5t26.5 -53.5z" />
    <glyph glyph-name="scedilla" unicode="&#xf6c2;" horiz-adv-x="433" 
d="M314 -117q0 -24 -13.5 -42t-37 -30t-55 -18.5t-66.5 -8.5l-9 67q28 3 49.5 10t21.5 24q0 9 -6.5 15t-16.5 10t-22 5.5t-24 3.5l27 73q-33 3 -66.5 10.5t-59.5 18.5l20 97q32 -13 66 -20.5t69 -7.5q34 0 56.5 10t22.5 36q0 23 -22 33.5t-58 25.5q-29 12 -56 24.5t-47.5 30
t-33 41t-12.5 58.5q0 38 14.5 66t40 46t60 27t74.5 9q42 0 80.5 -7.5t74.5 -26.5l-21 -97q-29 13 -60.5 21.5t-63.5 8.5q-29 0 -46.5 -6.5t-17.5 -27.5q0 -20 21 -30t50 -23q21 -9 48.5 -20.5t51.5 -29.5t41 -43.5t17 -63.5q0 -35 -13 -63t-35.5 -48t-54 -32.5t-68.5 -16.5
l-11 -33q38 -4 64.5 -22.5t26.5 -53.5z" />
    <glyph glyph-name="Scaron" unicode="&#x160;" horiz-adv-x="527" 
d="M494 190q0 -44 -18 -81t-50.5 -64t-78.5 -42t-102 -15q-53 0 -106.5 11.5t-98.5 33.5l29 107q36 -17 80.5 -29t91.5 -12q50 0 81.5 20.5t31.5 59.5q0 36 -30 59t-92 48q-44 18 -78 37.5t-57 43.5t-35.5 53.5t-12.5 66.5q0 92 62.5 141.5t167.5 49.5q54 0 99 -10t87 -32
l-26 -107q-35 17 -73.5 27.5t-78.5 10.5q-44 0 -71 -16.5t-27 -51.5q0 -16 4.5 -28t16.5 -22.5t31.5 -21t49.5 -23.5q40 -17 76.5 -36t64.5 -44t45 -58t17 -76zM323 726h-136l-93 120h117l44 -58l44 58h117z" />
    <glyph glyph-name="scaron" unicode="&#x161;" horiz-adv-x="433" 
d="M405 152q0 -39 -16 -69.5t-44 -51t-66 -31t-83 -10.5q-38 0 -82.5 8.5t-77.5 22.5l20 97q32 -13 66 -20.5t69 -7.5q34 0 56.5 10t22.5 36q0 23 -22 33.5t-58 25.5q-29 12 -56 24.5t-47.5 30t-33 41t-12.5 58.5q0 38 14.5 66t40 46t60 27t74.5 9q42 0 80.5 -7.5
t74.5 -26.5l-21 -97q-29 13 -60.5 21.5t-63.5 8.5q-29 0 -46.5 -6.5t-17.5 -27.5q0 -20 21 -30t50 -23q21 -9 48.5 -20.5t51.5 -29.5t41 -43.5t17 -63.5zM275 558h-124l-108 166h115l55 -93l55 93h115z" />
    <glyph glyph-name="Tcommaaccent" unicode="&#x162;" horiz-adv-x="546" 
d="M527 666v-112h-184v-554h-140v554h-184v112h508zM175 -208q31 71 31 146h128q0 -55 -15.5 -100.5t-49.5 -87.5z" />
    <glyph glyph-name="Tcommaaccent" unicode="&#x21a;" horiz-adv-x="546" 
d="M527 666v-112h-184v-554h-140v554h-184v112h508zM175 -208q31 71 31 146h128q0 -55 -15.5 -100.5t-49.5 -87.5z" />
    <glyph glyph-name="tcommaaccent" unicode="&#x163;" horiz-adv-x="401" 
d="M15 487h79v126h137v-126h146v-107h-146v-209q0 -34 12.5 -54t49.5 -20q39 0 74 11l10 -97q-22 -9 -55 -15t-66 -6q-44 0 -74.5 13.5t-50 37.5t-28.5 56t-9 70v213h-79v107zM153 -208q31 71 31 146h128q0 -55 -15.5 -100.5t-49.5 -87.5z" />
    <glyph glyph-name="tcommaaccent" unicode="&#x21b;" horiz-adv-x="401" 
d="M15 487h79v126h137v-126h146v-107h-146v-209q0 -34 12.5 -54t49.5 -20q39 0 74 11l10 -97q-22 -9 -55 -15t-66 -6q-44 0 -74.5 13.5t-50 37.5t-28.5 56t-9 70v213h-79v107zM153 -208q31 71 31 146h128q0 -55 -15.5 -100.5t-49.5 -87.5z" />
    <glyph glyph-name="Tcaron" unicode="&#x164;" horiz-adv-x="546" 
d="M527 666v-112h-184v-554h-140v554h-184v112h508zM341 726h-136l-93 120h117l44 -58l44 58h117z" />
    <glyph glyph-name="tcaron" unicode="&#x165;" horiz-adv-x="401" 
d="M15 487h78v126h138v-126h146v-107h-146v-209q0 -34 12.5 -54t49.5 -20q39 0 74 11l10 -97q-22 -9 -55 -15t-66 -6q-44 0 -74.5 13.5t-50 37.5t-28.5 56t-9 70v213h-79v107zM276 604q15 32 24.5 71.5t11.5 74.5l121 -11q-10 -97 -67 -177z" />
    <glyph glyph-name="Tbar" unicode="&#x166;" horiz-adv-x="546" 
d="M343 257v-257h-140v257h-116v105h116v192h-184v112h508v-112h-184v-192h116v-105h-116z" />
    <glyph glyph-name="tbar" unicode="&#x167;" horiz-adv-x="401" 
d="M15 304h79v76h-79v107h78v126h138v-126h146v-107h-146v-76h121v-98h-121v-35q0 -34 12.5 -54t49.5 -20q39 0 74 11l10 -97q-22 -9 -55 -15t-66 -6q-44 0 -74.5 13.5t-50 37.5t-28.5 56t-9 70v39h-79v98z" />
    <glyph glyph-name="Utilde" unicode="&#x168;" horiz-adv-x="686" 
d="M478 666h140v-426q0 -57 -19 -103.5t-54 -79.5t-86.5 -51t-115.5 -18q-65 0 -116 18t-86 51t-54 79.5t-19 103.5v426h140v-432q0 -63 34 -98.5t101 -35.5t101 35.5t34 98.5v432zM432 726q-22 0 -44 5.5t-46 14.5q-20 8 -36.5 13.5t-30.5 5.5q-17 0 -25.5 -11t-14.5 -30
l-84 30q14 54 38.5 81t76.5 27q24 0 46 -6t43 -14q20 -8 36 -14t28 -6q17 0 25.5 12t17.5 29l78 -37q-18 -46 -40.5 -73t-67.5 -27z" />
    <glyph glyph-name="utilde" unicode="&#x169;" horiz-adv-x="567" 
d="M502 487v-487h-132v66q-26 -39 -62 -57.5t-80 -18.5q-47 0 -80 20t-53.5 53.5t-29.5 78t-9 92.5v253h137v-254q0 -66 18.5 -100t65.5 -34q30 0 52 14t36 33v341h137zM372 565q-21 0 -42 8.5t-41 16.5q-17 8 -31 14t-26 6q-18 0 -26.5 -12.5t-19.5 -34.5l-77 36
q19 59 45 85t75 26q23 0 40.5 -7.5t37.5 -16.5q18 -8 32 -14.5t25 -6.5q18 0 27 12t20 33l76 -38q-14 -30 -26 -50.5t-25 -33t-28 -18t-36 -5.5z" />
    <glyph glyph-name="Umacron" unicode="&#x16a;" horiz-adv-x="686" 
d="M478 666h140v-426q0 -57 -19 -103.5t-54 -79.5t-86.5 -51t-115.5 -18q-65 0 -116 18t-86 51t-54 79.5t-19 103.5v426h140v-432q0 -63 34 -98.5t101 -35.5t101 35.5t34 98.5v432zM173 841h340v-104h-340v104z" />
    <glyph glyph-name="umacron" unicode="&#x16b;" horiz-adv-x="567" 
d="M502 487v-487h-132v66q-26 -39 -62 -57.5t-80 -18.5q-47 0 -80 20t-53.5 53.5t-29.5 78t-9 92.5v253h137v-254q0 -66 18.5 -100t65.5 -34q30 0 52 14t36 33v341h137zM138 681h301v-104h-301v104z" />
    <glyph glyph-name="Ubreve" unicode="&#x16c;" horiz-adv-x="686" 
d="M478 666h140v-426q0 -57 -19 -103.5t-54 -79.5t-86.5 -51t-115.5 -18q-65 0 -116 18t-86 51t-54 79.5t-19 103.5v426h140v-432q0 -63 34 -98.5t101 -35.5t101 35.5t34 98.5v432zM505 844q-15 -60 -58.5 -90.5t-103.5 -30.5t-103.5 30.5t-58.5 90.5l91 26q8 -26 24.5 -44
t46.5 -18t46.5 18t24.5 44z" />
    <glyph glyph-name="ubreve" unicode="&#x16d;" horiz-adv-x="567" 
d="M502 487v-487h-132v66q-26 -39 -62 -57.5t-80 -18.5q-47 0 -80 20t-53.5 53.5t-29.5 78t-9 92.5v253h137v-254q0 -66 18.5 -100t65.5 -34q30 0 52 14t36 33v341h137zM453 702q-11 -70 -55 -107t-110 -37t-110 37t-55 107l91 19q5 -32 22 -54.5t52 -22.5t52 22.5t22 54.5z
" />
    <glyph glyph-name="Uring" unicode="&#x16e;" horiz-adv-x="686" 
d="M478 666h140v-426q0 -57 -19 -103.5t-54 -79.5t-86.5 -51t-115.5 -18q-65 0 -116 18t-86 51t-54 79.5t-19 103.5v426h140v-432q0 -63 34 -98.5t101 -35.5t101 35.5t34 98.5v432zM442 816q0 -17 -6.5 -33t-19 -29t-31.5 -20.5t-43 -7.5t-42.5 7.5t-31 20.5t-19 29t-6.5 33
t6.5 33.5t19 29t31 20.5t42.5 8t43 -8t31.5 -20.5t19 -29t6.5 -33.5zM303 816q0 -17 10 -28.5t29 -11.5t29.5 11.5t10.5 28.5t-10.5 29t-29.5 12t-29 -12t-10 -29z" />
    <glyph glyph-name="uring" unicode="&#x16f;" horiz-adv-x="567" 
d="M502 487v-487h-132v66q-26 -39 -62 -57.5t-80 -18.5q-47 0 -80 20t-53.5 53.5t-29.5 78t-9 92.5v253h137v-254q0 -66 18.5 -100t65.5 -34q30 0 52 14t36 33v341h137zM383 645q0 -17 -6.5 -33t-19 -29t-31.5 -20.5t-43 -7.5t-42.5 7.5t-31 20.5t-19 29t-6.5 33t6.5 33.5
t19 29t31 20.5t42.5 8t43 -8t31.5 -20.5t19 -29t6.5 -33.5zM244 645q0 -17 10 -28.5t29 -11.5t29.5 11.5t10.5 28.5t-10.5 29t-29.5 12t-29 -12t-10 -29z" />
    <glyph glyph-name="Uhungarumlaut" unicode="&#x170;" horiz-adv-x="686" 
d="M478 666h140v-426q0 -57 -19 -103.5t-54 -79.5t-86.5 -51t-115.5 -18q-65 0 -116 18t-86 51t-54 79.5t-19 103.5v426h140v-432q0 -63 34 -98.5t101 -35.5t101 35.5t34 98.5v432zM181 726l44 120h136l-72 -120h-108zM384 726l44 120h136l-72 -120h-108z" />
    <glyph glyph-name="uhungarumlaut" unicode="&#x171;" horiz-adv-x="567" 
d="M502 487v-487h-132v66q-26 -39 -62 -57.5t-80 -18.5q-47 0 -80 20t-53.5 53.5t-29.5 78t-9 92.5v253h137v-254q0 -66 18.5 -100t65.5 -34q30 0 52 14t36 33v341h137zM138 558l53 166h131l-83 -166h-101zM332 558l53 166h131l-83 -166h-101z" />
    <glyph glyph-name="Uogonek" unicode="&#x172;" horiz-adv-x="686" 
d="M473 -198q-38 -18 -89 -18t-78.5 24.5t-27.5 69.5q0 20 6.5 36.5t16.5 30t22 24.5t24 19h-4q-65 0 -116 18t-86 51t-54 79.5t-19 103.5v426h140v-432q0 -63 34 -98.5t101 -35.5t101 35.5t34 98.5v432h140v-426q0 -71 -27 -119t-74 -86q-23 -19 -45.5 -36.5t-40.5 -35
t-29.5 -34t-11.5 -33.5t9.5 -25t25.5 -8q9 0 20.5 1.5t19.5 4.5z" />
    <glyph glyph-name="uogonek" unicode="&#x173;" horiz-adv-x="567" 
d="M500 -198q-38 -18 -89 -18t-78.5 27.5t-27.5 72.5q0 21 6 38t15 31t20.5 25.5t23.5 21.5v66q-26 -39 -62 -57.5t-80 -18.5q-47 0 -80 20t-53.5 53.5t-29.5 78t-9 92.5v253h137v-254q0 -66 18.5 -100t65.5 -34q30 0 52 14t36 33v341h137v-487q-15 -9 -30 -20.5
t-27.5 -24.5t-20 -27.5t-7.5 -29.5t8 -25t27 -10q9 0 20.5 1.5t19.5 4.5z" />
    <glyph glyph-name="Wcircumflex" unicode="&#x174;" horiz-adv-x="978" 
d="M702 177l118 489h142l-186 -666h-142l-145 522l-145 -522h-142l-186 666h142l118 -489l134 489h158zM650 726h-117l-44 58l-44 -58h-117l93 120h136z" />
    <glyph glyph-name="wcircumflex" unicode="&#x175;" horiz-adv-x="782" 
d="M565 166l79 321h131l-140 -487h-128l-116 343l-116 -343h-128l-140 487h131l79 -321l107 321h134zM561 558h-115l-55 93l-55 -93h-115l108 166h124z" />
    <glyph glyph-name="Ycircumflex" unicode="&#x176;" horiz-adv-x="580" 
d="M427 666h153l-220 -417v-249h-140v249l-220 417h153l137 -293zM451 726h-117l-44 58l-44 -58h-117l93 120h136z" />
    <glyph glyph-name="ycircumflex" unicode="&#x177;" horiz-adv-x="493" 
d="M118 -206l66 191l-179 502h142l103 -362l99 362h139l-233 -693h-137zM425 558h-115l-55 93l-55 -93h-115l108 166h124z" />
    <glyph glyph-name="Ydieresis" unicode="&#x178;" horiz-adv-x="580" 
d="M427 666h153l-220 -417v-249h-140v249l-220 417h153l137 -293zM117 790q0 27 18.5 45.5t49.5 18.5q30 0 48.5 -18.5t18.5 -45.5q0 -29 -18.5 -47t-48.5 -18q-31 0 -49.5 18t-18.5 47zM327 790q0 27 18.5 45.5t49.5 18.5q30 0 48.5 -18.5t18.5 -45.5q0 -29 -18.5 -47
t-48.5 -18q-31 0 -49.5 18t-18.5 47z" />
    <glyph glyph-name="Zacute" unicode="&#x179;" horiz-adv-x="567" 
d="M65 666h454v-112l-311 -442h317v-112h-472v112l311 442h-299v112zM219 726l75 120h161l-123 -120h-113z" />
    <glyph glyph-name="zacute" unicode="&#x17a;" horiz-adv-x="471" 
d="M49 0v99l225 288h-214v100h366v-100l-225 -287h233v-100h-385zM173 558l73 166h151l-111 -166h-113z" />
    <glyph glyph-name="Zdotaccent" unicode="&#x17b;" horiz-adv-x="567" 
d="M65 666h454v-112l-311 -442h317v-112h-472v112l311 442h-299v112zM214 801q0 33 22 56t57 23t57.5 -23t22.5 -56q0 -32 -22.5 -55.5t-57.5 -23.5t-57 23.5t-22 55.5z" />
    <glyph glyph-name="zdotaccent" unicode="&#x17c;" horiz-adv-x="471" 
d="M49 0v99l225 288h-214v100h366v-100l-225 -287h233v-100h-385zM168 629q0 33 22 56t57 23t57.5 -23t22.5 -56q0 -32 -22.5 -55.5t-57.5 -23.5t-57 23.5t-22 55.5z" />
    <glyph glyph-name="Zcaron" unicode="&#x17d;" horiz-adv-x="567" 
d="M65 666h454v-112l-311 -442h317v-112h-472v112l311 442h-299v112zM365 726h-136l-93 120h117l44 -58l44 58h117z" />
    <glyph glyph-name="zcaron" unicode="&#x17e;" horiz-adv-x="471" 
d="M49 0v99l225 288h-214v100h366v-100l-225 -287h233v-100h-385zM315 558h-124l-108 166h115l55 -93l55 93h115z" />
    <glyph glyph-name="florin" unicode="&#x192;" horiz-adv-x="539" 
d="M105 320v106h99l1 20q6 117 58 173.5t148 56.5q26 0 49.5 -3t43.5 -11l-12 -101q-11 3 -26.5 5.5t-32.5 2.5q-48 0 -68 -28t-24 -96l-1 -19h111v-106h-121l-10 -138q-4 -57 -14.5 -112.5t-35 -99.5t-67.5 -71.5t-112 -27.5q-20 0 -46 4t-45 11l14 100q30 -8 59 -8
q34 0 54.5 14t32 40.5t16.5 64.5t8 85l10 138h-89z" />
    <glyph glyph-name="Aringacute" unicode="&#x1fa;" horiz-adv-x="696" 
d="M292 846l62 107h150l-96 -107h-116zM448 723q0 -33 -23 -59l252 -664h-145l-47 140h-274l-47 -140h-145l252 664q-22 27 -22 59q0 17 6.5 33.5t19 29t31 20.5t42.5 8t43 -8t31.5 -20.5t19 -29t6.5 -33.5zM348 554l-100 -303h200zM309 723q0 -17 9.5 -29.5t29.5 -12.5
t30 12.5t10 29.5t-10 29t-30 12t-29.5 -12t-9.5 -29z" />
    <glyph glyph-name="aringacute" unicode="&#x1fb;" horiz-adv-x="525" 
d="M333 52q-27 -26 -65 -44t-88 -18q-32 0 -58 10.5t-44 29t-28 43.5t-10 55q0 67 45 102t123 40q30 2 62 3t58 2v17q0 47 -23 71.5t-72 24.5q-38 0 -72 -9t-60 -23l-27 96q38 22 84 33.5t99 11.5q97 0 152.5 -53t55.5 -157v-287h-132v52zM230 83q29 0 54 10t44 25v77
q-21 -2 -45 -4t-44 -5q-30 -5 -48 -16.5t-18 -38.5q0 -24 15.5 -36t41.5 -12zM361 638q0 -17 -6.5 -33t-19 -29t-31.5 -20.5t-43 -7.5t-42.5 7.5t-31 20.5t-19 29t-6.5 33t6.5 33.5t19 29t31 20.5t42.5 8t43 -8t31.5 -20.5t19 -29t6.5 -33.5zM222 638q0 -17 10 -28.5
t29 -11.5t29.5 11.5t10.5 28.5t-10.5 29t-29.5 12t-29 -12t-10 -29zM208 774l62 107h150l-96 -107h-116z" />
    <glyph glyph-name="AEacute" unicode="&#x1fc;" horiz-adv-x="897" 
d="M842 555h-298l20 -161h262v-111h-248l23 -172h244v-111h-358l-18 140h-252l-77 -140h-145l386 666h461v-111zM281 251h174l-31 281zM425 726l75 120h161l-123 -120h-113z" />
    <glyph glyph-name="aeacute" unicode="&#x1fd;" horiz-adv-x="806" 
d="M572 497q49 0 86.5 -15.5t62.5 -43.5t37.5 -66.5t12.5 -84.5q0 -19 -3 -40.5t-7 -37.5h-289q1 -54 33.5 -86t98.5 -32q37 0 72 6.5t70 22.5l17 -93q-38 -20 -81.5 -28.5t-94.5 -8.5q-63 0 -111.5 19t-80.5 54q-42 -34 -91 -53.5t-109 -19.5q-38 0 -66.5 10.5t-48.5 29
t-30 44t-10 54.5q0 69 43 103t121 41q33 3 65.5 5t61.5 4v13q0 45 -23 71t-74 26q-41 0 -74.5 -9t-65.5 -24l-26 96q32 19 76.5 31t101.5 12q51 0 91 -16t70 -54q58 70 165 70zM564 405q-39 0 -64 -28.5t-27 -75.5h167q7 45 -12 74.5t-64 29.5zM353 124q-15 35 -19 72
q-23 -2 -50 -5t-50 -6q-29 -5 -46 -16t-17 -37q0 -24 16 -36.5t43 -12.5q33 0 65 11t58 30zM359 558l73 166h151l-111 -166h-113z" />
    <glyph glyph-name="Oslashacute" unicode="&#x1fe;" horiz-adv-x="752" 
d="M126 92q-42 48 -63.5 109.5t-21.5 131.5t22 133t65 110t105.5 74.5t142.5 27.5q56 0 103 -14t85 -38l85 104l62 -52l-86 -105q42 -47 64 -108.5t22 -131.5q0 -71 -22.5 -133.5t-65 -109.5t-105 -74.5t-142.5 -27.5q-56 0 -103 13.5t-85 37.5l-84 -103l-63 52zM376 97
q49 0 85.5 18t61 49.5t36.5 75t12 93.5q0 79 -30 138l-278 -340q46 -34 113 -34zM181 333q0 -39 7 -74t22 -64l278 339q-22 17 -50 26t-62 9q-49 0 -85.5 -18t-61 -49.5t-36.5 -75t-12 -93.5zM307 726l75 120h161l-123 -120h-113z" />
    <glyph glyph-name="oslashacute" unicode="&#x1ff;" horiz-adv-x="572" 
d="M103 60q-34 35 -51 82t-17 101q0 53 16.5 99t48.5 80.5t78.5 54.5t107.5 20q40 0 74 -9t62 -25l68 86l47 -38l-68 -85q34 -35 51 -82t17 -101q0 -53 -16.5 -99t-48.5 -80.5t-78.5 -54t-107.5 -19.5q-41 0 -74.5 8.5t-61.5 24.5l-68 -85l-47 37zM172 243q0 -22 2.5 -42
t9.5 -38l167 211q-26 21 -65 21q-32 0 -53.5 -12.5t-35 -33.5t-19.5 -48.5t-6 -57.5zM400 243q0 21 -3 41.5t-10 38.5l-167 -211q26 -20 66 -20q31 0 53 12.5t35.5 33.5t19.5 48t6 57zM220 558l73 166h151l-111 -166h-113z" />
    <glyph glyph-name="Scommaaccent" unicode="&#x218;" horiz-adv-x="527" 
d="M494 190q0 -44 -18 -81t-50.5 -64t-78.5 -42t-102 -15q-53 0 -106.5 11.5t-98.5 33.5l29 107q36 -17 80.5 -29t91.5 -12q50 0 81.5 20.5t31.5 59.5q0 36 -30 59t-92 48q-44 18 -78 37.5t-57 43.5t-35.5 53.5t-12.5 66.5q0 92 62.5 141.5t167.5 49.5q54 0 99 -10t87 -32
l-26 -107q-35 17 -73.5 27.5t-78.5 10.5q-44 0 -71 -16.5t-27 -51.5q0 -16 4.5 -28t16.5 -22.5t31.5 -21t49.5 -23.5q40 -17 76.5 -36t64.5 -44t45 -58t17 -76zM172 -208q31 71 31 146h128q0 -55 -15.5 -100.5t-49.5 -87.5z" />
    <glyph glyph-name="scommaaccent" unicode="&#x219;" horiz-adv-x="433" 
d="M405 152q0 -39 -16 -69.5t-44 -51t-66 -31t-83 -10.5q-38 0 -82.5 8.5t-77.5 22.5l20 97q32 -13 66 -20.5t69 -7.5q34 0 56.5 10t22.5 36q0 23 -22 33.5t-58 25.5q-29 12 -56 24.5t-47.5 30t-33 41t-12.5 58.5q0 38 14.5 66t40 46t60 27t74.5 9q42 0 80.5 -7.5
t74.5 -26.5l-21 -97q-29 13 -60.5 21.5t-63.5 8.5q-29 0 -46.5 -6.5t-17.5 -27.5q0 -20 21 -30t50 -23q21 -9 48.5 -20.5t51.5 -29.5t41 -43.5t17 -63.5zM116 -208q31 71 31 146h128q0 -55 -15.5 -100.5t-49.5 -87.5z" />
    <glyph glyph-name="circumflex" unicode="&#x2c6;" horiz-adv-x="550" 
d="M445 558h-115l-55 93l-55 -93h-115l108 166h124z" />
    <glyph glyph-name="caron" unicode="&#x2c7;" horiz-adv-x="550" 
d="M337 558h-124l-108 166h115l55 -93l55 93h115z" />
    <glyph glyph-name="breve" unicode="&#x2d8;" horiz-adv-x="540" 
d="M435 702q-11 -70 -55 -107t-110 -37t-110 37t-55 107l91 19q5 -32 22 -54.5t52 -22.5t52 22.5t22 54.5z" />
    <glyph glyph-name="dotaccent" unicode="&#x2d9;" horiz-adv-x="369" 
d="M105 629q0 33 22 56t57 23t57.5 -23t22.5 -56q0 -32 -22.5 -55.5t-57.5 -23.5t-57 23.5t-22 55.5z" />
    <glyph glyph-name="ring" unicode="&#x2da;" horiz-adv-x="409" 
d="M304 645q0 -17 -6.5 -33t-19 -29t-31.5 -20.5t-43 -7.5t-42.5 7.5t-31 20.5t-19 29t-6.5 33t6.5 33.5t19 29t31 20.5t42.5 8t43 -8t31.5 -20.5t19 -29t6.5 -33.5zM165 645q0 -17 10 -28.5t29 -11.5t29.5 11.5t10.5 28.5t-10.5 29t-29.5 12t-29 -12t-10 -29z" />
    <glyph glyph-name="ogonek" unicode="&#x2db;" horiz-adv-x="407" 
d="M300 -198q-38 -18 -89 -18t-78.5 27.5t-27.5 72.5q0 21 6 38t15 31t20.5 25.5t23.5 21.5h132q-15 -9 -30 -20.5t-27.5 -24.5t-20 -27.5t-7.5 -29.5t8 -25t27 -10q9 0 20.5 1.5t19.5 4.5z" />
    <glyph glyph-name="tilde" unicode="&#x2dc;" horiz-adv-x="548" 
d="M348 565q-21 0 -42 8.5t-41 16.5q-17 8 -31 14t-26 6q-18 0 -26.5 -12.5t-19.5 -34.5l-77 36q19 59 45 85t75 26q23 0 40.5 -7.5t37.5 -16.5q18 -8 32 -14.5t25 -6.5q18 0 27 12t20 33l76 -38q-14 -30 -26 -50.5t-25 -33t-28 -18t-36 -5.5z" />
    <glyph glyph-name="hungarumlaut" unicode="&#x2dd;" horiz-adv-x="588" 
d="M105 558l53 166h131l-83 -166h-101zM299 558l53 166h131l-83 -166h-101z" />
    <glyph glyph-name="uni0312" unicode="&#x312;" horiz-adv-x="374" 
d="M269 702q-19 -28 -27.5 -65t-11.5 -79l-125 7q1 60 23 104.5t51 74.5z" />
    <glyph glyph-name="uni0315" unicode="&#x315;" horiz-adv-x="385" 
d="M105 495q26 52 38.5 103t15.5 108l121 -11q-2 -69 -26.5 -130.5t-62.5 -111.5z" />
    <glyph glyph-name="uni0326" unicode="&#x326;" horiz-adv-x="369" 
d="M105 -208q31 71 31 146h128q0 -55 -15.5 -100.5t-49.5 -87.5z" />
    <glyph glyph-name="Omega" unicode="&#x3a9;" horiz-adv-x="784" 
d="M729 374q0 -82 -35.5 -148t-98.5 -117h114v-109h-256v109q30 24 55.5 50.5t44 57.5t29.5 67.5t11 79.5q0 46 -13.5 83.5t-39 64.5t-63 42t-85.5 15t-85.5 -15t-63 -42t-39 -64.5t-13.5 -83.5q0 -43 11 -79.5t29.5 -67.5t44 -57.5t55.5 -50.5v-109h-256v109h114
q-63 51 -98.5 117t-35.5 148q0 71 25 127.5t69.5 95.5t106.5 60t136 21t136 -21t106.5 -60t69.5 -95.5t25 -127.5z" />
    <glyph glyph-name="pi" unicode="&#x3c0;" horiz-adv-x="732" 
d="M576 379q-17 -38 -27.5 -81.5t-10.5 -88.5q0 -23 4 -43.5t13.5 -35.5t26.5 -24t44 -9q20 0 41 6l13 -96q-17 -8 -43.5 -12.5t-49.5 -4.5q-45 0 -79.5 15.5t-58 43t-35 65t-11.5 82.5q0 54 12 99.5t27 83.5h-147v-33q0 -85 -18.5 -175t-49.5 -171h-139q32 90 52 173
t20 174v32h-110v108h640v-108h-114z" />
    <glyph glyph-name="Wgrave" unicode="&#x1e80;" horiz-adv-x="978" 
d="M702 177l118 489h142l-186 -666h-142l-145 522l-145 -522h-142l-186 666h142l118 -489l134 489h158zM432 726l-123 120h161l75 -120h-113z" />
    <glyph glyph-name="wgrave" unicode="&#x1e81;" horiz-adv-x="782" 
d="M565 166l79 321h131l-140 -487h-128l-116 343l-116 -343h-128l-140 487h131l79 -321l107 321h134zM334 558l-111 166h151l73 -166h-113z" />
    <glyph glyph-name="Wacute" unicode="&#x1e82;" horiz-adv-x="978" 
d="M702 177l118 489h142l-186 -666h-142l-145 522l-145 -522h-142l-186 666h142l118 -489l134 489h158zM431 726l75 120h161l-123 -120h-113z" />
    <glyph glyph-name="wacute" unicode="&#x1e83;" horiz-adv-x="782" 
d="M565 166l79 321h131l-140 -487h-128l-116 343l-116 -343h-128l-140 487h131l79 -321l107 321h134zM338 558l73 166h151l-111 -166h-113z" />
    <glyph glyph-name="Wdieresis" unicode="&#x1e84;" horiz-adv-x="978" 
d="M702 177l118 489h142l-186 -666h-142l-145 522l-145 -522h-142l-186 666h142l118 -489l134 489h158zM316 790q0 27 18.5 45.5t49.5 18.5q30 0 48.5 -18.5t18.5 -45.5q0 -29 -18.5 -47t-48.5 -18q-31 0 -49.5 18t-18.5 47zM526 790q0 27 18.5 45.5t49.5 18.5
q30 0 48.5 -18.5t18.5 -45.5q0 -29 -18.5 -47t-48.5 -18q-31 0 -49.5 18t-18.5 47z" />
    <glyph glyph-name="wdieresis" unicode="&#x1e85;" horiz-adv-x="782" 
d="M565 166l79 321h131l-140 -487h-128l-116 343l-116 -343h-128l-140 487h131l79 -321l107 321h134zM226 632q0 27 18.5 47.5t49.5 20.5t49.5 -20.5t18.5 -47.5q0 -29 -18.5 -48.5t-49.5 -19.5t-49.5 19.5t-18.5 48.5zM420 632q0 27 18.5 47.5t49.5 20.5t49.5 -20.5
t18.5 -47.5q0 -29 -18.5 -48.5t-49.5 -19.5t-49.5 19.5t-18.5 48.5z" />
    <glyph glyph-name="Ygrave" unicode="&#x1ef2;" horiz-adv-x="580" 
d="M427 666h153l-220 -417v-249h-140v249l-220 417h153l137 -293zM244 726l-123 120h161l75 -120h-113z" />
    <glyph glyph-name="ygrave" unicode="&#x1ef3;" horiz-adv-x="493" 
d="M118 -206l66 191l-179 502h142l103 -362l99 362h139l-233 -693h-137zM209 558l-111 166h151l73 -166h-113z" />
    <glyph glyph-name="endash" unicode="&#x2013;" horiz-adv-x="543" 
d="M65 265v107h413v-107h-413z" />
    <glyph glyph-name="emdash" unicode="&#x2014;" horiz-adv-x="809" 
d="M60 207v111h689v-111h-689z" />
    <glyph glyph-name="quoteleft" unicode="&#x2018;" horiz-adv-x="282" 
d="M242 658q-30 -60 -44 -117.5t-18 -123.5l-130 13q2 79 29.5 149t72.5 127z" />
    <glyph glyph-name="quoteright" unicode="&#x2019;" horiz-adv-x="282" 
d="M50 465q30 60 44 117.5t18 123.5l130 -13q-2 -79 -29.5 -149t-72.5 -127z" />
    <glyph glyph-name="quotesinglbase" unicode="&#x201a;" horiz-adv-x="289" 
d="M32 -109q30 60 44 117.5t18 123.5l130 -13q-2 -79 -29.5 -149t-72.5 -127z" />
    <glyph glyph-name="quotedblleft" unicode="&#x201c;" horiz-adv-x="497" 
d="M457 658q-30 -60 -44 -117.5t-18 -123.5l-130 13q2 79 29.5 149t72.5 127zM242 658q-30 -60 -44 -117.5t-18 -123.5l-130 13q2 79 29.5 149t72.5 127z" />
    <glyph glyph-name="quotedblright" unicode="&#x201d;" horiz-adv-x="497" 
d="M50 465q30 60 44 117.5t18 123.5l130 -13q-2 -79 -29.5 -149t-72.5 -127zM265 465q30 60 44 117.5t18 123.5l130 -13q-2 -79 -29.5 -149t-72.5 -127z" />
    <glyph glyph-name="quotedblbase" unicode="&#x201e;" horiz-adv-x="504" 
d="M32 -109q30 60 44 117.5t18 123.5l130 -13q-2 -79 -29.5 -149t-72.5 -127zM247 -109q30 60 44 117.5t18 123.5l130 -13q-2 -79 -29.5 -149t-72.5 -127z" />
    <glyph glyph-name="dagger" unicode="&#x2020;" horiz-adv-x="463" 
d="M191 92l-28 298l26 96l-75 -23h-59v113h59l75 -24l-26 97v57h137v-57l-26 -97l75 24h59v-113h-59l-75 23l26 -96l-27 -298h-82z" />
    <glyph glyph-name="daggerdbl" unicode="&#x2021;" horiz-adv-x="473" 
d="M194 486l-75 -23h-59v113h59l75 -24l-26 97v57h137v-57l-26 -97l75 24h59v-113h-59l-75 23l26 -96v-74l-26 -96l75 23h59v-113h-59l-75 24l26 -97v-57h-137v57l26 97l-75 -24h-59v113h59l75 -23l-26 96v74z" />
    <glyph glyph-name="bullet" unicode="&#x2022;" horiz-adv-x="428" 
d="M70 283q0 30 10.5 56.5t29.5 46t45.5 31t57.5 11.5t58 -11.5t46 -31t30 -46t11 -56.5q0 -29 -11 -55t-30 -45.5t-46 -31t-58 -11.5t-57.5 11.5t-45.5 31t-29.5 45.5t-10.5 55z" />
    <glyph glyph-name="ellipsis" unicode="&#x2026;" horiz-adv-x="834" 
d="M60 72q0 32 20.5 55.5t58.5 23.5t58.5 -23.5t20.5 -55.5t-20.5 -56t-58.5 -24t-58.5 24t-20.5 56zM338 72q0 32 20.5 55.5t58.5 23.5t58.5 -23.5t20.5 -55.5t-20.5 -56t-58.5 -24t-58.5 24t-20.5 56zM616 72q0 32 20.5 55.5t58.5 23.5t58.5 -23.5t20.5 -55.5t-20.5 -56
t-58.5 -24t-58.5 24t-20.5 56z" />
    <glyph glyph-name="perthousand" unicode="&#x2030;" horiz-adv-x="1406" 
d="M418 480q0 -36 -11 -71.5t-34 -63.5t-57.5 -45t-81.5 -17t-81.5 17t-57.5 45t-34 63.5t-11 71.5q0 37 11 72.5t34 63.5t57.5 45t81.5 17t81.5 -17t57.5 -45t34 -63.5t11 -72.5zM308 480q0 47 -18 78t-56 31t-56 -31t-18 -78t17.5 -77.5t56.5 -30.5t56.5 30.5t17.5 77.5z
M598 678l98 -47l-306 -643l-97 49zM937 185q0 -36 -11 -71.5t-34 -63.5t-57.5 -45t-81.5 -17t-81.5 17t-57.5 45t-34 63.5t-11 71.5q0 37 11 72.5t34 63.5t57.5 45t81.5 17t81.5 -17t57.5 -45t34 -63.5t11 -72.5zM827 185q0 47 -18 78t-56 31t-56 -31t-18 -78t17.5 -77.5
t56.5 -30.5t56.5 30.5t17.5 77.5zM1361 185q0 -36 -11 -71.5t-34 -63.5t-57.5 -45t-81.5 -17t-81.5 17t-57.5 45t-34 63.5t-11 71.5q0 37 11 72.5t34 63.5t57.5 45t81.5 17t81.5 -17t57.5 -45t34 -63.5t11 -72.5zM1251 185q0 47 -18 78t-56 31t-56 -31t-18 -78t17.5 -77.5
t56.5 -30.5t56.5 30.5t17.5 77.5z" />
    <glyph glyph-name="guilsinglleft" unicode="&#x2039;" horiz-adv-x="366" 
d="M182 241l121 -144l-87 -69l-176 213l176 213l87 -69z" />
    <glyph glyph-name="guilsinglright" unicode="&#x203a;" horiz-adv-x="366" 
d="M63 385l87 69l176 -213l-176 -213l-87 69l121 144z" />
    <glyph glyph-name="fraction" unicode="&#x2044;" horiz-adv-x="242" 
d="M249 678l88 -48l-344 -642l-88 48z" />
    <glyph glyph-name="uni2070" unicode="&#x2070;" horiz-adv-x="422" 
d="M395 620q0 -45 -12 -83.5t-35.5 -66.5t-57.5 -44t-79 -16t-79 16t-57.5 44t-35.5 66.5t-12 83.5t12 84t35.5 67t57.5 44t79 16t79 -16t57.5 -44t35.5 -67t12 -84zM278 620q0 54 -14.5 88.5t-52.5 34.5t-52.5 -34.5t-14.5 -88.5t14.5 -88t52.5 -34t52.5 34t14.5 88z" />
    <glyph glyph-name="uni2074" unicode="&#x2074;" horiz-adv-x="409" 
d="M325 513v-93h-108v93h-179l-21 75l188 233h120v-226h61v-82h-61zM217 722l-100 -127h100v127z" />
    <glyph glyph-name="uni2075" unicode="&#x2075;" horiz-adv-x="367" 
d="M337 547q0 -66 -49.5 -101.5t-127.5 -35.5q-33 0 -66.5 5t-61.5 15l15 83q20 -8 48 -12.5t53 -4.5q32 0 53 10.5t21 33.5q0 26 -21 35.5t-52 9.5h-94v236h255v-88h-144v-64h9q31 0 60 -6.5t51.5 -21t36.5 -38t14 -56.5z" />
    <glyph glyph-name="uni2076" unicode="&#x2076;" horiz-adv-x="391" 
d="M318 744q-69 -14 -110.5 -37.5t-63.5 -68.5q17 16 40 25t50 9t51.5 -8t43 -24t29 -38.5t10.5 -52.5t-12 -55.5t-33 -44t-51 -29t-66 -10.5q-41 0 -73.5 13t-55 36t-34 53.5t-11.5 65.5q0 52 18.5 94t53 73.5t82.5 53t108 32.5zM266 542q0 25 -15.5 39t-40.5 14
q-41 0 -68 -27q0 -35 17.5 -57.5t47.5 -22.5q27 0 43 15.5t16 38.5z" />
    <glyph glyph-name="uni2077" unicode="&#x2077;" horiz-adv-x="347" 
d="M334 744l-180 -324h-119l179 310h-184v91h290z" />
    <glyph glyph-name="uni2078" unicode="&#x2078;" horiz-adv-x="397" 
d="M33 526q0 38 25.5 62t60.5 41q-32 17 -51.5 40t-19.5 57q0 48 42 76.5t108 28.5q33 0 60.5 -7t47.5 -20t31.5 -32t11.5 -43q0 -34 -24 -57.5t-51 -37.5q19 -9 35.5 -19.5t28.5 -23.5t19 -28.5t7 -36.5q0 -26 -13.5 -47.5t-36 -36.5t-52.5 -23.5t-64 -8.5
q-78 0 -121.5 31.5t-43.5 84.5zM257 529q0 21 -18 35t-42 26q-26 -14 -41.5 -28t-15.5 -34t15.5 -31.5t42.5 -11.5q26 0 42.5 12.5t16.5 31.5zM150 723q0 -16 11.5 -28t36.5 -25q23 12 36 24t13 29q0 14 -11.5 25t-37.5 11q-23 0 -35.5 -10t-12.5 -26z" />
    <glyph glyph-name="uni2079" unicode="&#x2079;" horiz-adv-x="394" 
d="M79 496q66 14 109 38t64 69q-17 -16 -40.5 -25.5t-50.5 -9.5q-60 0 -96.5 33t-36.5 91q0 63 44 101t119 38q42 0 74.5 -13.5t54.5 -36.5t33 -53.5t11 -65.5q0 -53 -18.5 -95t-52.5 -73t-82 -52t-108 -32zM130 698q0 -26 15 -39.5t41 -13.5q42 0 68 28q1 35 -16.5 57
t-48.5 22q-25 0 -42 -13.5t-17 -40.5z" />
    <glyph glyph-name="uni207A" unicode="&#x207a;" horiz-adv-x="451" 
d="M282 573v-122h-113v122h-119v97h119v122h113v-122h119v-97h-119z" />
    <glyph glyph-name="uni207B" unicode="&#x207b;" horiz-adv-x="420" 
d="M50 573v97h320v-97h-320z" />
    <glyph glyph-name="uni207C" unicode="&#x207c;" horiz-adv-x="450" 
d="M58 657v92h334v-92h-334zM58 494v92h334v-92h-334z" />
    <glyph glyph-name="uni207D" unicode="&#x207d;" horiz-adv-x="275" 
d="M172 620q0 -62 22 -112t61 -105l-78 -56q-62 63 -92 127.5t-30 145.5t30 146t92 128l78 -56q-39 -55 -61 -105.5t-22 -112.5z" />
    <glyph glyph-name="uni207E" unicode="&#x207e;" horiz-adv-x="275" 
d="M103 620q0 62 -22 112.5t-61 105.5l78 56q62 -63 92 -128t30 -146t-30 -145.5t-92 -127.5l-78 56q39 55 61 105t22 112z" />
    <glyph glyph-name="uni207F" unicode="&#x207f;" horiz-adv-x="443" 
d="M50 420v347h110v-53q18 28 45 44.5t65 16.5q32 0 56 -13t40 -36t24 -54t8 -67v-185h-115v178q0 40 -14 63t-46 23q-19 0 -34 -8t-24 -19v-237h-115z" />
    <glyph glyph-name="uni2080" unicode="&#x2080;" horiz-adv-x="422" 
d="M395 37q0 -45 -12 -83.5t-35.5 -66.5t-57.5 -44t-79 -16t-79 16t-57.5 44t-35.5 66.5t-12 83.5t12 84t35.5 67t57.5 44t79 16t79 -16t57.5 -44t35.5 -67t12 -84zM278 37q0 54 -14.5 88.5t-52.5 34.5t-52.5 -34.5t-14.5 -88.5t14.5 -88t52.5 -34t52.5 34t14.5 88z" />
    <glyph glyph-name="uni2081" unicode="&#x2081;" horiz-adv-x="309" 
d="M132 -163v281l-90 -28l-24 92l151 56h80v-401h-117z" />
    <glyph glyph-name="uni2082" unicode="&#x2082;" horiz-adv-x="374" 
d="M47 214q58 34 136 34q33 0 61 -9t48.5 -26.5t32 -42t11.5 -54.5q0 -53 -30 -90t-76 -70q-13 -9 -21.5 -15.5t-18.5 -12.5h149v-91h-294l-20 70q32 26 62.5 51t50.5 42q12 11 26.5 23t26.5 25.5t20 28t8 30.5q0 49 -59 49q-25 0 -48.5 -7.5t-41.5 -17.5z" />
    <glyph glyph-name="uni2083" unicode="&#x2083;" horiz-adv-x="363" 
d="M328 -52q0 -57 -48 -89t-124 -32q-32 0 -66.5 7t-56.5 18l18 80q21 -9 46 -14t47 -5q31 0 49.5 10t18.5 31q0 24 -20.5 33.5t-48.5 9.5h-66v85h55q70 0 70 44q0 19 -15 27.5t-38 8.5q-25 0 -46 -5t-41 -14l-18 79q29 14 61.5 20t67.5 6q31 0 57.5 -7t45.5 -20t30 -32.5
t11 -44.5q0 -35 -19 -60t-57 -38q37 -11 62 -34t25 -64z" />
    <glyph glyph-name="uni2084" unicode="&#x2084;" horiz-adv-x="409" 
d="M325 -70v-93h-108v93h-179l-21 75l188 233h120v-226h61v-82h-61zM217 139l-100 -127h100v127z" />
    <glyph glyph-name="uni2085" unicode="&#x2085;" horiz-adv-x="367" 
d="M337 -36q0 -66 -49.5 -101.5t-127.5 -35.5q-33 0 -66.5 5t-61.5 15l15 83q20 -8 48 -12.5t53 -4.5q32 0 53 10.5t21 33.5q0 26 -21 35.5t-52 9.5h-94v236h255v-88h-144v-64h9q31 0 60 -6.5t51.5 -21t36.5 -38t14 -56.5z" />
    <glyph glyph-name="uni2086" unicode="&#x2086;" horiz-adv-x="391" 
d="M318 161q-69 -14 -110.5 -37.5t-63.5 -68.5q17 16 40 25t50 9t51.5 -8t43 -24t29 -38.5t10.5 -52.5t-12 -55.5t-33 -44t-51 -29t-66 -10.5q-41 0 -73.5 13t-55 36t-34 53.5t-11.5 65.5q0 52 18.5 94t53 73.5t82.5 53t108 32.5zM266 -41q0 25 -15.5 39t-40.5 14
q-41 0 -68 -27q0 -35 17.5 -57.5t47.5 -22.5q27 0 43 15.5t16 38.5z" />
    <glyph glyph-name="uni2087" unicode="&#x2087;" horiz-adv-x="347" 
d="M334 161l-180 -324h-119l179 310h-184v91h290z" />
    <glyph glyph-name="uni2088" unicode="&#x2088;" horiz-adv-x="397" 
d="M33 -57q0 38 25.5 62t60.5 41q-32 17 -51.5 40t-19.5 57q0 48 42 76.5t108 28.5q33 0 60.5 -7t47.5 -20t31.5 -32t11.5 -43q0 -34 -24 -57.5t-51 -37.5q19 -9 35.5 -19.5t28.5 -23.5t19 -28.5t7 -36.5q0 -26 -13.5 -47.5t-36 -36.5t-52.5 -23.5t-64 -8.5
q-78 0 -121.5 31.5t-43.5 84.5zM257 -54q0 21 -18 35t-42 26q-26 -14 -41.5 -28t-15.5 -34t15.5 -31.5t42.5 -11.5q26 0 42.5 12.5t16.5 31.5zM150 140q0 -16 11.5 -28t36.5 -25q23 12 36 24t13 29q0 14 -11.5 25t-37.5 11q-23 0 -35.5 -10t-12.5 -26z" />
    <glyph glyph-name="uni2089" unicode="&#x2089;" horiz-adv-x="394" 
d="M79 -87q66 14 109 38t64 69q-17 -16 -40.5 -25.5t-50.5 -9.5q-60 0 -96.5 33t-36.5 91q0 63 44 101t119 38q42 0 74.5 -13.5t54.5 -36.5t33 -53.5t11 -65.5q0 -53 -18.5 -95t-52.5 -73t-82 -52t-108 -32zM130 115q0 -26 15 -39.5t41 -13.5q42 0 68 28q1 35 -16.5 57
t-48.5 22q-25 0 -42 -13.5t-17 -40.5z" />
    <glyph glyph-name="uni208A" unicode="&#x208a;" horiz-adv-x="451" 
d="M282 -10v-122h-113v122h-119v97h119v122h113v-122h119v-97h-119z" />
    <glyph glyph-name="uni208B" unicode="&#x208b;" horiz-adv-x="420" 
d="M50 -10v97h320v-97h-320z" />
    <glyph glyph-name="uni208C" unicode="&#x208c;" horiz-adv-x="450" 
d="M58 74v92h334v-92h-334zM58 -89v92h334v-92h-334z" />
    <glyph glyph-name="uni208D" unicode="&#x208d;" horiz-adv-x="275" 
d="M172 37q0 -62 22 -112t61 -105l-78 -56q-62 63 -92 127.5t-30 145.5t30 146t92 128l78 -56q-39 -55 -61 -105.5t-22 -112.5z" />
    <glyph glyph-name="uni208E" unicode="&#x208e;" horiz-adv-x="275" 
d="M103 37q0 62 -22 112.5t-61 105.5l78 56q62 -63 92 -128t30 -146t-30 -145.5t-92 -127.5l-78 56q39 55 61 105t22 112z" />
    <glyph glyph-name="Euro" unicode="&#x20ac;" horiz-adv-x="576" 
d="M396 678q36 0 72 -6t63 -18l-13 -98q-20 8 -46.5 11.5t-51.5 3.5q-67 0 -103.5 -28.5t-51.5 -83.5h215v-84h-228q-1 -11 -1 -21v-21v-21.5t1 -20.5h228v-84h-215q15 -55 51.5 -83.5t103.5 -28.5q25 0 51.5 3.5t46.5 10.5l13 -97q-27 -12 -63 -18t-72 -6
q-106 0 -174.5 56.5t-93.5 162.5h-93v84h81q-1 10 -1.5 20.5t-0.5 21.5t0.5 21t1.5 21h-81v84h93q25 106 93.5 162.5t174.5 56.5z" />
    <glyph glyph-name="uni2113" unicode="&#x2113;" horiz-adv-x="528" 
d="M5 266q26 12 56.5 26t56.5 28v164q0 117 51.5 174.5t146.5 57.5q79 0 124.5 -45t45.5 -118q0 -48 -17 -87.5t-48 -72.5t-73 -62t-93 -56v-91q0 -41 13.5 -63t54.5 -22q29 0 61 12t62 29l31 -93q-38 -26 -83.5 -41.5t-95.5 -15.5q-45 0 -79 14t-56.5 39t-33.5 59.5
t-11 76.5v28q-17 -8 -35 -16.5t-38 -17.5zM255 389q53 32 80.5 70t27.5 83q0 29 -12.5 47.5t-37.5 18.5q-31 0 -44.5 -24t-13.5 -77v-118z" />
    <glyph glyph-name="uni2116" unicode="&#x2116;" horiz-adv-x="1105" 
d="M447 0l-249 417v-417h-128v666h128l249 -418v418h128v-666h-128zM689 257h355v-94h-355v94zM1060 494q0 -37 -13 -70t-37.5 -57.5t-61 -39t-82.5 -14.5q-47 0 -83 14.5t-61 39t-37.5 57.5t-12.5 70t12.5 70.5t37.5 58t61 39t83 14.5q46 0 82.5 -14.5t61 -39t37.5 -58
t13 -70.5zM946 494q0 44 -21 70.5t-59 26.5q-39 0 -59.5 -26.5t-20.5 -70.5q0 -43 20.5 -69.5t59.5 -26.5q38 0 59 26.5t21 69.5z" />
    <glyph glyph-name="published" unicode="&#x2117;" horiz-adv-x="818" 
d="M578 402q0 -64 -47 -97.5t-125 -33.5h-10v-126h-94v376h116q33 0 62 -7.5t51 -22t34.5 -37t12.5 -52.5zM486 398q0 29 -22 40.5t-56 11.5h-12v-109h8q36 0 59 14t23 43zM60 333q0 71 25.5 134t71.5 110t110 74t142 27q77 0 141.5 -27t110.5 -74t71.5 -110t25.5 -134
t-25.5 -134t-71.5 -110t-110.5 -74t-141.5 -27q-78 0 -142 27t-110 74t-71.5 110t-25.5 134zM711 333q0 60 -21 115t-60 96.5t-95 66t-126 24.5t-126 -24.5t-95 -66t-60 -96.5t-21 -115t21 -115t60 -96.5t95 -66t126 -24.5t126 24.5t95 66t60 96.5t21 115z" />
    <glyph glyph-name="trademark" unicode="&#x2122;" horiz-adv-x="717" 
d="M275 666v-57h-88v-260h-69v260h-88v57h245zM396 545l-14 -196h-67l24 317h67l90 -196l90 196h67l24 -317h-67l-14 196l-63 -141h-74z" />
    <glyph glyph-name="estimated" unicode="&#x212e;" horiz-adv-x="824" 
d="M197 321v-221q43 -38 96.5 -57.5t119.5 -19.5q85 0 154 29t136 94l24 -25q-70 -65 -145.5 -98t-169.5 -33q-77 0 -142.5 27t-113 74t-74.5 112t-27 140q0 72 28.5 133t77.5 105.5t114 69.5t137 25t137 -25.5t113.5 -70.5t77.5 -105.5t29 -130.5v-23h-572zM412 643
q-63 0 -118 -21t-97 -58v-211h430v211q-46 36 -99.5 57.5t-115.5 21.5z" />
    <glyph glyph-name="onethird" unicode="&#x2153;" horiz-adv-x="909" 
d="M159 265v281l-90 -28l-24 92l151 56h80v-401h-117zM566 678l88 -48l-344 -642l-88 48zM864 111q0 -57 -48 -89t-124 -32q-32 0 -66.5 7t-56.5 18l18 80q21 -9 46 -14t47 -5q31 0 49.5 10t18.5 31q0 24 -20.5 33.5t-48.5 9.5h-66v85h55q70 0 70 44q0 19 -15 27.5t-38 8.5
q-25 0 -46 -5t-41 -14l-18 79q29 14 61.5 20t67.5 6q31 0 57.5 -7t45.5 -20t30 -32.5t11 -44.5q0 -35 -19 -60t-57 -38q37 -11 62 -34t25 -64z" />
    <glyph glyph-name="twothirds" unicode="&#x2154;" horiz-adv-x="975" 
d="M632 678l88 -48l-344 -642l-88 48zM930 111q0 -57 -48 -89t-124 -32q-32 0 -66.5 7t-56.5 18l18 80q21 -9 46 -14t47 -5q31 0 49.5 10t18.5 31q0 24 -20.5 33.5t-48.5 9.5h-66v85h55q70 0 70 44q0 19 -15 27.5t-38 8.5q-25 0 -46 -5t-41 -14l-18 79q29 14 61.5 20t67.5 6
q31 0 57.5 -7t45.5 -20t30 -32.5t11 -44.5q0 -35 -19 -60t-57 -38q37 -11 62 -34t25 -64zM64 642q58 34 136 34q33 0 61 -9t48.5 -26.5t32 -42t11.5 -54.5q0 -53 -30 -90t-76 -70q-13 -9 -21.5 -15.5t-18.5 -12.5h149v-91h-294l-20 70q32 26 62.5 51t50.5 42q12 11 26.5 23
t26.5 25.5t20 28t8 30.5q0 49 -59 49q-25 0 -48.5 -7.5t-41.5 -17.5z" />
    <glyph glyph-name="oneeighth" unicode="&#x215b;" horiz-adv-x="924" 
d="M159 265v281l-90 -28l-24 92l151 56h80v-401h-117zM566 678l88 -48l-344 -642l-88 48zM548 106q0 38 25.5 62t60.5 41q-32 17 -51.5 40t-19.5 57q0 48 42 76.5t108 28.5q33 0 60.5 -7t47.5 -20t31.5 -32t11.5 -43q0 -34 -24 -57.5t-51 -37.5q19 -9 35.5 -19.5t28.5 -23.5
t19 -28.5t7 -36.5q0 -26 -13.5 -47.5t-36 -36.5t-52.5 -23.5t-64 -8.5q-78 0 -121.5 31.5t-43.5 84.5zM772 109q0 21 -18 35t-42 26q-26 -14 -41.5 -28t-15.5 -34t15.5 -31.5t42.5 -11.5q26 0 42.5 12.5t16.5 31.5zM665 303q0 -16 11.5 -28t36.5 -25q23 12 36 24t13 29
q0 14 -11.5 25t-37.5 11q-23 0 -35.5 -10t-12.5 -26z" />
    <glyph glyph-name="threeeighths" unicode="&#x215c;" horiz-adv-x="954" 
d="M355 376q0 -57 -48 -89t-124 -32q-32 0 -66.5 7t-56.5 18l18 80q21 -9 46 -14t47 -5q31 0 49.5 10t18.5 31q0 24 -20.5 33.5t-48.5 9.5h-66v85h55q70 0 70 44q0 19 -15 27.5t-38 8.5q-25 0 -46 -5t-41 -14l-18 79q29 14 61.5 20t67.5 6q31 0 57.5 -7t45.5 -20t30 -32.5
t11 -44.5q0 -35 -19 -60t-57 -38q37 -11 62 -34t25 -64zM596 678l88 -48l-344 -642l-88 48zM578 106q0 38 25.5 62t60.5 41q-32 17 -51.5 40t-19.5 57q0 48 42 76.5t108 28.5q33 0 60.5 -7t47.5 -20t31.5 -32t11.5 -43q0 -34 -24 -57.5t-51 -37.5q19 -9 35.5 -19.5
t28.5 -23.5t19 -28.5t7 -36.5q0 -26 -13.5 -47.5t-36 -36.5t-52.5 -23.5t-64 -8.5q-78 0 -121.5 31.5t-43.5 84.5zM802 109q0 21 -18 35t-42 26q-26 -14 -41.5 -28t-15.5 -34t15.5 -31.5t42.5 -11.5q26 0 42.5 12.5t16.5 31.5zM695 303q0 -16 11.5 -28t36.5 -25q23 12 36 24
t13 29q0 14 -11.5 25t-37.5 11q-23 0 -35.5 -10t-12.5 -26z" />
    <glyph glyph-name="fiveeighths" unicode="&#x215d;" horiz-adv-x="963" 
d="M605 678l88 -48l-344 -642l-88 48zM587 106q0 38 25.5 62t60.5 41q-32 17 -51.5 40t-19.5 57q0 48 42 76.5t108 28.5q33 0 60.5 -7t47.5 -20t31.5 -32t11.5 -43q0 -34 -24 -57.5t-51 -37.5q19 -9 35.5 -19.5t28.5 -23.5t19 -28.5t7 -36.5q0 -26 -13.5 -47.5t-36 -36.5
t-52.5 -23.5t-64 -8.5q-78 0 -121.5 31.5t-43.5 84.5zM811 109q0 21 -18 35t-42 26q-26 -14 -41.5 -28t-15.5 -34t15.5 -31.5t42.5 -11.5q26 0 42.5 12.5t16.5 31.5zM704 303q0 -16 11.5 -28t36.5 -25q23 12 36 24t13 29q0 14 -11.5 25t-37.5 11q-23 0 -35.5 -10t-12.5 -26z
M365 392q0 -66 -49.5 -101.5t-127.5 -35.5q-33 0 -66.5 5t-61.5 15l15 83q20 -8 48 -12.5t53 -4.5q32 0 53 10.5t21 33.5q0 26 -21 35.5t-52 9.5h-94v236h255v-88h-144v-64h9q31 0 60 -6.5t51.5 -21t36.5 -38t14 -56.5z" />
    <glyph glyph-name="seveneighths" unicode="&#x215e;" horiz-adv-x="914" 
d="M556 678l88 -48l-344 -642l-88 48zM538 106q0 38 25.5 62t60.5 41q-32 17 -51.5 40t-19.5 57q0 48 42 76.5t108 28.5q33 0 60.5 -7t47.5 -20t31.5 -32t11.5 -43q0 -34 -24 -57.5t-51 -37.5q19 -9 35.5 -19.5t28.5 -23.5t19 -28.5t7 -36.5q0 -26 -13.5 -47.5t-36 -36.5
t-52.5 -23.5t-64 -8.5q-78 0 -121.5 31.5t-43.5 84.5zM762 109q0 21 -18 35t-42 26q-26 -14 -41.5 -28t-15.5 -34t15.5 -31.5t42.5 -11.5q26 0 42.5 12.5t16.5 31.5zM655 303q0 -16 11.5 -28t36.5 -25q23 12 36 24t13 29q0 14 -11.5 25t-37.5 11q-23 0 -35.5 -10t-12.5 -26z
M374 589l-180 -324h-119l179 310h-184v91h290z" />
    <glyph glyph-name="arrowleft" unicode="&#x2190;" horiz-adv-x="976" 
d="M398 -10l-343 343l343 343l78 -79l-210 -210h625v-108h-625l210 -210z" />
    <glyph glyph-name="arrowup" unicode="&#x2191;" horiz-adv-x="738" 
d="M60 367l309 309l309 -309l-78 -79l-174 174v-462h-114v462l-173 -174z" />
    <glyph glyph-name="arrowright" unicode="&#x2192;" horiz-adv-x="976" 
d="M85 387h625l-210 210l78 79l343 -343l-343 -343l-78 79l210 210h-625v108z" />
    <glyph glyph-name="arrowdown" unicode="&#x2193;" horiz-adv-x="738" 
d="M139 378l173 -174v462h114v-462l174 174l78 -79l-309 -309l-309 309z" />
    <glyph glyph-name="partialdiff" unicode="&#x2202;" horiz-adv-x="584" 
d="M263 438q85 0 148 -57q-2 49 -11.5 90t-28.5 71t-48 47t-70 17q-37 0 -67 -12t-59 -31l-40 94q76 59 186 59q67 0 118 -28t85 -76.5t51 -113.5t17 -138q0 -67 -18 -133.5t-53.5 -119.5t-89 -86t-124.5 -33q-49 0 -88.5 17t-67.5 47t-43 70.5t-15 87.5q0 54 15.5 96
t44 71.5t69 45t89.5 15.5zM179 208q0 -23 5 -44t16.5 -37t28.5 -25.5t41 -9.5q31 0 54.5 16.5t40 43t26 58.5t13.5 64q-21 23 -51.5 39.5t-65.5 16.5q-51 0 -79.5 -30t-28.5 -92z" />
    <glyph glyph-name="Delta" unicode="&#x2206;" horiz-adv-x="724" 
d="M694 0h-664l271 666h122zM362 524l-155 -416h310z" />
    <glyph glyph-name="product" unicode="&#x220f;" horiz-adv-x="846" 
d="M303 -206h-136v763h-122v109h756v-109h-122v-763h-136v763h-240v-763z" />
    <glyph glyph-name="summation" unicode="&#x2211;" horiz-adv-x="572" 
d="M199 -97h328v-109h-482v109l231 327l-231 327v109h482v-109h-328l229 -327z" />
    <glyph glyph-name="minus" unicode="&#x2212;" horiz-adv-x="590" 
d="M65 272v102h460v-102h-460z" />
    <glyph glyph-name="radical" unicode="&#x221a;" horiz-adv-x="758" 
d="M40 343l208 79l168 -405l192 765h115l-232 -882h-136l-171 393l-109 -43z" />
    <glyph glyph-name="infinity" unicode="&#x221e;" horiz-adv-x="919" 
d="M459 395q41 45 97 75.5t123 30.5q41 0 76 -13t60.5 -36.5t39.5 -56t14 -72.5t-14 -72.5t-39.5 -56t-60.5 -36.5t-76 -13q-67 0 -123 30.5t-97 75.5q-40 -45 -96 -75.5t-123 -30.5q-41 0 -76 13t-60.5 36.5t-39.5 56t-14 72.5t14 72.5t39.5 56t60.5 36.5t76 13
q67 0 123 -30.5t96 -75.5zM514 323q26 -35 64 -61t86 -26q44 0 70 23t26 64t-26 64t-70 23q-48 0 -86 -26t-64 -61zM405 323q-26 35 -64.5 61t-85.5 26q-44 0 -70 -23t-26 -64t26 -64t70 -23q47 0 85.5 26t64.5 61z" />
    <glyph glyph-name="integral" unicode="&#x222b;" horiz-adv-x="430" 
d="M131 422q0 78 11.5 134t36 91.5t62.5 52t91 16.5q25 0 49.5 -4t43.5 -12l-12 -101q-22 8 -53 8t-49.5 -12t-28 -35.5t-12 -58.5t-2.5 -81v-330q0 -62 -8.5 -117.5t-31 -97.5t-62 -66.5t-100.5 -24.5q-20 0 -43.5 3t-37.5 8l9 103q22 -5 42 -5q33 0 51.5 14t28.5 40
t12.5 62.5t2.5 81.5v331v0z" />
    <glyph glyph-name="approxequal" unicode="&#x2248;" horiz-adv-x="636" 
d="M430 341q-28 0 -56.5 9.5t-58.5 24.5q-26 13 -47 21t-42 8q-32 0 -54.5 -14.5t-46.5 -34.5l-55 74q34 37 71.5 60t92.5 23q32 0 58 -9t55 -26q25 -14 45 -21.5t42 -7.5q26 0 46.5 11t43.5 28l52 -76q-32 -33 -68 -51.5t-78 -18.5zM430 134q-28 0 -56.5 9.5t-58.5 24.5
q-26 13 -47 21t-42 8q-32 0 -54.5 -14.5t-46.5 -34.5l-55 74q34 37 71.5 60t92.5 23q32 0 58 -9t55 -26q25 -14 45 -21.5t42 -7.5q26 0 46.5 11t43.5 28l52 -76q-32 -33 -68 -51.5t-78 -18.5z" />
    <glyph glyph-name="notequal" unicode="&#x2260;" horiz-adv-x="620" 
d="M442 486h98v-101h-146l-62 -124h208v-101h-256l-66 -134l-86 42l45 92h-97v101h146l62 124h-208v101h257l65 134l85 -43z" />
    <glyph glyph-name="lessequal" unicode="&#x2264;" horiz-adv-x="586" 
d="M55 0v100h471v-100h-471zM491 578l32 -98l-328 -111l328 -110l-32 -99l-433 156v106z" />
    <glyph glyph-name="greaterequal" unicode="&#x2265;" horiz-adv-x="586" 
d="M60 0v100h471v-100h-471zM528 422v-106l-433 -156l-32 99l328 110l-328 111l32 98z" />
    <glyph glyph-name="lozenge" unicode="&#x25ca;" horiz-adv-x="620" 
d="M585 333l-209 -333h-132l-209 333l209 333h132zM310 108l135 225l-135 226l-135 -226z" />
    <glyph glyph-name="apple" unicode="&#xf8ff;" horiz-adv-x="816" 
d="M423 333v-333h-333v666h666v-333h-333z" />
    <glyph glyph-name="acute.case" horiz-adv-x="446" 
d="M105 726l75 120h161l-123 -120h-113z" />
    <glyph glyph-name="breve.case" horiz-adv-x="534" 
d="M429 844q-15 -60 -58.5 -90.5t-103.5 -30.5t-103.5 30.5t-58.5 90.5l91 26q8 -26 24.5 -44t46.5 -18t46.5 18t24.5 44z" />
    <glyph glyph-name="caron.case" horiz-adv-x="532" 
d="M334 726h-136l-93 120h117l44 -58l44 58h117z" />
    <glyph glyph-name="circumflex.case" horiz-adv-x="532" 
d="M427 726h-117l-44 58l-44 -58h-117l93 120h136z" />
    <glyph glyph-name="dieresis.case" horiz-adv-x="555" 
d="M105 790q0 27 18.5 45.5t49.5 18.5q30 0 48.5 -18.5t18.5 -45.5q0 -29 -18.5 -47t-48.5 -18q-31 0 -49.5 18t-18.5 47zM315 790q0 27 18.5 45.5t49.5 18.5q30 0 48.5 -18.5t18.5 -45.5q0 -29 -18.5 -47t-48.5 -18q-31 0 -49.5 18t-18.5 47z" />
    <glyph glyph-name="dotaccent.case" horiz-adv-x="369" 
d="M105 801q0 33 22 56t57 23t57.5 -23t22.5 -56q0 -32 -22.5 -55.5t-57.5 -23.5t-57 23.5t-22 55.5z" />
    <glyph glyph-name="grave.case" horiz-adv-x="446" 
d="M228 726l-123 120h161l75 -120h-113z" />
    <glyph glyph-name="hungarumlaut.case" horiz-adv-x="593" 
d="M105 726l44 120h136l-72 -120h-108zM308 726l44 120h136l-72 -120h-108z" />
    <glyph glyph-name="macron.case" horiz-adv-x="550" 
d="M105 841h340v-104h-340v104z" />
    <glyph glyph-name="ring.case" horiz-adv-x="409" 
d="M304 816q0 -17 -6.5 -33t-19 -29t-31.5 -20.5t-43 -7.5t-42.5 7.5t-31 20.5t-19 29t-6.5 33t6.5 33.5t19 29t31 20.5t42.5 8t43 -8t31.5 -20.5t19 -29t6.5 -33.5zM165 816q0 -17 10 -28.5t29 -11.5t29.5 11.5t10.5 28.5t-10.5 29t-29.5 12t-29 -12t-10 -29z" />
    <glyph glyph-name="tilde.case" horiz-adv-x="599" 
d="M386 726q-22 0 -44 5.5t-46 14.5q-20 8 -36.5 13.5t-30.5 5.5q-17 0 -25.5 -11t-14.5 -30l-84 30q14 54 38.5 81t76.5 27q24 0 46 -6t43 -14q20 -8 36 -14t28 -6q17 0 25.5 12t17.5 29l78 -37q-18 -46 -40.5 -73t-67.5 -27z" />
    <glyph glyph-name="ampersand.salt" horiz-adv-x="684" 
d="M60 173q0 37 11 65.5t29.5 49.5t44 35t54.5 23q-55 20 -85 59t-30 96q0 84 64 130.5t176 46.5q54 0 103 -8t99 -30l-20 -103q-38 15 -81.5 23.5t-84.5 8.5q-56 0 -87.5 -17.5t-31.5 -64.5q0 -46 38 -71t114 -25h286v-105h-98v-249q-48 -23 -113.5 -36t-135.5 -13
q-120 0 -186 49.5t-66 135.5zM323 87q68 0 114 16v183h-92q-66 0 -107 -25t-41 -81q0 -45 32 -69t94 -24z" />
    <glyph glyph-name="g.salt" horiz-adv-x="575" 
d="M373 62q-24 -23 -57 -36t-72 -13q-49 0 -88 16.5t-66.5 46.5t-42 73.5t-14.5 97.5q0 121 73 185.5t201 64.5q59 0 109.5 -11.5t93.5 -32.5v-412q0 -129 -69 -193t-196 -64q-45 0 -90.5 8t-79.5 20l15 102q29 -11 65.5 -19t81.5 -8q71 0 103.5 33t32.5 100v42zM282 116
q29 0 51.5 8.5t39.5 22.5v238q-14 5 -31 7.5t-34 2.5q-138 0 -138 -146q0 -61 27.5 -97t84.5 -36z" />
    <glyph glyph-name="gcircumflex.salt" horiz-adv-x="575" 
d="M373 62q-24 -23 -57 -36t-72 -13q-49 0 -88 16.5t-66.5 46.5t-42 73.5t-14.5 97.5q0 121 73 185.5t201 64.5q59 0 109.5 -11.5t93.5 -32.5v-412q0 -129 -69 -193t-196 -64q-45 0 -90.5 8t-79.5 20l15 102q29 -11 65.5 -19t81.5 -8q71 0 103.5 33t32.5 100v42zM282 116
q29 0 51.5 8.5t39.5 22.5v238q-14 5 -31 7.5t-34 2.5q-138 0 -138 -146q0 -61 27.5 -97t84.5 -36zM462 558h-115l-55 93l-55 -93h-115l108 166h124z" />
    <glyph glyph-name="gbreve.salt" horiz-adv-x="575" 
d="M373 62q-24 -23 -57 -36t-72 -13q-49 0 -88 16.5t-66.5 46.5t-42 73.5t-14.5 97.5q0 121 73 185.5t201 64.5q59 0 109.5 -11.5t93.5 -32.5v-412q0 -129 -69 -193t-196 -64q-45 0 -90.5 8t-79.5 20l15 102q29 -11 65.5 -19t81.5 -8q71 0 103.5 33t32.5 100v42zM282 116
q29 0 51.5 8.5t39.5 22.5v238q-14 5 -31 7.5t-34 2.5q-138 0 -138 -146q0 -61 27.5 -97t84.5 -36zM451 702q-11 -70 -55 -107t-110 -37t-110 37t-55 107l91 19q5 -32 22 -54.5t52 -22.5t52 22.5t22 54.5z" />
    <glyph glyph-name="gdotaccent.salt" horiz-adv-x="575" 
d="M373 62q-24 -23 -57 -36t-72 -13q-49 0 -88 16.5t-66.5 46.5t-42 73.5t-14.5 97.5q0 121 73 185.5t201 64.5q59 0 109.5 -11.5t93.5 -32.5v-412q0 -129 -69 -193t-196 -64q-45 0 -90.5 8t-79.5 20l15 102q29 -11 65.5 -19t81.5 -8q71 0 103.5 33t32.5 100v42zM282 116
q29 0 51.5 8.5t39.5 22.5v238q-14 5 -31 7.5t-34 2.5q-138 0 -138 -146q0 -61 27.5 -97t84.5 -36zM210 629q0 33 22 56t57 23t57.5 -23t22.5 -56q0 -32 -22.5 -55.5t-57.5 -23.5t-57 23.5t-22 55.5z" />
    <glyph glyph-name="gcommaaccent.salt" horiz-adv-x="575" 
d="M373 62q-24 -23 -57 -36t-72 -13q-49 0 -88 16.5t-66.5 46.5t-42 73.5t-14.5 97.5q0 121 73 185.5t201 64.5q59 0 109.5 -11.5t93.5 -32.5v-412q0 -129 -69 -193t-196 -64q-45 0 -90.5 8t-79.5 20l15 102q29 -11 65.5 -19t81.5 -8q71 0 103.5 33t32.5 100v42zM282 116
q29 0 51.5 8.5t39.5 22.5v238q-14 5 -31 7.5t-34 2.5q-138 0 -138 -146q0 -61 27.5 -97t84.5 -36zM384 702q-19 -28 -27.5 -65t-11.5 -79l-125 7q1 60 23 104.5t51 74.5z" />
    <glyph glyph-name="parenleft.case" horiz-adv-x="368" 
d="M213 323q0 -44 5 -91t17.5 -98t34 -107t53.5 -117l-95 -53q-75 108 -114 224.5t-39 241.5t39 241.5t114 224.5l95 -53q-32 -62 -53.5 -117.5t-34 -106.5t-17.5 -98t-5 -91z" />
    <glyph glyph-name="parenright.case" horiz-adv-x="368" 
d="M155 323q0 44 -5 91t-17.5 98t-34 106.5t-53.5 117.5l95 53q75 -108 114 -224.5t39 -241.5t-39 -241.5t-114 -224.5l-95 53q32 61 53.5 117t34 107t17.5 98t5 91z" />
    <glyph glyph-name="bracketleft.case" horiz-adv-x="388" 
d="M90 -134v912h243v-104h-106v-704h106v-104h-243z" />
    <glyph glyph-name="bracketright.case" horiz-adv-x="388" 
d="M55 -134v104h106v704h-106v104h243v-912h-243z" />
    <glyph glyph-name="braceleft.case" horiz-adv-x="433" 
d="M279 67q0 -52 19.5 -74.5t61.5 -22.5h33v-104h-40q-59 0 -99.5 14t-65 41t-35.5 66.5t-11 91.5v98q0 53 -21 75.5t-81 22.5v94q60 0 81 22.5t21 75.5v98q0 52 11 91.5t35.5 66.5t65 41t99.5 14h40v-104h-33q-42 0 -61.5 -22.5t-19.5 -74.5v-80q0 -70 -24.5 -112
t-85.5 -63q61 -21 85.5 -63t24.5 -112v-80z" />
    <glyph glyph-name="braceright.case" horiz-adv-x="443" 
d="M164 147q0 70 24.5 112t85.5 63q-61 21 -85.5 63t-24.5 112v80q0 52 -19.5 74.5t-61.5 22.5h-33v104h40q59 0 99.5 -14t65 -41t35.5 -66.5t11 -91.5v-98q0 -53 21 -75.5t81 -22.5v-94q-60 0 -81 -22.5t-21 -75.5v-98q0 -52 -11 -91.5t-35.5 -66.5t-65 -41t-99.5 -14h-40
v104h33q42 0 61.5 22.5t19.5 74.5v80z" />
    <glyph glyph-name="at.case" horiz-adv-x="847" 
d="M456 501q38 0 70.5 -10.5t61.5 -27.5l-26 -147q-1 -5 -1.5 -10.5t-0.5 -10.5q0 -23 11 -37.5t36 -14.5q42 0 70 44t28 117q0 51 -18.5 90t-52 66t-79.5 41t-101 14q-71 0 -127 -22.5t-95.5 -62.5t-60.5 -96.5t-21 -123.5q0 -121 70 -192t206 -71q71 0 131 14.5t119 40.5
l22 -68q-65 -32 -137.5 -46t-139.5 -14q-87 0 -154.5 26.5t-113 72t-69.5 105.5t-24 127q0 84 28 154.5t80 122t126 80t166 28.5q75 0 136 -21.5t104.5 -59.5t67.5 -89.5t24 -111.5q0 -51 -13.5 -94t-39.5 -74t-63 -48.5t-84 -17.5q-54 0 -83.5 26t-34.5 62
q-21 -34 -50.5 -55t-61.5 -21q-48 0 -71.5 33t-23.5 79q0 42 12 79t35.5 64.5t59 43.5t82.5 16zM452 426q-23 0 -40 -10t-27.5 -26.5t-15.5 -37.5t-5 -43q0 -19 6.5 -32.5t23.5 -13.5q20 0 37.5 18.5t33.5 45.5l17 94q-13 5 -30 5z" />
    <glyph glyph-name="asterisk.case" horiz-adv-x="411" 
d="M175 551v115h61v-115l99 58l31 -53l-99 -57l99 -57l-30 -54l-100 58v-114h-61v114l-101 -58l-29 54l98 57l-98 57l31 53z" />
    <glyph glyph-name="hyphen.case" horiz-adv-x="394" 
d="M65 261v111h264v-111h-264z" />
    <glyph glyph-name="emdash.case" horiz-adv-x="809" 
d="M60 261v111h689v-111h-689z" />
    <glyph glyph-name="slash.case" horiz-adv-x="451" 
d="M292 735l119 -41l-252 -766l-119 43z" />
    <glyph glyph-name="backslash.case" horiz-adv-x="451" 
d="M411 -29l-119 -43l-252 766l119 41z" />
    <glyph glyph-name="bullet.case" horiz-adv-x="428" 
d="M70 333q0 30 10.5 56.5t29.5 46t45.5 31t57.5 11.5t58 -11.5t46 -31t30 -46t11 -56.5q0 -29 -11 -55t-30 -45.5t-46 -31t-58 -11.5t-57.5 11.5t-45.5 31t-29.5 45.5t-10.5 55z" />
    <glyph glyph-name="questiondown.case" horiz-adv-x="474" 
d="M45 166q0 47 20.5 86.5t55 73.5t79.5 65t94 61l64 -92q-35 -26 -66.5 -48.5t-55.5 -45t-38.5 -45t-14.5 -48.5q0 -36 23 -54.5t61 -18.5q40 0 70.5 10t60.5 27l36 -100q-38 -23 -84 -36t-102 -13q-42 0 -79 11t-64.5 33.5t-43.5 56t-16 77.5zM358 598q0 -32 -20.5 -55.5
t-58.5 -23.5t-58.5 23.5t-20.5 55.5t20.5 56t58.5 24t58.5 -24t20.5 -56z" />
    <glyph glyph-name="exclamdown.case" horiz-adv-x="328" 
d="M236 207v-207h-144v207l32 249h80zM85 598q0 32 20.5 56t58.5 24t58.5 -24t20.5 -56t-20.5 -55.5t-58.5 -23.5t-58.5 23.5t-20.5 55.5z" />
    <glyph glyph-name="guillemotleft.case" horiz-adv-x="624" 
d="M182 323l121 -144l-87 -69l-176 213l176 213l87 -69zM440 323l121 -144l-87 -69l-176 213l176 213l87 -69z" />
    <glyph glyph-name="guillemotright.case" horiz-adv-x="624" 
d="M321 467l87 69l176 -213l-176 -213l-87 69l121 144zM63 467l87 69l176 -213l-176 -213l-87 69l121 144z" />
    <glyph glyph-name="guilsinglleft.case" horiz-adv-x="366" 
d="M182 323l121 -144l-87 -69l-176 213l176 213l87 -69z" />
    <glyph glyph-name="guilsinglright.case" horiz-adv-x="366" 
d="M63 467l87 69l176 -213l-176 -213l-87 69l121 144z" />
    <glyph glyph-name="periodcentered.case" horiz-adv-x="278" 
d="M60 333q0 32 20.5 55.5t58.5 23.5t58.5 -23.5t20.5 -55.5t-20.5 -56t-58.5 -24t-58.5 24t-20.5 56z" />
    <glyph glyph-name="zero.tnum" 
d="M511 333q0 -72 -12 -134.5t-40 -109.5t-72.5 -74t-110.5 -27t-110.5 27t-72.5 74t-40 109.5t-12 134.5t12 134.5t40 109.5t72.5 74t110.5 27t110.5 -27t72.5 -74t40 -109.5t12 -134.5zM375 333q0 51 -4 94t-15 74.5t-30 49.5t-50 18t-50 -18t-30 -49.5t-15 -74.5t-4 -94
t4 -94.5t15 -75t30 -49t50 -17.5t50 17.5t30 49t15 75t4 94.5z" />
    <glyph glyph-name="one.tnum" 
d="M75 108h154v413l-139 -43l-31 112l227 76h81v-558h143v-108h-435v108z" />
    <glyph glyph-name="two.tnum" 
d="M86 628q36 23 80 36.5t97 13.5q99 0 156.5 -53t57.5 -148q0 -40 -10 -75t-28 -66.5t-42.5 -61t-53.5 -57.5q-31 -30 -59 -56t-55 -50h254v-111h-414l-19 80q27 28 49.5 51t42.5 43.5t38.5 40.5t38.5 42l44 50t38.5 51t27 53t10.5 55q0 47 -27 73.5t-75 26.5
q-37 0 -66 -9.5t-53 -24.5z" />
    <glyph glyph-name="three.tnum" 
d="M472 181q0 -45 -18.5 -80.5t-50 -60.5t-74.5 -38.5t-92 -13.5q-46 0 -93 10t-82 26l23 104q31 -14 64.5 -22.5t71.5 -8.5q57 0 85 25t28 63q0 51 -42 73.5t-108 22.5h-56v111h37q74 0 114.5 27t40.5 74q0 36 -24.5 55.5t-69.5 19.5q-64 0 -120 -28l-24 99
q32 18 77.5 28.5t94.5 10.5q43 0 80.5 -11t65 -32t43 -51t15.5 -68q0 -57 -31.5 -100.5t-93.5 -69.5q28 -8 53.5 -22.5t44.5 -35t30 -47.5t11 -60z" />
    <glyph glyph-name="four.tnum" 
d="M442 425v-155h78v-106h-78v-164h-124v164h-269l-21 102l176 410l106 -46l-153 -360h161v155h124z" />
    <glyph glyph-name="five.tnum" 
d="M488 201q0 -50 -20 -89.5t-55 -67t-81.5 -42t-100.5 -14.5q-45 0 -91 8.5t-76 21.5l19 107q32 -12 68 -19.5t72 -7.5q58 0 92.5 24t34.5 71q0 53 -41.5 75.5t-109.5 22.5h-108v375h360v-112h-223v-154h21q51 0 94.5 -13t76 -38t50.5 -62t18 -86z" />
    <glyph glyph-name="six.tnum" 
d="M429 576q-45 -23 -84.5 -44.5t-72 -48t-56 -60.5t-35.5 -82q24 26 58.5 40.5t76.5 14.5q43 0 79 -13.5t61.5 -39t40 -61.5t14.5 -81q0 -46 -17.5 -85t-48.5 -67.5t-72 -44.5t-87 -16q-63 0 -109 23.5t-76 61t-45 85t-15 95.5q0 79 23.5 144.5t68 118.5t108.5 93.5
t144 68.5zM381 197q0 44 -25 69t-70 25q-36 0 -62.5 -14t-44.5 -33q0 -29 5 -56t17.5 -48t32.5 -34t49 -13q45 0 71.5 29.5t26.5 74.5z" />
    <glyph glyph-name="seven.tnum" 
d="M485 557l-262 -557h-137l268 556h-288v110h400z" />
    <glyph glyph-name="eight.tnum" 
d="M276 678q46 0 84 -11t65.5 -31.5t42.5 -50.5t15 -68q0 -27 -10 -50t-26.5 -43.5t-37.5 -38t-43 -32.5q27 -17 51.5 -35.5t43 -41t29.5 -49.5t11 -60q0 -38 -17.5 -71t-48.5 -57t-72 -37.5t-87 -13.5q-51 0 -93 12.5t-71.5 35t-45.5 55t-16 73.5q0 31 12 57.5t31 48t43 40
t49 35.5q-50 34 -83.5 72.5t-33.5 92.5q0 37 14.5 68t41.5 53.5t65.5 34.5t86.5 12zM371 167q0 37 -25 63.5t-70 55.5q-20 -15 -37.5 -28t-30.5 -27t-20.5 -29.5t-7.5 -35.5q0 -38 25.5 -58.5t70.5 -20.5q42 0 68.5 22.5t26.5 57.5zM196 513q0 -29 17.5 -50.5t62.5 -51.5
q35 24 57 48t22 54q0 32 -22 49.5t-57 17.5q-36 0 -58 -19t-22 -48z" />
    <glyph glyph-name="nine.tnum" 
d="M114 90q45 20 84.5 41.5t71.5 48.5t56 62t36 83q-24 -26 -58.5 -40.5t-76.5 -14.5q-43 0 -79 13.5t-61.5 39t-40 61.5t-14.5 81q0 48 16.5 87.5t46.5 67.5t71.5 43t90.5 15q64 0 110.5 -23.5t76.5 -61t44 -85t14 -95.5q0 -80 -23.5 -146t-68 -118.5t-108.5 -92.5
t-144 -68zM162 470q0 -46 26 -70.5t69 -24.5q36 0 62.5 14t44.5 33q0 28 -5 55.5t-17.5 48.5t-32.5 34t-49 13q-45 0 -71.5 -28t-26.5 -75z" />
    <glyph glyph-name="cent.tnum" 
d="M375 692v-119q26 -3 53 -9.5t47 -17.5l-19 -98q-52 20 -111 20q-62 0 -96.5 -34.5t-34.5 -100.5t34.5 -100.5t96.5 -34.5q59 0 111 20l19 -98q-20 -11 -47 -17.5t-53 -9.5v-119h-120v125q-85 20 -131.5 81.5t-46.5 152.5t46.5 152.5t131.5 81.5v125h120z" />
    <glyph glyph-name="dollar.tnum" 
d="M205 -120v122q-37 5 -72 14.5t-63 22.5l24 103q33 -16 71.5 -25t83.5 -9q42 0 70 18.5t28 57.5q0 36 -26.5 58t-77.5 47q-41 19 -72 39t-51.5 43t-31 51.5t-10.5 65.5q0 72 38.5 113.5t98.5 54.5v130h122v-123q31 -2 63 -11.5t60 -23.5l-23 -104q-38 17 -71.5 25.5
t-68.5 8.5q-85 0 -85 -65q0 -16 6.5 -28t18.5 -22.5t30 -21t42 -22.5q24 -13 54 -29.5t56.5 -40.5t44 -55.5t17.5 -74.5q0 -72 -42 -121.5t-112 -68.5v-129h-122z" />
    <glyph glyph-name="Euro.tnum" 
d="M398 678q36 0 72 -6t63 -18l-13 -98q-20 8 -46.5 11.5t-51.5 3.5q-67 0 -103.5 -28.5t-51.5 -83.5h215v-84h-228q-1 -11 -1 -21v-21v-21.5t1 -20.5h228v-84h-215q15 -55 51.5 -83.5t103.5 -28.5q25 0 51.5 3.5t46.5 10.5l13 -97q-27 -12 -63 -18t-72 -6
q-106 0 -174.5 56.5t-93.5 162.5h-93v84h81q-1 10 -1.5 20.5t-0.5 21.5t0.5 21t1.5 21h-81v84h93q25 106 93.5 162.5t174.5 56.5z" />
    <glyph glyph-name="sterling.tnum" 
d="M450 253h-167q-8 -43 -31.5 -81t-54.5 -63h289v-109h-406l-26 95q37 38 59.5 74.5t33.5 83.5h-92v108h103v83q0 115 55 174.5t159 59.5q87 0 143 -28l-18 -101q-49 20 -102 20q-54 0 -77 -31t-23 -96v-81h155v-108z" />
    <glyph glyph-name="yen.tnum" 
d="M345 132v-132h-137v132h-149v95h149v22l-27 60h-122v96h82l-112 261h143l104 -292l104 292h143l-111 -261h81v-96h-122l-26 -60v-22h148v-95h-148z" />
    <glyph glyph-name="numbersign.tnum" horiz-adv-x="696" 
d="M417 161h-167l-17 -161h-107l17 161h-98v90h107l18 172h-105v90h115l17 153h107l-17 -153h167l17 153h107l-17 -153h95v-90h-104l-18 -172h97v-90h-107l-17 -161h-107zM259 251h168l18 172h-168z" />
    <glyph glyph-name="plus.tnum" 
d="M335 272v-194h-118v194h-176v102h176v194h118v-194h176v-102h-176z" />
    <glyph glyph-name="plusminus.tnum" 
d="M334 320v-157h-117v157h-177v101h177v161h117v-161h177v-101h-177zM40 0v100h471v-100h-471z" />
    <glyph glyph-name="multiply.tnum" 
d="M276 399l155 156l76 -77l-155 -155l155 -155l-76 -77l-155 156l-156 -156l-76 77l155 155l-155 155l76 77z" />
    <glyph glyph-name="divide.tnum" 
d="M41 272v102h470v-102h-470zM350 516q0 -32 -21 -52.5t-53 -20.5t-53.5 20.5t-21.5 52.5t21.5 53t53.5 21t53 -21t21 -53zM350 129q0 -32 -21 -52.5t-53 -20.5t-53.5 20.5t-21.5 52.5t21.5 53t53.5 21t53 -21t21 -53z" />
    <glyph glyph-name="equal.tnum" 
d="M46 385v101h460v-101h-460zM46 160v101h460v-101h-460z" />
    <glyph glyph-name="notequal.tnum" 
d="M408 486h98v-101h-146l-62 -124h208v-101h-256l-66 -134l-86 42l45 92h-97v101h146l62 124h-208v101h257l65 134l85 -43z" />
    <glyph glyph-name="logicalnot.tnum" 
d="M511 78h-118v194h-352v102h470v-296z" />
    <glyph glyph-name="approxequal.tnum" 
d="M383 341q-28 0 -56.5 9.5t-58.5 24.5q-26 13 -47 21t-42 8q-32 0 -54.5 -14.5t-46.5 -34.5l-55 74q34 37 71.5 60t92.5 23q32 0 58 -9t55 -26q25 -14 45 -21.5t42 -7.5q26 0 46.5 11t43.5 28l52 -76q-32 -33 -68 -51.5t-78 -18.5zM383 134q-28 0 -56.5 9.5t-58.5 24.5
q-26 13 -47 21t-42 8q-32 0 -54.5 -14.5t-46.5 -34.5l-55 74q34 37 71.5 60t92.5 23q32 0 58 -9t55 -26q25 -14 45 -21.5t42 -7.5q26 0 46.5 11t43.5 28l52 -76q-32 -33 -68 -51.5t-78 -18.5z" />
    <glyph glyph-name="endash.tnum" 
d="M69 265v107h413v-107h-413z" />
    <glyph glyph-name="minus.tnum" 
d="M46 272v102h460v-102h-460z" />
    <glyph glyph-name="less.tnum" 
d="M469 578l42 -95l-352 -160l352 -160l-42 -95l-429 201v108z" />
    <glyph glyph-name="greater.tnum" 
d="M511 377v-108l-429 -201l-42 95l352 160l-352 160l42 95z" />
    <glyph glyph-name="lessequal.tnum" 
d="M40 0v100h471v-100h-471zM476 578l32 -98l-328 -111l328 -110l-32 -99l-433 156v106z" />
    <glyph glyph-name="greaterequal.tnum" 
d="M40 0v100h471v-100h-471zM508 422v-106l-433 -156l-32 99l328 110l-328 111l32 98z" />
    <glyph glyph-name="percent.tnum" horiz-adv-x="982" 
d="M418 480q0 -36 -11 -71.5t-34 -63.5t-57.5 -45t-81.5 -17t-81.5 17t-57.5 45t-34 63.5t-11 71.5q0 37 11 72.5t34 63.5t57.5 45t81.5 17t81.5 -17t57.5 -45t34 -63.5t11 -72.5zM308 480q0 47 -18 78t-56 31t-56 -31t-18 -78t17.5 -77.5t56.5 -30.5t56.5 30.5t17.5 77.5z
M598 678l98 -47l-306 -643l-97 49zM937 185q0 -36 -11 -71.5t-34 -63.5t-57.5 -45t-81.5 -17t-81.5 17t-57.5 45t-34 63.5t-11 71.5q0 37 11 72.5t34 63.5t57.5 45t81.5 17t81.5 -17t57.5 -45t34 -63.5t11 -72.5zM827 185q0 47 -18 78t-56 31t-56 -31t-18 -78t17.5 -77.5
t56.5 -30.5t56.5 30.5t17.5 77.5z" />
    <glyph glyph-name="perthousand.tnum" horiz-adv-x="1406" 
d="M418 480q0 -36 -11 -71.5t-34 -63.5t-57.5 -45t-81.5 -17t-81.5 17t-57.5 45t-34 63.5t-11 71.5q0 37 11 72.5t34 63.5t57.5 45t81.5 17t81.5 -17t57.5 -45t34 -63.5t11 -72.5zM308 480q0 47 -18 78t-56 31t-56 -31t-18 -78t17.5 -77.5t56.5 -30.5t56.5 30.5t17.5 77.5z
M598 678l98 -47l-306 -643l-97 49zM937 185q0 -36 -11 -71.5t-34 -63.5t-57.5 -45t-81.5 -17t-81.5 17t-57.5 45t-34 63.5t-11 71.5q0 37 11 72.5t34 63.5t57.5 45t81.5 17t81.5 -17t57.5 -45t34 -63.5t11 -72.5zM827 185q0 47 -18 78t-56 31t-56 -31t-18 -78t17.5 -77.5
t56.5 -30.5t56.5 30.5t17.5 77.5zM1361 185q0 -36 -11 -71.5t-34 -63.5t-57.5 -45t-81.5 -17t-81.5 17t-57.5 45t-34 63.5t-11 71.5q0 37 11 72.5t34 63.5t57.5 45t81.5 17t81.5 -17t57.5 -45t34 -63.5t11 -72.5zM1251 185q0 47 -18 78t-56 31t-56 -31t-18 -78t17.5 -77.5
t56.5 -30.5t56.5 30.5t17.5 77.5z" />
    <glyph glyph-name="zero.onum" horiz-adv-x="596" 
d="M561 253q0 -53 -17.5 -101t-51 -84.5t-82.5 -58t-112 -21.5t-112 21.5t-82.5 58t-51 84.5t-17.5 101t17.5 101t51 84t82.5 57.5t112 21.5t112 -21.5t82.5 -57.5t51 -84t17.5 -101zM424 253q0 34 -7.5 63t-23.5 50t-39.5 33t-55.5 12t-55.5 -12t-39.5 -33t-23.5 -50
t-7.5 -63t7.5 -63t23.5 -50t39.5 -33t55.5 -12t55.5 12t39.5 33t23.5 50t7.5 63z" />
    <glyph glyph-name="one.onum" horiz-adv-x="400" 
d="M193 0v361l-139 -49l-31 112l227 83h80v-507h-137z" />
    <glyph glyph-name="two.onum" horiz-adv-x="509" 
d="M73 471q34 22 75.5 34t88.5 12q44 0 80.5 -11.5t63 -32.5t41 -51.5t14.5 -68.5q0 -40 -12 -72t-32 -58.5t-46.5 -48t-56.5 -41.5q-10 -7 -19 -13t-17 -11h216v-109h-407l-20 81q41 31 82 62.5t73 57.5q15 12 33 26.5t33.5 31.5t26 36.5t10.5 42.5q0 34 -21.5 52.5
t-60.5 18.5q-30 0 -57 -10t-53 -24z" />
    <glyph glyph-name="three.onum" horiz-adv-x="479" 
d="M437 17q0 -44 -17.5 -79t-48.5 -59.5t-73.5 -38t-92.5 -13.5q-45 0 -92 11.5t-80 28.5l25 99q27 -14 63.5 -24t71.5 -10q50 0 78.5 21t28.5 66q0 27 -14.5 45.5t-37 30t-50 17.5t-52.5 9l-37 4v102l27 4q28 4 55 12t48 21t34 32t13 45q0 70 -85 70q-32 0 -63 -8.5
t-59 -22.5l-25 97q36 19 79 29.5t93 10.5q43 0 79.5 -11t62.5 -31t40.5 -49t14.5 -65q0 -62 -37 -108t-100 -69q30 -8 57.5 -22t48.5 -34.5t33 -48t12 -62.5z" />
    <glyph glyph-name="four.onum" horiz-adv-x="587" 
d="M468 22v-185h-134v185h-279l-20 104l277 381h156v-379h92v-106h-92zM334 369l-170 -241h170v241z" />
    <glyph glyph-name="five.onum" horiz-adv-x="496" 
d="M471 32q0 -50 -20 -88t-54.5 -64t-80.5 -39.5t-99 -13.5q-40 0 -85 7.5t-77 18.5l18 105q34 -11 67 -16.5t66 -5.5q28 0 51.5 4.5t40.5 15t27 27.5t10 41q0 27 -13 45.5t-35.5 29.5t-51.5 16.5t-62 7.5l-93 5v379h352v-110h-216v-164l29 -2q43 -3 84 -16.5t72.5 -38.5
t50.5 -60.5t19 -83.5z" />
    <glyph glyph-name="six.onum" horiz-adv-x="565" 
d="M443 576q-45 -23 -84.5 -44.5t-72 -48t-56 -60.5t-35.5 -82q24 26 58.5 40.5t76.5 14.5q43 0 79 -13.5t61.5 -39t40 -61.5t14.5 -81q0 -46 -17.5 -85t-48.5 -67.5t-72 -44.5t-87 -16q-63 0 -109 23.5t-76 61t-45 85t-15 95.5q0 79 23.5 144.5t68 118.5t108.5 93.5
t144 68.5zM395 197q0 44 -25 69t-70 25q-36 0 -62.5 -14t-44.5 -33q0 -29 5 -56t17.5 -48t32.5 -34t49 -13q45 0 71.5 29.5t26.5 74.5z" />
    <glyph glyph-name="seven.onum" horiz-adv-x="478" 
d="M448 400q-36 -83 -70.5 -155.5t-70.5 -141t-74.5 -136t-82.5 -140.5l-105 61q40 69 76.5 132.5t69.5 125.5t64 124t61 128h-270v109h383z" />
    <glyph glyph-name="eight.onum" horiz-adv-x="553" 
d="M277 678q46 0 84 -11t65.5 -31.5t42.5 -50.5t15 -68q0 -27 -10 -50t-26.5 -43.5t-37.5 -38t-43 -32.5q27 -17 51.5 -35.5t43 -41t29.5 -49.5t11 -60q0 -38 -17.5 -71t-48.5 -57t-72 -37.5t-87 -13.5q-51 0 -93 12.5t-71.5 35t-45.5 55t-16 73.5q0 31 12 57.5t31 48t43 40
t49 35.5q-50 34 -83.5 72.5t-33.5 92.5q0 37 14.5 68t41.5 53.5t65.5 34.5t86.5 12zM372 167q0 37 -25 63.5t-70 55.5q-20 -15 -37.5 -28t-30.5 -27t-20.5 -29.5t-7.5 -35.5q0 -38 25.5 -58.5t70.5 -20.5q42 0 68.5 22.5t26.5 57.5zM197 513q0 -29 17.5 -50.5t62.5 -51.5
q35 24 57 48t22 54q0 32 -22 49.5t-57 17.5q-36 0 -58 -19t-22 -48z" />
    <glyph glyph-name="nine.onum" horiz-adv-x="566" 
d="M131 -71q45 20 84.5 41.5t71.5 48.5t56 62t36 83q-24 -26 -58.5 -40.5t-76.5 -14.5q-43 0 -79 13.5t-61.5 39t-40 61.5t-14.5 81q0 48 16.5 87.5t46.5 67.5t71.5 43t90.5 15q64 0 110.5 -23.5t76.5 -61t44 -85t14 -95.5q0 -80 -23.5 -146t-68 -118.5t-108.5 -92.5
t-144 -68zM179 309q0 -46 26 -70.5t69 -24.5q36 0 62.5 14t44.5 33q0 28 -5 55.5t-17.5 48.5t-32.5 34t-49 13q-45 0 -71.5 -28t-26.5 -75z" />
    <glyph glyph-name="cent.onum" horiz-adv-x="495" 
d="M357 598v-125q49 -8 83 -25l-18 -97q-24 9 -49 14t-55 5q-64 0 -96 -30.5t-32 -86.5t32 -86.5t96 -30.5q30 0 55 5t49 14l18 -97q-34 -17 -83 -25v-125h-125v128q-84 17 -131.5 74.5t-47.5 142.5t47.5 142.5t131.5 74.5v128h125z" />
    <glyph glyph-name="dollar.onum" horiz-adv-x="480" 
d="M179 -104v110q-32 5 -67.5 15.5t-61.5 23.5l28 96q31 -15 72 -27.5t80 -12.5q35 0 55.5 11.5t20.5 35.5q0 13 -7 22t-18 16t-26.5 12.5t-31.5 12.5q-42 17 -74 32t-53.5 34t-33 44t-11.5 63q0 54 35.5 88.5t89.5 46.5v111h125v-108q27 -3 55.5 -10t53.5 -20l-20 -98
q-33 15 -70.5 23.5t-68.5 8.5q-30 0 -48 -8t-18 -31q0 -21 23 -32.5t57 -25.5q29 -12 60 -26.5t56.5 -33.5t42 -45t16.5 -62q0 -60 -36.5 -100t-99.5 -55v-111h-125z" />
    <glyph glyph-name="Euro.onum" horiz-adv-x="548" 
d="M40 288v68h72q26 81 92.5 127t164.5 46q36 0 72.5 -6.5t61.5 -17.5l-15 -94q-21 8 -47.5 12t-51.5 4q-58 0 -93 -18t-50 -53h195v-68h-211q-1 -7 -1 -14.5v-13.5v-13.5t1 -14.5h211v-68h-195q14 -35 49.5 -53.5t93.5 -18.5q25 0 51.5 4t47.5 12l15 -94
q-25 -11 -61.5 -17.5t-72.5 -6.5q-98 0 -164.5 46.5t-92.5 127.5h-72v68h59q-1 7 -1 14v14v14t1 14h-59z" />
    <glyph glyph-name="sterling.onum" horiz-adv-x="519" 
d="M55 299h82v21q0 56 15.5 95.5t43.5 65t67 37t87 11.5q35 0 68.5 -5.5t62.5 -19.5l-16 -99q-48 17 -98 17q-48 0 -70.5 -23t-22.5 -79v-21h152v-100h-162q-8 -29 -24 -53t-39 -42h264v-104h-393l-22 87q30 24 49 49.5t29 62.5h-73v100z" />
    <glyph glyph-name="yen.onum" horiz-adv-x="550" 
d="M67 318h72l-101 201h139l98 -225l98 225h139l-101 -201h71v-84h-113l-26 -52v-9h139v-82h-139v-91h-137v91h-139v82h139v9l-26 52h-113v84z" />
    <glyph glyph-name="numbersign.onum" horiz-adv-x="663" 
d="M394 123h-155l-14 -123h-101l15 123h-87v83h96l15 123h-94v83h103l15 117h100l-14 -117h154l15 117h100l-14 -117h85v-83h-95l-14 -123h92v-83h-102l-15 -123h-100zM249 206h154l15 123h-155z" />
    <glyph glyph-name="plus.onum" horiz-adv-x="600" 
d="M359 209v-194h-118v194h-176v102h176v194h118v-194h176v-102h-176z" />
    <glyph glyph-name="plusminus.onum" horiz-adv-x="612" 
d="M365 290v-136h-118v136h-177v102h177v134h118v-134h177v-102h-177zM70 0v99h472v-99h-472z" />
    <glyph glyph-name="multiply.onum" horiz-adv-x="603" 
d="M302 335l155 156l76 -77l-155 -155l155 -155l-76 -77l-155 156l-156 -156l-76 77l155 155l-155 155l76 77z" />
    <glyph glyph-name="divide.onum" horiz-adv-x="602" 
d="M65 209v101h472v-101h-472zM374 445q0 -32 -20.5 -51.5t-52.5 -19.5t-52.5 19.5t-20.5 51.5q0 31 20.5 51t52.5 20t52.5 -20t20.5 -51zM374 74q0 -32 -20.5 -51.5t-52.5 -19.5t-52.5 19.5t-20.5 51.5q0 31 20.5 51t52.5 20t52.5 -20t20.5 -51z" />
    <glyph glyph-name="equal.onum" horiz-adv-x="610" 
d="M75 322v101h460v-101h-460zM75 97v101h460v-101h-460z" />
    <glyph glyph-name="notequal.onum" horiz-adv-x="620" 
d="M442 423h98v-101h-146l-62 -124h208v-101h-256l-66 -134l-86 42l45 92h-97v101h146l62 124h-208v101h257l65 134l85 -43z" />
    <glyph glyph-name="logicalnot.onum" horiz-adv-x="600" 
d="M535 14h-118v194h-352v102h470v-296z" />
    <glyph glyph-name="approxequal.onum" horiz-adv-x="629" 
d="M425 277q-28 0 -56.5 9.5t-58.5 24.5q-26 13 -47 21t-42 8q-32 0 -54.5 -14.5t-46.5 -34.5l-55 74q34 37 71.5 60t92.5 23q32 0 58 -9t55 -26q25 -14 45 -21.5t42 -7.5q26 0 46.5 11t43.5 28l52 -76q-32 -33 -68 -51.5t-78 -18.5zM425 70q-28 0 -56.5 9.5t-58.5 24.5
q-26 13 -47 21t-42 8q-32 0 -54.5 -14.5t-46.5 -34.5l-55 74q34 37 71.5 60t92.5 23q32 0 58 -9t55 -26q25 -14 45 -21.5t42 -7.5q26 0 46.5 11t43.5 28l52 -76q-32 -33 -68 -51.5t-78 -18.5z" />
    <glyph glyph-name="endash.onum" horiz-adv-x="553" 
d="M70 199v111h413v-111h-413z" />
    <glyph glyph-name="minus.onum" horiz-adv-x="571" 
d="M65 206v104h441v-104h-441z" />
    <glyph glyph-name="less.onum" horiz-adv-x="596" 
d="M494 514l42 -95l-352 -160l352 -160l-42 -95l-429 201v108z" />
    <glyph glyph-name="greater.onum" horiz-adv-x="596" 
d="M531 313v-108l-429 -201l-42 95l352 160l-352 160l42 95z" />
    <glyph glyph-name="lessequal.onum" horiz-adv-x="601" 
d="M65 0v99h471v-99h-471zM509 529l25 -98l-331 -91l331 -90l-25 -99l-441 138v103z" />
    <glyph glyph-name="greaterequal.onum" horiz-adv-x="601" 
d="M65 0v99h471v-99h-471zM533 392v-103l-441 -138l-25 99l331 90l-331 91l25 98z" />
    <glyph glyph-name="percent.onum" horiz-adv-x="906" 
d="M542 539l91 -45l-268 -504l-89 48zM385 381q0 -32 -11 -60.5t-32 -50t-52 -34.5t-71 -13q-39 0 -70 13t-52.5 34.5t-32.5 50t-11 60.5q0 31 11 60t32.5 50.5t52.5 34.5t70 13q40 0 71 -13t52 -34.5t32 -50.5t11 -60zM285 381q0 35 -17 56.5t-49 21.5t-49 -21.5t-17 -56.5
t17 -56.5t49 -21.5t49 21.5t17 56.5zM854 148q0 -32 -11 -60.5t-32 -50t-52 -34.5t-71 -13q-39 0 -70 13t-52.5 34.5t-32.5 50t-11 60.5q0 31 11 60t32.5 50.5t52.5 34.5t70 13q40 0 71 -13t52 -34.5t32 -50.5t11 -60zM754 148q0 35 -17 56.5t-49 21.5t-49 -21.5t-17 -56.5
t17 -56.5t49 -21.5t49 21.5t17 56.5z" />
    <glyph glyph-name="perthousand.onum" horiz-adv-x="1284" 
d="M542 539l91 -45l-268 -504l-89 48zM385 381q0 -32 -11 -60.5t-32 -50t-52 -34.5t-71 -13q-39 0 -70 13t-52.5 34.5t-32.5 50t-11 60.5q0 31 11 60t32.5 50.5t52.5 34.5t70 13q40 0 71 -13t52 -34.5t32 -50.5t11 -60zM285 381q0 35 -17 56.5t-49 21.5t-49 -21.5t-17 -56.5
t17 -56.5t49 -21.5t49 21.5t17 56.5zM854 148q0 -32 -11 -60.5t-32 -50t-52 -34.5t-71 -13q-39 0 -70 13t-52.5 34.5t-32.5 50t-11 60.5q0 31 11 60t32.5 50.5t52.5 34.5t70 13q40 0 71 -13t52 -34.5t32 -50.5t11 -60zM754 148q0 35 -17 56.5t-49 21.5t-49 -21.5t-17 -56.5
t17 -56.5t49 -21.5t49 21.5t17 56.5zM1232 148q0 -32 -11 -60.5t-32 -50t-52 -34.5t-71 -13q-39 0 -70 13t-52.5 34.5t-32.5 50t-11 60.5q0 31 11 60t32.5 50.5t52.5 34.5t70 13q40 0 71 -13t52 -34.5t32 -50.5t11 -60zM1132 148q0 35 -17 56.5t-49 21.5t-49 -21.5
t-17 -56.5t17 -56.5t49 -21.5t49 21.5t17 56.5z" />
    <glyph glyph-name="zeroonum.tnum" 
d="M514 253q0 -51 -14.5 -99t-44.5 -84.5t-74.5 -59t-104.5 -22.5t-104.5 22.5t-74.5 59t-44.5 84.5t-14.5 99t14.5 98.5t44.5 84.5t74.5 59t104.5 22t104.5 -22t74.5 -59t44.5 -84.5t14.5 -98.5zM380 253q0 33 -6 62.5t-18.5 51t-32.5 34t-47 12.5t-47 -12.5t-32.5 -34
t-18.5 -51t-6 -62.5t6 -62.5t18.5 -51t32.5 -34t47 -12.5t47 12.5t32.5 34t18.5 51t6 62.5z" />
    <glyph glyph-name="oneonum.tnum" 
d="M66 109h157v254l-130 -41l-34 107l221 78h80v-398h140v-109h-434v109z" />
    <glyph glyph-name="twoonum.tnum" 
d="M85 471q34 22 75.5 34t88.5 12q44 0 80.5 -11.5t63 -32.5t41 -51.5t14.5 -68.5q0 -40 -12 -72t-32 -58.5t-46.5 -48t-56.5 -41.5q-10 -7 -19 -13t-17 -11h216v-109h-407l-20 81q41 31 82 62.5t73 57.5q15 12 33 26.5t33.5 31.5t26 36.5t10.5 42.5q0 34 -21.5 52.5
t-60.5 18.5q-30 0 -57 -10t-53 -24z" />
    <glyph glyph-name="threeonum.tnum" 
d="M470 17q0 -44 -17.5 -79t-48.5 -59.5t-73.5 -38t-92.5 -13.5q-45 0 -92 11.5t-80 28.5l25 99q27 -14 63.5 -24t71.5 -10q50 0 78.5 21t28.5 66q0 27 -14.5 45.5t-37 30t-50 17.5t-52.5 9l-37 4v102l27 4q28 4 55 12t48 21t34 32t13 45q0 70 -85 70q-32 0 -63 -8.5
t-59 -22.5l-25 97q36 19 79 29.5t93 10.5q43 0 79.5 -11t62.5 -31t40.5 -49t14.5 -65q0 -62 -37 -108t-100 -69q30 -8 57.5 -22t48.5 -34.5t33 -48t12 -62.5z" />
    <glyph glyph-name="fouronum.tnum" 
d="M314 467l-160 -344h162v150h125v-150h89v-103h-89v-183h-125v183h-276l-18 101l186 396z" />
    <glyph glyph-name="fiveonum.tnum" 
d="M493 32q0 -50 -20 -88t-54.5 -64t-80.5 -39.5t-99 -13.5q-40 0 -85 7.5t-77 18.5l18 105q34 -11 67 -16.5t66 -5.5q28 0 51.5 4.5t40.5 15t27 27.5t10 41q0 27 -13 45.5t-35.5 29.5t-51.5 16.5t-62 7.5l-93 5v379h352v-110h-216v-164l29 -2q43 -3 84 -16.5t72.5 -38.5
t50.5 -60.5t19 -83.5z" />
    <glyph glyph-name="sixonum.tnum" 
d="M429 576q-45 -23 -84.5 -44.5t-72 -48t-56 -60.5t-35.5 -82q24 26 58.5 40.5t76.5 14.5q43 0 79 -13.5t61.5 -39t40 -61.5t14.5 -81q0 -46 -17.5 -85t-48.5 -67.5t-72 -44.5t-87 -16q-63 0 -109 23.5t-76 61t-45 85t-15 95.5q0 79 23.5 144.5t68 118.5t108.5 93.5
t144 68.5zM381 197q0 44 -25 69t-70 25q-36 0 -62.5 -14t-44.5 -33q0 -29 5 -56t17.5 -48t32.5 -34t49 -13q45 0 71.5 29.5t26.5 74.5z" />
    <glyph glyph-name="sevenonum.tnum" 
d="M484 400q-65 -152 -140.5 -290.5t-159.5 -280.5l-104 62q42 71 79.5 136.5t71 127.5t64 122t58.5 121h-288v109h400z" />
    <glyph glyph-name="eightonum.tnum" 
d="M276 678q46 0 84 -11t65.5 -31.5t42.5 -50.5t15 -68q0 -27 -10 -50t-26.5 -43.5t-37.5 -38t-43 -32.5q27 -17 51.5 -35.5t43 -41t29.5 -49.5t11 -60q0 -38 -17.5 -71t-48.5 -57t-72 -37.5t-87 -13.5q-51 0 -93 12.5t-71.5 35t-45.5 55t-16 73.5q0 31 12 57.5t31 48t43 40
t49 35.5q-50 34 -83.5 72.5t-33.5 92.5q0 37 14.5 68t41.5 53.5t65.5 34.5t86.5 12zM371 167q0 37 -25 63.5t-70 55.5q-20 -15 -37.5 -28t-30.5 -27t-20.5 -29.5t-7.5 -35.5q0 -38 25.5 -58.5t70.5 -20.5q42 0 68.5 22.5t26.5 57.5zM196 513q0 -29 17.5 -50.5t62.5 -51.5
q35 24 57 48t22 54q0 32 -22 49.5t-57 17.5q-36 0 -58 -19t-22 -48z" />
    <glyph glyph-name="nineonum.tnum" 
d="M124 -71q45 20 84.5 41.5t71.5 48.5t56 62t36 83q-24 -26 -58.5 -40.5t-76.5 -14.5q-43 0 -79 13.5t-61.5 39t-40 61.5t-14.5 81q0 48 16.5 87.5t46.5 67.5t71.5 43t90.5 15q64 0 110.5 -23.5t76.5 -61t44 -85t14 -95.5q0 -80 -23.5 -146t-68 -118.5t-108.5 -92.5
t-144 -68zM172 309q0 -46 26 -70.5t69 -24.5q36 0 62.5 14t44.5 33q0 28 -5 55.5t-17.5 48.5t-32.5 34t-49 13q-45 0 -71.5 -28t-26.5 -75z" />
    <glyph glyph-name="centonum.tnum" 
d="M394 598v-125q49 -8 83 -25l-18 -97q-24 9 -49 14t-55 5q-64 0 -96 -30.5t-32 -86.5t32 -86.5t96 -30.5q30 0 55 5t49 14l18 -97q-34 -17 -83 -25v-125h-125v128q-84 17 -131.5 74.5t-47.5 142.5t47.5 142.5t131.5 74.5v128h125z" />
    <glyph glyph-name="dollaronum.tnum" 
d="M228 -104v110q-32 5 -67.5 15.5t-61.5 23.5l28 96q31 -15 72 -27.5t80 -12.5q35 0 55.5 11.5t20.5 35.5q0 13 -7 22t-18 16t-26.5 12.5t-31.5 12.5q-42 17 -74 32t-53.5 34t-33 44t-11.5 63q0 54 35.5 88.5t89.5 46.5v111h125v-108q27 -3 55.5 -10t53.5 -20l-20 -98
q-33 15 -70.5 23.5t-68.5 8.5q-30 0 -48 -8t-18 -31q0 -21 23 -32.5t57 -25.5q29 -12 60 -26.5t56.5 -33.5t42 -45t16.5 -62q0 -60 -36.5 -100t-99.5 -55v-111h-125z" />
    <glyph glyph-name="Euroonum.tnum" 
d="M44 288v68h72q26 81 92.5 127t164.5 46q36 0 72.5 -6.5t61.5 -17.5l-15 -94q-21 8 -47.5 12t-51.5 4q-58 0 -93 -18t-50 -53h195v-68h-211q-1 -7 -1 -14.5v-13.5v-13.5t1 -14.5h211v-68h-195q14 -35 49.5 -53.5t93.5 -18.5q25 0 51.5 4t47.5 12l15 -94
q-25 -11 -61.5 -17.5t-72.5 -6.5q-98 0 -164.5 46.5t-92.5 127.5h-72v68h59q-1 7 -1 14v14v14t1 14h-59z" />
    <glyph glyph-name="sterlingonum.tnum" 
d="M73 299h82v21q0 56 15.5 95.5t43.5 65t67 37t87 11.5q35 0 68.5 -5.5t62.5 -19.5l-16 -99q-48 17 -98 17q-48 0 -70.5 -23t-22.5 -79v-21h152v-100h-162q-8 -29 -24 -53t-39 -42h264v-104h-393l-22 87q30 24 49 49.5t29 62.5h-73v100z" />
    <glyph glyph-name="yenonum.tnum" 
d="M68 318h72l-101 201h139l98 -225l98 225h139l-101 -201h71v-84h-113l-26 -52v-9h139v-82h-139v-91h-137v91h-139v82h139v9l-26 52h-113v84z" />
    <glyph glyph-name="numbersignonum.tnum" horiz-adv-x="658" 
d="M394 123h-155l-14 -123h-101l15 123h-87v83h96l15 123h-94v83h103l15 117h100l-14 -117h154l15 117h100l-14 -117h85v-83h-95l-14 -123h92v-83h-102l-15 -123h-100zM249 206h154l15 123h-155z" />
    <glyph glyph-name="plusonum.tnum" 
d="M335 209v-194h-118v194h-176v102h176v194h118v-194h176v-102h-176z" />
    <glyph glyph-name="plusminusonum.tnum" 
d="M335 290v-136h-118v136h-177v102h177v134h118v-134h177v-102h-177zM40 0v99h472v-99h-472z" />
    <glyph glyph-name="multiplyonum.tnum" 
d="M276 335l155 156l76 -77l-155 -155l155 -155l-76 -77l-155 156l-156 -156l-76 77l155 155l-155 155l76 77z" />
    <glyph glyph-name="divideonum.tnum" 
d="M40 209v101h472v-101h-472zM349 445q0 -32 -20.5 -51.5t-52.5 -19.5t-52.5 19.5t-20.5 51.5q0 31 20.5 51t52.5 20t52.5 -20t20.5 -51zM349 74q0 -32 -20.5 -51.5t-52.5 -19.5t-52.5 19.5t-20.5 51.5q0 31 20.5 51t52.5 20t52.5 -20t20.5 -51z" />
    <glyph glyph-name="equalonum.tnum" 
d="M46 322v101h460v-101h-460zM46 97v101h460v-101h-460z" />
    <glyph glyph-name="notequalonum.tnum" 
d="M408 423h98v-101h-146l-62 -124h208v-101h-256l-66 -134l-86 42l45 92h-97v101h146l62 124h-208v101h257l65 134l85 -43z" />
    <glyph glyph-name="logicalnotonum.tnum" 
d="M511 14h-118v194h-352v102h470v-296z" />
    <glyph glyph-name="approxequalonum.tnum" 
d="M383 277q-28 0 -56.5 9.5t-58.5 24.5q-26 13 -47 21t-42 8q-32 0 -54.5 -14.5t-46.5 -34.5l-55 74q34 37 71.5 60t92.5 23q32 0 58 -9t55 -26q25 -14 45 -21.5t42 -7.5q26 0 46.5 11t43.5 28l52 -76q-32 -33 -68 -51.5t-78 -18.5zM383 70q-28 0 -56.5 9.5t-58.5 24.5
q-26 13 -47 21t-42 8q-32 0 -54.5 -14.5t-46.5 -34.5l-55 74q34 37 71.5 60t92.5 23q32 0 58 -9t55 -26q25 -14 45 -21.5t42 -7.5q26 0 46.5 11t43.5 28l52 -76q-32 -33 -68 -51.5t-78 -18.5z" />
    <glyph glyph-name="endashonum.tnum" 
d="M69 199v111h413v-111h-413z" />
    <glyph glyph-name="minusonum.tnum" 
d="M55 206v104h441v-104h-441z" />
    <glyph glyph-name="lessonum.tnum" 
d="M469 514l42 -95l-352 -160l352 -160l-42 -95l-429 201v108z" />
    <glyph glyph-name="greateronum.tnum" 
d="M511 313v-108l-429 -201l-42 95l352 160l-352 160l42 95z" />
    <glyph glyph-name="lessequalonum.tnum" 
d="M40 0v99h471v-99h-471zM484 529l25 -98l-331 -91l331 -90l-25 -99l-441 138v103z" />
    <glyph glyph-name="greaterequalonum.tnum" 
d="M40 0v99h471v-99h-471zM508 392v-103l-441 -138l-25 99l331 90l-331 91l25 98z" />
    <glyph glyph-name="percentonum.tnum" horiz-adv-x="906" 
d="M542 539l91 -45l-268 -504l-89 48zM385 381q0 -32 -11 -60.5t-32 -50t-52 -34.5t-71 -13q-39 0 -70 13t-52.5 34.5t-32.5 50t-11 60.5q0 31 11 60t32.5 50.5t52.5 34.5t70 13q40 0 71 -13t52 -34.5t32 -50.5t11 -60zM285 381q0 35 -17 56.5t-49 21.5t-49 -21.5t-17 -56.5
t17 -56.5t49 -21.5t49 21.5t17 56.5zM854 148q0 -32 -11 -60.5t-32 -50t-52 -34.5t-71 -13q-39 0 -70 13t-52.5 34.5t-32.5 50t-11 60.5q0 31 11 60t32.5 50.5t52.5 34.5t70 13q40 0 71 -13t52 -34.5t32 -50.5t11 -60zM754 148q0 35 -17 56.5t-49 21.5t-49 -21.5t-17 -56.5
t17 -56.5t49 -21.5t49 21.5t17 56.5z" />
    <glyph glyph-name="perthousandonum.tnum" horiz-adv-x="1284" 
d="M542 539l91 -45l-268 -504l-89 48zM385 381q0 -32 -11 -60.5t-32 -50t-52 -34.5t-71 -13q-39 0 -70 13t-52.5 34.5t-32.5 50t-11 60.5q0 31 11 60t32.5 50.5t52.5 34.5t70 13q40 0 71 -13t52 -34.5t32 -50.5t11 -60zM285 381q0 35 -17 56.5t-49 21.5t-49 -21.5t-17 -56.5
t17 -56.5t49 -21.5t49 21.5t17 56.5zM854 148q0 -32 -11 -60.5t-32 -50t-52 -34.5t-71 -13q-39 0 -70 13t-52.5 34.5t-32.5 50t-11 60.5q0 31 11 60t32.5 50.5t52.5 34.5t70 13q40 0 71 -13t52 -34.5t32 -50.5t11 -60zM754 148q0 35 -17 56.5t-49 21.5t-49 -21.5t-17 -56.5
t17 -56.5t49 -21.5t49 21.5t17 56.5zM1232 148q0 -32 -11 -60.5t-32 -50t-52 -34.5t-71 -13q-39 0 -70 13t-52.5 34.5t-32.5 50t-11 60.5q0 31 11 60t32.5 50.5t52.5 34.5t70 13q40 0 71 -13t52 -34.5t32 -50.5t11 -60zM1132 148q0 35 -17 56.5t-49 21.5t-49 -21.5
t-17 -56.5t17 -56.5t49 -21.5t49 21.5t17 56.5z" />
    <glyph glyph-name="zerosmcp.tnum" 
d="M495 259q0 -59 -14.5 -108t-42.5 -85t-69 -56t-93 -20q-53 0 -93.5 20t-68.5 56t-42.5 85t-14.5 108t14.5 108.5t42.5 85.5t68.5 56t93.5 20q52 0 93 -20t69 -56t42.5 -85.5t14.5 -108.5zM360 259q0 35 -3.5 65t-13 52.5t-26 35t-41.5 12.5t-41.5 -12.5t-26 -35
t-13 -52.5t-3.5 -65t3.5 -64.5t13 -52t26 -35t41.5 -12.5t41.5 12.5t26 35t13 52t3.5 64.5z" />
    <glyph glyph-name="onesmcp.tnum" 
d="M64 105h147v277l-125 -38l-28 107l209 68h80v-414h137v-105h-420v105z" />
    <glyph glyph-name="twosmcp.tnum" 
d="M104 491q32 17 69.5 27.5t84.5 10.5q43 0 79 -11t61.5 -32t39.5 -51.5t14 -68.5q0 -37 -10 -67.5t-28.5 -57t-44.5 -51t-57 -49.5q-9 -7 -20.5 -15.5t-22.5 -16.5h193v-109h-367l-22 82q17 14 36.5 31t39 33.5t37 32t31.5 27.5q15 13 32.5 29.5t32 34.5t24 38t9.5 42
q0 35 -22 52.5t-59 17.5q-26 0 -53.5 -6.5t-50.5 -20.5z" />
    <glyph glyph-name="threesmcp.tnum" 
d="M458 148q0 -38 -16.5 -67t-45 -49.5t-66 -31t-80.5 -10.5q-45 0 -86.5 9t-70.5 23l23 95q23 -11 54 -18t63 -7q38 0 63.5 13.5t25.5 44.5q0 33 -29.5 46t-69.5 13h-73v102h59q45 0 72.5 16t27.5 48q0 27 -20 39.5t-53 12.5q-25 0 -52 -6.5t-50 -17.5l-24 94q29 16 68 24
t83 8q82 0 133 -34t51 -97q0 -44 -27 -77.5t-70 -51.5q45 -13 77.5 -42t32.5 -79z" />
    <glyph glyph-name="foursmcp.tnum" 
d="M434 338v-125h72v-98h-72v-115h-122v115h-244l-21 89l172 325l99 -50l-142 -266h136v125h122z" />
    <glyph glyph-name="fivesmcp.tnum" 
d="M462 161q0 -39 -16 -71t-45 -54t-69 -34t-89 -12q-42 0 -81.5 6t-71.5 17l18 100q22 -9 56.5 -15t63.5 -6q45 0 72.5 14t27.5 46q0 35 -29.5 48t-72.5 13h-112v306h311v-104h-179v-97h10q42 0 79.5 -8.5t65.5 -27.5t44.5 -49t16.5 -72z" />
    <glyph glyph-name="sixsmcp.tnum" 
d="M403 424q-77 -22 -130 -54t-73 -93q20 22 49.5 32t67.5 10q74 0 119 -40t45 -113q0 -37 -15 -69t-41.5 -56t-63 -37.5t-80.5 -13.5q-52 0 -91.5 18t-66 48.5t-40 69.5t-13.5 81q0 71 24 125t65 93t95 64t114 40zM359 159q0 32 -20 50t-54 18q-28 0 -50.5 -10.5
t-37.5 -25.5q0 -19 5 -37.5t15.5 -33.5t26 -24.5t37.5 -9.5q34 0 56 20t22 53z" />
    <glyph glyph-name="sevensmcp.tnum" 
d="M475 423l-237 -423h-139l236 410h-243v109h366z" />
    <glyph glyph-name="eightsmcp.tnum" 
d="M462 399q0 -42 -27.5 -72.5t-65.5 -53.5q20 -11 39.5 -23.5t35.5 -29t25.5 -37t9.5 -45.5q0 -31 -15.5 -58t-43 -47t-65 -31.5t-80.5 -11.5q-45 0 -82.5 10t-64.5 28.5t-41.5 45.5t-14.5 61q0 26 10 46.5t26 37t35.5 29.5t39.5 23q-40 23 -67 52.5t-27 75.5q0 30 14.5 54
t40 41t59 26t72.5 9t73 -9t59.5 -25.5t40 -40.5t14.5 -55zM353 136q0 24 -20.5 42.5t-57.5 38.5q-33 -19 -55.5 -36.5t-22.5 -44.5q0 -25 21 -40t57 -15q35 0 56.5 16t21.5 39zM211 393q0 -22 16.5 -37.5t49.5 -33.5q27 15 45 32t18 39q0 20 -17 32.5t-48 12.5t-47.5 -12.5
t-16.5 -32.5z" />
    <glyph glyph-name="ninesmcp.tnum" 
d="M140 95q75 19 128.5 52.5t75.5 95.5q-21 -21 -51.5 -32.5t-66.5 -11.5t-66 11t-51.5 31t-34 48.5t-12.5 64.5q0 37 13.5 69t39 55.5t63 37t84.5 13.5q52 0 92 -18.5t66 -48.5t39.5 -69.5t13.5 -81.5q0 -70 -24 -123.5t-65 -92.5t-95 -64.5t-114 -40.5zM184 359
q0 -32 19.5 -50t54.5 -18q28 0 50.5 11t37.5 26q-1 19 -6 38t-15 34t-25.5 24t-37.5 9q-35 0 -56.5 -20.5t-21.5 -53.5z" />
    <glyph glyph-name="centsmcp.tnum" 
d="M394 598v-125q49 -8 83 -25l-18 -97q-24 9 -49 14t-55 5q-64 0 -96 -30.5t-32 -86.5t32 -86.5t96 -30.5q30 0 55 5t49 14l18 -97q-34 -17 -83 -25v-125h-125v128q-84 17 -131.5 74.5t-47.5 142.5t47.5 142.5t131.5 74.5v128h125z" />
    <glyph glyph-name="dollarsmcp.tnum" 
d="M210 -104v110q-32 5 -67.5 15.5t-61.5 23.5l28 96q31 -15 72 -27.5t80 -12.5q35 0 55.5 11.5t20.5 35.5q0 13 -7 22t-18 16t-26.5 12.5t-31.5 12.5q-42 17 -74 32t-53.5 34t-33 44t-11.5 63q0 54 35.5 88.5t89.5 46.5v111h125v-108q27 -3 55.5 -10t53.5 -20l-20 -98
q-33 15 -70.5 23.5t-68.5 8.5q-30 0 -48 -8t-18 -31q0 -21 23 -32.5t57 -25.5q29 -12 60 -26.5t56.5 -33.5t42 -45t16.5 -62q0 -60 -36.5 -100t-99.5 -55v-111h-125z" />
    <glyph glyph-name="Eurosmcp.tnum" 
d="M44 288v68h72q26 81 92.5 127t164.5 46q36 0 72.5 -6.5t61.5 -17.5l-15 -94q-21 8 -47.5 12t-51.5 4q-58 0 -93 -18t-50 -53h195v-68h-211q-1 -7 -1 -14.5v-13.5v-13.5t1 -14.5h211v-68h-195q14 -35 49.5 -53.5t93.5 -18.5q25 0 51.5 4t47.5 12l15 -94
q-25 -11 -61.5 -17.5t-72.5 -6.5q-98 0 -164.5 46.5t-92.5 127.5h-72v68h59q-1 7 -1 14v14v14t1 14h-59z" />
    <glyph glyph-name="sterlingsmcp.tnum" 
d="M73 299h82v21q0 56 15.5 95.5t43.5 65t67 37t87 11.5q35 0 68.5 -5.5t62.5 -19.5l-16 -99q-48 17 -98 17q-48 0 -70.5 -23t-22.5 -79v-21h152v-100h-162q-8 -29 -24 -53t-39 -42h264v-104h-393l-22 87q30 24 49 49.5t29 62.5h-73v100z" />
    <glyph glyph-name="yensmcp.tnum" 
d="M68 318h72l-101 201h139l98 -225l98 225h139l-101 -201h71v-84h-113l-26 -52v-9h139v-82h-139v-91h-137v91h-139v82h139v9l-26 52h-113v84z" />
    <glyph glyph-name="numbersignsmcp.tnum" horiz-adv-x="640" 
d="M379 117h-144l-13 -117h-101l13 117h-82v84h92l14 119h-90v84h100l13 115h100l-13 -115h145l13 115h100l-13 -115h82v-84h-91l-15 -119h90v-84h-99l-13 -117h-101zM244 201h145l14 119h-144z" />
    <glyph glyph-name="plussmcp.tnum" 
d="M335 209v-194h-118v194h-176v102h176v194h118v-194h176v-102h-176z" />
    <glyph glyph-name="plusminussmcp.tnum" 
d="M335 290v-136h-118v136h-177v102h177v134h118v-134h177v-102h-177zM40 0v99h472v-99h-472z" />
    <glyph glyph-name="multiplysmcp.tnum" 
d="M276 335l155 156l76 -77l-155 -155l155 -155l-76 -77l-155 156l-156 -156l-76 77l155 155l-155 155l76 77z" />
    <glyph glyph-name="dividesmcp.tnum" 
d="M40 209v101h472v-101h-472zM349 445q0 -32 -20.5 -51.5t-52.5 -19.5t-52.5 19.5t-20.5 51.5q0 31 20.5 51t52.5 20t52.5 -20t20.5 -51zM349 74q0 -32 -20.5 -51.5t-52.5 -19.5t-52.5 19.5t-20.5 51.5q0 31 20.5 51t52.5 20t52.5 -20t20.5 -51z" />
    <glyph glyph-name="equalsmcp.tnum" 
d="M46 322v101h460v-101h-460zM46 97v101h460v-101h-460z" />
    <glyph glyph-name="notequalsmcp.tnum" 
d="M408 423h98v-101h-146l-62 -124h208v-101h-256l-66 -134l-86 42l45 92h-97v101h146l62 124h-208v101h257l65 134l85 -43z" />
    <glyph glyph-name="logicalnotsmcp.tnum" 
d="M511 14h-118v194h-352v102h470v-296z" />
    <glyph glyph-name="approxequalsmcp.tnum" 
d="M383 277q-28 0 -56.5 9.5t-58.5 24.5q-26 13 -47 21t-42 8q-32 0 -54.5 -14.5t-46.5 -34.5l-55 74q34 37 71.5 60t92.5 23q32 0 58 -9t55 -26q25 -14 45 -21.5t42 -7.5q26 0 46.5 11t43.5 28l52 -76q-32 -33 -68 -51.5t-78 -18.5zM383 70q-28 0 -56.5 9.5t-58.5 24.5
q-26 13 -47 21t-42 8q-32 0 -54.5 -14.5t-46.5 -34.5l-55 74q34 37 71.5 60t92.5 23q32 0 58 -9t55 -26q25 -14 45 -21.5t42 -7.5q26 0 46.5 11t43.5 28l52 -76q-32 -33 -68 -51.5t-78 -18.5z" />
    <glyph glyph-name="endashsmcp.tnum" 
d="M69 199v111h413v-111h-413z" />
    <glyph glyph-name="minussmcp.tnum" 
d="M55 206v104h441v-104h-441z" />
    <glyph glyph-name="lesssmcp.tnum" 
d="M469 514l42 -95l-352 -160l352 -160l-42 -95l-429 201v108z" />
    <glyph glyph-name="greatersmcp.tnum" 
d="M511 313v-108l-429 -201l-42 95l352 160l-352 160l42 95z" />
    <glyph glyph-name="lessequalsmcp.tnum" 
d="M40 0v99h471v-99h-471zM484 529l25 -98l-331 -91l331 -90l-25 -99l-441 138v103z" />
    <glyph glyph-name="greaterequalsmcp.tnum" 
d="M40 0v99h471v-99h-471zM508 392v-103l-441 -138l-25 99l331 90l-331 91l25 98z" />
    <glyph glyph-name="percentsmcp.tnum" horiz-adv-x="910" 
d="M542 529l91 -45l-263 -494l-89 48zM385 371q0 -32 -11 -60.5t-32 -50t-52 -34.5t-71 -13q-39 0 -70 13t-52.5 34.5t-32.5 50t-11 60.5q0 31 11 60t32.5 50.5t52.5 34.5t70 13q40 0 71 -13t52 -34.5t32 -50.5t11 -60zM285 371q0 35 -17 56.5t-49 21.5t-49 -21.5t-17 -56.5
t17 -56.5t49 -21.5t49 21.5t17 56.5zM858 148q0 -32 -11 -60.5t-32 -50t-52 -34.5t-71 -13q-39 0 -70 13t-52.5 34.5t-32.5 50t-11 60.5q0 31 11 60t32.5 50.5t52.5 34.5t70 13q40 0 71 -13t52 -34.5t32 -50.5t11 -60zM758 148q0 35 -17 56.5t-49 21.5t-49 -21.5t-17 -56.5
t17 -56.5t49 -21.5t49 21.5t17 56.5z" />
    <glyph glyph-name="perthousandsmcp.tnum" horiz-adv-x="1288" 
d="M542 529l91 -45l-263 -494l-89 48zM385 371q0 -32 -11 -60.5t-32 -50t-52 -34.5t-71 -13q-39 0 -70 13t-52.5 34.5t-32.5 50t-11 60.5q0 31 11 60t32.5 50.5t52.5 34.5t70 13q40 0 71 -13t52 -34.5t32 -50.5t11 -60zM285 371q0 35 -17 56.5t-49 21.5t-49 -21.5t-17 -56.5
t17 -56.5t49 -21.5t49 21.5t17 56.5zM858 148q0 -32 -11 -60.5t-32 -50t-52 -34.5t-71 -13q-39 0 -70 13t-52.5 34.5t-32.5 50t-11 60.5q0 31 11 60t32.5 50.5t52.5 34.5t70 13q40 0 71 -13t52 -34.5t32 -50.5t11 -60zM758 148q0 35 -17 56.5t-49 21.5t-49 -21.5t-17 -56.5
t17 -56.5t49 -21.5t49 21.5t17 56.5zM1236 148q0 -32 -11 -60.5t-32 -50t-52 -34.5t-71 -13q-39 0 -70 13t-52.5 34.5t-32.5 50t-11 60.5q0 31 11 60t32.5 50.5t52.5 34.5t70 13q40 0 71 -13t52 -34.5t32 -50.5t11 -60zM1136 148q0 35 -17 56.5t-49 21.5t-49 -21.5
t-17 -56.5t17 -56.5t49 -21.5t49 21.5t17 56.5z" />
    <glyph glyph-name="A.smcp" horiz-adv-x="618" 
d="M423 100h-229l-36 -100h-139l216 519h148l216 -519h-139zM231 204h155l-77 213z" />
    <glyph glyph-name="B.smcp" horiz-adv-x="540" 
d="M505 146q0 -33 -15 -60t-42.5 -46t-66 -29.5t-84.5 -10.5h-222v519h208q43 0 79 -9t61 -25.5t39 -40t14 -53.5q0 -37 -25 -70.5t-81 -50.5q58 -8 96.5 -39t38.5 -85zM375 158q0 31 -25.5 44.5t-63.5 13.5h-79v-116h83q42 0 63.5 16t21.5 42zM266 312q35 0 57.5 14.5
t22.5 41.5q0 26 -19 38.5t-51 12.5h-69v-107h59z" />
    <glyph glyph-name="C.smcp" horiz-adv-x="528" 
d="M323 529q49 0 91.5 -8.5t71.5 -22.5l-19 -100q-25 10 -57.5 16t-66.5 6q-85 0 -127 -42.5t-42 -117.5t42 -118t127 -43q34 0 66.5 6t57.5 16l19 -100q-29 -14 -73.5 -22.5t-89.5 -8.5q-71 0 -124.5 21t-89.5 57.5t-54 85.5t-18 106t18 106t54 85t89.5 57t124.5 21z" />
    <glyph glyph-name="D.smcp" horiz-adv-x="614" 
d="M75 519h179q75 0 136 -18.5t105 -52.5t68 -82t24 -107t-24 -107t-68 -82t-105 -52t-136 -18h-179v519zM264 107q84 0 135 40t51 112t-51 112.5t-135 40.5h-52v-305h52z" />
    <glyph glyph-name="E.smcp" horiz-adv-x="497" 
d="M75 519h359v-106h-222v-98h213v-106h-213v-103h225v-106h-362v519z" />
    <glyph glyph-name="F.smcp" horiz-adv-x="479" 
d="M75 0v519h361v-108h-224v-118h215v-108h-215v-185h-137z" />
    <glyph glyph-name="G.smcp" horiz-adv-x="594" 
d="M340 529q50 0 95 -8t84 -25l-17 -106q-32 13 -73 21.5t-78 8.5q-177 0 -177 -169q0 -81 44 -120t122 -39q45 0 75 8v139h119v-215q-42 -16 -96 -25t-108 -9q-73 0 -128 19.5t-91.5 54.5t-55 83t-18.5 104q0 63 20 114.5t58.5 87.5t95 56t129.5 20z" />
    <glyph glyph-name="H.smcp" horiz-adv-x="637" 
d="M425 0v206h-213v-206h-137v519h137v-201h213v201h137v-519h-137z" />
    <glyph glyph-name="I.smcp" horiz-adv-x="293" 
d="M215 0h-137v519h137v-519z" />
    <glyph glyph-name="J.smcp" horiz-adv-x="291" 
d="M216 123q0 -44 -7 -82.5t-22.5 -72.5t-39.5 -65t-58 -61l-91 77q81 83 81 192v408h137v-396v0z" />
    <glyph glyph-name="K.smcp" horiz-adv-x="589" 
d="M75 0v519h137v-248l195 248h162l-208 -257l218 -262h-171l-196 253v-253h-137z" />
    <glyph glyph-name="L.smcp" horiz-adv-x="454" 
d="M212 519v-410h210v-109h-347v519h137z" />
    <glyph glyph-name="M.smcp" horiz-adv-x="776" 
d="M207 290l-18 -290h-131l38 519h119l173 -315l173 315h119l38 -519h-131l-18 290l-117 -213h-128z" />
    <glyph glyph-name="N.smcp" horiz-adv-x="666" 
d="M463 0l-254 306v-306h-134v519h128l254 -306v306h134v-519h-128z" />
    <glyph glyph-name="O.smcp" horiz-adv-x="640" 
d="M604 259q0 -55 -19 -104t-55.5 -85.5t-89.5 -58t-120 -21.5t-120 21.5t-89.5 58t-55.5 85.5t-19 104t19 104t55.5 86t89.5 58.5t120 21.5t120 -21.5t89.5 -58.5t55.5 -86t19 -104zM320 97q37 0 64.5 12.5t46 34.5t27.5 51.5t9 63.5t-9 63.5t-27.5 51.5t-46 35t-64.5 13
t-64.5 -13t-46 -35t-27.5 -51.5t-9 -63.5t9 -63.5t27.5 -51.5t46 -34.5t64.5 -12.5z" />
    <glyph glyph-name="P.smcp" horiz-adv-x="511" 
d="M487 350q0 -45 -18 -79t-50 -57t-77.5 -34.5t-99.5 -11.5h-30v-168h-137v519h183q52 0 94 -11t72 -33t46.5 -53.5t16.5 -71.5zM353 344q0 33 -24.5 53t-70.5 20h-46v-149h36q51 0 78 20.5t27 55.5z" />
    <glyph glyph-name="Q.smcp" horiz-adv-x="640" 
d="M360 -8q-10 -1 -19.5 -1.5t-20.5 -0.5q-67 0 -120 21.5t-89.5 58t-55.5 85.5t-19 104t19 104t55.5 86t89.5 58.5t120 21.5t120 -21.5t89.5 -58.5t55.5 -86t19 -104q0 -66 -27 -122.5t-79 -93.5l130 -80l-64 -94zM320 97q37 0 64.5 12.5t46 34.5t27.5 51.5t9 63.5t-9 63.5
t-27.5 51.5t-46 35t-64.5 13t-64.5 -13t-46 -35t-27.5 -51.5t-9 -63.5t9 -63.5t27.5 -51.5t46 -34.5t64.5 -12.5z" />
    <glyph glyph-name="R.smcp" horiz-adv-x="558" 
d="M495 354q0 -57 -29.5 -93.5t-80.5 -57.5l168 -203h-167l-135 175h-39v-175h-137v519h193q49 0 91 -10.5t72 -31t47 -51.5t17 -72zM362 350q0 35 -25.5 51t-66.5 16h-58v-146h34q51 0 83.5 20t32.5 59z" />
    <glyph glyph-name="S.smcp" horiz-adv-x="481" 
d="M440 158q0 -36 -14 -67t-41 -53.5t-66.5 -35t-90.5 -12.5q-45 0 -91.5 8.5t-87.5 24.5l22 103q13 -6 31 -11.5t38.5 -10t41.5 -7.5t41 -3q34 0 57.5 11.5t23.5 37.5q0 25 -24 38t-65 27q-36 12 -65.5 26t-50.5 33t-32.5 45t-11.5 64q0 37 14.5 66t40 48t61.5 29t79 10
q48 0 89.5 -8t77.5 -26l-20 -102q-31 15 -68.5 23.5t-74.5 8.5q-28 0 -45.5 -8.5t-17.5 -31.5t20 -34.5t57 -25.5q27 -10 57.5 -23t56 -32t42 -46t16.5 -66z" />
    <glyph glyph-name="T.smcp" horiz-adv-x="491" 
d="M464 519v-109h-150v-410h-137v410h-150v109h437z" />
    <glyph glyph-name="U.smcp" horiz-adv-x="628" 
d="M421 519h137v-318q0 -47 -17 -85.5t-49 -66.5t-77 -43.5t-101 -15.5t-101 15.5t-77 43.5t-49 66.5t-17 85.5v318h137v-320q0 -44 26.5 -72t80.5 -28t80.5 28t26.5 72v320z" />
    <glyph glyph-name="V.smcp" horiz-adv-x="550" 
d="M397 519h143l-192 -519h-146l-192 519h143l122 -372z" />
    <glyph glyph-name="W.smcp" horiz-adv-x="874" 
d="M627 182l87 337h139l-153 -519h-134l-129 372l-129 -372h-134l-153 519h139l87 -337l115 337h150z" />
    <glyph glyph-name="X.smcp" horiz-adv-x="610" 
d="M418 519h151l-191 -258l197 -261h-154l-116 161l-116 -161h-154l197 261l-191 258h151l113 -162z" />
    <glyph glyph-name="Y.smcp" horiz-adv-x="528" 
d="M196 187l-191 332h152l107 -214l107 214h152l-191 -332v-187h-136v187z" />
    <glyph glyph-name="Z.smcp" horiz-adv-x="544" 
d="M72 519h409v-101l-251 -311h256v-107h-421v101l251 311h-244v107z" />
    <glyph glyph-name="zero.smcp" horiz-adv-x="558" 
d="M515 259q0 -59 -15.5 -108t-45.5 -85t-74 -56t-101 -20t-101 20t-74 56t-45.5 85t-15.5 108t15.5 108.5t45.5 85.5t74 56t101 20t101 -20t74 -56t45.5 -85.5t15.5 -108.5zM378 259q0 75 -23 119t-76 44q-54 0 -76.5 -44t-22.5 -119t22.5 -118.5t76.5 -43.5q53 0 76 43.5
t23 118.5z" />
    <glyph glyph-name="one.smcp" horiz-adv-x="373" 
d="M161 0v380l-120 -39l-29 106l197 72h89v-519h-137z" />
    <glyph glyph-name="two.smcp" horiz-adv-x="461" 
d="M60 491q32 17 69.5 27.5t84.5 10.5q43 0 79 -11t61.5 -32t39.5 -51.5t14 -68.5q0 -37 -10 -67.5t-28.5 -57t-44.5 -51t-57 -49.5q-9 -7 -20.5 -15.5t-22.5 -16.5h193v-109h-367l-22 82q17 14 36.5 31t39 33.5t37 32t31.5 27.5q15 13 32.5 29.5t32 34.5t24 38t9.5 42
q0 35 -22 52.5t-59 17.5q-26 0 -53.5 -6.5t-50.5 -20.5z" />
    <glyph glyph-name="three.smcp" horiz-adv-x="450" 
d="M405 148q0 -38 -16.5 -67t-45 -49.5t-66 -31t-80.5 -10.5q-45 0 -86.5 9t-70.5 23l23 95q23 -11 54 -18t63 -7q38 0 63.5 13.5t25.5 44.5q0 33 -29.5 46t-69.5 13h-73v102h59q45 0 72.5 16t27.5 48q0 27 -20 39.5t-53 12.5q-25 0 -52 -6.5t-50 -17.5l-24 94q29 16 68 24
t83 8q82 0 133 -34t51 -97q0 -44 -27 -77.5t-70 -51.5q45 -13 77.5 -42t32.5 -79z" />
    <glyph glyph-name="four.smcp" horiz-adv-x="503" 
d="M402 122v-122h-126v122h-232l-20 92l234 305h144v-300h75v-97h-75zM276 402l-133 -183h133v183z" />
    <glyph glyph-name="five.smcp" horiz-adv-x="450" 
d="M414 161q0 -39 -16 -71t-45 -54t-69 -34t-89 -12q-42 0 -81.5 6t-71.5 17l18 100q22 -9 56.5 -15t63.5 -6q45 0 72.5 14t27.5 46q0 35 -29.5 48t-72.5 13h-112v306h311v-104h-179v-97h10q42 0 79.5 -8.5t65.5 -27.5t44.5 -49t16.5 -72z" />
    <glyph glyph-name="six.smcp" horiz-adv-x="484" 
d="M374 424q-77 -22 -130 -54t-73 -93q20 22 49.5 32t67.5 10q74 0 119 -40t45 -113q0 -37 -15 -69t-41.5 -56t-63 -37.5t-80.5 -13.5q-52 0 -91.5 18t-66 48.5t-40 69.5t-13.5 81q0 71 24 125t65 93t95 64t114 40zM330 159q0 32 -20 50t-54 18q-28 0 -50.5 -10.5
t-37.5 -25.5q0 -19 5 -37.5t15.5 -33.5t26 -24.5t37.5 -9.5q34 0 56 20t22 53z" />
    <glyph glyph-name="seven.smcp" horiz-adv-x="431" 
d="M406 424l-224 -424h-138l226 411h-235v108h354z" />
    <glyph glyph-name="eight.smcp" horiz-adv-x="505" 
d="M439 399q0 -42 -27.5 -72.5t-65.5 -53.5q20 -11 39.5 -23.5t35.5 -29t25.5 -37t9.5 -45.5q0 -31 -15.5 -58t-43 -47t-65 -31.5t-80.5 -11.5q-45 0 -82.5 10t-64.5 28.5t-41.5 45.5t-14.5 61q0 26 10 46.5t26 37t35.5 29.5t39.5 23q-40 23 -67 52.5t-27 75.5q0 30 14.5 54
t40 41t59 26t72.5 9t73 -9t59.5 -25.5t40 -40.5t14.5 -55zM330 136q0 24 -20.5 42.5t-57.5 38.5q-33 -19 -55.5 -36.5t-22.5 -44.5q0 -25 21 -40t57 -15q35 0 56.5 16t21.5 39zM188 393q0 -22 16.5 -37.5t49.5 -33.5q27 15 45 32t18 39q0 20 -17 32.5t-48 12.5t-47.5 -12.5
t-16.5 -32.5z" />
    <glyph glyph-name="nine.smcp" horiz-adv-x="493" 
d="M118 95q75 19 128.5 52.5t75.5 95.5q-21 -21 -51.5 -32.5t-66.5 -11.5t-66 11t-51.5 31t-34 48.5t-12.5 64.5q0 37 13.5 69t39 55.5t63 37t84.5 13.5q52 0 92 -18.5t66 -48.5t39.5 -69.5t13.5 -81.5q0 -70 -24 -123.5t-65 -92.5t-95 -64.5t-114 -40.5zM162 359
q0 -32 19.5 -50t54.5 -18q28 0 50.5 11t37.5 26q-1 19 -6 38t-15 34t-25.5 24t-37.5 9q-35 0 -56.5 -20.5t-21.5 -53.5z" />
    <glyph glyph-name="cent.smcp" horiz-adv-x="495" 
d="M357 598v-125q49 -8 83 -25l-18 -97q-24 9 -49 14t-55 5q-64 0 -96 -30.5t-32 -86.5t32 -86.5t96 -30.5q30 0 55 5t49 14l18 -97q-34 -17 -83 -25v-125h-125v128q-84 17 -131.5 74.5t-47.5 142.5t47.5 142.5t131.5 74.5v128h125z" />
    <glyph glyph-name="dollar.smcp" horiz-adv-x="477" 
d="M176 -104v110q-32 5 -67.5 15.5t-61.5 23.5l28 96q31 -15 72 -27.5t80 -12.5q35 0 55.5 11.5t20.5 35.5q0 13 -7 22t-18 16t-26.5 12.5t-31.5 12.5q-42 17 -74 32t-53.5 34t-33 44t-11.5 63q0 54 35.5 88.5t89.5 46.5v111h125v-108q27 -3 55.5 -10t53.5 -20l-20 -98
q-33 15 -70.5 23.5t-68.5 8.5q-30 0 -48 -8t-18 -31q0 -21 23 -32.5t57 -25.5q29 -12 60 -26.5t56.5 -33.5t42 -45t16.5 -62q0 -60 -36.5 -100t-99.5 -55v-111h-125z" />
    <glyph glyph-name="Euro.smcp" horiz-adv-x="548" 
d="M40 288v68h72q26 81 92.5 127t164.5 46q36 0 72.5 -6.5t61.5 -17.5l-15 -94q-21 8 -47.5 12t-51.5 4q-58 0 -93 -18t-50 -53h195v-68h-211q-1 -7 -1 -14.5v-13.5v-13.5t1 -14.5h211v-68h-195q14 -35 49.5 -53.5t93.5 -18.5q25 0 51.5 4t47.5 12l15 -94
q-25 -11 -61.5 -17.5t-72.5 -6.5q-98 0 -164.5 46.5t-92.5 127.5h-72v68h59q-1 7 -1 14v14v14t1 14h-59z" />
    <glyph glyph-name="sterling.smcp" horiz-adv-x="519" 
d="M55 299h82v21q0 56 15.5 95.5t43.5 65t67 37t87 11.5q35 0 68.5 -5.5t62.5 -19.5l-16 -99q-48 17 -98 17q-48 0 -70.5 -23t-22.5 -79v-21h152v-100h-162q-8 -29 -24 -53t-39 -42h264v-104h-393l-22 87q30 24 49 49.5t29 62.5h-73v100z" />
    <glyph glyph-name="yen.smcp" horiz-adv-x="550" 
d="M67 318h72l-101 201h139l98 -225l98 225h139l-101 -201h71v-84h-113l-26 -52v-9h139v-82h-139v-91h-137v91h-139v82h139v9l-26 52h-113v84z" />
    <glyph glyph-name="numbersign.smcp" horiz-adv-x="640" 
d="M379 117h-144l-13 -117h-101l13 117h-82v84h92l14 119h-90v84h100l13 115h100l-13 -115h145l13 115h100l-13 -115h82v-84h-91l-15 -119h90v-84h-99l-13 -117h-101zM244 201h145l14 119h-144z" />
    <glyph glyph-name="plus.smcp" horiz-adv-x="600" 
d="M359 209v-194h-118v194h-176v102h176v194h118v-194h176v-102h-176z" />
    <glyph glyph-name="plusminus.smcp" horiz-adv-x="612" 
d="M365 290v-136h-118v136h-177v102h177v134h118v-134h177v-102h-177zM70 0v99h472v-99h-472z" />
    <glyph glyph-name="multiply.smcp" horiz-adv-x="603" 
d="M302 335l155 156l76 -77l-155 -155l155 -155l-76 -77l-155 156l-156 -156l-76 77l155 155l-155 155l76 77z" />
    <glyph glyph-name="divide.smcp" horiz-adv-x="602" 
d="M65 209v101h472v-101h-472zM374 445q0 -32 -20.5 -51.5t-52.5 -19.5t-52.5 19.5t-20.5 51.5q0 31 20.5 51t52.5 20t52.5 -20t20.5 -51zM374 74q0 -32 -20.5 -51.5t-52.5 -19.5t-52.5 19.5t-20.5 51.5q0 31 20.5 51t52.5 20t52.5 -20t20.5 -51z" />
    <glyph glyph-name="equal.smcp" horiz-adv-x="610" 
d="M75 322v101h460v-101h-460zM75 97v101h460v-101h-460z" />
    <glyph glyph-name="notequal.smcp" horiz-adv-x="620" 
d="M442 423h98v-101h-146l-62 -124h208v-101h-256l-66 -134l-86 42l45 92h-97v101h146l62 124h-208v101h257l65 134l85 -43z" />
    <glyph glyph-name="logicalnot.smcp" horiz-adv-x="600" 
d="M535 14h-118v194h-352v102h470v-296z" />
    <glyph glyph-name="approxequal.smcp" horiz-adv-x="629" 
d="M425 277q-28 0 -56.5 9.5t-58.5 24.5q-26 13 -47 21t-42 8q-32 0 -54.5 -14.5t-46.5 -34.5l-55 74q34 37 71.5 60t92.5 23q32 0 58 -9t55 -26q25 -14 45 -21.5t42 -7.5q26 0 46.5 11t43.5 28l52 -76q-32 -33 -68 -51.5t-78 -18.5zM425 70q-28 0 -56.5 9.5t-58.5 24.5
q-26 13 -47 21t-42 8q-32 0 -54.5 -14.5t-46.5 -34.5l-55 74q34 37 71.5 60t92.5 23q32 0 58 -9t55 -26q25 -14 45 -21.5t42 -7.5q26 0 46.5 11t43.5 28l52 -76q-32 -33 -68 -51.5t-78 -18.5z" />
    <glyph glyph-name="endash.smcp" horiz-adv-x="553" 
d="M70 199v111h413v-111h-413z" />
    <glyph glyph-name="minus.smcp" horiz-adv-x="571" 
d="M65 206v104h441v-104h-441z" />
    <glyph glyph-name="less.smcp" horiz-adv-x="596" 
d="M494 514l42 -95l-352 -160l352 -160l-42 -95l-429 201v108z" />
    <glyph glyph-name="greater.smcp" horiz-adv-x="596" 
d="M531 313v-108l-429 -201l-42 95l352 160l-352 160l42 95z" />
    <glyph glyph-name="lessequal.smcp" horiz-adv-x="601" 
d="M65 0v99h471v-99h-471zM509 529l25 -98l-331 -91l331 -90l-25 -99l-441 138v103z" />
    <glyph glyph-name="greaterequal.smcp" horiz-adv-x="601" 
d="M65 0v99h471v-99h-471zM533 392v-103l-441 -138l-25 99l331 90l-331 91l25 98z" />
    <glyph glyph-name="percent.smcp" horiz-adv-x="910" 
d="M542 529l91 -45l-263 -494l-89 48zM385 371q0 -32 -11 -60.5t-32 -50t-52 -34.5t-71 -13q-39 0 -70 13t-52.5 34.5t-32.5 50t-11 60.5q0 31 11 60t32.5 50.5t52.5 34.5t70 13q40 0 71 -13t52 -34.5t32 -50.5t11 -60zM285 371q0 35 -17 56.5t-49 21.5t-49 -21.5t-17 -56.5
t17 -56.5t49 -21.5t49 21.5t17 56.5zM858 148q0 -32 -11 -60.5t-32 -50t-52 -34.5t-71 -13q-39 0 -70 13t-52.5 34.5t-32.5 50t-11 60.5q0 31 11 60t32.5 50.5t52.5 34.5t70 13q40 0 71 -13t52 -34.5t32 -50.5t11 -60zM758 148q0 35 -17 56.5t-49 21.5t-49 -21.5t-17 -56.5
t17 -56.5t49 -21.5t49 21.5t17 56.5z" />
    <glyph glyph-name="perthousand.smcp" horiz-adv-x="1288" 
d="M542 529l91 -45l-263 -494l-89 48zM385 371q0 -32 -11 -60.5t-32 -50t-52 -34.5t-71 -13q-39 0 -70 13t-52.5 34.5t-32.5 50t-11 60.5q0 31 11 60t32.5 50.5t52.5 34.5t70 13q40 0 71 -13t52 -34.5t32 -50.5t11 -60zM285 371q0 35 -17 56.5t-49 21.5t-49 -21.5t-17 -56.5
t17 -56.5t49 -21.5t49 21.5t17 56.5zM858 148q0 -32 -11 -60.5t-32 -50t-52 -34.5t-71 -13q-39 0 -70 13t-52.5 34.5t-32.5 50t-11 60.5q0 31 11 60t32.5 50.5t52.5 34.5t70 13q40 0 71 -13t52 -34.5t32 -50.5t11 -60zM758 148q0 35 -17 56.5t-49 21.5t-49 -21.5t-17 -56.5
t17 -56.5t49 -21.5t49 21.5t17 56.5zM1236 148q0 -32 -11 -60.5t-32 -50t-52 -34.5t-71 -13q-39 0 -70 13t-52.5 34.5t-32.5 50t-11 60.5q0 31 11 60t32.5 50.5t52.5 34.5t70 13q40 0 71 -13t52 -34.5t32 -50.5t11 -60zM1136 148q0 35 -17 56.5t-49 21.5t-49 -21.5
t-17 -56.5t17 -56.5t49 -21.5t49 21.5t17 56.5z" />
    <glyph glyph-name="period.smcp" horiz-adv-x="278" 
d="M60 72q0 32 20.5 55.5t58.5 23.5t58.5 -23.5t20.5 -55.5t-20.5 -56t-58.5 -24t-58.5 24t-20.5 56z" />
    <glyph glyph-name="ellipsis.smcp" horiz-adv-x="834" 
d="M60 72q0 32 20.5 55.5t58.5 23.5t58.5 -23.5t20.5 -55.5t-20.5 -56t-58.5 -24t-58.5 24t-20.5 56zM338 72q0 32 20.5 55.5t58.5 23.5t58.5 -23.5t20.5 -55.5t-20.5 -56t-58.5 -24t-58.5 24t-20.5 56zM616 72q0 32 20.5 55.5t58.5 23.5t58.5 -23.5t20.5 -55.5t-20.5 -56
t-58.5 -24t-58.5 24t-20.5 56z" />
    <glyph glyph-name="comma.smcp" horiz-adv-x="282" 
d="M35 -89q26 59 37.5 112.5t12.5 107.5l132 -11q-4 -69 -23.5 -131.5t-65.5 -124.5z" />
    <glyph glyph-name="colon.smcp" horiz-adv-x="278" 
d="M60 72q0 32 20.5 55.5t58.5 23.5t58.5 -23.5t20.5 -55.5t-20.5 -56t-58.5 -24t-58.5 24t-20.5 56zM60 395q0 32 20.5 55.5t58.5 23.5t58.5 -23.5t20.5 -55.5t-20.5 -56t-58.5 -24t-58.5 24t-20.5 56z" />
    <glyph glyph-name="semicolon.smcp" horiz-adv-x="278" 
d="M68 395q0 32 20.5 55.5t58.5 23.5t58.5 -23.5t20.5 -55.5t-20.5 -56t-58.5 -24t-58.5 24t-20.5 56zM29 -89q26 59 37.5 112.5t12.5 107.5l132 -11q-4 -69 -23.5 -131.5t-65.5 -124.5z" />
    <glyph glyph-name="hyphen.smcp" horiz-adv-x="394" 
d="M65 199v111h264v-111h-264z" />
    <glyph glyph-name="emdash.smcp" horiz-adv-x="819" 
d="M65 199v111h689v-111h-689z" />
    <glyph glyph-name="question.smcp" horiz-adv-x="431" 
d="M391 390q0 -44 -19 -76.5t-50.5 -57.5t-72.5 -44.5t-86 -37.5l-49 97q26 12 51.5 23.5t45 24.5t31.5 28t12 34q0 23 -17 31.5t-40 8.5q-31 0 -63.5 -11t-61.5 -28l-34 98q42 25 83.5 37t95.5 12q36 0 67.5 -9t55 -26t37.5 -43.5t14 -60.5zM119 65q0 30 20 52t54 22
q35 0 54.5 -22t19.5 -52q0 -29 -19.5 -51t-54.5 -22q-34 0 -54 22t-20 51z" />
    <glyph glyph-name="exclam.smcp" horiz-adv-x="318" 
d="M198 182h-77l-33 153v184h142v-184zM85 65q0 30 20 52t54 22q35 0 54.5 -22t19.5 -52q0 -29 -19.5 -51t-54.5 -22q-34 0 -54 22t-20 51z" />
    <glyph glyph-name="questiondown.smcp" horiz-adv-x="431" 
d="M40 129q0 44 18.5 76.5t50 57.5t73 44.5t86.5 37.5l49 -97q-26 -12 -51.5 -24t-45 -24.5t-31.5 -27.5t-12 -34q0 -23 17 -31.5t40 -8.5q31 0 63.5 11t61.5 28l34 -98q-42 -25 -83.5 -37t-95.5 -12q-36 0 -67.5 9t-55 26t-37.5 43t-14 61zM312 456q0 -30 -20 -52t-54 -22
q-35 0 -54.5 22t-19.5 52q0 29 19.5 51t54.5 22q34 0 54 -22t20 -51z" />
    <glyph glyph-name="exclamdown.smcp" horiz-adv-x="318" 
d="M230 184v-184h-142v184l33 153h77zM85 456q0 29 20 51t54 22q35 0 54.5 -22t19.5 -51q0 -30 -19.5 -52t-54.5 -22q-34 0 -54 22t-20 52z" />
    <glyph glyph-name="ampersand.smcp" horiz-adv-x="656" 
d="M413 410q0 -46 -28.5 -79.5t-67.5 -64.5q21 -15 48.5 -32.5t58.5 -35.5q20 26 39.5 57t39.5 68l88 -48q-20 -37 -40 -68.5t-40 -58.5q57 -33 132 -72l-47 -86q-38 19 -77 40t-77 42q-93 -82 -210 -82q-85 0 -135 35t-50 93q0 25 8.5 45.5t23.5 38t34.5 32.5t41.5 27
q-33 29 -54 61t-21 73q0 31 12.5 56t35.5 42.5t55 26.5t71 9q34 0 63.5 -9t50.5 -24.5t33 -37.5t12 -48zM243 78q34 0 60 11t53 34q-31 19 -61.5 39t-61.5 41q-26 -18 -40.5 -33t-14.5 -38q0 -26 17.5 -40t47.5 -14zM195 392q0 -20 13.5 -37.5t33.5 -35.5q26 18 43.5 36.5
t17.5 42.5q0 20 -14 31.5t-37 11.5q-25 0 -41 -11.5t-16 -37.5z" />
    <glyph glyph-name="ampersand.salt.smcp" horiz-adv-x="592" 
d="M45 138q0 55 32.5 86.5t80.5 45.5q-44 15 -68.5 43.5t-24.5 73.5q0 36 16 63t44.5 44.5t66.5 26t83 8.5q48 0 93 -7t84 -24l-18 -100q-76 28 -149 28q-42 0 -66 -11.5t-24 -40.5q0 -32 28 -45t73 -13h273v-102h-84v-180q-43 -20 -102.5 -32t-120.5 -12q-46 0 -85.5 8.5
t-69 26.5t-46 46t-16.5 67zM270 83q25 0 51 3.5t47 10.5v117h-84q-50 0 -80.5 -15t-30.5 -51q0 -32 25 -48.5t72 -16.5z" />
    <glyph glyph-name="at.smcp" horiz-adv-x="671" 
d="M357 325q-31 0 -46.5 -24.5t-15.5 -57.5q0 -12 4.5 -21t15.5 -9q13 0 24 8.5t22 22.5l14 79q-8 2 -18 2zM442 272q-1 -5 -1.5 -9.5t-0.5 -9.5q0 -22 11.5 -35.5t34.5 -13.5q37 0 55.5 30t18.5 73q0 39 -14.5 70t-41 52.5t-62.5 33t-78 11.5q-51 0 -94.5 -16t-75.5 -47
t-50 -75t-18 -99q0 -91 54.5 -141t156.5 -50q49 0 96 9t95 30l18 -59q-47 -22 -102 -33t-113 -11q-68 0 -121 20t-89 54.5t-55 81t-19 100.5q0 63 21.5 117.5t63 95t101 64t135.5 23.5q61 0 110.5 -17.5t84 -47.5t53 -70t18.5 -86q0 -40 -11.5 -71.5t-32.5 -54t-49.5 -34.5
t-62.5 -12q-38 0 -66 17.5t-37 41.5q-17 -24 -38.5 -39t-47.5 -15q-36 0 -54 25.5t-18 60.5q0 64 36.5 106t104.5 42q28 0 52.5 -7.5t46.5 -20.5z" />
    <glyph glyph-name="asterisk.smcp" horiz-adv-x="373" 
d="M158 432v87h57v-87l75 44l28 -49l-76 -45l76 -45l-28 -48l-75 44v-87h-57v87l-75 -44l-28 48l76 45l-76 45l28 49z" />
    <glyph glyph-name="parenleft.smcp" horiz-adv-x="350" 
d="M207 259q0 -33 4.5 -67t15.5 -70.5t28.5 -77.5t44.5 -89l-94 -55q-37 48 -62.5 93.5t-42 89t-24 87.5t-7.5 89t7.5 89t24 88t42 89t62.5 94l94 -56q-27 -48 -44.5 -89t-28.5 -77.5t-15.5 -70.5t-4.5 -67z" />
    <glyph glyph-name="parenright.smcp" horiz-adv-x="350" 
d="M143 259q0 33 -4.5 67t-15.5 70.5t-28.5 77.5t-44.5 89l94 56q73 -98 104.5 -183.5t31.5 -176.5t-31.5 -176.5t-104.5 -182.5l-94 55q27 48 44.5 89t28.5 77.5t15.5 70.5t4.5 67z" />
    <glyph glyph-name="bracketleft.smcp" horiz-adv-x="378" 
d="M95 -90v699h233v-102h-96v-495h96v-102h-233z" />
    <glyph glyph-name="bracketright.smcp" horiz-adv-x="378" 
d="M50 -90v102h96v495h-96v102h233v-699h-233z" />
    <glyph glyph-name="braceleft.smcp" horiz-adv-x="418" 
d="M267 83q0 -37 15.5 -53t46.5 -16h44v-104h-66q-91 0 -134 44t-43 138v51q0 73 -90 73v88q90 0 90 73v50q0 94 43 138t134 44h66v-104h-44q-31 0 -46.5 -16t-15.5 -53v-46q0 -47 -21 -80.5t-80 -49.5q59 -16 80 -50t21 -80v-47z" />
    </font>
</defs>
</svg>
